<svg xmlns="http://www.w3.org/2000/svg" xmlns:xlink="http://www.w3.org/1999/xlink" contentStyleType="text/css" height="1685px" preserveAspectRatio="none" style="width:1841px;height:1685px;background:#FFFFFF;" version="1.1" viewBox="0 0 1841 1685" width="1841px" zoomAndPan="magnify"><defs/><g><!--class ChessController--><g id="elem_ChessController"><rect codeLine="24" fill="#F8F8FF" height="32" id="ChessController" style="stroke:#696969;stroke-width:0.5;" width="140.6094" x="170.8654" y="12"/><ellipse cx="185.8654" cy="28" fill="#B4A7E5" rx="11" ry="11" style="stroke:#181818;stroke-width:1;"/><path d="M182.2932,24.2651 L182.2932,22.1069 L189.6725,22.1069 L189.6725,24.2651 L187.2072,24.2651 L187.2072,32.3418 L189.6725,32.3418 L189.6725,34.5 L182.2932,34.5 L182.2932,32.3418 L184.7585,32.3418 L184.7585,24.2651 Z " fill="#000000"/><text fill="#696969" font-family="sans-serif" font-size="14" font-style="italic" lengthAdjust="spacing" textLength="108.6094" x="199.8654" y="33.291">ChessController</text></g><!--class UserChoice--><g id="elem_UserChoice"><rect codeLine="26" fill="#F8F8FF" height="32" id="UserChoice" style="stroke:#696969;stroke-width:0.5;" width="108.3574" x="998.8888" y="869.5898"/><ellipse cx="1013.8888" cy="885.5898" fill="#B4A7E5" rx="11" ry="11" style="stroke:#181818;stroke-width:1;"/><path d="M1010.3166,881.855 L1010.3166,879.6968 L1017.696,879.6968 L1017.696,881.855 L1015.2306,881.855 L1015.2306,889.9316 L1017.696,889.9316 L1017.696,892.0898 L1010.3166,892.0898 L1010.3166,889.9316 L1012.7819,889.9316 L1012.7819,881.855 Z " fill="#000000"/><text fill="#696969" font-family="sans-serif" font-size="14" font-style="italic" lengthAdjust="spacing" textLength="76.3574" x="1027.8888" y="890.8809">UserChoice</text></g><!--class ChessView--><g id="elem_ChessView"><rect codeLine="32" fill="#F8F8FF" height="32" id="ChessView" style="stroke:#696969;stroke-width:0.5;" width="104.2354" x="182.9901" y="429.1055"/><ellipse cx="197.9901" cy="445.1055" fill="#B4A7E5" rx="11" ry="11" style="stroke:#181818;stroke-width:1;"/><path d="M194.4178,441.3706 L194.4178,439.2124 L201.7972,439.2124 L201.7972,441.3706 L199.3319,441.3706 L199.3319,449.4473 L201.7972,449.4473 L201.7972,451.6055 L194.4178,451.6055 L194.4178,449.4473 L196.8832,449.4473 L196.8832,441.3706 Z " fill="#000000"/><text fill="#696969" font-family="sans-serif" font-size="14" font-style="italic" lengthAdjust="spacing" textLength="72.2354" x="211.9901" y="450.3965">ChessView</text></g><!--class ChessEngine--><g id="elem_ChessEngine"><rect codeLine="59" fill="#FDF5E6" height="32" id="ChessEngine" style="stroke:#181818;stroke-width:0.5;" width="117.9893" x="418.2648" y="101.3105"/><ellipse cx="433.2648" cy="117.3105" fill="#ADD1B2" rx="11" ry="11" style="stroke:#181818;stroke-width:1;"/><path d="M435.738,123.4536 Q435.1569,123.7524 434.5178,123.9019 Q433.8786,124.0513 433.173,124.0513 Q430.6662,124.0513 429.3464,122.3994 Q428.0266,120.7476 428.0266,117.6265 Q428.0266,114.4971 429.3464,112.8452 Q430.6662,111.1934 433.173,111.1934 Q433.8786,111.1934 434.5261,111.3428 Q435.1735,111.4922 435.738,111.791 L435.738,114.5137 Q435.1071,113.9326 434.5136,113.6628 Q433.9201,113.3931 433.2892,113.3931 Q431.9445,113.3931 431.2597,114.4597 Q430.5749,115.5264 430.5749,117.6265 Q430.5749,119.7183 431.2597,120.7849 Q431.9445,121.8516 433.2892,121.8516 Q433.9201,121.8516 434.5136,121.5818 Q435.1071,121.312 435.738,120.731 Z " fill="#000000"/><text fill="#000000" font-family="sans-serif" font-size="14" lengthAdjust="spacing" textLength="85.9893" x="447.2648" y="122.6016">ChessEngine</text></g><!--class ChessBoardWriter--><g id="elem_ChessBoardWriter"><rect codeLine="61" fill="#FDF5E6" height="32" id="ChessBoardWriter" style="stroke:#181818;stroke-width:0.5;" width="151.8887" x="246.3762" y="101.3105"/><ellipse cx="261.3762" cy="117.3105" fill="#B4A7E5" rx="11" ry="11" style="stroke:#181818;stroke-width:1;"/><path d="M257.8039,113.5757 L257.8039,111.4175 L265.1833,111.4175 L265.1833,113.5757 L262.718,113.5757 L262.718,121.6523 L265.1833,121.6523 L265.1833,123.8105 L257.8039,123.8105 L257.8039,121.6523 L260.2692,121.6523 L260.2692,113.5757 Z " fill="#000000"/><text fill="#000000" font-family="sans-serif" font-size="14" font-style="italic" lengthAdjust="spacing" textLength="119.8887" x="275.3762" y="122.6016">ChessBoardWriter</text></g><!--class ChessBoardReader--><g id="elem_ChessBoardReader"><rect codeLine="63" fill="#FDF5E6" height="32" id="ChessBoardReader" style="stroke:#181818;stroke-width:0.5;" width="158.0957" x="885.8505" y="293.1738"/><ellipse cx="900.8505" cy="309.1738" fill="#B4A7E5" rx="11" ry="11" style="stroke:#181818;stroke-width:1;"/><path d="M897.2783,305.439 L897.2783,303.2808 L904.6577,303.2808 L904.6577,305.439 L902.1923,305.439 L902.1923,313.5156 L904.6577,313.5156 L904.6577,315.6738 L897.2783,315.6738 L897.2783,313.5156 L899.7436,313.5156 L899.7436,305.439 Z " fill="#000000"/><text fill="#000000" font-family="sans-serif" font-size="14" font-style="italic" lengthAdjust="spacing" textLength="126.0957" x="914.8505" y="314.4648">ChessBoardReader</text></g><!--class ChessBoardController--><g id="elem_ChessBoardController"><rect codeLine="65" fill="#FDF5E6" height="32" id="ChessBoardController" style="stroke:#181818;stroke-width:0.5;" width="179.5332" x="237.1613" y="293.1738"/><ellipse cx="252.1613" cy="309.1738" fill="#ADD1B2" rx="11" ry="11" style="stroke:#181818;stroke-width:1;"/><path d="M254.6345,315.3169 Q254.0534,315.6157 253.4142,315.7651 Q252.7751,315.9146 252.0695,315.9146 Q249.5627,315.9146 248.2429,314.2627 Q246.923,312.6108 246.923,309.4897 Q246.923,306.3604 248.2429,304.7085 Q249.5627,303.0566 252.0695,303.0566 Q252.7751,303.0566 253.4225,303.2061 Q254.07,303.3555 254.6345,303.6543 L254.6345,306.377 Q254.0036,305.7959 253.4101,305.5261 Q252.8166,305.2563 252.1857,305.2563 Q250.841,305.2563 250.1562,306.323 Q249.4714,307.3896 249.4714,309.4897 Q249.4714,311.5815 250.1562,312.6482 Q250.841,313.7148 252.1857,313.7148 Q252.8166,313.7148 253.4101,313.4451 Q254.0036,313.1753 254.6345,312.5942 Z " fill="#000000"/><text fill="#000000" font-family="sans-serif" font-size="14" lengthAdjust="spacing" textLength="147.5332" x="266.1613" y="314.4648">ChessBoardController</text></g><!--class Cloneable--><g id="elem_Cloneable"><rect codeLine="67" fill="#F8F8FF" height="32" id="Cloneable" style="stroke:#696969;stroke-width:0.5;" width="99.2109" x="1063.9462" y="293.1738"/><ellipse cx="1078.9462" cy="309.1738" fill="#B4A7E5" rx="11" ry="11" style="stroke:#181818;stroke-width:1;"/><path d="M1075.374,305.439 L1075.374,303.2808 L1082.7534,303.2808 L1082.7534,305.439 L1080.288,305.439 L1080.288,313.5156 L1082.7534,313.5156 L1082.7534,315.6738 L1075.374,315.6738 L1075.374,313.5156 L1077.8393,313.5156 L1077.8393,305.439 Z " fill="#000000"/><text fill="#696969" font-family="sans-serif" font-size="14" font-style="italic" lengthAdjust="spacing" textLength="67.2109" x="1092.9462" y="314.4648">Cloneable</text></g><!--class ChessBoard--><g id="elem_ChessBoard"><rect codeLine="69" fill="#FDF5E6" height="32" id="ChessBoard" style="stroke:#181818;stroke-width:0.5;" width="111.3721" x="898.0751" y="429.1055"/><ellipse cx="913.0751" cy="445.1055" fill="#ADD1B2" rx="11" ry="11" style="stroke:#181818;stroke-width:1;"/><path d="M915.5483,451.2485 Q914.9672,451.5474 914.3281,451.6968 Q913.6889,451.8462 912.9833,451.8462 Q910.4765,451.8462 909.1567,450.1943 Q907.8369,448.5425 907.8369,445.4214 Q907.8369,442.292 909.1567,440.6401 Q910.4765,438.9883 912.9833,438.9883 Q913.6889,438.9883 914.3364,439.1377 Q914.9838,439.2871 915.5483,439.5859 L915.5483,442.3086 Q914.9174,441.7275 914.3239,441.4578 Q913.7304,441.188 913.0996,441.188 Q911.7548,441.188 911.07,442.2546 Q910.3852,443.3213 910.3852,445.4214 Q910.3852,447.5132 911.07,448.5798 Q911.7548,449.6465 913.0996,449.6465 Q913.7304,449.6465 914.3239,449.3767 Q914.9174,449.1069 915.5483,448.5259 Z " fill="#000000"/><text fill="#000000" font-family="sans-serif" font-size="14" lengthAdjust="spacing" textLength="79.3721" x="927.0751" y="450.3965">ChessBoard</text></g><!--class ChessBoardInitializer--><g id="elem_ChessBoardInitializer"><rect codeLine="71" fill="#FDF5E6" height="32" id="ChessBoardInitializer" style="stroke:#181818;stroke-width:0.5;" width="174.8027" x="665.5507" y="293.1738"/><ellipse cx="680.5507" cy="309.1738" fill="#A9DCDF" rx="11" ry="11" style="stroke:#181818;stroke-width:1;"/><path d="M680.414,304.522 L679.2602,309.5938 L681.5761,309.5938 Z M678.9199,302.2808 L681.9164,302.2808 L685.2617,314.6738 L682.8129,314.6738 L682.0493,311.6108 L678.7704,311.6108 L678.0234,314.6738 L675.5746,314.6738 Z " fill="#000000"/><text fill="#000000" font-family="sans-serif" font-size="14" font-style="italic" lengthAdjust="spacing" textLength="142.8027" x="694.5507" y="314.4648">ChessBoardInitializer</text></g><!--class Position--><g id="elem_Position"><rect codeLine="73" fill="#FDF5E6" height="32" id="Position" style="stroke:#181818;stroke-width:0.5;" width="86.0928" x="264.1876" y="1055.5215"/><ellipse cx="279.1876" cy="1071.5215" fill="#ADD1B2" rx="11" ry="11" style="stroke:#181818;stroke-width:1;"/><path d="M281.6607,1077.6646 Q281.0797,1077.9634 280.4405,1078.1128 Q279.8013,1078.2622 279.0958,1078.2622 Q276.5889,1078.2622 275.2691,1076.6104 Q273.9493,1074.9585 273.9493,1071.8374 Q273.9493,1068.708 275.2691,1067.0562 Q276.5889,1065.4043 279.0958,1065.4043 Q279.8013,1065.4043 280.4488,1065.5537 Q281.0963,1065.7031 281.6607,1066.002 L281.6607,1068.7246 Q281.0299,1068.1436 280.4363,1067.8738 Q279.8428,1067.604 279.212,1067.604 Q277.8673,1067.604 277.1824,1068.6707 Q276.4976,1069.7373 276.4976,1071.8374 Q276.4976,1073.9292 277.1824,1074.9958 Q277.8673,1076.0625 279.212,1076.0625 Q279.8428,1076.0625 280.4363,1075.7927 Q281.0299,1075.5229 281.6607,1074.9419 Z " fill="#000000"/><text fill="#000000" font-family="sans-serif" font-size="14" lengthAdjust="spacing" textLength="54.0928" x="293.1876" y="1076.8125">Position</text></g><!--class PlayerColor--><g id="elem_PlayerColor"><rect codeLine="75" fill="#F8F8FF" height="72.9766" id="PlayerColor" style="stroke:#696969;stroke-width:0.5;" width="109.0205" x="1369.8965" y="1055.5215"/><ellipse cx="1384.8965" cy="1071.5215" fill="#EB937F" rx="11" ry="11" style="stroke:#181818;stroke-width:1;"/><path d="M1388.5107,1078.0215 L1380.791,1078.0215 L1380.791,1065.6284 L1388.5107,1065.6284 L1388.5107,1067.7866 L1383.2397,1067.7866 L1383.2397,1070.4595 L1388.0127,1070.4595 L1388.0127,1072.6177 L1383.2397,1072.6177 L1383.2397,1075.8633 L1388.5107,1075.8633 Z " fill="#000000"/><text fill="#696969" font-family="sans-serif" font-size="14" lengthAdjust="spacing" textLength="77.0205" x="1398.8965" y="1076.8125">PlayerColor</text><line style="stroke:#696969;stroke-width:0.5;" x1="1370.8965" x2="1477.917" y1="1087.5215" y2="1087.5215"/><text fill="#696969" font-family="sans-serif" font-size="14" lengthAdjust="spacing" textLength="42.7383" x="1375.8965" y="1105.0566">WHITE</text><text fill="#696969" font-family="sans-serif" font-size="14" lengthAdjust="spacing" textLength="44.0029" x="1375.8965" y="1121.5449">BLACK</text></g><!--class PieceType--><g id="elem_PieceType"><rect codeLine="80" fill="#F8F8FF" height="138.9297" id="PieceType" style="stroke:#696969;stroke-width:0.5;" width="99.334" x="1654.0508" y="1055.5215"/><ellipse cx="1669.0508" cy="1071.5215" fill="#EB937F" rx="11" ry="11" style="stroke:#181818;stroke-width:1;"/><path d="M1672.665,1078.0215 L1664.9453,1078.0215 L1664.9453,1065.6284 L1672.665,1065.6284 L1672.665,1067.7866 L1667.394,1067.7866 L1667.394,1070.4595 L1672.167,1070.4595 L1672.167,1072.6177 L1667.394,1072.6177 L1667.394,1075.8633 L1672.665,1075.8633 Z " fill="#000000"/><text fill="#696969" font-family="sans-serif" font-size="14" lengthAdjust="spacing" textLength="67.334" x="1683.0508" y="1076.8125">PieceType</text><line style="stroke:#696969;stroke-width:0.5;" x1="1655.0508" x2="1752.3848" y1="1087.5215" y2="1087.5215"/><text fill="#696969" font-family="sans-serif" font-size="14" lengthAdjust="spacing" textLength="39.7168" x="1660.0508" y="1105.0566">PAWN</text><text fill="#696969" font-family="sans-serif" font-size="14" lengthAdjust="spacing" textLength="39.7441" x="1660.0508" y="1121.5449">ROOK</text><text fill="#696969" font-family="sans-serif" font-size="14" lengthAdjust="spacing" textLength="52.7734" x="1660.0508" y="1138.0332">KNIGHT</text><text fill="#696969" font-family="sans-serif" font-size="14" lengthAdjust="spacing" textLength="48.5283" x="1660.0508" y="1154.5215">BISHOP</text><text fill="#696969" font-family="sans-serif" font-size="14" lengthAdjust="spacing" textLength="46.0947" x="1660.0508" y="1171.0098">QUEEN</text><text fill="#696969" font-family="sans-serif" font-size="14" lengthAdjust="spacing" textLength="33.6328" x="1660.0508" y="1187.498">KING</text></g><!--class ChessPiece--><g id="elem_ChessPiece"><rect codeLine="89" fill="#FDF5E6" height="32" id="ChessPiece" style="stroke:#181818;stroke-width:0.5;" width="107.0039" x="1127.2463" y="869.5898"/><ellipse cx="1142.2463" cy="885.5898" fill="#A9DCDF" rx="11" ry="11" style="stroke:#181818;stroke-width:1;"/><path d="M1142.1095,880.938 L1140.9557,886.0098 L1143.2716,886.0098 Z M1140.6154,878.6968 L1143.612,878.6968 L1146.9572,891.0898 L1144.5085,891.0898 L1143.7448,888.0269 L1140.466,888.0269 L1139.7189,891.0898 L1137.2702,891.0898 Z " fill="#000000"/><text fill="#000000" font-family="sans-serif" font-size="14" font-style="italic" lengthAdjust="spacing" textLength="75.0039" x="1156.2463" y="890.8809">ChessPiece</text></g><!--class PromotableChessPiece--><g id="elem_PromotableChessPiece"><rect codeLine="90" fill="#FDF5E6" height="32" id="PromotableChessPiece" style="stroke:#181818;stroke-width:0.5;" width="184.3662" x="991.6121" y="1121.0378"/><ellipse cx="1006.6121" cy="1137.0378" fill="#A9DCDF" rx="11" ry="11" style="stroke:#181818;stroke-width:1;"/><path d="M1006.4754,1132.3859 L1005.3216,1137.4577 L1007.6375,1137.4577 Z M1004.9813,1130.1447 L1007.9779,1130.1447 L1011.3231,1142.5378 L1008.8743,1142.5378 L1008.1107,1139.4748 L1004.8319,1139.4748 L1004.0848,1142.5378 L1001.6361,1142.5378 Z " fill="#000000"/><text fill="#000000" font-family="sans-serif" font-size="14" font-style="italic" lengthAdjust="spacing" textLength="152.3662" x="1020.6121" y="1142.3288">PromotableChessPiece</text></g><!--class Pawn--><g id="elem_Pawn"><rect codeLine="91" fill="#FDF5E6" height="32" id="Pawn" style="stroke:#181818;stroke-width:0.5;" width="66.9453" x="1278.5828" y="1055.5215"/><ellipse cx="1293.5828" cy="1071.5215" fill="#ADD1B2" rx="11" ry="11" style="stroke:#181818;stroke-width:1;"/><path d="M1296.056,1077.6646 Q1295.4749,1077.9634 1294.8358,1078.1128 Q1294.1966,1078.2622 1293.491,1078.2622 Q1290.9842,1078.2622 1289.6644,1076.6104 Q1288.3446,1074.9585 1288.3446,1071.8374 Q1288.3446,1068.708 1289.6644,1067.0562 Q1290.9842,1065.4043 1293.491,1065.4043 Q1294.1966,1065.4043 1294.8441,1065.5537 Q1295.4915,1065.7031 1296.056,1066.002 L1296.056,1068.7246 Q1295.4251,1068.1436 1294.8316,1067.8738 Q1294.2381,1067.604 1293.6073,1067.604 Q1292.2625,1067.604 1291.5777,1068.6707 Q1290.8929,1069.7373 1290.8929,1071.8374 Q1290.8929,1073.9292 1291.5777,1074.9958 Q1292.2625,1076.0625 1293.6073,1076.0625 Q1294.2381,1076.0625 1294.8316,1075.7927 Q1295.4251,1075.5229 1296.056,1074.9419 Z " fill="#000000"/><text fill="#000000" font-family="sans-serif" font-size="14" lengthAdjust="spacing" textLength="34.9453" x="1307.5828" y="1076.8125">Pawn</text></g><!--class Rook--><g id="elem_Rook"><rect codeLine="92" fill="#FDF5E6" height="32" id="Rook" style="stroke:#181818;stroke-width:0.5;" width="66.2344" x="1086.75" y="1254.4512"/><ellipse cx="1101.75" cy="1270.4512" fill="#ADD1B2" rx="11" ry="11" style="stroke:#181818;stroke-width:1;"/><path d="M1104.2232,1276.5942 Q1103.6421,1276.8931 1103.003,1277.0425 Q1102.3638,1277.1919 1101.6582,1277.1919 Q1099.1514,1277.1919 1097.8316,1275.54 Q1096.5118,1273.8882 1096.5118,1270.7671 Q1096.5118,1267.6377 1097.8316,1265.9858 Q1099.1514,1264.334 1101.6582,1264.334 Q1102.3638,1264.334 1103.0113,1264.4834 Q1103.6587,1264.6328 1104.2232,1264.9316 L1104.2232,1267.6543 Q1103.5923,1267.0732 1102.9988,1266.8035 Q1102.4053,1266.5337 1101.7744,1266.5337 Q1100.4297,1266.5337 1099.7449,1267.6003 Q1099.0601,1268.667 1099.0601,1270.7671 Q1099.0601,1272.8589 1099.7449,1273.9255 Q1100.4297,1274.9922 1101.7744,1274.9922 Q1102.4053,1274.9922 1102.9988,1274.7224 Q1103.5923,1274.4526 1104.2232,1273.8716 Z " fill="#000000"/><text fill="#000000" font-family="sans-serif" font-size="14" lengthAdjust="spacing" textLength="34.2344" x="1115.75" y="1275.7422">Rook</text></g><!--class Knight--><g id="elem_Knight"><rect codeLine="93" fill="#FDF5E6" height="32" id="Knight" style="stroke:#181818;stroke-width:0.5;" width="76.5293" x="990.2207" y="1254.4512"/><ellipse cx="1005.2207" cy="1270.4512" fill="#ADD1B2" rx="11" ry="11" style="stroke:#181818;stroke-width:1;"/><path d="M1007.6939,1276.5942 Q1007.1128,1276.8931 1006.4737,1277.0425 Q1005.8345,1277.1919 1005.1289,1277.1919 Q1002.6221,1277.1919 1001.3023,1275.54 Q999.9825,1273.8882 999.9825,1270.7671 Q999.9825,1267.6377 1001.3023,1265.9858 Q1002.6221,1264.334 1005.1289,1264.334 Q1005.8345,1264.334 1006.482,1264.4834 Q1007.1294,1264.6328 1007.6939,1264.9316 L1007.6939,1267.6543 Q1007.063,1267.0732 1006.4695,1266.8035 Q1005.876,1266.5337 1005.2451,1266.5337 Q1003.9004,1266.5337 1003.2156,1267.6003 Q1002.5308,1268.667 1002.5308,1270.7671 Q1002.5308,1272.8589 1003.2156,1273.9255 Q1003.9004,1274.9922 1005.2451,1274.9922 Q1005.876,1274.9922 1006.4695,1274.7224 Q1007.063,1274.4526 1007.6939,1273.8716 Z " fill="#000000"/><text fill="#000000" font-family="sans-serif" font-size="14" lengthAdjust="spacing" textLength="44.5293" x="1019.2207" y="1275.7422">Knight</text></g><!--class Bishop--><g id="elem_Bishop"><rect codeLine="94" fill="#FDF5E6" height="32" id="Bishop" style="stroke:#181818;stroke-width:0.5;" width="77.3359" x="1268.8369" y="1254.4512"/><ellipse cx="1283.8369" cy="1270.4512" fill="#ADD1B2" rx="11" ry="11" style="stroke:#181818;stroke-width:1;"/><path d="M1286.3101,1276.5942 Q1285.729,1276.8931 1285.0899,1277.0425 Q1284.4507,1277.1919 1283.7451,1277.1919 Q1281.2383,1277.1919 1279.9185,1275.54 Q1278.5987,1273.8882 1278.5987,1270.7671 Q1278.5987,1267.6377 1279.9185,1265.9858 Q1281.2383,1264.334 1283.7451,1264.334 Q1284.4507,1264.334 1285.0982,1264.4834 Q1285.7456,1264.6328 1286.3101,1264.9316 L1286.3101,1267.6543 Q1285.6792,1267.0732 1285.0857,1266.8035 Q1284.4922,1266.5337 1283.8614,1266.5337 Q1282.5166,1266.5337 1281.8318,1267.6003 Q1281.147,1268.667 1281.147,1270.7671 Q1281.147,1272.8589 1281.8318,1273.9255 Q1282.5166,1274.9922 1283.8614,1274.9922 Q1284.4922,1274.9922 1285.0857,1274.7224 Q1285.6792,1274.4526 1286.3101,1273.8716 Z " fill="#000000"/><text fill="#000000" font-family="sans-serif" font-size="14" lengthAdjust="spacing" textLength="45.3359" x="1297.8369" y="1275.7422">Bishop</text></g><!--class Queen--><g id="elem_Queen"><rect codeLine="95" fill="#FDF5E6" height="32" id="Queen" style="stroke:#181818;stroke-width:0.5;" width="75.8525" x="1172.9844" y="1254.4512"/><ellipse cx="1187.9844" cy="1270.4512" fill="#ADD1B2" rx="11" ry="11" style="stroke:#181818;stroke-width:1;"/><path d="M1190.4576,1276.5942 Q1189.8765,1276.8931 1189.2373,1277.0425 Q1188.5982,1277.1919 1187.8926,1277.1919 Q1185.3858,1277.1919 1184.066,1275.54 Q1182.7461,1273.8882 1182.7461,1270.7671 Q1182.7461,1267.6377 1184.066,1265.9858 Q1185.3858,1264.334 1187.8926,1264.334 Q1188.5982,1264.334 1189.2456,1264.4834 Q1189.8931,1264.6328 1190.4576,1264.9316 L1190.4576,1267.6543 Q1189.8267,1267.0732 1189.2332,1266.8035 Q1188.6397,1266.5337 1188.0088,1266.5337 Q1186.6641,1266.5337 1185.9793,1267.6003 Q1185.2945,1268.667 1185.2945,1270.7671 Q1185.2945,1272.8589 1185.9793,1273.9255 Q1186.6641,1274.9922 1188.0088,1274.9922 Q1188.6397,1274.9922 1189.2332,1274.7224 Q1189.8267,1274.4526 1190.4576,1273.8716 Z " fill="#000000"/><text fill="#000000" font-family="sans-serif" font-size="14" lengthAdjust="spacing" textLength="43.8525" x="1201.9844" y="1275.7422">Queen</text></g><!--class King--><g id="elem_King"><rect codeLine="96" fill="#FDF5E6" height="32" id="King" style="stroke:#181818;stroke-width:0.5;" width="62.6045" x="1195.9784" y="1055.5215"/><ellipse cx="1210.9784" cy="1071.5215" fill="#ADD1B2" rx="11" ry="11" style="stroke:#181818;stroke-width:1;"/><path d="M1213.4515,1077.6646 Q1212.8704,1077.9634 1212.2313,1078.1128 Q1211.5921,1078.2622 1210.8866,1078.2622 Q1208.3797,1078.2622 1207.0599,1076.6104 Q1205.7401,1074.9585 1205.7401,1071.8374 Q1205.7401,1068.708 1207.0599,1067.0562 Q1208.3797,1065.4043 1210.8866,1065.4043 Q1211.5921,1065.4043 1212.2396,1065.5537 Q1212.887,1065.7031 1213.4515,1066.002 L1213.4515,1068.7246 Q1212.8206,1068.1436 1212.2271,1067.8738 Q1211.6336,1067.604 1211.0028,1067.604 Q1209.658,1067.604 1208.9732,1068.6707 Q1208.2884,1069.7373 1208.2884,1071.8374 Q1208.2884,1073.9292 1208.9732,1074.9958 Q1209.658,1076.0625 1211.0028,1076.0625 Q1211.6336,1076.0625 1212.2271,1075.7927 Q1212.8206,1075.5229 1213.4515,1074.9419 Z " fill="#000000"/><text fill="#000000" font-family="sans-serif" font-size="14" lengthAdjust="spacing" textLength="30.6045" x="1224.9784" y="1076.8125">King</text></g><!--class MoveGenerator--><g id="elem_MoveGenerator"><rect codeLine="99" fill="#FDF5E6" height="32" id="MoveGenerator" style="stroke:#181818;stroke-width:0.5;" width="135.1338" x="1498.917" y="1112.7551"/><ellipse cx="1513.917" cy="1128.7551" fill="#A9DCDF" rx="11" ry="11" style="stroke:#181818;stroke-width:1;"/><path d="M1513.7803,1124.1032 L1512.6265,1129.175 L1514.9424,1129.175 Z M1512.2861,1121.862 L1515.2827,1121.862 L1518.6279,1134.2551 L1516.1792,1134.2551 L1515.4155,1131.1921 L1512.1367,1131.1921 L1511.3896,1134.2551 L1508.9409,1134.2551 Z " fill="#000000"/><text fill="#000000" font-family="sans-serif" font-size="14" font-style="italic" lengthAdjust="spacing" textLength="103.1338" x="1527.917" y="1134.0461">MoveGenerator</text></g><!--class DirectionalGenerator--><g id="elem_DirectionalGenerator"><rect codeLine="100" fill="#FDF5E6" height="32" id="DirectionalGenerator" style="stroke:#181818;stroke-width:0.5;" width="173.0117" x="1448.7421" y="1380.3828"/><ellipse cx="1463.7421" cy="1396.3828" fill="#ADD1B2" rx="11" ry="11" style="stroke:#181818;stroke-width:1;"/><path d="M1466.2153,1402.5259 Q1465.6342,1402.8247 1464.995,1402.9741 Q1464.3559,1403.1235 1463.6503,1403.1235 Q1461.1435,1403.1235 1459.8236,1401.4717 Q1458.5038,1399.8198 1458.5038,1396.6987 Q1458.5038,1393.5693 1459.8236,1391.9175 Q1461.1435,1390.2656 1463.6503,1390.2656 Q1464.3559,1390.2656 1465.0033,1390.415 Q1465.6508,1390.5645 1466.2153,1390.8633 L1466.2153,1393.5859 Q1465.5844,1393.0049 1464.9909,1392.7351 Q1464.3974,1392.4653 1463.7665,1392.4653 Q1462.4218,1392.4653 1461.737,1393.532 Q1461.0522,1394.5986 1461.0522,1396.6987 Q1461.0522,1398.7905 1461.737,1399.8572 Q1462.4218,1400.9238 1463.7665,1400.9238 Q1464.3974,1400.9238 1464.9909,1400.6541 Q1465.5844,1400.3843 1466.2153,1399.8032 Z " fill="#000000"/><text fill="#000000" font-family="sans-serif" font-size="14" lengthAdjust="spacing" textLength="141.0117" x="1477.7421" y="1401.6738">DirectionalGenerator</text></g><!--class KnightGenerator--><g id="elem_KnightGenerator"><rect codeLine="101" fill="#FDF5E6" height="32" id="KnightGenerator" style="stroke:#181818;stroke-width:0.5;" width="143.959" x="1655.5637" y="1254.4512"/><ellipse cx="1670.5637" cy="1270.4512" fill="#ADD1B2" rx="11" ry="11" style="stroke:#181818;stroke-width:1;"/><path d="M1673.0369,1276.5942 Q1672.4558,1276.8931 1671.8167,1277.0425 Q1671.1775,1277.1919 1670.4719,1277.1919 Q1667.9651,1277.1919 1666.6453,1275.54 Q1665.3254,1273.8882 1665.3254,1270.7671 Q1665.3254,1267.6377 1666.6453,1265.9858 Q1667.9651,1264.334 1670.4719,1264.334 Q1671.1775,1264.334 1671.825,1264.4834 Q1672.4724,1264.6328 1673.0369,1264.9316 L1673.0369,1267.6543 Q1672.406,1267.0732 1671.8125,1266.8035 Q1671.219,1266.5337 1670.5881,1266.5337 Q1669.2434,1266.5337 1668.5586,1267.6003 Q1667.8738,1268.667 1667.8738,1270.7671 Q1667.8738,1272.8589 1668.5586,1273.9255 Q1669.2434,1274.9922 1670.5881,1274.9922 Q1671.219,1274.9922 1671.8125,1274.7224 Q1672.406,1274.4526 1673.0369,1273.8716 Z " fill="#000000"/><text fill="#000000" font-family="sans-serif" font-size="14" lengthAdjust="spacing" textLength="111.959" x="1684.5637" y="1275.7422">KnightGenerator</text></g><!--class DistanceGenerator--><g id="elem_DistanceGenerator"><rect codeLine="102" fill="#FDF5E6" height="32" id="DistanceGenerator" style="stroke:#181818;stroke-width:0.5;" width="157.7266" x="1453.8372" y="1254.4512"/><ellipse cx="1468.8372" cy="1270.4512" fill="#ADD1B2" rx="11" ry="11" style="stroke:#181818;stroke-width:1;"/><path d="M1471.3103,1276.5942 Q1470.7292,1276.8931 1470.0901,1277.0425 Q1469.4509,1277.1919 1468.7454,1277.1919 Q1466.2385,1277.1919 1464.9187,1275.54 Q1463.5989,1273.8882 1463.5989,1270.7671 Q1463.5989,1267.6377 1464.9187,1265.9858 Q1466.2385,1264.334 1468.7454,1264.334 Q1469.4509,1264.334 1470.0984,1264.4834 Q1470.7458,1264.6328 1471.3103,1264.9316 L1471.3103,1267.6543 Q1470.6794,1267.0732 1470.0859,1266.8035 Q1469.4924,1266.5337 1468.8616,1266.5337 Q1467.5168,1266.5337 1466.832,1267.6003 Q1466.1472,1268.667 1466.1472,1270.7671 Q1466.1472,1272.8589 1466.832,1273.9255 Q1467.5168,1274.9922 1468.8616,1274.9922 Q1469.4924,1274.9922 1470.0859,1274.7224 Q1470.6794,1274.4526 1471.3103,1273.8716 Z " fill="#000000"/><text fill="#000000" font-family="sans-serif" font-size="14" lengthAdjust="spacing" textLength="125.7266" x="1482.8372" y="1275.7422">DistanceGenerator</text></g><!--class PawnDistanceGenerator--><g id="elem_PawnDistanceGenerator"><rect codeLine="103" fill="#FDF5E6" height="32" id="PawnDistanceGenerator" style="stroke:#181818;stroke-width:0.5;" width="192.6719" x="1641.7538" y="1380.3828"/><ellipse cx="1656.7538" cy="1396.3828" fill="#ADD1B2" rx="11" ry="11" style="stroke:#181818;stroke-width:1;"/><path d="M1659.227,1402.5259 Q1658.6459,1402.8247 1658.0068,1402.9741 Q1657.3676,1403.1235 1656.662,1403.1235 Q1654.1552,1403.1235 1652.8354,1401.4717 Q1651.5155,1399.8198 1651.5155,1396.6987 Q1651.5155,1393.5693 1652.8354,1391.9175 Q1654.1552,1390.2656 1656.662,1390.2656 Q1657.3676,1390.2656 1658.0151,1390.415 Q1658.6625,1390.5645 1659.227,1390.8633 L1659.227,1393.5859 Q1658.5961,1393.0049 1658.0026,1392.7351 Q1657.4091,1392.4653 1656.7782,1392.4653 Q1655.4335,1392.4653 1654.7487,1393.532 Q1654.0639,1394.5986 1654.0639,1396.6987 Q1654.0639,1398.7905 1654.7487,1399.8572 Q1655.4335,1400.9238 1656.7782,1400.9238 Q1657.4091,1400.9238 1658.0026,1400.6541 Q1658.5961,1400.3843 1659.227,1399.8032 Z " fill="#000000"/><text fill="#000000" font-family="sans-serif" font-size="14" lengthAdjust="spacing" textLength="160.6719" x="1670.7538" y="1401.6738">PawnDistanceGenerator</text></g><!--class Direction--><g id="elem_Direction"><rect codeLine="105" fill="#FDF5E6" height="171.9063" id="Direction" style="stroke:#181818;stroke-width:0.5;" width="146.1963" x="1462.1498" y="1506.3145"/><ellipse cx="1500.7265" cy="1522.3145" fill="#EB937F" rx="11" ry="11" style="stroke:#181818;stroke-width:1;"/><path d="M1504.3407,1528.8145 L1496.621,1528.8145 L1496.621,1516.4214 L1504.3407,1516.4214 L1504.3407,1518.5796 L1499.0697,1518.5796 L1499.0697,1521.2524 L1503.8427,1521.2524 L1503.8427,1523.4106 L1499.0697,1523.4106 L1499.0697,1526.6563 L1504.3407,1526.6563 Z " fill="#000000"/><text fill="#000000" font-family="sans-serif" font-size="14" lengthAdjust="spacing" textLength="61.8037" x="1519.9657" y="1527.6055">Direction</text><line style="stroke:#181818;stroke-width:0.5;" x1="1463.1498" x2="1607.3461" y1="1538.3145" y2="1538.3145"/><text fill="#000000" font-family="sans-serif" font-size="14" lengthAdjust="spacing" textLength="75.749" x="1468.1498" y="1555.8496">FORWARDS</text><text fill="#000000" font-family="sans-serif" font-size="14" lengthAdjust="spacing" textLength="85.0527" x="1468.1498" y="1572.3379">BACKWARDS</text><text fill="#000000" font-family="sans-serif" font-size="14" lengthAdjust="spacing" textLength="31.4111" x="1468.1498" y="1588.8262">LEFT</text><text fill="#000000" font-family="sans-serif" font-size="14" lengthAdjust="spacing" textLength="42.1436" x="1468.1498" y="1605.3145">RIGHT</text><text fill="#000000" font-family="sans-serif" font-size="14" lengthAdjust="spacing" textLength="114.1602" x="1468.1498" y="1621.8027">FORWARDS_LEFT</text><text fill="#000000" font-family="sans-serif" font-size="14" lengthAdjust="spacing" textLength="124.8926" x="1468.1498" y="1638.291">FORWARDS_RIGHT</text><text fill="#000000" font-family="sans-serif" font-size="14" lengthAdjust="spacing" textLength="123.4639" x="1468.1498" y="1654.7793">BACKWARDS_LEFT</text><text fill="#000000" font-family="sans-serif" font-size="14" lengthAdjust="spacing" textLength="134.1963" x="1468.1498" y="1671.2676">BACKWARDS_RIGHT</text></g><!--class Moves--><g id="elem_Moves"><rect codeLine="116" fill="#FDF5E6" height="32" id="Moves" style="stroke:#181818;stroke-width:0.5;" width="74.8408" x="88.1493" y="429.1055"/><ellipse cx="103.1493" cy="445.1055" fill="#ADD1B2" rx="11" ry="11" style="stroke:#181818;stroke-width:1;"/><path d="M105.6224,451.2485 Q105.0414,451.5474 104.4022,451.6968 Q103.763,451.8462 103.0575,451.8462 Q100.5506,451.8462 99.2308,450.1943 Q97.911,448.5425 97.911,445.4214 Q97.911,442.292 99.2308,440.6401 Q100.5506,438.9883 103.0575,438.9883 Q103.763,438.9883 104.4105,439.1377 Q105.058,439.2871 105.6224,439.5859 L105.6224,442.3086 Q104.9916,441.7275 104.3981,441.4578 Q103.8045,441.188 103.1737,441.188 Q101.829,441.188 101.1441,442.2546 Q100.4593,443.3213 100.4593,445.4214 Q100.4593,447.5132 101.1441,448.5798 Q101.829,449.6465 103.1737,449.6465 Q103.8045,449.6465 104.3981,449.3767 Q104.9916,449.1069 105.6224,448.5259 Z " fill="#000000"/><text fill="#000000" font-family="sans-serif" font-size="14" lengthAdjust="spacing" textLength="42.8408" x="117.1493" y="450.3965">Moves</text></g><!--class ChessMove--><g id="elem_ChessMove"><rect codeLine="118" fill="#FDF5E6" height="32" id="ChessMove" style="stroke:#181818;stroke-width:0.5;" width="108.1523" x="89.5189" y="565.0371"/><ellipse cx="104.5189" cy="581.0371" fill="#A9DCDF" rx="11" ry="11" style="stroke:#181818;stroke-width:1;"/><path d="M104.3822,576.3853 L103.2284,581.457 L105.5443,581.457 Z M102.888,574.144 L105.8846,574.144 L109.2298,586.5371 L106.7811,586.5371 L106.0174,583.4741 L102.7386,583.4741 L101.9916,586.5371 L99.5428,586.5371 Z " fill="#000000"/><text fill="#000000" font-family="sans-serif" font-size="14" font-style="italic" lengthAdjust="spacing" textLength="76.1523" x="118.5189" y="586.3281">ChessMove</text></g><!--class StandardMove--><g id="elem_StandardMove"><rect codeLine="120" fill="#FDF5E6" height="32" id="StandardMove" style="stroke:#181818;stroke-width:0.5;" width="127.9834" x="258.4233" y="719.4284"/><ellipse cx="273.4233" cy="735.4284" fill="#ADD1B2" rx="11" ry="11" style="stroke:#181818;stroke-width:1;"/><path d="M275.8965,741.5715 Q275.3154,741.8703 274.6763,742.0197 Q274.0371,742.1691 273.3315,742.1691 Q270.8247,742.1691 269.5049,740.5173 Q268.1851,738.8654 268.1851,735.7443 Q268.1851,732.6149 269.5049,730.9631 Q270.8247,729.3112 273.3315,729.3112 Q274.0371,729.3112 274.6846,729.4606 Q275.332,729.61 275.8965,729.9089 L275.8965,732.6315 Q275.2656,732.0505 274.6721,731.7807 Q274.0786,731.5109 273.4478,731.5109 Q272.103,731.5109 271.4182,732.5776 Q270.7334,733.6442 270.7334,735.7443 Q270.7334,737.8361 271.4182,738.9028 Q272.103,739.9694 273.4478,739.9694 Q274.0786,739.9694 274.6721,739.6996 Q275.2656,739.4299 275.8965,738.8488 Z " fill="#000000"/><text fill="#000000" font-family="sans-serif" font-size="14" lengthAdjust="spacing" textLength="95.9834" x="287.4233" y="740.7194">StandardMove</text></g><!--class Capture--><g id="elem_Capture"><rect codeLine="121" fill="#FDF5E6" height="32" id="Capture" style="stroke:#181818;stroke-width:0.5;" width="85.6826" x="62.1279" y="722.3135"/><ellipse cx="77.1279" cy="738.3135" fill="#ADD1B2" rx="11" ry="11" style="stroke:#181818;stroke-width:1;"/><path d="M79.6011,744.4565 Q79.02,744.7554 78.3809,744.9048 Q77.7417,745.0542 77.0361,745.0542 Q74.5293,745.0542 73.2095,743.4023 Q71.8896,741.7505 71.8896,738.6294 Q71.8896,735.5 73.2095,733.8481 Q74.5293,732.1963 77.0361,732.1963 Q77.7417,732.1963 78.3892,732.3457 Q79.0366,732.4951 79.6011,732.7939 L79.6011,735.5166 Q78.9702,734.9355 78.3767,734.6658 Q77.7832,734.396 77.1523,734.396 Q75.8076,734.396 75.1228,735.4626 Q74.438,736.5293 74.438,738.6294 Q74.438,740.7212 75.1228,741.7878 Q75.8076,742.8545 77.1523,742.8545 Q77.7832,742.8545 78.3767,742.5847 Q78.9702,742.3149 79.6011,741.7339 Z " fill="#000000"/><text fill="#000000" font-family="sans-serif" font-size="14" lengthAdjust="spacing" textLength="53.6826" x="91.1279" y="743.6045">Capture</text></g><!--class EnPassant--><g id="elem_EnPassant"><rect codeLine="122" fill="#FDF5E6" height="32" id="EnPassant" style="stroke:#181818;stroke-width:0.5;" width="99.6758" x="251.2466" y="869.5898"/><ellipse cx="266.2466" cy="885.5898" fill="#ADD1B2" rx="11" ry="11" style="stroke:#181818;stroke-width:1;"/><path d="M268.7197,891.7329 Q268.1387,892.0317 267.4995,892.1812 Q266.8604,892.3306 266.1548,892.3306 Q263.6479,892.3306 262.3281,890.6787 Q261.0083,889.0269 261.0083,885.9058 Q261.0083,882.7764 262.3281,881.1245 Q263.6479,879.4727 266.1548,879.4727 Q266.8604,879.4727 267.5078,879.6221 Q268.1553,879.7715 268.7197,880.0703 L268.7197,882.793 Q268.0889,882.2119 267.4954,881.9421 Q266.9019,881.6724 266.271,881.6724 Q264.9263,881.6724 264.2415,882.739 Q263.5566,883.8057 263.5566,885.9058 Q263.5566,887.9976 264.2415,889.0642 Q264.9263,890.1309 266.271,890.1309 Q266.9019,890.1309 267.4954,889.8611 Q268.0889,889.5913 268.7197,889.0103 Z " fill="#000000"/><text fill="#000000" font-family="sans-serif" font-size="14" lengthAdjust="spacing" textLength="67.6758" x="280.2466" y="890.8809">EnPassant</text></g><!--class Castling--><g id="elem_Castling"><rect codeLine="123" fill="#FDF5E6" height="32" id="Castling" style="stroke:#181818;stroke-width:0.5;" width="87.3027" x="568.3289" y="713.6582"/><ellipse cx="583.3289" cy="729.6582" fill="#A9DCDF" rx="11" ry="11" style="stroke:#181818;stroke-width:1;"/><path d="M583.1922,725.0063 L582.0384,730.0781 L584.3543,730.0781 Z M581.6981,722.7651 L584.6947,722.7651 L588.0399,735.1582 L585.5911,735.1582 L584.8275,732.0952 L581.5487,732.0952 L580.8016,735.1582 L578.3529,735.1582 Z " fill="#000000"/><text fill="#000000" font-family="sans-serif" font-size="14" font-style="italic" lengthAdjust="spacing" textLength="55.3027" x="597.3289" y="734.9492">Castling</text></g><!--class LongCastling--><g id="elem_LongCastling"><rect codeLine="124" fill="#FDF5E6" height="32" id="LongCastling" style="stroke:#181818;stroke-width:0.5;" width="120.7852" x="857.1037" y="869.5898"/><ellipse cx="872.1037" cy="885.5898" fill="#ADD1B2" rx="11" ry="11" style="stroke:#181818;stroke-width:1;"/><path d="M874.5768,891.7329 Q873.9958,892.0317 873.3566,892.1812 Q872.7174,892.3306 872.0119,892.3306 Q869.505,892.3306 868.1852,890.6787 Q866.8654,889.0269 866.8654,885.9058 Q866.8654,882.7764 868.1852,881.1245 Q869.505,879.4727 872.0119,879.4727 Q872.7174,879.4727 873.3649,879.6221 Q874.0124,879.7715 874.5768,880.0703 L874.5768,882.793 Q873.946,882.2119 873.3525,881.9421 Q872.759,881.6724 872.1281,881.6724 Q870.7834,881.6724 870.0986,882.739 Q869.4137,883.8057 869.4137,885.9058 Q869.4137,887.9976 870.0986,889.0642 Q870.7834,890.1309 872.1281,890.1309 Q872.759,890.1309 873.3525,889.8611 Q873.946,889.5913 874.5768,889.0103 Z " fill="#000000"/><text fill="#000000" font-family="sans-serif" font-size="14" lengthAdjust="spacing" textLength="88.7852" x="886.1037" y="890.8809">LongCastling</text></g><!--class ShortCastling--><g id="elem_ShortCastling"><rect codeLine="125" fill="#FDF5E6" height="32" id="ShortCastling" style="stroke:#181818;stroke-width:0.5;" width="123.0957" x="714.008" y="869.5898"/><ellipse cx="729.008" cy="885.5898" fill="#ADD1B2" rx="11" ry="11" style="stroke:#181818;stroke-width:1;"/><path d="M731.4811,891.7329 Q730.9001,892.0317 730.2609,892.1812 Q729.6217,892.3306 728.9162,892.3306 Q726.4093,892.3306 725.0895,890.6787 Q723.7697,889.0269 723.7697,885.9058 Q723.7697,882.7764 725.0895,881.1245 Q726.4093,879.4727 728.9162,879.4727 Q729.6217,879.4727 730.2692,879.6221 Q730.9167,879.7715 731.4811,880.0703 L731.4811,882.793 Q730.8503,882.2119 730.2568,881.9421 Q729.6632,881.6724 729.0324,881.6724 Q727.6877,881.6724 727.0028,882.739 Q726.318,883.8057 726.318,885.9058 Q726.318,887.9976 727.0028,889.0642 Q727.6877,890.1309 729.0324,890.1309 Q729.6632,890.1309 730.2568,889.8611 Q730.8503,889.5913 731.4811,889.0103 Z " fill="#000000"/><text fill="#000000" font-family="sans-serif" font-size="14" lengthAdjust="spacing" textLength="91.0957" x="743.008" y="890.8809">ShortCastling</text></g><!--class Promotion--><g id="elem_Promotion"><rect codeLine="126" fill="#FDF5E6" height="32" id="Promotion" style="stroke:#181818;stroke-width:0.5;" width="102.3076" x="370.9224" y="869.5898"/><ellipse cx="385.9224" cy="885.5898" fill="#ADD1B2" rx="11" ry="11" style="stroke:#181818;stroke-width:1;"/><path d="M388.3955,891.7329 Q387.8145,892.0317 387.1753,892.1812 Q386.5361,892.3306 385.8306,892.3306 Q383.3237,892.3306 382.0039,890.6787 Q380.6841,889.0269 380.6841,885.9058 Q380.6841,882.7764 382.0039,881.1245 Q383.3237,879.4727 385.8306,879.4727 Q386.5361,879.4727 387.1836,879.6221 Q387.8311,879.7715 388.3955,880.0703 L388.3955,882.793 Q387.7646,882.2119 387.1711,881.9421 Q386.5776,881.6724 385.9468,881.6724 Q384.6021,881.6724 383.9172,882.739 Q383.2324,883.8057 383.2324,885.9058 Q383.2324,887.9976 383.9172,889.0642 Q384.6021,890.1309 385.9468,890.1309 Q386.5776,890.1309 387.1711,889.8611 Q387.7646,889.5913 388.3955,889.0103 Z " fill="#000000"/><text fill="#000000" font-family="sans-serif" font-size="14" lengthAdjust="spacing" textLength="70.3076" x="399.9224" y="890.8809">Promotion</text></g><!--class PromotionWithCapture--><g id="elem_PromotionWithCapture"><rect codeLine="127" fill="#FDF5E6" height="32" id="PromotionWithCapture" style="stroke:#181818;stroke-width:0.5;" width="185.9385" x="12" y="869.5898"/><ellipse cx="27" cy="885.5898" fill="#ADD1B2" rx="11" ry="11" style="stroke:#181818;stroke-width:1;"/><path d="M29.4731,891.7329 Q28.8921,892.0317 28.2529,892.1812 Q27.6138,892.3306 26.9082,892.3306 Q24.4014,892.3306 23.0815,890.6787 Q21.7617,889.0269 21.7617,885.9058 Q21.7617,882.7764 23.0815,881.1245 Q24.4014,879.4727 26.9082,879.4727 Q27.6138,879.4727 28.2612,879.6221 Q28.9087,879.7715 29.4731,880.0703 L29.4731,882.793 Q28.8423,882.2119 28.2488,881.9421 Q27.6553,881.6724 27.0244,881.6724 Q25.6797,881.6724 24.9949,882.739 Q24.3101,883.8057 24.3101,885.9058 Q24.3101,887.9976 24.9949,889.0642 Q25.6797,890.1309 27.0244,890.1309 Q27.6553,890.1309 28.2488,889.8611 Q28.8423,889.5913 29.4731,889.0103 Z " fill="#000000"/><text fill="#000000" font-family="sans-serif" font-size="14" lengthAdjust="spacing" textLength="153.9385" x="41" y="890.8809">PromotionWithCapture</text></g><line style="stroke:#181818;stroke-width:1;stroke-dasharray:7.0,7.0;" x1="264.605" x2="264.605" y1="44" y2="71.3105"/><line style="stroke:#181818;stroke-width:1;stroke-dasharray:7.0,7.0;" x1="264.605" x2="477.2595" y1="71.3105" y2="71.3105"/><line style="stroke:#181818;stroke-width:1;stroke-dasharray:7.0,7.0;" x1="477.2595" x2="477.2595" y1="71.3105" y2="101.3105"/><polygon fill="#FFFFFF" points="264.605,44,257.605,63,271.605,63,264.605,44" style="stroke:#181818;stroke-width:1;"/><line style="stroke:#181818;stroke-width:1;stroke-dasharray:7.0,7.0;" x1="297.0057" x2="297.0057" y1="133.3105" y2="293.1738"/><polygon fill="#FFFFFF" points="297.0057,133.3105,290.0057,152.3105,304.0057,152.3105,297.0057,133.3105" style="stroke:#181818;stroke-width:1;"/><line style="stroke:#181818;stroke-width:1;stroke-dasharray:7.0,7.0;" x1="964.8984" x2="964.8984" y1="325.1738" y2="429.1055"/><polygon fill="#FFFFFF" points="964.8984,325.1738,957.8984,344.1738,971.8984,344.1738,964.8984,325.1738" style="stroke:#181818;stroke-width:1;"/><line style="stroke:#181818;stroke-width:1;stroke-dasharray:7.0,7.0;" x1="347.6353" x2="347.6353" y1="133.3105" y2="180.6211"/><line style="stroke:#181818;stroke-width:1;stroke-dasharray:7.0,7.0;" x1="347.6353" x2="863.3535" y1="180.6211" y2="180.6211"/><line style="stroke:#181818;stroke-width:1;stroke-dasharray:7.0,7.0;" x1="863.3535" x2="863.3535" y1="180.6211" y2="401.7949"/><line style="stroke:#181818;stroke-width:1;stroke-dasharray:7.0,7.0;" x1="863.3535" x2="920.3496" y1="401.7949" y2="401.7949"/><line style="stroke:#181818;stroke-width:1;stroke-dasharray:7.0,7.0;" x1="920.3496" x2="920.3496" y1="401.7949" y2="429.1055"/><polygon fill="#FFFFFF" points="347.6353,133.3105,340.6353,152.3105,354.6353,152.3105,347.6353,133.3105" style="stroke:#181818;stroke-width:1;"/><line style="stroke:#181818;stroke-width:1;stroke-dasharray:7.0,7.0;" x1="1088.749" x2="1088.749" y1="325.1738" y2="401.7949"/><line style="stroke:#181818;stroke-width:1;stroke-dasharray:7.0,7.0;" x1="1088.749" x2="987.1728" y1="401.7949" y2="401.7949"/><line style="stroke:#181818;stroke-width:1;stroke-dasharray:7.0,7.0;" x1="987.1728" x2="987.1728" y1="401.7949" y2="429.1055"/><polygon fill="#FFFFFF" points="1088.749,325.1738,1081.749,344.1738,1095.749,344.1738,1088.749,325.1738" style="stroke:#181818;stroke-width:1;"/><line style="stroke:#181818;stroke-width:1;stroke-dasharray:7.0,7.0;" x1="1113.5517" x2="1113.5517" y1="325.1738" y2="362.4844"/><line style="stroke:#181818;stroke-width:1;stroke-dasharray:7.0,7.0;" x1="1113.5517" x2="1291.9336" y1="362.4844" y2="362.4844"/><line style="stroke:#181818;stroke-width:1;stroke-dasharray:7.0,7.0;" x1="1291.9336" x2="1291.9336" y1="362.4844" y2="842.2793"/><line style="stroke:#181818;stroke-width:1;stroke-dasharray:7.0,7.0;" x1="1291.9336" x2="1212.8494" y1="842.2793" y2="842.2793"/><line style="stroke:#181818;stroke-width:1;stroke-dasharray:7.0,7.0;" x1="1212.8494" x2="1212.8494" y1="842.2793" y2="869.5898"/><polygon fill="#FFFFFF" points="1113.5517,325.1738,1106.5517,344.1738,1120.5517,344.1738,1113.5517,325.1738" style="stroke:#181818;stroke-width:1;"/><line style="stroke:#181818;stroke-width:1;" x1="1142.5325" x2="1142.5325" y1="901.5898" y2="1008.2109"/><line style="stroke:#181818;stroke-width:1;" x1="1142.5325" x2="1114.5229" y1="1008.2109" y2="1008.2109"/><line style="stroke:#181818;stroke-width:1;" x1="1114.5229" x2="1114.5229" y1="1008.2109" y2="1121.0378"/><polygon fill="#FFFFFF" points="1142.5325,901.5898,1135.5325,920.5898,1149.5325,920.5898,1142.5325,901.5898" style="stroke:#181818;stroke-width:1;"/><line style="stroke:#181818;stroke-width:1;stroke-dasharray:7.0,7.0;" x1="1053.0675" x2="1053.0675" y1="901.5898" y2="1121.0378"/><polygon fill="#FFFFFF" points="1053.0675,901.5898,1046.0675,920.5898,1060.0675,920.5898,1053.0675,901.5898" style="stroke:#181818;stroke-width:1;"/><line style="stroke:#181818;stroke-width:1;" x1="1173.1051" x2="1173.1051" y1="901.5898" y2="958.9004"/><line style="stroke:#181818;stroke-width:1;" x1="1173.1051" x2="1312.0555" y1="958.9004" y2="958.9004"/><line style="stroke:#181818;stroke-width:1;" x1="1312.0555" x2="1312.0555" y1="958.9004" y2="1055.5215"/><polygon fill="#FFFFFF" points="1173.1051,901.5898,1166.1051,920.5898,1180.1051,920.5898,1173.1051,901.5898" style="stroke:#181818;stroke-width:1;"/><line style="stroke:#181818;stroke-width:1;" x1="1065.3586" x2="1065.3586" y1="1153.0378" y2="1224.4512"/><line style="stroke:#181818;stroke-width:1;" x1="1065.3586" x2="1119.8672" y1="1224.4512" y2="1224.4512"/><line style="stroke:#181818;stroke-width:1;" x1="1119.8672" x2="1119.8672" y1="1224.4512" y2="1254.4512"/><polygon fill="#FFFFFF" points="1065.3586,1153.0378,1058.3586,1172.0378,1072.3586,1172.0378,1065.3586,1153.0378" style="stroke:#181818;stroke-width:1;"/><line style="stroke:#181818;stroke-width:1;" x1="1028.4854" x2="1028.4854" y1="1153.0378" y2="1254.4512"/><polygon fill="#FFFFFF" points="1028.4854,1153.0378,1021.4854,1172.0378,1035.4854,1172.0378,1028.4854,1153.0378" style="stroke:#181818;stroke-width:1;"/><line style="stroke:#181818;stroke-width:1;" x1="1139.1051" x2="1139.1051" y1="1153.0378" y2="1204.4512"/><line style="stroke:#181818;stroke-width:1;" x1="1139.1051" x2="1307.5049" y1="1204.4512" y2="1204.4512"/><line style="stroke:#181818;stroke-width:1;" x1="1307.5049" x2="1307.5049" y1="1204.4512" y2="1254.4512"/><polygon fill="#FFFFFF" points="1139.1051,1153.0378,1132.1051,1172.0378,1146.1051,1172.0378,1139.1051,1153.0378" style="stroke:#181818;stroke-width:1;"/><line style="stroke:#181818;stroke-width:1;" x1="1102.2319" x2="1102.2319" y1="1153.0378" y2="1214.4512"/><line style="stroke:#181818;stroke-width:1;" x1="1102.2319" x2="1210.9107" y1="1214.4512" y2="1214.4512"/><line style="stroke:#181818;stroke-width:1;" x1="1210.9107" x2="1210.9107" y1="1214.4512" y2="1254.4512"/><polygon fill="#FFFFFF" points="1102.2319,1153.0378,1095.2319,1172.0378,1109.2319,1172.0378,1102.2319,1153.0378" style="stroke:#181818;stroke-width:1;"/><line style="stroke:#181818;stroke-width:1;" x1="1157.8188" x2="1157.8188" y1="901.5898" y2="968.9004"/><line style="stroke:#181818;stroke-width:1;" x1="1157.8188" x2="1227.2806" y1="968.9004" y2="968.9004"/><line style="stroke:#181818;stroke-width:1;" x1="1227.2806" x2="1227.2806" y1="968.9004" y2="1055.5215"/><polygon fill="#FFFFFF" points="1157.8188,901.5898,1150.8188,920.5898,1164.8188,920.5898,1157.8188,901.5898" style="stroke:#181818;stroke-width:1;"/><line style="stroke:#181818;stroke-width:1;stroke-dasharray:7.0,7.0;" x1="1138.3544" x2="1138.3544" y1="325.1738" y2="352.4844"/><line style="stroke:#181818;stroke-width:1;stroke-dasharray:7.0,7.0;" x1="1138.3544" x2="1554.9616" y1="352.4844" y2="352.4844"/><line style="stroke:#181818;stroke-width:1;stroke-dasharray:7.0,7.0;" x1="1554.9616" x2="1554.9616" y1="352.4844" y2="1008.2109"/><line style="stroke:#181818;stroke-width:1;stroke-dasharray:7.0,7.0;" x1="1554.9616" x2="1589.0062" y1="1008.2109" y2="1008.2109"/><line style="stroke:#181818;stroke-width:1;stroke-dasharray:7.0,7.0;" x1="1589.0062" x2="1589.0062" y1="1008.2109" y2="1112.7551"/><polygon fill="#FFFFFF" points="1138.3544,325.1738,1131.3544,344.1738,1145.3544,344.1738,1138.3544,325.1738" style="stroke:#181818;stroke-width:1;"/><line style="stroke:#181818;stroke-width:1;" x1="1566.4839" x2="1566.4839" y1="1144.7551" y2="1214.4512"/><line style="stroke:#181818;stroke-width:1;" x1="1566.4839" x2="1634.5637" y1="1214.4512" y2="1214.4512"/><line style="stroke:#181818;stroke-width:1;" x1="1634.5637" x2="1634.5637" y1="1214.4512" y2="1353.0723"/><line style="stroke:#181818;stroke-width:1;" x1="1634.5637" x2="1564.0833" y1="1353.0723" y2="1353.0723"/><line style="stroke:#181818;stroke-width:1;" x1="1564.0833" x2="1564.0833" y1="1353.0723" y2="1380.3828"/><polygon fill="#FFFFFF" points="1566.4839,1144.7551,1559.4839,1163.7551,1573.4839,1163.7551,1566.4839,1144.7551" style="stroke:#181818;stroke-width:1;"/><line style="stroke:#181818;stroke-width:1;" x1="1600.2673" x2="1600.2673" y1="1144.7551" y2="1204.4512"/><line style="stroke:#181818;stroke-width:1;" x1="1600.2673" x2="1727.5432" y1="1204.4512" y2="1204.4512"/><line style="stroke:#181818;stroke-width:1;" x1="1727.5432" x2="1727.5432" y1="1204.4512" y2="1254.4512"/><polygon fill="#FFFFFF" points="1600.2673,1144.7551,1593.2673,1163.7551,1607.2673,1163.7551,1600.2673,1144.7551" style="stroke:#181818;stroke-width:1;"/><line style="stroke:#181818;stroke-width:1;" x1="1532.7004" x2="1532.7004" y1="1144.7551" y2="1254.4512"/><polygon fill="#FFFFFF" points="1532.7004,1144.7551,1525.7004,1163.7551,1539.7004,1163.7551,1532.7004,1144.7551" style="stroke:#181818;stroke-width:1;"/><line style="stroke:#181818;stroke-width:1;" x1="1558.9882" x2="1558.9882" y1="1286.4512" y2="1313.7617"/><line style="stroke:#181818;stroke-width:1;" x1="1558.9882" x2="1738.0898" y1="1313.7617" y2="1313.7617"/><line style="stroke:#181818;stroke-width:1;" x1="1738.0898" x2="1738.0898" y1="1313.7617" y2="1380.3828"/><polygon fill="#FFFFFF" points="1558.9882,1286.4512,1551.9882,1305.4512,1565.9882,1305.4512,1558.9882,1286.4512" style="stroke:#181818;stroke-width:1;"/><line style="stroke:#181818;stroke-width:1;" x1="151.3202" x2="151.3202" y1="597.0371" y2="644.3477"/><line style="stroke:#181818;stroke-width:1;" x1="151.3202" x2="322.415" y1="644.3477" y2="644.3477"/><line style="stroke:#181818;stroke-width:1;" x1="322.415" x2="322.415" y1="644.3477" y2="719.4284"/><polygon fill="#FFFFFF" points="151.3202,597.0371,144.3202,616.0371,158.3202,616.0371,151.3202,597.0371" style="stroke:#181818;stroke-width:1;"/><line style="stroke:#181818;stroke-width:1;" x1="104.9692" x2="104.9692" y1="597.0371" y2="722.3135"/><polygon fill="#FFFFFF" points="104.9692,597.0371,97.9692,616.0371,111.9692,616.0371,104.9692,597.0371" style="stroke:#181818;stroke-width:1;"/><line style="stroke:#181818;stroke-width:1;" x1="301.0845" x2="301.0845" y1="751.4284" y2="869.5898"/><polygon fill="#FFFFFF" points="301.0845,751.4284,294.0845,770.4284,308.0845,770.4284,301.0845,751.4284" style="stroke:#181818;stroke-width:1;"/><line style="stroke:#181818;stroke-width:1;" x1="166.7706" x2="166.7706" y1="597.0371" y2="634.3477"/><line style="stroke:#181818;stroke-width:1;" x1="166.7706" x2="611.9803" y1="634.3477" y2="634.3477"/><line style="stroke:#181818;stroke-width:1;" x1="611.9803" x2="611.9803" y1="634.3477" y2="713.6582"/><polygon fill="#FFFFFF" points="166.7706,597.0371,159.7706,616.0371,173.7706,616.0371,166.7706,597.0371" style="stroke:#181818;stroke-width:1;"/><line style="stroke:#181818;stroke-width:1;" x1="626.5308" x2="626.5308" y1="745.6582" y2="782.9688"/><line style="stroke:#181818;stroke-width:1;" x1="626.5308" x2="917.4963" y1="782.9688" y2="782.9688"/><line style="stroke:#181818;stroke-width:1;" x1="917.4963" x2="917.4963" y1="782.9688" y2="869.5898"/><polygon fill="#FFFFFF" points="626.5308,745.6582,619.5308,764.6582,633.5308,764.6582,626.5308,745.6582" style="stroke:#181818;stroke-width:1;"/><line style="stroke:#181818;stroke-width:1;" x1="611.9803" x2="611.9803" y1="745.6582" y2="792.9688"/><line style="stroke:#181818;stroke-width:1;" x1="611.9803" x2="775.5558" y1="792.9688" y2="792.9688"/><line style="stroke:#181818;stroke-width:1;" x1="775.5558" x2="775.5558" y1="792.9688" y2="869.5898"/><polygon fill="#FFFFFF" points="611.9803,745.6582,604.9803,764.6582,618.9803,764.6582,611.9803,745.6582" style="stroke:#181818;stroke-width:1;"/><line style="stroke:#181818;stroke-width:1;" x1="343.7456" x2="343.7456" y1="751.4284" y2="772.9688"/><line style="stroke:#181818;stroke-width:1;" x1="343.7456" x2="422.0762" y1="772.9688" y2="772.9688"/><line style="stroke:#181818;stroke-width:1;" x1="422.0762" x2="422.0762" y1="772.9688" y2="869.5898"/><polygon fill="#FFFFFF" points="343.7456,751.4284,336.7456,770.4284,350.7456,770.4284,343.7456,751.4284" style="stroke:#181818;stroke-width:1;"/><line style="stroke:#181818;stroke-width:1;" x1="104.9692" x2="104.9692" y1="754.3135" y2="869.5898"/><polygon fill="#FFFFFF" points="104.9692,754.3135,97.9692,773.3135,111.9692,773.3135,104.9692,754.3135" style="stroke:#181818;stroke-width:1;"/><line style="stroke:#181818;stroke-width:1;" x1="217.7352" x2="217.7352" y1="44" y2="429.1055"/><polygon fill="#181818" points="217.7352,429.1055,221.7352,420.1055,217.7352,424.1055,213.7352,420.1055,217.7352,429.1055" style="stroke:#181818;stroke-width:1;"/><text fill="#000000" font-family="sans-serif" font-size="13" lengthAdjust="spacing" textLength="60.9185" x="152.8168" y="228.1553">manage &#9656;</text><text fill="#000000" font-family="sans-serif" font-size="13" lengthAdjust="spacing" textLength="8.2202" x="220.7352" y="58.5684">1</text><text fill="#000000" font-family="sans-serif" font-size="13" lengthAdjust="spacing" textLength="8.2202" x="220.7352" y="424.3633">1</text><line style="stroke:#181818;stroke-width:1;" x1="447.7621" x2="447.7621" y1="133.3105" y2="265.8633"/><line style="stroke:#181818;stroke-width:1;" x1="447.7621" x2="356.8501" y1="265.8633" y2="265.8633"/><line style="stroke:#181818;stroke-width:1;" x1="356.8501" x2="356.8501" y1="265.8633" y2="293.1738"/><polygon fill="#181818" points="447.7621,133.3105,443.7621,139.3105,447.7621,145.3105,451.7621,139.3105,447.7621,133.3105" style="stroke:#181818;stroke-width:1;"/><text fill="#000000" font-family="sans-serif" font-size="13" lengthAdjust="spacing" textLength="67.5454" x="376.2167" y="228.1553">manages &#9656;</text><text fill="#000000" font-family="sans-serif" font-size="13" lengthAdjust="spacing" textLength="8.2202" x="450.7621" y="147.8789">1</text><text fill="#000000" font-family="sans-serif" font-size="13" lengthAdjust="spacing" textLength="8.2202" x="359.8501" y="288.4316">1</text><line style="stroke:#181818;stroke-width:1;" x1="506.7568" x2="506.7568" y1="133.3105" y2="160.6211"/><line style="stroke:#181818;stroke-width:1;" x1="506.7568" x2="1417.2367" y1="160.6211" y2="160.6211"/><line style="stroke:#181818;stroke-width:1;" x1="1417.2367" x2="1417.2367" y1="160.6211" y2="1008.2109"/><line style="stroke:#181818;stroke-width:1;" x1="1417.2367" x2="1442.5768" y1="1008.2109" y2="1008.2109"/><line style="stroke:#181818;stroke-width:1;" x1="1442.5768" x2="1442.5768" y1="1008.2109" y2="1055.5215"/><polygon fill="#181818" points="1442.5768,1055.5215,1446.5768,1046.5215,1442.5768,1050.5215,1438.5768,1046.5215,1442.5768,1055.5215" style="stroke:#181818;stroke-width:1;"/><text fill="#000000" font-family="sans-serif" font-size="13" lengthAdjust="spacing" textLength="62.5562" x="1350.6805" y="585.9502">hasTurn &#9656;</text><text fill="#000000" font-family="sans-serif" font-size="13" lengthAdjust="spacing" textLength="8.2202" x="509.7568" y="147.8789">1</text><text fill="#000000" font-family="sans-serif" font-size="13" lengthAdjust="spacing" textLength="8.2202" x="1445.5768" y="1050.7793">1</text><line style="stroke:#8E8E8E;stroke-width:1;" x1="477.2595" x2="477.2595" y1="133.3105" y2="170.6211"/><line style="stroke:#8E8E8E;stroke-width:1;" x1="477.2595" x2="752.9521" y1="170.6211" y2="170.6211"/><line style="stroke:#8E8E8E;stroke-width:1;" x1="752.9521" x2="752.9521" y1="170.6211" y2="293.1738"/><polygon fill="#8E8E8E" points="752.9521,293.1738,756.9521,284.1738,752.9521,288.1738,748.9521,284.1738,752.9521,293.1738" style="stroke:#8E8E8E;stroke-width:1;"/><text fill="#000000" font-family="sans-serif" font-size="13" lengthAdjust="spacing" textLength="95.3799" x="557.1672" y="205.1895">usesStatically &#9656;</text><text fill="#8E8E8E" font-family="sans-serif" font-size="13" font-weight="bold" lengthAdjust="spacing" textLength="34.3916" x="493.5954" y="220.5">Note:</text><text fill="#8E8E8E" font-family="sans-serif" font-size="13" lengthAdjust="spacing" textLength="184.0186" x="532.1003" y="220.5">This is not a real association.</text><text fill="#8E8E8E" font-family="sans-serif" font-size="13" lengthAdjust="spacing" textLength="240.2334" x="484.7404" y="235.8105">We only indicate that the ChessEngine</text><text fill="#8E8E8E" font-family="sans-serif" font-size="13" lengthAdjust="spacing" textLength="288.1899" x="460.7621" y="251.1211">class uses the ChessBoardInitializer statically.</text><line style="stroke:#181818;stroke-width:1;" x1="356.8501" x2="356.8501" y1="325.1738" y2="352.4844"/><line style="stroke:#181818;stroke-width:1;" x1="356.8501" x2="942.624" y1="352.4844" y2="352.4844"/><line style="stroke:#181818;stroke-width:1;" x1="942.624" x2="942.624" y1="352.4844" y2="429.1055"/><polygon fill="#181818" points="356.8501,325.1738,352.8501,331.1738,356.8501,337.1738,360.8501,331.1738,356.8501,325.1738" style="stroke:#181818;stroke-width:1;"/><text fill="#000000" font-family="sans-serif" font-size="13" lengthAdjust="spacing" textLength="62.2705" x="876.3535" y="387.0527">controls &#9656;</text><text fill="#000000" font-family="sans-serif" font-size="13" lengthAdjust="spacing" textLength="8.2202" x="359.8501" y="339.7422">1</text><text fill="#000000" font-family="sans-serif" font-size="13" lengthAdjust="spacing" textLength="8.2202" x="945.624" y="424.3633">1</text><line style="stroke:#181818;stroke-width:1;" x1="297.0057" x2="297.0057" y1="325.1738" y2="401.7949"/><line style="stroke:#181818;stroke-width:1;" x1="297.0057" x2="252.4803" y1="401.7949" y2="401.7949"/><line style="stroke:#181818;stroke-width:1;" x1="252.4803" x2="252.4803" y1="401.7949" y2="429.1055"/><polygon fill="#181818" points="252.4803,429.1055,256.4803,420.1055,252.4803,424.1055,248.4803,420.1055,252.4803,429.1055" style="stroke:#181818;stroke-width:1;"/><text fill="#000000" font-family="sans-serif" font-size="13" lengthAdjust="spacing" textLength="62.2705" x="230.7352" y="387.0527">controls &#9656;</text><text fill="#000000" font-family="sans-serif" font-size="13" lengthAdjust="spacing" textLength="8.2202" x="300.0057" y="339.7422">1</text><text fill="#000000" font-family="sans-serif" font-size="13" lengthAdjust="spacing" textLength="8.2202" x="255.4803" y="424.3633">1</text><line style="stroke:#181818;stroke-width:1;" x1="981.6042" x2="981.6042" y1="461.1055" y2="488.416"/><line style="stroke:#181818;stroke-width:1;" x1="981.6042" x2="1277.9336" y1="488.416" y2="488.416"/><line style="stroke:#181818;stroke-width:1;" x1="1277.9336" x2="1277.9336" y1="488.416" y2="832.2793"/><line style="stroke:#181818;stroke-width:1;" x1="1277.9336" x2="1191.4486" y1="832.2793" y2="832.2793"/><line style="stroke:#181818;stroke-width:1;" x1="1191.4486" x2="1191.4486" y1="832.2793" y2="869.5898"/><polygon fill="#181818" points="981.6042,461.1055,977.6042,467.1055,981.6042,473.1055,985.6042,467.1055,981.6042,461.1055" style="stroke:#181818;stroke-width:1;"/><text fill="#000000" font-family="sans-serif" font-size="13" lengthAdjust="spacing" textLength="90.8857" x="1183.0478" y="688.916">composedOf &#9656;</text><text fill="#000000" font-family="sans-serif" font-size="13" lengthAdjust="spacing" textLength="8.2202" x="984.6042" y="475.6738">1</text><text fill="#000000" font-family="sans-serif" font-size="13" lengthAdjust="spacing" textLength="32.8872" x="1194.4486" y="864.8477">2..32</text><line style="stroke:#181818;stroke-width:1;" x1="953.7612" x2="953.7612" y1="461.1055" y2="498.416"/><line style="stroke:#181818;stroke-width:1;" x1="953.7612" x2="987.8888" y1="498.416" y2="498.416"/><line style="stroke:#181818;stroke-width:1;" x1="987.8888" x2="987.8888" y1="498.416" y2="1028.2109"/><line style="stroke:#181818;stroke-width:1;" x1="987.8888" x2="337.9814" y1="1028.2109" y2="1028.2109"/><line style="stroke:#181818;stroke-width:1;" x1="337.9814" x2="337.9814" y1="1028.2109" y2="1055.5215"/><polygon fill="#181818" points="953.7612,461.1055,949.7612,467.1055,953.7612,473.1055,957.7612,467.1055,953.7612,461.1055" style="stroke:#181818;stroke-width:1;"/><text fill="#000000" font-family="sans-serif" font-size="13" lengthAdjust="spacing" textLength="49.2515" x="934.6374" y="743.2266">tracks &#9656;</text><text fill="#000000" font-family="sans-serif" font-size="13" lengthAdjust="spacing" textLength="8.2202" x="956.7612" y="475.6738">1</text><text fill="#000000" font-family="sans-serif" font-size="13" lengthAdjust="spacing" textLength="8.2202" x="340.9814" y="1050.7793">2</text><line style="stroke:#181818;stroke-width:1;" x1="925.9182" x2="925.9182" y1="461.1055" y2="537.7266"/><line style="stroke:#181818;stroke-width:1;" x1="925.9182" x2="161.6205" y1="537.7266" y2="537.7266"/><line style="stroke:#181818;stroke-width:1;" x1="161.6205" x2="161.6205" y1="537.7266" y2="565.0371"/><polygon fill="#181818" points="925.9182,461.1055,921.9182,467.1055,925.9182,473.1055,929.9182,467.1055,925.9182,461.1055" style="stroke:#181818;stroke-width:1;"/><text fill="#000000" font-family="sans-serif" font-size="13" lengthAdjust="spacing" textLength="49.2515" x="872.6667" y="522.9844">tracks &#9656;</text><text fill="#000000" font-family="sans-serif" font-size="13" lengthAdjust="spacing" textLength="8.2202" x="928.9182" y="475.6738">1</text><text fill="#000000" font-family="sans-serif" font-size="13" lengthAdjust="spacing" textLength="8.2202" x="164.6205" y="560.2949">1</text><line style="stroke:#181818;stroke-width:1;" x1="1218.9639" x2="1218.9639" y1="901.5898" y2="928.9004"/><line style="stroke:#181818;stroke-width:1;" x1="1218.9639" x2="1703.7178" y1="928.9004" y2="928.9004"/><line style="stroke:#181818;stroke-width:1;" x1="1703.7178" x2="1703.7178" y1="928.9004" y2="1055.5215"/><polygon fill="#181818" points="1703.7178,1055.5215,1707.7178,1046.5215,1703.7178,1050.5215,1699.7178,1046.5215,1703.7178,1055.5215" style="stroke:#181818;stroke-width:1;"/><text fill="#000000" font-family="sans-serif" font-size="13" lengthAdjust="spacing" textLength="77.7397" x="1621.978" y="993.4688">represents &#9656;</text><text fill="#000000" font-family="sans-serif" font-size="13" lengthAdjust="spacing" textLength="8.2202" x="1221.9639" y="916.1582">1</text><text fill="#000000" font-family="sans-serif" font-size="13" lengthAdjust="spacing" textLength="8.2202" x="1706.7178" y="1050.7793">1</text><line style="stroke:#181818;stroke-width:1;" x1="1188.3913" x2="1188.3913" y1="901.5898" y2="948.9004"/><line style="stroke:#181818;stroke-width:1;" x1="1188.3913" x2="1406.2367" y1="948.9004" y2="948.9004"/><line style="stroke:#181818;stroke-width:1;" x1="1406.2367" x2="1406.2367" y1="948.9004" y2="1055.5215"/><polygon fill="#181818" points="1406.2367,1055.5215,1410.2367,1046.5215,1406.2367,1050.5215,1402.2367,1046.5215,1406.2367,1055.5215" style="stroke:#181818;stroke-width:1;"/><text fill="#000000" font-family="sans-serif" font-size="13" lengthAdjust="spacing" textLength="77.1812" x="1325.0555" y="993.4688">belongsTo &#9656;</text><text fill="#000000" font-family="sans-serif" font-size="13" lengthAdjust="spacing" textLength="8.2202" x="1191.3913" y="916.1582">1</text><text fill="#000000" font-family="sans-serif" font-size="13" lengthAdjust="spacing" textLength="8.2202" x="1409.2367" y="1050.7793">1</text><line style="stroke:#181818;stroke-width:1;" x1="1203.6776" x2="1203.6776" y1="901.5898" y2="938.9004"/><line style="stroke:#181818;stroke-width:1;" x1="1203.6776" x2="1543.9616" y1="938.9004" y2="938.9004"/><line style="stroke:#181818;stroke-width:1;" x1="1543.9616" x2="1543.9616" y1="938.9004" y2="1112.7551"/><polygon fill="#181818" points="1203.6776,901.5898,1199.6776,907.5898,1203.6776,913.5898,1207.6776,907.5898,1203.6776,901.5898" style="stroke:#181818;stroke-width:1;"/><text fill="#000000" font-family="sans-serif" font-size="13" lengthAdjust="spacing" textLength="90.8857" x="1449.0758" y="993.4688">composedOf &#9656;</text><text fill="#000000" font-family="sans-serif" font-size="13" lengthAdjust="spacing" textLength="8.2202" x="1206.6776" y="916.1582">1</text><text fill="#000000" font-family="sans-serif" font-size="13" lengthAdjust="spacing" textLength="22.7119" x="1546.9616" y="1108.0129">1..*</text><line style="stroke:#181818;stroke-width:1;" x1="1535.248" x2="1535.248" y1="1412.3828" y2="1506.3145"/><polygon fill="none" points="1535.248,1412.3828,1531.248,1418.3828,1535.248,1424.3828,1539.248,1418.3828,1535.248,1412.3828" style="stroke:#181818;stroke-width:1;"/><text fill="#000000" font-family="sans-serif" font-size="13" lengthAdjust="spacing" textLength="56.9067" x="1474.3412" y="1464.2617">defines &#9656;</text><text fill="#000000" font-family="sans-serif" font-size="13" lengthAdjust="spacing" textLength="8.2202" x="1538.248" y="1426.9512">1</text><text fill="#000000" font-family="sans-serif" font-size="13" lengthAdjust="spacing" textLength="22.7119" x="1538.248" y="1501.5723">1..*</text><line style="stroke:#181818;stroke-width:1;" x1="1506.4127" x2="1506.4127" y1="1286.4512" y2="1380.3828"/><polygon fill="#181818" points="1506.4127,1286.4512,1502.4127,1292.4512,1506.4127,1298.4512,1510.4127,1292.4512,1506.4127,1286.4512" style="stroke:#181818;stroke-width:1;"/><text fill="#000000" font-family="sans-serif" font-size="13" lengthAdjust="spacing" textLength="39.5713" x="1462.8414" y="1338.3301">uses &#9656;</text><text fill="#000000" font-family="sans-serif" font-size="13" lengthAdjust="spacing" textLength="8.2202" x="1509.4127" y="1301.0195">1</text><text fill="#000000" font-family="sans-serif" font-size="13" lengthAdjust="spacing" textLength="22.7119" x="1509.4127" y="1375.6406">1..*</text><line style="stroke:#181818;stroke-width:1;" x1="120.4196" x2="120.4196" y1="597.0371" y2="664.3477"/><line style="stroke:#181818;stroke-width:1;" x1="120.4196" x2="207.9385" y1="664.3477" y2="664.3477"/><line style="stroke:#181818;stroke-width:1;" x1="207.9385" x2="207.9385" y1="664.3477" y2="1018.2109"/><line style="stroke:#181818;stroke-width:1;" x1="207.9385" x2="276.4865" y1="1018.2109" y2="1018.2109"/><line style="stroke:#181818;stroke-width:1;" x1="276.4865" x2="276.4865" y1="1018.2109" y2="1055.5215"/><polygon fill="#181818" points="120.4196,597.0371,116.4196,603.0371,120.4196,609.0371,124.4196,603.0371,120.4196,597.0371" style="stroke:#181818;stroke-width:1;"/><text fill="#000000" font-family="sans-serif" font-size="13" lengthAdjust="spacing" textLength="60.3154" x="143.623" y="817.5371">startsAt &#9656;</text><text fill="#000000" font-family="sans-serif" font-size="13" lengthAdjust="spacing" textLength="8.2202" x="123.4196" y="611.6055">1</text><text fill="#000000" font-family="sans-serif" font-size="13" lengthAdjust="spacing" textLength="8.2202" x="279.4865" y="1050.7793">1</text><line style="stroke:#181818;stroke-width:1;" x1="135.8699" x2="135.8699" y1="597.0371" y2="654.3477"/><line style="stroke:#181818;stroke-width:1;" x1="135.8699" x2="218.9385" y1="654.3477" y2="654.3477"/><line style="stroke:#181818;stroke-width:1;" x1="218.9385" x2="218.9385" y1="654.3477" y2="1008.2109"/><line style="stroke:#181818;stroke-width:1;" x1="218.9385" x2="288.7855" y1="1008.2109" y2="1008.2109"/><line style="stroke:#181818;stroke-width:1;" x1="288.7855" x2="288.7855" y1="1008.2109" y2="1055.5215"/><polygon fill="#181818" points="135.8699,597.0371,131.8699,603.0371,135.8699,609.0371,139.8699,603.0371,135.8699,597.0371" style="stroke:#181818;stroke-width:1;"/><text fill="#000000" font-family="sans-serif" font-size="13" lengthAdjust="spacing" textLength="54.958" x="223.9385" y="817.5371">endsAt &#9656;</text><text fill="#000000" font-family="sans-serif" font-size="13" lengthAdjust="spacing" textLength="8.2202" x="138.8699" y="611.6055">1</text><text fill="#000000" font-family="sans-serif" font-size="13" lengthAdjust="spacing" textLength="8.2202" x="291.7855" y="1050.7793">1</text><line style="stroke:#181818;stroke-width:1;" x1="182.2209" x2="182.2209" y1="597.0371" y2="624.3477"/><line style="stroke:#181818;stroke-width:1;" x1="182.2209" x2="1170.0478" y1="624.3477" y2="624.3477"/><line style="stroke:#181818;stroke-width:1;" x1="1170.0478" x2="1170.0478" y1="624.3477" y2="869.5898"/><polygon fill="#181818" points="182.2209,597.0371,178.2209,603.0371,182.2209,609.0371,186.2209,603.0371,182.2209,597.0371" style="stroke:#181818;stroke-width:1;"/><text fill="#000000" font-family="sans-serif" font-size="13" lengthAdjust="spacing" textLength="51.7271" x="1114.3208" y="743.2266">moves &#9656;</text><text fill="#000000" font-family="sans-serif" font-size="13" lengthAdjust="spacing" textLength="8.2202" x="185.2209" y="611.6055">1</text><text fill="#000000" font-family="sans-serif" font-size="13" lengthAdjust="spacing" textLength="8.2202" x="1173.0478" y="864.8477">1</text><line style="stroke:#181818;stroke-width:1;" x1="125.5697" x2="125.5697" y1="461.1055" y2="565.0371"/><polygon fill="#181818" points="125.5697,461.1055,121.5697,467.1055,125.5697,473.1055,129.5697,467.1055,125.5697,461.1055" style="stroke:#181818;stroke-width:1;"/><text fill="#000000" font-family="sans-serif" font-size="13" lengthAdjust="spacing" textLength="63.3687" x="58.201" y="522.9844">includes &#9656;</text><text fill="#000000" font-family="sans-serif" font-size="13" lengthAdjust="spacing" textLength="8.2202" x="128.5697" y="475.6738">1</text><text fill="#000000" font-family="sans-serif" font-size="13" lengthAdjust="spacing" textLength="6.2651" x="128.5697" y="560.2949">*</text><line style="stroke:#181818;stroke-width:1;" x1="301.0845" x2="301.0845" y1="901.5898" y2="1055.5215"/><polygon fill="#181818" points="301.0845,901.5898,297.0845,907.5898,301.0845,913.5898,305.0845,907.5898,301.0845,901.5898" style="stroke:#181818;stroke-width:1;"/><text fill="#000000" font-family="sans-serif" font-size="13" lengthAdjust="spacing" textLength="65.146" x="231.9385" y="993.4688">captures &#9656;</text><text fill="#000000" font-family="sans-serif" font-size="13" lengthAdjust="spacing" textLength="8.2202" x="304.0845" y="916.1582">1</text><text fill="#000000" font-family="sans-serif" font-size="13" lengthAdjust="spacing" textLength="8.2202" x="304.0845" y="1050.7793">1</text><line style="stroke:#181818;stroke-width:1;" x1="597.4299" x2="597.4299" y1="745.6582" y2="1018.2109"/><line style="stroke:#181818;stroke-width:1;" x1="597.4299" x2="325.6824" y1="1018.2109" y2="1018.2109"/><line style="stroke:#181818;stroke-width:1;" x1="325.6824" x2="325.6824" y1="1018.2109" y2="1055.5215"/><polygon fill="#181818" points="597.4299,745.6582,593.4299,751.6582,597.4299,757.6582,601.4299,751.6582,597.4299,745.6582" style="stroke:#181818;stroke-width:1;"/><text fill="#000000" font-family="sans-serif" font-size="13" lengthAdjust="spacing" textLength="89.5781" x="602.4299" y="890.5029">rookStartsAt &#9656;</text><text fill="#000000" font-family="sans-serif" font-size="13" lengthAdjust="spacing" textLength="8.2202" x="600.4299" y="760.2266">1</text><text fill="#000000" font-family="sans-serif" font-size="13" lengthAdjust="spacing" textLength="8.2202" x="328.6824" y="1050.7793">1</text><line style="stroke:#181818;stroke-width:1;" x1="582.8794" x2="582.8794" y1="745.6582" y2="1008.2109"/><line style="stroke:#181818;stroke-width:1;" x1="582.8794" x2="313.3834" y1="1008.2109" y2="1008.2109"/><line style="stroke:#181818;stroke-width:1;" x1="313.3834" x2="313.3834" y1="1008.2109" y2="1055.5215"/><polygon fill="#181818" points="582.8794,745.6582,578.8794,751.6582,582.8794,757.6582,586.8794,751.6582,582.8794,745.6582" style="stroke:#181818;stroke-width:1;"/><text fill="#000000" font-family="sans-serif" font-size="13" lengthAdjust="spacing" textLength="83.6494" x="495.23" y="890.5029">rookEndsAt &#9656;</text><text fill="#000000" font-family="sans-serif" font-size="13" lengthAdjust="spacing" textLength="8.2202" x="585.8794" y="760.2266">1</text><text fill="#000000" font-family="sans-serif" font-size="13" lengthAdjust="spacing" textLength="8.2202" x="316.3834" y="1050.7793">1</text><line style="stroke:#181818;stroke-width:1;" x1="641.0812" x2="641.0812" y1="745.6582" y2="772.9688"/><line style="stroke:#181818;stroke-width:1;" x1="641.0812" x2="1084.425" y1="772.9688" y2="772.9688"/><line style="stroke:#181818;stroke-width:1;" x1="1084.425" x2="1084.425" y1="772.9688" y2="832.2793"/><line style="stroke:#181818;stroke-width:1;" x1="1084.425" x2="1148.647" y1="832.2793" y2="832.2793"/><line style="stroke:#181818;stroke-width:1;" x1="1148.647" x2="1148.647" y1="832.2793" y2="869.5898"/><polygon fill="#181818" points="641.0812,745.6582,637.0812,751.6582,641.0812,757.6582,645.0812,751.6582,641.0812,745.6582" style="stroke:#181818;stroke-width:1;"/><text fill="#000000" font-family="sans-serif" font-size="13" lengthAdjust="spacing" textLength="79.5361" x="1000.8888" y="817.5371">movesWith &#9656;</text><text fill="#000000" font-family="sans-serif" font-size="13" lengthAdjust="spacing" textLength="8.2202" x="644.0812" y="760.2266">1</text><text fill="#000000" font-family="sans-serif" font-size="13" lengthAdjust="spacing" textLength="8.2202" x="1151.647" y="864.8477">1</text><!--SRC=[rLTDRkCs5Dxh5Aopc8p7STlffZ0C0udZ96uoISRsr8ksA1ZfHI92aIv99-CEvXezIy_Ja_IHrB_amBkYIc19vFUzVpvItsmKZLDAEDt9hI70duA4HK0WtPWTIS4aCjBL8MgCOWzR0phGJqnigA8fuKo0sMs0I8M4oeIIMn5DfHAWo7ULyP1JhKzpKVDGYYNx4sgGgOMSqV0fpeHmgSZH7OzkQ0WLtAqqS01icT18lZ0HaqVADGH6ReYHv44Q8rCICGMXOL84mLYR7OT9GF1oPfup6bi9NzoGlOOR9Pyn955bp5vDCouJgSqwOGPgi1kCbWUSi_HImQusUo65wPxz6lZVyRUPYJulut5kpcH2j045qkOY29Z0bqSC0vaceFKK1Il9EQWQuylNAlAJ1ZLD90kX1Nf3IbZlND4N-i1X0Lfk5Q9darwTWNXxlICnc1nr_7P4PZZnjMNSpmnUEZGAJ2xXy6Y8V2o1cUWLOUc6Gmh2Q6SuyPQFo7X5uBC14TN69-W0-Oa-K-JZd1DkbT07RHGDZKytwPrH3SwUfayLTOKj5KSLnCp6l_3Mfc54xXc4iCB70GbjNd44Lnk6sRuCaAL7f2ES6AfdoQ9C-X7XaaRvz8LKXmcFu754SjRRJZq-7Myovoy_pLkfo4DP2qp5RsseCdRyk6wpZKWgdy7PUFnvPEjdG7RktaHkjgOBDY07k5dAUeSBMMzmvWDcXyPmdEfuH9ROPaJSr4ZrawsDyMfoR9ZXaEC6v8yjQDiBof6Dr9ezCCuCizaQ3eSh5BUgXmxNbvOS_iVXyxB-Wn1c0RHhQYPYR8-jfLOshqR3ShDdagfehR3HxfzU08sowOewDrKHtjJxYcGk1TYrr6fRJV7TGhqzWvQQGIdPIMjqfn8-5nXBod7Vh7frBpMpaNT38BPfDTMD3cspkBwQhsRkwUpcT7eT5AoyP3euzwVhM_UmkBkxTW_Nj_FBgvKNCrzUtTsxnu-VPZCFl9xVNWPxd76QQZ6g-jzWt2kPIcCdAznyXNMBAxSqAoyJGrz45wq0BAHyAW2TIWlejM1nOWu4dp6TuCdZCF37BO0ur0fxjEdsg1Ns3zXLBW7FPDH8jJVo7dkUdumeBocvdhgWHaGEXf_Zhab520SJRFRsazepnL8edCaA-U9kiJvTd2zzuMBvbsytimjVpukYidFqxyLSCLA22YabgXpoi6AjMlVqtaLkPoiBUubEHRZitN0jqJamuzADsQfN8JDnZpSgogAj2M-lkYdLXhSAh2xqHeguZSi72jWomM-40t2-scsgzjdOmAsPILg-P-ysYirjfFTzZvoSJDozFCsDI4e5Rdladx_-pZZPZcHn_PEJ4j_SEdAgTjmcDLTLwSR8IAXURPLeCKv-EVeHxDzlIEjk-IEorQ0nA8Q5bFETbV6h68V-0yYp9_s-_JmQzVjabJ1Dy1yFlOJYoO9otBwr31crmHksc6lyc1CebOa8vUCft2JKu0zKj-aMo-V46bP2MvRhmkPXq1d9xb2Znw77L2BSHUtAwXvcgUhzSFZ3-rwrSrfIYiSMYEuUzzDwvOux8dRDFEtNaTlaAhYDzcfhnP9lmeXMiC5F1TUcNsFKoki1iA77UYMxADwauR3VQ_JPbkD1voPWPSXIHjbRH_Qp0wl36zfknmtbdS9zTLTMeOjPDPALiBiJj3urfPUleMrdU1LRgu7KzMWBzjsw0FRhoMGYvDieWvODTeyDeMzCMIhpvhS7hF0iigovU01XLl6o2zvsqZPGX_yN]--></g></svg>