<svg xmlns="http://www.w3.org/2000/svg" xmlns:xlink="http://www.w3.org/1999/xlink" contentStyleType="text/css" height="1324px" preserveAspectRatio="none" style="width:1279px;height:1324px;background:#FFFFFF;" version="1.1" viewBox="0 0 1279 1324" width="1279px" zoomAndPan="magnify"><defs/><g><!--class ChessController--><g id="elem_ChessController"><rect codeLine="24" fill="#F8F8FF" height="32" id="ChessController" style="stroke:#696969;stroke-width:0.5;" width="140.6094" x="955.4506" y="137.9316"/><ellipse cx="970.4506" cy="153.9316" fill="#B4A7E5" rx="11" ry="11" style="stroke:#181818;stroke-width:1;"/><path d="M966.8783,150.1968 L966.8783,148.0386 L974.2577,148.0386 L974.2577,150.1968 L971.7924,150.1968 L971.7924,158.2734 L974.2577,158.2734 L974.2577,160.4316 L966.8783,160.4316 L966.8783,158.2734 L969.3437,158.2734 L969.3437,150.1968 Z " fill="#000000"/><text fill="#696969" font-family="sans-serif" font-size="14" font-style="italic" lengthAdjust="spacing" textLength="108.6094" x="984.4506" y="159.2227">ChessController</text></g><!--class UserChoice--><g id="elem_UserChoice"><rect codeLine="26" fill="#F8F8FF" height="32" id="UserChoice" style="stroke:#696969;stroke-width:0.5;" width="108.3574" x="80.7924" y="559.1055"/><ellipse cx="95.7924" cy="575.1055" fill="#B4A7E5" rx="11" ry="11" style="stroke:#181818;stroke-width:1;"/><path d="M92.2201,571.3706 L92.2201,569.2124 L99.5995,569.2124 L99.5995,571.3706 L97.1342,571.3706 L97.1342,579.4473 L99.5995,579.4473 L99.5995,581.6055 L92.2201,581.6055 L92.2201,579.4473 L94.6855,579.4473 L94.6855,571.3706 Z " fill="#000000"/><text fill="#696969" font-family="sans-serif" font-size="14" font-style="italic" lengthAdjust="spacing" textLength="76.3574" x="109.7924" y="580.3965">UserChoice</text></g><!--class ChessView--><g id="elem_ChessView"><rect codeLine="31" fill="#F8F8FF" height="32" id="ChessView" style="stroke:#696969;stroke-width:0.5;" width="104.2354" x="1091.4731" y="574.416"/><ellipse cx="1106.4731" cy="590.416" fill="#B4A7E5" rx="11" ry="11" style="stroke:#181818;stroke-width:1;"/><path d="M1102.9009,586.6812 L1102.9009,584.5229 L1110.2803,584.5229 L1110.2803,586.6812 L1107.8149,586.6812 L1107.8149,594.7578 L1110.2803,594.7578 L1110.2803,596.916 L1102.9009,596.916 L1102.9009,594.7578 L1105.3662,594.7578 L1105.3662,586.6812 Z " fill="#000000"/><text fill="#696969" font-family="sans-serif" font-size="14" font-style="italic" lengthAdjust="spacing" textLength="72.2354" x="1120.4731" y="595.707">ChessView</text></g><!--class ChessEngine--><g id="elem_ChessEngine"><rect codeLine="42" fill="#FDF5E6" height="32" id="ChessEngine" style="stroke:#181818;stroke-width:0.5;" width="117.9893" x="943.3258" y="237.2422"/><ellipse cx="958.3258" cy="253.2422" fill="#ADD1B2" rx="11" ry="11" style="stroke:#181818;stroke-width:1;"/><path d="M960.7989,259.3853 Q960.2178,259.6841 959.5787,259.8335 Q958.9395,259.9829 958.234,259.9829 Q955.7271,259.9829 954.4073,258.3311 Q953.0875,256.6792 953.0875,253.5581 Q953.0875,250.4287 954.4073,248.7769 Q955.7271,247.125 958.234,247.125 Q958.9395,247.125 959.587,247.2744 Q960.2344,247.4238 960.7989,247.7227 L960.7989,250.4453 Q960.168,249.8643 959.5745,249.5945 Q958.981,249.3247 958.3502,249.3247 Q957.0054,249.3247 956.3206,250.3914 Q955.6358,251.458 955.6358,253.5581 Q955.6358,255.6499 956.3206,256.7166 Q957.0054,257.7832 958.3502,257.7832 Q958.981,257.7832 959.5745,257.5134 Q960.168,257.2437 960.7989,256.6626 Z " fill="#000000"/><text fill="#000000" font-family="sans-serif" font-size="14" lengthAdjust="spacing" textLength="85.9893" x="972.3258" y="258.5332">ChessEngine</text></g><!--class ChessBoardView--><g id="elem_ChessBoardView"><rect codeLine="44" fill="#FDF5E6" height="32" id="ChessBoardView" style="stroke:#181818;stroke-width:0.5;" width="143.1592" x="780.1666" y="237.2422"/><ellipse cx="795.1666" cy="253.2422" fill="#B4A7E5" rx="11" ry="11" style="stroke:#181818;stroke-width:1;"/><path d="M791.5943,249.5073 L791.5943,247.3491 L798.9737,247.3491 L798.9737,249.5073 L796.5084,249.5073 L796.5084,257.584 L798.9737,257.584 L798.9737,259.7422 L791.5943,259.7422 L791.5943,257.584 L794.0596,257.584 L794.0596,249.5073 Z " fill="#000000"/><text fill="#000000" font-family="sans-serif" font-size="14" font-style="italic" lengthAdjust="spacing" textLength="111.1592" x="809.1666" y="258.5332">ChessBoardView</text></g><!--class Cloneable--><g id="elem_Cloneable"><rect codeLine="46" fill="#F8F8FF" height="32" id="Cloneable" style="stroke:#696969;stroke-width:0.5;" width="99.2109" x="660.9556" y="237.2422"/><ellipse cx="675.9556" cy="253.2422" fill="#B4A7E5" rx="11" ry="11" style="stroke:#181818;stroke-width:1;"/><path d="M672.3834,249.5073 L672.3834,247.3491 L679.7628,247.3491 L679.7628,249.5073 L677.2974,249.5073 L677.2974,257.584 L679.7628,257.584 L679.7628,259.7422 L672.3834,259.7422 L672.3834,257.584 L674.8487,257.584 L674.8487,249.5073 Z " fill="#000000"/><text fill="#696969" font-family="sans-serif" font-size="14" font-style="italic" lengthAdjust="spacing" textLength="67.2109" x="689.9556" y="258.5332">Cloneable</text></g><!--class ChessBoard--><g id="elem_ChessBoard"><rect codeLine="48" fill="#FDF5E6" height="32" id="ChessBoard" style="stroke:#181818;stroke-width:0.5;" width="111.3721" x="754.962" y="373.1738"/><ellipse cx="769.962" cy="389.1738" fill="#ADD1B2" rx="11" ry="11" style="stroke:#181818;stroke-width:1;"/><path d="M772.4351,395.3169 Q771.8541,395.6157 771.2149,395.7651 Q770.5758,395.9146 769.8702,395.9146 Q767.3634,395.9146 766.0435,394.2627 Q764.7237,392.6108 764.7237,389.4897 Q764.7237,386.3604 766.0435,384.7085 Q767.3634,383.0566 769.8702,383.0566 Q770.5758,383.0566 771.2232,383.2061 Q771.8707,383.3555 772.4351,383.6543 L772.4351,386.377 Q771.8043,385.7959 771.2108,385.5261 Q770.6173,385.2563 769.9864,385.2563 Q768.6417,385.2563 767.9569,386.323 Q767.272,387.3896 767.272,389.4897 Q767.272,391.5815 767.9569,392.6482 Q768.6417,393.7148 769.9864,393.7148 Q770.6173,393.7148 771.2108,393.4451 Q771.8043,393.1753 772.4351,392.5942 Z " fill="#000000"/><text fill="#000000" font-family="sans-serif" font-size="14" lengthAdjust="spacing" textLength="79.3721" x="783.962" y="394.4648">ChessBoard</text></g><!--class ChessBoardInitialzer--><g id="elem_ChessBoardInitialzer"><rect codeLine="50" fill="#FDF5E6" height="32" id="ChessBoardInitialzer" style="stroke:#181818;stroke-width:0.5;" width="170.7559" x="916.9425" y="373.1738"/><ellipse cx="931.9425" cy="389.1738" fill="#A9DCDF" rx="11" ry="11" style="stroke:#181818;stroke-width:1;"/><path d="M931.8057,384.522 L930.6519,389.5938 L932.9678,389.5938 Z M930.3116,382.2808 L933.3082,382.2808 L936.6534,394.6738 L934.2047,394.6738 L933.441,391.6108 L930.1622,391.6108 L929.4151,394.6738 L926.9664,394.6738 Z " fill="#000000"/><text fill="#000000" font-family="sans-serif" font-size="14" font-style="italic" lengthAdjust="spacing" textLength="138.7559" x="945.9425" y="394.4648">ChessBoardInitialzer</text></g><!--class Position--><g id="elem_Position"><rect codeLine="52" fill="#FDF5E6" height="32" id="Position" style="stroke:#181818;stroke-width:0.5;" width="86.0928" x="209.1498" y="574.416"/><ellipse cx="224.1498" cy="590.416" fill="#ADD1B2" rx="11" ry="11" style="stroke:#181818;stroke-width:1;"/><path d="M226.623,596.5591 Q226.0419,596.8579 225.4028,597.0073 Q224.7636,597.1567 224.058,597.1567 Q221.5512,597.1567 220.2314,595.5049 Q218.9116,593.853 218.9116,590.7319 Q218.9116,587.6025 220.2314,585.9507 Q221.5512,584.2988 224.058,584.2988 Q224.7636,584.2988 225.4111,584.4482 Q226.0585,584.5977 226.623,584.8965 L226.623,587.6191 Q225.9921,587.0381 225.3986,586.7683 Q224.8051,586.4985 224.1743,586.4985 Q222.8295,586.4985 222.1447,587.5652 Q221.4599,588.6318 221.4599,590.7319 Q221.4599,592.8237 222.1447,593.8904 Q222.8295,594.957 224.1743,594.957 Q224.8051,594.957 225.3986,594.6873 Q225.9921,594.4175 226.623,593.8364 Z " fill="#000000"/><text fill="#000000" font-family="sans-serif" font-size="14" lengthAdjust="spacing" textLength="54.0928" x="238.1498" y="595.707">Position</text></g><!--class PlayerColor--><g id="elem_PlayerColor"><rect codeLine="54" fill="#F8F8FF" height="72.9766" id="PlayerColor" style="stroke:#696969;stroke-width:0.5;" width="109.0205" x="1015.9629" y="705.0371"/><ellipse cx="1030.9629" cy="721.0371" fill="#EB937F" rx="11" ry="11" style="stroke:#181818;stroke-width:1;"/><path d="M1034.5772,727.5371 L1026.8574,727.5371 L1026.8574,715.144 L1034.5772,715.144 L1034.5772,717.3022 L1029.3062,717.3022 L1029.3062,719.9751 L1034.0791,719.9751 L1034.0791,722.1333 L1029.3062,722.1333 L1029.3062,725.3789 L1034.5772,725.3789 Z " fill="#000000"/><text fill="#696969" font-family="sans-serif" font-size="14" lengthAdjust="spacing" textLength="77.0205" x="1044.9629" y="726.3281">PlayerColor</text><line style="stroke:#696969;stroke-width:0.5;" x1="1016.9629" x2="1123.9834" y1="737.0371" y2="737.0371"/><text fill="#696969" font-family="sans-serif" font-size="14" lengthAdjust="spacing" textLength="42.7383" x="1021.9629" y="754.5723">WHITE</text><text fill="#696969" font-family="sans-serif" font-size="14" lengthAdjust="spacing" textLength="44.0029" x="1021.9629" y="771.0605">BLACK</text></g><!--class PieceType--><g id="elem_PieceType"><rect codeLine="59" fill="#F8F8FF" height="138.9297" id="PieceType" style="stroke:#696969;stroke-width:0.5;" width="99.334" x="654.5498" y="705.0371"/><ellipse cx="669.5498" cy="721.0371" fill="#EB937F" rx="11" ry="11" style="stroke:#181818;stroke-width:1;"/><path d="M673.1641,727.5371 L665.4443,727.5371 L665.4443,715.144 L673.1641,715.144 L673.1641,717.3022 L667.8931,717.3022 L667.8931,719.9751 L672.666,719.9751 L672.666,722.1333 L667.8931,722.1333 L667.8931,725.3789 L673.1641,725.3789 Z " fill="#000000"/><text fill="#696969" font-family="sans-serif" font-size="14" lengthAdjust="spacing" textLength="67.334" x="683.5498" y="726.3281">PieceType</text><line style="stroke:#696969;stroke-width:0.5;" x1="655.5498" x2="752.8838" y1="737.0371" y2="737.0371"/><text fill="#696969" font-family="sans-serif" font-size="14" lengthAdjust="spacing" textLength="39.7168" x="660.5498" y="754.5723">PAWN</text><text fill="#696969" font-family="sans-serif" font-size="14" lengthAdjust="spacing" textLength="39.7441" x="660.5498" y="771.0605">ROOK</text><text fill="#696969" font-family="sans-serif" font-size="14" lengthAdjust="spacing" textLength="52.7734" x="660.5498" y="787.5488">KNIGHT</text><text fill="#696969" font-family="sans-serif" font-size="14" lengthAdjust="spacing" textLength="48.5283" x="660.5498" y="804.0371">BISHOP</text><text fill="#696969" font-family="sans-serif" font-size="14" lengthAdjust="spacing" textLength="46.0947" x="660.5498" y="820.5254">QUEEN</text><text fill="#696969" font-family="sans-serif" font-size="14" lengthAdjust="spacing" textLength="33.6328" x="660.5498" y="837.0137">KING</text></g><!--class ChessPiece--><g id="elem_ChessPiece"><rect codeLine="68" fill="#FDF5E6" height="32" id="ChessPiece" style="stroke:#181818;stroke-width:0.5;" width="107.0039" x="658.358" y="559.1055"/><ellipse cx="673.358" cy="575.1055" fill="#A9DCDF" rx="11" ry="11" style="stroke:#181818;stroke-width:1;"/><path d="M673.2213,570.4536 L672.0675,575.5254 L674.3834,575.5254 Z M671.7271,568.2124 L674.7237,568.2124 L678.0689,580.6055 L675.6202,580.6055 L674.8565,577.5425 L671.5777,577.5425 L670.8306,580.6055 L668.3819,580.6055 Z " fill="#000000"/><text fill="#000000" font-family="sans-serif" font-size="14" font-style="italic" lengthAdjust="spacing" textLength="75.0039" x="687.358" y="580.3965">ChessPiece</text></g><!--class PromotableChessPiece--><g id="elem_PromotableChessPiece"><rect codeLine="69" fill="#FDF5E6" height="32" id="PromotableChessPiece" style="stroke:#181818;stroke-width:0.5;" width="184.3662" x="73.5157" y="770.5534"/><ellipse cx="88.5157" cy="786.5534" fill="#A9DCDF" rx="11" ry="11" style="stroke:#181818;stroke-width:1;"/><path d="M88.379,781.9015 L87.2252,786.9733 L89.5411,786.9733 Z M86.8849,779.6603 L89.8814,779.6603 L93.2267,792.0534 L90.7779,792.0534 L90.0143,788.9904 L86.7354,788.9904 L85.9884,792.0534 L83.5396,792.0534 Z " fill="#000000"/><text fill="#000000" font-family="sans-serif" font-size="14" font-style="italic" lengthAdjust="spacing" textLength="152.3662" x="102.5157" y="791.8444">PromotableChessPiece</text></g><!--class Pawn--><g id="elem_Pawn"><rect codeLine="70" fill="#FDF5E6" height="32" id="Pawn" style="stroke:#181818;stroke-width:0.5;" width="66.9453" x="773.8838" y="705.0371"/><ellipse cx="788.8838" cy="721.0371" fill="#ADD1B2" rx="11" ry="11" style="stroke:#181818;stroke-width:1;"/><path d="M791.3569,727.1802 Q790.7759,727.479 790.1367,727.6284 Q789.4976,727.7778 788.792,727.7778 Q786.2852,727.7778 784.9653,726.126 Q783.6455,724.4741 783.6455,721.353 Q783.6455,718.2236 784.9653,716.5718 Q786.2852,714.9199 788.792,714.9199 Q789.4976,714.9199 790.145,715.0693 Q790.7925,715.2188 791.3569,715.5176 L791.3569,718.2402 Q790.7261,717.6592 790.1326,717.3894 Q789.5391,717.1196 788.9082,717.1196 Q787.5635,717.1196 786.8787,718.1863 Q786.1939,719.2529 786.1939,721.353 Q786.1939,723.4448 786.8787,724.5115 Q787.5635,725.5781 788.9082,725.5781 Q789.5391,725.5781 790.1326,725.3083 Q790.7261,725.0386 791.3569,724.4575 Z " fill="#000000"/><text fill="#000000" font-family="sans-serif" font-size="14" lengthAdjust="spacing" textLength="34.9453" x="802.8838" y="726.3281">Pawn</text></g><!--class Rook--><g id="elem_Rook"><rect codeLine="71" fill="#FDF5E6" height="32" id="Rook" style="stroke:#181818;stroke-width:0.5;" width="66.2344" x="205.1885" y="893.9668"/><ellipse cx="220.1885" cy="909.9668" fill="#ADD1B2" rx="11" ry="11" style="stroke:#181818;stroke-width:1;"/><path d="M222.6616,916.1099 Q222.0806,916.4087 221.4414,916.5581 Q220.8022,916.7075 220.0967,916.7075 Q217.5898,916.7075 216.27,915.0557 Q214.9502,913.4038 214.9502,910.2827 Q214.9502,907.1533 216.27,905.5015 Q217.5898,903.8496 220.0967,903.8496 Q220.8022,903.8496 221.4497,903.999 Q222.0972,904.1484 222.6616,904.4473 L222.6616,907.1699 Q222.0308,906.5889 221.4373,906.3191 Q220.8438,906.0493 220.2129,906.0493 Q218.8682,906.0493 218.1833,907.116 Q217.4985,908.1826 217.4985,910.2827 Q217.4985,912.3745 218.1833,913.4412 Q218.8682,914.5078 220.2129,914.5078 Q220.8438,914.5078 221.4373,914.238 Q222.0308,913.9683 222.6616,913.3872 Z " fill="#000000"/><text fill="#000000" font-family="sans-serif" font-size="14" lengthAdjust="spacing" textLength="34.2344" x="234.1885" y="915.2578">Rook</text></g><!--class Knight--><g id="elem_Knight"><rect codeLine="72" fill="#FDF5E6" height="32" id="Knight" style="stroke:#181818;stroke-width:0.5;" width="76.5293" x="291.4229" y="893.9668"/><ellipse cx="306.4229" cy="909.9668" fill="#ADD1B2" rx="11" ry="11" style="stroke:#181818;stroke-width:1;"/><path d="M308.896,916.1099 Q308.3149,916.4087 307.6758,916.5581 Q307.0366,916.7075 306.3311,916.7075 Q303.8242,916.7075 302.5044,915.0557 Q301.1846,913.4038 301.1846,910.2827 Q301.1846,907.1533 302.5044,905.5015 Q303.8242,903.8496 306.3311,903.8496 Q307.0366,903.8496 307.6841,903.999 Q308.3315,904.1484 308.896,904.4473 L308.896,907.1699 Q308.2651,906.5889 307.6716,906.3191 Q307.0781,906.0493 306.4473,906.0493 Q305.1025,906.0493 304.4177,907.116 Q303.7329,908.1826 303.7329,910.2827 Q303.7329,912.3745 304.4177,913.4412 Q305.1025,914.5078 306.4473,914.5078 Q307.0781,914.5078 307.6716,914.238 Q308.2651,913.9683 308.896,913.3872 Z " fill="#000000"/><text fill="#000000" font-family="sans-serif" font-size="14" lengthAdjust="spacing" textLength="44.5293" x="320.4229" y="915.2578">Knight</text></g><!--class Bishop--><g id="elem_Bishop"><rect codeLine="73" fill="#FDF5E6" height="32" id="Bishop" style="stroke:#181818;stroke-width:0.5;" width="77.3359" x="12" y="893.9668"/><ellipse cx="27" cy="909.9668" fill="#ADD1B2" rx="11" ry="11" style="stroke:#181818;stroke-width:1;"/><path d="M29.4731,916.1099 Q28.8921,916.4087 28.2529,916.5581 Q27.6138,916.7075 26.9082,916.7075 Q24.4014,916.7075 23.0815,915.0557 Q21.7617,913.4038 21.7617,910.2827 Q21.7617,907.1533 23.0815,905.5015 Q24.4014,903.8496 26.9082,903.8496 Q27.6138,903.8496 28.2612,903.999 Q28.9087,904.1484 29.4731,904.4473 L29.4731,907.1699 Q28.8423,906.5889 28.2488,906.3191 Q27.6553,906.0493 27.0244,906.0493 Q25.6797,906.0493 24.9949,907.116 Q24.3101,908.1826 24.3101,910.2827 Q24.3101,912.3745 24.9949,913.4412 Q25.6797,914.5078 27.0244,914.5078 Q27.6553,914.5078 28.2488,914.238 Q28.8423,913.9683 29.4731,913.3872 Z " fill="#000000"/><text fill="#000000" font-family="sans-serif" font-size="14" lengthAdjust="spacing" textLength="45.3359" x="41" y="915.2578">Bishop</text></g><!--class Queen--><g id="elem_Queen"><rect codeLine="74" fill="#FDF5E6" height="32" id="Queen" style="stroke:#181818;stroke-width:0.5;" width="75.8525" x="109.3359" y="893.9668"/><ellipse cx="124.3359" cy="909.9668" fill="#ADD1B2" rx="11" ry="11" style="stroke:#181818;stroke-width:1;"/><path d="M126.8091,916.1099 Q126.228,916.4087 125.5889,916.5581 Q124.9497,916.7075 124.2441,916.7075 Q121.7373,916.7075 120.4175,915.0557 Q119.0977,913.4038 119.0977,910.2827 Q119.0977,907.1533 120.4175,905.5015 Q121.7373,903.8496 124.2441,903.8496 Q124.9497,903.8496 125.5972,903.999 Q126.2446,904.1484 126.8091,904.4473 L126.8091,907.1699 Q126.1782,906.5889 125.5847,906.3191 Q124.9912,906.0493 124.3604,906.0493 Q123.0156,906.0493 122.3308,907.116 Q121.646,908.1826 121.646,910.2827 Q121.646,912.3745 122.3308,913.4412 Q123.0156,914.5078 124.3604,914.5078 Q124.9912,914.5078 125.5847,914.238 Q126.1782,913.9683 126.8091,913.3872 Z " fill="#000000"/><text fill="#000000" font-family="sans-serif" font-size="14" lengthAdjust="spacing" textLength="43.8525" x="138.3359" y="915.2578">Queen</text></g><!--class King--><g id="elem_King"><rect codeLine="75" fill="#FDF5E6" height="32" id="King" style="stroke:#181818;stroke-width:0.5;" width="62.6045" x="571.9453" y="705.0371"/><ellipse cx="586.9453" cy="721.0371" fill="#ADD1B2" rx="11" ry="11" style="stroke:#181818;stroke-width:1;"/><path d="M589.4185,727.1802 Q588.8374,727.479 588.1982,727.6284 Q587.5591,727.7778 586.8535,727.7778 Q584.3467,727.7778 583.0269,726.126 Q581.707,724.4741 581.707,721.353 Q581.707,718.2236 583.0269,716.5718 Q584.3467,714.9199 586.8535,714.9199 Q587.5591,714.9199 588.2065,715.0693 Q588.854,715.2188 589.4185,715.5176 L589.4185,718.2402 Q588.7876,717.6592 588.1941,717.3894 Q587.6006,717.1196 586.9697,717.1196 Q585.625,717.1196 584.9402,718.1863 Q584.2554,719.2529 584.2554,721.353 Q584.2554,723.4448 584.9402,724.5115 Q585.625,725.5781 586.9697,725.5781 Q587.6006,725.5781 588.1941,725.3083 Q588.7876,725.0386 589.4185,724.4575 Z " fill="#000000"/><text fill="#000000" font-family="sans-serif" font-size="14" lengthAdjust="spacing" textLength="30.6045" x="600.9453" y="726.3281">King</text></g><!--class MoveGenerator--><g id="elem_MoveGenerator"><rect codeLine="78" fill="#FDF5E6" height="32" id="MoveGenerator" style="stroke:#181818;stroke-width:0.5;" width="135.1338" x="860.8291" y="780.9067"/><ellipse cx="875.8291" cy="796.9067" fill="#B4A7E5" rx="11" ry="11" style="stroke:#181818;stroke-width:1;"/><path d="M872.2568,793.1719 L872.2568,791.0137 L879.6362,791.0137 L879.6362,793.1719 L877.1709,793.1719 L877.1709,801.2485 L879.6362,801.2485 L879.6362,803.4067 L872.2568,803.4067 L872.2568,801.2485 L874.7222,801.2485 L874.7222,793.1719 Z " fill="#000000"/><text fill="#000000" font-family="sans-serif" font-size="14" font-style="italic" lengthAdjust="spacing" textLength="103.1338" x="889.8291" y="802.1978">MoveGenerator</text></g><!--class DirectionalGenerator--><g id="elem_DirectionalGenerator"><rect codeLine="79" fill="#FDF5E6" height="32" id="DirectionalGenerator" style="stroke:#181818;stroke-width:0.5;" width="173.0117" x="1018.4442" y="1019.8984"/><ellipse cx="1033.4442" cy="1035.8984" fill="#ADD1B2" rx="11" ry="11" style="stroke:#181818;stroke-width:1;"/><path d="M1035.9173,1042.0415 Q1035.3363,1042.3403 1034.6971,1042.4897 Q1034.0579,1042.6392 1033.3524,1042.6392 Q1030.8455,1042.6392 1029.5257,1040.9873 Q1028.2059,1039.3354 1028.2059,1036.2144 Q1028.2059,1033.085 1029.5257,1031.4331 Q1030.8455,1029.7813 1033.3524,1029.7813 Q1034.0579,1029.7813 1034.7054,1029.9307 Q1035.3529,1030.0801 1035.9173,1030.3789 L1035.9173,1033.1016 Q1035.2865,1032.5205 1034.693,1032.2507 Q1034.0995,1031.981 1033.4686,1031.981 Q1032.1239,1031.981 1031.4391,1033.0476 Q1030.7542,1034.1143 1030.7542,1036.2144 Q1030.7542,1038.3062 1031.4391,1039.3728 Q1032.1239,1040.4395 1033.4686,1040.4395 Q1034.0995,1040.4395 1034.693,1040.1697 Q1035.2865,1039.8999 1035.9173,1039.3188 Z " fill="#000000"/><text fill="#000000" font-family="sans-serif" font-size="14" lengthAdjust="spacing" textLength="141.0117" x="1047.4442" y="1041.1895">DirectionalGenerator</text></g><!--class KnightGenerator--><g id="elem_KnightGenerator"><rect codeLine="80" fill="#FDF5E6" height="32" id="KnightGenerator" style="stroke:#181818;stroke-width:0.5;" width="143.959" x="685.5737" y="893.9668"/><ellipse cx="700.5737" cy="909.9668" fill="#ADD1B2" rx="11" ry="11" style="stroke:#181818;stroke-width:1;"/><path d="M703.0469,916.1099 Q702.4658,916.4087 701.8267,916.5581 Q701.1875,916.7075 700.4819,916.7075 Q697.9751,916.7075 696.6553,915.0557 Q695.3355,913.4038 695.3355,910.2827 Q695.3355,907.1533 696.6553,905.5015 Q697.9751,903.8496 700.4819,903.8496 Q701.1875,903.8496 701.835,903.999 Q702.4824,904.1484 703.0469,904.4473 L703.0469,907.1699 Q702.416,906.5889 701.8225,906.3191 Q701.229,906.0493 700.5981,906.0493 Q699.2534,906.0493 698.5686,907.116 Q697.8838,908.1826 697.8838,910.2827 Q697.8838,912.3745 698.5686,913.4412 Q699.2534,914.5078 700.5981,914.5078 Q701.229,914.5078 701.8225,914.238 Q702.416,913.9683 703.0469,913.3872 Z " fill="#000000"/><text fill="#000000" font-family="sans-serif" font-size="14" lengthAdjust="spacing" textLength="111.959" x="714.5737" y="915.2578">KnightGenerator</text></g><!--class DistanceGenerator--><g id="elem_DistanceGenerator"><rect codeLine="81" fill="#FDF5E6" height="32" id="DistanceGenerator" style="stroke:#181818;stroke-width:0.5;" width="157.7266" x="849.5327" y="893.9668"/><ellipse cx="864.5327" cy="909.9668" fill="#ADD1B2" rx="11" ry="11" style="stroke:#181818;stroke-width:1;"/><path d="M867.0059,916.1099 Q866.4248,916.4087 865.7856,916.5581 Q865.1465,916.7075 864.4409,916.7075 Q861.9341,916.7075 860.6143,915.0557 Q859.2944,913.4038 859.2944,910.2827 Q859.2944,907.1533 860.6143,905.5015 Q861.9341,903.8496 864.4409,903.8496 Q865.1465,903.8496 865.7939,903.999 Q866.4414,904.1484 867.0059,904.4473 L867.0059,907.1699 Q866.375,906.5889 865.7815,906.3191 Q865.188,906.0493 864.5571,906.0493 Q863.2124,906.0493 862.5276,907.116 Q861.8428,908.1826 861.8428,910.2827 Q861.8428,912.3745 862.5276,913.4412 Q863.2124,914.5078 864.5571,914.5078 Q865.188,914.5078 865.7815,914.238 Q866.375,913.9683 867.0059,913.3872 Z " fill="#000000"/><text fill="#000000" font-family="sans-serif" font-size="14" lengthAdjust="spacing" textLength="125.7266" x="878.5327" y="915.2578">DistanceGenerator</text></g><!--class PawnDistanceGenerator--><g id="elem_PawnDistanceGenerator"><rect codeLine="82" fill="#FDF5E6" height="32" id="PawnDistanceGenerator" style="stroke:#181818;stroke-width:0.5;" width="192.6719" x="805.7723" y="1019.8984"/><ellipse cx="820.7723" cy="1035.8984" fill="#ADD1B2" rx="11" ry="11" style="stroke:#181818;stroke-width:1;"/><path d="M823.2454,1042.0415 Q822.6644,1042.3403 822.0252,1042.4897 Q821.3861,1042.6392 820.6805,1042.6392 Q818.1737,1042.6392 816.8538,1040.9873 Q815.534,1039.3354 815.534,1036.2144 Q815.534,1033.085 816.8538,1031.4331 Q818.1737,1029.7813 820.6805,1029.7813 Q821.3861,1029.7813 822.0335,1029.9307 Q822.681,1030.0801 823.2454,1030.3789 L823.2454,1033.1016 Q822.6146,1032.5205 822.0211,1032.2507 Q821.4276,1031.981 820.7967,1031.981 Q819.452,1031.981 818.7672,1033.0476 Q818.0824,1034.1143 818.0824,1036.2144 Q818.0824,1038.3062 818.7672,1039.3728 Q819.452,1040.4395 820.7967,1040.4395 Q821.4276,1040.4395 822.0211,1040.1697 Q822.6146,1039.8999 823.2454,1039.3188 Z " fill="#000000"/><text fill="#000000" font-family="sans-serif" font-size="14" lengthAdjust="spacing" textLength="160.6719" x="834.7723" y="1041.1895">PawnDistanceGenerator</text></g><!--class Direction--><g id="elem_Direction"><rect codeLine="84" fill="#FDF5E6" height="171.9063" id="Direction" style="stroke:#181818;stroke-width:0.5;" width="146.1963" x="1031.8519" y="1145.8301"/><ellipse cx="1070.4286" cy="1161.8301" fill="#EB937F" rx="11" ry="11" style="stroke:#181818;stroke-width:1;"/><path d="M1074.0428,1168.3301 L1066.3231,1168.3301 L1066.3231,1155.937 L1074.0428,1155.937 L1074.0428,1158.0952 L1068.7718,1158.0952 L1068.7718,1160.7681 L1073.5448,1160.7681 L1073.5448,1162.9263 L1068.7718,1162.9263 L1068.7718,1166.1719 L1074.0428,1166.1719 Z " fill="#000000"/><text fill="#000000" font-family="sans-serif" font-size="14" lengthAdjust="spacing" textLength="61.8037" x="1089.6678" y="1167.1211">Direction</text><line style="stroke:#181818;stroke-width:0.5;" x1="1032.8519" x2="1177.0482" y1="1177.8301" y2="1177.8301"/><text fill="#000000" font-family="sans-serif" font-size="14" lengthAdjust="spacing" textLength="75.749" x="1037.8519" y="1195.3652">FORWARDS</text><text fill="#000000" font-family="sans-serif" font-size="14" lengthAdjust="spacing" textLength="85.0527" x="1037.8519" y="1211.8535">BACKWARDS</text><text fill="#000000" font-family="sans-serif" font-size="14" lengthAdjust="spacing" textLength="31.4111" x="1037.8519" y="1228.3418">LEFT</text><text fill="#000000" font-family="sans-serif" font-size="14" lengthAdjust="spacing" textLength="42.1436" x="1037.8519" y="1244.8301">RIGHT</text><text fill="#000000" font-family="sans-serif" font-size="14" lengthAdjust="spacing" textLength="114.1602" x="1037.8519" y="1261.3184">FORWARDS_LEFT</text><text fill="#000000" font-family="sans-serif" font-size="14" lengthAdjust="spacing" textLength="124.8926" x="1037.8519" y="1277.8066">FORWARDS_RIGHT</text><text fill="#000000" font-family="sans-serif" font-size="14" lengthAdjust="spacing" textLength="123.4639" x="1037.8519" y="1294.2949">BACKWARDS_LEFT</text><text fill="#000000" font-family="sans-serif" font-size="14" lengthAdjust="spacing" textLength="134.1963" x="1037.8519" y="1310.7832">BACKWARDS_RIGHT</text></g><!--class Moves--><g id="elem_Moves"><rect codeLine="96" fill="#FDF5E6" height="32" id="Moves" style="stroke:#181818;stroke-width:0.5;" width="74.8408" x="251.1532" y="12"/><ellipse cx="266.1532" cy="28" fill="#ADD1B2" rx="11" ry="11" style="stroke:#181818;stroke-width:1;"/><path d="M268.6264,34.1431 Q268.0453,34.4419 267.4062,34.5913 Q266.767,34.7407 266.0614,34.7407 Q263.5546,34.7407 262.2348,33.0889 Q260.915,31.437 260.915,28.3159 Q260.915,25.1865 262.2348,23.5347 Q263.5546,21.8828 266.0614,21.8828 Q266.767,21.8828 267.4145,22.0322 Q268.0619,22.1816 268.6264,22.4805 L268.6264,25.2031 Q267.9955,24.6221 267.402,24.3523 Q266.8085,24.0825 266.1776,24.0825 Q264.8329,24.0825 264.1481,25.1492 Q263.4633,26.2158 263.4633,28.3159 Q263.4633,30.4077 264.1481,31.4744 Q264.8329,32.541 266.1776,32.541 Q266.8085,32.541 267.402,32.2712 Q267.9955,32.0015 268.6264,31.4204 Z " fill="#000000"/><text fill="#000000" font-family="sans-serif" font-size="14" lengthAdjust="spacing" textLength="42.8408" x="280.1532" y="33.291">Moves</text></g><!--class ChessMove--><g id="elem_ChessMove"><rect codeLine="98" fill="#FDF5E6" height="32" id="ChessMove" style="stroke:#181818;stroke-width:0.5;" width="108.1523" x="222.024" y="137.9316"/><ellipse cx="237.024" cy="153.9316" fill="#A9DCDF" rx="11" ry="11" style="stroke:#181818;stroke-width:1;"/><path d="M236.8873,149.2798 L235.7335,154.3516 L238.0494,154.3516 Z M235.3931,147.0386 L238.3897,147.0386 L241.7349,159.4316 L239.2862,159.4316 L238.5225,156.3687 L235.2437,156.3687 L234.4967,159.4316 L232.0479,159.4316 Z " fill="#000000"/><text fill="#000000" font-family="sans-serif" font-size="14" font-style="italic" lengthAdjust="spacing" textLength="76.1523" x="251.024" y="159.2227">ChessMove</text></g><!--class StandardMove--><g id="elem_StandardMove"><rect codeLine="100" fill="#FDF5E6" height="32" id="StandardMove" style="stroke:#181818;stroke-width:0.5;" width="127.9834" x="415.149" y="243.0124"/><ellipse cx="430.149" cy="259.0124" fill="#ADD1B2" rx="11" ry="11" style="stroke:#181818;stroke-width:1;"/><path d="M432.6221,265.1554 Q432.0411,265.4543 431.4019,265.6037 Q430.7628,265.7531 430.0572,265.7531 Q427.5504,265.7531 426.2305,264.1012 Q424.9107,262.4494 424.9107,259.3283 Q424.9107,256.1989 426.2305,254.547 Q427.5504,252.8952 430.0572,252.8952 Q430.7628,252.8952 431.4102,253.0446 Q432.0577,253.194 432.6221,253.4928 L432.6221,256.2155 Q431.9913,255.6344 431.3978,255.3647 Q430.8043,255.0949 430.1734,255.0949 Q428.8287,255.0949 428.1439,256.1615 Q427.4591,257.2282 427.4591,259.3283 Q427.4591,261.4201 428.1439,262.4867 Q428.8287,263.5534 430.1734,263.5534 Q430.8043,263.5534 431.3978,263.2836 Q431.9913,263.0138 432.6221,262.4328 Z " fill="#000000"/><text fill="#000000" font-family="sans-serif" font-size="14" lengthAdjust="spacing" textLength="95.9834" x="444.149" y="264.3034">StandardMove</text></g><!--class Capture--><g id="elem_Capture"><rect codeLine="101" fill="#FDF5E6" height="32" id="Capture" style="stroke:#181818;stroke-width:0.5;" width="85.6826" x="75.6383" y="245.8975"/><ellipse cx="90.6383" cy="261.8975" fill="#ADD1B2" rx="11" ry="11" style="stroke:#181818;stroke-width:1;"/><path d="M93.1114,268.0405 Q92.5303,268.3394 91.8912,268.4888 Q91.252,268.6382 90.5465,268.6382 Q88.0396,268.6382 86.7198,266.9863 Q85.4,265.3345 85.4,262.2134 Q85.4,259.084 86.7198,257.4321 Q88.0396,255.7803 90.5465,255.7803 Q91.252,255.7803 91.8995,255.9297 Q92.5469,256.0791 93.1114,256.3779 L93.1114,259.1006 Q92.4805,258.5195 91.887,258.2498 Q91.2935,257.98 90.6627,257.98 Q89.3179,257.98 88.6331,259.0466 Q87.9483,260.1133 87.9483,262.2134 Q87.9483,264.3052 88.6331,265.3718 Q89.3179,266.4385 90.6627,266.4385 Q91.2935,266.4385 91.887,266.1687 Q92.4805,265.8989 93.1114,265.3179 Z " fill="#000000"/><text fill="#000000" font-family="sans-serif" font-size="14" lengthAdjust="spacing" textLength="53.6826" x="104.6383" y="267.1885">Capture</text></g><!--class EnPassant--><g id="elem_EnPassant"><rect codeLine="102" fill="#FDF5E6" height="32" id="EnPassant" style="stroke:#181818;stroke-width:0.5;" width="99.6758" x="407.9722" y="373.1738"/><ellipse cx="422.9722" cy="389.1738" fill="#ADD1B2" rx="11" ry="11" style="stroke:#181818;stroke-width:1;"/><path d="M425.4454,395.3169 Q424.8643,395.6157 424.2252,395.7651 Q423.586,395.9146 422.8804,395.9146 Q420.3736,395.9146 419.0538,394.2627 Q417.734,392.6108 417.734,389.4897 Q417.734,386.3604 419.0538,384.7085 Q420.3736,383.0566 422.8804,383.0566 Q423.586,383.0566 424.2335,383.2061 Q424.8809,383.3555 425.4454,383.6543 L425.4454,386.377 Q424.8145,385.7959 424.221,385.5261 Q423.6275,385.2563 422.9967,385.2563 Q421.6519,385.2563 420.9671,386.323 Q420.2823,387.3896 420.2823,389.4897 Q420.2823,391.5815 420.9671,392.6482 Q421.6519,393.7148 422.9967,393.7148 Q423.6275,393.7148 424.221,393.4451 Q424.8145,393.1753 425.4454,392.5942 Z " fill="#000000"/><text fill="#000000" font-family="sans-serif" font-size="14" lengthAdjust="spacing" textLength="67.6758" x="436.9722" y="394.4648">EnPassant</text></g><!--class Castling--><g id="elem_Castling"><rect codeLine="103" fill="#FDF5E6" height="32" id="Castling" style="stroke:#181818;stroke-width:0.5;" width="87.3027" x="232.4488" y="237.2422"/><ellipse cx="247.4488" cy="253.2422" fill="#ADD1B2" rx="11" ry="11" style="stroke:#181818;stroke-width:1;"/><path d="M249.9219,259.3853 Q249.3409,259.6841 248.7017,259.8335 Q248.0626,259.9829 247.357,259.9829 Q244.8502,259.9829 243.5303,258.3311 Q242.2105,256.6792 242.2105,253.5581 Q242.2105,250.4287 243.5303,248.7769 Q244.8502,247.125 247.357,247.125 Q248.0626,247.125 248.71,247.2744 Q249.3575,247.4238 249.9219,247.7227 L249.9219,250.4453 Q249.2911,249.8643 248.6976,249.5945 Q248.1041,249.3247 247.4732,249.3247 Q246.1285,249.3247 245.4437,250.3914 Q244.7589,251.458 244.7589,253.5581 Q244.7589,255.6499 245.4437,256.7166 Q246.1285,257.7832 247.4732,257.7832 Q248.1041,257.7832 248.6976,257.5134 Q249.2911,257.2437 249.9219,256.6626 Z " fill="#000000"/><text fill="#000000" font-family="sans-serif" font-size="14" lengthAdjust="spacing" textLength="55.3027" x="261.4488" y="258.5332">Castling</text></g><!--class Promotion--><g id="elem_Promotion"><rect codeLine="104" fill="#FDF5E6" height="32" id="Promotion" style="stroke:#181818;stroke-width:0.5;" width="102.3076" x="527.648" y="373.1738"/><ellipse cx="542.648" cy="389.1738" fill="#ADD1B2" rx="11" ry="11" style="stroke:#181818;stroke-width:1;"/><path d="M545.1212,395.3169 Q544.5401,395.6157 543.901,395.7651 Q543.2618,395.9146 542.5562,395.9146 Q540.0494,395.9146 538.7296,394.2627 Q537.4097,392.6108 537.4097,389.4897 Q537.4097,386.3604 538.7296,384.7085 Q540.0494,383.0566 542.5562,383.0566 Q543.2618,383.0566 543.9093,383.2061 Q544.5567,383.3555 545.1212,383.6543 L545.1212,386.377 Q544.4903,385.7959 543.8968,385.5261 Q543.3033,385.2563 542.6724,385.2563 Q541.3277,385.2563 540.6429,386.323 Q539.9581,387.3896 539.9581,389.4897 Q539.9581,391.5815 540.6429,392.6482 Q541.3277,393.7148 542.6724,393.7148 Q543.3033,393.7148 543.8968,393.4451 Q544.4903,393.1753 545.1212,392.5942 Z " fill="#000000"/><text fill="#000000" font-family="sans-serif" font-size="14" lengthAdjust="spacing" textLength="70.3076" x="556.648" y="394.4648">Promotion</text></g><!--class PromotionWithCapture--><g id="elem_PromotionWithCapture"><rect codeLine="105" fill="#FDF5E6" height="32" id="PromotionWithCapture" style="stroke:#181818;stroke-width:0.5;" width="185.9385" x="25.5103" y="373.1738"/><ellipse cx="40.5103" cy="389.1738" fill="#ADD1B2" rx="11" ry="11" style="stroke:#181818;stroke-width:1;"/><path d="M42.9835,395.3169 Q42.4024,395.6157 41.7633,395.7651 Q41.1241,395.9146 40.4185,395.9146 Q37.9117,395.9146 36.5919,394.2627 Q35.272,392.6108 35.272,389.4897 Q35.272,386.3604 36.5919,384.7085 Q37.9117,383.0566 40.4185,383.0566 Q41.1241,383.0566 41.7716,383.2061 Q42.419,383.3555 42.9835,383.6543 L42.9835,386.377 Q42.3526,385.7959 41.7591,385.5261 Q41.1656,385.2563 40.5347,385.2563 Q39.19,385.2563 38.5052,386.323 Q37.8204,387.3896 37.8204,389.4897 Q37.8204,391.5815 38.5052,392.6482 Q39.19,393.7148 40.5347,393.7148 Q41.1656,393.7148 41.7591,393.4451 Q42.3526,393.1753 42.9835,392.5942 Z " fill="#000000"/><text fill="#000000" font-family="sans-serif" font-size="14" lengthAdjust="spacing" textLength="153.9385" x="54.5103" y="394.4648">PromotionWithCapture</text></g><line style="stroke:#181818;stroke-width:1;stroke-dasharray:7.0,7.0;" x1="1002.3204" x2="1002.3204" y1="169.9316" y2="237.2422"/><polygon fill="#FFFFFF" points="1002.3204,169.9316,995.3204,188.9316,1009.3204,188.9316,1002.3204,169.9316" style="stroke:#181818;stroke-width:1;"/><line style="stroke:#181818;stroke-width:1;stroke-dasharray:7.0,7.0;" x1="851.7462" x2="851.7462" y1="269.2422" y2="335.8633"/><line style="stroke:#181818;stroke-width:1;stroke-dasharray:7.0,7.0;" x1="851.7462" x2="810.648" y1="335.8633" y2="335.8633"/><line style="stroke:#181818;stroke-width:1;stroke-dasharray:7.0,7.0;" x1="810.648" x2="810.648" y1="335.8633" y2="373.1738"/><polygon fill="#FFFFFF" points="851.7462,269.2422,844.7462,288.2422,858.7462,288.2422,851.7462,269.2422" style="stroke:#181818;stroke-width:1;"/><line style="stroke:#181818;stroke-width:1;stroke-dasharray:7.0,7.0;" x1="727.0963" x2="727.0963" y1="269.2422" y2="296.5527"/><line style="stroke:#181818;stroke-width:1;stroke-dasharray:7.0,7.0;" x1="727.0963" x2="782.805" y1="296.5527" y2="296.5527"/><line style="stroke:#181818;stroke-width:1;stroke-dasharray:7.0,7.0;" x1="782.805" x2="782.805" y1="296.5527" y2="373.1738"/><polygon fill="#FFFFFF" points="727.0963,269.2422,720.0963,288.2422,734.0963,288.2422,727.0963,269.2422" style="stroke:#181818;stroke-width:1;"/><line style="stroke:#181818;stroke-width:1;stroke-dasharray:7.0,7.0;" x1="694.026" x2="694.026" y1="269.2422" y2="559.1055"/><polygon fill="#FFFFFF" points="694.026,269.2422,687.026,288.2422,701.026,288.2422,694.026,269.2422" style="stroke:#181818;stroke-width:1;"/><line style="stroke:#181818;stroke-width:1;" x1="673.6443" x2="673.6443" y1="591.1055" y2="618.416"/><line style="stroke:#181818;stroke-width:1;" x1="673.6443" x2="196.4265" y1="618.416" y2="618.416"/><line style="stroke:#181818;stroke-width:1;" x1="196.4265" x2="196.4265" y1="618.416" y2="770.5534"/><polygon fill="#FFFFFF" points="673.6443,591.1055,666.6443,610.1055,680.6443,610.1055,673.6443,591.1055" style="stroke:#181818;stroke-width:1;"/><line style="stroke:#181818;stroke-width:1;stroke-dasharray:7.0,7.0;" x1="134.9711" x2="134.9711" y1="591.1055" y2="770.5534"/><polygon fill="#FFFFFF" points="134.9711,591.1055,127.9711,610.1055,141.9711,610.1055,134.9711,591.1055" style="stroke:#181818;stroke-width:1;"/><line style="stroke:#181818;stroke-width:1;" x1="719.5031" x2="719.5031" y1="591.1055" y2="638.416"/><line style="stroke:#181818;stroke-width:1;" x1="719.5031" x2="807.3564" y1="638.416" y2="638.416"/><line style="stroke:#181818;stroke-width:1;" x1="807.3564" x2="807.3564" y1="638.416" y2="705.0371"/><polygon fill="#FFFFFF" points="719.5031,591.1055,712.5031,610.1055,726.5031,610.1055,719.5031,591.1055" style="stroke:#181818;stroke-width:1;"/><line style="stroke:#181818;stroke-width:1;" x1="184.1354" x2="184.1354" y1="802.5534" y2="863.9668"/><line style="stroke:#181818;stroke-width:1;" x1="184.1354" x2="238.3057" y1="863.9668" y2="863.9668"/><line style="stroke:#181818;stroke-width:1;" x1="238.3057" x2="238.3057" y1="863.9668" y2="893.9668"/><polygon fill="#FFFFFF" points="184.1354,802.5534,177.1354,821.5534,191.1354,821.5534,184.1354,802.5534" style="stroke:#181818;stroke-width:1;"/><line style="stroke:#181818;stroke-width:1;" x1="221.0087" x2="221.0087" y1="802.5534" y2="853.9668"/><line style="stroke:#181818;stroke-width:1;" x1="221.0087" x2="329.6875" y1="853.9668" y2="853.9668"/><line style="stroke:#181818;stroke-width:1;" x1="329.6875" x2="329.6875" y1="853.9668" y2="893.9668"/><polygon fill="#FFFFFF" points="221.0087,802.5534,214.0087,821.5534,228.0087,821.5534,221.0087,802.5534" style="stroke:#181818;stroke-width:1;"/><line style="stroke:#181818;stroke-width:1;" x1="110.389" x2="110.389" y1="802.5534" y2="853.9668"/><line style="stroke:#181818;stroke-width:1;" x1="110.389" x2="50.668" y1="853.9668" y2="853.9668"/><line style="stroke:#181818;stroke-width:1;" x1="50.668" x2="50.668" y1="853.9668" y2="893.9668"/><polygon fill="#FFFFFF" points="110.389,802.5534,103.389,821.5534,117.389,821.5534,110.389,802.5534" style="stroke:#181818;stroke-width:1;"/><line style="stroke:#181818;stroke-width:1;" x1="147.2622" x2="147.2622" y1="802.5534" y2="893.9668"/><polygon fill="#FFFFFF" points="147.2622,802.5534,140.2622,821.5534,154.2622,821.5534,147.2622,802.5534" style="stroke:#181818;stroke-width:1;"/><line style="stroke:#181818;stroke-width:1;" x1="688.9305" x2="688.9305" y1="591.1055" y2="628.416"/><line style="stroke:#181818;stroke-width:1;" x1="688.9305" x2="603.2476" y1="628.416" y2="628.416"/><line style="stroke:#181818;stroke-width:1;" x1="603.2476" x2="603.2476" y1="628.416" y2="705.0371"/><polygon fill="#FFFFFF" points="688.9305,591.1055,681.9305,610.1055,695.9305,610.1055,688.9305,591.1055" style="stroke:#181818;stroke-width:1;"/><line style="stroke:#181818;stroke-width:1;stroke-dasharray:7.0,7.0;" x1="962.1794" x2="962.1794" y1="812.9067" y2="853.9668"/><line style="stroke:#181818;stroke-width:1;stroke-dasharray:7.0,7.0;" x1="962.1794" x2="1133.7853" y1="853.9668" y2="853.9668"/><line style="stroke:#181818;stroke-width:1;stroke-dasharray:7.0,7.0;" x1="1133.7853" x2="1133.7853" y1="853.9668" y2="1019.8984"/><polygon fill="#FFFFFF" points="962.1794,812.9067,955.1794,831.9067,969.1794,831.9067,962.1794,812.9067" style="stroke:#181818;stroke-width:1;"/><line style="stroke:#181818;stroke-width:1;stroke-dasharray:7.0,7.0;" x1="894.6126" x2="894.6126" y1="812.9067" y2="853.9668"/><line style="stroke:#181818;stroke-width:1;stroke-dasharray:7.0,7.0;" x1="894.6126" x2="757.5532" y1="853.9668" y2="853.9668"/><line style="stroke:#181818;stroke-width:1;stroke-dasharray:7.0,7.0;" x1="757.5532" x2="757.5532" y1="853.9668" y2="893.9668"/><polygon fill="#FFFFFF" points="894.6126,812.9067,887.6126,831.9067,901.6126,831.9067,894.6126,812.9067" style="stroke:#181818;stroke-width:1;"/><line style="stroke:#181818;stroke-width:1;stroke-dasharray:7.0,7.0;" x1="928.396" x2="928.396" y1="812.9067" y2="893.9668"/><polygon fill="#FFFFFF" points="928.396,812.9067,921.396,831.9067,935.396,831.9067,928.396,812.9067" style="stroke:#181818;stroke-width:1;"/><line style="stroke:#181818;stroke-width:1;" x1="902.1082" x2="902.1082" y1="925.9668" y2="1019.8984"/><polygon fill="#FFFFFF" points="902.1082,925.9668,895.1082,944.9668,909.1082,944.9668,902.1082,925.9668" style="stroke:#181818;stroke-width:1;"/><line style="stroke:#181818;stroke-width:1;" x1="312.151" x2="312.151" y1="169.9316" y2="197.2422"/><line style="stroke:#181818;stroke-width:1;" x1="312.151" x2="479.1407" y1="197.2422" y2="197.2422"/><line style="stroke:#181818;stroke-width:1;" x1="479.1407" x2="479.1407" y1="197.2422" y2="243.0124"/><polygon fill="#FFFFFF" points="312.151,169.9316,305.151,188.9316,319.151,188.9316,312.151,169.9316" style="stroke:#181818;stroke-width:1;"/><line style="stroke:#181818;stroke-width:1;" x1="240.0494" x2="240.0494" y1="169.9316" y2="197.2422"/><line style="stroke:#181818;stroke-width:1;" x1="240.0494" x2="118.4796" y1="197.2422" y2="197.2422"/><line style="stroke:#181818;stroke-width:1;" x1="118.4796" x2="118.4796" y1="197.2422" y2="245.8975"/><polygon fill="#FFFFFF" points="240.0494,169.9316,233.0494,188.9316,247.0494,188.9316,240.0494,169.9316" style="stroke:#181818;stroke-width:1;"/><line style="stroke:#181818;stroke-width:1;" x1="457.8101" x2="457.8101" y1="275.0124" y2="373.1738"/><polygon fill="#FFFFFF" points="457.8101,275.0124,450.8101,294.0124,464.8101,294.0124,457.8101,275.0124" style="stroke:#181818;stroke-width:1;"/><line style="stroke:#181818;stroke-width:1;" x1="276.1002" x2="276.1002" y1="169.9316" y2="237.2422"/><polygon fill="#FFFFFF" points="276.1002,169.9316,269.1002,188.9316,283.1002,188.9316,276.1002,169.9316" style="stroke:#181818;stroke-width:1;"/><line style="stroke:#181818;stroke-width:1;" x1="500.4713" x2="500.4713" y1="275.0124" y2="296.5527"/><line style="stroke:#181818;stroke-width:1;" x1="500.4713" x2="578.8018" y1="296.5527" y2="296.5527"/><line style="stroke:#181818;stroke-width:1;" x1="578.8018" x2="578.8018" y1="296.5527" y2="373.1738"/><polygon fill="#FFFFFF" points="500.4713,275.0124,493.4713,294.0124,507.4713,294.0124,500.4713,275.0124" style="stroke:#181818;stroke-width:1;"/><line style="stroke:#181818;stroke-width:1;" x1="118.4796" x2="118.4796" y1="277.8975" y2="373.1738"/><polygon fill="#FFFFFF" points="118.4796,277.8975,111.4796,296.8975,125.4796,296.8975,118.4796,277.8975" style="stroke:#181818;stroke-width:1;"/><line style="stroke:#181818;stroke-width:1;" x1="1049.1902" x2="1049.1902" y1="169.9316" y2="197.2422"/><line style="stroke:#181818;stroke-width:1;" x1="1049.1902" x2="1272.6201" y1="197.2422" y2="197.2422"/><line style="stroke:#181818;stroke-width:1;" x1="1272.6201" x2="1272.6201" y1="197.2422" y2="481.7949"/><line style="stroke:#181818;stroke-width:1;" x1="1272.6201" x2="1160.9634" y1="481.7949" y2="481.7949"/><line style="stroke:#181818;stroke-width:1;" x1="1160.9634" x2="1160.9634" y1="481.7949" y2="574.416"/><polygon fill="#181818" points="1160.9634,574.416,1164.9634,565.416,1160.9634,569.416,1156.9634,565.416,1160.9634,574.416" style="stroke:#181818;stroke-width:1;"/><text fill="#000000" font-family="sans-serif" font-size="13" lengthAdjust="spacing" textLength="49.9116" x="1218.7085" y="321.1211">manage</text><text fill="#000000" font-family="sans-serif" font-size="13" lengthAdjust="spacing" textLength="8.2202" x="1052.1902" y="184.5">1</text><text fill="#000000" font-family="sans-serif" font-size="13" lengthAdjust="spacing" textLength="8.2202" x="1163.9634" y="569.6738">1</text><line style="stroke:#181818;stroke-width:1;" x1="972.8231" x2="972.8231" y1="269.2422" y2="296.5527"/><line style="stroke:#181818;stroke-width:1;" x1="972.8231" x2="890.6202" y1="296.5527" y2="296.5527"/><line style="stroke:#181818;stroke-width:1;" x1="890.6202" x2="890.6202" y1="296.5527" y2="345.8633"/><line style="stroke:#181818;stroke-width:1;" x1="890.6202" x2="838.491" y1="345.8633" y2="345.8633"/><line style="stroke:#181818;stroke-width:1;" x1="838.491" x2="838.491" y1="345.8633" y2="373.1738"/><polygon fill="#181818" points="838.491,373.1738,842.491,364.1738,838.491,368.1738,834.491,364.1738,838.491,373.1738" style="stroke:#181818;stroke-width:1;"/><text fill="#000000" font-family="sans-serif" font-size="13" lengthAdjust="spacing" textLength="21.874" x="864.7462" y="321.1211">has</text><text fill="#000000" font-family="sans-serif" font-size="13" lengthAdjust="spacing" textLength="8.2202" x="975.8231" y="283.8105">1</text><text fill="#000000" font-family="sans-serif" font-size="13" lengthAdjust="spacing" textLength="8.2202" x="841.491" y="368.4316">1</text><line style="stroke:#181818;stroke-width:1;" x1="1031.8177" x2="1031.8177" y1="269.2422" y2="296.5527"/><line style="stroke:#181818;stroke-width:1;" x1="1031.8177" x2="1205.7085" y1="296.5527" y2="296.5527"/><line style="stroke:#181818;stroke-width:1;" x1="1205.7085" x2="1205.7085" y1="296.5527" y2="677.7266"/><line style="stroke:#181818;stroke-width:1;" x1="1205.7085" x2="1097.7283" y1="677.7266" y2="677.7266"/><line style="stroke:#181818;stroke-width:1;" x1="1097.7283" x2="1097.7283" y1="677.7266" y2="705.0371"/><polygon fill="#181818" points="1097.7283,705.0371,1101.7283,696.0371,1097.7283,700.0371,1093.7283,696.0371,1097.7283,705.0371" style="stroke:#181818;stroke-width:1;"/><text fill="#000000" font-family="sans-serif" font-size="13" lengthAdjust="spacing" textLength="21.874" x="1179.8345" y="467.0527">has</text><text fill="#000000" font-family="sans-serif" font-size="13" lengthAdjust="spacing" textLength="8.2202" x="1034.8177" y="283.8105">1</text><text fill="#000000" font-family="sans-serif" font-size="13" lengthAdjust="spacing" textLength="8.2202" x="1100.7283" y="700.2949">1</text><line style="stroke:#181818;stroke-width:1;" x1="1002.3204" x2="1002.3204" y1="269.2422" y2="373.1738"/><polygon fill="#181818" points="1002.3204,373.1738,1006.3204,364.1738,1002.3204,368.1738,998.3204,364.1738,1002.3204,373.1738" style="stroke:#181818;stroke-width:1;"/><text fill="#000000" font-family="sans-serif" font-size="13" lengthAdjust="spacing" textLength="88.1118" x="910.2086" y="321.1211">uses statically</text><line style="stroke:#181818;stroke-width:1;" x1="847.772" x2="847.772" y1="405.1738" y2="432.4844"/><line style="stroke:#181818;stroke-width:1;" x1="847.772" x2="1126.2183" y1="432.4844" y2="432.4844"/><line style="stroke:#181818;stroke-width:1;" x1="1126.2183" x2="1126.2183" y1="432.4844" y2="574.416"/><polygon fill="#181818" points="1126.2183,574.416,1130.2183,565.416,1126.2183,569.416,1122.2183,565.416,1126.2183,574.416" style="stroke:#181818;stroke-width:1;"/><text fill="#000000" font-family="sans-serif" font-size="13" lengthAdjust="spacing" textLength="21.874" x="1100.3442" y="467.0527">has</text><text fill="#000000" font-family="sans-serif" font-size="13" lengthAdjust="spacing" textLength="8.2202" x="850.772" y="419.7422">1</text><text fill="#000000" font-family="sans-serif" font-size="13" lengthAdjust="spacing" textLength="8.2202" x="1129.2183" y="569.6738">1</text><line style="stroke:#181818;stroke-width:1;" x1="810.648" x2="810.648" y1="405.1738" y2="531.7949"/><line style="stroke:#181818;stroke-width:1;" x1="810.648" x2="729.6939" y1="531.7949" y2="531.7949"/><line style="stroke:#181818;stroke-width:1;" x1="729.6939" x2="729.6939" y1="531.7949" y2="559.1055"/><polygon fill="#181818" points="729.6939,559.1055,733.6939,550.1055,729.6939,554.1055,725.6939,550.1055,729.6939,559.1055" style="stroke:#181818;stroke-width:1;"/><text fill="#000000" font-family="sans-serif" font-size="13" lengthAdjust="spacing" textLength="21.874" x="784.774" y="467.0527">has</text><text fill="#000000" font-family="sans-serif" font-size="13" lengthAdjust="spacing" textLength="8.2202" x="813.648" y="419.7422">1</text><text fill="#000000" font-family="sans-serif" font-size="13" lengthAdjust="spacing" textLength="32.8872" x="732.6939" y="554.3633">2..32</text><line style="stroke:#181818;stroke-width:1;" x1="773.524" x2="773.524" y1="405.1738" y2="432.4844"/><line style="stroke:#181818;stroke-width:1;" x1="773.524" x2="732.9" y1="432.4844" y2="432.4844"/><line style="stroke:#181818;stroke-width:1;" x1="732.9" x2="732.9" y1="432.4844" y2="511.7949"/><line style="stroke:#181818;stroke-width:1;" x1="732.9" x2="270.6447" y1="511.7949" y2="511.7949"/><line style="stroke:#181818;stroke-width:1;" x1="270.6447" x2="270.6447" y1="511.7949" y2="574.416"/><polygon fill="#181818" points="270.6447,574.416,274.6447,565.416,270.6447,569.416,266.6447,565.416,270.6447,574.416" style="stroke:#181818;stroke-width:1;"/><text fill="#000000" font-family="sans-serif" font-size="13" lengthAdjust="spacing" textLength="21.874" x="707.026" y="467.0527">has</text><text fill="#000000" font-family="sans-serif" font-size="13" lengthAdjust="spacing" textLength="8.2202" x="776.524" y="419.7422">1</text><text fill="#000000" font-family="sans-serif" font-size="13" lengthAdjust="spacing" textLength="32.8872" x="273.6447" y="569.6738">2..32</text><line style="stroke:#181818;stroke-width:1;" x1="829.21" x2="829.21" y1="405.1738" y2="442.4844"/><line style="stroke:#181818;stroke-width:1;" x1="829.21" x2="1070.4731" y1="442.4844" y2="442.4844"/><line style="stroke:#181818;stroke-width:1;" x1="1070.4731" x2="1070.4731" y1="442.4844" y2="705.0371"/><polygon fill="#181818" points="1070.4731,705.0371,1074.4731,696.0371,1070.4731,700.0371,1066.4731,696.0371,1070.4731,705.0371" style="stroke:#181818;stroke-width:1;"/><text fill="#000000" font-family="sans-serif" font-size="13" lengthAdjust="spacing" textLength="21.874" x="1044.5991" y="580.0186">has</text><text fill="#000000" font-family="sans-serif" font-size="13" lengthAdjust="spacing" textLength="8.2202" x="832.21" y="419.7422">1</text><text fill="#000000" font-family="sans-serif" font-size="13" lengthAdjust="spacing" textLength="8.2202" x="1073.4731" y="700.2949">2</text><line style="stroke:#181818;stroke-width:1;" x1="792.086" x2="792.086" y1="405.1738" y2="442.4844"/><line style="stroke:#181818;stroke-width:1;" x1="792.086" x2="743.9" y1="442.4844" y2="442.4844"/><line style="stroke:#181818;stroke-width:1;" x1="743.9" x2="743.9" y1="442.4844" y2="521.7949"/><line style="stroke:#181818;stroke-width:1;" x1="743.9" x2="282.9436" y1="521.7949" y2="521.7949"/><line style="stroke:#181818;stroke-width:1;" x1="282.9436" x2="282.9436" y1="521.7949" y2="574.416"/><polygon fill="#181818" points="282.9436,574.416,286.9436,565.416,282.9436,569.416,278.9436,565.416,282.9436,574.416" style="stroke:#181818;stroke-width:1;"/><text fill="#000000" font-family="sans-serif" font-size="13" lengthAdjust="spacing" textLength="21.874" x="748.9" y="467.0527">has</text><text fill="#000000" font-family="sans-serif" font-size="13" lengthAdjust="spacing" textLength="8.2202" x="795.086" y="419.7422">1</text><text fill="#000000" font-family="sans-serif" font-size="13" lengthAdjust="spacing" textLength="8.2202" x="285.9436" y="554.3633">2</text><line style="stroke:#181818;stroke-width:1;" x1="704.2168" x2="704.2168" y1="591.1055" y2="705.0371"/><polygon fill="#181818" points="704.2168,705.0371,708.2168,696.0371,704.2168,700.0371,700.2168,696.0371,704.2168,705.0371" style="stroke:#181818;stroke-width:1;"/><text fill="#000000" font-family="sans-serif" font-size="13" lengthAdjust="spacing" textLength="21.874" x="678.3428" y="662.9844">has</text><text fill="#000000" font-family="sans-serif" font-size="13" lengthAdjust="spacing" textLength="8.2202" x="707.2168" y="605.6738">1</text><text fill="#000000" font-family="sans-serif" font-size="13" lengthAdjust="spacing" textLength="8.2202" x="707.2168" y="700.2949">1</text><line style="stroke:#181818;stroke-width:1;" x1="750.0756" x2="750.0756" y1="591.1055" y2="618.416"/><line style="stroke:#181818;stroke-width:1;" x1="750.0756" x2="1043.218" y1="618.416" y2="618.416"/><line style="stroke:#181818;stroke-width:1;" x1="1043.218" x2="1043.218" y1="618.416" y2="705.0371"/><polygon fill="#181818" points="1043.218,705.0371,1047.218,696.0371,1043.218,700.0371,1039.218,696.0371,1043.218,705.0371" style="stroke:#181818;stroke-width:1;"/><text fill="#000000" font-family="sans-serif" font-size="13" lengthAdjust="spacing" textLength="21.874" x="1017.344" y="662.9844">has</text><text fill="#000000" font-family="sans-serif" font-size="13" lengthAdjust="spacing" textLength="8.2202" x="753.0756" y="605.6738">1</text><text fill="#000000" font-family="sans-serif" font-size="13" lengthAdjust="spacing" textLength="8.2202" x="1046.218" y="700.2949">1</text><line style="stroke:#181818;stroke-width:1;" x1="734.7893" x2="734.7893" y1="591.1055" y2="628.416"/><line style="stroke:#181818;stroke-width:1;" x1="734.7893" x2="928.396" y1="628.416" y2="628.416"/><line style="stroke:#181818;stroke-width:1;" x1="928.396" x2="928.396" y1="628.416" y2="780.9067"/><polygon fill="#181818" points="928.396,780.9067,932.396,771.9067,928.396,775.9067,924.396,771.9067,928.396,780.9067" style="stroke:#181818;stroke-width:1;"/><text fill="#000000" font-family="sans-serif" font-size="13" lengthAdjust="spacing" textLength="21.874" x="902.522" y="662.9844">has</text><text fill="#000000" font-family="sans-serif" font-size="13" lengthAdjust="spacing" textLength="8.2202" x="737.7893" y="605.6738">1</text><text fill="#000000" font-family="sans-serif" font-size="13" lengthAdjust="spacing" textLength="22.7119" x="931.396" y="776.1646">1..*</text><line style="stroke:#181818;stroke-width:1;" x1="1104.95" x2="1104.95" y1="1051.8984" y2="1145.8301"/><polygon fill="#181818" points="1104.95,1145.8301,1108.95,1136.8301,1104.95,1140.8301,1100.95,1136.8301,1104.95,1145.8301" style="stroke:#181818;stroke-width:1;"/><text fill="#000000" font-family="sans-serif" font-size="13" lengthAdjust="spacing" textLength="21.874" x="1079.076" y="1103.7773">has</text><text fill="#000000" font-family="sans-serif" font-size="13" lengthAdjust="spacing" textLength="6.2651" x="1107.95" y="1066.4668">*</text><text fill="#000000" font-family="sans-serif" font-size="13" lengthAdjust="spacing" textLength="22.7119" x="1107.95" y="1141.0879">1..*</text><line style="stroke:#181818;stroke-width:1;" x1="954.6838" x2="954.6838" y1="925.9668" y2="953.2773"/><line style="stroke:#181818;stroke-width:1;" x1="954.6838" x2="1076.1148" y1="953.2773" y2="953.2773"/><line style="stroke:#181818;stroke-width:1;" x1="1076.1148" x2="1076.1148" y1="953.2773" y2="1019.8984"/><polygon fill="#181818" points="1076.1148,1019.8984,1080.1148,1010.8984,1076.1148,1014.8984,1072.1148,1010.8984,1076.1148,1019.8984" style="stroke:#181818;stroke-width:1;"/><text fill="#000000" font-family="sans-serif" font-size="13" lengthAdjust="spacing" textLength="21.874" x="1050.2407" y="977.8457">has</text><text fill="#000000" font-family="sans-serif" font-size="13" lengthAdjust="spacing" textLength="8.2202" x="957.6838" y="940.5352">1</text><text fill="#000000" font-family="sans-serif" font-size="13" lengthAdjust="spacing" textLength="22.7119" x="1079.1148" y="1015.1563">1..*</text><line style="stroke:#181818;stroke-width:1;" x1="258.0748" x2="258.0748" y1="169.9316" y2="207.2422"/><line style="stroke:#181818;stroke-width:1;" x1="258.0748" x2="221.4488" y1="207.2422" y2="207.2422"/><line style="stroke:#181818;stroke-width:1;" x1="221.4488" x2="221.4488" y1="207.2422" y2="574.416"/><polygon fill="#181818" points="221.4488,574.416,225.4488,565.416,221.4488,569.416,217.4488,565.416,221.4488,574.416" style="stroke:#181818;stroke-width:1;"/><text fill="#000000" font-family="sans-serif" font-size="13" lengthAdjust="spacing" textLength="56.2085" x="161.2403" y="321.1211">has from</text><text fill="#000000" font-family="sans-serif" font-size="13" lengthAdjust="spacing" textLength="8.2202" x="261.0748" y="184.5">1</text><text fill="#000000" font-family="sans-serif" font-size="13" lengthAdjust="spacing" textLength="8.2202" x="224.4488" y="569.6738">1</text><line style="stroke:#181818;stroke-width:1;" x1="294.1256" x2="294.1256" y1="169.9316" y2="207.2422"/><line style="stroke:#181818;stroke-width:1;" x1="294.1256" x2="329.7515" y1="207.2422" y2="207.2422"/><line style="stroke:#181818;stroke-width:1;" x1="329.7515" x2="329.7515" y1="207.2422" y2="481.7949"/><line style="stroke:#181818;stroke-width:1;" x1="329.7515" x2="233.7478" y1="481.7949" y2="481.7949"/><line style="stroke:#181818;stroke-width:1;" x1="233.7478" x2="233.7478" y1="481.7949" y2="574.416"/><polygon fill="#181818" points="233.7478,574.416,237.7478,565.416,233.7478,569.416,229.7478,565.416,233.7478,574.416" style="stroke:#181818;stroke-width:1;"/><text fill="#000000" font-family="sans-serif" font-size="13" lengthAdjust="spacing" textLength="38.835" x="334.7515" y="321.1211">has to</text><text fill="#000000" font-family="sans-serif" font-size="13" lengthAdjust="spacing" textLength="8.2202" x="297.1256" y="184.5">1</text><text fill="#000000" font-family="sans-serif" font-size="13" lengthAdjust="spacing" textLength="8.2202" x="236.7478" y="569.6738">1</text><line style="stroke:#181818;stroke-width:1;" x1="301.0471" x2="301.0471" y1="44" y2="71.3105"/><line style="stroke:#181818;stroke-width:1;" x1="301.0471" x2="639.9556" y1="71.3105" y2="71.3105"/><line style="stroke:#181818;stroke-width:1;" x1="639.9556" x2="639.9556" y1="71.3105" y2="501.7949"/><line style="stroke:#181818;stroke-width:1;" x1="639.9556" x2="258.3457" y1="501.7949" y2="501.7949"/><line style="stroke:#181818;stroke-width:1;" x1="258.3457" x2="258.3457" y1="501.7949" y2="574.416"/><polygon fill="#181818" points="258.3457,574.416,262.3457,565.416,258.3457,569.416,254.3457,565.416,258.3457,574.416" style="stroke:#181818;stroke-width:1;"/><text fill="#000000" font-family="sans-serif" font-size="13" lengthAdjust="spacing" textLength="21.874" x="614.0816" y="266.8105">has</text><text fill="#000000" font-family="sans-serif" font-size="13" lengthAdjust="spacing" textLength="8.2202" x="304.0471" y="58.5684">1</text><text fill="#000000" font-family="sans-serif" font-size="13" lengthAdjust="spacing" textLength="6.2651" x="261.3457" y="569.6738">*</text><line style="stroke:#181818;stroke-width:1;" x1="276.1002" x2="276.1002" y1="44" y2="137.9316"/><polygon fill="#181818" points="276.1002,137.9316,280.1002,128.9316,276.1002,132.9316,272.1002,128.9316,276.1002,137.9316" style="stroke:#181818;stroke-width:1;"/><text fill="#000000" font-family="sans-serif" font-size="13" lengthAdjust="spacing" textLength="21.874" x="250.2261" y="95.8789">has</text><text fill="#000000" font-family="sans-serif" font-size="13" lengthAdjust="spacing" textLength="8.2202" x="279.1002" y="58.5684">1</text><text fill="#000000" font-family="sans-serif" font-size="13" lengthAdjust="spacing" textLength="6.2651" x="279.1002" y="133.1895">*</text><line style="stroke:#181818;stroke-width:1;" x1="457.8101" x2="457.8101" y1="405.1738" y2="491.7949"/><line style="stroke:#181818;stroke-width:1;" x1="457.8101" x2="246.0467" y1="491.7949" y2="491.7949"/><line style="stroke:#181818;stroke-width:1;" x1="246.0467" x2="246.0467" y1="491.7949" y2="574.416"/><polygon fill="#181818" points="246.0467,574.416,250.0467,565.416,246.0467,569.416,242.0467,565.416,246.0467,574.416" style="stroke:#181818;stroke-width:1;"/><text fill="#000000" font-family="sans-serif" font-size="13" lengthAdjust="spacing" textLength="111.0586" x="342.7515" y="467.0527">has capture pawn</text><text fill="#000000" font-family="sans-serif" font-size="13" lengthAdjust="spacing" textLength="8.2202" x="460.8101" y="419.7422">1</text><text fill="#000000" font-family="sans-serif" font-size="13" lengthAdjust="spacing" textLength="8.2202" x="249.0467" y="569.6738">1</text><!--SRC=[bLPRJzim57xFh_2w1oGqEiRU4Af4BvIgZ9OMriV9JGwDXMD7jZlMJVptsN4IEvUMaWUQ-7pVTou-FkPJAl0cmOZY7Tyg1FGbY4a4299KxL02AkQHz9UmKeAijmfa85y8Ix702QA4WTgbWBZG1CyW-9P50ouO27JkhOSKItbTI4r2pfRaBrGW0mFfu_1baujGBj3d6OtkS0WUxfuhE0AsZ774NmdRe6TC9GIAfqXnjEPAyGH5H42e26T1S2NLZa8lGFh9mXmIl34A_x8bytHJmN_haaJUcddgOOnZBjKg9Wegi3jTBGiOacGiO5Untd2csgrlWVrxzJKFqUxBrLKHJg-7f081tEn5412cFvvr6T0W1Ya7MbXmIa5K6F_UVEIJ1368EGcX0Jf13jOP2loArnGM8FbMQFIerwaoDFwj4SDF0gyjmdWjbS2XiWL7dJwMa47hgYH9AIJ0b7HwXQkJd3r-cZJSm1y5BAefrucwG99J-1WvfvfWHcoZTxOHewjxhTQPjS-nY6mQLIFb34o56-NoF6RaXiDIyejJoPYrCZlmX155CFsRXsZDSow9EHBP4h1jWkPwIkZsCCrPsslJcAlRoUCeU-lVNG-cGSaY4CAZxiWMplnwTP-zB6QpQVOolP-CRn-jp6HvEvjdhmzFev45JYVtus1FBfcdIZdyz6kCkU09LyReSOkjRfTpXyFevJBubRNHIi22yvSIqEgqX4uPsSJgI72Vo5ZFiEF03ri0TcmKPaYsP-Gtw0_-6yQW1pjMN3Zsi9Yac3ghLyCzD9lwHnX38XLc8No4OpQhoIjoRLhApY-pollsPhPONI-6IzkdkjlTrztenhRlecpa0lshj9Kh3bIgE9HRiZ2p0JOHav_SUwQDrJl8IvrLf4zvjbpPs0AOSt6gjk8WPCJc-WSprwGLSKzAAjheeoh6Tg6fwM6j4hSYAcx4c7-RRElJjlEjWyxEUjclkoqkKO8PtW3gwG5U7UaDWYTsYK9CwLhVy6t4ysxtDEVQrzOBKej8tLR6TU3V60s_TgvVeXXBZTq7zSPnAzRWMcVy9TfAtJwwsnKnMUqAelMxhswUXnhmejlzVj7nXyKHwF9-EOWza6OBj5NIHbIfN74blGlSvxiEpJQzEdKAVD0w4Zkd5QeRC0MjEOrgtbfbIwVkm5NogHReMH-j8gFtiFgVvLvWvqw9EcqfUHFYv0kC6oC778RvqKxD3TiB_WC0]--></g></svg>