<svg xmlns="http://www.w3.org/2000/svg" xmlns:xlink="http://www.w3.org/1999/xlink" contentStyleType="text/css" height="1178px" preserveAspectRatio="none" style="width:1428px;height:1178px;background:#FFFFFF;" version="1.1" viewBox="0 0 1428 1178" width="1428px" zoomAndPan="magnify"><defs/><g><!--class ChessController--><g id="elem_ChessController"><rect codeLine="24" fill="#F8F8FF" height="32" id="ChessController" style="stroke:#696969;stroke-width:0.5;" width="140.6094" x="1205.4696" y="12"/><ellipse cx="1220.4696" cy="28" fill="#B4A7E5" rx="11" ry="11" style="stroke:#181818;stroke-width:1;"/><path d="M1216.8973,24.2651 L1216.8973,22.1069 L1224.2767,22.1069 L1224.2767,24.2651 L1221.8113,24.2651 L1221.8113,32.3418 L1224.2767,32.3418 L1224.2767,34.5 L1216.8973,34.5 L1216.8973,32.3418 L1219.3626,32.3418 L1219.3626,24.2651 Z " fill="#000000"/><text fill="#696969" font-family="sans-serif" font-size="14" font-style="italic" lengthAdjust="spacing" textLength="108.6094" x="1234.4696" y="33.291">ChessController</text></g><!--class UserChoice--><g id="elem_UserChoice"><rect codeLine="26" fill="#F8F8FF" height="32" id="UserChoice" style="stroke:#696969;stroke-width:0.5;" width="108.3574" x="580.0625" y="413.1738"/><ellipse cx="595.0625" cy="429.1738" fill="#B4A7E5" rx="11" ry="11" style="stroke:#181818;stroke-width:1;"/><path d="M591.4902,425.439 L591.4902,423.2808 L598.8696,423.2808 L598.8696,425.439 L596.4043,425.439 L596.4043,433.5156 L598.8696,433.5156 L598.8696,435.6738 L591.4902,435.6738 L591.4902,433.5156 L593.9556,433.5156 L593.9556,425.439 Z " fill="#000000"/><text fill="#696969" font-family="sans-serif" font-size="14" font-style="italic" lengthAdjust="spacing" textLength="76.3574" x="609.0625" y="434.4648">UserChoice</text></g><!--class ChessView--><g id="elem_ChessView"><rect codeLine="31" fill="#F8F8FF" height="32" id="ChessView" style="stroke:#696969;stroke-width:0.5;" width="104.2354" x="902.6405" y="428.4844"/><ellipse cx="917.6405" cy="444.4844" fill="#B4A7E5" rx="11" ry="11" style="stroke:#181818;stroke-width:1;"/><path d="M914.0682,440.7495 L914.0682,438.5913 L921.4476,438.5913 L921.4476,440.7495 L918.9823,440.7495 L918.9823,448.8262 L921.4476,448.8262 L921.4476,450.9844 L914.0682,450.9844 L914.0682,448.8262 L916.5335,448.8262 L916.5335,440.7495 Z " fill="#000000"/><text fill="#696969" font-family="sans-serif" font-size="14" font-style="italic" lengthAdjust="spacing" textLength="72.2354" x="931.6405" y="449.7754">ChessView</text></g><!--class ChessEngine--><g id="elem_ChessEngine"><rect codeLine="42" fill="#FDF5E6" height="32" id="ChessEngine" style="stroke:#181818;stroke-width:0.5;" width="117.9893" x="1240.2145" y="101.3105"/><ellipse cx="1255.2145" cy="117.3105" fill="#ADD1B2" rx="11" ry="11" style="stroke:#181818;stroke-width:1;"/><path d="M1257.6877,123.4536 Q1257.1066,123.7524 1256.4674,123.9019 Q1255.8283,124.0513 1255.1227,124.0513 Q1252.6159,124.0513 1251.296,122.3994 Q1249.9762,120.7476 1249.9762,117.6265 Q1249.9762,114.4971 1251.296,112.8452 Q1252.6159,111.1934 1255.1227,111.1934 Q1255.8283,111.1934 1256.4757,111.3428 Q1257.1232,111.4922 1257.6877,111.791 L1257.6877,114.5137 Q1257.0568,113.9326 1256.4633,113.6628 Q1255.8698,113.3931 1255.2389,113.3931 Q1253.8942,113.3931 1253.2094,114.4597 Q1252.5246,115.5264 1252.5246,117.6265 Q1252.5246,119.7183 1253.2094,120.7849 Q1253.8942,121.8516 1255.2389,121.8516 Q1255.8698,121.8516 1256.4633,121.5818 Q1257.0568,121.312 1257.6877,120.731 Z " fill="#000000"/><text fill="#000000" font-family="sans-serif" font-size="14" lengthAdjust="spacing" textLength="85.9893" x="1269.2145" y="122.6016">ChessEngine</text></g><!--class ChessBoardView--><g id="elem_ChessBoardView"><rect codeLine="44" fill="#FDF5E6" height="32" id="ChessBoardView" style="stroke:#181818;stroke-width:0.5;" width="143.1592" x="830.0379" y="101.3105"/><ellipse cx="845.0379" cy="117.3105" fill="#B4A7E5" rx="11" ry="11" style="stroke:#181818;stroke-width:1;"/><path d="M841.4657,113.5757 L841.4657,111.4175 L848.8451,111.4175 L848.8451,113.5757 L846.3797,113.5757 L846.3797,121.6523 L848.8451,121.6523 L848.8451,123.8105 L841.4657,123.8105 L841.4657,121.6523 L843.931,121.6523 L843.931,113.5757 Z " fill="#000000"/><text fill="#000000" font-family="sans-serif" font-size="14" font-style="italic" lengthAdjust="spacing" textLength="111.1592" x="859.0379" y="122.6016">ChessBoardView</text></g><!--class Cloneable--><g id="elem_Cloneable"><rect codeLine="46" fill="#F8F8FF" height="32" id="Cloneable" style="stroke:#696969;stroke-width:0.5;" width="99.2109" x="993.1971" y="101.3105"/><ellipse cx="1008.1971" cy="117.3105" fill="#B4A7E5" rx="11" ry="11" style="stroke:#181818;stroke-width:1;"/><path d="M1004.6248,113.5757 L1004.6248,111.4175 L1012.0042,111.4175 L1012.0042,113.5757 L1009.5389,113.5757 L1009.5389,121.6523 L1012.0042,121.6523 L1012.0042,123.8105 L1004.6248,123.8105 L1004.6248,121.6523 L1007.0902,121.6523 L1007.0902,113.5757 Z " fill="#000000"/><text fill="#696969" font-family="sans-serif" font-size="14" font-style="italic" lengthAdjust="spacing" textLength="67.2109" x="1022.1971" y="122.6016">Cloneable</text></g><!--class ChessBoard--><g id="elem_ChessBoard"><rect codeLine="48" fill="#FDF5E6" height="32" id="ChessBoard" style="stroke:#181818;stroke-width:0.5;" width="111.3721" x="916.4447" y="247.2422"/><ellipse cx="931.4447" cy="263.2422" fill="#ADD1B2" rx="11" ry="11" style="stroke:#181818;stroke-width:1;"/><path d="M933.9178,269.3853 Q933.3368,269.6841 932.6976,269.8335 Q932.0584,269.9829 931.3529,269.9829 Q928.846,269.9829 927.5262,268.3311 Q926.2064,266.6792 926.2064,263.5581 Q926.2064,260.4287 927.5262,258.7769 Q928.846,257.125 931.3529,257.125 Q932.0584,257.125 932.7059,257.2744 Q933.3534,257.4238 933.9178,257.7227 L933.9178,260.4453 Q933.2869,259.8643 932.6934,259.5945 Q932.0999,259.3247 931.4691,259.3247 Q930.1243,259.3247 929.4395,260.3914 Q928.7547,261.458 928.7547,263.5581 Q928.7547,265.6499 929.4395,266.7166 Q930.1243,267.7832 931.4691,267.7832 Q932.0999,267.7832 932.6934,267.5134 Q933.2869,267.2437 933.9178,266.6626 Z " fill="#000000"/><text fill="#000000" font-family="sans-serif" font-size="14" lengthAdjust="spacing" textLength="79.3721" x="945.4447" y="268.5332">ChessBoard</text></g><!--class ChessBoardInitialzer--><g id="elem_ChessBoardInitialzer"><rect codeLine="50" fill="#FDF5E6" height="32" id="ChessBoardInitialzer" style="stroke:#181818;stroke-width:0.5;" width="170.7559" x="1213.8312" y="247.2422"/><ellipse cx="1228.8312" cy="263.2422" fill="#A9DCDF" rx="11" ry="11" style="stroke:#181818;stroke-width:1;"/><path d="M1228.6945,258.5903 L1227.5407,263.6621 L1229.8566,263.6621 Z M1227.2003,256.3491 L1230.1969,256.3491 L1233.5421,268.7422 L1231.0934,268.7422 L1230.3297,265.6792 L1227.0509,265.6792 L1226.3039,268.7422 L1223.8551,268.7422 Z " fill="#000000"/><text fill="#000000" font-family="sans-serif" font-size="14" font-style="italic" lengthAdjust="spacing" textLength="138.7559" x="1242.8312" y="268.5332">ChessBoardInitialzer</text></g><!--class Position--><g id="elem_Position"><rect codeLine="52" fill="#FDF5E6" height="32" id="Position" style="stroke:#181818;stroke-width:0.5;" width="86.0928" x="708.4199" y="428.4844"/><ellipse cx="723.4199" cy="444.4844" fill="#ADD1B2" rx="11" ry="11" style="stroke:#181818;stroke-width:1;"/><path d="M725.8931,450.6274 Q725.312,450.9263 724.6729,451.0757 Q724.0337,451.2251 723.3281,451.2251 Q720.8213,451.2251 719.5015,449.5732 Q718.1816,447.9214 718.1816,444.8003 Q718.1816,441.6709 719.5015,440.019 Q720.8213,438.3672 723.3281,438.3672 Q724.0337,438.3672 724.6812,438.5166 Q725.3286,438.666 725.8931,438.9648 L725.8931,441.6875 Q725.2622,441.1064 724.6687,440.8367 Q724.0752,440.5669 723.4443,440.5669 Q722.0996,440.5669 721.4148,441.6335 Q720.73,442.7002 720.73,444.8003 Q720.73,446.8921 721.4148,447.9587 Q722.0996,449.0254 723.4443,449.0254 Q724.0752,449.0254 724.6687,448.7556 Q725.2622,448.4858 725.8931,447.9048 Z " fill="#000000"/><text fill="#000000" font-family="sans-serif" font-size="14" lengthAdjust="spacing" textLength="54.0928" x="737.4199" y="449.7754">Position</text></g><!--class PlayerColor--><g id="elem_PlayerColor"><rect codeLine="54" fill="#F8F8FF" height="72.9766" id="PlayerColor" style="stroke:#696969;stroke-width:0.5;" width="109.0205" x="1312.8217" y="559.1055"/><ellipse cx="1327.8217" cy="575.1055" fill="#EB937F" rx="11" ry="11" style="stroke:#181818;stroke-width:1;"/><path d="M1331.4359,581.6055 L1323.7162,581.6055 L1323.7162,569.2124 L1331.4359,569.2124 L1331.4359,571.3706 L1326.1649,571.3706 L1326.1649,574.0435 L1330.9379,574.0435 L1330.9379,576.2017 L1326.1649,576.2017 L1326.1649,579.4473 L1331.4359,579.4473 Z " fill="#000000"/><text fill="#696969" font-family="sans-serif" font-size="14" lengthAdjust="spacing" textLength="77.0205" x="1341.8217" y="580.3965">PlayerColor</text><line style="stroke:#696969;stroke-width:0.5;" x1="1313.8217" x2="1420.8422" y1="591.1055" y2="591.1055"/><text fill="#696969" font-family="sans-serif" font-size="14" lengthAdjust="spacing" textLength="42.7383" x="1318.8217" y="608.6406">WHITE</text><text fill="#696969" font-family="sans-serif" font-size="14" lengthAdjust="spacing" textLength="44.0029" x="1318.8217" y="625.1289">BLACK</text></g><!--class PieceType--><g id="elem_PieceType"><rect codeLine="59" fill="#F8F8FF" height="138.9297" id="PieceType" style="stroke:#696969;stroke-width:0.5;" width="99.334" x="1038.3539" y="559.1055"/><ellipse cx="1053.3539" cy="575.1055" fill="#EB937F" rx="11" ry="11" style="stroke:#181818;stroke-width:1;"/><path d="M1056.9682,581.6055 L1049.2484,581.6055 L1049.2484,569.2124 L1056.9682,569.2124 L1056.9682,571.3706 L1051.6972,571.3706 L1051.6972,574.0435 L1056.4701,574.0435 L1056.4701,576.2017 L1051.6972,576.2017 L1051.6972,579.4473 L1056.9682,579.4473 Z " fill="#000000"/><text fill="#696969" font-family="sans-serif" font-size="14" lengthAdjust="spacing" textLength="67.334" x="1067.3539" y="580.3965">PieceType</text><line style="stroke:#696969;stroke-width:0.5;" x1="1039.3539" x2="1136.6879" y1="591.1055" y2="591.1055"/><text fill="#696969" font-family="sans-serif" font-size="14" lengthAdjust="spacing" textLength="39.7168" x="1044.3539" y="608.6406">PAWN</text><text fill="#696969" font-family="sans-serif" font-size="14" lengthAdjust="spacing" textLength="39.7441" x="1044.3539" y="625.1289">ROOK</text><text fill="#696969" font-family="sans-serif" font-size="14" lengthAdjust="spacing" textLength="52.7734" x="1044.3539" y="641.6172">KNIGHT</text><text fill="#696969" font-family="sans-serif" font-size="14" lengthAdjust="spacing" textLength="48.5283" x="1044.3539" y="658.1055">BISHOP</text><text fill="#696969" font-family="sans-serif" font-size="14" lengthAdjust="spacing" textLength="46.0947" x="1044.3539" y="674.5938">QUEEN</text><text fill="#696969" font-family="sans-serif" font-size="14" lengthAdjust="spacing" textLength="33.6328" x="1044.3539" y="691.082">KING</text></g><!--class ChessPiece--><g id="elem_ChessPiece"><rect codeLine="68" fill="#FDF5E6" height="32" id="ChessPiece" style="stroke:#181818;stroke-width:0.5;" width="107.0039" x="1026.8758" y="413.1738"/><ellipse cx="1041.8758" cy="429.1738" fill="#A9DCDF" rx="11" ry="11" style="stroke:#181818;stroke-width:1;"/><path d="M1041.7391,424.522 L1040.5853,429.5938 L1042.9012,429.5938 Z M1040.245,422.2808 L1043.2415,422.2808 L1046.5868,434.6738 L1044.138,434.6738 L1043.3743,431.6108 L1040.0955,431.6108 L1039.3485,434.6738 L1036.8997,434.6738 Z " fill="#000000"/><text fill="#000000" font-family="sans-serif" font-size="14" font-style="italic" lengthAdjust="spacing" textLength="75.0039" x="1055.8758" y="434.4648">ChessPiece</text></g><!--class PromotableChessPiece--><g id="elem_PromotableChessPiece"><rect codeLine="69" fill="#FDF5E6" height="32" id="PromotableChessPiece" style="stroke:#181818;stroke-width:0.5;" width="184.3662" x="747.0424" y="624.6217"/><ellipse cx="762.0424" cy="640.6217" fill="#A9DCDF" rx="11" ry="11" style="stroke:#181818;stroke-width:1;"/><path d="M761.9057,635.9699 L760.7519,641.0417 L763.0678,641.0417 Z M760.4115,633.7287 L763.4081,633.7287 L766.7533,646.1217 L764.3046,646.1217 L763.5409,643.0588 L760.2621,643.0588 L759.515,646.1217 L757.0663,646.1217 Z " fill="#000000"/><text fill="#000000" font-family="sans-serif" font-size="14" font-style="italic" lengthAdjust="spacing" textLength="152.3662" x="776.0424" y="645.9128">PromotableChessPiece</text></g><!--class Pawn--><g id="elem_Pawn"><rect codeLine="70" fill="#FDF5E6" height="32" id="Pawn" style="stroke:#181818;stroke-width:0.5;" width="66.9453" x="951.4086" y="559.1055"/><ellipse cx="966.4086" cy="575.1055" fill="#ADD1B2" rx="11" ry="11" style="stroke:#181818;stroke-width:1;"/><path d="M968.8817,581.2485 Q968.3007,581.5474 967.6615,581.6968 Q967.0224,581.8462 966.3168,581.8462 Q963.81,581.8462 962.4901,580.1943 Q961.1703,578.5425 961.1703,575.4214 Q961.1703,572.292 962.4901,570.6401 Q963.81,568.9883 966.3168,568.9883 Q967.0224,568.9883 967.6698,569.1377 Q968.3173,569.2871 968.8817,569.5859 L968.8817,572.3086 Q968.2509,571.7275 967.6574,571.4578 Q967.0639,571.188 966.433,571.188 Q965.0883,571.188 964.4035,572.2546 Q963.7187,573.3213 963.7187,575.4214 Q963.7187,577.5132 964.4035,578.5798 Q965.0883,579.6465 966.433,579.6465 Q967.0639,579.6465 967.6574,579.3767 Q968.2509,579.1069 968.8817,578.5259 Z " fill="#000000"/><text fill="#000000" font-family="sans-serif" font-size="14" lengthAdjust="spacing" textLength="34.9453" x="980.4086" y="580.3965">Pawn</text></g><!--class Rook--><g id="elem_Rook"><rect codeLine="71" fill="#FDF5E6" height="32" id="Rook" style="stroke:#181818;stroke-width:0.5;" width="66.2344" x="915.5884" y="748.0352"/><ellipse cx="930.5884" cy="764.0352" fill="#ADD1B2" rx="11" ry="11" style="stroke:#181818;stroke-width:1;"/><path d="M933.0615,770.1782 Q932.4805,770.4771 931.8413,770.6265 Q931.2022,770.7759 930.4966,770.7759 Q927.9898,770.7759 926.6699,769.124 Q925.3501,767.4722 925.3501,764.3511 Q925.3501,761.2217 926.6699,759.5698 Q927.9898,757.918 930.4966,757.918 Q931.2022,757.918 931.8496,758.0674 Q932.4971,758.2168 933.0615,758.5156 L933.0615,761.2383 Q932.4307,760.6572 931.8372,760.3875 Q931.2437,760.1177 930.6128,760.1177 Q929.2681,760.1177 928.5833,761.1843 Q927.8984,762.251 927.8984,764.3511 Q927.8984,766.4429 928.5833,767.5095 Q929.2681,768.5762 930.6128,768.5762 Q931.2437,768.5762 931.8372,768.3064 Q932.4307,768.0366 933.0615,767.4556 Z " fill="#000000"/><text fill="#000000" font-family="sans-serif" font-size="14" lengthAdjust="spacing" textLength="34.2344" x="944.5884" y="769.3262">Rook</text></g><!--class Knight--><g id="elem_Knight"><rect codeLine="72" fill="#FDF5E6" height="32" id="Knight" style="stroke:#181818;stroke-width:0.5;" width="76.5293" x="723.2065" y="748.0352"/><ellipse cx="738.2065" cy="764.0352" fill="#ADD1B2" rx="11" ry="11" style="stroke:#181818;stroke-width:1;"/><path d="M740.6797,770.1782 Q740.0986,770.4771 739.4595,770.6265 Q738.8203,770.7759 738.1148,770.7759 Q735.6079,770.7759 734.2881,769.124 Q732.9683,767.4722 732.9683,764.3511 Q732.9683,761.2217 734.2881,759.5698 Q735.6079,757.918 738.1148,757.918 Q738.8203,757.918 739.4678,758.0674 Q740.1152,758.2168 740.6797,758.5156 L740.6797,761.2383 Q740.0488,760.6572 739.4553,760.3875 Q738.8618,760.1177 738.231,760.1177 Q736.8862,760.1177 736.2014,761.1843 Q735.5166,762.251 735.5166,764.3511 Q735.5166,766.4429 736.2014,767.5095 Q736.8862,768.5762 738.231,768.5762 Q738.8618,768.5762 739.4553,768.3064 Q740.0488,768.0366 740.6797,767.4556 Z " fill="#000000"/><text fill="#000000" font-family="sans-serif" font-size="14" lengthAdjust="spacing" textLength="44.5293" x="752.2065" y="769.3262">Knight</text></g><!--class Bishop--><g id="elem_Bishop"><rect codeLine="73" fill="#FDF5E6" height="32" id="Bishop" style="stroke:#181818;stroke-width:0.5;" width="77.3359" x="625.8706" y="748.0352"/><ellipse cx="640.8706" cy="764.0352" fill="#ADD1B2" rx="11" ry="11" style="stroke:#181818;stroke-width:1;"/><path d="M643.3438,770.1782 Q642.7627,770.4771 642.1235,770.6265 Q641.4844,770.7759 640.7788,770.7759 Q638.272,770.7759 636.9522,769.124 Q635.6323,767.4722 635.6323,764.3511 Q635.6323,761.2217 636.9522,759.5698 Q638.272,757.918 640.7788,757.918 Q641.4844,757.918 642.1318,758.0674 Q642.7793,758.2168 643.3438,758.5156 L643.3438,761.2383 Q642.7129,760.6572 642.1194,760.3875 Q641.5259,760.1177 640.895,760.1177 Q639.5503,760.1177 638.8655,761.1843 Q638.1807,762.251 638.1807,764.3511 Q638.1807,766.4429 638.8655,767.5095 Q639.5503,768.5762 640.895,768.5762 Q641.5259,768.5762 642.1194,768.3064 Q642.7129,768.0366 643.3438,767.4556 Z " fill="#000000"/><text fill="#000000" font-family="sans-serif" font-size="14" lengthAdjust="spacing" textLength="45.3359" x="654.8706" y="769.3262">Bishop</text></g><!--class Queen--><g id="elem_Queen"><rect codeLine="74" fill="#FDF5E6" height="32" id="Queen" style="stroke:#181818;stroke-width:0.5;" width="75.8525" x="819.7358" y="748.0352"/><ellipse cx="834.7358" cy="764.0352" fill="#ADD1B2" rx="11" ry="11" style="stroke:#181818;stroke-width:1;"/><path d="M837.209,770.1782 Q836.6279,770.4771 835.9888,770.6265 Q835.3496,770.7759 834.644,770.7759 Q832.1372,770.7759 830.8174,769.124 Q829.4976,767.4722 829.4976,764.3511 Q829.4976,761.2217 830.8174,759.5698 Q832.1372,757.918 834.644,757.918 Q835.3496,757.918 835.9971,758.0674 Q836.6445,758.2168 837.209,758.5156 L837.209,761.2383 Q836.5781,760.6572 835.9846,760.3875 Q835.3911,760.1177 834.7603,760.1177 Q833.4155,760.1177 832.7307,761.1843 Q832.0459,762.251 832.0459,764.3511 Q832.0459,766.4429 832.7307,767.5095 Q833.4155,768.5762 834.7603,768.5762 Q835.3911,768.5762 835.9846,768.3064 Q836.5781,768.0366 837.209,767.4556 Z " fill="#000000"/><text fill="#000000" font-family="sans-serif" font-size="14" lengthAdjust="spacing" textLength="43.8525" x="848.7358" y="769.3262">Queen</text></g><!--class King--><g id="elem_King"><rect codeLine="75" fill="#FDF5E6" height="32" id="King" style="stroke:#181818;stroke-width:0.5;" width="62.6045" x="588.939" y="559.1055"/><ellipse cx="603.939" cy="575.1055" fill="#ADD1B2" rx="11" ry="11" style="stroke:#181818;stroke-width:1;"/><path d="M606.4121,581.2485 Q605.8311,581.5474 605.1919,581.6968 Q604.5527,581.8462 603.8472,581.8462 Q601.3403,581.8462 600.0205,580.1943 Q598.7007,578.5425 598.7007,575.4214 Q598.7007,572.292 600.0205,570.6401 Q601.3403,568.9883 603.8472,568.9883 Q604.5527,568.9883 605.2002,569.1377 Q605.8477,569.2871 606.4121,569.5859 L606.4121,572.3086 Q605.7813,571.7275 605.1877,571.4578 Q604.5942,571.188 603.9634,571.188 Q602.6187,571.188 601.9338,572.2546 Q601.249,573.3213 601.249,575.4214 Q601.249,577.5132 601.9338,578.5798 Q602.6187,579.6465 603.9634,579.6465 Q604.5942,579.6465 605.1877,579.3767 Q605.7813,579.1069 606.4121,578.5259 Z " fill="#000000"/><text fill="#000000" font-family="sans-serif" font-size="14" lengthAdjust="spacing" textLength="30.6045" x="617.939" y="580.3965">King</text></g><!--class MoveGenerator--><g id="elem_MoveGenerator"><rect codeLine="78" fill="#FDF5E6" height="32" id="MoveGenerator" style="stroke:#181818;stroke-width:0.5;" width="135.1338" x="1157.6879" y="634.9751"/><ellipse cx="1172.6879" cy="650.9751" fill="#B4A7E5" rx="11" ry="11" style="stroke:#181818;stroke-width:1;"/><path d="M1169.1156,647.2402 L1169.1156,645.082 L1176.495,645.082 L1176.495,647.2402 L1174.0297,647.2402 L1174.0297,655.3169 L1176.495,655.3169 L1176.495,657.4751 L1169.1156,657.4751 L1169.1156,655.3169 L1171.581,655.3169 L1171.581,647.2402 Z " fill="#000000"/><text fill="#000000" font-family="sans-serif" font-size="14" font-style="italic" lengthAdjust="spacing" textLength="103.1338" x="1186.6879" y="656.2661">MoveGenerator</text></g><!--class DirectionalGenerator--><g id="elem_DirectionalGenerator"><rect codeLine="79" fill="#FDF5E6" height="32" id="DirectionalGenerator" style="stroke:#181818;stroke-width:0.5;" width="173.0117" x="1109.9136" y="873.9668"/><ellipse cx="1124.9136" cy="889.9668" fill="#ADD1B2" rx="11" ry="11" style="stroke:#181818;stroke-width:1;"/><path d="M1127.3868,896.1099 Q1126.8057,896.4087 1126.1666,896.5581 Q1125.5274,896.7075 1124.8218,896.7075 Q1122.315,896.7075 1120.9952,895.0557 Q1119.6754,893.4038 1119.6754,890.2827 Q1119.6754,887.1533 1120.9952,885.5015 Q1122.315,883.8496 1124.8218,883.8496 Q1125.5274,883.8496 1126.1749,883.999 Q1126.8223,884.1484 1127.3868,884.4473 L1127.3868,887.1699 Q1126.7559,886.5889 1126.1624,886.3191 Q1125.5689,886.0493 1124.9381,886.0493 Q1123.5933,886.0493 1122.9085,887.116 Q1122.2237,888.1826 1122.2237,890.2827 Q1122.2237,892.3745 1122.9085,893.4412 Q1123.5933,894.5078 1124.9381,894.5078 Q1125.5689,894.5078 1126.1624,894.238 Q1126.7559,893.9683 1127.3868,893.3872 Z " fill="#000000"/><text fill="#000000" font-family="sans-serif" font-size="14" lengthAdjust="spacing" textLength="141.0117" x="1138.9136" y="895.2578">DirectionalGenerator</text></g><!--class KnightGenerator--><g id="elem_KnightGenerator"><rect codeLine="80" fill="#FDF5E6" height="32" id="KnightGenerator" style="stroke:#181818;stroke-width:0.5;" width="143.959" x="1246.2548" y="748.0352"/><ellipse cx="1261.2548" cy="764.0352" fill="#ADD1B2" rx="11" ry="11" style="stroke:#181818;stroke-width:1;"/><path d="M1263.7279,770.1782 Q1263.1469,770.4771 1262.5077,770.6265 Q1261.8686,770.7759 1261.163,770.7759 Q1258.6562,770.7759 1257.3363,769.124 Q1256.0165,767.4722 1256.0165,764.3511 Q1256.0165,761.2217 1257.3363,759.5698 Q1258.6562,757.918 1261.163,757.918 Q1261.8686,757.918 1262.516,758.0674 Q1263.1635,758.2168 1263.7279,758.5156 L1263.7279,761.2383 Q1263.0971,760.6572 1262.5036,760.3875 Q1261.9101,760.1177 1261.2792,760.1177 Q1259.9345,760.1177 1259.2497,761.1843 Q1258.5648,762.251 1258.5648,764.3511 Q1258.5648,766.4429 1259.2497,767.5095 Q1259.9345,768.5762 1261.2792,768.5762 Q1261.9101,768.5762 1262.5036,768.3064 Q1263.0971,768.0366 1263.7279,767.4556 Z " fill="#000000"/><text fill="#000000" font-family="sans-serif" font-size="14" lengthAdjust="spacing" textLength="111.959" x="1275.2548" y="769.3262">KnightGenerator</text></g><!--class DistanceGenerator--><g id="elem_DistanceGenerator"><rect codeLine="81" fill="#FDF5E6" height="32" id="DistanceGenerator" style="stroke:#181818;stroke-width:0.5;" width="157.7266" x="1044.5282" y="748.0352"/><ellipse cx="1059.5282" cy="764.0352" fill="#ADD1B2" rx="11" ry="11" style="stroke:#181818;stroke-width:1;"/><path d="M1062.0014,770.1782 Q1061.4203,770.4771 1060.7812,770.6265 Q1060.142,770.7759 1059.4364,770.7759 Q1056.9296,770.7759 1055.6098,769.124 Q1054.2899,767.4722 1054.2899,764.3511 Q1054.2899,761.2217 1055.6098,759.5698 Q1056.9296,757.918 1059.4364,757.918 Q1060.142,757.918 1060.7895,758.0674 Q1061.4369,758.2168 1062.0014,758.5156 L1062.0014,761.2383 Q1061.3705,760.6572 1060.777,760.3875 Q1060.1835,760.1177 1059.5526,760.1177 Q1058.2079,760.1177 1057.5231,761.1843 Q1056.8383,762.251 1056.8383,764.3511 Q1056.8383,766.4429 1057.5231,767.5095 Q1058.2079,768.5762 1059.5526,768.5762 Q1060.1835,768.5762 1060.777,768.3064 Q1061.3705,768.0366 1062.0014,767.4556 Z " fill="#000000"/><text fill="#000000" font-family="sans-serif" font-size="14" lengthAdjust="spacing" textLength="125.7266" x="1073.5282" y="769.3262">DistanceGenerator</text></g><!--class PawnDistanceGenerator--><g id="elem_PawnDistanceGenerator"><rect codeLine="82" fill="#FDF5E6" height="32" id="PawnDistanceGenerator" style="stroke:#181818;stroke-width:0.5;" width="192.6719" x="897.2418" y="873.9668"/><ellipse cx="912.2418" cy="889.9668" fill="#ADD1B2" rx="11" ry="11" style="stroke:#181818;stroke-width:1;"/><path d="M914.7149,896.1099 Q914.1339,896.4087 913.4947,896.5581 Q912.8555,896.7075 912.15,896.7075 Q909.6431,896.7075 908.3233,895.0557 Q907.0035,893.4038 907.0035,890.2827 Q907.0035,887.1533 908.3233,885.5015 Q909.6431,883.8496 912.15,883.8496 Q912.8555,883.8496 913.503,883.999 Q914.1505,884.1484 914.7149,884.4473 L914.7149,887.1699 Q914.0841,886.5889 913.4905,886.3191 Q912.897,886.0493 912.2662,886.0493 Q910.9215,886.0493 910.2366,887.116 Q909.5518,888.1826 909.5518,890.2827 Q909.5518,892.3745 910.2366,893.4412 Q910.9215,894.5078 912.2662,894.5078 Q912.897,894.5078 913.4905,894.238 Q914.0841,893.9683 914.7149,893.3872 Z " fill="#000000"/><text fill="#000000" font-family="sans-serif" font-size="14" lengthAdjust="spacing" textLength="160.6719" x="926.2418" y="895.2578">PawnDistanceGenerator</text></g><!--class Direction--><g id="elem_Direction"><rect codeLine="84" fill="#FDF5E6" height="171.9063" id="Direction" style="stroke:#181818;stroke-width:0.5;" width="146.1963" x="1123.3214" y="999.8984"/><ellipse cx="1161.898" cy="1015.8984" fill="#EB937F" rx="11" ry="11" style="stroke:#181818;stroke-width:1;"/><path d="M1165.5123,1022.3984 L1157.7926,1022.3984 L1157.7926,1010.0054 L1165.5123,1010.0054 L1165.5123,1012.1636 L1160.2413,1012.1636 L1160.2413,1014.8364 L1165.0142,1014.8364 L1165.0142,1016.9946 L1160.2413,1016.9946 L1160.2413,1020.2402 L1165.5123,1020.2402 Z " fill="#000000"/><text fill="#000000" font-family="sans-serif" font-size="14" lengthAdjust="spacing" textLength="61.8037" x="1181.1373" y="1021.1895">Direction</text><line style="stroke:#181818;stroke-width:0.5;" x1="1124.3214" x2="1268.5176" y1="1031.8984" y2="1031.8984"/><text fill="#000000" font-family="sans-serif" font-size="14" lengthAdjust="spacing" textLength="75.749" x="1129.3214" y="1049.4336">FORWARDS</text><text fill="#000000" font-family="sans-serif" font-size="14" lengthAdjust="spacing" textLength="85.0527" x="1129.3214" y="1065.9219">BACKWARDS</text><text fill="#000000" font-family="sans-serif" font-size="14" lengthAdjust="spacing" textLength="31.4111" x="1129.3214" y="1082.4102">LEFT</text><text fill="#000000" font-family="sans-serif" font-size="14" lengthAdjust="spacing" textLength="42.1436" x="1129.3214" y="1098.8984">RIGHT</text><text fill="#000000" font-family="sans-serif" font-size="14" lengthAdjust="spacing" textLength="114.1602" x="1129.3214" y="1115.3867">FORWARDS_LEFT</text><text fill="#000000" font-family="sans-serif" font-size="14" lengthAdjust="spacing" textLength="124.8926" x="1129.3214" y="1131.875">FORWARDS_RIGHT</text><text fill="#000000" font-family="sans-serif" font-size="14" lengthAdjust="spacing" textLength="123.4639" x="1129.3214" y="1148.3633">BACKWARDS_LEFT</text><text fill="#000000" font-family="sans-serif" font-size="14" lengthAdjust="spacing" textLength="134.1963" x="1129.3214" y="1164.8516">BACKWARDS_RIGHT</text></g><!--class Moves--><g id="elem_Moves"><rect codeLine="96" fill="#FDF5E6" height="32" id="Moves" style="stroke:#181818;stroke-width:0.5;" width="74.8408" x="677.0472" y="101.3105"/><ellipse cx="692.0472" cy="117.3105" fill="#ADD1B2" rx="11" ry="11" style="stroke:#181818;stroke-width:1;"/><path d="M694.5203,123.4536 Q693.9393,123.7524 693.3001,123.9019 Q692.661,124.0513 691.9554,124.0513 Q689.4486,124.0513 688.1287,122.3994 Q686.8089,120.7476 686.8089,117.6265 Q686.8089,114.4971 688.1287,112.8452 Q689.4486,111.1934 691.9554,111.1934 Q692.661,111.1934 693.3084,111.3428 Q693.9559,111.4922 694.5203,111.791 L694.5203,114.5137 Q693.8895,113.9326 693.296,113.6628 Q692.7025,113.3931 692.0716,113.3931 Q690.7269,113.3931 690.0421,114.4597 Q689.3573,115.5264 689.3573,117.6265 Q689.3573,119.7183 690.0421,120.7849 Q690.7269,121.8516 692.0716,121.8516 Q692.7025,121.8516 693.296,121.5818 Q693.8895,121.312 694.5203,120.731 Z " fill="#000000"/><text fill="#000000" font-family="sans-serif" font-size="14" lengthAdjust="spacing" textLength="42.8408" x="706.0472" y="122.6016">Moves</text></g><!--class ChessMove--><g id="elem_ChessMove"><rect codeLine="98" fill="#FDF5E6" height="32" id="ChessMove" style="stroke:#181818;stroke-width:0.5;" width="108.1523" x="454.6098" y="247.2422"/><ellipse cx="469.6098" cy="263.2422" fill="#A9DCDF" rx="11" ry="11" style="stroke:#181818;stroke-width:1;"/><path d="M469.4731,258.5903 L468.3193,263.6621 L470.6352,263.6621 Z M467.9789,256.3491 L470.9755,256.3491 L474.3207,268.7422 L471.872,268.7422 L471.1083,265.6792 L467.8295,265.6792 L467.0824,268.7422 L464.6337,268.7422 Z " fill="#000000"/><text fill="#000000" font-family="sans-serif" font-size="14" font-style="italic" lengthAdjust="spacing" textLength="76.1523" x="483.6098" y="268.5332">ChessMove</text></g><!--class StandardMove--><g id="elem_StandardMove"><rect codeLine="100" fill="#FDF5E6" height="32" id="StandardMove" style="stroke:#181818;stroke-width:0.5;" width="127.9834" x="205.1006" y="413.1738"/><ellipse cx="220.1006" cy="429.1738" fill="#ADD1B2" rx="11" ry="11" style="stroke:#181818;stroke-width:1;"/><path d="M222.5737,435.3169 Q221.9927,435.6157 221.3535,435.7651 Q220.7144,435.9146 220.0088,435.9146 Q217.502,435.9146 216.1821,434.2627 Q214.8623,432.6108 214.8623,429.4897 Q214.8623,426.3604 216.1821,424.7085 Q217.502,423.0566 220.0088,423.0566 Q220.7144,423.0566 221.3618,423.2061 Q222.0093,423.3555 222.5737,423.6543 L222.5737,426.377 Q221.9429,425.7959 221.3494,425.5261 Q220.7559,425.2563 220.125,425.2563 Q218.7803,425.2563 218.0955,426.323 Q217.4106,427.3896 217.4106,429.4897 Q217.4106,431.5815 218.0955,432.6482 Q218.7803,433.7148 220.125,433.7148 Q220.7559,433.7148 221.3494,433.4451 Q221.9429,433.1753 222.5737,432.5942 Z " fill="#000000"/><text fill="#000000" font-family="sans-serif" font-size="14" lengthAdjust="spacing" textLength="95.9834" x="234.1006" y="434.4648">StandardMove</text></g><!--class Capture--><g id="elem_Capture"><rect codeLine="101" fill="#FDF5E6" height="32" id="Capture" style="stroke:#181818;stroke-width:0.5;" width="85.6826" x="62.1279" y="413.1738"/><ellipse cx="77.1279" cy="429.1738" fill="#ADD1B2" rx="11" ry="11" style="stroke:#181818;stroke-width:1;"/><path d="M79.6011,435.3169 Q79.02,435.6157 78.3809,435.7651 Q77.7417,435.9146 77.0361,435.9146 Q74.5293,435.9146 73.2095,434.2627 Q71.8896,432.6108 71.8896,429.4897 Q71.8896,426.3604 73.2095,424.7085 Q74.5293,423.0566 77.0361,423.0566 Q77.7417,423.0566 78.3892,423.2061 Q79.0366,423.3555 79.6011,423.6543 L79.6011,426.377 Q78.9702,425.7959 78.3767,425.5261 Q77.7832,425.2563 77.1523,425.2563 Q75.8076,425.2563 75.1228,426.323 Q74.438,427.3896 74.438,429.4897 Q74.438,431.5815 75.1228,432.6482 Q75.8076,433.7148 77.1523,433.7148 Q77.7832,433.7148 78.3767,433.4451 Q78.9702,433.1753 79.6011,432.5942 Z " fill="#000000"/><text fill="#000000" font-family="sans-serif" font-size="14" lengthAdjust="spacing" textLength="53.6826" x="91.1279" y="434.4648">Capture</text></g><!--class EnPassant--><g id="elem_EnPassant"><rect codeLine="102" fill="#FDF5E6" height="32" id="EnPassant" style="stroke:#181818;stroke-width:0.5;" width="99.6758" x="353.084" y="428.4844"/><ellipse cx="368.084" cy="444.4844" fill="#ADD1B2" rx="11" ry="11" style="stroke:#181818;stroke-width:1;"/><path d="M370.5571,450.6274 Q369.9761,450.9263 369.3369,451.0757 Q368.6978,451.2251 367.9922,451.2251 Q365.4854,451.2251 364.1655,449.5732 Q362.8457,447.9214 362.8457,444.8003 Q362.8457,441.6709 364.1655,440.019 Q365.4854,438.3672 367.9922,438.3672 Q368.6978,438.3672 369.3452,438.5166 Q369.9927,438.666 370.5571,438.9648 L370.5571,441.6875 Q369.9263,441.1064 369.3328,440.8367 Q368.7393,440.5669 368.1084,440.5669 Q366.7637,440.5669 366.0789,441.6335 Q365.394,442.7002 365.394,444.8003 Q365.394,446.8921 366.0789,447.9587 Q366.7637,449.0254 368.1084,449.0254 Q368.7393,449.0254 369.3328,448.7556 Q369.9263,448.4858 370.5571,447.9048 Z " fill="#000000"/><text fill="#000000" font-family="sans-serif" font-size="14" lengthAdjust="spacing" textLength="67.6758" x="382.084" y="449.7754">EnPassant</text></g><!--class Castling--><g id="elem_Castling"><rect codeLine="103" fill="#FDF5E6" height="32" id="Castling" style="stroke:#181818;stroke-width:0.5;" width="87.3027" x="472.7598" y="428.4844"/><ellipse cx="487.7598" cy="444.4844" fill="#ADD1B2" rx="11" ry="11" style="stroke:#181818;stroke-width:1;"/><path d="M490.2329,450.6274 Q489.6519,450.9263 489.0127,451.0757 Q488.3735,451.2251 487.668,451.2251 Q485.1611,451.2251 483.8413,449.5732 Q482.5215,447.9214 482.5215,444.8003 Q482.5215,441.6709 483.8413,440.019 Q485.1611,438.3672 487.668,438.3672 Q488.3735,438.3672 489.021,438.5166 Q489.6685,438.666 490.2329,438.9648 L490.2329,441.6875 Q489.6021,441.1064 489.0085,440.8367 Q488.415,440.5669 487.7842,440.5669 Q486.4395,440.5669 485.7546,441.6335 Q485.0698,442.7002 485.0698,444.8003 Q485.0698,446.8921 485.7546,447.9587 Q486.4395,449.0254 487.7842,449.0254 Q488.415,449.0254 489.0085,448.7556 Q489.6021,448.4858 490.2329,447.9048 Z " fill="#000000"/><text fill="#000000" font-family="sans-serif" font-size="14" lengthAdjust="spacing" textLength="55.3027" x="501.7598" y="449.7754">Castling</text></g><!--class Promotion--><g id="elem_Promotion"><rect codeLine="104" fill="#FDF5E6" height="32" id="Promotion" style="stroke:#181818;stroke-width:0.5;" width="102.3076" x="217.9385" y="559.1055"/><ellipse cx="232.9385" cy="575.1055" fill="#ADD1B2" rx="11" ry="11" style="stroke:#181818;stroke-width:1;"/><path d="M235.4116,581.2485 Q234.8306,581.5474 234.1914,581.6968 Q233.5522,581.8462 232.8467,581.8462 Q230.3398,581.8462 229.02,580.1943 Q227.7002,578.5425 227.7002,575.4214 Q227.7002,572.292 229.02,570.6401 Q230.3398,568.9883 232.8467,568.9883 Q233.5522,568.9883 234.1997,569.1377 Q234.8472,569.2871 235.4116,569.5859 L235.4116,572.3086 Q234.7808,571.7275 234.1873,571.4578 Q233.5938,571.188 232.9629,571.188 Q231.6182,571.188 230.9333,572.2546 Q230.2485,573.3213 230.2485,575.4214 Q230.2485,577.5132 230.9333,578.5798 Q231.6182,579.6465 232.9629,579.6465 Q233.5938,579.6465 234.1873,579.3767 Q234.7808,579.1069 235.4116,578.5259 Z " fill="#000000"/><text fill="#000000" font-family="sans-serif" font-size="14" lengthAdjust="spacing" textLength="70.3076" x="246.9385" y="580.3965">Promotion</text></g><!--class PromotionWithCapture--><g id="elem_PromotionWithCapture"><rect codeLine="105" fill="#FDF5E6" height="32" id="PromotionWithCapture" style="stroke:#181818;stroke-width:0.5;" width="185.9385" x="12" y="559.1055"/><ellipse cx="27" cy="575.1055" fill="#ADD1B2" rx="11" ry="11" style="stroke:#181818;stroke-width:1;"/><path d="M29.4731,581.2485 Q28.8921,581.5474 28.2529,581.6968 Q27.6138,581.8462 26.9082,581.8462 Q24.4014,581.8462 23.0815,580.1943 Q21.7617,578.5425 21.7617,575.4214 Q21.7617,572.292 23.0815,570.6401 Q24.4014,568.9883 26.9082,568.9883 Q27.6138,568.9883 28.2612,569.1377 Q28.9087,569.2871 29.4731,569.5859 L29.4731,572.3086 Q28.8423,571.7275 28.2488,571.4578 Q27.6553,571.188 27.0244,571.188 Q25.6797,571.188 24.9949,572.2546 Q24.3101,573.3213 24.3101,575.4214 Q24.3101,577.5132 24.9949,578.5798 Q25.6797,579.6465 27.0244,579.6465 Q27.6553,579.6465 28.2488,579.3767 Q28.8423,579.1069 29.4731,578.5259 Z " fill="#000000"/><text fill="#000000" font-family="sans-serif" font-size="14" lengthAdjust="spacing" textLength="153.9385" x="41" y="580.3965">PromotionWithCapture</text></g><line style="stroke:#181818;stroke-width:1;stroke-dasharray:7.0,7.0;" x1="1299.2091" x2="1299.2091" y1="44" y2="101.3105"/><polygon fill="#FFFFFF" points="1299.2091,44,1292.2091,63,1306.2091,63,1299.2091,44" style="stroke:#181818;stroke-width:1;"/><line style="stroke:#181818;stroke-width:1;stroke-dasharray:7.0,7.0;" x1="901.6175" x2="901.6175" y1="133.3105" y2="209.9316"/><line style="stroke:#181818;stroke-width:1;stroke-dasharray:7.0,7.0;" x1="901.6175" x2="972.1307" y1="209.9316" y2="209.9316"/><line style="stroke:#181818;stroke-width:1;stroke-dasharray:7.0,7.0;" x1="972.1307" x2="972.1307" y1="209.9316" y2="247.2422"/><polygon fill="#FFFFFF" points="901.6175,133.3105,894.6175,152.3105,908.6175,152.3105,901.6175,133.3105" style="stroke:#181818;stroke-width:1;"/><line style="stroke:#181818;stroke-width:1;stroke-dasharray:7.0,7.0;" x1="1026.2674" x2="1026.2674" y1="133.3105" y2="160.6211"/><line style="stroke:#181818;stroke-width:1;stroke-dasharray:7.0,7.0;" x1="1026.2674" x2="887.6175" y1="160.6211" y2="160.6211"/><line style="stroke:#181818;stroke-width:1;stroke-dasharray:7.0,7.0;" x1="887.6175" x2="887.6175" y1="160.6211" y2="219.9316"/><line style="stroke:#181818;stroke-width:1;stroke-dasharray:7.0,7.0;" x1="887.6175" x2="944.2877" y1="219.9316" y2="219.9316"/><line style="stroke:#181818;stroke-width:1;stroke-dasharray:7.0,7.0;" x1="944.2877" x2="944.2877" y1="219.9316" y2="247.2422"/><polygon fill="#FFFFFF" points="1026.2674,133.3105,1019.2674,152.3105,1033.2674,152.3105,1026.2674,133.3105" style="stroke:#181818;stroke-width:1;"/><line style="stroke:#181818;stroke-width:1;stroke-dasharray:7.0,7.0;" x1="1059.3377" x2="1059.3377" y1="133.3105" y2="365.8633"/><line style="stroke:#181818;stroke-width:1;stroke-dasharray:7.0,7.0;" x1="1059.3377" x2="1062.5438" y1="365.8633" y2="365.8633"/><line style="stroke:#181818;stroke-width:1;stroke-dasharray:7.0,7.0;" x1="1062.5438" x2="1062.5438" y1="365.8633" y2="413.1738"/><polygon fill="#FFFFFF" points="1059.3377,133.3105,1052.3377,152.3105,1066.3377,152.3105,1059.3377,133.3105" style="stroke:#181818;stroke-width:1;"/><line style="stroke:#181818;stroke-width:1;" x1="1057.4484" x2="1057.4484" y1="445.1738" y2="482.4844"/><line style="stroke:#181818;stroke-width:1;" x1="1057.4484" x2="869.9532" y1="482.4844" y2="482.4844"/><line style="stroke:#181818;stroke-width:1;" x1="869.9532" x2="869.9532" y1="482.4844" y2="624.6217"/><polygon fill="#FFFFFF" points="1057.4484,445.1738,1050.4484,464.1738,1064.4484,464.1738,1057.4484,445.1738" style="stroke:#181818;stroke-width:1;"/><line style="stroke:#181818;stroke-width:1;stroke-dasharray:7.0,7.0;" x1="634.2412" x2="634.2412" y1="445.1738" y2="531.7949"/><line style="stroke:#181818;stroke-width:1;stroke-dasharray:7.0,7.0;" x1="634.2412" x2="808.4978" y1="531.7949" y2="531.7949"/><line style="stroke:#181818;stroke-width:1;stroke-dasharray:7.0,7.0;" x1="808.4978" x2="808.4978" y1="531.7949" y2="624.6217"/><polygon fill="#FFFFFF" points="634.2412,445.1738,627.2412,464.1738,641.2412,464.1738,634.2412,445.1738" style="stroke:#181818;stroke-width:1;"/><line style="stroke:#181818;stroke-width:1;" x1="1072.7346" x2="1072.7346" y1="445.1738" y2="492.4844"/><line style="stroke:#181818;stroke-width:1;" x1="1072.7346" x2="984.8813" y1="492.4844" y2="492.4844"/><line style="stroke:#181818;stroke-width:1;" x1="984.8813" x2="984.8813" y1="492.4844" y2="559.1055"/><polygon fill="#FFFFFF" points="1072.7346,445.1738,1065.7346,464.1738,1079.7346,464.1738,1072.7346,445.1738" style="stroke:#181818;stroke-width:1;"/><line style="stroke:#181818;stroke-width:1;" x1="894.5354" x2="894.5354" y1="656.6217" y2="708.0352"/><line style="stroke:#181818;stroke-width:1;" x1="894.5354" x2="948.7056" y1="708.0352" y2="708.0352"/><line style="stroke:#181818;stroke-width:1;" x1="948.7056" x2="948.7056" y1="708.0352" y2="748.0352"/><polygon fill="#FFFFFF" points="894.5354,656.6217,887.5354,675.6217,901.5354,675.6217,894.5354,656.6217" style="stroke:#181818;stroke-width:1;"/><line style="stroke:#181818;stroke-width:1;" x1="820.7889" x2="820.7889" y1="656.6217" y2="718.0352"/><line style="stroke:#181818;stroke-width:1;" x1="820.7889" x2="761.4712" y1="718.0352" y2="718.0352"/><line style="stroke:#181818;stroke-width:1;" x1="761.4712" x2="761.4712" y1="718.0352" y2="748.0352"/><polygon fill="#FFFFFF" points="820.7889,656.6217,813.7889,675.6217,827.7889,675.6217,820.7889,656.6217" style="stroke:#181818;stroke-width:1;"/><line style="stroke:#181818;stroke-width:1;" x1="783.9156" x2="783.9156" y1="656.6217" y2="708.0352"/><line style="stroke:#181818;stroke-width:1;" x1="783.9156" x2="664.5386" y1="708.0352" y2="708.0352"/><line style="stroke:#181818;stroke-width:1;" x1="664.5386" x2="664.5386" y1="708.0352" y2="748.0352"/><polygon fill="#FFFFFF" points="783.9156,656.6217,776.9156,675.6217,790.9156,675.6217,783.9156,656.6217" style="stroke:#181818;stroke-width:1;"/><line style="stroke:#181818;stroke-width:1;" x1="857.6621" x2="857.6621" y1="656.6217" y2="748.0352"/><polygon fill="#FFFFFF" points="857.6621,656.6217,850.6621,675.6217,864.6621,675.6217,857.6621,656.6217" style="stroke:#181818;stroke-width:1;"/><line style="stroke:#181818;stroke-width:1;" x1="1042.1621" x2="1042.1621" y1="445.1738" y2="472.4844"/><line style="stroke:#181818;stroke-width:1;" x1="1042.1621" x2="620.2412" y1="472.4844" y2="472.4844"/><line style="stroke:#181818;stroke-width:1;" x1="620.2412" x2="620.2412" y1="472.4844" y2="559.1055"/><polygon fill="#FFFFFF" points="1042.1621,445.1738,1035.1621,464.1738,1049.1621,464.1738,1042.1621,445.1738" style="stroke:#181818;stroke-width:1;"/><line style="stroke:#181818;stroke-width:1;stroke-dasharray:7.0,7.0;" x1="1225.2548" x2="1225.2548" y1="666.9751" y2="873.9668"/><polygon fill="#FFFFFF" points="1225.2548,666.9751,1218.2548,685.9751,1232.2548,685.9751,1225.2548,666.9751" style="stroke:#181818;stroke-width:1;"/><line style="stroke:#181818;stroke-width:1;stroke-dasharray:7.0,7.0;" x1="1259.0382" x2="1259.0382" y1="666.9751" y2="708.0352"/><line style="stroke:#181818;stroke-width:1;stroke-dasharray:7.0,7.0;" x1="1259.0382" x2="1318.2343" y1="708.0352" y2="708.0352"/><line style="stroke:#181818;stroke-width:1;stroke-dasharray:7.0,7.0;" x1="1318.2343" x2="1318.2343" y1="708.0352" y2="748.0352"/><polygon fill="#FFFFFF" points="1259.0382,666.9751,1252.0382,685.9751,1266.0382,685.9751,1259.0382,666.9751" style="stroke:#181818;stroke-width:1;"/><line style="stroke:#181818;stroke-width:1;stroke-dasharray:7.0,7.0;" x1="1191.4713" x2="1191.4713" y1="666.9751" y2="708.0352"/><line style="stroke:#181818;stroke-width:1;stroke-dasharray:7.0,7.0;" x1="1191.4713" x2="1123.3915" y1="708.0352" y2="708.0352"/><line style="stroke:#181818;stroke-width:1;stroke-dasharray:7.0,7.0;" x1="1123.3915" x2="1123.3915" y1="708.0352" y2="748.0352"/><polygon fill="#FFFFFF" points="1191.4713,666.9751,1184.4713,685.9751,1198.4713,685.9751,1191.4713,666.9751" style="stroke:#181818;stroke-width:1;"/><line style="stroke:#181818;stroke-width:1;" x1="1097.1037" x2="1097.1037" y1="780.0352" y2="807.3457"/><line style="stroke:#181818;stroke-width:1;" x1="1097.1037" x2="993.5777" y1="807.3457" y2="807.3457"/><line style="stroke:#181818;stroke-width:1;" x1="993.5777" x2="993.5777" y1="807.3457" y2="873.9668"/><polygon fill="#FFFFFF" points="1097.1037,780.0352,1090.1037,799.0352,1104.1037,799.0352,1097.1037,780.0352" style="stroke:#181818;stroke-width:1;"/><line style="stroke:#181818;stroke-width:1;" x1="485.5105" x2="485.5105" y1="279.2422" y2="316.5527"/><line style="stroke:#181818;stroke-width:1;" x1="485.5105" x2="269.0923" y1="316.5527" y2="316.5527"/><line style="stroke:#181818;stroke-width:1;" x1="269.0923" x2="269.0923" y1="316.5527" y2="413.1738"/><polygon fill="#FFFFFF" points="485.5105,279.2422,478.5105,298.2422,492.5105,298.2422,485.5105,279.2422" style="stroke:#181818;stroke-width:1;"/><line style="stroke:#181818;stroke-width:1;" x1="470.0601" x2="470.0601" y1="279.2422" y2="306.5527"/><line style="stroke:#181818;stroke-width:1;" x1="470.0601" x2="104.9692" y1="306.5527" y2="306.5527"/><line style="stroke:#181818;stroke-width:1;" x1="104.9692" x2="104.9692" y1="306.5527" y2="413.1738"/><polygon fill="#FFFFFF" points="470.0601,279.2422,463.0601,298.2422,477.0601,298.2422,470.0601,279.2422" style="stroke:#181818;stroke-width:1;"/><line style="stroke:#181818;stroke-width:1;" x1="500.9608" x2="500.9608" y1="279.2422" y2="326.5527"/><line style="stroke:#181818;stroke-width:1;" x1="500.9608" x2="402.9219" y1="326.5527" y2="326.5527"/><line style="stroke:#181818;stroke-width:1;" x1="402.9219" x2="402.9219" y1="326.5527" y2="428.4844"/><polygon fill="#FFFFFF" points="500.9608,279.2422,493.9608,298.2422,507.9608,298.2422,500.9608,279.2422" style="stroke:#181818;stroke-width:1;"/><line style="stroke:#181818;stroke-width:1;" x1="516.4111" x2="516.4111" y1="279.2422" y2="428.4844"/><polygon fill="#FFFFFF" points="516.4111,279.2422,509.4111,298.2422,523.4111,298.2422,516.4111,279.2422" style="stroke:#181818;stroke-width:1;"/><line style="stroke:#181818;stroke-width:1;" x1="269.0923" x2="269.0923" y1="445.1738" y2="559.1055"/><polygon fill="#FFFFFF" points="269.0923,445.1738,262.0923,464.1738,276.0923,464.1738,269.0923,445.1738" style="stroke:#181818;stroke-width:1;"/><line style="stroke:#181818;stroke-width:1;" x1="104.9692" x2="104.9692" y1="445.1738" y2="559.1055"/><polygon fill="#FFFFFF" points="104.9692,445.1738,97.9692,464.1738,111.9692,464.1738,104.9692,445.1738" style="stroke:#181818;stroke-width:1;"/><line style="stroke:#181818;stroke-width:1;" x1="1252.3393" x2="1252.3393" y1="44" y2="71.3105"/><line style="stroke:#181818;stroke-width:1;" x1="1252.3393" x2="819.0379" y1="71.3105" y2="71.3105"/><line style="stroke:#181818;stroke-width:1;" x1="819.0379" x2="819.0379" y1="71.3105" y2="365.8633"/><line style="stroke:#181818;stroke-width:1;" x1="819.0379" x2="937.3856" y1="365.8633" y2="365.8633"/><line style="stroke:#181818;stroke-width:1;" x1="937.3856" x2="937.3856" y1="365.8633" y2="428.4844"/><polygon fill="#181818" points="937.3856,428.4844,941.3856,419.4844,937.3856,423.4844,933.3856,419.4844,937.3856,428.4844" style="stroke:#181818;stroke-width:1;"/><text fill="#000000" font-family="sans-serif" font-size="13" lengthAdjust="spacing" textLength="49.9116" x="765.1263" y="195.1895">manage</text><text fill="#000000" font-family="sans-serif" font-size="13" lengthAdjust="spacing" textLength="8.2202" x="1255.3393" y="58.5684">1</text><text fill="#000000" font-family="sans-serif" font-size="13" lengthAdjust="spacing" textLength="8.2202" x="940.3856" y="423.7422">1</text><line style="stroke:#181818;stroke-width:1;" x1="1269.7118" x2="1269.7118" y1="133.3105" y2="170.6211"/><line style="stroke:#181818;stroke-width:1;" x1="1269.7118" x2="999.9737" y1="170.6211" y2="170.6211"/><line style="stroke:#181818;stroke-width:1;" x1="999.9737" x2="999.9737" y1="170.6211" y2="247.2422"/><polygon fill="#181818" points="999.9737,247.2422,1003.9737,238.2422,999.9737,242.2422,995.9737,238.2422,999.9737,247.2422" style="stroke:#181818;stroke-width:1;"/><text fill="#000000" font-family="sans-serif" font-size="13" lengthAdjust="spacing" textLength="21.874" x="974.0997" y="195.1895">has</text><text fill="#000000" font-family="sans-serif" font-size="13" lengthAdjust="spacing" textLength="8.2202" x="1272.7118" y="147.8789">1</text><text fill="#000000" font-family="sans-serif" font-size="13" lengthAdjust="spacing" textLength="8.2202" x="1002.9737" y="242.5">1</text><line style="stroke:#181818;stroke-width:1;" x1="1328.7064" x2="1328.7064" y1="133.3105" y2="160.6211"/><line style="stroke:#181818;stroke-width:1;" x1="1328.7064" x2="1394.5871" y1="160.6211" y2="160.6211"/><line style="stroke:#181818;stroke-width:1;" x1="1394.5871" x2="1394.5871" y1="160.6211" y2="559.1055"/><polygon fill="#181818" points="1394.5871,559.1055,1398.5871,550.1055,1394.5871,554.1055,1390.5871,550.1055,1394.5871,559.1055" style="stroke:#181818;stroke-width:1;"/><text fill="#000000" font-family="sans-serif" font-size="13" lengthAdjust="spacing" textLength="21.874" x="1368.713" y="351.1211">has</text><text fill="#000000" font-family="sans-serif" font-size="13" lengthAdjust="spacing" textLength="8.2202" x="1331.7064" y="147.8789">1</text><text fill="#000000" font-family="sans-serif" font-size="13" lengthAdjust="spacing" textLength="8.2202" x="1397.5871" y="554.3633">1</text><line style="stroke:#181818;stroke-width:1;" x1="1299.2091" x2="1299.2091" y1="133.3105" y2="247.2422"/><polygon fill="#181818" points="1299.2091,247.2422,1303.2091,238.2422,1299.2091,242.2422,1295.2091,238.2422,1299.2091,247.2422" style="stroke:#181818;stroke-width:1;"/><text fill="#000000" font-family="sans-serif" font-size="13" lengthAdjust="spacing" textLength="88.1118" x="1207.0973" y="195.1895">uses statically</text><line style="stroke:#181818;stroke-width:1;" x1="972.1307" x2="972.1307" y1="279.2422" y2="428.4844"/><polygon fill="#181818" points="972.1307,428.4844,976.1307,419.4844,972.1307,423.4844,968.1307,419.4844,972.1307,428.4844" style="stroke:#181818;stroke-width:1;"/><text fill="#000000" font-family="sans-serif" font-size="13" lengthAdjust="spacing" textLength="21.874" x="946.2567" y="351.1211">has</text><text fill="#000000" font-family="sans-serif" font-size="13" lengthAdjust="spacing" textLength="8.2202" x="975.1307" y="293.8105">1</text><text fill="#000000" font-family="sans-serif" font-size="13" lengthAdjust="spacing" textLength="8.2202" x="975.1307" y="423.7422">1</text><line style="stroke:#181818;stroke-width:1;" x1="990.6927" x2="990.6927" y1="279.2422" y2="316.5527"/><line style="stroke:#181818;stroke-width:1;" x1="990.6927" x2="1098.2118" y1="316.5527" y2="316.5527"/><line style="stroke:#181818;stroke-width:1;" x1="1098.2118" x2="1098.2118" y1="316.5527" y2="413.1738"/><polygon fill="#181818" points="1098.2118,413.1738,1102.2118,404.1738,1098.2118,408.1738,1094.2118,404.1738,1098.2118,413.1738" style="stroke:#181818;stroke-width:1;"/><text fill="#000000" font-family="sans-serif" font-size="13" lengthAdjust="spacing" textLength="21.874" x="1072.3377" y="351.1211">has</text><text fill="#000000" font-family="sans-serif" font-size="13" lengthAdjust="spacing" textLength="8.2202" x="993.6927" y="293.8105">1</text><text fill="#000000" font-family="sans-serif" font-size="13" lengthAdjust="spacing" textLength="32.8872" x="1101.2118" y="408.4316">2..32</text><line style="stroke:#181818;stroke-width:1;" x1="935.0067" x2="935.0067" y1="279.2422" y2="306.5527"/><line style="stroke:#181818;stroke-width:1;" x1="935.0067" x2="765.8151" y1="306.5527" y2="306.5527"/><line style="stroke:#181818;stroke-width:1;" x1="765.8151" x2="765.8151" y1="306.5527" y2="428.4844"/><polygon fill="#181818" points="765.8151,428.4844,769.8151,419.4844,765.8151,423.4844,761.8151,419.4844,765.8151,428.4844" style="stroke:#181818;stroke-width:1;"/><text fill="#000000" font-family="sans-serif" font-size="13" lengthAdjust="spacing" textLength="21.874" x="739.9411" y="351.1211">has</text><text fill="#000000" font-family="sans-serif" font-size="13" lengthAdjust="spacing" textLength="8.2202" x="938.0067" y="293.8105">1</text><text fill="#000000" font-family="sans-serif" font-size="13" lengthAdjust="spacing" textLength="32.8872" x="768.8151" y="423.7422">2..32</text><line style="stroke:#181818;stroke-width:1;" x1="1009.2547" x2="1009.2547" y1="279.2422" y2="306.5527"/><line style="stroke:#181818;stroke-width:1;" x1="1009.2547" x2="1355.713" y1="306.5527" y2="306.5527"/><line style="stroke:#181818;stroke-width:1;" x1="1355.713" x2="1355.713" y1="306.5527" y2="531.7949"/><line style="stroke:#181818;stroke-width:1;" x1="1355.713" x2="1367.3319" y1="531.7949" y2="531.7949"/><line style="stroke:#181818;stroke-width:1;" x1="1367.3319" x2="1367.3319" y1="531.7949" y2="559.1055"/><polygon fill="#181818" points="1367.3319,559.1055,1371.3319,550.1055,1367.3319,554.1055,1363.3319,550.1055,1367.3319,559.1055" style="stroke:#181818;stroke-width:1;"/><text fill="#000000" font-family="sans-serif" font-size="13" lengthAdjust="spacing" textLength="21.874" x="1329.839" y="434.0869">has</text><text fill="#000000" font-family="sans-serif" font-size="13" lengthAdjust="spacing" textLength="8.2202" x="1012.2547" y="293.8105">1</text><text fill="#000000" font-family="sans-serif" font-size="13" lengthAdjust="spacing" textLength="8.2202" x="1370.3319" y="554.3633">2</text><line style="stroke:#181818;stroke-width:1;" x1="953.5687" x2="953.5687" y1="279.2422" y2="316.5527"/><line style="stroke:#181818;stroke-width:1;" x1="953.5687" x2="780.1639" y1="316.5527" y2="316.5527"/><line style="stroke:#181818;stroke-width:1;" x1="780.1639" x2="780.1639" y1="316.5527" y2="428.4844"/><polygon fill="#181818" points="780.1639,428.4844,784.1639,419.4844,780.1639,423.4844,776.1639,419.4844,780.1639,428.4844" style="stroke:#181818;stroke-width:1;"/><text fill="#000000" font-family="sans-serif" font-size="13" lengthAdjust="spacing" textLength="21.874" x="785.1639" y="351.1211">has</text><text fill="#000000" font-family="sans-serif" font-size="13" lengthAdjust="spacing" textLength="8.2202" x="956.5687" y="293.8105">1</text><text fill="#000000" font-family="sans-serif" font-size="13" lengthAdjust="spacing" textLength="8.2202" x="783.1639" y="408.4316">2</text><line style="stroke:#181818;stroke-width:1;" x1="1088.0209" x2="1088.0209" y1="445.1738" y2="559.1055"/><polygon fill="#181818" points="1088.0209,559.1055,1092.0209,550.1055,1088.0209,554.1055,1084.0209,550.1055,1088.0209,559.1055" style="stroke:#181818;stroke-width:1;"/><text fill="#000000" font-family="sans-serif" font-size="13" lengthAdjust="spacing" textLength="21.874" x="1062.1469" y="517.0527">has</text><text fill="#000000" font-family="sans-serif" font-size="13" lengthAdjust="spacing" textLength="8.2202" x="1091.0209" y="459.7422">1</text><text fill="#000000" font-family="sans-serif" font-size="13" lengthAdjust="spacing" textLength="8.2202" x="1091.0209" y="554.3633">1</text><line style="stroke:#181818;stroke-width:1;" x1="1118.5934" x2="1118.5934" y1="445.1738" y2="472.4844"/><line style="stroke:#181818;stroke-width:1;" x1="1118.5934" x2="1340.0768" y1="472.4844" y2="472.4844"/><line style="stroke:#181818;stroke-width:1;" x1="1340.0768" x2="1340.0768" y1="472.4844" y2="559.1055"/><polygon fill="#181818" points="1340.0768,559.1055,1344.0768,550.1055,1340.0768,554.1055,1336.0768,550.1055,1340.0768,559.1055" style="stroke:#181818;stroke-width:1;"/><text fill="#000000" font-family="sans-serif" font-size="13" lengthAdjust="spacing" textLength="21.874" x="1314.2028" y="517.0527">has</text><text fill="#000000" font-family="sans-serif" font-size="13" lengthAdjust="spacing" textLength="8.2202" x="1121.5934" y="459.7422">1</text><text fill="#000000" font-family="sans-serif" font-size="13" lengthAdjust="spacing" textLength="8.2202" x="1343.0768" y="554.3633">1</text><line style="stroke:#181818;stroke-width:1;" x1="1103.3072" x2="1103.3072" y1="445.1738" y2="482.4844"/><line style="stroke:#181818;stroke-width:1;" x1="1103.3072" x2="1225.2548" y1="482.4844" y2="482.4844"/><line style="stroke:#181818;stroke-width:1;" x1="1225.2548" x2="1225.2548" y1="482.4844" y2="634.9751"/><polygon fill="#181818" points="1225.2548,634.9751,1229.2548,625.9751,1225.2548,629.9751,1221.2548,625.9751,1225.2548,634.9751" style="stroke:#181818;stroke-width:1;"/><text fill="#000000" font-family="sans-serif" font-size="13" lengthAdjust="spacing" textLength="21.874" x="1199.3808" y="517.0527">has</text><text fill="#000000" font-family="sans-serif" font-size="13" lengthAdjust="spacing" textLength="8.2202" x="1106.3072" y="459.7422">1</text><text fill="#000000" font-family="sans-serif" font-size="13" lengthAdjust="spacing" textLength="22.7119" x="1228.2548" y="630.2329">1..*</text><line style="stroke:#181818;stroke-width:1;" x1="1196.4195" x2="1196.4195" y1="905.9668" y2="999.8984"/><polygon fill="#181818" points="1196.4195,999.8984,1200.4195,990.8984,1196.4195,994.8984,1192.4195,990.8984,1196.4195,999.8984" style="stroke:#181818;stroke-width:1;"/><text fill="#000000" font-family="sans-serif" font-size="13" lengthAdjust="spacing" textLength="21.874" x="1170.5455" y="957.8457">has</text><text fill="#000000" font-family="sans-serif" font-size="13" lengthAdjust="spacing" textLength="6.2651" x="1199.4195" y="920.5352">*</text><text fill="#000000" font-family="sans-serif" font-size="13" lengthAdjust="spacing" textLength="22.7119" x="1199.4195" y="995.1563">1..*</text><line style="stroke:#181818;stroke-width:1;" x1="1149.6793" x2="1149.6793" y1="780.0352" y2="846.6563"/><line style="stroke:#181818;stroke-width:1;" x1="1149.6793" x2="1167.5842" y1="846.6563" y2="846.6563"/><line style="stroke:#181818;stroke-width:1;" x1="1167.5842" x2="1167.5842" y1="846.6563" y2="873.9668"/><polygon fill="#181818" points="1167.5842,873.9668,1171.5842,864.9668,1167.5842,868.9668,1163.5842,864.9668,1167.5842,873.9668" style="stroke:#181818;stroke-width:1;"/><text fill="#000000" font-family="sans-serif" font-size="13" lengthAdjust="spacing" textLength="21.874" x="1123.8052" y="831.9141">has</text><text fill="#000000" font-family="sans-serif" font-size="13" lengthAdjust="spacing" textLength="8.2202" x="1152.6793" y="794.6035">1</text><text fill="#000000" font-family="sans-serif" font-size="13" lengthAdjust="spacing" textLength="22.7119" x="1170.5842" y="869.2246">1..*</text><line style="stroke:#181818;stroke-width:1;" x1="531.8615" x2="531.8615" y1="279.2422" y2="316.5527"/><line style="stroke:#181818;stroke-width:1;" x1="531.8615" x2="660.1061" y1="316.5527" y2="316.5527"/><line style="stroke:#181818;stroke-width:1;" x1="660.1061" x2="660.1061" y1="316.5527" y2="385.8633"/><line style="stroke:#181818;stroke-width:1;" x1="660.1061" x2="722.7687" y1="385.8633" y2="385.8633"/><line style="stroke:#181818;stroke-width:1;" x1="722.7687" x2="722.7687" y1="385.8633" y2="428.4844"/><polygon fill="#181818" points="722.7687,428.4844,726.7687,419.4844,722.7687,423.4844,718.7687,419.4844,722.7687,428.4844" style="stroke:#181818;stroke-width:1;"/><text fill="#000000" font-family="sans-serif" font-size="13" lengthAdjust="spacing" textLength="56.2085" x="599.8976" y="351.1211">has from</text><text fill="#000000" font-family="sans-serif" font-size="13" lengthAdjust="spacing" textLength="8.2202" x="534.8615" y="293.8105">1</text><text fill="#000000" font-family="sans-serif" font-size="13" lengthAdjust="spacing" textLength="8.2202" x="725.7687" y="423.7422">1</text><line style="stroke:#181818;stroke-width:1;" x1="547.3118" x2="547.3118" y1="279.2422" y2="306.5527"/><line style="stroke:#181818;stroke-width:1;" x1="547.3118" x2="671.1061" y1="306.5527" y2="306.5527"/><line style="stroke:#181818;stroke-width:1;" x1="671.1061" x2="671.1061" y1="306.5527" y2="375.8633"/><line style="stroke:#181818;stroke-width:1;" x1="671.1061" x2="737.1175" y1="375.8633" y2="375.8633"/><line style="stroke:#181818;stroke-width:1;" x1="737.1175" x2="737.1175" y1="375.8633" y2="428.4844"/><polygon fill="#181818" points="737.1175,428.4844,741.1175,419.4844,737.1175,423.4844,733.1175,419.4844,737.1175,428.4844" style="stroke:#181818;stroke-width:1;"/><text fill="#000000" font-family="sans-serif" font-size="13" lengthAdjust="spacing" textLength="38.835" x="676.1061" y="351.1211">has to</text><text fill="#000000" font-family="sans-serif" font-size="13" lengthAdjust="spacing" textLength="8.2202" x="550.3118" y="293.8105">1</text><text fill="#000000" font-family="sans-serif" font-size="13" lengthAdjust="spacing" textLength="8.2202" x="740.1175" y="423.7422">1</text><line style="stroke:#181818;stroke-width:1;" x1="726.9411" x2="726.9411" y1="133.3105" y2="365.8633"/><line style="stroke:#181818;stroke-width:1;" x1="726.9411" x2="751.4663" y1="365.8633" y2="365.8633"/><line style="stroke:#181818;stroke-width:1;" x1="751.4663" x2="751.4663" y1="365.8633" y2="428.4844"/><polygon fill="#181818" points="751.4663,428.4844,755.4663,419.4844,751.4663,423.4844,747.4663,419.4844,751.4663,428.4844" style="stroke:#181818;stroke-width:1;"/><text fill="#000000" font-family="sans-serif" font-size="13" lengthAdjust="spacing" textLength="21.874" x="701.0671" y="268.1553">has</text><text fill="#000000" font-family="sans-serif" font-size="13" lengthAdjust="spacing" textLength="8.2202" x="729.9411" y="147.8789">1</text><text fill="#000000" font-family="sans-serif" font-size="13" lengthAdjust="spacing" textLength="6.2651" x="754.4663" y="423.7422">*</text><line style="stroke:#181818;stroke-width:1;" x1="701.9941" x2="701.9941" y1="133.3105" y2="160.6211"/><line style="stroke:#181818;stroke-width:1;" x1="701.9941" x2="508.686" y1="160.6211" y2="160.6211"/><line style="stroke:#181818;stroke-width:1;" x1="508.686" x2="508.686" y1="160.6211" y2="247.2422"/><polygon fill="#181818" points="508.686,247.2422,512.686,238.2422,508.686,242.2422,504.686,238.2422,508.686,247.2422" style="stroke:#181818;stroke-width:1;"/><text fill="#000000" font-family="sans-serif" font-size="13" lengthAdjust="spacing" textLength="21.874" x="482.8119" y="195.1895">has</text><text fill="#000000" font-family="sans-serif" font-size="13" lengthAdjust="spacing" textLength="8.2202" x="704.9941" y="147.8789">1</text><text fill="#000000" font-family="sans-serif" font-size="13" lengthAdjust="spacing" textLength="6.2651" x="511.686" y="242.5">*</text><!--SRC=[bLPRRzem57xFh_3OGwLgPLttLbL8t4eH32Yqut4ooIcnS6nacp5QzR_FZdDnBb2QXvBuVDztBZu-xfUjmEi88ueFVASGq8qNaW0GH5jrG16ea0VINS9A2RBQAP2Ut12snG97Y186wh05n8KcE0R1TopeSi50e6jdtQTOodOgDVGvMv1NA42w1jB1_cQTY50kqDSf3SRO1mStuGhEW2r27F0zOMlqWga4J_4jKXojk58yGW4Hu2l2cUVTINMWqFAGVk8mUmIlZS9Rl6IUvbRmlxeaWRDcdd8OWv1BjGo9WW9ihAjb0JqI3GGS2jPxpbIzzTspV- - -9o7QVRcxIyDfjP1K882RlV0ymlJ7You3weOWPLSB2qufY0BZxTr5FaiGtP0J7ogW2vJ36Zs1ztX5OGwIxuH6zrkD8aFZtoin_2Qmhn76Awa4zfKjE6fqi8GOMbObqPP214p9N2zrTP6m1y_3YXlufu059UKoKHT8SWgV8oTK4qoVhVNELcBCwrwgTMpjS2m2cqRHI3a3K-5AkHoFCRdYC9Fybgl4p5APS_2G4KKmVKr2jEOPbyGSYNW9s2v2CpqbT7kOvYpjjMdCvSFmgH-_TSRjxiZBM0HyUD8TMSEPjPUJ-6K-dOxYbz5aE7XuiZB3nSDq5hy-FlVx5ZWQJWRUaLnYJuLokEcN63F18wwCqU6cMrqlbnyEevV8u3shesM0EUUR353hD8EE65c7wanmXyXGpx3pm8yx07Pk56P8rcVaDkWl_XS6e0SxLbpax5uwIJ7DhKuDZz1iwfzXz8XKcFdm6OxPh2elpRLgoJe_oohfs_lfVDcUznQsJtMtvr_Z_hrjttdMo2dwJsRBLd9GffAZyYKBCnjW4p7voQDdsbYTWxpGMGNwbCVBXOrDWGaNRzLEd8JqsKp_OAPEwqX5AqrKnDWMD0LDGOKegxWbKM4bmEJRf5eUjOqV3NHrrOf_ywlY5aMOuJMWbfxUnNbU8JXYjyZ7bAxqzLv7l6usBnEkVQsz7RM8r3rbN7lkTL7nQuVwBGgnrDXZK6SMrs8DhdR0twATrBsZMrqHazKX9Lg_n-hcU2W1RvhDdpSDTrASWSukbvFO4sdMG6ibRKI5ogNtqOV0OxxBq7ZJYoCdnNkryx1nMQ3cqoMbLKTHoLkjREOqFt25V8e5Uj57Ayte8wp-JxdbsQ6JeIvhIbw5vF8fvZy0]--></g></svg>