<svg xmlns="http://www.w3.org/2000/svg" xmlns:xlink="http://www.w3.org/1999/xlink" contentStyleType="text/css" height="772px" preserveAspectRatio="none" style="width:3606px;height:772px;background:#FFFFFF;" version="1.1" viewBox="0 0 3606 772" width="3606px" zoomAndPan="magnify"><defs/><g><!--cluster chess--><g id="cluster_chess"><polygon fill="none" points="16,6.0137,61.6963,6.0137,68.6963,30.6348,3589,30.6348,3589,765.5137,16,765.5137,16,6.0137" style="stroke:#000000;stroke-width:1.5;"/><line style="stroke:#000000;stroke-width:1.5;" x1="16" x2="68.6963" y1="30.6348" y2="30.6348"/><text fill="#000000" font-family="sans-serif" font-size="14" font-weight="bold" lengthAdjust="spacing" textLength="39.6963" x="20" y="23.1211">chess</text></g><!--cluster view--><g id="cluster_view"><polygon fill="none" points="2061,51.0137,2097.3516,51.0137,2104.3516,75.6348,2952,75.6348,2952,427.5137,2061,427.5137,2061,51.0137" style="stroke:#000000;stroke-width:1.5;"/><line style="stroke:#000000;stroke-width:1.5;" x1="2061" x2="2104.3516" y1="75.6348" y2="75.6348"/><text fill="#000000" font-family="sans-serif" font-size="14" font-weight="bold" lengthAdjust="spacing" textLength="30.3516" x="2065" y="68.1211">view</text></g><!--cluster engine--><g id="cluster_engine"><polygon fill="none" points="40,233.5137,91.1172,233.5137,98.1172,258.1348,2037,258.1348,2037,741.5137,40,741.5137,40,233.5137" style="stroke:#000000;stroke-width:1.5;"/><line style="stroke:#000000;stroke-width:1.5;" x1="40" x2="98.1172" y1="258.1348" y2="258.1348"/><text fill="#000000" font-family="sans-serif" font-size="14" font-weight="bold" lengthAdjust="spacing" textLength="45.1172" x="44" y="250.6211">engine</text></g><!--cluster piece--><g id="cluster_piece"><polygon fill="none" points="711,280.0137,752.7998,280.0137,759.7998,304.6348,1333,304.6348,1333,572.5137,711,572.5137,711,280.0137" style="stroke:#000000;stroke-width:1.5;"/><line style="stroke:#000000;stroke-width:1.5;" x1="711" x2="759.7998" y1="304.6348" y2="304.6348"/><text fill="#000000" font-family="sans-serif" font-size="14" font-weight="bold" lengthAdjust="spacing" textLength="35.7998" x="715" y="297.1211">piece</text></g><!--cluster validation--><g id="cluster_validation"><polygon fill="none" points="1357,471.5137,1428.3447,471.5137,1435.3447,496.1348,2013,496.1348,2013,717.5137,1357,717.5137,1357,471.5137" style="stroke:#000000;stroke-width:1.5;"/><line style="stroke:#000000;stroke-width:1.5;" x1="1357" x2="1435.3447" y1="496.1348" y2="496.1348"/><text fill="#000000" font-family="sans-serif" font-size="14" font-weight="bold" lengthAdjust="spacing" textLength="65.3447" x="1361" y="488.6211">validation</text></g><!--class PieceType--><g id="elem_PieceType"><rect codeLine="9" fill="#FDF5E6" height="159.7266" id="PieceType" style="stroke:#181818;stroke-width:0.5;" width="98.1445" x="1789" y="50.5137"/><ellipse cx="1804" cy="66.5137" fill="#EB937F" rx="11" ry="11" style="stroke:#181818;stroke-width:1.0;"/><path d="M1802.8594,67.3105 L1802.8594,69.8105 L1807.1875,69.8105 L1807.1875,68.8887 Q1807.1875,68.2793 1807.4219,68.0137 Q1807.6719,67.748 1808.0469,67.748 Q1808.4219,67.748 1808.6563,68.0137 Q1808.8906,68.2793 1808.8906,68.8887 L1808.8906,71.5137 L1800.8906,71.5137 Q1800.2656,71.5137 1800,71.2793 Q1799.75,71.0449 1799.75,70.6543 Q1799.75,70.2793 1800.0156,70.0449 Q1800.2813,69.8105 1800.8906,69.8105 L1801.1563,69.8105 L1801.1563,63.1543 L1800.8906,63.1543 Q1800.2656,63.1543 1800,62.9199 Q1799.75,62.6855 1799.75,62.2949 Q1799.75,61.9199 1800,61.6855 Q1800.2656,61.4512 1800.8906,61.4512 L1808.5156,61.4512 L1808.5156,64.0449 Q1808.5156,64.6543 1808.2813,64.9199 Q1808.0625,65.1699 1807.6719,65.1699 Q1807.2969,65.1699 1807.0625,64.9199 Q1806.8281,64.6543 1806.8281,64.0449 L1806.8281,63.1543 L1802.8594,63.1543 L1802.8594,65.6074 L1804.3438,65.6074 Q1804.3438,64.9512 1804.4688,64.7637 Q1804.7344,64.3574 1805.2031,64.3574 Q1805.5781,64.3574 1805.8125,64.623 Q1806.0469,64.873 1806.0469,65.4824 L1806.0469,67.4512 Q1806.0469,67.998 1805.9219,68.1855 Q1805.6563,68.5762 1805.2031,68.5762 Q1804.7344,68.5762 1804.4688,68.1699 Q1804.3438,67.9824 1804.3438,67.3105 L1802.8594,67.3105 Z " fill="#000000"/><text fill="#000000" font-family="sans-serif" font-size="14" lengthAdjust="spacing" textLength="66.1445" x="1818" y="72.3105">PieceType</text><line style="stroke:#181818;stroke-width:0.5;" x1="1790" x2="1886.1445" y1="82.5137" y2="82.5137"/><text fill="#000000" font-family="sans-serif" font-size="14" lengthAdjust="spacing" textLength="42" x="1795" y="101.6211">PAWN</text><text fill="#000000" font-family="sans-serif" font-size="14" lengthAdjust="spacing" textLength="41.2275" x="1795" y="120.2422">ROOK</text><text fill="#000000" font-family="sans-serif" font-size="14" lengthAdjust="spacing" textLength="52.8896" x="1795" y="138.8633">KNIGHT</text><text fill="#000000" font-family="sans-serif" font-size="14" lengthAdjust="spacing" textLength="52.9033" x="1795" y="157.4844">BISHOP</text><text fill="#000000" font-family="sans-serif" font-size="14" lengthAdjust="spacing" textLength="49.7861" x="1795" y="176.1055">QUEEN</text><text fill="#000000" font-family="sans-serif" font-size="14" lengthAdjust="spacing" textLength="34.2275" x="1795" y="194.7266">KING</text><line style="stroke:#181818;stroke-width:0.5;" x1="1790" x2="1886.1445" y1="202.2402" y2="202.2402"/></g><!--class PlayerColor--><g id="elem_PlayerColor"><rect codeLine="18" fill="#FDF5E6" height="85.2422" id="PlayerColor" style="stroke:#181818;stroke-width:0.5;" width="105.1377" x="1491.5" y="88.0137"/><ellipse cx="1506.5" cy="104.0137" fill="#EB937F" rx="11" ry="11" style="stroke:#181818;stroke-width:1.0;"/><path d="M1505.3594,104.8105 L1505.3594,107.3105 L1509.6875,107.3105 L1509.6875,106.3887 Q1509.6875,105.7793 1509.9219,105.5137 Q1510.1719,105.248 1510.5469,105.248 Q1510.9219,105.248 1511.1563,105.5137 Q1511.3906,105.7793 1511.3906,106.3887 L1511.3906,109.0137 L1503.3906,109.0137 Q1502.7656,109.0137 1502.5,108.7793 Q1502.25,108.5449 1502.25,108.1543 Q1502.25,107.7793 1502.5156,107.5449 Q1502.7813,107.3105 1503.3906,107.3105 L1503.6563,107.3105 L1503.6563,100.6543 L1503.3906,100.6543 Q1502.7656,100.6543 1502.5,100.4199 Q1502.25,100.1855 1502.25,99.7949 Q1502.25,99.4199 1502.5,99.1855 Q1502.7656,98.9512 1503.3906,98.9512 L1511.0156,98.9512 L1511.0156,101.5449 Q1511.0156,102.1543 1510.7813,102.4199 Q1510.5625,102.6699 1510.1719,102.6699 Q1509.7969,102.6699 1509.5625,102.4199 Q1509.3281,102.1543 1509.3281,101.5449 L1509.3281,100.6543 L1505.3594,100.6543 L1505.3594,103.1074 L1506.8438,103.1074 Q1506.8438,102.4512 1506.9688,102.2637 Q1507.2344,101.8574 1507.7031,101.8574 Q1508.0781,101.8574 1508.3125,102.123 Q1508.5469,102.373 1508.5469,102.9824 L1508.5469,104.9512 Q1508.5469,105.498 1508.4219,105.6855 Q1508.1563,106.0762 1507.7031,106.0762 Q1507.2344,106.0762 1506.9688,105.6699 Q1506.8438,105.4824 1506.8438,104.8105 L1505.3594,104.8105 Z " fill="#000000"/><text fill="#000000" font-family="sans-serif" font-size="14" lengthAdjust="spacing" textLength="73.1377" x="1520.5" y="109.8105">PlayerColor</text><line style="stroke:#181818;stroke-width:0.5;" x1="1492.5" x2="1595.6377" y1="120.0137" y2="120.0137"/><text fill="#000000" font-family="sans-serif" font-size="14" lengthAdjust="spacing" textLength="45.1035" x="1497.5" y="139.1211">WHITE</text><text fill="#000000" font-family="sans-serif" font-size="14" lengthAdjust="spacing" textLength="45.9102" x="1497.5" y="157.7422">BLACK</text><line style="stroke:#181818;stroke-width:0.5;" x1="1492.5" x2="1595.6377" y1="165.2559" y2="165.2559"/></g><!--class ChessController--><g id="elem_ChessController"><rect codeLine="23" fill="#FDF5E6" height="103.8633" id="ChessController" style="stroke:#181818;stroke-width:0.5;" width="351.6436" x="3008" y="289.0137"/><ellipse cx="3129.3857" cy="305.0137" fill="#B4A7E5" rx="11" ry="11" style="stroke:#181818;stroke-width:1.0;"/><path d="M3130.3389,301.6543 L3130.3389,308.3105 L3132.0576,308.3105 Q3132.667,308.3105 3132.9326,308.5449 Q3133.1982,308.7793 3133.1982,309.1699 Q3133.1982,309.5449 3132.9326,309.7793 Q3132.667,310.0137 3132.0576,310.0137 L3126.917,310.0137 Q3126.3076,310.0137 3126.042,309.7793 Q3125.7764,309.5449 3125.7764,309.1543 Q3125.7764,308.7793 3126.042,308.5449 Q3126.3076,308.3105 3126.917,308.3105 L3128.6357,308.3105 L3128.6357,301.6543 L3126.917,301.6543 Q3126.3076,301.6543 3126.042,301.4199 Q3125.7764,301.1855 3125.7764,300.7949 Q3125.7764,300.4199 3126.042,300.1855 Q3126.3076,299.9512 3126.917,299.9512 L3132.0576,299.9512 Q3132.667,299.9512 3132.9326,300.1855 Q3133.1982,300.4199 3133.1982,300.7949 Q3133.1982,301.1855 3132.9326,301.4199 Q3132.667,301.6543 3132.0576,301.6543 L3130.3389,301.6543 Z " fill="#000000"/><text fill="#000000" font-family="sans-serif" font-size="14" font-style="italic" lengthAdjust="spacing" textLength="100.3721" x="3149.8857" y="310.8105">ChessController</text><line style="stroke:#181818;stroke-width:0.5;" x1="3009" x2="3358.6436" y1="321.0137" y2="321.0137"/><line style="stroke:#181818;stroke-width:0.5;" x1="3009" x2="3358.6436" y1="329.0137" y2="329.0137"/><text fill="#000000" font-family="sans-serif" font-size="14" lengthAdjust="spacing" textLength="184.0029" x="3014" y="348.1211">+start(view: ChessView): void</text><text fill="#000000" font-family="sans-serif" font-size="14" lengthAdjust="spacing" textLength="114.7686" x="3014" y="366.7422">+newGame(): void</text><text fill="#000000" font-family="sans-serif" font-size="14" lengthAdjust="spacing" textLength="339.6436" x="3014" y="385.3633">+move(fromX: int, fromY: int, toX: int, toY: int): boolean</text></g><!--class UserChoice--><g id="elem_UserChoice"><rect codeLine="29" fill="#FDF5E6" height="66.6211" id="UserChoice" style="stroke:#181818;stroke-width:0.5;" width="132.2236" x="1009" y="97.0137"/><ellipse cx="1036.1887" cy="113.0137" fill="#B4A7E5" rx="11" ry="11" style="stroke:#181818;stroke-width:1.0;"/><path d="M1037.1418,109.6543 L1037.1418,116.3105 L1038.8605,116.3105 Q1039.4699,116.3105 1039.7355,116.5449 Q1040.0012,116.7793 1040.0012,117.1699 Q1040.0012,117.5449 1039.7355,117.7793 Q1039.4699,118.0137 1038.8605,118.0137 L1033.7199,118.0137 Q1033.1105,118.0137 1032.8449,117.7793 Q1032.5793,117.5449 1032.5793,117.1543 Q1032.5793,116.7793 1032.8449,116.5449 Q1033.1105,116.3105 1033.7199,116.3105 L1035.4387,116.3105 L1035.4387,109.6543 L1033.7199,109.6543 Q1033.1105,109.6543 1032.8449,109.4199 Q1032.5793,109.1855 1032.5793,108.7949 Q1032.5793,108.4199 1032.8449,108.1855 Q1033.1105,107.9512 1033.7199,107.9512 L1038.8605,107.9512 Q1039.4699,107.9512 1039.7355,108.1855 Q1040.0012,108.4199 1040.0012,108.7949 Q1040.0012,109.1855 1039.7355,109.4199 Q1039.4699,109.6543 1038.8605,109.6543 L1037.1418,109.6543 Z " fill="#000000"/><text fill="#000000" font-family="sans-serif" font-size="14" font-style="italic" lengthAdjust="spacing" textLength="73.1377" x="1052.8973" y="118.8105">UserChoice</text><line style="stroke:#181818;stroke-width:0.5;" x1="1010" x2="1140.2236" y1="129.0137" y2="129.0137"/><line style="stroke:#181818;stroke-width:0.5;" x1="1010" x2="1140.2236" y1="137.0137" y2="137.0137"/><text fill="#000000" font-family="sans-serif" font-size="14" lengthAdjust="spacing" textLength="120.2236" x="1015" y="156.1211">+textValue(): String</text></g><!--class DrawableResource<E>--><g id="elem_DrawableResource&lt;E&gt;"><rect codeLine="33" fill="#FDF5E6" height="66.6211" id="DrawableResource&lt;E&gt;" style="stroke:#181818;stroke-width:0.5;" width="176.7441" x="3395.5" y="307.5137"/><ellipse cx="3410.5" cy="323.5137" fill="#B4A7E5" rx="11" ry="11" style="stroke:#181818;stroke-width:1.0;"/><path d="M3411.4531,320.1543 L3411.4531,326.8105 L3413.1719,326.8105 Q3413.7813,326.8105 3414.0469,327.0449 Q3414.3125,327.2793 3414.3125,327.6699 Q3414.3125,328.0449 3414.0469,328.2793 Q3413.7813,328.5137 3413.1719,328.5137 L3408.0313,328.5137 Q3407.4219,328.5137 3407.1563,328.2793 Q3406.8906,328.0449 3406.8906,327.6543 Q3406.8906,327.2793 3407.1563,327.0449 Q3407.4219,326.8105 3408.0313,326.8105 L3409.75,326.8105 L3409.75,320.1543 L3408.0313,320.1543 Q3407.4219,320.1543 3407.1563,319.9199 Q3406.8906,319.6855 3406.8906,319.2949 Q3406.8906,318.9199 3407.1563,318.6855 Q3407.4219,318.4512 3408.0313,318.4512 L3413.1719,318.4512 Q3413.7813,318.4512 3414.0469,318.6855 Q3414.3125,318.9199 3414.3125,319.2949 Q3414.3125,319.6855 3414.0469,319.9199 Q3413.7813,320.1543 3413.1719,320.1543 L3411.4531,320.1543 Z " fill="#000000"/><text fill="#000000" font-family="sans-serif" font-size="14" font-style="italic" lengthAdjust="spacing" textLength="144.7441" x="3424.5" y="329.3105">DrawableResource&lt;E&gt;</text><line style="stroke:#181818;stroke-width:0.5;" x1="3396.5" x2="3571.2441" y1="339.5137" y2="339.5137"/><line style="stroke:#181818;stroke-width:0.5;" x1="3396.5" x2="3571.2441" y1="347.5137" y2="347.5137"/><text fill="#000000" font-family="sans-serif" font-size="14" lengthAdjust="spacing" textLength="113.9961" x="3401.5" y="366.6211">+getResource(): E</text></g><!--class ChessView--><g id="elem_ChessView"><rect codeLine="37" fill="#FDF5E6" height="122.4844" id="ChessView" style="stroke:#181818;stroke-width:0.5;" width="411.5605" x="2872" y="471.5137"/><ellipse cx="3038.5166" cy="487.5137" fill="#B4A7E5" rx="11" ry="11" style="stroke:#181818;stroke-width:1.0;"/><path d="M3039.4697,484.1543 L3039.4697,490.8105 L3041.1885,490.8105 Q3041.7979,490.8105 3042.0635,491.0449 Q3042.3291,491.2793 3042.3291,491.6699 Q3042.3291,492.0449 3042.0635,492.2793 Q3041.7979,492.5137 3041.1885,492.5137 L3036.0479,492.5137 Q3035.4385,492.5137 3035.1729,492.2793 Q3034.9072,492.0449 3034.9072,491.6543 Q3034.9072,491.2793 3035.1729,491.0449 Q3035.4385,490.8105 3036.0479,490.8105 L3037.7666,490.8105 L3037.7666,484.1543 L3036.0479,484.1543 Q3035.4385,484.1543 3035.1729,483.9199 Q3034.9072,483.6855 3034.9072,483.2949 Q3034.9072,482.9199 3035.1729,482.6855 Q3035.4385,482.4512 3036.0479,482.4512 L3041.1885,482.4512 Q3041.7979,482.4512 3042.0635,482.6855 Q3042.3291,482.9199 3042.3291,483.2949 Q3042.3291,483.6855 3042.0635,483.9199 Q3041.7979,484.1543 3041.1885,484.1543 L3039.4697,484.1543 Z " fill="#000000"/><text fill="#000000" font-family="sans-serif" font-size="14" font-style="italic" lengthAdjust="spacing" textLength="70.0273" x="3059.0166" y="493.3105">ChessView</text><line style="stroke:#181818;stroke-width:0.5;" x1="2873" x2="3282.5605" y1="503.5137" y2="503.5137"/><line style="stroke:#181818;stroke-width:0.5;" x1="2873" x2="3282.5605" y1="511.5137" y2="511.5137"/><text fill="#000000" font-family="sans-serif" font-size="14" lengthAdjust="spacing" textLength="108.5342" x="2878" y="530.6211">+startView(): void</text><text fill="#000000" font-family="sans-serif" font-size="14" lengthAdjust="spacing" textLength="199.5752" x="2878" y="549.2422">+removePiece(x: int, y: int): void</text><text fill="#000000" font-family="sans-serif" font-size="14" lengthAdjust="spacing" textLength="399.5605" x="2878" y="567.8633">+putPiece(type: PieceType, color: PlayerColor, x: int, y: int): void</text><text fill="#000000" font-family="sans-serif" font-size="14" lengthAdjust="spacing" textLength="222.1475" x="2878" y="586.4844">+displayMessage(msg: String): void</text></g><g id="elem_GMN9"><path d="M2463,519.0137 L2463,546.3047 A0,0 0 0 0 2463,546.3047 L2836.5869,546.3047 A0,0 0 0 0 2836.5869,546.3047 L2836.5869,537.0137 L2871.7,532.5137 L2836.5869,529.0137 L2836.5869,529.0137 L2826.5869,519.0137 L2463,519.0137 A0,0 0 0 0 2463,519.0137 " fill="#FDF5E6" style="stroke:#181818;stroke-width:0.5;"/><path d="M2826.5869,519.0137 L2826.5869,529.0137 L2836.5869,529.0137 L2826.5869,519.0137 " fill="#FDF5E6" style="stroke:#181818;stroke-width:0.5;"/><text fill="#000000" font-family="sans-serif" font-size="13" lengthAdjust="spacing" textLength="352.5869" x="2469" y="538.042">T implements User Choice: &lt;T extends User Choice&gt; in Java</text></g><!--class BaseView<E>--><g id="elem_BaseView&lt;E&gt;"><rect codeLine="49" fill="#FDF5E6" height="85.2422" id="BaseView&lt;E&gt;" style="stroke:#181818;stroke-width:0.5;" width="603.3838" x="2332.5" y="88.0137"/><ellipse cx="2585.9697" cy="104.0137" fill="#A9DCDF" rx="11" ry="11" style="stroke:#181818;stroke-width:1.0;"/><path d="M2588.1572,105.7793 L2584.0166,105.7793 L2583.5947,106.8105 L2584.0166,106.8105 Q2584.626,106.8105 2584.8916,107.0449 Q2585.1572,107.2793 2585.1572,107.6699 Q2585.1572,108.0449 2584.8916,108.2793 Q2584.626,108.5137 2584.0166,108.5137 L2581.7197,108.5137 Q2581.1104,108.5137 2580.8604,108.2793 Q2580.5947,108.0449 2580.5947,107.6543 Q2580.5947,107.2793 2580.876,107.0449 Q2581.1416,106.7949 2581.7666,106.8105 L2584.4385,100.1543 L2583.3291,100.1543 Q2582.7197,100.1543 2582.4541,99.9199 Q2582.1885,99.6855 2582.1885,99.2949 Q2582.1885,98.9199 2582.4541,98.6855 Q2582.7197,98.4512 2583.3291,98.4512 L2587.001,98.4512 L2590.3916,106.8105 Q2590.9854,106.8105 2591.1729,106.9512 Q2591.5635,107.2168 2591.5635,107.6699 Q2591.5635,108.0449 2591.2979,108.2793 Q2591.0479,108.5137 2590.4385,108.5137 L2588.1416,108.5137 Q2587.5322,108.5137 2587.2666,108.2793 Q2587.001,108.0449 2587.001,107.6543 Q2587.001,107.2793 2587.2666,107.0449 Q2587.5322,106.8105 2588.1416,106.8105 L2588.5635,106.8105 L2588.1572,105.7793 Z M2587.4385,104.0762 L2586.0791,100.7012 L2584.7041,104.0762 L2587.4385,104.0762 Z " fill="#000000"/><text fill="#000000" font-family="sans-serif" font-size="14" font-style="italic" lengthAdjust="spacing" textLength="87.9443" x="2606.4697" y="109.8105">BaseView&lt;E&gt;</text><line style="stroke:#181818;stroke-width:0.5;" x1="2333.5" x2="2934.8838" y1="120.0137" y2="120.0137"/><line style="stroke:#181818;stroke-width:0.5;" x1="2333.5" x2="2934.8838" y1="128.0137" y2="128.0137"/><text fill="#000000" font-family="sans-serif" font-size="14" lengthAdjust="spacing" textLength="556.7393" x="2338.5" y="147.1211">+registerResource(type: PieceType, color: PlayerColor, res: DrawableResource&lt;E&gt;): void</text><text fill="#000000" font-family="sans-serif" font-size="14" lengthAdjust="spacing" textLength="591.3838" x="2338.5" y="165.7422">#loadResourceFor(type: PieceType, color: PlayerColor, def: Resource): DrawableResource&lt;E&gt;</text></g><!--class GUIView--><g id="elem_GUIView"><rect codeLine="54" fill="#FDF5E6" height="141.1055" id="GUIView" style="stroke:#181818;stroke-width:0.5;" width="411.5605" x="2077" y="270.5137"/><ellipse cx="2250.9131" cy="286.5137" fill="#ADD1B2" rx="11" ry="11" style="stroke:#181818;stroke-width:1.0;"/><path d="M2253.6787,282.3887 Q2253.835,282.1699 2254.0225,282.0605 Q2254.21,281.9512 2254.4287,281.9512 Q2254.8037,281.9512 2255.0381,282.2168 Q2255.2725,282.4668 2255.2725,283.0762 L2255.2725,284.5293 Q2255.2725,285.1387 2255.0381,285.4043 Q2254.8037,285.6699 2254.4287,285.6699 Q2254.085,285.6699 2253.8818,285.4668 Q2253.6787,285.2793 2253.5693,284.7637 Q2253.5225,284.4043 2253.335,284.2168 Q2253.0068,283.8418 2252.3975,283.623 Q2251.7881,283.4043 2251.1631,283.4043 Q2250.3975,283.4043 2249.7568,283.7324 Q2249.1318,284.0605 2248.6318,284.8105 Q2248.1475,285.5605 2248.1475,286.5918 L2248.1475,287.6855 Q2248.1475,288.9199 2249.0381,289.748 Q2249.9287,290.5605 2251.5225,290.5605 Q2252.46,290.5605 2253.1162,290.3105 Q2253.5068,290.1543 2253.9287,289.7168 Q2254.1943,289.4512 2254.335,289.373 Q2254.4912,289.2949 2254.6943,289.2949 Q2255.0225,289.2949 2255.2725,289.5605 Q2255.5381,289.8105 2255.5381,290.1543 Q2255.5381,290.498 2255.1943,290.9043 Q2254.6943,291.4824 2253.8975,291.8105 Q2252.8193,292.2637 2251.5225,292.2637 Q2250.0068,292.2637 2248.8037,291.6387 Q2247.8193,291.1387 2247.1318,290.0762 Q2246.4443,288.998 2246.4443,287.7168 L2246.4443,286.5605 Q2246.4443,285.2324 2247.0537,284.0918 Q2247.6787,282.9355 2248.7725,282.3262 Q2249.8662,281.7012 2251.1006,281.7012 Q2251.835,281.7012 2252.4756,281.873 Q2253.1318,282.0293 2253.6787,282.3887 Z " fill="#000000"/><text fill="#000000" font-family="sans-serif" font-size="14" lengthAdjust="spacing" textLength="55.2344" x="2271.4131" y="292.3105">GUIView</text><line style="stroke:#181818;stroke-width:0.5;" x1="2078" x2="2487.5605" y1="302.5137" y2="302.5137"/><line style="stroke:#181818;stroke-width:0.5;" x1="2078" x2="2487.5605" y1="310.5137" y2="310.5137"/><text fill="#000000" font-family="sans-serif" font-size="14" lengthAdjust="spacing" textLength="108.5342" x="2083" y="329.6211">+startView(): void</text><text fill="#000000" font-family="sans-serif" font-size="14" lengthAdjust="spacing" textLength="199.5752" x="2083" y="348.2422">+removePiece(x: int, y: int): void</text><text fill="#000000" font-family="sans-serif" font-size="14" lengthAdjust="spacing" textLength="399.5605" x="2083" y="366.8633">+putPiece(x: int, y: int, type: PieceType, color: PlayerColor): void</text><text fill="#000000" font-family="sans-serif" font-size="14" lengthAdjust="spacing" textLength="222.1475" x="2083" y="385.4844">+displayMessage(msg: String): void</text><text fill="#000000" font-family="sans-serif" font-size="14" lengthAdjust="spacing" textLength="388.6436" x="2083" y="404.1055">+askUser&lt;T&gt;(title: String, question: String, possibilities: ...T): T</text></g><!--class ConsoleView--><g id="elem_ConsoleView"><rect codeLine="62" fill="#FDF5E6" height="141.1055" id="ConsoleView" style="stroke:#181818;stroke-width:0.5;" width="411.5605" x="2524" y="270.5137"/><ellipse cx="2684.6753" cy="286.5137" fill="#ADD1B2" rx="11" ry="11" style="stroke:#181818;stroke-width:1.0;"/><path d="M2687.4409,282.3887 Q2687.5972,282.1699 2687.7847,282.0605 Q2687.9722,281.9512 2688.1909,281.9512 Q2688.5659,281.9512 2688.8003,282.2168 Q2689.0347,282.4668 2689.0347,283.0762 L2689.0347,284.5293 Q2689.0347,285.1387 2688.8003,285.4043 Q2688.5659,285.6699 2688.1909,285.6699 Q2687.8472,285.6699 2687.644,285.4668 Q2687.4409,285.2793 2687.3315,284.7637 Q2687.2847,284.4043 2687.0972,284.2168 Q2686.769,283.8418 2686.1597,283.623 Q2685.5503,283.4043 2684.9253,283.4043 Q2684.1597,283.4043 2683.519,283.7324 Q2682.894,284.0605 2682.394,284.8105 Q2681.9097,285.5605 2681.9097,286.5918 L2681.9097,287.6855 Q2681.9097,288.9199 2682.8003,289.748 Q2683.6909,290.5605 2685.2847,290.5605 Q2686.2222,290.5605 2686.8784,290.3105 Q2687.269,290.1543 2687.6909,289.7168 Q2687.9565,289.4512 2688.0972,289.373 Q2688.2534,289.2949 2688.4565,289.2949 Q2688.7847,289.2949 2689.0347,289.5605 Q2689.3003,289.8105 2689.3003,290.1543 Q2689.3003,290.498 2688.9565,290.9043 Q2688.4565,291.4824 2687.6597,291.8105 Q2686.5815,292.2637 2685.2847,292.2637 Q2683.769,292.2637 2682.5659,291.6387 Q2681.5815,291.1387 2680.894,290.0762 Q2680.2065,288.998 2680.2065,287.7168 L2680.2065,286.5605 Q2680.2065,285.2324 2680.8159,284.0918 Q2681.4409,282.9355 2682.5347,282.3262 Q2683.6284,281.7012 2684.8628,281.7012 Q2685.5972,281.7012 2686.2378,281.873 Q2686.894,282.0293 2687.4409,282.3887 Z " fill="#000000"/><text fill="#000000" font-family="sans-serif" font-size="14" lengthAdjust="spacing" textLength="81.71" x="2705.1753" y="292.3105">ConsoleView</text><line style="stroke:#181818;stroke-width:0.5;" x1="2525" x2="2934.5605" y1="302.5137" y2="302.5137"/><line style="stroke:#181818;stroke-width:0.5;" x1="2525" x2="2934.5605" y1="310.5137" y2="310.5137"/><text fill="#000000" font-family="sans-serif" font-size="14" lengthAdjust="spacing" textLength="108.5342" x="2530" y="329.6211">+startView(): void</text><text fill="#000000" font-family="sans-serif" font-size="14" lengthAdjust="spacing" textLength="199.5752" x="2530" y="348.2422">+removePiece(x: int, y: int): void</text><text fill="#000000" font-family="sans-serif" font-size="14" lengthAdjust="spacing" textLength="399.5605" x="2530" y="366.8633">+putPiece(x: int, y: int, type: PieceType, color: PlayerColor): void</text><text fill="#000000" font-family="sans-serif" font-size="14" lengthAdjust="spacing" textLength="222.1475" x="2530" y="385.4844">+displayMessage(msg: String): void</text><text fill="#000000" font-family="sans-serif" font-size="14" lengthAdjust="spacing" textLength="388.6436" x="2530" y="404.1055">+askUser&lt;T&gt;(title: String, question: String, possibilities: ...T): T</text></g><!--class ChessEngine--><g id="elem_ChessEngine"><rect codeLine="72" fill="#FDF5E6" height="85.2422" id="ChessEngine" style="stroke:#181818;stroke-width:0.5;" width="334.4922" x="56" y="298.5137"/><ellipse cx="177.3584" cy="314.5137" fill="#ADD1B2" rx="11" ry="11" style="stroke:#181818;stroke-width:1.0;"/><path d="M180.124,310.3887 Q180.2803,310.1699 180.4678,310.0605 Q180.6553,309.9512 180.874,309.9512 Q181.249,309.9512 181.4834,310.2168 Q181.7178,310.4668 181.7178,311.0762 L181.7178,312.5293 Q181.7178,313.1387 181.4834,313.4043 Q181.249,313.6699 180.874,313.6699 Q180.5303,313.6699 180.3271,313.4668 Q180.124,313.2793 180.0146,312.7637 Q179.9678,312.4043 179.7803,312.2168 Q179.4521,311.8418 178.8428,311.623 Q178.2334,311.4043 177.6084,311.4043 Q176.8428,311.4043 176.2021,311.7324 Q175.5771,312.0605 175.0771,312.8105 Q174.5928,313.5605 174.5928,314.5918 L174.5928,315.6855 Q174.5928,316.9199 175.4834,317.748 Q176.374,318.5605 177.9678,318.5605 Q178.9053,318.5605 179.5615,318.3105 Q179.9521,318.1543 180.374,317.7168 Q180.6396,317.4512 180.7803,317.373 Q180.9365,317.2949 181.1396,317.2949 Q181.4678,317.2949 181.7178,317.5605 Q181.9834,317.8105 181.9834,318.1543 Q181.9834,318.498 181.6396,318.9043 Q181.1396,319.4824 180.3428,319.8105 Q179.2646,320.2637 177.9678,320.2637 Q176.4521,320.2637 175.249,319.6387 Q174.2646,319.1387 173.5771,318.0762 Q172.8896,316.998 172.8896,315.7168 L172.8896,314.5605 Q172.8896,313.2324 173.499,312.0918 Q174.124,310.9355 175.2178,310.3262 Q176.3115,309.7012 177.5459,309.7012 Q178.2803,309.7012 178.9209,309.873 Q179.5771,310.0293 180.124,310.3887 Z " fill="#000000"/><text fill="#000000" font-family="sans-serif" font-size="14" lengthAdjust="spacing" textLength="83.2754" x="197.8584" y="320.3105">ChessEngine</text><line style="stroke:#181818;stroke-width:0.5;" x1="57" x2="389.4922" y1="330.5137" y2="330.5137"/><line style="stroke:#181818;stroke-width:0.5;" x1="57" x2="389.4922" y1="338.5137" y2="338.5137"/><text fill="#000000" font-family="sans-serif" font-size="14" lengthAdjust="spacing" textLength="116.3135" x="62" y="357.6211">+startGame(): void</text><text fill="#000000" font-family="sans-serif" font-size="14" lengthAdjust="spacing" textLength="322.4922" x="62" y="376.2422">+movePiece(fromX: int, fromY: int, x: int, y: int): void</text></g><!--class GameState--><g id="elem_GameState"><rect codeLine="85" fill="#FDF5E6" height="141.1055" id="GameState" style="stroke:#181818;stroke-width:0.5;" width="113.1377" x="425.5" y="270.5137"/><ellipse cx="445.1459" cy="286.5137" fill="#ADD1B2" rx="11" ry="11" style="stroke:#181818;stroke-width:1.0;"/><path d="M447.9115,282.3887 Q448.0678,282.1699 448.2553,282.0605 Q448.4428,281.9512 448.6615,281.9512 Q449.0365,281.9512 449.2709,282.2168 Q449.5053,282.4668 449.5053,283.0762 L449.5053,284.5293 Q449.5053,285.1387 449.2709,285.4043 Q449.0365,285.6699 448.6615,285.6699 Q448.3178,285.6699 448.1146,285.4668 Q447.9115,285.2793 447.8021,284.7637 Q447.7553,284.4043 447.5678,284.2168 Q447.2396,283.8418 446.6303,283.623 Q446.0209,283.4043 445.3959,283.4043 Q444.6303,283.4043 443.9896,283.7324 Q443.3646,284.0605 442.8646,284.8105 Q442.3803,285.5605 442.3803,286.5918 L442.3803,287.6855 Q442.3803,288.9199 443.2709,289.748 Q444.1615,290.5605 445.7553,290.5605 Q446.6928,290.5605 447.349,290.3105 Q447.7396,290.1543 448.1615,289.7168 Q448.4271,289.4512 448.5678,289.373 Q448.724,289.2949 448.9271,289.2949 Q449.2553,289.2949 449.5053,289.5605 Q449.7709,289.8105 449.7709,290.1543 Q449.7709,290.498 449.4271,290.9043 Q448.9271,291.4824 448.1303,291.8105 Q447.0521,292.2637 445.7553,292.2637 Q444.2396,292.2637 443.0365,291.6387 Q442.0521,291.1387 441.3646,290.0762 Q440.6771,288.998 440.6771,287.7168 L440.6771,286.5605 Q440.6771,285.2324 441.2865,284.0918 Q441.9115,282.9355 443.0053,282.3262 Q444.099,281.7012 445.3334,281.7012 Q446.0678,281.7012 446.7084,281.873 Q447.3646,282.0293 447.9115,282.3887 Z " fill="#000000"/><text fill="#000000" font-family="sans-serif" font-size="14" lengthAdjust="spacing" textLength="70.8135" x="460.1783" y="292.3105">GameState</text><line style="stroke:#181818;stroke-width:0.5;" x1="426.5" x2="537.6377" y1="302.5137" y2="302.5137"/><text fill="#000000" font-family="sans-serif" font-size="14" lengthAdjust="spacing" textLength="101.1377" x="431.5" y="321.6211">IN_PROGRESS</text><text fill="#000000" font-family="sans-serif" font-size="14" lengthAdjust="spacing" textLength="49.0068" x="431.5" y="340.2422">CHECK</text><text fill="#000000" font-family="sans-serif" font-size="14" lengthAdjust="spacing" textLength="87.8965" x="431.5" y="358.8633">CHECKMATE</text><text fill="#000000" font-family="sans-serif" font-size="14" lengthAdjust="spacing" textLength="83.2412" x="431.5" y="377.4844">STALEMATE</text><text fill="#000000" font-family="sans-serif" font-size="14" lengthAdjust="spacing" textLength="42.7725" x="431.5" y="396.1055">DRAW</text><line style="stroke:#181818;stroke-width:0.5;" x1="426.5" x2="537.6377" y1="403.6191" y2="403.6191"/></g><!--class MoveValidator--><g id="elem_MoveValidator"><rect codeLine="87" fill="#FDF5E6" height="48" id="MoveValidator" style="stroke:#181818;stroke-width:0.5;" width="121.4893" x="573.5" y="317.0137"/><ellipse cx="588.5" cy="333.0137" fill="#ADD1B2" rx="11" ry="11" style="stroke:#181818;stroke-width:1.0;"/><path d="M591.2656,328.8887 Q591.4219,328.6699 591.6094,328.5605 Q591.7969,328.4512 592.0156,328.4512 Q592.3906,328.4512 592.625,328.7168 Q592.8594,328.9668 592.8594,329.5762 L592.8594,331.0293 Q592.8594,331.6387 592.625,331.9043 Q592.3906,332.1699 592.0156,332.1699 Q591.6719,332.1699 591.4688,331.9668 Q591.2656,331.7793 591.1563,331.2637 Q591.1094,330.9043 590.9219,330.7168 Q590.5938,330.3418 589.9844,330.123 Q589.375,329.9043 588.75,329.9043 Q587.9844,329.9043 587.3438,330.2324 Q586.7188,330.5605 586.2188,331.3105 Q585.7344,332.0605 585.7344,333.0918 L585.7344,334.1855 Q585.7344,335.4199 586.625,336.248 Q587.5156,337.0605 589.1094,337.0605 Q590.0469,337.0605 590.7031,336.8105 Q591.0938,336.6543 591.5156,336.2168 Q591.7813,335.9512 591.9219,335.873 Q592.0781,335.7949 592.2813,335.7949 Q592.6094,335.7949 592.8594,336.0605 Q593.125,336.3105 593.125,336.6543 Q593.125,336.998 592.7813,337.4043 Q592.2813,337.9824 591.4844,338.3105 Q590.4063,338.7637 589.1094,338.7637 Q587.5938,338.7637 586.3906,338.1387 Q585.4063,337.6387 584.7188,336.5762 Q584.0313,335.498 584.0313,334.2168 L584.0313,333.0605 Q584.0313,331.7324 584.6406,330.5918 Q585.2656,329.4355 586.3594,328.8262 Q587.4531,328.2012 588.6875,328.2012 Q589.4219,328.2012 590.0625,328.373 Q590.7188,328.5293 591.2656,328.8887 Z " fill="#000000"/><text fill="#000000" font-family="sans-serif" font-size="14" lengthAdjust="spacing" textLength="89.4893" x="602.5" y="338.8105">MoveValidator</text><line style="stroke:#181818;stroke-width:0.5;" x1="574.5" x2="693.9893" y1="349.0137" y2="349.0137"/><line style="stroke:#181818;stroke-width:0.5;" x1="574.5" x2="693.9893" y1="357.0137" y2="357.0137"/></g><!--class MoveGenerator--><g id="elem_MoveGenerator"><rect codeLine="89" fill="#FDF5E6" height="48" id="MoveGenerator" style="stroke:#181818;stroke-width:0.5;" width="129.2686" x="158.5" y="508.5137"/><ellipse cx="173.5" cy="524.5137" fill="#ADD1B2" rx="11" ry="11" style="stroke:#181818;stroke-width:1.0;"/><path d="M176.2656,520.3887 Q176.4219,520.1699 176.6094,520.0605 Q176.7969,519.9512 177.0156,519.9512 Q177.3906,519.9512 177.625,520.2168 Q177.8594,520.4668 177.8594,521.0762 L177.8594,522.5293 Q177.8594,523.1387 177.625,523.4043 Q177.3906,523.6699 177.0156,523.6699 Q176.6719,523.6699 176.4688,523.4668 Q176.2656,523.2793 176.1563,522.7637 Q176.1094,522.4043 175.9219,522.2168 Q175.5938,521.8418 174.9844,521.623 Q174.375,521.4043 173.75,521.4043 Q172.9844,521.4043 172.3438,521.7324 Q171.7188,522.0605 171.2188,522.8105 Q170.7344,523.5605 170.7344,524.5918 L170.7344,525.6855 Q170.7344,526.9199 171.625,527.748 Q172.5156,528.5605 174.1094,528.5605 Q175.0469,528.5605 175.7031,528.3105 Q176.0938,528.1543 176.5156,527.7168 Q176.7813,527.4512 176.9219,527.373 Q177.0781,527.2949 177.2813,527.2949 Q177.6094,527.2949 177.8594,527.5605 Q178.125,527.8105 178.125,528.1543 Q178.125,528.498 177.7813,528.9043 Q177.2813,529.4824 176.4844,529.8105 Q175.4063,530.2637 174.1094,530.2637 Q172.5938,530.2637 171.3906,529.6387 Q170.4063,529.1387 169.7188,528.0762 Q169.0313,526.998 169.0313,525.7168 L169.0313,524.5605 Q169.0313,523.2324 169.6406,522.0918 Q170.2656,520.9355 171.3594,520.3262 Q172.4531,519.7012 173.6875,519.7012 Q174.4219,519.7012 175.0625,519.873 Q175.7188,520.0293 176.2656,520.3887 Z " fill="#000000"/><text fill="#000000" font-family="sans-serif" font-size="14" lengthAdjust="spacing" textLength="97.2686" x="187.5" y="530.3105">MoveGenerator</text><line style="stroke:#181818;stroke-width:0.5;" x1="159.5" x2="286.7686" y1="540.5137" y2="540.5137"/><line style="stroke:#181818;stroke-width:0.5;" x1="159.5" x2="286.7686" y1="548.5137" y2="548.5137"/></g><!--class ChessBoard--><g id="elem_ChessBoard"><rect codeLine="91" fill="#FDF5E6" height="48" id="ChessBoard" style="stroke:#181818;stroke-width:0.5;" width="109.041" x="322.5" y="508.5137"/><ellipse cx="337.5" cy="524.5137" fill="#ADD1B2" rx="11" ry="11" style="stroke:#181818;stroke-width:1.0;"/><path d="M340.2656,520.3887 Q340.4219,520.1699 340.6094,520.0605 Q340.7969,519.9512 341.0156,519.9512 Q341.3906,519.9512 341.625,520.2168 Q341.8594,520.4668 341.8594,521.0762 L341.8594,522.5293 Q341.8594,523.1387 341.625,523.4043 Q341.3906,523.6699 341.0156,523.6699 Q340.6719,523.6699 340.4688,523.4668 Q340.2656,523.2793 340.1563,522.7637 Q340.1094,522.4043 339.9219,522.2168 Q339.5938,521.8418 338.9844,521.623 Q338.375,521.4043 337.75,521.4043 Q336.9844,521.4043 336.3438,521.7324 Q335.7188,522.0605 335.2188,522.8105 Q334.7344,523.5605 334.7344,524.5918 L334.7344,525.6855 Q334.7344,526.9199 335.625,527.748 Q336.5156,528.5605 338.1094,528.5605 Q339.0469,528.5605 339.7031,528.3105 Q340.0938,528.1543 340.5156,527.7168 Q340.7813,527.4512 340.9219,527.373 Q341.0781,527.2949 341.2813,527.2949 Q341.6094,527.2949 341.8594,527.5605 Q342.125,527.8105 342.125,528.1543 Q342.125,528.498 341.7813,528.9043 Q341.2813,529.4824 340.4844,529.8105 Q339.4063,530.2637 338.1094,530.2637 Q336.5938,530.2637 335.3906,529.6387 Q334.4063,529.1387 333.7188,528.0762 Q333.0313,526.998 333.0313,525.7168 L333.0313,524.5605 Q333.0313,523.2324 333.6406,522.0918 Q334.2656,520.9355 335.3594,520.3262 Q336.4531,519.7012 337.6875,519.7012 Q338.4219,519.7012 339.0625,519.873 Q339.7188,520.0293 340.2656,520.3887 Z " fill="#000000"/><text fill="#000000" font-family="sans-serif" font-size="14" lengthAdjust="spacing" textLength="77.041" x="351.5" y="530.3105">ChessBoard</text><line style="stroke:#181818;stroke-width:0.5;" x1="323.5" x2="430.541" y1="540.5137" y2="540.5137"/><line style="stroke:#181818;stroke-width:0.5;" x1="323.5" x2="430.541" y1="548.5137" y2="548.5137"/></g><!--class BitBoard--><g id="elem_BitBoard"><rect codeLine="93" fill="#FDF5E6" height="48" id="BitBoard" style="stroke:#181818;stroke-width:0.5;" width="85.6963" x="467" y="508.5137"/><ellipse cx="482" cy="524.5137" fill="#ADD1B2" rx="11" ry="11" style="stroke:#181818;stroke-width:1.0;"/><path d="M484.7656,520.3887 Q484.9219,520.1699 485.1094,520.0605 Q485.2969,519.9512 485.5156,519.9512 Q485.8906,519.9512 486.125,520.2168 Q486.3594,520.4668 486.3594,521.0762 L486.3594,522.5293 Q486.3594,523.1387 486.125,523.4043 Q485.8906,523.6699 485.5156,523.6699 Q485.1719,523.6699 484.9688,523.4668 Q484.7656,523.2793 484.6563,522.7637 Q484.6094,522.4043 484.4219,522.2168 Q484.0938,521.8418 483.4844,521.623 Q482.875,521.4043 482.25,521.4043 Q481.4844,521.4043 480.8438,521.7324 Q480.2188,522.0605 479.7188,522.8105 Q479.2344,523.5605 479.2344,524.5918 L479.2344,525.6855 Q479.2344,526.9199 480.125,527.748 Q481.0156,528.5605 482.6094,528.5605 Q483.5469,528.5605 484.2031,528.3105 Q484.5938,528.1543 485.0156,527.7168 Q485.2813,527.4512 485.4219,527.373 Q485.5781,527.2949 485.7813,527.2949 Q486.1094,527.2949 486.3594,527.5605 Q486.625,527.8105 486.625,528.1543 Q486.625,528.498 486.2813,528.9043 Q485.7813,529.4824 484.9844,529.8105 Q483.9063,530.2637 482.6094,530.2637 Q481.0938,530.2637 479.8906,529.6387 Q478.9063,529.1387 478.2188,528.0762 Q477.5313,526.998 477.5313,525.7168 L477.5313,524.5605 Q477.5313,523.2324 478.1406,522.0918 Q478.7656,520.9355 479.8594,520.3262 Q480.9531,519.7012 482.1875,519.7012 Q482.9219,519.7012 483.5625,519.873 Q484.2188,520.0293 484.7656,520.3887 Z " fill="#000000"/><text fill="#000000" font-family="sans-serif" font-size="14" lengthAdjust="spacing" textLength="53.6963" x="496" y="530.3105">BitBoard</text><line style="stroke:#181818;stroke-width:0.5;" x1="468" x2="551.6963" y1="540.5137" y2="540.5137"/><line style="stroke:#181818;stroke-width:0.5;" x1="468" x2="551.6963" y1="548.5137" y2="548.5137"/></g><!--class ChessPiece--><g id="elem_ChessPiece"><rect codeLine="96" fill="#FDF5E6" height="48" id="ChessPiece" style="stroke:#181818;stroke-width:0.5;" width="106.7031" x="1021.5" y="317.0137"/><ellipse cx="1036.5" cy="333.0137" fill="#A9DCDF" rx="11" ry="11" style="stroke:#181818;stroke-width:1.0;"/><path d="M1038.6875,334.7793 L1034.5469,334.7793 L1034.125,335.8105 L1034.5469,335.8105 Q1035.1563,335.8105 1035.4219,336.0449 Q1035.6875,336.2793 1035.6875,336.6699 Q1035.6875,337.0449 1035.4219,337.2793 Q1035.1563,337.5137 1034.5469,337.5137 L1032.25,337.5137 Q1031.6406,337.5137 1031.3906,337.2793 Q1031.125,337.0449 1031.125,336.6543 Q1031.125,336.2793 1031.4063,336.0449 Q1031.6719,335.7949 1032.2969,335.8105 L1034.9688,329.1543 L1033.8594,329.1543 Q1033.25,329.1543 1032.9844,328.9199 Q1032.7188,328.6855 1032.7188,328.2949 Q1032.7188,327.9199 1032.9844,327.6855 Q1033.25,327.4512 1033.8594,327.4512 L1037.5313,327.4512 L1040.9219,335.8105 Q1041.5156,335.8105 1041.7031,335.9512 Q1042.0938,336.2168 1042.0938,336.6699 Q1042.0938,337.0449 1041.8281,337.2793 Q1041.5781,337.5137 1040.9688,337.5137 L1038.6719,337.5137 Q1038.0625,337.5137 1037.7969,337.2793 Q1037.5313,337.0449 1037.5313,336.6543 Q1037.5313,336.2793 1037.7969,336.0449 Q1038.0625,335.8105 1038.6719,335.8105 L1039.0938,335.8105 L1038.6875,334.7793 Z M1037.9688,333.0762 L1036.6094,329.7012 L1035.2344,333.0762 L1037.9688,333.0762 Z " fill="#000000"/><text fill="#000000" font-family="sans-serif" font-size="14" font-style="italic" lengthAdjust="spacing" textLength="74.7031" x="1050.5" y="338.8105">ChessPiece</text><line style="stroke:#181818;stroke-width:0.5;" x1="1022.5" x2="1127.2031" y1="349.0137" y2="349.0137"/><line style="stroke:#181818;stroke-width:0.5;" x1="1022.5" x2="1127.2031" y1="357.0137" y2="357.0137"/></g><!--class Pawn--><g id="elem_Pawn"><rect codeLine="97" fill="#FDF5E6" height="48" id="Pawn" style="stroke:#181818;stroke-width:0.5;" width="67.0205" x="727.5" y="508.5137"/><ellipse cx="742.5" cy="524.5137" fill="#ADD1B2" rx="11" ry="11" style="stroke:#181818;stroke-width:1.0;"/><path d="M745.2656,520.3887 Q745.4219,520.1699 745.6094,520.0605 Q745.7969,519.9512 746.0156,519.9512 Q746.3906,519.9512 746.625,520.2168 Q746.8594,520.4668 746.8594,521.0762 L746.8594,522.5293 Q746.8594,523.1387 746.625,523.4043 Q746.3906,523.6699 746.0156,523.6699 Q745.6719,523.6699 745.4688,523.4668 Q745.2656,523.2793 745.1563,522.7637 Q745.1094,522.4043 744.9219,522.2168 Q744.5938,521.8418 743.9844,521.623 Q743.375,521.4043 742.75,521.4043 Q741.9844,521.4043 741.3438,521.7324 Q740.7188,522.0605 740.2188,522.8105 Q739.7344,523.5605 739.7344,524.5918 L739.7344,525.6855 Q739.7344,526.9199 740.625,527.748 Q741.5156,528.5605 743.1094,528.5605 Q744.0469,528.5605 744.7031,528.3105 Q745.0938,528.1543 745.5156,527.7168 Q745.7813,527.4512 745.9219,527.373 Q746.0781,527.2949 746.2813,527.2949 Q746.6094,527.2949 746.8594,527.5605 Q747.125,527.8105 747.125,528.1543 Q747.125,528.498 746.7813,528.9043 Q746.2813,529.4824 745.4844,529.8105 Q744.4063,530.2637 743.1094,530.2637 Q741.5938,530.2637 740.3906,529.6387 Q739.4063,529.1387 738.7188,528.0762 Q738.0313,526.998 738.0313,525.7168 L738.0313,524.5605 Q738.0313,523.2324 738.6406,522.0918 Q739.2656,520.9355 740.3594,520.3262 Q741.4531,519.7012 742.6875,519.7012 Q743.4219,519.7012 744.0625,519.873 Q744.7188,520.0293 745.2656,520.3887 Z " fill="#000000"/><text fill="#000000" font-family="sans-serif" font-size="14" lengthAdjust="spacing" textLength="35.0205" x="756.5" y="530.3105">Pawn</text><line style="stroke:#181818;stroke-width:0.5;" x1="728.5" x2="793.5205" y1="540.5137" y2="540.5137"/><line style="stroke:#181818;stroke-width:0.5;" x1="728.5" x2="793.5205" y1="548.5137" y2="548.5137"/></g><!--class Rook--><g id="elem_Rook"><rect codeLine="98" fill="#FDF5E6" height="48" id="Rook" style="stroke:#181818;stroke-width:0.5;" width="64.6826" x="829.5" y="508.5137"/><ellipse cx="844.5" cy="524.5137" fill="#ADD1B2" rx="11" ry="11" style="stroke:#181818;stroke-width:1.0;"/><path d="M847.2656,520.3887 Q847.4219,520.1699 847.6094,520.0605 Q847.7969,519.9512 848.0156,519.9512 Q848.3906,519.9512 848.625,520.2168 Q848.8594,520.4668 848.8594,521.0762 L848.8594,522.5293 Q848.8594,523.1387 848.625,523.4043 Q848.3906,523.6699 848.0156,523.6699 Q847.6719,523.6699 847.4688,523.4668 Q847.2656,523.2793 847.1563,522.7637 Q847.1094,522.4043 846.9219,522.2168 Q846.5938,521.8418 845.9844,521.623 Q845.375,521.4043 844.75,521.4043 Q843.9844,521.4043 843.3438,521.7324 Q842.7188,522.0605 842.2188,522.8105 Q841.7344,523.5605 841.7344,524.5918 L841.7344,525.6855 Q841.7344,526.9199 842.625,527.748 Q843.5156,528.5605 845.1094,528.5605 Q846.0469,528.5605 846.7031,528.3105 Q847.0938,528.1543 847.5156,527.7168 Q847.7813,527.4512 847.9219,527.373 Q848.0781,527.2949 848.2813,527.2949 Q848.6094,527.2949 848.8594,527.5605 Q849.125,527.8105 849.125,528.1543 Q849.125,528.498 848.7813,528.9043 Q848.2813,529.4824 847.4844,529.8105 Q846.4063,530.2637 845.1094,530.2637 Q843.5938,530.2637 842.3906,529.6387 Q841.4063,529.1387 840.7188,528.0762 Q840.0313,526.998 840.0313,525.7168 L840.0313,524.5605 Q840.0313,523.2324 840.6406,522.0918 Q841.2656,520.9355 842.3594,520.3262 Q843.4531,519.7012 844.6875,519.7012 Q845.4219,519.7012 846.0625,519.873 Q846.7188,520.0293 847.2656,520.3887 Z " fill="#000000"/><text fill="#000000" font-family="sans-serif" font-size="14" lengthAdjust="spacing" textLength="32.6826" x="858.5" y="530.3105">Rook</text><line style="stroke:#181818;stroke-width:0.5;" x1="830.5" x2="893.1826" y1="540.5137" y2="540.5137"/><line style="stroke:#181818;stroke-width:0.5;" x1="830.5" x2="893.1826" y1="548.5137" y2="548.5137"/></g><!--class Knight--><g id="elem_Knight"><rect codeLine="99" fill="#FDF5E6" height="48" id="Knight" style="stroke:#181818;stroke-width:0.5;" width="71.6963" x="930" y="508.5137"/><ellipse cx="945" cy="524.5137" fill="#ADD1B2" rx="11" ry="11" style="stroke:#181818;stroke-width:1.0;"/><path d="M947.7656,520.3887 Q947.9219,520.1699 948.1094,520.0605 Q948.2969,519.9512 948.5156,519.9512 Q948.8906,519.9512 949.125,520.2168 Q949.3594,520.4668 949.3594,521.0762 L949.3594,522.5293 Q949.3594,523.1387 949.125,523.4043 Q948.8906,523.6699 948.5156,523.6699 Q948.1719,523.6699 947.9688,523.4668 Q947.7656,523.2793 947.6563,522.7637 Q947.6094,522.4043 947.4219,522.2168 Q947.0938,521.8418 946.4844,521.623 Q945.875,521.4043 945.25,521.4043 Q944.4844,521.4043 943.8438,521.7324 Q943.2188,522.0605 942.7188,522.8105 Q942.2344,523.5605 942.2344,524.5918 L942.2344,525.6855 Q942.2344,526.9199 943.125,527.748 Q944.0156,528.5605 945.6094,528.5605 Q946.5469,528.5605 947.2031,528.3105 Q947.5938,528.1543 948.0156,527.7168 Q948.2813,527.4512 948.4219,527.373 Q948.5781,527.2949 948.7813,527.2949 Q949.1094,527.2949 949.3594,527.5605 Q949.625,527.8105 949.625,528.1543 Q949.625,528.498 949.2813,528.9043 Q948.7813,529.4824 947.9844,529.8105 Q946.9063,530.2637 945.6094,530.2637 Q944.0938,530.2637 942.8906,529.6387 Q941.9063,529.1387 941.2188,528.0762 Q940.5313,526.998 940.5313,525.7168 L940.5313,524.5605 Q940.5313,523.2324 941.1406,522.0918 Q941.7656,520.9355 942.8594,520.3262 Q943.9531,519.7012 945.1875,519.7012 Q945.9219,519.7012 946.5625,519.873 Q947.2188,520.0293 947.7656,520.3887 Z " fill="#000000"/><text fill="#000000" font-family="sans-serif" font-size="14" lengthAdjust="spacing" textLength="39.6963" x="959" y="530.3105">Knight</text><line style="stroke:#181818;stroke-width:0.5;" x1="931" x2="1000.6963" y1="540.5137" y2="540.5137"/><line style="stroke:#181818;stroke-width:0.5;" x1="931" x2="1000.6963" y1="548.5137" y2="548.5137"/></g><!--class Bishop--><g id="elem_Bishop"><rect codeLine="100" fill="#FDF5E6" height="48" id="Bishop" style="stroke:#181818;stroke-width:0.5;" width="74.8066" x="1037.5" y="508.5137"/><ellipse cx="1052.5" cy="524.5137" fill="#ADD1B2" rx="11" ry="11" style="stroke:#181818;stroke-width:1.0;"/><path d="M1055.2656,520.3887 Q1055.4219,520.1699 1055.6094,520.0605 Q1055.7969,519.9512 1056.0156,519.9512 Q1056.3906,519.9512 1056.625,520.2168 Q1056.8594,520.4668 1056.8594,521.0762 L1056.8594,522.5293 Q1056.8594,523.1387 1056.625,523.4043 Q1056.3906,523.6699 1056.0156,523.6699 Q1055.6719,523.6699 1055.4688,523.4668 Q1055.2656,523.2793 1055.1563,522.7637 Q1055.1094,522.4043 1054.9219,522.2168 Q1054.5938,521.8418 1053.9844,521.623 Q1053.375,521.4043 1052.75,521.4043 Q1051.9844,521.4043 1051.3438,521.7324 Q1050.7188,522.0605 1050.2188,522.8105 Q1049.7344,523.5605 1049.7344,524.5918 L1049.7344,525.6855 Q1049.7344,526.9199 1050.625,527.748 Q1051.5156,528.5605 1053.1094,528.5605 Q1054.0469,528.5605 1054.7031,528.3105 Q1055.0938,528.1543 1055.5156,527.7168 Q1055.7813,527.4512 1055.9219,527.373 Q1056.0781,527.2949 1056.2813,527.2949 Q1056.6094,527.2949 1056.8594,527.5605 Q1057.125,527.8105 1057.125,528.1543 Q1057.125,528.498 1056.7813,528.9043 Q1056.2813,529.4824 1055.4844,529.8105 Q1054.4063,530.2637 1053.1094,530.2637 Q1051.5938,530.2637 1050.3906,529.6387 Q1049.4063,529.1387 1048.7188,528.0762 Q1048.0313,526.998 1048.0313,525.7168 L1048.0313,524.5605 Q1048.0313,523.2324 1048.6406,522.0918 Q1049.2656,520.9355 1050.3594,520.3262 Q1051.4531,519.7012 1052.6875,519.7012 Q1053.4219,519.7012 1054.0625,519.873 Q1054.7188,520.0293 1055.2656,520.3887 Z " fill="#000000"/><text fill="#000000" font-family="sans-serif" font-size="14" lengthAdjust="spacing" textLength="42.8066" x="1066.5" y="530.3105">Bishop</text><line style="stroke:#181818;stroke-width:0.5;" x1="1038.5" x2="1111.3066" y1="540.5137" y2="540.5137"/><line style="stroke:#181818;stroke-width:0.5;" x1="1038.5" x2="1111.3066" y1="548.5137" y2="548.5137"/></g><!--class Queen--><g id="elem_Queen"><rect codeLine="101" fill="#FDF5E6" height="48" id="Queen" style="stroke:#181818;stroke-width:0.5;" width="74.0342" x="1148" y="508.5137"/><ellipse cx="1163" cy="524.5137" fill="#ADD1B2" rx="11" ry="11" style="stroke:#181818;stroke-width:1.0;"/><path d="M1165.7656,520.3887 Q1165.9219,520.1699 1166.1094,520.0605 Q1166.2969,519.9512 1166.5156,519.9512 Q1166.8906,519.9512 1167.125,520.2168 Q1167.3594,520.4668 1167.3594,521.0762 L1167.3594,522.5293 Q1167.3594,523.1387 1167.125,523.4043 Q1166.8906,523.6699 1166.5156,523.6699 Q1166.1719,523.6699 1165.9688,523.4668 Q1165.7656,523.2793 1165.6563,522.7637 Q1165.6094,522.4043 1165.4219,522.2168 Q1165.0938,521.8418 1164.4844,521.623 Q1163.875,521.4043 1163.25,521.4043 Q1162.4844,521.4043 1161.8438,521.7324 Q1161.2188,522.0605 1160.7188,522.8105 Q1160.2344,523.5605 1160.2344,524.5918 L1160.2344,525.6855 Q1160.2344,526.9199 1161.125,527.748 Q1162.0156,528.5605 1163.6094,528.5605 Q1164.5469,528.5605 1165.2031,528.3105 Q1165.5938,528.1543 1166.0156,527.7168 Q1166.2813,527.4512 1166.4219,527.373 Q1166.5781,527.2949 1166.7813,527.2949 Q1167.1094,527.2949 1167.3594,527.5605 Q1167.625,527.8105 1167.625,528.1543 Q1167.625,528.498 1167.2813,528.9043 Q1166.7813,529.4824 1165.9844,529.8105 Q1164.9063,530.2637 1163.6094,530.2637 Q1162.0938,530.2637 1160.8906,529.6387 Q1159.9063,529.1387 1159.2188,528.0762 Q1158.5313,526.998 1158.5313,525.7168 L1158.5313,524.5605 Q1158.5313,523.2324 1159.1406,522.0918 Q1159.7656,520.9355 1160.8594,520.3262 Q1161.9531,519.7012 1163.1875,519.7012 Q1163.9219,519.7012 1164.5625,519.873 Q1165.2188,520.0293 1165.7656,520.3887 Z " fill="#000000"/><text fill="#000000" font-family="sans-serif" font-size="14" lengthAdjust="spacing" textLength="42.0342" x="1177" y="530.3105">Queen</text><line style="stroke:#181818;stroke-width:0.5;" x1="1149" x2="1221.0342" y1="540.5137" y2="540.5137"/><line style="stroke:#181818;stroke-width:0.5;" x1="1149" x2="1221.0342" y1="548.5137" y2="548.5137"/></g><!--class King--><g id="elem_King"><rect codeLine="102" fill="#FDF5E6" height="48" id="King" style="stroke:#181818;stroke-width:0.5;" width="60.0205" x="1257" y="508.5137"/><ellipse cx="1272" cy="524.5137" fill="#ADD1B2" rx="11" ry="11" style="stroke:#181818;stroke-width:1.0;"/><path d="M1274.7656,520.3887 Q1274.9219,520.1699 1275.1094,520.0605 Q1275.2969,519.9512 1275.5156,519.9512 Q1275.8906,519.9512 1276.125,520.2168 Q1276.3594,520.4668 1276.3594,521.0762 L1276.3594,522.5293 Q1276.3594,523.1387 1276.125,523.4043 Q1275.8906,523.6699 1275.5156,523.6699 Q1275.1719,523.6699 1274.9688,523.4668 Q1274.7656,523.2793 1274.6563,522.7637 Q1274.6094,522.4043 1274.4219,522.2168 Q1274.0938,521.8418 1273.4844,521.623 Q1272.875,521.4043 1272.25,521.4043 Q1271.4844,521.4043 1270.8438,521.7324 Q1270.2188,522.0605 1269.7188,522.8105 Q1269.2344,523.5605 1269.2344,524.5918 L1269.2344,525.6855 Q1269.2344,526.9199 1270.125,527.748 Q1271.0156,528.5605 1272.6094,528.5605 Q1273.5469,528.5605 1274.2031,528.3105 Q1274.5938,528.1543 1275.0156,527.7168 Q1275.2813,527.4512 1275.4219,527.373 Q1275.5781,527.2949 1275.7813,527.2949 Q1276.1094,527.2949 1276.3594,527.5605 Q1276.625,527.8105 1276.625,528.1543 Q1276.625,528.498 1276.2813,528.9043 Q1275.7813,529.4824 1274.9844,529.8105 Q1273.9063,530.2637 1272.6094,530.2637 Q1271.0938,530.2637 1269.8906,529.6387 Q1268.9063,529.1387 1268.2188,528.0762 Q1267.5313,526.998 1267.5313,525.7168 L1267.5313,524.5605 Q1267.5313,523.2324 1268.1406,522.0918 Q1268.7656,520.9355 1269.8594,520.3262 Q1270.9531,519.7012 1272.1875,519.7012 Q1272.9219,519.7012 1273.5625,519.873 Q1274.2188,520.0293 1274.7656,520.3887 Z " fill="#000000"/><text fill="#000000" font-family="sans-serif" font-size="14" lengthAdjust="spacing" textLength="28.0205" x="1286" y="530.3105">King</text><line style="stroke:#181818;stroke-width:0.5;" x1="1258" x2="1316.0205" y1="540.5137" y2="540.5137"/><line style="stroke:#181818;stroke-width:0.5;" x1="1258" x2="1316.0205" y1="548.5137" y2="548.5137"/></g><!--class MoveValidationStrategy--><g id="elem_MoveValidationStrategy"><rect codeLine="107" fill="#FDF5E6" height="48" id="MoveValidationStrategy" style="stroke:#181818;stroke-width:0.5;" width="179.8613" x="1483" y="508.5137"/><ellipse cx="1498" cy="524.5137" fill="#B4A7E5" rx="11" ry="11" style="stroke:#181818;stroke-width:1.0;"/><path d="M1498.9531,521.1543 L1498.9531,527.8105 L1500.6719,527.8105 Q1501.2813,527.8105 1501.5469,528.0449 Q1501.8125,528.2793 1501.8125,528.6699 Q1501.8125,529.0449 1501.5469,529.2793 Q1501.2813,529.5137 1500.6719,529.5137 L1495.5313,529.5137 Q1494.9219,529.5137 1494.6563,529.2793 Q1494.3906,529.0449 1494.3906,528.6543 Q1494.3906,528.2793 1494.6563,528.0449 Q1494.9219,527.8105 1495.5313,527.8105 L1497.25,527.8105 L1497.25,521.1543 L1495.5313,521.1543 Q1494.9219,521.1543 1494.6563,520.9199 Q1494.3906,520.6855 1494.3906,520.2949 Q1494.3906,519.9199 1494.6563,519.6855 Q1494.9219,519.4512 1495.5313,519.4512 L1500.6719,519.4512 Q1501.2813,519.4512 1501.5469,519.6855 Q1501.8125,519.9199 1501.8125,520.2949 Q1501.8125,520.6855 1501.5469,520.9199 Q1501.2813,521.1543 1500.6719,521.1543 L1498.9531,521.1543 Z " fill="#000000"/><text fill="#000000" font-family="sans-serif" font-size="14" font-style="italic" lengthAdjust="spacing" textLength="147.8613" x="1512" y="530.3105">MoveValidationStrategy</text><line style="stroke:#181818;stroke-width:0.5;" x1="1484" x2="1661.8613" y1="540.5137" y2="540.5137"/><line style="stroke:#181818;stroke-width:0.5;" x1="1484" x2="1661.8613" y1="548.5137" y2="548.5137"/></g><!--class DirectionalMoveStrategy--><g id="elem_DirectionalMoveStrategy"><rect codeLine="108" fill="#FDF5E6" height="48" id="DirectionalMoveStrategy" style="stroke:#181818;stroke-width:0.5;" width="184.5098" x="1373.5" y="653.5137"/><ellipse cx="1388.5" cy="669.5137" fill="#ADD1B2" rx="11" ry="11" style="stroke:#181818;stroke-width:1.0;"/><path d="M1391.2656,665.3887 Q1391.4219,665.1699 1391.6094,665.0605 Q1391.7969,664.9512 1392.0156,664.9512 Q1392.3906,664.9512 1392.625,665.2168 Q1392.8594,665.4668 1392.8594,666.0762 L1392.8594,667.5293 Q1392.8594,668.1387 1392.625,668.4043 Q1392.3906,668.6699 1392.0156,668.6699 Q1391.6719,668.6699 1391.4688,668.4668 Q1391.2656,668.2793 1391.1563,667.7637 Q1391.1094,667.4043 1390.9219,667.2168 Q1390.5938,666.8418 1389.9844,666.623 Q1389.375,666.4043 1388.75,666.4043 Q1387.9844,666.4043 1387.3438,666.7324 Q1386.7188,667.0605 1386.2188,667.8105 Q1385.7344,668.5605 1385.7344,669.5918 L1385.7344,670.6855 Q1385.7344,671.9199 1386.625,672.748 Q1387.5156,673.5605 1389.1094,673.5605 Q1390.0469,673.5605 1390.7031,673.3105 Q1391.0938,673.1543 1391.5156,672.7168 Q1391.7813,672.4512 1391.9219,672.373 Q1392.0781,672.2949 1392.2813,672.2949 Q1392.6094,672.2949 1392.8594,672.5605 Q1393.125,672.8105 1393.125,673.1543 Q1393.125,673.498 1392.7813,673.9043 Q1392.2813,674.4824 1391.4844,674.8105 Q1390.4063,675.2637 1389.1094,675.2637 Q1387.5938,675.2637 1386.3906,674.6387 Q1385.4063,674.1387 1384.7188,673.0762 Q1384.0313,671.998 1384.0313,670.7168 L1384.0313,669.5605 Q1384.0313,668.2324 1384.6406,667.0918 Q1385.2656,665.9355 1386.3594,665.3262 Q1387.4531,664.7012 1388.6875,664.7012 Q1389.4219,664.7012 1390.0625,664.873 Q1390.7188,665.0293 1391.2656,665.3887 Z " fill="#000000"/><text fill="#000000" font-family="sans-serif" font-size="14" lengthAdjust="spacing" textLength="152.5098" x="1402.5" y="675.3105">DirectionalMoveStrategy</text><line style="stroke:#181818;stroke-width:0.5;" x1="1374.5" x2="1557.0098" y1="685.5137" y2="685.5137"/><line style="stroke:#181818;stroke-width:0.5;" x1="1374.5" x2="1557.0098" y1="693.5137" y2="693.5137"/></g><!--class DistanceMoveStrategy--><g id="elem_DistanceMoveStrategy"><rect codeLine="109" fill="#FDF5E6" height="48" id="DistanceMoveStrategy" style="stroke:#181818;stroke-width:0.5;" width="172.8408" x="1593.5" y="653.5137"/><ellipse cx="1608.5" cy="669.5137" fill="#ADD1B2" rx="11" ry="11" style="stroke:#181818;stroke-width:1.0;"/><path d="M1611.2656,665.3887 Q1611.4219,665.1699 1611.6094,665.0605 Q1611.7969,664.9512 1612.0156,664.9512 Q1612.3906,664.9512 1612.625,665.2168 Q1612.8594,665.4668 1612.8594,666.0762 L1612.8594,667.5293 Q1612.8594,668.1387 1612.625,668.4043 Q1612.3906,668.6699 1612.0156,668.6699 Q1611.6719,668.6699 1611.4688,668.4668 Q1611.2656,668.2793 1611.1563,667.7637 Q1611.1094,667.4043 1610.9219,667.2168 Q1610.5938,666.8418 1609.9844,666.623 Q1609.375,666.4043 1608.75,666.4043 Q1607.9844,666.4043 1607.3438,666.7324 Q1606.7188,667.0605 1606.2188,667.8105 Q1605.7344,668.5605 1605.7344,669.5918 L1605.7344,670.6855 Q1605.7344,671.9199 1606.625,672.748 Q1607.5156,673.5605 1609.1094,673.5605 Q1610.0469,673.5605 1610.7031,673.3105 Q1611.0938,673.1543 1611.5156,672.7168 Q1611.7813,672.4512 1611.9219,672.373 Q1612.0781,672.2949 1612.2813,672.2949 Q1612.6094,672.2949 1612.8594,672.5605 Q1613.125,672.8105 1613.125,673.1543 Q1613.125,673.498 1612.7813,673.9043 Q1612.2813,674.4824 1611.4844,674.8105 Q1610.4063,675.2637 1609.1094,675.2637 Q1607.5938,675.2637 1606.3906,674.6387 Q1605.4063,674.1387 1604.7188,673.0762 Q1604.0313,671.998 1604.0313,670.7168 L1604.0313,669.5605 Q1604.0313,668.2324 1604.6406,667.0918 Q1605.2656,665.9355 1606.3594,665.3262 Q1607.4531,664.7012 1608.6875,664.7012 Q1609.4219,664.7012 1610.0625,664.873 Q1610.7188,665.0293 1611.2656,665.3887 Z " fill="#000000"/><text fill="#000000" font-family="sans-serif" font-size="14" lengthAdjust="spacing" textLength="140.8408" x="1622.5" y="675.3105">DistanceMoveStrategy</text><line style="stroke:#181818;stroke-width:0.5;" x1="1594.5" x2="1765.3408" y1="685.5137" y2="685.5137"/><line style="stroke:#181818;stroke-width:0.5;" x1="1594.5" x2="1765.3408" y1="693.5137" y2="693.5137"/></g><!--class CaptureValidationStrategy--><g id="elem_CaptureValidationStrategy"><rect codeLine="110" fill="#FDF5E6" height="48" id="CaptureValidationStrategy" style="stroke:#181818;stroke-width:0.5;" width="195.4336" x="1801.5" y="653.5137"/><ellipse cx="1816.5" cy="669.5137" fill="#ADD1B2" rx="11" ry="11" style="stroke:#181818;stroke-width:1.0;"/><path d="M1819.2656,665.3887 Q1819.4219,665.1699 1819.6094,665.0605 Q1819.7969,664.9512 1820.0156,664.9512 Q1820.3906,664.9512 1820.625,665.2168 Q1820.8594,665.4668 1820.8594,666.0762 L1820.8594,667.5293 Q1820.8594,668.1387 1820.625,668.4043 Q1820.3906,668.6699 1820.0156,668.6699 Q1819.6719,668.6699 1819.4688,668.4668 Q1819.2656,668.2793 1819.1563,667.7637 Q1819.1094,667.4043 1818.9219,667.2168 Q1818.5938,666.8418 1817.9844,666.623 Q1817.375,666.4043 1816.75,666.4043 Q1815.9844,666.4043 1815.3438,666.7324 Q1814.7188,667.0605 1814.2188,667.8105 Q1813.7344,668.5605 1813.7344,669.5918 L1813.7344,670.6855 Q1813.7344,671.9199 1814.625,672.748 Q1815.5156,673.5605 1817.1094,673.5605 Q1818.0469,673.5605 1818.7031,673.3105 Q1819.0938,673.1543 1819.5156,672.7168 Q1819.7813,672.4512 1819.9219,672.373 Q1820.0781,672.2949 1820.2813,672.2949 Q1820.6094,672.2949 1820.8594,672.5605 Q1821.125,672.8105 1821.125,673.1543 Q1821.125,673.498 1820.7813,673.9043 Q1820.2813,674.4824 1819.4844,674.8105 Q1818.4063,675.2637 1817.1094,675.2637 Q1815.5938,675.2637 1814.3906,674.6387 Q1813.4063,674.1387 1812.7188,673.0762 Q1812.0313,671.998 1812.0313,670.7168 L1812.0313,669.5605 Q1812.0313,668.2324 1812.6406,667.0918 Q1813.2656,665.9355 1814.3594,665.3262 Q1815.4531,664.7012 1816.6875,664.7012 Q1817.4219,664.7012 1818.0625,664.873 Q1818.7188,665.0293 1819.2656,665.3887 Z " fill="#000000"/><text fill="#000000" font-family="sans-serif" font-size="14" lengthAdjust="spacing" textLength="163.4336" x="1830.5" y="675.3105">CaptureValidationStrategy</text><line style="stroke:#181818;stroke-width:0.5;" x1="1802.5" x2="1995.9336" y1="685.5137" y2="685.5137"/><line style="stroke:#181818;stroke-width:0.5;" x1="1802.5" x2="1995.9336" y1="693.5137" y2="693.5137"/></g><!--reverse link ChessView to BaseView<E>--><g id="link_ChessView_BaseView&lt;E&gt;"><path d="M2972,453.4637 C2972,346.0437 2972,152.5137 2972,152.5137 C2972,152.5137 2957.92,152.5137 2935.51,152.5137 " fill="none" id="ChessView-backto-BaseView&lt;E&gt;" style="stroke:#181818;stroke-width:1.0;stroke-dasharray:7.0,7.0;"/><polygon fill="none" points="2972,471.4637,2978,453.4637,2966,453.4637,2972,471.4637" style="stroke:#181818;stroke-width:1.0;"/></g><!--reverse link BaseView<E> to GUIView--><g id="link_BaseView&lt;E&gt;_GUIView"><path d="M2410.75,191.1137 C2410.75,218.9837 2410.75,238.0737 2410.75,270.2937 " fill="none" id="BaseView&lt;E&gt;-backto-GUIView" style="stroke:#181818;stroke-width:1.0;"/><polygon fill="none" points="2410.75,173.1137,2404.75,191.1137,2416.75,191.1137,2410.75,173.1137" style="stroke:#181818;stroke-width:1.0;"/></g><!--reverse link BaseView<E> to ConsoleView--><g id="link_BaseView&lt;E&gt;_ConsoleView"><path d="M2729.75,191.1137 C2729.75,218.9837 2729.75,238.0737 2729.75,270.2937 " fill="none" id="BaseView&lt;E&gt;-backto-ConsoleView" style="stroke:#181818;stroke-width:1.0;"/><polygon fill="none" points="2729.75,173.1137,2723.75,191.1137,2735.75,191.1137,2729.75,173.1137" style="stroke:#181818;stroke-width:1.0;"/></g><!--reverse link UserChoice to ChessPiece--><g id="link_UserChoice_ChessPiece"><path d="M1075,182.3337 C1075,224.9837 1075,279.2737 1075,316.7937 " fill="none" id="UserChoice-backto-ChessPiece" style="stroke:#181818;stroke-width:1.0;stroke-dasharray:7.0,7.0;"/><polygon fill="none" points="1075,164.3337,1069,182.3337,1081,182.3337,1075,164.3337" style="stroke:#181818;stroke-width:1.0;"/></g><!--reverse link ChessPiece to Pawn--><g id="link_ChessPiece_Pawn"><path d="M1003.38,333.5137 C913.7,333.5137 761,333.5137 761,333.5137 C761,333.5137 761,455.5837 761,508.5137 " fill="none" id="ChessPiece-backto-Pawn" style="stroke:#181818;stroke-width:1.0;"/><polygon fill="none" points="1021.38,333.5137,1003.38,327.5137,1003.38,339.5137,1021.38,333.5137" style="stroke:#181818;stroke-width:1.0;"/></g><!--reverse link ChessPiece to Rook--><g id="link_ChessPiece_Rook"><path d="M1003.25,349.5137 C940.15,349.5137 862,349.5137 862,349.5137 C862,349.5137 862,458.4337 862,508.2137 " fill="none" id="ChessPiece-backto-Rook" style="stroke:#181818;stroke-width:1.0;"/><polygon fill="none" points="1021.25,349.5137,1003.25,343.5137,1003.25,355.5137,1021.25,349.5137" style="stroke:#181818;stroke-width:1.0;"/></g><!--reverse link ChessPiece to Knight--><g id="link_ChessPiece_Knight"><path d="M1029.5,383.2637 C1029.5,434.7937 1029.5,532.5137 1029.5,532.5137 C1029.5,532.5137 1016.46,532.5137 1002.2,532.5137 " fill="none" id="ChessPiece-backto-Knight" style="stroke:#181818;stroke-width:1.0;"/><polygon fill="none" points="1029.5,365.2637,1023.5,383.2637,1035.5,383.2637,1029.5,365.2637" style="stroke:#181818;stroke-width:1.0;"/></g><!--reverse link ChessPiece to Bishop--><g id="link_ChessPiece_Bishop"><path d="M1075,383.2637 C1075,420.1037 1075,471.7337 1075,508.4537 " fill="none" id="ChessPiece-backto-Bishop" style="stroke:#181818;stroke-width:1.0;"/><polygon fill="none" points="1075,365.2637,1069,383.2637,1081,383.2637,1075,365.2637" style="stroke:#181818;stroke-width:1.0;"/></g><!--reverse link ChessPiece to Queen--><g id="link_ChessPiece_Queen"><path d="M1120.5,383.2637 C1120.5,434.7937 1120.5,532.5137 1120.5,532.5137 C1120.5,532.5137 1133.52,532.5137 1147.85,532.5137 " fill="none" id="ChessPiece-backto-Queen" style="stroke:#181818;stroke-width:1.0;"/><polygon fill="none" points="1120.5,365.2637,1114.5,383.2637,1126.5,383.2637,1120.5,365.2637" style="stroke:#181818;stroke-width:1.0;"/></g><!--reverse link ChessPiece to King--><g id="link_ChessPiece_King"><path d="M1146.77,349.5137 C1209.58,349.5137 1287,349.5137 1287,349.5137 C1287,349.5137 1287,458.4337 1287,508.2137 " fill="none" id="ChessPiece-backto-King" style="stroke:#181818;stroke-width:1.0;"/><polygon fill="none" points="1128.77,349.5137,1146.77,355.5137,1146.77,343.5137,1128.77,349.5137" style="stroke:#181818;stroke-width:1.0;"/></g><!--reverse link MoveValidationStrategy to DirectionalMoveStrategy--><g id="link_MoveValidationStrategy_DirectionalMoveStrategy"><path d="M1520.75,574.7837 C1520.75,601.5537 1520.75,626.3637 1520.75,653.1637 " fill="none" id="MoveValidationStrategy-backto-DirectionalMoveStrategy" style="stroke:#181818;stroke-width:1.0;stroke-dasharray:7.0,7.0;"/><polygon fill="none" points="1520.75,556.7837,1514.75,574.7837,1526.75,574.7837,1520.75,556.7837" style="stroke:#181818;stroke-width:1.0;"/></g><!--reverse link MoveValidationStrategy to DistanceMoveStrategy--><g id="link_MoveValidationStrategy_DistanceMoveStrategy"><path d="M1628.25,574.7837 C1628.25,601.5537 1628.25,626.3637 1628.25,653.1637 " fill="none" id="MoveValidationStrategy-backto-DistanceMoveStrategy" style="stroke:#181818;stroke-width:1.0;stroke-dasharray:7.0,7.0;"/><polygon fill="none" points="1628.25,556.7837,1622.25,574.7837,1634.25,574.7837,1628.25,556.7837" style="stroke:#181818;stroke-width:1.0;"/></g><!--reverse link MoveValidationStrategy to CaptureValidationStrategy--><g id="link_MoveValidationStrategy_CaptureValidationStrategy"><path d="M1681.32,551.5137 C1760.23,551.5137 1844.25,551.5137 1844.25,551.5137 C1844.25,551.5137 1844.25,616.6037 1844.25,653.2237 " fill="none" id="MoveValidationStrategy-backto-CaptureValidationStrategy" style="stroke:#181818;stroke-width:1.0;stroke-dasharray:7.0,7.0;"/><polygon fill="none" points="1663.32,551.5137,1681.32,557.5137,1681.32,545.5137,1663.32,551.5137" style="stroke:#181818;stroke-width:1.0;"/></g><!--link ChessController to ChessView--><g id="link_ChessController_ChessView"><path codeLine="115" d="M3146,393.0937 C3146,417.2337 3146,440.0937 3146,465.2737 " fill="none" id="ChessController-to-ChessView" style="stroke:#181818;stroke-width:1.0;"/><polygon fill="#181818" points="3146,471.2737,3150,462.2737,3146,466.2737,3142,462.2737,3146,471.2737" style="stroke:#181818;stroke-width:1.0;"/><polygon fill="#000000" points="3090,427.8292,3092.9389,418.7841,3087.0611,418.7841,3090,427.8292" style="stroke:#000000;stroke-width:1.0;"/><text fill="#000000" font-family="sans-serif" font-size="13" lengthAdjust="spacing" textLength="46.979" x="3099" y="428.212">manage</text><text fill="#000000" font-family="sans-serif" font-size="13" lengthAdjust="spacing" textLength="7.23" x="3133.7204" y="414.9112">1</text><text fill="#000000" font-family="sans-serif" font-size="13" lengthAdjust="spacing" textLength="7.23" x="3146.4965" y="460.2271">1</text></g><!--link BaseView<E> to ChessController--><g id="link_BaseView&lt;E&gt;_ChessController"><path codeLine="116" d="M2935.55,130.5137 C3063.65,130.5137 3184,130.5137 3184,130.5137 C3184,130.5137 3184,220.6437 3184,282.9837 " fill="none" id="BaseView&lt;E&gt;-to-ChessController" style="stroke:#181818;stroke-width:1.0;"/><polygon fill="#181818" points="3184,288.9837,3188,279.9837,3184,283.9837,3180,279.9837,3184,288.9837" style="stroke:#181818;stroke-width:1.0;"/><polygon fill="#000000" points="3087.2715,123.7744,3081.0996,116.5386,3078.0252,121.5483,3087.2715,123.7744" style="stroke:#000000;stroke-width:1.0;"/><text fill="#000000" font-family="sans-serif" font-size="13" lengthAdjust="spacing" textLength="46.9663" x="3092.01" y="126.542">callback</text><text fill="#000000" font-family="sans-serif" font-size="13" lengthAdjust="spacing" textLength="7.23" x="2943.6508" y="127.3169">1</text><text fill="#000000" font-family="sans-serif" font-size="13" lengthAdjust="spacing" textLength="7.23" x="3176.5691" y="277.907">1</text></g><!--link BaseView<E> to DrawableResource<E>--><g id="link_BaseView&lt;E&gt;_DrawableResource&lt;E&gt;"><path codeLine="117" d="M2935.77,109.5137 C3180.14,109.5137 3484,109.5137 3484,109.5137 C3484,109.5137 3484,237.1437 3484,301.3537 " fill="none" id="BaseView&lt;E&gt;-to-DrawableResource&lt;E&gt;" style="stroke:#181818;stroke-width:1.0;"/><polygon fill="#181818" points="3484,307.3537,3488,298.3537,3484,302.3537,3480,298.3537,3484,307.3537" style="stroke:#181818;stroke-width:1.0;"/><polygon fill="#000000" points="3275.5294,101.8106,3267.9626,96.0491,3266.0212,101.5971,3275.5294,101.8106" style="stroke:#000000;stroke-width:1.0;"/><text fill="#000000" font-family="sans-serif" font-size="13" lengthAdjust="spacing" textLength="28.9009" x="3279.81" y="105.542">store</text><text fill="#000000" font-family="sans-serif" font-size="13" lengthAdjust="spacing" textLength="19.5127" x="2944.0398" y="105.759">0..*</text><text fill="#000000" font-family="sans-serif" font-size="13" lengthAdjust="spacing" textLength="19.5127" x="3463.2053" y="296.1477">0..*</text></g><!--link ChessPiece to MoveValidationStrategy--><g id="link_ChessPiece_MoveValidationStrategy"><path codeLine="119" d="M1128.89,333.5137 C1240.64,333.5137 1487.25,333.5137 1487.25,333.5137 C1487.25,333.5137 1487.25,449.5837 1487.25,502.5137 " fill="none" id="ChessPiece-to-MoveValidationStrategy" style="stroke:#181818;stroke-width:1.0;"/><polygon fill="#181818" points="1487.25,508.5137,1491.25,499.5137,1487.25,503.5137,1483.25,499.5137,1487.25,508.5137" style="stroke:#181818;stroke-width:1.0;"/><polygon fill="#000000" points="1370.0923,326.2919,1363.1649,319.7756,1360.6578,325.092,1370.0923,326.2919" style="stroke:#000000;stroke-width:1.0;"/><text fill="#000000" font-family="sans-serif" font-size="13" lengthAdjust="spacing" textLength="20.96" x="1374.57" y="329.542">has</text><text fill="#000000" font-family="sans-serif" font-size="13" lengthAdjust="spacing" textLength="7.23" x="1136.2768" y="328.5106">1</text><text fill="#000000" font-family="sans-serif" font-size="13" lengthAdjust="spacing" textLength="19.5127" x="1455.4945" y="501.1944">1..*</text></g><!--SRC=[xLPRSzeu57uElq93N-XkodHVFHbcWB249G4AJjDzwWZxO3IH9QyaeDcT_lSzih4j6vEIcJxMBzRbExVld2D9FpEHK4LZekHEX4Ef12ZoiQMBzO1JhVl6ABRU6PW4KgpOlr21S2R0l2H0f39RwMmChUo01i_HKJkNYhoRy_2U1k3WPjB01R3LbeRom4H4DfHhQBKIbA4Ha60BMfF_MWG_4BkOB1W4u5kNiaNxBVfFisAodC-dnMGwcupl_68wcApkvejY-kbnD2e5fvFPE9ryRpdcE7q1bVbT6dowc_YZKkjzVpXr9Pame3OO8HbQzuTI62Kv1rV5xqGRgandp-3WPRZFE7plaRraeGCJS1ZJ63gdEx7SGsUZPFp5ioQlYHt_VHmR-QKOPMkeO2qb1ogQVNtK6EXMiW0gRXhuPZvJlaizM66nYAXPldshw86kEIn1ovqAu6RKQrTKHM3oFQjiz0fdbejJjkng0n4AB1LfPNI-7QD-oMEkOPEToO2shBsodAv9O9FikHc_9Z_I5ZAT8Fu1FSPgxSGwoZboiSSG1VO2uR0nH6xAA0jjFc5nmY46ONIQ399bmoCtFi4aW0WhwprqYVn5zxJGW8ZKI6OkRw5zbKgwraRHm6JjJze3gi7waMRByI3jl6vJCdBI8wOnPqL6Bo9KWVP8Gw7KgRNVEy8b3NFGdr9TPYA4ZKTogVUDrWepnypOBwDZ_3X9eytvhj9Jv-1yKRwrC6l5MGLZ3_yuy6QDbnLeYQVwsPROZT_h66OuvEXhyiyEj65Ib2k9r9gj6MU6sQnskrqVbVhdoSM3KEC1z8lWdqQmGtFUxY0YlBGT9e_SsqOUrVSSbXilcVAYoMWxTzkyphrJ2EcbQasj33LrJoQphulbVBmShLQjgwkhuTq8xzLyyD37AnSdAxz_Fyedjyl-qolDNDevsNl0cF1QOo4rzcflt1y3FfdExATy3YHLOSFcW9dJhJn1YMMo5ddjK4wLfuoVdiZkDVszeYIJNT23ABhBKTG8NahvV35uAbYqDHV31qnlPN8n_DCEu7B7f_Qjs0nkgeVYBimoZbrMIq3v_70A0s7OYbW_qKkp5xTCGM1Xb5kn0kmaxMtgi1D503z3rv0cPgUQu6zIc1yno6NzBTl-eqq-VEYb__APu96O2ajrhrKzsa_WZYgF19JpDIRfLEnZj_lRKJ8RDhypFJp5fB9cMquvb4PJqJFnUcHBDKh-3m00]--></g></svg>