<svg xmlns="http://www.w3.org/2000/svg" xmlns:xlink="http://www.w3.org/1999/xlink" contentStyleType="text/css" height="1498px" preserveAspectRatio="none" style="width:2873px;height:1498px;background:#FFFFFF;" version="1.1" viewBox="0 0 2873 1498" width="2873px" zoomAndPan="magnify"><defs/><g><!--class ChessController--><g id="elem_ChessController"><rect codeLine="22" fill="#F8F8FF" height="97.4648" id="ChessController" style="stroke:#696969;stroke-width:0.5;" width="393.7256" x="572.4268" y="27.666"/><ellipse cx="710.7349" cy="43.666" fill="#B4A7E5" rx="11" ry="11" style="stroke:#181818;stroke-width:1;"/><path d="M707.1626,39.9312 L707.1626,37.7729 L714.542,37.7729 L714.542,39.9312 L712.0767,39.9312 L712.0767,48.0078 L714.542,48.0078 L714.542,50.166 L707.1626,50.166 L707.1626,48.0078 L709.6279,48.0078 L709.6279,39.9312 Z " fill="#000000"/><text fill="#696969" font-family="sans-serif" font-size="14" font-style="italic" lengthAdjust="spacing" textLength="108.6094" x="731.2349" y="48.957">ChessController</text><line style="stroke:#696969;stroke-width:0.5;" x1="573.4268" x2="965.1523" y1="59.666" y2="59.666"/><line style="stroke:#696969;stroke-width:0.5;" x1="573.4268" x2="965.1523" y1="67.666" y2="67.666"/><text fill="#696969" font-family="sans-serif" font-size="14" lengthAdjust="spacing" textLength="199.8418" x="578.4268" y="85.2012">+start(view: ChessView): void</text><text fill="#696969" font-family="sans-serif" font-size="14" lengthAdjust="spacing" textLength="123.792" x="578.4268" y="101.6895">+newGame(): void</text><text fill="#696969" font-family="sans-serif" font-size="14" lengthAdjust="spacing" textLength="381.7256" x="578.4268" y="118.1777">+move(fromX: int, fromY: int, toX: int, toY: int): boolean</text></g><!--class UserChoice--><g id="elem_UserChoice"><rect codeLine="28" fill="#F8F8FF" height="64.4883" id="UserChoice" style="stroke:#696969;stroke-width:0.5;" width="145.3418" x="1880.5389" y="567.9238"/><ellipse cx="1912.1819" cy="583.9238" fill="#B4A7E5" rx="11" ry="11" style="stroke:#181818;stroke-width:1;"/><path d="M1908.6096,580.189 L1908.6096,578.0308 L1915.989,578.0308 L1915.989,580.189 L1913.5237,580.189 L1913.5237,588.2656 L1915.989,588.2656 L1915.989,590.4238 L1908.6096,590.4238 L1908.6096,588.2656 L1911.0749,588.2656 L1911.0749,580.189 Z " fill="#000000"/><text fill="#696969" font-family="sans-serif" font-size="14" font-style="italic" lengthAdjust="spacing" textLength="76.3574" x="1929.8803" y="589.2148">UserChoice</text><line style="stroke:#696969;stroke-width:0.5;" x1="1881.5389" x2="2024.8807" y1="599.9238" y2="599.9238"/><line style="stroke:#696969;stroke-width:0.5;" x1="1881.5389" x2="2024.8807" y1="607.9238" y2="607.9238"/><text fill="#696969" font-family="sans-serif" font-size="14" lengthAdjust="spacing" textLength="133.3418" x="1886.5389" y="625.459">+textValue(): String</text></g><!--class DrawableResource<E>--><g id="elem_DrawableResource&lt;E&gt;"><rect codeLine="32" fill="#F8F8FF" height="64.4883" id="DrawableResource&lt;E&gt;" style="stroke:#696969;stroke-width:0.5;" width="186.7451" x="12" y="979.8945"/><ellipse cx="27" cy="995.8945" fill="#B4A7E5" rx="11" ry="11" style="stroke:#181818;stroke-width:1;"/><path d="M23.4277,992.1597 L23.4277,990.0015 L30.8071,990.0015 L30.8071,992.1597 L28.3418,992.1597 L28.3418,1000.2363 L30.8071,1000.2363 L30.8071,1002.3945 L23.4277,1002.3945 L23.4277,1000.2363 L25.8931,1000.2363 L25.8931,992.1597 Z " fill="#000000"/><text fill="#696969" font-family="sans-serif" font-size="14" font-style="italic" lengthAdjust="spacing" textLength="154.7451" x="41" y="1001.1855">DrawableResource&lt;E&gt;</text><line style="stroke:#696969;stroke-width:0.5;" x1="13" x2="197.7451" y1="1011.8945" y2="1011.8945"/><line style="stroke:#696969;stroke-width:0.5;" x1="13" x2="197.7451" y1="1019.8945" y2="1019.8945"/><text fill="#696969" font-family="sans-serif" font-size="14" lengthAdjust="spacing" textLength="120.2236" x="18" y="1037.4297">+getResource(): E</text></g><!--class ChessView--><g id="elem_ChessView"><rect codeLine="36" fill="#F8F8FF" height="113.9531" id="ChessView" style="stroke:#696969;stroke-width:0.5;" width="448.6113" x="446.0293" y="535.7695"/><ellipse cx="629.9673" cy="551.7695" fill="#B4A7E5" rx="11" ry="11" style="stroke:#181818;stroke-width:1;"/><path d="M626.395,548.0347 L626.395,545.8765 L633.7744,545.8765 L633.7744,548.0347 L631.3091,548.0347 L631.3091,556.1113 L633.7744,556.1113 L633.7744,558.2695 L626.395,558.2695 L626.395,556.1113 L628.8604,556.1113 L628.8604,548.0347 Z " fill="#000000"/><text fill="#696969" font-family="sans-serif" font-size="14" font-style="italic" lengthAdjust="spacing" textLength="72.2354" x="650.4673" y="557.0605">ChessView</text><line style="stroke:#696969;stroke-width:0.5;" x1="447.0293" x2="893.6406" y1="567.7695" y2="567.7695"/><line style="stroke:#696969;stroke-width:0.5;" x1="447.0293" x2="893.6406" y1="575.7695" y2="575.7695"/><text fill="#696969" font-family="sans-serif" font-size="14" lengthAdjust="spacing" textLength="120.6543" x="452.0293" y="593.3047">+startView(): void</text><text fill="#696969" font-family="sans-serif" font-size="14" lengthAdjust="spacing" textLength="221.0195" x="452.0293" y="609.793">+removePiece(x: int, y: int): void</text><text fill="#696969" font-family="sans-serif" font-size="14" lengthAdjust="spacing" textLength="436.6113" x="452.0293" y="626.2813">+putPiece(type: PieceType, color: PlayerColor, x: int, y: int): void</text><text fill="#696969" font-family="sans-serif" font-size="14" lengthAdjust="spacing" textLength="241.8555" x="452.0293" y="642.7695">+displayMessage(msg: String): void</text></g><g id="elem_GMN6"><path d="M357.0747,396.5273 L357.0747,421.8379 L759.2896,421.8379 L759.2896,406.5273 L749.2896,396.5273 L357.0747,396.5273 " fill="#FDF5E6" style="stroke:#181818;stroke-width:0.5;"/><path d="M749.2896,396.5273 L749.2896,406.5273 L759.2896,406.5273 L749.2896,396.5273 " fill="#FDF5E6" style="stroke:#181818;stroke-width:1;"/><text fill="#000000" font-family="sans-serif" font-size="13" lengthAdjust="spacing" textLength="381.2148" x="363.0747" y="414.0957">T implements User Choice: &lt;T extends User Choice&gt; in Java</text></g><!--class BaseView<E>--><g id="elem_BaseView&lt;E&gt;"><rect codeLine="47" fill="#F8F8FF" height="80.9766" id="BaseView&lt;E&gt;" style="stroke:#696969;stroke-width:0.5;" width="641.8564" x="122.1226" y="775.5293"/><ellipse cx="392.624" cy="791.5293" fill="#A9DCDF" rx="11" ry="11" style="stroke:#181818;stroke-width:1;"/><path d="M392.4873,786.8774 L391.3335,791.9492 L393.6494,791.9492 Z M390.9932,784.6362 L393.9897,784.6362 L397.335,797.0293 L394.8862,797.0293 L394.1226,793.9663 L390.8438,793.9663 L390.0967,797.0293 L387.6479,797.0293 Z " fill="#000000"/><text fill="#696969" font-family="sans-serif" font-size="14" font-style="italic" lengthAdjust="spacing" textLength="92.3535" x="413.124" y="796.8203">BaseView&lt;E&gt;</text><line style="stroke:#696969;stroke-width:0.5;" x1="123.1226" x2="762.979" y1="807.5293" y2="807.5293"/><line style="stroke:#696969;stroke-width:0.5;" x1="123.1226" x2="762.979" y1="815.5293" y2="815.5293"/><text fill="#696969" font-family="sans-serif" font-size="14" lengthAdjust="spacing" textLength="599.1494" x="128.1226" y="833.0645">+registerResource(type: PieceType, color: PlayerColor, res: DrawableResource&lt;E&gt;): void</text><text fill="#696969" font-family="sans-serif" font-size="14" lengthAdjust="spacing" textLength="629.8564" x="128.1226" y="849.5527">#loadResourceFor(type: PieceType, color: PlayerColor, def: Resource): DrawableResource&lt;E&gt;</text></g><!--class GUIView--><g id="elem_GUIView"><rect codeLine="52" fill="#F8F8FF" height="130.4414" id="GUIView" style="stroke:#696969;stroke-width:0.5;" width="448.6113" x="218.7451" y="962.584"/><ellipse cx="410.9819" cy="978.584" fill="#ADD1B2" rx="11" ry="11" style="stroke:#181818;stroke-width:1;"/><path d="M413.4551,984.7271 Q412.874,985.0259 412.2349,985.1753 Q411.5957,985.3247 410.8901,985.3247 Q408.3833,985.3247 407.0635,983.6729 Q405.7437,982.021 405.7437,978.8999 Q405.7437,975.7705 407.0635,974.1187 Q408.3833,972.4668 410.8901,972.4668 Q411.5957,972.4668 412.2432,972.6162 Q412.8906,972.7656 413.4551,973.0645 L413.4551,975.7871 Q412.8242,975.2061 412.2307,974.9363 Q411.6372,974.6665 411.0063,974.6665 Q409.6616,974.6665 408.9768,975.7332 Q408.292,976.7998 408.292,978.8999 Q408.292,980.9917 408.9768,982.0583 Q409.6616,983.125 411.0063,983.125 Q411.6372,983.125 412.2307,982.8552 Q412.8242,982.5854 413.4551,982.0044 Z " fill="#000000"/><text fill="#696969" font-family="sans-serif" font-size="14" lengthAdjust="spacing" textLength="55.6377" x="431.4819" y="983.875">GUIView</text><line style="stroke:#696969;stroke-width:0.5;" x1="219.7451" x2="666.3564" y1="994.584" y2="994.584"/><line style="stroke:#696969;stroke-width:0.5;" x1="219.7451" x2="666.3564" y1="1002.584" y2="1002.584"/><text fill="#696969" font-family="sans-serif" font-size="14" lengthAdjust="spacing" textLength="120.6543" x="224.7451" y="1020.1191">+startView(): void</text><text fill="#696969" font-family="sans-serif" font-size="14" lengthAdjust="spacing" textLength="221.0195" x="224.7451" y="1036.6074">+removePiece(x: int, y: int): void</text><text fill="#696969" font-family="sans-serif" font-size="14" lengthAdjust="spacing" textLength="436.6113" x="224.7451" y="1053.0957">+putPiece(x: int, y: int, type: PieceType, color: PlayerColor): void</text><text fill="#696969" font-family="sans-serif" font-size="14" lengthAdjust="spacing" textLength="241.8555" x="224.7451" y="1069.584">+displayMessage(msg: String): void</text><text fill="#696969" font-family="sans-serif" font-size="14" lengthAdjust="spacing" textLength="435.1279" x="224.7451" y="1086.0723">+askUser&lt;T&gt;(title: String, question: String, possibilities: ...T): T</text></g><!--class ConsoleView--><g id="elem_ConsoleView"><rect codeLine="60" fill="#F8F8FF" height="130.4414" id="ConsoleView" style="stroke:#696969;stroke-width:0.5;" width="448.6113" x="687.3564" y="962.584"/><ellipse cx="864.2397" cy="978.584" fill="#ADD1B2" rx="11" ry="11" style="stroke:#181818;stroke-width:1;"/><path d="M866.7129,984.7271 Q866.1318,985.0259 865.4927,985.1753 Q864.8535,985.3247 864.1479,985.3247 Q861.6411,985.3247 860.3213,983.6729 Q859.0015,982.021 859.0015,978.8999 Q859.0015,975.7705 860.3213,974.1187 Q861.6411,972.4668 864.1479,972.4668 Q864.8535,972.4668 865.501,972.6162 Q866.1484,972.7656 866.7129,973.0645 L866.7129,975.7871 Q866.082,975.2061 865.4885,974.9363 Q864.895,974.6665 864.2642,974.6665 Q862.9194,974.6665 862.2346,975.7332 Q861.5498,976.7998 861.5498,978.8999 Q861.5498,980.9917 862.2346,982.0583 Q862.9194,983.125 864.2642,983.125 Q864.895,983.125 865.4885,982.8552 Q866.082,982.5854 866.7129,982.0044 Z " fill="#000000"/><text fill="#696969" font-family="sans-serif" font-size="14" lengthAdjust="spacing" textLength="86.3447" x="884.7397" y="983.875">ConsoleView</text><line style="stroke:#696969;stroke-width:0.5;" x1="688.3564" x2="1134.9678" y1="994.584" y2="994.584"/><line style="stroke:#696969;stroke-width:0.5;" x1="688.3564" x2="1134.9678" y1="1002.584" y2="1002.584"/><text fill="#696969" font-family="sans-serif" font-size="14" lengthAdjust="spacing" textLength="120.6543" x="693.3564" y="1020.1191">+startView(): void</text><text fill="#696969" font-family="sans-serif" font-size="14" lengthAdjust="spacing" textLength="221.0195" x="693.3564" y="1036.6074">+removePiece(x: int, y: int): void</text><text fill="#696969" font-family="sans-serif" font-size="14" lengthAdjust="spacing" textLength="436.6113" x="693.3564" y="1053.0957">+putPiece(x: int, y: int, type: PieceType, color: PlayerColor): void</text><text fill="#696969" font-family="sans-serif" font-size="14" lengthAdjust="spacing" textLength="241.8555" x="693.3564" y="1069.584">+displayMessage(msg: String): void</text><text fill="#696969" font-family="sans-serif" font-size="14" lengthAdjust="spacing" textLength="435.1279" x="693.3564" y="1086.0723">+askUser&lt;T&gt;(title: String, question: String, possibilities: ...T): T</text></g><!--class ChessEngine--><g id="elem_ChessEngine"><rect codeLine="68" fill="#FDF5E6" height="80.9766" id="ChessEngine" style="stroke:#181818;stroke-width:0.5;" width="373.4502" x="1554.9192" y="182.4414"/><ellipse cx="1694.3996" cy="198.4414" fill="#ADD1B2" rx="11" ry="11" style="stroke:#181818;stroke-width:1;"/><path d="M1696.8728,204.5845 Q1696.2917,204.8833 1695.6526,205.0327 Q1695.0134,205.1821 1694.3078,205.1821 Q1691.801,205.1821 1690.4812,203.5303 Q1689.1613,201.8784 1689.1613,198.7573 Q1689.1613,195.6279 1690.4812,193.9761 Q1691.801,192.3242 1694.3078,192.3242 Q1695.0134,192.3242 1695.6609,192.4736 Q1696.3083,192.623 1696.8728,192.9219 L1696.8728,195.6445 Q1696.2419,195.0635 1695.6484,194.7937 Q1695.0549,194.5239 1694.424,194.5239 Q1693.0793,194.5239 1692.3945,195.5906 Q1691.7097,196.6572 1691.7097,198.7573 Q1691.7097,200.8491 1692.3945,201.9158 Q1693.0793,202.9824 1694.424,202.9824 Q1695.0549,202.9824 1695.6484,202.7126 Q1696.2419,202.4429 1696.8728,201.8618 Z " fill="#000000"/><text fill="#000000" font-family="sans-serif" font-size="14" lengthAdjust="spacing" textLength="85.9893" x="1714.8996" y="203.7324">ChessEngine</text><line style="stroke:#181818;stroke-width:0.5;" x1="1555.9192" x2="1927.3693" y1="214.4414" y2="214.4414"/><line style="stroke:#181818;stroke-width:0.5;" x1="1555.9192" x2="1927.3693" y1="222.4414" y2="222.4414"/><text fill="#000000" font-family="sans-serif" font-size="14" lengthAdjust="spacing" textLength="127.5859" x="1560.9192" y="239.9766">+startGame(): void</text><text fill="#000000" font-family="sans-serif" font-size="14" lengthAdjust="spacing" textLength="361.4502" x="1560.9192" y="256.4648">+movePiece(fromX: int, fromY: int, x: int, y: int): void</text></g><!--class GameState--><g id="elem_GameState"><rect codeLine="73" fill="#FDF5E6" height="130.4414" id="GameState" style="stroke:#181818;stroke-width:0.5;" width="104.2627" x="448.1641" y="12"/><ellipse cx="463.1641" cy="28" fill="#EB937F" rx="11" ry="11" style="stroke:#181818;stroke-width:1;"/><path d="M466.7783,34.5 L459.0586,34.5 L459.0586,22.1069 L466.7783,22.1069 L466.7783,24.2651 L461.5073,24.2651 L461.5073,26.938 L466.2803,26.938 L466.2803,29.0962 L461.5073,29.0962 L461.5073,32.3418 L466.7783,32.3418 Z " fill="#000000"/><text fill="#000000" font-family="sans-serif" font-size="14" lengthAdjust="spacing" textLength="72.2627" x="477.1641" y="33.291">GameState</text><line style="stroke:#181818;stroke-width:0.5;" x1="449.1641" x2="551.4268" y1="44" y2="44"/><text fill="#000000" font-family="sans-serif" font-size="14" lengthAdjust="spacing" textLength="90.4805" x="454.1641" y="61.5352">IN_PROGRESS</text><text fill="#000000" font-family="sans-serif" font-size="14" lengthAdjust="spacing" textLength="46.3887" x="454.1641" y="78.0234">CHECK</text><text fill="#000000" font-family="sans-serif" font-size="14" lengthAdjust="spacing" textLength="84.5469" x="454.1641" y="94.5117">CHECKMATE</text><text fill="#000000" font-family="sans-serif" font-size="14" lengthAdjust="spacing" textLength="79.2627" x="454.1641" y="111">STALEMATE</text><text fill="#000000" font-family="sans-serif" font-size="14" lengthAdjust="spacing" textLength="40.9746" x="454.1641" y="127.4883">DRAW</text><line style="stroke:#181818;stroke-width:0.5;" x1="449.1641" x2="551.4268" y1="134.4414" y2="134.4414"/></g><!--class ChessBoardView--><g id="elem_ChessBoardView"><rect codeLine="81" fill="#FDF5E6" height="80.9766" id="ChessBoardView" style="stroke:#181818;stroke-width:0.5;" width="244.4355" x="1290.4836" y="182.4414"/><ellipse cx="1352.8718" cy="198.4414" fill="#B4A7E5" rx="11" ry="11" style="stroke:#181818;stroke-width:1;"/><path d="M1349.2995,194.7065 L1349.2995,192.5483 L1356.6789,192.5483 L1356.6789,194.7065 L1354.2136,194.7065 L1354.2136,202.7832 L1356.6789,202.7832 L1356.6789,204.9414 L1349.2995,204.9414 L1349.2995,202.7832 L1351.7649,202.7832 L1351.7649,194.7065 Z " fill="#000000"/><text fill="#000000" font-family="sans-serif" font-size="14" font-style="italic" lengthAdjust="spacing" textLength="111.1592" x="1373.3718" y="203.7324">ChessBoardView</text><line style="stroke:#181818;stroke-width:0.5;" x1="1291.4836" x2="1533.9192" y1="214.4414" y2="214.4414"/><line style="stroke:#181818;stroke-width:0.5;" x1="1291.4836" x2="1533.9192" y1="222.4414" y2="222.4414"/><text fill="#000000" font-family="sans-serif" font-size="14" lengthAdjust="spacing" textLength="193.375" x="1296.4836" y="239.9766">ChessPiece get(Position pos)</text><text fill="#000000" font-family="sans-serif" font-size="14" lengthAdjust="spacing" textLength="232.4355" x="1296.4836" y="256.4648">boolean containsKey(Position pos)</text></g><!--class ChessBoard--><g id="elem_ChessBoard"><rect codeLine="86" fill="#FDF5E6" height="48" id="ChessBoard" style="stroke:#181818;stroke-width:0.5;" width="111.3721" x="1375.5774" y="367.2426"/><ellipse cx="1390.5774" cy="383.2426" fill="#ADD1B2" rx="11" ry="11" style="stroke:#181818;stroke-width:1;"/><path d="M1393.0505,389.3856 Q1392.4694,389.6845 1391.8303,389.8339 Q1391.1911,389.9833 1390.4856,389.9833 Q1387.9787,389.9833 1386.6589,388.3314 Q1385.3391,386.6796 1385.3391,383.5585 Q1385.3391,380.4291 1386.6589,378.7772 Q1387.9787,377.1254 1390.4856,377.1254 Q1391.1911,377.1254 1391.8386,377.2748 Q1392.486,377.4242 1393.0505,377.723 L1393.0505,380.4457 Q1392.4196,379.8646 1391.8261,379.5949 Q1391.2326,379.3251 1390.6018,379.3251 Q1389.257,379.3251 1388.5722,380.3917 Q1387.8874,381.4584 1387.8874,383.5585 Q1387.8874,385.6503 1388.5722,386.7169 Q1389.257,387.7836 1390.6018,387.7836 Q1391.2326,387.7836 1391.8261,387.5138 Q1392.4196,387.244 1393.0505,386.663 Z " fill="#000000"/><text fill="#000000" font-family="sans-serif" font-size="14" lengthAdjust="spacing" textLength="79.3721" x="1404.5774" y="388.5336">ChessBoard</text><line style="stroke:#181818;stroke-width:0.5;" x1="1376.5774" x2="1485.9494" y1="399.2426" y2="399.2426"/><line style="stroke:#181818;stroke-width:0.5;" x1="1376.5774" x2="1485.9494" y1="407.2426" y2="407.2426"/></g><!--class ChessBoardInitialzer--><g id="elem_ChessBoardInitialzer"><rect codeLine="88" fill="#FDF5E6" height="56.6211" id="ChessBoardInitialzer" style="stroke:#181818;stroke-width:0.5;" width="170.7559" x="986.1523" y="48.9102"/><ellipse cx="1001.1523" cy="69.2207" fill="#ADD1B2" rx="11" ry="11" style="stroke:#181818;stroke-width:1;"/><path d="M1003.6255,75.3638 Q1003.0444,75.6626 1002.4053,75.812 Q1001.7661,75.9614 1001.0605,75.9614 Q998.5537,75.9614 997.2339,74.3096 Q995.9141,72.6577 995.9141,69.5366 Q995.9141,66.4072 997.2339,64.7554 Q998.5537,63.1035 1001.0605,63.1035 Q1001.7661,63.1035 1002.4136,63.2529 Q1003.061,63.4023 1003.6255,63.7012 L1003.6255,66.4238 Q1002.9946,65.8428 1002.4011,65.573 Q1001.8076,65.3032 1001.1768,65.3032 Q999.832,65.3032 999.1472,66.3699 Q998.4624,67.4365 998.4624,69.5366 Q998.4624,71.6284 999.1472,72.6951 Q999.832,73.7617 1001.1768,73.7617 Q1001.8076,73.7617 1002.4011,73.4919 Q1002.9946,73.2222 1003.6255,72.6411 Z " fill="#000000"/><text fill="#000000" font-family="sans-serif" font-size="12" font-style="italic" lengthAdjust="spacing" textLength="43.9102" x="1062.5752" y="65.5117">&#171;static&#187;</text><text fill="#000000" font-family="sans-serif" font-size="14" lengthAdjust="spacing" textLength="138.7559" x="1015.1523" y="81.5781">ChessBoardInitialzer</text><line style="stroke:#181818;stroke-width:0.5;" x1="987.1523" x2="1155.9082" y1="89.5313" y2="89.5313"/><line style="stroke:#181818;stroke-width:0.5;" x1="987.1523" x2="1155.9082" y1="97.5313" y2="97.5313"/></g><!--class Position--><g id="elem_Position"><rect codeLine="90" fill="#FDF5E6" height="48" id="Position" style="stroke:#181818;stroke-width:0.5;" width="86.0928" x="2045.8807" y="551.0801"/><ellipse cx="2060.8807" cy="567.0801" fill="#ADD1B2" rx="11" ry="11" style="stroke:#181818;stroke-width:1;"/><path d="M2063.3538,573.2231 Q2062.7728,573.522 2062.1336,573.6714 Q2061.4945,573.8208 2060.7889,573.8208 Q2058.2821,573.8208 2056.9622,572.1689 Q2055.6424,570.5171 2055.6424,567.396 Q2055.6424,564.2666 2056.9622,562.6147 Q2058.2821,560.9629 2060.7889,560.9629 Q2061.4945,560.9629 2062.1419,561.1123 Q2062.7894,561.2617 2063.3538,561.5605 L2063.3538,564.2832 Q2062.723,563.7021 2062.1295,563.4324 Q2061.536,563.1626 2060.9051,563.1626 Q2059.5604,563.1626 2058.8756,564.2292 Q2058.1908,565.2959 2058.1908,567.396 Q2058.1908,569.4878 2058.8756,570.5544 Q2059.5604,571.6211 2060.9051,571.6211 Q2061.536,571.6211 2062.1295,571.3513 Q2062.723,571.0815 2063.3538,570.5005 Z " fill="#000000"/><text fill="#000000" font-family="sans-serif" font-size="14" lengthAdjust="spacing" textLength="54.0928" x="2074.8807" y="572.3711">Position</text><line style="stroke:#181818;stroke-width:0.5;" x1="2046.8807" x2="2130.9735" y1="583.0801" y2="583.0801"/><line style="stroke:#181818;stroke-width:0.5;" x1="2046.8807" x2="2130.9735" y1="591.0801" y2="591.0801"/></g><!--class PlayerColor--><g id="elem_PlayerColor"><rect codeLine="92" fill="#F8F8FF" height="80.9766" id="PlayerColor" style="stroke:#696969;stroke-width:0.5;" width="109.0205" x="1902.8696" y="746.3438"/><ellipse cx="1917.8696" cy="762.3438" fill="#EB937F" rx="11" ry="11" style="stroke:#181818;stroke-width:1;"/><path d="M1921.4839,768.8438 L1913.7642,768.8438 L1913.7642,756.4507 L1921.4839,756.4507 L1921.4839,758.6089 L1916.2129,758.6089 L1916.2129,761.2817 L1920.9858,761.2817 L1920.9858,763.4399 L1916.2129,763.4399 L1916.2129,766.6855 L1921.4839,766.6855 Z " fill="#000000"/><text fill="#696969" font-family="sans-serif" font-size="14" lengthAdjust="spacing" textLength="77.0205" x="1931.8696" y="767.6348">PlayerColor</text><line style="stroke:#696969;stroke-width:0.5;" x1="1903.8696" x2="2010.8901" y1="778.3438" y2="778.3438"/><text fill="#696969" font-family="sans-serif" font-size="14" lengthAdjust="spacing" textLength="42.7383" x="1908.8696" y="795.8789">WHITE</text><text fill="#696969" font-family="sans-serif" font-size="14" lengthAdjust="spacing" textLength="44.0029" x="1908.8696" y="812.3672">BLACK</text><line style="stroke:#696969;stroke-width:0.5;" x1="1903.8696" x2="2010.8901" y1="819.3203" y2="819.3203"/></g><!--class PieceType--><g id="elem_PieceType"><rect codeLine="97" fill="#F8F8FF" height="146.9297" id="PieceType" style="stroke:#696969;stroke-width:0.5;" width="99.334" x="1082.3472" y="746.3438"/><ellipse cx="1097.3472" cy="762.3438" fill="#EB937F" rx="11" ry="11" style="stroke:#181818;stroke-width:1;"/><path d="M1100.9614,768.8438 L1093.2417,768.8438 L1093.2417,756.4507 L1100.9614,756.4507 L1100.9614,758.6089 L1095.6904,758.6089 L1095.6904,761.2817 L1100.4634,761.2817 L1100.4634,763.4399 L1095.6904,763.4399 L1095.6904,766.6855 L1100.9614,766.6855 Z " fill="#000000"/><text fill="#696969" font-family="sans-serif" font-size="14" lengthAdjust="spacing" textLength="67.334" x="1111.3472" y="767.6348">PieceType</text><line style="stroke:#696969;stroke-width:0.5;" x1="1083.3472" x2="1180.6812" y1="778.3438" y2="778.3438"/><text fill="#696969" font-family="sans-serif" font-size="14" lengthAdjust="spacing" textLength="39.7168" x="1088.3472" y="795.8789">PAWN</text><text fill="#696969" font-family="sans-serif" font-size="14" lengthAdjust="spacing" textLength="39.7441" x="1088.3472" y="812.3672">ROOK</text><text fill="#696969" font-family="sans-serif" font-size="14" lengthAdjust="spacing" textLength="52.7734" x="1088.3472" y="828.8555">KNIGHT</text><text fill="#696969" font-family="sans-serif" font-size="14" lengthAdjust="spacing" textLength="48.5283" x="1088.3472" y="845.3438">BISHOP</text><text fill="#696969" font-family="sans-serif" font-size="14" lengthAdjust="spacing" textLength="46.0947" x="1088.3472" y="861.832">QUEEN</text><text fill="#696969" font-family="sans-serif" font-size="14" lengthAdjust="spacing" textLength="33.6328" x="1088.3472" y="878.3203">KING</text><line style="stroke:#696969;stroke-width:0.5;" x1="1083.3472" x2="1180.6812" y1="885.2734" y2="885.2734"/></g><!--class ChessPiece--><g id="elem_ChessPiece"><rect codeLine="106" fill="#FDF5E6" height="80.9766" id="ChessPiece" style="stroke:#181818;stroke-width:0.5;" width="454.627" x="1203.9499" y="549.1975"/><ellipse cx="1389.5114" cy="565.1975" fill="#A9DCDF" rx="11" ry="11" style="stroke:#181818;stroke-width:1;"/><path d="M1389.3747,560.5457 L1388.2209,565.6175 L1390.5368,565.6175 Z M1387.8806,558.3045 L1390.8772,558.3045 L1394.2224,570.6975 L1391.7736,570.6975 L1391.01,567.6346 L1387.7312,567.6346 L1386.9841,570.6975 L1384.5354,570.6975 Z " fill="#000000"/><text fill="#000000" font-family="sans-serif" font-size="14" font-style="italic" lengthAdjust="spacing" textLength="75.0039" x="1410.0114" y="570.4886">ChessPiece</text><line style="stroke:#181818;stroke-width:0.5;" x1="1204.9499" x2="1657.5769" y1="581.1975" y2="581.1975"/><text fill="#000000" font-family="sans-serif" font-size="14" lengthAdjust="spacing" textLength="139.3096" x="1209.9499" y="598.7327">-boolean: hasMoved</text><line style="stroke:#181818;stroke-width:0.5;" x1="1204.9499" x2="1657.5769" y1="605.6858" y2="605.6858"/><text fill="#000000" font-family="sans-serif" font-size="14" lengthAdjust="spacing" textLength="442.627" x="1209.9499" y="623.221">+Moves getPossibleMoves(ChessBoardView board, Position from)</text></g><!--class PromotableChessPiece--><g id="elem_PromotableChessPiece"><rect codeLine="110" fill="#FDF5E6" height="48" id="PromotableChessPiece" style="stroke:#181818;stroke-width:0.5;" width="184.3662" x="1698.5034" y="800.7565"/><ellipse cx="1713.5034" cy="816.7565" fill="#A9DCDF" rx="11" ry="11" style="stroke:#181818;stroke-width:1;"/><path d="M1713.3667,812.1047 L1712.2129,817.1764 L1714.5288,817.1764 Z M1711.8726,809.8634 L1714.8691,809.8634 L1718.2144,822.2565 L1715.7656,822.2565 L1715.002,819.1935 L1711.7231,819.1935 L1710.9761,822.2565 L1708.5273,822.2565 Z " fill="#000000"/><text fill="#000000" font-family="sans-serif" font-size="14" font-style="italic" lengthAdjust="spacing" textLength="152.3662" x="1727.5034" y="822.0475">PromotableChessPiece</text><line style="stroke:#181818;stroke-width:0.5;" x1="1699.5034" x2="1881.8696" y1="832.7565" y2="832.7565"/><line style="stroke:#181818;stroke-width:0.5;" x1="1699.5034" x2="1881.8696" y1="840.7565" y2="840.7565"/></g><!--class Pawn--><g id="elem_Pawn"><rect codeLine="111" fill="#FDF5E6" height="48" id="Pawn" style="stroke:#181818;stroke-width:0.5;" width="66.9453" x="995.4019" y="746.3438"/><ellipse cx="1010.4019" cy="762.3438" fill="#ADD1B2" rx="11" ry="11" style="stroke:#181818;stroke-width:1;"/><path d="M1012.875,768.4868 Q1012.2939,768.7856 1011.6548,768.9351 Q1011.0156,769.0845 1010.3101,769.0845 Q1007.8032,769.0845 1006.4834,767.4326 Q1005.1636,765.7808 1005.1636,762.6597 Q1005.1636,759.5303 1006.4834,757.8784 Q1007.8032,756.2266 1010.3101,756.2266 Q1011.0156,756.2266 1011.6631,756.376 Q1012.3105,756.5254 1012.875,756.8242 L1012.875,759.5469 Q1012.2441,758.9658 1011.6506,758.696 Q1011.0571,758.4263 1010.4263,758.4263 Q1009.0815,758.4263 1008.3967,759.4929 Q1007.7119,760.5596 1007.7119,762.6597 Q1007.7119,764.7515 1008.3967,765.8181 Q1009.0815,766.8848 1010.4263,766.8848 Q1011.0571,766.8848 1011.6506,766.615 Q1012.2441,766.3452 1012.875,765.7642 Z " fill="#000000"/><text fill="#000000" font-family="sans-serif" font-size="14" lengthAdjust="spacing" textLength="34.9453" x="1024.4019" y="767.6348">Pawn</text><line style="stroke:#181818;stroke-width:0.5;" x1="996.4019" x2="1061.3472" y1="778.3438" y2="778.3438"/><line style="stroke:#181818;stroke-width:0.5;" x1="996.4019" x2="1061.3472" y1="786.3438" y2="786.3438"/></g><!--class Rook--><g id="elem_Rook"><rect codeLine="112" fill="#FDF5E6" height="48" id="Rook" style="stroke:#181818;stroke-width:0.5;" width="66.2344" x="1739.1327" y="979.8945"/><ellipse cx="1754.1327" cy="995.8945" fill="#ADD1B2" rx="11" ry="11" style="stroke:#181818;stroke-width:1;"/><path d="M1756.6059,1002.0376 Q1756.0248,1002.3364 1755.3856,1002.4858 Q1754.7465,1002.6353 1754.0409,1002.6353 Q1751.5341,1002.6353 1750.2143,1000.9834 Q1748.8944,999.3315 1748.8944,996.2104 Q1748.8944,993.0811 1750.2143,991.4292 Q1751.5341,989.7773 1754.0409,989.7773 Q1754.7465,989.7773 1755.3939,989.9268 Q1756.0414,990.0762 1756.6059,990.375 L1756.6059,993.0977 Q1755.975,992.5166 1755.3815,992.2468 Q1754.788,991.9771 1754.1571,991.9771 Q1752.8124,991.9771 1752.1276,993.0437 Q1751.4428,994.1104 1751.4428,996.2104 Q1751.4428,998.3022 1752.1276,999.3689 Q1752.8124,1000.4355 1754.1571,1000.4355 Q1754.788,1000.4355 1755.3815,1000.1658 Q1755.975,999.896 1756.6059,999.3149 Z " fill="#000000"/><text fill="#000000" font-family="sans-serif" font-size="14" lengthAdjust="spacing" textLength="34.2344" x="1768.1327" y="1001.1855">Rook</text><line style="stroke:#181818;stroke-width:0.5;" x1="1740.1327" x2="1804.3671" y1="1011.8945" y2="1011.8945"/><line style="stroke:#181818;stroke-width:0.5;" x1="1740.1327" x2="1804.3671" y1="1019.8945" y2="1019.8945"/></g><!--class Knight--><g id="elem_Knight"><rect codeLine="113" fill="#FDF5E6" height="48" id="Knight" style="stroke:#181818;stroke-width:0.5;" width="76.5293" x="1922.703" y="979.8945"/><ellipse cx="1937.703" cy="995.8945" fill="#ADD1B2" rx="11" ry="11" style="stroke:#181818;stroke-width:1;"/><path d="M1940.1762,1002.0376 Q1939.5951,1002.3364 1938.956,1002.4858 Q1938.3168,1002.6353 1937.6112,1002.6353 Q1935.1044,1002.6353 1933.7846,1000.9834 Q1932.4647,999.3315 1932.4647,996.2104 Q1932.4647,993.0811 1933.7846,991.4292 Q1935.1044,989.7773 1937.6112,989.7773 Q1938.3168,989.7773 1938.9643,989.9268 Q1939.6117,990.0762 1940.1762,990.375 L1940.1762,993.0977 Q1939.5453,992.5166 1938.9518,992.2468 Q1938.3583,991.9771 1937.7274,991.9771 Q1936.3827,991.9771 1935.6979,993.0437 Q1935.0131,994.1104 1935.0131,996.2104 Q1935.0131,998.3022 1935.6979,999.3689 Q1936.3827,1000.4355 1937.7274,1000.4355 Q1938.3583,1000.4355 1938.9518,1000.1658 Q1939.5453,999.896 1940.1762,999.3149 Z " fill="#000000"/><text fill="#000000" font-family="sans-serif" font-size="14" lengthAdjust="spacing" textLength="44.5293" x="1951.703" y="1001.1855">Knight</text><line style="stroke:#181818;stroke-width:0.5;" x1="1923.703" x2="1998.2323" y1="1011.8945" y2="1011.8945"/><line style="stroke:#181818;stroke-width:0.5;" x1="1923.703" x2="1998.2323" y1="1019.8945" y2="1019.8945"/></g><!--class Bishop--><g id="elem_Bishop"><rect codeLine="114" fill="#FDF5E6" height="48" id="Bishop" style="stroke:#181818;stroke-width:0.5;" width="77.3359" x="1825.3671" y="979.8945"/><ellipse cx="1840.3671" cy="995.8945" fill="#ADD1B2" rx="11" ry="11" style="stroke:#181818;stroke-width:1;"/><path d="M1842.8402,1002.0376 Q1842.2592,1002.3364 1841.62,1002.4858 Q1840.9809,1002.6353 1840.2753,1002.6353 Q1837.7685,1002.6353 1836.4486,1000.9834 Q1835.1288,999.3315 1835.1288,996.2104 Q1835.1288,993.0811 1836.4486,991.4292 Q1837.7685,989.7773 1840.2753,989.7773 Q1840.9809,989.7773 1841.6283,989.9268 Q1842.2758,990.0762 1842.8402,990.375 L1842.8402,993.0977 Q1842.2094,992.5166 1841.6159,992.2468 Q1841.0224,991.9771 1840.3915,991.9771 Q1839.0468,991.9771 1838.362,993.0437 Q1837.6771,994.1104 1837.6771,996.2104 Q1837.6771,998.3022 1838.362,999.3689 Q1839.0468,1000.4355 1840.3915,1000.4355 Q1841.0224,1000.4355 1841.6159,1000.1658 Q1842.2094,999.896 1842.8402,999.3149 Z " fill="#000000"/><text fill="#000000" font-family="sans-serif" font-size="14" lengthAdjust="spacing" textLength="45.3359" x="1854.3671" y="1001.1855">Bishop</text><line style="stroke:#181818;stroke-width:0.5;" x1="1826.3671" x2="1901.703" y1="1011.8945" y2="1011.8945"/><line style="stroke:#181818;stroke-width:0.5;" x1="1826.3671" x2="1901.703" y1="1019.8945" y2="1019.8945"/></g><!--class Queen--><g id="elem_Queen"><rect codeLine="115" fill="#FDF5E6" height="48" id="Queen" style="stroke:#181818;stroke-width:0.5;" width="75.8525" x="1643.2802" y="979.8945"/><ellipse cx="1658.2802" cy="995.8945" fill="#ADD1B2" rx="11" ry="11" style="stroke:#181818;stroke-width:1;"/><path d="M1660.7533,1002.0376 Q1660.1723,1002.3364 1659.5331,1002.4858 Q1658.8939,1002.6353 1658.1884,1002.6353 Q1655.6815,1002.6353 1654.3617,1000.9834 Q1653.0419,999.3315 1653.0419,996.2104 Q1653.0419,993.0811 1654.3617,991.4292 Q1655.6815,989.7773 1658.1884,989.7773 Q1658.8939,989.7773 1659.5414,989.9268 Q1660.1889,990.0762 1660.7533,990.375 L1660.7533,993.0977 Q1660.1225,992.5166 1659.529,992.2468 Q1658.9354,991.9771 1658.3046,991.9771 Q1656.9599,991.9771 1656.275,993.0437 Q1655.5902,994.1104 1655.5902,996.2104 Q1655.5902,998.3022 1656.275,999.3689 Q1656.9599,1000.4355 1658.3046,1000.4355 Q1658.9354,1000.4355 1659.529,1000.1658 Q1660.1225,999.896 1660.7533,999.3149 Z " fill="#000000"/><text fill="#000000" font-family="sans-serif" font-size="14" lengthAdjust="spacing" textLength="43.8525" x="1672.2802" y="1001.1855">Queen</text><line style="stroke:#181818;stroke-width:0.5;" x1="1644.2802" x2="1718.1327" y1="1011.8945" y2="1011.8945"/><line style="stroke:#181818;stroke-width:0.5;" x1="1644.2802" x2="1718.1327" y1="1019.8945" y2="1019.8945"/></g><!--class King--><g id="elem_King"><rect codeLine="116" fill="#FDF5E6" height="48" id="King" style="stroke:#181818;stroke-width:0.5;" width="62.6045" x="1615.8989" y="746.3438"/><ellipse cx="1630.8989" cy="762.3438" fill="#ADD1B2" rx="11" ry="11" style="stroke:#181818;stroke-width:1;"/><path d="M1633.3721,768.4868 Q1632.791,768.7856 1632.1519,768.9351 Q1631.5127,769.0845 1630.8071,769.0845 Q1628.3003,769.0845 1626.9805,767.4326 Q1625.6606,765.7808 1625.6606,762.6597 Q1625.6606,759.5303 1626.9805,757.8784 Q1628.3003,756.2266 1630.8071,756.2266 Q1631.5127,756.2266 1632.1602,756.376 Q1632.8076,756.5254 1633.3721,756.8242 L1633.3721,759.5469 Q1632.7412,758.9658 1632.1477,758.696 Q1631.5542,758.4263 1630.9233,758.4263 Q1629.5786,758.4263 1628.8938,759.4929 Q1628.209,760.5596 1628.209,762.6597 Q1628.209,764.7515 1628.8938,765.8181 Q1629.5786,766.8848 1630.9233,766.8848 Q1631.5542,766.8848 1632.1477,766.615 Q1632.7412,766.3452 1633.3721,765.7642 Z " fill="#000000"/><text fill="#000000" font-family="sans-serif" font-size="14" lengthAdjust="spacing" textLength="30.6045" x="1644.8989" y="767.6348">King</text><line style="stroke:#181818;stroke-width:0.5;" x1="1616.8989" x2="1677.5034" y1="778.3438" y2="778.3438"/><line style="stroke:#181818;stroke-width:0.5;" x1="1616.8989" x2="1677.5034" y1="786.3438" y2="786.3438"/></g><!--class MoveGenerator--><g id="elem_MoveGenerator"><rect codeLine="119" fill="#FDF5E6" height="64.4883" id="MoveGenerator" style="stroke:#181818;stroke-width:0.5;" width="394.2178" x="1201.6812" y="795.1919"/><ellipse cx="1342.9731" cy="811.1919" fill="#B4A7E5" rx="11" ry="11" style="stroke:#181818;stroke-width:1;"/><path d="M1339.4009,807.457 L1339.4009,805.2988 L1346.7803,805.2988 L1346.7803,807.457 L1344.3149,807.457 L1344.3149,815.5337 L1346.7803,815.5337 L1346.7803,817.6919 L1339.4009,817.6919 L1339.4009,815.5337 L1341.8662,815.5337 L1341.8662,807.457 Z " fill="#000000"/><text fill="#000000" font-family="sans-serif" font-size="14" font-style="italic" lengthAdjust="spacing" textLength="103.1338" x="1363.4731" y="816.4829">MoveGenerator</text><line style="stroke:#181818;stroke-width:0.5;" x1="1202.6812" x2="1594.8989" y1="827.1919" y2="827.1919"/><line style="stroke:#181818;stroke-width:0.5;" x1="1202.6812" x2="1594.8989" y1="835.1919" y2="835.1919"/><text fill="#000000" font-family="sans-serif" font-size="14" lengthAdjust="spacing" textLength="382.2178" x="1207.6812" y="852.7271">+Moves generate(ChessBoardView board, Position from)</text></g><!--class DirectionalGenerator--><g id="elem_DirectionalGenerator"><rect codeLine="122" fill="#FDF5E6" height="48" id="DirectionalGenerator" style="stroke:#181818;stroke-width:0.5;" width="173.0117" x="1488.8382" y="1169.6465"/><ellipse cx="1503.8382" cy="1185.6465" fill="#ADD1B2" rx="11" ry="11" style="stroke:#181818;stroke-width:1;"/><path d="M1506.3114,1191.7896 Q1505.7303,1192.0884 1505.0911,1192.2378 Q1504.452,1192.3872 1503.7464,1192.3872 Q1501.2396,1192.3872 1499.9198,1190.7354 Q1498.5999,1189.0835 1498.5999,1185.9624 Q1498.5999,1182.833 1499.9198,1181.1812 Q1501.2396,1179.5293 1503.7464,1179.5293 Q1504.452,1179.5293 1505.0994,1179.6787 Q1505.7469,1179.8281 1506.3114,1180.127 L1506.3114,1182.8496 Q1505.6805,1182.2686 1505.087,1181.9988 Q1504.4935,1181.729 1503.8626,1181.729 Q1502.5179,1181.729 1501.8331,1182.7957 Q1501.1483,1183.8623 1501.1483,1185.9624 Q1501.1483,1188.0542 1501.8331,1189.1208 Q1502.5179,1190.1875 1503.8626,1190.1875 Q1504.4935,1190.1875 1505.087,1189.9177 Q1505.6805,1189.6479 1506.3114,1189.0669 Z " fill="#000000"/><text fill="#000000" font-family="sans-serif" font-size="14" lengthAdjust="spacing" textLength="141.0117" x="1517.8382" y="1190.9375">DirectionalGenerator</text><line style="stroke:#181818;stroke-width:0.5;" x1="1489.8382" x2="1660.8499" y1="1201.6465" y2="1201.6465"/><line style="stroke:#181818;stroke-width:0.5;" x1="1489.8382" x2="1660.8499" y1="1209.6465" y2="1209.6465"/></g><!--class CastlingDirectionalGenerator--><g id="elem_CastlingDirectionalGenerator"><rect codeLine="123" fill="#FDF5E6" height="48" id="CastlingDirectionalGenerator" style="stroke:#181818;stroke-width:0.5;" width="228.3145" x="1639.6069" y="1311.5781"/><ellipse cx="1654.6069" cy="1327.5781" fill="#ADD1B2" rx="11" ry="11" style="stroke:#181818;stroke-width:1;"/><path d="M1657.0801,1333.7212 Q1656.499,1334.02 1655.8599,1334.1694 Q1655.2207,1334.3188 1654.5151,1334.3188 Q1652.0083,1334.3188 1650.6885,1332.667 Q1649.3687,1331.0151 1649.3687,1327.894 Q1649.3687,1324.7646 1650.6885,1323.1128 Q1652.0083,1321.4609 1654.5151,1321.4609 Q1655.2207,1321.4609 1655.8682,1321.6104 Q1656.5156,1321.7598 1657.0801,1322.0586 L1657.0801,1324.7813 Q1656.4492,1324.2002 1655.8557,1323.9304 Q1655.2622,1323.6606 1654.6313,1323.6606 Q1653.2866,1323.6606 1652.6018,1324.7273 Q1651.917,1325.7939 1651.917,1327.894 Q1651.917,1329.9858 1652.6018,1331.0525 Q1653.2866,1332.1191 1654.6313,1332.1191 Q1655.2622,1332.1191 1655.8557,1331.8494 Q1656.4492,1331.5796 1657.0801,1330.9985 Z " fill="#000000"/><text fill="#000000" font-family="sans-serif" font-size="14" lengthAdjust="spacing" textLength="196.3145" x="1668.6069" y="1332.8691">CastlingDirectionalGenerator</text><line style="stroke:#181818;stroke-width:0.5;" x1="1640.6069" x2="1866.9214" y1="1343.5781" y2="1343.5781"/><line style="stroke:#181818;stroke-width:0.5;" x1="1640.6069" x2="1866.9214" y1="1351.5781" y2="1351.5781"/></g><!--class KnightGenerator--><g id="elem_KnightGenerator"><rect codeLine="124" fill="#FDF5E6" height="48" id="KnightGenerator" style="stroke:#181818;stroke-width:0.5;" width="143.959" x="1155.9678" y="979.8945"/><ellipse cx="1170.9678" cy="995.8945" fill="#ADD1B2" rx="11" ry="11" style="stroke:#181818;stroke-width:1;"/><path d="M1173.4409,1002.0376 Q1172.8599,1002.3364 1172.2207,1002.4858 Q1171.5815,1002.6353 1170.876,1002.6353 Q1168.3691,1002.6353 1167.0493,1000.9834 Q1165.7295,999.3315 1165.7295,996.2104 Q1165.7295,993.0811 1167.0493,991.4292 Q1168.3691,989.7773 1170.876,989.7773 Q1171.5815,989.7773 1172.229,989.9268 Q1172.8765,990.0762 1173.4409,990.375 L1173.4409,993.0977 Q1172.8101,992.5166 1172.2166,992.2468 Q1171.623,991.9771 1170.9922,991.9771 Q1169.6475,991.9771 1168.9626,993.0437 Q1168.2778,994.1104 1168.2778,996.2104 Q1168.2778,998.3022 1168.9626,999.3689 Q1169.6475,1000.4355 1170.9922,1000.4355 Q1171.623,1000.4355 1172.2166,1000.1658 Q1172.8101,999.896 1173.4409,999.3149 Z " fill="#000000"/><text fill="#000000" font-family="sans-serif" font-size="14" lengthAdjust="spacing" textLength="111.959" x="1184.9678" y="1001.1855">KnightGenerator</text><line style="stroke:#181818;stroke-width:0.5;" x1="1156.9678" x2="1298.9268" y1="1011.8945" y2="1011.8945"/><line style="stroke:#181818;stroke-width:0.5;" x1="1156.9678" x2="1298.9268" y1="1019.8945" y2="1019.8945"/></g><!--class DistanceGenerator--><g id="elem_DistanceGenerator"><rect codeLine="125" fill="#FDF5E6" height="48" id="DistanceGenerator" style="stroke:#181818;stroke-width:0.5;" width="157.7266" x="1319.9268" y="1011.7747"/><ellipse cx="1334.9268" cy="1027.7747" fill="#ADD1B2" rx="11" ry="11" style="stroke:#181818;stroke-width:1;"/><path d="M1337.3999,1033.9178 Q1336.8188,1034.2166 1336.1797,1034.366 Q1335.5405,1034.5155 1334.835,1034.5155 Q1332.3281,1034.5155 1331.0083,1032.8636 Q1329.6885,1031.2118 1329.6885,1028.0907 Q1329.6885,1024.9613 1331.0083,1023.3094 Q1332.3281,1021.6576 1334.835,1021.6576 Q1335.5405,1021.6576 1336.188,1021.807 Q1336.8354,1021.9564 1337.3999,1022.2552 L1337.3999,1024.9779 Q1336.769,1024.3968 1336.1755,1024.127 Q1335.582,1023.8573 1334.9512,1023.8573 Q1333.6064,1023.8573 1332.9216,1024.9239 Q1332.2368,1025.9906 1332.2368,1028.0907 Q1332.2368,1030.1825 1332.9216,1031.2491 Q1333.6064,1032.3158 1334.9512,1032.3158 Q1335.582,1032.3158 1336.1755,1032.046 Q1336.769,1031.7762 1337.3999,1031.1951 Z " fill="#000000"/><text fill="#000000" font-family="sans-serif" font-size="14" lengthAdjust="spacing" textLength="125.7266" x="1348.9268" y="1033.0658">DistanceGenerator</text><line style="stroke:#181818;stroke-width:0.5;" x1="1320.9268" x2="1476.6533" y1="1043.7747" y2="1043.7747"/><line style="stroke:#181818;stroke-width:0.5;" x1="1320.9268" x2="1476.6533" y1="1051.7747" y2="1051.7747"/></g><!--class PawnDistanceGenerator--><g id="elem_PawnDistanceGenerator"><rect codeLine="126" fill="#FDF5E6" height="48" id="PawnDistanceGenerator" style="stroke:#181818;stroke-width:0.5;" width="192.6719" x="1276.1663" y="1169.6465"/><ellipse cx="1291.1663" cy="1185.6465" fill="#ADD1B2" rx="11" ry="11" style="stroke:#181818;stroke-width:1;"/><path d="M1293.6395,1191.7896 Q1293.0584,1192.0884 1292.4193,1192.2378 Q1291.7801,1192.3872 1291.0745,1192.3872 Q1288.5677,1192.3872 1287.2479,1190.7354 Q1285.9281,1189.0835 1285.9281,1185.9624 Q1285.9281,1182.833 1287.2479,1181.1812 Q1288.5677,1179.5293 1291.0745,1179.5293 Q1291.7801,1179.5293 1292.4276,1179.6787 Q1293.075,1179.8281 1293.6395,1180.127 L1293.6395,1182.8496 Q1293.0086,1182.2686 1292.4151,1181.9988 Q1291.8216,1181.729 1291.1908,1181.729 Q1289.846,1181.729 1289.1612,1182.7957 Q1288.4764,1183.8623 1288.4764,1185.9624 Q1288.4764,1188.0542 1289.1612,1189.1208 Q1289.846,1190.1875 1291.1908,1190.1875 Q1291.8216,1190.1875 1292.4151,1189.9177 Q1293.0086,1189.6479 1293.6395,1189.0669 Z " fill="#000000"/><text fill="#000000" font-family="sans-serif" font-size="14" lengthAdjust="spacing" textLength="160.6719" x="1305.1663" y="1190.9375">PawnDistanceGenerator</text><line style="stroke:#181818;stroke-width:0.5;" x1="1277.1663" x2="1467.8382" y1="1201.6465" y2="1201.6465"/><line style="stroke:#181818;stroke-width:0.5;" x1="1277.1663" x2="1467.8382" y1="1209.6465" y2="1209.6465"/></g><!--class Direction--><g id="elem_Direction"><rect codeLine="128" fill="#FDF5E6" height="179.9063" id="Direction" style="stroke:#181818;stroke-width:0.5;" width="146.1963" x="1473.4106" y="1311.5781"/><ellipse cx="1511.9873" cy="1327.5781" fill="#EB937F" rx="11" ry="11" style="stroke:#181818;stroke-width:1;"/><path d="M1515.6016,1334.0781 L1507.8818,1334.0781 L1507.8818,1321.6851 L1515.6016,1321.6851 L1515.6016,1323.8433 L1510.3306,1323.8433 L1510.3306,1326.5161 L1515.1035,1326.5161 L1515.1035,1328.6743 L1510.3306,1328.6743 L1510.3306,1331.9199 L1515.6016,1331.9199 Z " fill="#000000"/><text fill="#000000" font-family="sans-serif" font-size="14" lengthAdjust="spacing" textLength="61.8037" x="1531.2266" y="1332.8691">Direction</text><line style="stroke:#181818;stroke-width:0.5;" x1="1474.4106" x2="1618.6069" y1="1343.5781" y2="1343.5781"/><text fill="#000000" font-family="sans-serif" font-size="14" lengthAdjust="spacing" textLength="75.749" x="1479.4106" y="1361.1133">FORWARDS</text><text fill="#000000" font-family="sans-serif" font-size="14" lengthAdjust="spacing" textLength="85.0527" x="1479.4106" y="1377.6016">BACKWARDS</text><text fill="#000000" font-family="sans-serif" font-size="14" lengthAdjust="spacing" textLength="31.4111" x="1479.4106" y="1394.0898">LEFT</text><text fill="#000000" font-family="sans-serif" font-size="14" lengthAdjust="spacing" textLength="42.1436" x="1479.4106" y="1410.5781">RIGHT</text><text fill="#000000" font-family="sans-serif" font-size="14" lengthAdjust="spacing" textLength="114.1602" x="1479.4106" y="1427.0664">FORWARDS_LEFT</text><text fill="#000000" font-family="sans-serif" font-size="14" lengthAdjust="spacing" textLength="124.8926" x="1479.4106" y="1443.5547">FORWARDS_RIGHT</text><text fill="#000000" font-family="sans-serif" font-size="14" lengthAdjust="spacing" textLength="123.4639" x="1479.4106" y="1460.043">BACKWARDS_LEFT</text><text fill="#000000" font-family="sans-serif" font-size="14" lengthAdjust="spacing" textLength="134.1963" x="1479.4106" y="1476.5313">BACKWARDS_RIGHT</text><line style="stroke:#181818;stroke-width:0.5;" x1="1474.4106" x2="1618.6069" y1="1483.4844" y2="1483.4844"/></g><!--class Moves--><g id="elem_Moves"><rect codeLine="140" fill="#FDF5E6" height="48" id="Moves" style="stroke:#181818;stroke-width:0.5;" width="74.8408" x="2443.2733" y="215.418"/><ellipse cx="2458.2733" cy="231.418" fill="#ADD1B2" rx="11" ry="11" style="stroke:#181818;stroke-width:1;"/><path d="M2460.7464,237.561 Q2460.1654,237.8599 2459.5262,238.0093 Q2458.887,238.1587 2458.1815,238.1587 Q2455.6746,238.1587 2454.3548,236.5068 Q2453.035,234.855 2453.035,231.7339 Q2453.035,228.6045 2454.3548,226.9526 Q2455.6746,225.3008 2458.1815,225.3008 Q2458.887,225.3008 2459.5345,225.4502 Q2460.182,225.5996 2460.7464,225.8984 L2460.7464,228.6211 Q2460.1156,228.04 2459.5221,227.7703 Q2458.9285,227.5005 2458.2977,227.5005 Q2456.953,227.5005 2456.2681,228.5671 Q2455.5833,229.6338 2455.5833,231.7339 Q2455.5833,233.8257 2456.2681,234.8923 Q2456.953,235.959 2458.2977,235.959 Q2458.9285,235.959 2459.5221,235.6892 Q2460.1156,235.4194 2460.7464,234.8384 Z " fill="#000000"/><text fill="#000000" font-family="sans-serif" font-size="14" lengthAdjust="spacing" textLength="42.8408" x="2472.2733" y="236.709">Moves</text><line style="stroke:#181818;stroke-width:0.5;" x1="2444.2733" x2="2517.1141" y1="247.418" y2="247.418"/><line style="stroke:#181818;stroke-width:0.5;" x1="2444.2733" x2="2517.1141" y1="255.418" y2="255.418"/></g><!--class ChessMove--><g id="elem_ChessMove"><rect codeLine="142" fill="#FDF5E6" height="64.4883" id="ChessMove" style="stroke:#181818;stroke-width:0.5;" width="241.9336" x="2359.7269" y="357.3496"/><ellipse cx="2438.3675" cy="373.3496" fill="#A9DCDF" rx="11" ry="11" style="stroke:#181818;stroke-width:1;"/><path d="M2438.2308,368.6978 L2437.077,373.7695 L2439.3929,373.7695 Z M2436.7367,366.4565 L2439.7332,366.4565 L2443.0785,378.8496 L2440.6297,378.8496 L2439.866,375.7866 L2436.5872,375.7866 L2435.8402,378.8496 L2433.3914,378.8496 Z " fill="#000000"/><text fill="#000000" font-family="sans-serif" font-size="14" font-style="italic" lengthAdjust="spacing" textLength="76.1523" x="2458.8675" y="378.6406">ChessMove</text><line style="stroke:#181818;stroke-width:0.5;" x1="2360.7269" x2="2600.6605" y1="389.3496" y2="389.3496"/><line style="stroke:#181818;stroke-width:0.5;" x1="2360.7269" x2="2600.6605" y1="397.3496" y2="397.3496"/><text fill="#000000" font-family="sans-serif" font-size="14" lengthAdjust="spacing" textLength="229.9336" x="2365.7269" y="414.8848">+void execute(ChessBoard board)</text></g><!--class MoveType--><g id="elem_MoveType"><rect codeLine="146" fill="#FDF5E6" height="113.9531" id="MoveType" style="stroke:#181818;stroke-width:0.5;" width="101.708" x="2537.4578" y="535.7695"/><ellipse cx="2553.0094" cy="551.7695" fill="#EB937F" rx="11" ry="11" style="stroke:#181818;stroke-width:1;"/><path d="M2556.6236,558.2695 L2548.9039,558.2695 L2548.9039,545.8765 L2556.6236,545.8765 L2556.6236,548.0347 L2551.3526,548.0347 L2551.3526,550.7075 L2556.1256,550.7075 L2556.1256,552.8657 L2551.3526,552.8657 L2551.3526,556.1113 L2556.6236,556.1113 Z " fill="#000000"/><text fill="#000000" font-family="sans-serif" font-size="14" lengthAdjust="spacing" textLength="68.4824" x="2567.1319" y="557.0605">MoveType</text><line style="stroke:#181818;stroke-width:0.5;" x1="2538.4578" x2="2638.1659" y1="567.7695" y2="567.7695"/><text fill="#000000" font-family="sans-serif" font-size="14" lengthAdjust="spacing" textLength="65.29" x="2543.4578" y="585.3047">VERTICAL</text><text fill="#000000" font-family="sans-serif" font-size="14" lengthAdjust="spacing" textLength="89.708" x="2543.4578" y="601.793">HORIZONTAL</text><text fill="#000000" font-family="sans-serif" font-size="14" lengthAdjust="spacing" textLength="72.6387" x="2543.4578" y="618.2813">DIAGONAL</text><text fill="#000000" font-family="sans-serif" font-size="14" lengthAdjust="spacing" textLength="46.457" x="2543.4578" y="634.7695">OTHER</text><line style="stroke:#181818;stroke-width:0.5;" x1="2538.4578" x2="2638.1659" y1="641.7227" y2="641.7227"/></g><!--class StandardMove--><g id="elem_StandardMove"><rect codeLine="153" fill="#FDF5E6" height="48" id="StandardMove" style="stroke:#181818;stroke-width:0.5;" width="127.9834" x="2152.9735" y="560.0908"/><ellipse cx="2167.9735" cy="576.0908" fill="#ADD1B2" rx="11" ry="11" style="stroke:#181818;stroke-width:1;"/><path d="M2170.4466,582.2339 Q2169.8656,582.5327 2169.2264,582.6821 Q2168.5872,582.8315 2167.8817,582.8315 Q2165.3748,582.8315 2164.055,581.1797 Q2162.7352,579.5278 2162.7352,576.4067 Q2162.7352,573.2773 2164.055,571.6255 Q2165.3748,569.9736 2167.8817,569.9736 Q2168.5872,569.9736 2169.2347,570.123 Q2169.8822,570.2725 2170.4466,570.5713 L2170.4466,573.2939 Q2169.8158,572.7129 2169.2222,572.4431 Q2168.6287,572.1733 2167.9979,572.1733 Q2166.6532,572.1733 2165.9683,573.24 Q2165.2835,574.3066 2165.2835,576.4067 Q2165.2835,578.4985 2165.9683,579.5652 Q2166.6532,580.6318 2167.9979,580.6318 Q2168.6287,580.6318 2169.2222,580.3621 Q2169.8158,580.0923 2170.4466,579.5112 Z " fill="#000000"/><text fill="#000000" font-family="sans-serif" font-size="14" lengthAdjust="spacing" textLength="95.9834" x="2181.9735" y="581.3818">StandardMove</text><line style="stroke:#181818;stroke-width:0.5;" x1="2153.9735" x2="2279.9569" y1="592.0908" y2="592.0908"/><line style="stroke:#181818;stroke-width:0.5;" x1="2153.9735" x2="2279.9569" y1="600.0908" y2="600.0908"/></g><!--class Capture--><g id="elem_Capture"><rect codeLine="154" fill="#FDF5E6" height="48" id="Capture" style="stroke:#181818;stroke-width:0.5;" width="85.6826" x="2338.2469" y="560.0908"/><ellipse cx="2353.2469" cy="576.0908" fill="#ADD1B2" rx="11" ry="11" style="stroke:#181818;stroke-width:1;"/><path d="M2355.7201,582.2339 Q2355.139,582.5327 2354.4998,582.6821 Q2353.8607,582.8315 2353.1551,582.8315 Q2350.6483,582.8315 2349.3285,581.1797 Q2348.0086,579.5278 2348.0086,576.4067 Q2348.0086,573.2773 2349.3285,571.6255 Q2350.6483,569.9736 2353.1551,569.9736 Q2353.8607,569.9736 2354.5081,570.123 Q2355.1556,570.2725 2355.7201,570.5713 L2355.7201,573.2939 Q2355.0892,572.7129 2354.4957,572.4431 Q2353.9022,572.1733 2353.2713,572.1733 Q2351.9266,572.1733 2351.2418,573.24 Q2350.557,574.3066 2350.557,576.4067 Q2350.557,578.4985 2351.2418,579.5652 Q2351.9266,580.6318 2353.2713,580.6318 Q2353.9022,580.6318 2354.4957,580.3621 Q2355.0892,580.0923 2355.7201,579.5112 Z " fill="#000000"/><text fill="#000000" font-family="sans-serif" font-size="14" lengthAdjust="spacing" textLength="53.6826" x="2367.2469" y="581.3818">Capture</text><line style="stroke:#181818;stroke-width:0.5;" x1="2339.2469" x2="2422.9295" y1="592.0908" y2="592.0908"/><line style="stroke:#181818;stroke-width:0.5;" x1="2339.2469" x2="2422.9295" y1="600.0908" y2="600.0908"/></g><!--class Check--><g id="elem_Check"><rect codeLine="155" fill="#FDF5E6" height="48" id="Check" style="stroke:#181818;stroke-width:0.5;" width="73.5283" x="2443.9295" y="551.0801"/><ellipse cx="2458.9295" cy="567.0801" fill="#ADD1B2" rx="11" ry="11" style="stroke:#181818;stroke-width:1;"/><path d="M2461.4027,573.2231 Q2460.8216,573.522 2460.1825,573.6714 Q2459.5433,573.8208 2458.8377,573.8208 Q2456.3309,573.8208 2455.0111,572.1689 Q2453.6912,570.5171 2453.6912,567.396 Q2453.6912,564.2666 2455.0111,562.6147 Q2456.3309,560.9629 2458.8377,560.9629 Q2459.5433,560.9629 2460.1908,561.1123 Q2460.8382,561.2617 2461.4027,561.5605 L2461.4027,564.2832 Q2460.7718,563.7021 2460.1783,563.4324 Q2459.5848,563.1626 2458.9539,563.1626 Q2457.6092,563.1626 2456.9244,564.2292 Q2456.2396,565.2959 2456.2396,567.396 Q2456.2396,569.4878 2456.9244,570.5544 Q2457.6092,571.6211 2458.9539,571.6211 Q2459.5848,571.6211 2460.1783,571.3513 Q2460.7718,571.0815 2461.4027,570.5005 Z " fill="#000000"/><text fill="#000000" font-family="sans-serif" font-size="14" lengthAdjust="spacing" textLength="41.5283" x="2472.9295" y="572.3711">Check</text><line style="stroke:#181818;stroke-width:0.5;" x1="2444.9295" x2="2516.4578" y1="583.0801" y2="583.0801"/><line style="stroke:#181818;stroke-width:0.5;" x1="2444.9295" x2="2516.4578" y1="591.0801" y2="591.0801"/></g><!--class EnPassant--><g id="elem_EnPassant"><rect codeLine="156" fill="#FDF5E6" height="48" id="EnPassant" style="stroke:#181818;stroke-width:0.5;" width="99.6758" x="2766.4686" y="551.0801"/><ellipse cx="2781.4686" cy="567.0801" fill="#ADD1B2" rx="11" ry="11" style="stroke:#181818;stroke-width:1;"/><path d="M2783.9417,573.2231 Q2783.3607,573.522 2782.7215,573.6714 Q2782.0824,573.8208 2781.3768,573.8208 Q2778.87,573.8208 2777.5501,572.1689 Q2776.2303,570.5171 2776.2303,567.396 Q2776.2303,564.2666 2777.5501,562.6147 Q2778.87,560.9629 2781.3768,560.9629 Q2782.0824,560.9629 2782.7298,561.1123 Q2783.3773,561.2617 2783.9417,561.5605 L2783.9417,564.2832 Q2783.3109,563.7021 2782.7174,563.4324 Q2782.1239,563.1626 2781.493,563.1626 Q2780.1483,563.1626 2779.4635,564.2292 Q2778.7786,565.2959 2778.7786,567.396 Q2778.7786,569.4878 2779.4635,570.5544 Q2780.1483,571.6211 2781.493,571.6211 Q2782.1239,571.6211 2782.7174,571.3513 Q2783.3109,571.0815 2783.9417,570.5005 Z " fill="#000000"/><text fill="#000000" font-family="sans-serif" font-size="14" lengthAdjust="spacing" textLength="67.6758" x="2795.4686" y="572.3711">EnPassant</text><line style="stroke:#181818;stroke-width:0.5;" x1="2767.4686" x2="2865.1444" y1="583.0801" y2="583.0801"/><line style="stroke:#181818;stroke-width:0.5;" x1="2767.4686" x2="2865.1444" y1="591.0801" y2="591.0801"/></g><!--class Castling--><g id="elem_Castling"><rect codeLine="157" fill="#FDF5E6" height="48" id="Castling" style="stroke:#181818;stroke-width:0.5;" width="87.3027" x="2659.1659" y="551.0801"/><ellipse cx="2674.1659" cy="567.0801" fill="#ADD1B2" rx="11" ry="11" style="stroke:#181818;stroke-width:1;"/><path d="M2676.639,573.2231 Q2676.0579,573.522 2675.4188,573.6714 Q2674.7796,573.8208 2674.0741,573.8208 Q2671.5672,573.8208 2670.2474,572.1689 Q2668.9276,570.5171 2668.9276,567.396 Q2668.9276,564.2666 2670.2474,562.6147 Q2671.5672,560.9629 2674.0741,560.9629 Q2674.7796,560.9629 2675.4271,561.1123 Q2676.0745,561.2617 2676.639,561.5605 L2676.639,564.2832 Q2676.0081,563.7021 2675.4146,563.4324 Q2674.8211,563.1626 2674.1903,563.1626 Q2672.8455,563.1626 2672.1607,564.2292 Q2671.4759,565.2959 2671.4759,567.396 Q2671.4759,569.4878 2672.1607,570.5544 Q2672.8455,571.6211 2674.1903,571.6211 Q2674.8211,571.6211 2675.4146,571.3513 Q2676.0081,571.0815 2676.639,570.5005 Z " fill="#000000"/><text fill="#000000" font-family="sans-serif" font-size="14" lengthAdjust="spacing" textLength="55.3027" x="2688.1659" y="572.3711">Castling</text><line style="stroke:#181818;stroke-width:0.5;" x1="2660.1659" x2="2745.4686" y1="583.0801" y2="583.0801"/><line style="stroke:#181818;stroke-width:0.5;" x1="2660.1659" x2="2745.4686" y1="591.0801" y2="591.0801"/></g><!--class Promotion--><g id="elem_Promotion"><rect codeLine="158" fill="#FDF5E6" height="48" id="Promotion" style="stroke:#181818;stroke-width:0.5;" width="102.3076" x="2165.8114" y="746.3438"/><ellipse cx="2180.8114" cy="762.3438" fill="#ADD1B2" rx="11" ry="11" style="stroke:#181818;stroke-width:1;"/><path d="M2183.2845,768.4868 Q2182.7035,768.7856 2182.0643,768.9351 Q2181.4251,769.0845 2180.7196,769.0845 Q2178.2127,769.0845 2176.8929,767.4326 Q2175.5731,765.7808 2175.5731,762.6597 Q2175.5731,759.5303 2176.8929,757.8784 Q2178.2127,756.2266 2180.7196,756.2266 Q2181.4251,756.2266 2182.0726,756.376 Q2182.7201,756.5254 2183.2845,756.8242 L2183.2845,759.5469 Q2182.6536,758.9658 2182.0601,758.696 Q2181.4666,758.4263 2180.8358,758.4263 Q2179.491,758.4263 2178.8062,759.4929 Q2178.1214,760.5596 2178.1214,762.6597 Q2178.1214,764.7515 2178.8062,765.8181 Q2179.491,766.8848 2180.8358,766.8848 Q2181.4666,766.8848 2182.0601,766.615 Q2182.6536,766.3452 2183.2845,765.7642 Z " fill="#000000"/><text fill="#000000" font-family="sans-serif" font-size="14" lengthAdjust="spacing" textLength="70.3076" x="2194.8114" y="767.6348">Promotion</text><line style="stroke:#181818;stroke-width:0.5;" x1="2166.8114" x2="2267.119" y1="778.3438" y2="778.3438"/><line style="stroke:#181818;stroke-width:0.5;" x1="2166.8114" x2="2267.119" y1="786.3438" y2="786.3438"/></g><!--class PromotionWithCapture--><g id="elem_PromotionWithCapture"><rect codeLine="159" fill="#FDF5E6" height="48" id="PromotionWithCapture" style="stroke:#181818;stroke-width:0.5;" width="185.9385" x="2288.119" y="746.3438"/><ellipse cx="2303.119" cy="762.3438" fill="#ADD1B2" rx="11" ry="11" style="stroke:#181818;stroke-width:1;"/><path d="M2305.5921,768.4868 Q2305.0111,768.7856 2304.3719,768.9351 Q2303.7327,769.0845 2303.0272,769.0845 Q2300.5203,769.0845 2299.2005,767.4326 Q2297.8807,765.7808 2297.8807,762.6597 Q2297.8807,759.5303 2299.2005,757.8784 Q2300.5203,756.2266 2303.0272,756.2266 Q2303.7327,756.2266 2304.3802,756.376 Q2305.0277,756.5254 2305.5921,756.8242 L2305.5921,759.5469 Q2304.9613,758.9658 2304.3678,758.696 Q2303.7743,758.4263 2303.1434,758.4263 Q2301.7987,758.4263 2301.1139,759.4929 Q2300.429,760.5596 2300.429,762.6597 Q2300.429,764.7515 2301.1139,765.8181 Q2301.7987,766.8848 2303.1434,766.8848 Q2303.7743,766.8848 2304.3678,766.615 Q2304.9613,766.3452 2305.5921,765.7642 Z " fill="#000000"/><text fill="#000000" font-family="sans-serif" font-size="14" lengthAdjust="spacing" textLength="153.9385" x="2317.119" y="767.6348">PromotionWithCapture</text><line style="stroke:#181818;stroke-width:0.5;" x1="2289.119" x2="2473.0575" y1="778.3438" y2="778.3438"/><line style="stroke:#181818;stroke-width:0.5;" x1="2289.119" x2="2473.0575" y1="786.3438" y2="786.3438"/></g><line style="stroke:#181818;stroke-width:1;stroke-dasharray:7.0,7.0;" x1="558.1821" x2="558.1821" y1="421.8379" y2="535.7695"/><line style="stroke:#181818;stroke-width:1;stroke-dasharray:7.0,7.0;" x1="670.335" x2="670.335" y1="649.7227" y2="719.0332"/><line style="stroke:#181818;stroke-width:1;stroke-dasharray:7.0,7.0;" x1="670.335" x2="550.0269" y1="719.0332" y2="719.0332"/><line style="stroke:#181818;stroke-width:1;stroke-dasharray:7.0,7.0;" x1="550.0269" x2="550.0269" y1="719.0332" y2="775.5293"/><polygon fill="#FFFFFF" points="670.335,649.7227,663.335,668.7227,677.335,668.7227,670.335,649.7227" style="stroke:#181818;stroke-width:1;"/><line style="stroke:#181818;stroke-width:1;" x1="443.0508" x2="443.0508" y1="856.5059" y2="962.584"/><polygon fill="#FFFFFF" points="443.0508,856.5059,436.0508,875.5059,450.0508,875.5059,443.0508,856.5059" style="stroke:#181818;stroke-width:1;"/><line style="stroke:#181818;stroke-width:1;" x1="603.5149" x2="603.5149" y1="856.5059" y2="903.2734"/><line style="stroke:#181818;stroke-width:1;" x1="603.5149" x2="911.6621" y1="903.2734" y2="903.2734"/><line style="stroke:#181818;stroke-width:1;" x1="911.6621" x2="911.6621" y1="903.2734" y2="962.584"/><polygon fill="#FFFFFF" points="603.5149,856.5059,596.5149,875.5059,610.5149,875.5059,603.5149,856.5059" style="stroke:#181818;stroke-width:1;"/><line style="stroke:#181818;stroke-width:1;stroke-dasharray:7.0,7.0;" x1="867.7209" x2="867.7209" y1="125.1309" y2="152.4414"/><line style="stroke:#181818;stroke-width:1;stroke-dasharray:7.0,7.0;" x1="867.7209" x2="1741.6443" y1="152.4414" y2="152.4414"/><line style="stroke:#181818;stroke-width:1;stroke-dasharray:7.0,7.0;" x1="1741.6443" x2="1741.6443" y1="152.4414" y2="182.4414"/><polygon fill="#FFFFFF" points="867.7209,125.1309,860.7209,144.1309,874.7209,144.1309,867.7209,125.1309" style="stroke:#181818;stroke-width:1;"/><line style="stroke:#181818;stroke-width:1;stroke-dasharray:7.0,7.0;" x1="1412.7014" x2="1412.7014" y1="263.418" y2="367.2426"/><polygon fill="#FFFFFF" points="1412.7014,263.418,1405.7014,282.418,1419.7014,282.418,1412.7014,263.418" style="stroke:#181818;stroke-width:1;"/><line style="stroke:#181818;stroke-width:1;" x1="1528.6835" x2="1528.6835" y1="630.1741" y2="669.7227"/><line style="stroke:#181818;stroke-width:1;" x1="1528.6835" x2="1759.9588" y1="669.7227" y2="669.7227"/><line style="stroke:#181818;stroke-width:1;" x1="1759.9588" x2="1759.9588" y1="669.7227" y2="800.7565"/><polygon fill="#FFFFFF" points="1528.6835,630.1741,1521.6835,649.1741,1535.6835,649.1741,1528.6835,630.1741" style="stroke:#181818;stroke-width:1;"/><line style="stroke:#181818;stroke-width:1;stroke-dasharray:7.0,7.0;" x1="1953.2098" x2="1953.2098" y1="632.4121" y2="719.0332"/><line style="stroke:#181818;stroke-width:1;stroke-dasharray:7.0,7.0;" x1="1953.2098" x2="1821.4142" y1="719.0332" y2="719.0332"/><line style="stroke:#181818;stroke-width:1;stroke-dasharray:7.0,7.0;" x1="1821.4142" x2="1821.4142" y1="719.0332" y2="800.7565"/><polygon fill="#FFFFFF" points="1953.2098,632.4121,1946.2098,651.4121,1960.2098,651.4121,1953.2098,632.4121" style="stroke:#181818;stroke-width:1;"/><line style="stroke:#181818;stroke-width:1;" x1="1268.8966" x2="1268.8966" y1="630.1741" y2="659.7227"/><line style="stroke:#181818;stroke-width:1;" x1="1268.8966" x2="1028.8745" y1="659.7227" y2="659.7227"/><line style="stroke:#181818;stroke-width:1;" x1="1028.8745" x2="1028.8745" y1="659.7227" y2="746.3438"/><polygon fill="#FFFFFF" points="1268.8966,630.1741,1261.8966,649.1741,1275.8966,649.1741,1268.8966,630.1741" style="stroke:#181818;stroke-width:1;"/><line style="stroke:#181818;stroke-width:1;" x1="1772.2499" x2="1772.2499" y1="848.7565" y2="979.8945"/><polygon fill="#FFFFFF" points="1772.2499,848.7565,1765.2499,867.7565,1779.2499,867.7565,1772.2499,848.7565" style="stroke:#181818;stroke-width:1;"/><line style="stroke:#181818;stroke-width:1;" x1="1845.9964" x2="1845.9964" y1="848.7565" y2="903.2734"/><line style="stroke:#181818;stroke-width:1;" x1="1845.9964" x2="1960.9677" y1="903.2734" y2="903.2734"/><line style="stroke:#181818;stroke-width:1;" x1="1960.9677" x2="1960.9677" y1="903.2734" y2="979.8945"/><polygon fill="#FFFFFF" points="1845.9964,848.7565,1838.9964,867.7565,1852.9964,867.7565,1845.9964,848.7565" style="stroke:#181818;stroke-width:1;"/><line style="stroke:#181818;stroke-width:1;" x1="1809.1231" x2="1809.1231" y1="848.7565" y2="913.2734"/><line style="stroke:#181818;stroke-width:1;" x1="1809.1231" x2="1864.0351" y1="913.2734" y2="913.2734"/><line style="stroke:#181818;stroke-width:1;" x1="1864.0351" x2="1864.0351" y1="913.2734" y2="979.8945"/><polygon fill="#FFFFFF" points="1809.1231,848.7565,1802.1231,867.7565,1816.1231,867.7565,1809.1231,848.7565" style="stroke:#181818;stroke-width:1;"/><line style="stroke:#181818;stroke-width:1;" x1="1735.3767" x2="1735.3767" y1="848.7565" y2="903.2734"/><line style="stroke:#181818;stroke-width:1;" x1="1735.3767" x2="1681.2064" y1="903.2734" y2="903.2734"/><line style="stroke:#181818;stroke-width:1;" x1="1681.2064" x2="1681.2064" y1="903.2734" y2="979.8945"/><polygon fill="#FFFFFF" points="1735.3767,848.7565,1728.3767,867.7565,1742.3767,867.7565,1735.3767,848.7565" style="stroke:#181818;stroke-width:1;"/><line style="stroke:#181818;stroke-width:1;" x1="1463.7367" x2="1463.7367" y1="630.1741" y2="679.7227"/><line style="stroke:#181818;stroke-width:1;" x1="1463.7367" x2="1647.2012" y1="679.7227" y2="679.7227"/><line style="stroke:#181818;stroke-width:1;" x1="1647.2012" x2="1647.2012" y1="679.7227" y2="746.3438"/><polygon fill="#FFFFFF" points="1463.7367,630.1741,1456.7367,649.1741,1470.7367,649.1741,1463.7367,630.1741" style="stroke:#181818;stroke-width:1;"/><line style="stroke:#181818;stroke-width:1;stroke-dasharray:7.0,7.0;" x1="1497.3445" x2="1497.3445" y1="859.6802" y2="903.2734"/><line style="stroke:#181818;stroke-width:1;stroke-dasharray:7.0,7.0;" x1="1497.3445" x2="1604.1794" y1="903.2734" y2="903.2734"/><line style="stroke:#181818;stroke-width:1;stroke-dasharray:7.0,7.0;" x1="1604.1794" x2="1604.1794" y1="903.2734" y2="1169.6465"/><polygon fill="#FFFFFF" points="1497.3445,859.6802,1490.3445,878.6802,1504.3445,878.6802,1497.3445,859.6802" style="stroke:#181818;stroke-width:1;"/><line style="stroke:#181818;stroke-width:1;" x1="1604.1794" x2="1604.1794" y1="1217.6465" y2="1244.957"/><line style="stroke:#181818;stroke-width:1;" x1="1604.1794" x2="1753.7642" y1="1244.957" y2="1244.957"/><line style="stroke:#181818;stroke-width:1;" x1="1753.7642" x2="1753.7642" y1="1244.957" y2="1311.5781"/><polygon fill="#FFFFFF" points="1604.1794,1217.6465,1597.1794,1236.6465,1611.1794,1236.6465,1604.1794,1217.6465" style="stroke:#181818;stroke-width:1;"/><line style="stroke:#181818;stroke-width:1;stroke-dasharray:7.0,7.0;" x1="1300.2356" x2="1300.2356" y1="859.6802" y2="903.2734"/><line style="stroke:#181818;stroke-width:1;stroke-dasharray:7.0,7.0;" x1="1300.2356" x2="1227.9473" y1="903.2734" y2="903.2734"/><line style="stroke:#181818;stroke-width:1;stroke-dasharray:7.0,7.0;" x1="1227.9473" x2="1227.9473" y1="903.2734" y2="979.8945"/><polygon fill="#FFFFFF" points="1300.2356,859.6802,1293.2356,878.6802,1307.2356,878.6802,1300.2356,859.6802" style="stroke:#181818;stroke-width:1;"/><line style="stroke:#181818;stroke-width:1;stroke-dasharray:7.0,7.0;" x1="1398.79" x2="1398.79" y1="859.6802" y2="1011.7747"/><polygon fill="#FFFFFF" points="1398.79,859.6802,1391.79,878.6802,1405.79,878.6802,1398.79,859.6802" style="stroke:#181818;stroke-width:1;"/><line style="stroke:#181818;stroke-width:1;" x1="1372.5023" x2="1372.5023" y1="1059.7747" y2="1169.6465"/><polygon fill="#FFFFFF" points="1372.5023,1059.7747,1365.5023,1078.7747,1379.5023,1078.7747,1372.5023,1059.7747" style="stroke:#181818;stroke-width:1;"/><line style="stroke:#181818;stroke-width:1;" x1="2420.2103" x2="2420.2103" y1="421.8379" y2="459.1484"/><line style="stroke:#181818;stroke-width:1;" x1="2420.2103" x2="2216.9652" y1="459.1484" y2="459.1484"/><line style="stroke:#181818;stroke-width:1;" x1="2216.9652" x2="2216.9652" y1="459.1484" y2="560.0908"/><polygon fill="#FFFFFF" points="2420.2103,421.8379,2413.2103,440.8379,2427.2103,440.8379,2420.2103,421.8379" style="stroke:#181818;stroke-width:1;"/><line style="stroke:#181818;stroke-width:1;" x1="2450.452" x2="2450.452" y1="421.8379" y2="469.1484"/><line style="stroke:#181818;stroke-width:1;" x1="2450.452" x2="2381.0882" y1="469.1484" y2="469.1484"/><line style="stroke:#181818;stroke-width:1;" x1="2381.0882" x2="2381.0882" y1="469.1484" y2="560.0908"/><polygon fill="#FFFFFF" points="2450.452,421.8379,2443.452,440.8379,2457.452,440.8379,2450.452,421.8379" style="stroke:#181818;stroke-width:1;"/><line style="stroke:#181818;stroke-width:1;" x1="2480.6937" x2="2480.6937" y1="421.8379" y2="551.0801"/><polygon fill="#FFFFFF" points="2480.6937,421.8379,2473.6937,440.8379,2487.6937,440.8379,2480.6937,421.8379" style="stroke:#181818;stroke-width:1;"/><line style="stroke:#181818;stroke-width:1;" x1="2571.4188" x2="2571.4188" y1="421.8379" y2="449.1484"/><line style="stroke:#181818;stroke-width:1;" x1="2571.4188" x2="2816.3065" y1="449.1484" y2="449.1484"/><line style="stroke:#181818;stroke-width:1;" x1="2816.3065" x2="2816.3065" y1="449.1484" y2="551.0801"/><polygon fill="#FFFFFF" points="2571.4188,421.8379,2564.4188,440.8379,2578.4188,440.8379,2571.4188,421.8379" style="stroke:#181818;stroke-width:1;"/><line style="stroke:#181818;stroke-width:1;" x1="2541.1771" x2="2541.1771" y1="421.8379" y2="459.1484"/><line style="stroke:#181818;stroke-width:1;" x1="2541.1771" x2="2702.8172" y1="459.1484" y2="459.1484"/><line style="stroke:#181818;stroke-width:1;" x1="2702.8172" x2="2702.8172" y1="459.1484" y2="551.0801"/><polygon fill="#FFFFFF" points="2541.1771,421.8379,2534.1771,440.8379,2548.1771,440.8379,2541.1771,421.8379" style="stroke:#181818;stroke-width:1;"/><line style="stroke:#181818;stroke-width:1;" x1="2216.9652" x2="2216.9652" y1="608.0908" y2="746.3438"/><polygon fill="#FFFFFF" points="2216.9652,608.0908,2209.9652,627.0908,2223.9652,627.0908,2216.9652,608.0908" style="stroke:#181818;stroke-width:1;"/><line style="stroke:#181818;stroke-width:1;" x1="2381.0882" x2="2381.0882" y1="608.0908" y2="746.3438"/><polygon fill="#FFFFFF" points="2381.0882,608.0908,2374.0882,627.0908,2388.0882,627.0908,2381.0882,608.0908" style="stroke:#181818;stroke-width:1;"/><line style="stroke:#181818;stroke-width:1;" x1="769.2896" x2="769.2896" y1="125.1309" y2="508.459"/><line style="stroke:#181818;stroke-width:1;" x1="769.2896" x2="670.335" y1="508.459" y2="508.459"/><line style="stroke:#181818;stroke-width:1;" x1="670.335" x2="670.335" y1="508.459" y2="535.7695"/><polygon fill="#181818" points="670.335,535.7695,674.335,526.7695,670.335,530.7695,666.335,526.7695,670.335,535.7695" style="stroke:#181818;stroke-width:1;"/><text fill="#000000" font-family="sans-serif" font-size="13" lengthAdjust="spacing" textLength="49.9116" x="715.3779" y="315.2969">manage</text><text fill="#000000" font-family="sans-serif" font-size="13" lengthAdjust="spacing" textLength="8.2202" x="772.2896" y="139.6992">1</text><text fill="#000000" font-family="sans-serif" font-size="13" lengthAdjust="spacing" textLength="8.2202" x="673.335" y="531.0273">1</text><line style="stroke:#181818;stroke-width:1;" x1="336.0747" x2="336.0747" y1="775.5293" y2="152.4414"/><line style="stroke:#181818;stroke-width:1;" x1="336.0747" x2="670.8582" y1="152.4414" y2="152.4414"/><line style="stroke:#181818;stroke-width:1;" x1="670.8582" x2="670.8582" y1="152.4414" y2="125.1309"/><polygon fill="#181818" points="670.8582,125.1309,674.8582,116.1309,670.8582,120.1309,666.8582,116.1309,670.8582,125.1309" style="stroke:#181818;stroke-width:1;"/><text fill="#000000" font-family="sans-serif" font-size="13" lengthAdjust="spacing" textLength="50.9717" x="281.103" y="394.5068">callback</text><text fill="#000000" font-family="sans-serif" font-size="13" lengthAdjust="spacing" textLength="8.2202" x="339.0747" y="770.7871">1</text><text fill="#000000" font-family="sans-serif" font-size="13" lengthAdjust="spacing" textLength="8.2202" x="673.8582" y="139.6992">1</text><line style="stroke:#181818;stroke-width:1;" x1="282.5867" x2="282.5867" y1="856.5059" y2="903.2734"/><line style="stroke:#181818;stroke-width:1;" x1="282.5867" x2="105.3726" y1="903.2734" y2="903.2734"/><line style="stroke:#181818;stroke-width:1;" x1="105.3726" x2="105.3726" y1="903.2734" y2="979.8945"/><polygon fill="#181818" points="105.3726,979.8945,109.3726,970.8945,105.3726,974.8945,101.3726,970.8945,105.3726,979.8945" style="stroke:#181818;stroke-width:1;"/><text fill="#000000" font-family="sans-serif" font-size="13" lengthAdjust="spacing" textLength="32.0366" x="69.3359" y="937.8418">store</text><text fill="#000000" font-family="sans-serif" font-size="13" lengthAdjust="spacing" textLength="22.7119" x="285.5867" y="871.0742">0..*</text><text fill="#000000" font-family="sans-serif" font-size="13" lengthAdjust="spacing" textLength="22.7119" x="108.3726" y="975.1523">0..*</text><line style="stroke:#181818;stroke-width:1;" x1="1679.4026" x2="1679.4026" y1="263.418" y2="330.0391"/><line style="stroke:#181818;stroke-width:1;" x1="1679.4026" x2="1449.8254" y1="330.0391" y2="330.0391"/><line style="stroke:#181818;stroke-width:1;" x1="1449.8254" x2="1449.8254" y1="330.0391" y2="367.2426"/><polygon fill="#181818" points="1449.8254,367.2426,1453.8254,358.2426,1449.8254,362.2426,1445.8254,358.2426,1449.8254,367.2426" style="stroke:#181818;stroke-width:1;"/><text fill="#000000" font-family="sans-serif" font-size="13" lengthAdjust="spacing" textLength="21.874" x="1653.5285" y="315.2969">has</text><text fill="#000000" font-family="sans-serif" font-size="13" lengthAdjust="spacing" textLength="8.2202" x="1682.4026" y="277.9863">1</text><text fill="#000000" font-family="sans-serif" font-size="13" lengthAdjust="spacing" textLength="8.2202" x="1452.8254" y="362.5004">1</text><line style="stroke:#181818;stroke-width:1;" x1="1803.886" x2="1803.886" y1="263.418" y2="290.7285"/><line style="stroke:#181818;stroke-width:1;" x1="1803.886" x2="2141.9735" y1="290.7285" y2="290.7285"/><line style="stroke:#181818;stroke-width:1;" x1="2141.9735" x2="2141.9735" y1="290.7285" y2="719.0332"/><line style="stroke:#181818;stroke-width:1;" x1="2141.9735" x2="1975.55" y1="719.0332" y2="719.0332"/><line style="stroke:#181818;stroke-width:1;" x1="1975.55" x2="1975.55" y1="719.0332" y2="746.3438"/><polygon fill="#181818" points="1975.55,746.3438,1979.55,737.3438,1975.55,741.3438,1971.55,737.3438,1975.55,746.3438" style="stroke:#181818;stroke-width:1;"/><text fill="#000000" font-family="sans-serif" font-size="13" lengthAdjust="spacing" textLength="21.874" x="2116.0994" y="493.7168">has</text><text fill="#000000" font-family="sans-serif" font-size="13" lengthAdjust="spacing" textLength="8.2202" x="1806.886" y="277.9863">1</text><text fill="#000000" font-family="sans-serif" font-size="13" lengthAdjust="spacing" textLength="8.2202" x="1978.55" y="741.6016">1</text><line style="stroke:#181818;stroke-width:1;" x1="1403.4204" x2="1403.4204" y1="415.2426" y2="449.1484"/><line style="stroke:#181818;stroke-width:1;" x1="1403.4204" x2="808.1636" y1="449.1484" y2="449.1484"/><line style="stroke:#181818;stroke-width:1;" x1="808.1636" x2="808.1636" y1="449.1484" y2="508.459"/><line style="stroke:#181818;stroke-width:1;" x1="808.1636" x2="782.4878" y1="508.459" y2="508.459"/><line style="stroke:#181818;stroke-width:1;" x1="782.4878" x2="782.4878" y1="508.459" y2="535.7695"/><polygon fill="#181818" points="782.4878,535.7695,786.4878,526.7695,782.4878,530.7695,778.4878,526.7695,782.4878,535.7695" style="stroke:#181818;stroke-width:1;"/><text fill="#000000" font-family="sans-serif" font-size="13" lengthAdjust="spacing" textLength="21.874" x="782.2896" y="493.7168">has</text><text fill="#000000" font-family="sans-serif" font-size="13" lengthAdjust="spacing" textLength="8.2202" x="1406.4204" y="429.8109">1</text><text fill="#000000" font-family="sans-serif" font-size="13" lengthAdjust="spacing" textLength="8.2202" x="785.4878" y="531.0273">1</text><line style="stroke:#181818;stroke-width:1;" x1="1431.2634" x2="1431.2634" y1="415.2426" y2="549.1975"/><polygon fill="#181818" points="1431.2634,549.1975,1435.2634,540.1975,1431.2634,544.1975,1427.2634,540.1975,1431.2634,549.1975" style="stroke:#181818;stroke-width:1;"/><text fill="#000000" font-family="sans-serif" font-size="13" lengthAdjust="spacing" textLength="21.874" x="1405.3894" y="493.7168">has</text><text fill="#000000" font-family="sans-serif" font-size="13" lengthAdjust="spacing" textLength="8.2202" x="1434.2634" y="429.8109">1</text><text fill="#000000" font-family="sans-serif" font-size="13" lengthAdjust="spacing" textLength="32.8872" x="1434.2634" y="544.4554">2..32</text><line style="stroke:#181818;stroke-width:1;" x1="1459.1064" x2="1459.1064" y1="415.2426" y2="449.1484"/><line style="stroke:#181818;stroke-width:1;" x1="1459.1064" x2="2074.5783" y1="449.1484" y2="449.1484"/><line style="stroke:#181818;stroke-width:1;" x1="2074.5783" x2="2074.5783" y1="449.1484" y2="551.0801"/><polygon fill="#181818" points="2074.5783,551.0801,2078.5783,542.0801,2074.5783,546.0801,2070.5783,542.0801,2074.5783,551.0801" style="stroke:#181818;stroke-width:1;"/><text fill="#000000" font-family="sans-serif" font-size="13" lengthAdjust="spacing" textLength="21.874" x="2048.7043" y="493.7168">has</text><text fill="#000000" font-family="sans-serif" font-size="13" lengthAdjust="spacing" textLength="8.2202" x="1462.1064" y="429.8109">1</text><text fill="#000000" font-family="sans-serif" font-size="13" lengthAdjust="spacing" textLength="32.8872" x="2077.5783" y="546.3379">2..32</text><line style="stroke:#181818;stroke-width:1;" x1="1398.79" x2="1398.79" y1="630.1741" y2="795.1919"/><polygon fill="#181818" points="1398.79,795.1919,1402.79,786.1919,1398.79,790.1919,1394.79,786.1919,1398.79,795.1919" style="stroke:#181818;stroke-width:1;"/><text fill="#000000" font-family="sans-serif" font-size="13" lengthAdjust="spacing" textLength="21.874" x="1372.916" y="704.291">has</text><text fill="#000000" font-family="sans-serif" font-size="13" lengthAdjust="spacing" textLength="8.2202" x="1401.79" y="644.7425">1</text><text fill="#000000" font-family="sans-serif" font-size="13" lengthAdjust="spacing" textLength="22.7119" x="1401.79" y="790.4497">1..*</text><line style="stroke:#181818;stroke-width:1;" x1="1333.8433" x2="1333.8433" y1="630.1741" y2="669.7227"/><line style="stroke:#181818;stroke-width:1;" x1="1333.8433" x2="1132.0142" y1="669.7227" y2="669.7227"/><line style="stroke:#181818;stroke-width:1;" x1="1132.0142" x2="1132.0142" y1="669.7227" y2="746.3438"/><polygon fill="#181818" points="1132.0142,746.3438,1136.0142,737.3438,1132.0142,741.3438,1128.0142,737.3438,1132.0142,746.3438" style="stroke:#181818;stroke-width:1;"/><text fill="#000000" font-family="sans-serif" font-size="13" lengthAdjust="spacing" textLength="21.874" x="1106.1401" y="704.291">has</text><text fill="#000000" font-family="sans-serif" font-size="13" lengthAdjust="spacing" textLength="8.2202" x="1336.8433" y="644.7425">1</text><text fill="#000000" font-family="sans-serif" font-size="13" lengthAdjust="spacing" textLength="8.2202" x="1135.0142" y="741.6016">1</text><line style="stroke:#181818;stroke-width:1;" x1="1593.6302" x2="1593.6302" y1="630.1741" y2="659.7227"/><line style="stroke:#181818;stroke-width:1;" x1="1593.6302" x2="1939.2098" y1="659.7227" y2="659.7227"/><line style="stroke:#181818;stroke-width:1;" x1="1939.2098" x2="1939.2098" y1="659.7227" y2="746.3438"/><polygon fill="#181818" points="1939.2098,746.3438,1943.2098,737.3438,1939.2098,741.3438,1935.2098,737.3438,1939.2098,746.3438" style="stroke:#181818;stroke-width:1;"/><text fill="#000000" font-family="sans-serif" font-size="13" lengthAdjust="spacing" textLength="21.874" x="1913.3358" y="704.291">has</text><text fill="#000000" font-family="sans-serif" font-size="13" lengthAdjust="spacing" textLength="8.2202" x="1596.6302" y="644.7425">1</text><text fill="#000000" font-family="sans-serif" font-size="13" lengthAdjust="spacing" textLength="8.2202" x="1942.2098" y="741.6016">1</text><line style="stroke:#181818;stroke-width:1;" x1="1546.5088" x2="1546.5088" y1="1217.6465" y2="1311.5781"/><polygon fill="#181818" points="1546.5088,1311.5781,1550.5088,1302.5781,1546.5088,1306.5781,1542.5088,1302.5781,1546.5088,1311.5781" style="stroke:#181818;stroke-width:1;"/><text fill="#000000" font-family="sans-serif" font-size="13" lengthAdjust="spacing" textLength="21.874" x="1520.6348" y="1269.5254">has</text><text fill="#000000" font-family="sans-serif" font-size="13" lengthAdjust="spacing" textLength="6.2651" x="1549.5088" y="1232.2148">*</text><text fill="#000000" font-family="sans-serif" font-size="13" lengthAdjust="spacing" textLength="22.7119" x="1549.5088" y="1306.8359">1..*</text><line style="stroke:#181818;stroke-width:1;" x1="1425.0778" x2="1425.0778" y1="1059.7747" y2="1103.0254"/><line style="stroke:#181818;stroke-width:1;" x1="1425.0778" x2="1546.5088" y1="1103.0254" y2="1103.0254"/><line style="stroke:#181818;stroke-width:1;" x1="1546.5088" x2="1546.5088" y1="1103.0254" y2="1169.6465"/><polygon fill="#181818" points="1546.5088,1169.6465,1550.5088,1160.6465,1546.5088,1164.6465,1542.5088,1160.6465,1546.5088,1169.6465" style="stroke:#181818;stroke-width:1;"/><text fill="#000000" font-family="sans-serif" font-size="13" lengthAdjust="spacing" textLength="21.874" x="1520.6348" y="1127.5938">has</text><text fill="#000000" font-family="sans-serif" font-size="13" lengthAdjust="spacing" textLength="8.2202" x="1428.0778" y="1074.3431">1</text><text fill="#000000" font-family="sans-serif" font-size="13" lengthAdjust="spacing" textLength="6.2651" x="1549.5088" y="1164.9043">*</text><line style="stroke:#181818;stroke-width:1;" x1="2389.9686" x2="2389.9686" y1="421.8379" y2="449.1484"/><line style="stroke:#181818;stroke-width:1;" x1="2389.9686" x2="2180.8475" y1="449.1484" y2="449.1484"/><line style="stroke:#181818;stroke-width:1;" x1="2180.8475" x2="2180.8475" y1="449.1484" y2="508.459"/><line style="stroke:#181818;stroke-width:1;" x1="2180.8475" x2="2103.2759" y1="508.459" y2="508.459"/><line style="stroke:#181818;stroke-width:1;" x1="2103.2759" x2="2103.2759" y1="508.459" y2="551.0801"/><polygon fill="#181818" points="2103.2759,551.0801,2107.2759,542.0801,2103.2759,546.0801,2099.2759,542.0801,2103.2759,551.0801" style="stroke:#181818;stroke-width:1;"/><text fill="#000000" font-family="sans-serif" font-size="13" lengthAdjust="spacing" textLength="21.874" x="2154.9735" y="493.7168">has</text><text fill="#000000" font-family="sans-serif" font-size="13" lengthAdjust="spacing" textLength="8.2202" x="2392.9686" y="436.4063">1</text><text fill="#000000" font-family="sans-serif" font-size="13" lengthAdjust="spacing" textLength="8.2202" x="2106.2759" y="531.0273">2</text><line style="stroke:#181818;stroke-width:1;" x1="2510.9354" x2="2510.9354" y1="421.8379" y2="469.1484"/><line style="stroke:#181818;stroke-width:1;" x1="2510.9354" x2="2588.3118" y1="469.1484" y2="469.1484"/><line style="stroke:#181818;stroke-width:1;" x1="2588.3118" x2="2588.3118" y1="469.1484" y2="535.7695"/><polygon fill="#181818" points="2588.3118,535.7695,2592.3118,526.7695,2588.3118,530.7695,2584.3118,526.7695,2588.3118,535.7695" style="stroke:#181818;stroke-width:1;"/><text fill="#000000" font-family="sans-serif" font-size="13" lengthAdjust="spacing" textLength="21.874" x="2562.4378" y="493.7168">has</text><text fill="#000000" font-family="sans-serif" font-size="13" lengthAdjust="spacing" textLength="8.2202" x="2513.9354" y="436.4063">1</text><text fill="#000000" font-family="sans-serif" font-size="13" lengthAdjust="spacing" textLength="8.2202" x="2591.3118" y="531.0273">1</text><line style="stroke:#181818;stroke-width:1;" x1="2480.6937" x2="2480.6937" y1="263.418" y2="357.3496"/><polygon fill="#181818" points="2480.6937,357.3496,2484.6937,348.3496,2480.6937,352.3496,2476.6937,348.3496,2480.6937,357.3496" style="stroke:#181818;stroke-width:1;"/><text fill="#000000" font-family="sans-serif" font-size="13" lengthAdjust="spacing" textLength="21.874" x="2454.8197" y="315.2969">has</text><text fill="#000000" font-family="sans-serif" font-size="13" lengthAdjust="spacing" textLength="8.2202" x="2483.6937" y="277.9863">1</text><text fill="#000000" font-family="sans-serif" font-size="13" lengthAdjust="spacing" textLength="6.2651" x="2483.6937" y="352.6074">*</text><!--SRC=[xLTBSnev4BxFhz2I2yxQR1utYgAAnnXOOo20JNOlAJ7JW8f1OYLXXxZotxSrcZU3Wwlsk1n0ZwzVdxfRuhUzfEiT9G4zYeCc46mTjMLyJoNTaO1nqCSz427rHcGsf3XmloCa1qa-PDQzW2hLqbgovK73m1Dyndv03j8na3Rrjkj8II0aUJSE_27r88CR2GqNm6ORwejdnjTaHGC5ZXPxeWLP2gt5ZlXCWgUPu8xJKFeOGDCX-0dTx3AwDXfUmYNpgUsbU68- -9aryocwqTi8fHSRfY476o9R5j1bkvw4OsxtLd1TlllJiT-DFo8NdGqwGHgDs9rcaoWD4eGv2yTX72Shf85qDg1K1nLB4GGWSn8sXDzHaafTVMBmNBVuHnnUrScJO7u4uV3SepkevbTtuWcgAobsN-i4JLuJC_uh6clnDHdPDHHU2X40vSxFh8yF2cHd8vW7fUvf-AuVQN08hSymSVWwBr_fIlfCbm5CGOc3H3LkirAgQWqwnXXbRbvF4ljvbinkWGG9XeO90zJvFOhu6CURmUqFseBC4TL9E9xZy9fuvinn1GiCYJ2JQ_AQ9f-fFMBlqLkwXkfEhMDUOXo6nR4uI00hJSGgZIpKC2TijmzW1roha7nYsQ-JnfmWsS3zt7eJNI1_qYVgu0unYXs7BfMMrDEsK4YbJHM4r1MfpvXAl4WubR1c9c-JGxc86mcgJahEFClIEn88wiURjq9Ufjg7LPt4KbUbLWovDkZUm-0aMsBwSeJyzpcK1s69_Jguj-QGnL6rDPdGc3Uhcka0OjGr-US0olJDT6Klb69B5Z3Dp0dLQhKvAfkdX64VKbZ__vFs9j9CrRXyZLV7IJ6bZJtFrfbURMaurx3BEKG_W1zsnAYSQOfDnLeQZBvDfkFUr9tDmdcdxtRkqj5zQ-w6izcyDNIJMNVQMfGqtRQWqizqXd0nzDQqxEf4A6POCsHTXO3e7i4JuveohkxWM43b-GiDdD2NCOjmP4upZnIb1Xorqk27kJmjn5mAYVh4walCL2PzIYwIHNyGST4Ujf2nH2fEmnAPIMin2WVJyTXoV3SQzFfpgsOmwuyduV3BW-jQuDrWr3Eg2sqwmwlLV1CpMISRgkunH-9yCMDbs9-42Hf0k50jyBOqe-kK19DFXlk2tGak2sqQQSQ3kEepIuLxoLu_Xjb83NtcPM89O2h4DW6K6asWTvojD_f2S9kf3RuQBmD_EG3mIxqmpzBoYB95OhZl0JwbgHPfgST75Ax3fKTZ3NVZPoyDKiKP-WiMOx4ELHgV_EjIyJYEqiq2yMynsiKt0kKUl4N6fCgfNEfXSIUftiJvYERRyNJHcdPjasjZnQQpeNjhIt2Q56EC_fRi9IifAD6Iej8b2pF7RmEnX_noffRDRf8FfbzZYE0TSjbWC-4gwJH6nZIQIExHdSu7dTOmdFJ7qy7Vuz4ycdO7hTvu54t6yxuxJVigNWRSHyMX2xaKjawbARFN1_awP0FUzZM0ooVuGxb-tP3DpTSmjXhDwSQWN1Ydk0NJcvC8ehavbE8rNFbO8JStpV0tVU_MoOvoV3AGffD_uvp0CwhgnAD1iCH_bgTY7sgrzv6a7PR-1q8L2fFRc7MopuWJgpPFmZi0iUUWcOijZxNYvq8_3_nKgtt-LCdslGlGIKFBOQruwa98Ihutl8glf1VmBu4bD3YbFQ_oFkTEsbfYiTC-b1ZAuhCw4ujfTgSCdMCd3_jOINj03BDj9ciz5Omn_m80]--></g></svg>