<svg xmlns="http://www.w3.org/2000/svg" xmlns:xlink="http://www.w3.org/1999/xlink" contentStyleType="text/css" height="1562px" preserveAspectRatio="none" style="width:2662px;height:1562px;background:#FFFFFF;" version="1.1" viewBox="0 0 2662 1562" width="2662px" zoomAndPan="magnify"><defs/><g><!--class ChessController--><g id="elem_ChessController"><rect codeLine="22" fill="#F8F8FF" height="97.4648" id="ChessController" style="stroke:#696969;stroke-width:0.5;" width="393.7256" x="2071.4918" y="12"/><ellipse cx="2209.7999" cy="28" fill="#B4A7E5" rx="11" ry="11" style="stroke:#181818;stroke-width:1;"/><path d="M2206.2276,24.2651 L2206.2276,22.1069 L2213.607,22.1069 L2213.607,24.2651 L2211.1417,24.2651 L2211.1417,32.3418 L2213.607,32.3418 L2213.607,34.5 L2206.2276,34.5 L2206.2276,32.3418 L2208.693,32.3418 L2208.693,24.2651 Z " fill="#000000"/><text fill="#696969" font-family="sans-serif" font-size="14" font-style="italic" lengthAdjust="spacing" textLength="108.6094" x="2230.2999" y="33.291">ChessController</text><line style="stroke:#696969;stroke-width:0.5;" x1="2072.4918" x2="2464.2174" y1="44" y2="44"/><line style="stroke:#696969;stroke-width:0.5;" x1="2072.4918" x2="2464.2174" y1="52" y2="52"/><text fill="#696969" font-family="sans-serif" font-size="14" lengthAdjust="spacing" textLength="199.8418" x="2077.4918" y="69.5352">+start(view: ChessView): void</text><text fill="#696969" font-family="sans-serif" font-size="14" lengthAdjust="spacing" textLength="123.792" x="2077.4918" y="86.0234">+newGame(): void</text><text fill="#696969" font-family="sans-serif" font-size="14" lengthAdjust="spacing" textLength="381.7256" x="2077.4918" y="102.5117">+move(fromX: int, fromY: int, toX: int, toY: int): boolean</text></g><!--class UserChoice--><g id="elem_UserChoice"><rect codeLine="28" fill="#F8F8FF" height="64.4883" id="UserChoice" style="stroke:#696969;stroke-width:0.5;" width="145.3418" x="353.084" y="602.2578"/><ellipse cx="384.727" cy="618.2578" fill="#B4A7E5" rx="11" ry="11" style="stroke:#181818;stroke-width:1;"/><path d="M381.1547,614.5229 L381.1547,612.3647 L388.5341,612.3647 L388.5341,614.5229 L386.0688,614.5229 L386.0688,622.5996 L388.5341,622.5996 L388.5341,624.7578 L381.1547,624.7578 L381.1547,622.5996 L383.62,622.5996 L383.62,614.5229 Z " fill="#000000"/><text fill="#696969" font-family="sans-serif" font-size="14" font-style="italic" lengthAdjust="spacing" textLength="76.3574" x="402.4254" y="623.5488">UserChoice</text><line style="stroke:#696969;stroke-width:0.5;" x1="354.084" x2="497.4258" y1="634.2578" y2="634.2578"/><line style="stroke:#696969;stroke-width:0.5;" x1="354.084" x2="497.4258" y1="642.2578" y2="642.2578"/><text fill="#696969" font-family="sans-serif" font-size="14" lengthAdjust="spacing" textLength="133.3418" x="359.084" y="659.793">+textValue(): String</text></g><!--class DrawableResource<E>--><g id="elem_DrawableResource&lt;E&gt;"><rect codeLine="32" fill="#F8F8FF" height="64.4883" id="DrawableResource&lt;E&gt;" style="stroke:#696969;stroke-width:0.5;" width="186.7451" x="1520.6119" y="1044.2285"/><ellipse cx="1535.6119" cy="1060.2285" fill="#B4A7E5" rx="11" ry="11" style="stroke:#181818;stroke-width:1;"/><path d="M1532.0396,1056.4937 L1532.0396,1054.3354 L1539.419,1054.3354 L1539.419,1056.4937 L1536.9537,1056.4937 L1536.9537,1064.5703 L1539.419,1064.5703 L1539.419,1066.7285 L1532.0396,1066.7285 L1532.0396,1064.5703 L1534.505,1064.5703 L1534.505,1056.4937 Z " fill="#000000"/><text fill="#696969" font-family="sans-serif" font-size="14" font-style="italic" lengthAdjust="spacing" textLength="154.7451" x="1549.6119" y="1065.5195">DrawableResource&lt;E&gt;</text><line style="stroke:#696969;stroke-width:0.5;" x1="1521.6119" x2="1706.357" y1="1076.2285" y2="1076.2285"/><line style="stroke:#696969;stroke-width:0.5;" x1="1521.6119" x2="1706.357" y1="1084.2285" y2="1084.2285"/><text fill="#696969" font-family="sans-serif" font-size="14" lengthAdjust="spacing" textLength="120.2236" x="1526.6119" y="1101.7637">+getResource(): E</text></g><!--class ChessView--><g id="elem_ChessView"><rect codeLine="36" fill="#F8F8FF" height="113.9531" id="ChessView" style="stroke:#696969;stroke-width:0.5;" width="448.6113" x="1832.9415" y="570.1035"/><ellipse cx="2016.8795" cy="586.1035" fill="#B4A7E5" rx="11" ry="11" style="stroke:#181818;stroke-width:1;"/><path d="M2013.3072,582.3687 L2013.3072,580.2104 L2020.6866,580.2104 L2020.6866,582.3687 L2018.2213,582.3687 L2018.2213,590.4453 L2020.6866,590.4453 L2020.6866,592.6035 L2013.3072,592.6035 L2013.3072,590.4453 L2015.7725,590.4453 L2015.7725,582.3687 Z " fill="#000000"/><text fill="#696969" font-family="sans-serif" font-size="14" font-style="italic" lengthAdjust="spacing" textLength="72.2354" x="2037.3795" y="591.3945">ChessView</text><line style="stroke:#696969;stroke-width:0.5;" x1="1833.9415" x2="2280.5528" y1="602.1035" y2="602.1035"/><line style="stroke:#696969;stroke-width:0.5;" x1="1833.9415" x2="2280.5528" y1="610.1035" y2="610.1035"/><text fill="#696969" font-family="sans-serif" font-size="14" lengthAdjust="spacing" textLength="120.6543" x="1838.9415" y="627.6387">+startView(): void</text><text fill="#696969" font-family="sans-serif" font-size="14" lengthAdjust="spacing" textLength="221.0195" x="1838.9415" y="644.127">+removePiece(x: int, y: int): void</text><text fill="#696969" font-family="sans-serif" font-size="14" lengthAdjust="spacing" textLength="436.6113" x="1838.9415" y="660.6152">+putPiece(type: PieceType, color: PlayerColor, x: int, y: int): void</text><text fill="#696969" font-family="sans-serif" font-size="14" lengthAdjust="spacing" textLength="241.8555" x="1838.9415" y="677.1035">+displayMessage(msg: String): void</text></g><g id="elem_GMN6"><path d="M1856.1397,380.8613 L1856.1397,406.1719 L2258.3546,406.1719 L2258.3546,390.8613 L2248.3546,380.8613 L1856.1397,380.8613 " fill="#FDF5E6" style="stroke:#181818;stroke-width:0.5;"/><path d="M2248.3546,380.8613 L2248.3546,390.8613 L2258.3546,390.8613 L2248.3546,380.8613 " fill="#FDF5E6" style="stroke:#181818;stroke-width:1;"/><text fill="#000000" font-family="sans-serif" font-size="13" lengthAdjust="spacing" textLength="381.2148" x="1862.1397" y="398.4297">T implements User Choice: &lt;T extends User Choice&gt; in Java</text></g><!--class BaseView<E>--><g id="elem_BaseView&lt;E&gt;"><rect codeLine="47" fill="#F8F8FF" height="80.9766" id="BaseView&lt;E&gt;" style="stroke:#696969;stroke-width:0.5;" width="641.8564" x="1938.8817" y="829.8633"/><ellipse cx="2209.3831" cy="845.8633" fill="#A9DCDF" rx="11" ry="11" style="stroke:#181818;stroke-width:1;"/><path d="M2209.2464,841.2114 L2208.0926,846.2832 L2210.4085,846.2832 Z M2207.7523,838.9702 L2210.7489,838.9702 L2214.0941,851.3633 L2211.6453,851.3633 L2210.8817,848.3003 L2207.6029,848.3003 L2206.8558,851.3633 L2204.4071,851.3633 Z " fill="#000000"/><text fill="#696969" font-family="sans-serif" font-size="14" font-style="italic" lengthAdjust="spacing" textLength="92.3535" x="2229.8831" y="851.1543">BaseView&lt;E&gt;</text><line style="stroke:#696969;stroke-width:0.5;" x1="1939.8817" x2="2579.7381" y1="861.8633" y2="861.8633"/><line style="stroke:#696969;stroke-width:0.5;" x1="1939.8817" x2="2579.7381" y1="869.8633" y2="869.8633"/><text fill="#696969" font-family="sans-serif" font-size="14" lengthAdjust="spacing" textLength="599.1494" x="1944.8817" y="887.3984">+registerResource(type: PieceType, color: PlayerColor, res: DrawableResource&lt;E&gt;): void</text><text fill="#696969" font-family="sans-serif" font-size="14" lengthAdjust="spacing" textLength="629.8564" x="1944.8817" y="903.8867">#loadResourceFor(type: PieceType, color: PlayerColor, def: Resource): DrawableResource&lt;E&gt;</text></g><!--class GUIView--><g id="elem_GUIView"><rect codeLine="52" fill="#F8F8FF" height="130.4414" id="GUIView" style="stroke:#696969;stroke-width:0.5;" width="448.6113" x="1727.357" y="1026.918"/><ellipse cx="1919.5938" cy="1042.918" fill="#ADD1B2" rx="11" ry="11" style="stroke:#181818;stroke-width:1;"/><path d="M1922.067,1049.061 Q1921.4859,1049.3599 1920.8468,1049.5093 Q1920.2076,1049.6587 1919.502,1049.6587 Q1916.9952,1049.6587 1915.6754,1048.0068 Q1914.3556,1046.355 1914.3556,1043.2339 Q1914.3556,1040.1045 1915.6754,1038.4526 Q1916.9952,1036.8008 1919.502,1036.8008 Q1920.2076,1036.8008 1920.8551,1036.9502 Q1921.5025,1037.0996 1922.067,1037.3984 L1922.067,1040.1211 Q1921.4361,1039.54 1920.8426,1039.2703 Q1920.2491,1039.0005 1919.6182,1039.0005 Q1918.2735,1039.0005 1917.5887,1040.0671 Q1916.9039,1041.1338 1916.9039,1043.2339 Q1916.9039,1045.3257 1917.5887,1046.3923 Q1918.2735,1047.459 1919.6182,1047.459 Q1920.2491,1047.459 1920.8426,1047.1892 Q1921.4361,1046.9194 1922.067,1046.3384 Z " fill="#000000"/><text fill="#696969" font-family="sans-serif" font-size="14" lengthAdjust="spacing" textLength="55.6377" x="1940.0938" y="1048.209">GUIView</text><line style="stroke:#696969;stroke-width:0.5;" x1="1728.357" x2="2174.9683" y1="1058.918" y2="1058.918"/><line style="stroke:#696969;stroke-width:0.5;" x1="1728.357" x2="2174.9683" y1="1066.918" y2="1066.918"/><text fill="#696969" font-family="sans-serif" font-size="14" lengthAdjust="spacing" textLength="120.6543" x="1733.357" y="1084.4531">+startView(): void</text><text fill="#696969" font-family="sans-serif" font-size="14" lengthAdjust="spacing" textLength="221.0195" x="1733.357" y="1100.9414">+removePiece(x: int, y: int): void</text><text fill="#696969" font-family="sans-serif" font-size="14" lengthAdjust="spacing" textLength="436.6113" x="1733.357" y="1117.4297">+putPiece(x: int, y: int, type: PieceType, color: PlayerColor): void</text><text fill="#696969" font-family="sans-serif" font-size="14" lengthAdjust="spacing" textLength="241.8555" x="1733.357" y="1133.918">+displayMessage(msg: String): void</text><text fill="#696969" font-family="sans-serif" font-size="14" lengthAdjust="spacing" textLength="435.1279" x="1733.357" y="1150.4063">+askUser&lt;T&gt;(title: String, question: String, possibilities: ...T): T</text></g><!--class ConsoleView--><g id="elem_ConsoleView"><rect codeLine="60" fill="#F8F8FF" height="130.4414" id="ConsoleView" style="stroke:#696969;stroke-width:0.5;" width="448.6113" x="2195.9683" y="1026.918"/><ellipse cx="2372.8516" cy="1042.918" fill="#ADD1B2" rx="11" ry="11" style="stroke:#181818;stroke-width:1;"/><path d="M2375.3248,1049.061 Q2374.7437,1049.3599 2374.1046,1049.5093 Q2373.4654,1049.6587 2372.7598,1049.6587 Q2370.253,1049.6587 2368.9332,1048.0068 Q2367.6134,1046.355 2367.6134,1043.2339 Q2367.6134,1040.1045 2368.9332,1038.4526 Q2370.253,1036.8008 2372.7598,1036.8008 Q2373.4654,1036.8008 2374.1129,1036.9502 Q2374.7603,1037.0996 2375.3248,1037.3984 L2375.3248,1040.1211 Q2374.6939,1039.54 2374.1004,1039.2703 Q2373.5069,1039.0005 2372.8761,1039.0005 Q2371.5313,1039.0005 2370.8465,1040.0671 Q2370.1617,1041.1338 2370.1617,1043.2339 Q2370.1617,1045.3257 2370.8465,1046.3923 Q2371.5313,1047.459 2372.8761,1047.459 Q2373.5069,1047.459 2374.1004,1047.1892 Q2374.6939,1046.9194 2375.3248,1046.3384 Z " fill="#000000"/><text fill="#696969" font-family="sans-serif" font-size="14" lengthAdjust="spacing" textLength="86.3447" x="2393.3516" y="1048.209">ConsoleView</text><line style="stroke:#696969;stroke-width:0.5;" x1="2196.9683" x2="2643.5797" y1="1058.918" y2="1058.918"/><line style="stroke:#696969;stroke-width:0.5;" x1="2196.9683" x2="2643.5797" y1="1066.918" y2="1066.918"/><text fill="#696969" font-family="sans-serif" font-size="14" lengthAdjust="spacing" textLength="120.6543" x="2201.9683" y="1084.4531">+startView(): void</text><text fill="#696969" font-family="sans-serif" font-size="14" lengthAdjust="spacing" textLength="221.0195" x="2201.9683" y="1100.9414">+removePiece(x: int, y: int): void</text><text fill="#696969" font-family="sans-serif" font-size="14" lengthAdjust="spacing" textLength="436.6113" x="2201.9683" y="1117.4297">+putPiece(x: int, y: int, type: PieceType, color: PlayerColor): void</text><text fill="#696969" font-family="sans-serif" font-size="14" lengthAdjust="spacing" textLength="241.8555" x="2201.9683" y="1133.918">+displayMessage(msg: String): void</text><text fill="#696969" font-family="sans-serif" font-size="14" lengthAdjust="spacing" textLength="435.1279" x="2201.9683" y="1150.4063">+askUser&lt;T&gt;(title: String, question: String, possibilities: ...T): T</text></g><!--class ChessEngine--><g id="elem_ChessEngine"><rect codeLine="68" fill="#FDF5E6" height="80.9766" id="ChessEngine" style="stroke:#181818;stroke-width:0.5;" width="373.4502" x="1283.3477" y="166.7754"/><ellipse cx="1422.8282" cy="182.7754" fill="#ADD1B2" rx="11" ry="11" style="stroke:#181818;stroke-width:1;"/><path d="M1425.3014,188.9185 Q1424.7203,189.2173 1424.0811,189.3667 Q1423.442,189.5161 1422.7364,189.5161 Q1420.2296,189.5161 1418.9097,187.8643 Q1417.5899,186.2124 1417.5899,183.0913 Q1417.5899,179.9619 1418.9097,178.3101 Q1420.2296,176.6582 1422.7364,176.6582 Q1423.442,176.6582 1424.0894,176.8076 Q1424.7369,176.957 1425.3014,177.2559 L1425.3014,179.9785 Q1424.6705,179.3975 1424.077,179.1277 Q1423.4835,178.8579 1422.8526,178.8579 Q1421.5079,178.8579 1420.8231,179.9246 Q1420.1383,180.9912 1420.1383,183.0913 Q1420.1383,185.1831 1420.8231,186.2498 Q1421.5079,187.3164 1422.8526,187.3164 Q1423.4835,187.3164 1424.077,187.0466 Q1424.6705,186.7769 1425.3014,186.1958 Z " fill="#000000"/><text fill="#000000" font-family="sans-serif" font-size="14" lengthAdjust="spacing" textLength="85.9893" x="1443.3282" y="188.0664">ChessEngine</text><line style="stroke:#181818;stroke-width:0.5;" x1="1284.3477" x2="1655.7979" y1="198.7754" y2="198.7754"/><line style="stroke:#181818;stroke-width:0.5;" x1="1284.3477" x2="1655.7979" y1="206.7754" y2="206.7754"/><text fill="#000000" font-family="sans-serif" font-size="14" lengthAdjust="spacing" textLength="127.5859" x="1289.3477" y="224.3105">+startGame(): void</text><text fill="#000000" font-family="sans-serif" font-size="14" lengthAdjust="spacing" textLength="361.4502" x="1289.3477" y="240.7988">+movePiece(fromX: int, fromY: int, x: int, y: int): void</text></g><!--class ChessBoardView--><g id="elem_ChessBoardView"><rect codeLine="73" fill="#FDF5E6" height="80.9766" id="ChessBoardView" style="stroke:#181818;stroke-width:0.5;" width="244.4355" x="1676.7979" y="166.7754"/><ellipse cx="1739.1861" cy="182.7754" fill="#B4A7E5" rx="11" ry="11" style="stroke:#181818;stroke-width:1;"/><path d="M1735.6139,179.0405 L1735.6139,176.8823 L1742.9932,176.8823 L1742.9932,179.0405 L1740.5279,179.0405 L1740.5279,187.1172 L1742.9932,187.1172 L1742.9932,189.2754 L1735.6139,189.2754 L1735.6139,187.1172 L1738.0792,187.1172 L1738.0792,179.0405 Z " fill="#000000"/><text fill="#000000" font-family="sans-serif" font-size="14" font-style="italic" lengthAdjust="spacing" textLength="111.1592" x="1759.6861" y="188.0664">ChessBoardView</text><line style="stroke:#181818;stroke-width:0.5;" x1="1677.7979" x2="1920.2335" y1="198.7754" y2="198.7754"/><line style="stroke:#181818;stroke-width:0.5;" x1="1677.7979" x2="1920.2335" y1="206.7754" y2="206.7754"/><text fill="#000000" font-family="sans-serif" font-size="14" lengthAdjust="spacing" textLength="193.375" x="1682.7979" y="224.3105">ChessPiece get(Position pos)</text><text fill="#000000" font-family="sans-serif" font-size="14" lengthAdjust="spacing" textLength="232.4355" x="1682.7979" y="240.7988">boolean containsKey(Position pos)</text></g><!--class ChessBoard--><g id="elem_ChessBoard"><rect codeLine="78" fill="#FDF5E6" height="48" id="ChessBoard" style="stroke:#181818;stroke-width:0.5;" width="111.3721" x="1724.7677" y="351.5766"/><ellipse cx="1739.7677" cy="367.5766" fill="#ADD1B2" rx="11" ry="11" style="stroke:#181818;stroke-width:1;"/><path d="M1742.2408,373.7196 Q1741.6597,374.0185 1741.0206,374.1679 Q1740.3814,374.3173 1739.6759,374.3173 Q1737.169,374.3173 1735.8492,372.6654 Q1734.5294,371.0136 1734.5294,367.8925 Q1734.5294,364.7631 1735.8492,363.1112 Q1737.169,361.4594 1739.6759,361.4594 Q1740.3814,361.4594 1741.0289,361.6088 Q1741.6764,361.7582 1742.2408,362.057 L1742.2408,364.7797 Q1741.6099,364.1986 1741.0164,363.9289 Q1740.4229,363.6591 1739.7921,363.6591 Q1738.4473,363.6591 1737.7625,364.7257 Q1737.0777,365.7924 1737.0777,367.8925 Q1737.0777,369.9843 1737.7625,371.0509 Q1738.4473,372.1176 1739.7921,372.1176 Q1740.4229,372.1176 1741.0164,371.8478 Q1741.6099,371.578 1742.2408,370.997 Z " fill="#000000"/><text fill="#000000" font-family="sans-serif" font-size="14" lengthAdjust="spacing" textLength="79.3721" x="1753.7677" y="372.8676">ChessBoard</text><line style="stroke:#181818;stroke-width:0.5;" x1="1725.7677" x2="1835.1397" y1="383.5766" y2="383.5766"/><line style="stroke:#181818;stroke-width:0.5;" x1="1725.7677" x2="1835.1397" y1="391.5766" y2="391.5766"/></g><!--class ChessBoardInitialzer--><g id="elem_ChessBoardInitialzer"><rect codeLine="80" fill="#FDF5E6" height="56.6211" id="ChessBoardInitialzer" style="stroke:#181818;stroke-width:0.5;" width="170.7559" x="2485.2174" y="41.0771"/><ellipse cx="2500.2174" cy="61.3877" fill="#ADD1B2" rx="11" ry="11" style="stroke:#181818;stroke-width:1;"/><path d="M2502.6905,67.5308 Q2502.1095,67.8296 2501.4703,67.979 Q2500.8311,68.1284 2500.1256,68.1284 Q2497.6187,68.1284 2496.2989,66.4766 Q2494.9791,64.8247 2494.9791,61.7036 Q2494.9791,58.5742 2496.2989,56.9224 Q2497.6187,55.2705 2500.1256,55.2705 Q2500.8311,55.2705 2501.4786,55.4199 Q2502.1261,55.5693 2502.6905,55.8682 L2502.6905,58.5908 Q2502.0597,58.0098 2501.4661,57.74 Q2500.8726,57.4702 2500.2418,57.4702 Q2498.8971,57.4702 2498.2122,58.5369 Q2497.5274,59.6035 2497.5274,61.7036 Q2497.5274,63.7954 2498.2122,64.8621 Q2498.8971,65.9287 2500.2418,65.9287 Q2500.8726,65.9287 2501.4661,65.6589 Q2502.0597,65.3892 2502.6905,64.8081 Z " fill="#000000"/><text fill="#000000" font-family="sans-serif" font-size="12" font-style="italic" lengthAdjust="spacing" textLength="43.9102" x="2561.6402" y="57.6787">&#171;static&#187;</text><text fill="#000000" font-family="sans-serif" font-size="14" lengthAdjust="spacing" textLength="138.7559" x="2514.2174" y="73.7451">ChessBoardInitialzer</text><line style="stroke:#181818;stroke-width:0.5;" x1="2486.2174" x2="2654.9732" y1="81.6982" y2="81.6982"/><line style="stroke:#181818;stroke-width:0.5;" x1="2486.2174" x2="2654.9732" y1="89.6982" y2="89.6982"/></g><!--class Position--><g id="elem_Position"><rect codeLine="82" fill="#FDF5E6" height="48" id="Position" style="stroke:#181818;stroke-width:0.5;" width="86.0928" x="1245.0321" y="570.1035"/><ellipse cx="1260.0321" cy="586.1035" fill="#ADD1B2" rx="11" ry="11" style="stroke:#181818;stroke-width:1;"/><path d="M1262.5053,592.2466 Q1261.9242,592.5454 1261.2851,592.6948 Q1260.6459,592.8442 1259.9403,592.8442 Q1257.4335,592.8442 1256.1137,591.1924 Q1254.7939,589.5405 1254.7939,586.4194 Q1254.7939,583.29 1256.1137,581.6382 Q1257.4335,579.9863 1259.9403,579.9863 Q1260.6459,579.9863 1261.2934,580.1357 Q1261.9408,580.2852 1262.5053,580.584 L1262.5053,583.3066 Q1261.8744,582.7256 1261.2809,582.4558 Q1260.6874,582.186 1260.0566,582.186 Q1258.7118,582.186 1258.027,583.2527 Q1257.3422,584.3193 1257.3422,586.4194 Q1257.3422,588.5112 1258.027,589.5779 Q1258.7118,590.6445 1260.0566,590.6445 Q1260.6874,590.6445 1261.2809,590.3748 Q1261.8744,590.105 1262.5053,589.5239 Z " fill="#000000"/><text fill="#000000" font-family="sans-serif" font-size="14" lengthAdjust="spacing" textLength="54.0928" x="1274.0321" y="591.3945">Position</text><line style="stroke:#181818;stroke-width:0.5;" x1="1246.0321" x2="1330.1249" y1="602.1035" y2="602.1035"/><line style="stroke:#181818;stroke-width:0.5;" x1="1246.0321" x2="1330.1249" y1="610.1035" y2="610.1035"/></g><!--class PlayerColor--><g id="elem_PlayerColor"><rect codeLine="84" fill="#F8F8FF" height="80.9766" id="PlayerColor" style="stroke:#696969;stroke-width:0.5;" width="109.0205" x="795.1263" y="800.6777"/><ellipse cx="810.1263" cy="816.6777" fill="#EB937F" rx="11" ry="11" style="stroke:#181818;stroke-width:1;"/><path d="M813.7406,823.1777 L806.0208,823.1777 L806.0208,810.7847 L813.7406,810.7847 L813.7406,812.9429 L808.4696,812.9429 L808.4696,815.6157 L813.2425,815.6157 L813.2425,817.7739 L808.4696,817.7739 L808.4696,821.0195 L813.7406,821.0195 Z " fill="#000000"/><text fill="#696969" font-family="sans-serif" font-size="14" lengthAdjust="spacing" textLength="77.0205" x="824.1263" y="821.9688">PlayerColor</text><line style="stroke:#696969;stroke-width:0.5;" x1="796.1263" x2="903.1468" y1="832.6777" y2="832.6777"/><text fill="#696969" font-family="sans-serif" font-size="14" lengthAdjust="spacing" textLength="42.7383" x="801.1263" y="850.2129">WHITE</text><text fill="#696969" font-family="sans-serif" font-size="14" lengthAdjust="spacing" textLength="44.0029" x="801.1263" y="866.7012">BLACK</text><line style="stroke:#696969;stroke-width:0.5;" x1="796.1263" x2="903.1468" y1="873.6543" y2="873.6543"/></g><!--class PieceType--><g id="elem_PieceType"><rect codeLine="89" fill="#F8F8FF" height="146.9297" id="PieceType" style="stroke:#696969;stroke-width:0.5;" width="99.334" x="924.1468" y="800.6777"/><ellipse cx="939.1468" cy="816.6777" fill="#EB937F" rx="11" ry="11" style="stroke:#181818;stroke-width:1;"/><path d="M942.7611,823.1777 L935.0413,823.1777 L935.0413,810.7847 L942.7611,810.7847 L942.7611,812.9429 L937.4901,812.9429 L937.4901,815.6157 L942.263,815.6157 L942.263,817.7739 L937.4901,817.7739 L937.4901,821.0195 L942.7611,821.0195 Z " fill="#000000"/><text fill="#696969" font-family="sans-serif" font-size="14" lengthAdjust="spacing" textLength="67.334" x="953.1468" y="821.9688">PieceType</text><line style="stroke:#696969;stroke-width:0.5;" x1="925.1468" x2="1022.4808" y1="832.6777" y2="832.6777"/><text fill="#696969" font-family="sans-serif" font-size="14" lengthAdjust="spacing" textLength="39.7168" x="930.1468" y="850.2129">PAWN</text><text fill="#696969" font-family="sans-serif" font-size="14" lengthAdjust="spacing" textLength="39.7441" x="930.1468" y="866.7012">ROOK</text><text fill="#696969" font-family="sans-serif" font-size="14" lengthAdjust="spacing" textLength="52.7734" x="930.1468" y="883.1895">KNIGHT</text><text fill="#696969" font-family="sans-serif" font-size="14" lengthAdjust="spacing" textLength="48.5283" x="930.1468" y="899.6777">BISHOP</text><text fill="#696969" font-family="sans-serif" font-size="14" lengthAdjust="spacing" textLength="46.0947" x="930.1468" y="916.166">QUEEN</text><text fill="#696969" font-family="sans-serif" font-size="14" lengthAdjust="spacing" textLength="33.6328" x="930.1468" y="932.6543">KING</text><line style="stroke:#696969;stroke-width:0.5;" x1="925.1468" x2="1022.4808" y1="939.6074" y2="939.6074"/></g><!--class ChessPiece--><g id="elem_ChessPiece"><rect codeLine="98" fill="#FDF5E6" height="80.9766" id="ChessPiece" style="stroke:#181818;stroke-width:0.5;" width="454.627" x="1358.3145" y="583.5315"/><ellipse cx="1543.8761" cy="599.5315" fill="#A9DCDF" rx="11" ry="11" style="stroke:#181818;stroke-width:1;"/><path d="M1543.7393,594.8797 L1542.5855,599.9515 L1544.9014,599.9515 Z M1542.2452,592.6385 L1545.2418,592.6385 L1548.587,605.0315 L1546.1383,605.0315 L1545.3746,601.9685 L1542.0958,601.9685 L1541.3487,605.0315 L1538.9,605.0315 Z " fill="#000000"/><text fill="#000000" font-family="sans-serif" font-size="14" font-style="italic" lengthAdjust="spacing" textLength="75.0039" x="1564.3761" y="604.8225">ChessPiece</text><line style="stroke:#181818;stroke-width:0.5;" x1="1359.3145" x2="1811.9415" y1="615.5315" y2="615.5315"/><text fill="#000000" font-family="sans-serif" font-size="14" lengthAdjust="spacing" textLength="139.3096" x="1364.3145" y="633.0667">-boolean: hasMoved</text><line style="stroke:#181818;stroke-width:0.5;" x1="1359.3145" x2="1811.9415" y1="640.0198" y2="640.0198"/><text fill="#000000" font-family="sans-serif" font-size="14" lengthAdjust="spacing" textLength="442.627" x="1364.3145" y="657.555">+Moves getPossibleMoves(ChessBoardView board, Position from)</text></g><!--class PromotableChessPiece--><g id="elem_PromotableChessPiece"><rect codeLine="102" fill="#FDF5E6" height="48" id="PromotableChessPiece" style="stroke:#181818;stroke-width:0.5;" width="184.3662" x="590.7601" y="855.0905"/><ellipse cx="605.7601" cy="871.0905" fill="#A9DCDF" rx="11" ry="11" style="stroke:#181818;stroke-width:1;"/><path d="M605.6234,866.4386 L604.4696,871.5104 L606.7855,871.5104 Z M604.1292,864.1974 L607.1258,864.1974 L610.471,876.5905 L608.0223,876.5905 L607.2586,873.5275 L603.9798,873.5275 L603.2327,876.5905 L600.784,876.5905 Z " fill="#000000"/><text fill="#000000" font-family="sans-serif" font-size="14" font-style="italic" lengthAdjust="spacing" textLength="152.3662" x="619.7601" y="876.3815">PromotableChessPiece</text><line style="stroke:#181818;stroke-width:0.5;" x1="591.7601" x2="774.1263" y1="887.0905" y2="887.0905"/><line style="stroke:#181818;stroke-width:0.5;" x1="591.7601" x2="774.1263" y1="895.0905" y2="895.0905"/></g><!--class Pawn--><g id="elem_Pawn"><rect codeLine="103" fill="#FDF5E6" height="48" id="Pawn" style="stroke:#181818;stroke-width:0.5;" width="66.9453" x="1714.5221" y="800.6777"/><ellipse cx="1729.5221" cy="816.6777" fill="#ADD1B2" rx="11" ry="11" style="stroke:#181818;stroke-width:1;"/><path d="M1731.9953,822.8208 Q1731.4142,823.1196 1730.7751,823.269 Q1730.1359,823.4185 1729.4303,823.4185 Q1726.9235,823.4185 1725.6037,821.7666 Q1724.2838,820.1147 1724.2838,816.9937 Q1724.2838,813.8643 1725.6037,812.2124 Q1726.9235,810.5605 1729.4303,810.5605 Q1730.1359,810.5605 1730.7834,810.71 Q1731.4308,810.8594 1731.9953,811.1582 L1731.9953,813.8809 Q1731.3644,813.2998 1730.7709,813.03 Q1730.1774,812.7603 1729.5465,812.7603 Q1728.2018,812.7603 1727.517,813.8269 Q1726.8322,814.8936 1726.8322,816.9937 Q1726.8322,819.0854 1727.517,820.1521 Q1728.2018,821.2188 1729.5465,821.2188 Q1730.1774,821.2188 1730.7709,820.949 Q1731.3644,820.6792 1731.9953,820.0981 Z " fill="#000000"/><text fill="#000000" font-family="sans-serif" font-size="14" lengthAdjust="spacing" textLength="34.9453" x="1743.5221" y="821.9688">Pawn</text><line style="stroke:#181818;stroke-width:0.5;" x1="1715.5221" x2="1780.4674" y1="832.6777" y2="832.6777"/><line style="stroke:#181818;stroke-width:0.5;" x1="1715.5221" x2="1780.4674" y1="840.6777" y2="840.6777"/></g><!--class Rook--><g id="elem_Rook"><rect codeLine="104" fill="#FDF5E6" height="48" id="Rook" style="stroke:#181818;stroke-width:0.5;" width="66.2344" x="613.3507" y="1044.2285"/><ellipse cx="628.3507" cy="1060.2285" fill="#ADD1B2" rx="11" ry="11" style="stroke:#181818;stroke-width:1;"/><path d="M630.8239,1066.3716 Q630.2428,1066.6704 629.6036,1066.8198 Q628.9645,1066.9692 628.2589,1066.9692 Q625.7521,1066.9692 624.4323,1065.3174 Q623.1124,1063.6655 623.1124,1060.5444 Q623.1124,1057.415 624.4323,1055.7632 Q625.7521,1054.1113 628.2589,1054.1113 Q628.9645,1054.1113 629.6119,1054.2607 Q630.2594,1054.4102 630.8239,1054.709 L630.8239,1057.4316 Q630.193,1056.8506 629.5995,1056.5808 Q629.006,1056.311 628.3751,1056.311 Q627.0304,1056.311 626.3456,1057.3777 Q625.6608,1058.4443 625.6608,1060.5444 Q625.6608,1062.6362 626.3456,1063.7029 Q627.0304,1064.7695 628.3751,1064.7695 Q629.006,1064.7695 629.5995,1064.4998 Q630.193,1064.23 630.8239,1063.6489 Z " fill="#000000"/><text fill="#000000" font-family="sans-serif" font-size="14" lengthAdjust="spacing" textLength="34.2344" x="642.3507" y="1065.5195">Rook</text><line style="stroke:#181818;stroke-width:0.5;" x1="614.3507" x2="678.5851" y1="1076.2285" y2="1076.2285"/><line style="stroke:#181818;stroke-width:0.5;" x1="614.3507" x2="678.5851" y1="1084.2285" y2="1084.2285"/></g><!--class Knight--><g id="elem_Knight"><rect codeLine="105" fill="#FDF5E6" height="48" id="Knight" style="stroke:#181818;stroke-width:0.5;" width="76.5293" x="516.8214" y="1044.2285"/><ellipse cx="531.8214" cy="1060.2285" fill="#ADD1B2" rx="11" ry="11" style="stroke:#181818;stroke-width:1;"/><path d="M534.2946,1066.3716 Q533.7135,1066.6704 533.0743,1066.8198 Q532.4352,1066.9692 531.7296,1066.9692 Q529.2228,1066.9692 527.903,1065.3174 Q526.5831,1063.6655 526.5831,1060.5444 Q526.5831,1057.415 527.903,1055.7632 Q529.2228,1054.1113 531.7296,1054.1113 Q532.4352,1054.1113 533.0826,1054.2607 Q533.7301,1054.4102 534.2946,1054.709 L534.2946,1057.4316 Q533.6637,1056.8506 533.0702,1056.5808 Q532.4767,1056.311 531.8458,1056.311 Q530.5011,1056.311 529.8163,1057.3777 Q529.1315,1058.4443 529.1315,1060.5444 Q529.1315,1062.6362 529.8163,1063.7029 Q530.5011,1064.7695 531.8458,1064.7695 Q532.4767,1064.7695 533.0702,1064.4998 Q533.6637,1064.23 534.2946,1063.6489 Z " fill="#000000"/><text fill="#000000" font-family="sans-serif" font-size="14" lengthAdjust="spacing" textLength="44.5293" x="545.8214" y="1065.5195">Knight</text><line style="stroke:#181818;stroke-width:0.5;" x1="517.8214" x2="592.3507" y1="1076.2285" y2="1076.2285"/><line style="stroke:#181818;stroke-width:0.5;" x1="517.8214" x2="592.3507" y1="1084.2285" y2="1084.2285"/></g><!--class Bishop--><g id="elem_Bishop"><rect codeLine="106" fill="#FDF5E6" height="48" id="Bishop" style="stroke:#181818;stroke-width:0.5;" width="77.3359" x="699.5851" y="1044.2285"/><ellipse cx="714.5851" cy="1060.2285" fill="#ADD1B2" rx="11" ry="11" style="stroke:#181818;stroke-width:1;"/><path d="M717.0582,1066.3716 Q716.4772,1066.6704 715.838,1066.8198 Q715.1989,1066.9692 714.4933,1066.9692 Q711.9865,1066.9692 710.6666,1065.3174 Q709.3468,1063.6655 709.3468,1060.5444 Q709.3468,1057.415 710.6666,1055.7632 Q711.9865,1054.1113 714.4933,1054.1113 Q715.1989,1054.1113 715.8463,1054.2607 Q716.4938,1054.4102 717.0582,1054.709 L717.0582,1057.4316 Q716.4274,1056.8506 715.8339,1056.5808 Q715.2404,1056.311 714.6095,1056.311 Q713.2648,1056.311 712.58,1057.3777 Q711.8951,1058.4443 711.8951,1060.5444 Q711.8951,1062.6362 712.58,1063.7029 Q713.2648,1064.7695 714.6095,1064.7695 Q715.2404,1064.7695 715.8339,1064.4998 Q716.4274,1064.23 717.0582,1063.6489 Z " fill="#000000"/><text fill="#000000" font-family="sans-serif" font-size="14" lengthAdjust="spacing" textLength="45.3359" x="728.5851" y="1065.5195">Bishop</text><line style="stroke:#181818;stroke-width:0.5;" x1="700.5851" x2="775.921" y1="1076.2285" y2="1076.2285"/><line style="stroke:#181818;stroke-width:0.5;" x1="700.5851" x2="775.921" y1="1084.2285" y2="1084.2285"/></g><!--class Queen--><g id="elem_Queen"><rect codeLine="107" fill="#FDF5E6" height="48" id="Queen" style="stroke:#181818;stroke-width:0.5;" width="75.8525" x="420.9689" y="1044.2285"/><ellipse cx="435.9689" cy="1060.2285" fill="#ADD1B2" rx="11" ry="11" style="stroke:#181818;stroke-width:1;"/><path d="M438.442,1066.3716 Q437.861,1066.6704 437.2218,1066.8198 Q436.5826,1066.9692 435.8771,1066.9692 Q433.3702,1066.9692 432.0504,1065.3174 Q430.7306,1063.6655 430.7306,1060.5444 Q430.7306,1057.415 432.0504,1055.7632 Q433.3702,1054.1113 435.8771,1054.1113 Q436.5826,1054.1113 437.2301,1054.2607 Q437.8776,1054.4102 438.442,1054.709 L438.442,1057.4316 Q437.8112,1056.8506 437.2177,1056.5808 Q436.6242,1056.311 435.9933,1056.311 Q434.6486,1056.311 433.9638,1057.3777 Q433.2789,1058.4443 433.2789,1060.5444 Q433.2789,1062.6362 433.9638,1063.7029 Q434.6486,1064.7695 435.9933,1064.7695 Q436.6242,1064.7695 437.2177,1064.4998 Q437.8112,1064.23 438.442,1063.6489 Z " fill="#000000"/><text fill="#000000" font-family="sans-serif" font-size="14" lengthAdjust="spacing" textLength="43.8525" x="449.9689" y="1065.5195">Queen</text><line style="stroke:#181818;stroke-width:0.5;" x1="421.9689" x2="495.8214" y1="1076.2285" y2="1076.2285"/><line style="stroke:#181818;stroke-width:0.5;" x1="421.9689" x2="495.8214" y1="1084.2285" y2="1084.2285"/></g><!--class King--><g id="elem_King"><rect codeLine="108" fill="#FDF5E6" height="48" id="King" style="stroke:#181818;stroke-width:0.5;" width="62.6045" x="1043.4808" y="800.6777"/><ellipse cx="1058.4808" cy="816.6777" fill="#ADD1B2" rx="11" ry="11" style="stroke:#181818;stroke-width:1;"/><path d="M1060.9539,822.8208 Q1060.3729,823.1196 1059.7337,823.269 Q1059.0946,823.4185 1058.389,823.4185 Q1055.8822,823.4185 1054.5623,821.7666 Q1053.2425,820.1147 1053.2425,816.9937 Q1053.2425,813.8643 1054.5623,812.2124 Q1055.8822,810.5605 1058.389,810.5605 Q1059.0946,810.5605 1059.742,810.71 Q1060.3895,810.8594 1060.9539,811.1582 L1060.9539,813.8809 Q1060.3231,813.2998 1059.7296,813.03 Q1059.1361,812.7603 1058.5052,812.7603 Q1057.1605,812.7603 1056.4757,813.8269 Q1055.7909,814.8936 1055.7909,816.9937 Q1055.7909,819.0854 1056.4757,820.1521 Q1057.1605,821.2188 1058.5052,821.2188 Q1059.1361,821.2188 1059.7296,820.949 Q1060.3231,820.6792 1060.9539,820.0981 Z " fill="#000000"/><text fill="#000000" font-family="sans-serif" font-size="14" lengthAdjust="spacing" textLength="30.6045" x="1072.4808" y="821.9688">King</text><line style="stroke:#181818;stroke-width:0.5;" x1="1044.4808" x2="1105.0853" y1="832.6777" y2="832.6777"/><line style="stroke:#181818;stroke-width:0.5;" x1="1044.4808" x2="1105.0853" y1="840.6777" y2="840.6777"/></g><!--class MoveGenerator--><g id="elem_MoveGenerator"><rect codeLine="111" fill="#FDF5E6" height="64.4883" id="MoveGenerator" style="stroke:#181818;stroke-width:0.5;" width="394.2178" x="1126.0853" y="849.5259"/><ellipse cx="1267.3773" cy="865.5259" fill="#B4A7E5" rx="11" ry="11" style="stroke:#181818;stroke-width:1;"/><path d="M1263.805,861.791 L1263.805,859.6328 L1271.1844,859.6328 L1271.1844,861.791 L1268.7191,861.791 L1268.7191,869.8677 L1271.1844,869.8677 L1271.1844,872.0259 L1263.805,872.0259 L1263.805,869.8677 L1266.2703,869.8677 L1266.2703,861.791 Z " fill="#000000"/><text fill="#000000" font-family="sans-serif" font-size="14" font-style="italic" lengthAdjust="spacing" textLength="103.1338" x="1287.8773" y="870.8169">MoveGenerator</text><line style="stroke:#181818;stroke-width:0.5;" x1="1127.0853" x2="1519.3031" y1="881.5259" y2="881.5259"/><line style="stroke:#181818;stroke-width:0.5;" x1="1127.0853" x2="1519.3031" y1="889.5259" y2="889.5259"/><text fill="#000000" font-family="sans-serif" font-size="14" lengthAdjust="spacing" textLength="382.2178" x="1132.0853" y="907.061">+Moves generate(ChessBoardView board, Position from)</text></g><!--class DirectionalGenerator--><g id="elem_DirectionalGenerator"><rect codeLine="114" fill="#FDF5E6" height="48" id="DirectionalGenerator" style="stroke:#181818;stroke-width:0.5;" width="173.0117" x="1158.6887" y="1233.9805"/><ellipse cx="1173.6887" cy="1249.9805" fill="#ADD1B2" rx="11" ry="11" style="stroke:#181818;stroke-width:1;"/><path d="M1176.1619,1256.1235 Q1175.5808,1256.4224 1174.9417,1256.5718 Q1174.3025,1256.7212 1173.5969,1256.7212 Q1171.0901,1256.7212 1169.7703,1255.0693 Q1168.4504,1253.4175 1168.4504,1250.2964 Q1168.4504,1247.167 1169.7703,1245.5151 Q1171.0901,1243.8633 1173.5969,1243.8633 Q1174.3025,1243.8633 1174.95,1244.0127 Q1175.5974,1244.1621 1176.1619,1244.4609 L1176.1619,1247.1836 Q1175.531,1246.6025 1174.9375,1246.3328 Q1174.344,1246.063 1173.7131,1246.063 Q1172.3684,1246.063 1171.6836,1247.1296 Q1170.9988,1248.1963 1170.9988,1250.2964 Q1170.9988,1252.3882 1171.6836,1253.4548 Q1172.3684,1254.5215 1173.7131,1254.5215 Q1174.344,1254.5215 1174.9375,1254.2517 Q1175.531,1253.9819 1176.1619,1253.4009 Z " fill="#000000"/><text fill="#000000" font-family="sans-serif" font-size="14" lengthAdjust="spacing" textLength="141.0117" x="1187.6887" y="1255.2715">DirectionalGenerator</text><line style="stroke:#181818;stroke-width:0.5;" x1="1159.6887" x2="1330.7004" y1="1265.9805" y2="1265.9805"/><line style="stroke:#181818;stroke-width:0.5;" x1="1159.6887" x2="1330.7004" y1="1273.9805" y2="1273.9805"/></g><!--class CastlingDirectionalGenerator--><g id="elem_CastlingDirectionalGenerator"><rect codeLine="115" fill="#FDF5E6" height="48" id="CastlingDirectionalGenerator" style="stroke:#181818;stroke-width:0.5;" width="228.3145" x="1159.8726" y="1375.9121"/><ellipse cx="1174.8726" cy="1391.9121" fill="#ADD1B2" rx="11" ry="11" style="stroke:#181818;stroke-width:1;"/><path d="M1177.3458,1398.0552 Q1176.7647,1398.354 1176.1256,1398.5034 Q1175.4864,1398.6528 1174.7808,1398.6528 Q1172.274,1398.6528 1170.9542,1397.001 Q1169.6344,1395.3491 1169.6344,1392.228 Q1169.6344,1389.0986 1170.9542,1387.4468 Q1172.274,1385.7949 1174.7808,1385.7949 Q1175.4864,1385.7949 1176.1339,1385.9443 Q1176.7813,1386.0938 1177.3458,1386.3926 L1177.3458,1389.1152 Q1176.7149,1388.5342 1176.1214,1388.2644 Q1175.5279,1387.9946 1174.8971,1387.9946 Q1173.5523,1387.9946 1172.8675,1389.0613 Q1172.1827,1390.1279 1172.1827,1392.228 Q1172.1827,1394.3198 1172.8675,1395.3865 Q1173.5523,1396.4531 1174.8971,1396.4531 Q1175.5279,1396.4531 1176.1214,1396.1833 Q1176.7149,1395.9136 1177.3458,1395.3325 Z " fill="#000000"/><text fill="#000000" font-family="sans-serif" font-size="14" lengthAdjust="spacing" textLength="196.3145" x="1188.8726" y="1397.2031">CastlingDirectionalGenerator</text><line style="stroke:#181818;stroke-width:0.5;" x1="1160.8726" x2="1387.1871" y1="1407.9121" y2="1407.9121"/><line style="stroke:#181818;stroke-width:0.5;" x1="1160.8726" x2="1387.1871" y1="1415.9121" y2="1415.9121"/></g><!--class KnightGenerator--><g id="elem_KnightGenerator"><rect codeLine="116" fill="#FDF5E6" height="48" id="KnightGenerator" style="stroke:#181818;stroke-width:0.5;" width="143.959" x="1068.1969" y="1044.2285"/><ellipse cx="1083.1969" cy="1060.2285" fill="#ADD1B2" rx="11" ry="11" style="stroke:#181818;stroke-width:1;"/><path d="M1085.67,1066.3716 Q1085.0889,1066.6704 1084.4498,1066.8198 Q1083.8106,1066.9692 1083.1051,1066.9692 Q1080.5982,1066.9692 1079.2784,1065.3174 Q1077.9586,1063.6655 1077.9586,1060.5444 Q1077.9586,1057.415 1079.2784,1055.7632 Q1080.5982,1054.1113 1083.1051,1054.1113 Q1083.8106,1054.1113 1084.4581,1054.2607 Q1085.1056,1054.4102 1085.67,1054.709 L1085.67,1057.4316 Q1085.0391,1056.8506 1084.4456,1056.5808 Q1083.8521,1056.311 1083.2213,1056.311 Q1081.8765,1056.311 1081.1917,1057.3777 Q1080.5069,1058.4443 1080.5069,1060.5444 Q1080.5069,1062.6362 1081.1917,1063.7029 Q1081.8765,1064.7695 1083.2213,1064.7695 Q1083.8521,1064.7695 1084.4456,1064.4998 Q1085.0391,1064.23 1085.67,1063.6489 Z " fill="#000000"/><text fill="#000000" font-family="sans-serif" font-size="14" lengthAdjust="spacing" textLength="111.959" x="1097.1969" y="1065.5195">KnightGenerator</text><line style="stroke:#181818;stroke-width:0.5;" x1="1069.1969" x2="1211.1558" y1="1076.2285" y2="1076.2285"/><line style="stroke:#181818;stroke-width:0.5;" x1="1069.1969" x2="1211.1558" y1="1084.2285" y2="1084.2285"/></g><!--class DistanceGenerator--><g id="elem_DistanceGenerator"><rect codeLine="117" fill="#FDF5E6" height="48" id="DistanceGenerator" style="stroke:#181818;stroke-width:0.5;" width="157.7266" x="1342.8853" y="1076.1087"/><ellipse cx="1357.8853" cy="1092.1087" fill="#ADD1B2" rx="11" ry="11" style="stroke:#181818;stroke-width:1;"/><path d="M1360.3585,1098.2518 Q1359.7774,1098.5506 1359.1383,1098.7 Q1358.4991,1098.8494 1357.7935,1098.8494 Q1355.2867,1098.8494 1353.9669,1097.1976 Q1352.6471,1095.5457 1352.6471,1092.4246 Q1352.6471,1089.2952 1353.9669,1087.6434 Q1355.2867,1085.9915 1357.7935,1085.9915 Q1358.4991,1085.9915 1359.1466,1086.141 Q1359.794,1086.2904 1360.3585,1086.5892 L1360.3585,1089.3118 Q1359.7276,1088.7308 1359.1341,1088.461 Q1358.5406,1088.1912 1357.9097,1088.1912 Q1356.565,1088.1912 1355.8802,1089.2579 Q1355.1954,1090.3245 1355.1954,1092.4246 Q1355.1954,1094.5164 1355.8802,1095.5831 Q1356.565,1096.6497 1357.9097,1096.6497 Q1358.5406,1096.6497 1359.1341,1096.38 Q1359.7276,1096.1102 1360.3585,1095.5291 Z " fill="#000000"/><text fill="#000000" font-family="sans-serif" font-size="14" lengthAdjust="spacing" textLength="125.7266" x="1371.8853" y="1097.3997">DistanceGenerator</text><line style="stroke:#181818;stroke-width:0.5;" x1="1343.8853" x2="1499.6119" y1="1108.1087" y2="1108.1087"/><line style="stroke:#181818;stroke-width:0.5;" x1="1343.8853" x2="1499.6119" y1="1116.1087" y2="1116.1087"/></g><!--class PawnDistanceGenerator--><g id="elem_PawnDistanceGenerator"><rect codeLine="118" fill="#FDF5E6" height="48" id="PawnDistanceGenerator" style="stroke:#181818;stroke-width:0.5;" width="192.6719" x="1351.7004" y="1233.9805"/><ellipse cx="1366.7004" cy="1249.9805" fill="#ADD1B2" rx="11" ry="11" style="stroke:#181818;stroke-width:1;"/><path d="M1369.1736,1256.1235 Q1368.5925,1256.4224 1367.9534,1256.5718 Q1367.3142,1256.7212 1366.6086,1256.7212 Q1364.1018,1256.7212 1362.782,1255.0693 Q1361.4622,1253.4175 1361.4622,1250.2964 Q1361.4622,1247.167 1362.782,1245.5151 Q1364.1018,1243.8633 1366.6086,1243.8633 Q1367.3142,1243.8633 1367.9617,1244.0127 Q1368.6091,1244.1621 1369.1736,1244.4609 L1369.1736,1247.1836 Q1368.5427,1246.6025 1367.9492,1246.3328 Q1367.3557,1246.063 1366.7249,1246.063 Q1365.3801,1246.063 1364.6953,1247.1296 Q1364.0105,1248.1963 1364.0105,1250.2964 Q1364.0105,1252.3882 1364.6953,1253.4548 Q1365.3801,1254.5215 1366.7249,1254.5215 Q1367.3557,1254.5215 1367.9492,1254.2517 Q1368.5427,1253.9819 1369.1736,1253.4009 Z " fill="#000000"/><text fill="#000000" font-family="sans-serif" font-size="14" lengthAdjust="spacing" textLength="160.6719" x="1380.7004" y="1255.2715">PawnDistanceGenerator</text><line style="stroke:#181818;stroke-width:0.5;" x1="1352.7004" x2="1543.3723" y1="1265.9805" y2="1265.9805"/><line style="stroke:#181818;stroke-width:0.5;" x1="1352.7004" x2="1543.3723" y1="1273.9805" y2="1273.9805"/></g><!--class Direction--><g id="elem_Direction"><rect codeLine="120" fill="#FDF5E6" height="179.9063" id="Direction" style="stroke:#181818;stroke-width:0.5;" width="146.1963" x="993.6764" y="1375.9121"/><ellipse cx="1032.253" cy="1391.9121" fill="#EB937F" rx="11" ry="11" style="stroke:#181818;stroke-width:1;"/><path d="M1035.8673,1398.4121 L1028.1475,1398.4121 L1028.1475,1386.019 L1035.8673,1386.019 L1035.8673,1388.1772 L1030.5963,1388.1772 L1030.5963,1390.8501 L1035.3692,1390.8501 L1035.3692,1393.0083 L1030.5963,1393.0083 L1030.5963,1396.2539 L1035.8673,1396.2539 Z " fill="#000000"/><text fill="#000000" font-family="sans-serif" font-size="14" lengthAdjust="spacing" textLength="61.8037" x="1051.4923" y="1397.2031">Direction</text><line style="stroke:#181818;stroke-width:0.5;" x1="994.6764" x2="1138.8726" y1="1407.9121" y2="1407.9121"/><text fill="#000000" font-family="sans-serif" font-size="14" lengthAdjust="spacing" textLength="75.749" x="999.6764" y="1425.4473">FORWARDS</text><text fill="#000000" font-family="sans-serif" font-size="14" lengthAdjust="spacing" textLength="85.0527" x="999.6764" y="1441.9355">BACKWARDS</text><text fill="#000000" font-family="sans-serif" font-size="14" lengthAdjust="spacing" textLength="31.4111" x="999.6764" y="1458.4238">LEFT</text><text fill="#000000" font-family="sans-serif" font-size="14" lengthAdjust="spacing" textLength="42.1436" x="999.6764" y="1474.9121">RIGHT</text><text fill="#000000" font-family="sans-serif" font-size="14" lengthAdjust="spacing" textLength="114.1602" x="999.6764" y="1491.4004">FORWARDS_LEFT</text><text fill="#000000" font-family="sans-serif" font-size="14" lengthAdjust="spacing" textLength="124.8926" x="999.6764" y="1507.8887">FORWARDS_RIGHT</text><text fill="#000000" font-family="sans-serif" font-size="14" lengthAdjust="spacing" textLength="123.4639" x="999.6764" y="1524.377">BACKWARDS_LEFT</text><text fill="#000000" font-family="sans-serif" font-size="14" lengthAdjust="spacing" textLength="134.1963" x="999.6764" y="1540.8652">BACKWARDS_RIGHT</text><line style="stroke:#181818;stroke-width:0.5;" x1="994.6764" x2="1138.8726" y1="1547.8184" y2="1547.8184"/></g><!--class Moves--><g id="elem_Moves"><rect codeLine="132" fill="#FDF5E6" height="48" id="Moves" style="stroke:#181818;stroke-width:0.5;" width="74.8408" x="1139.728" y="199.752"/><ellipse cx="1154.728" cy="215.752" fill="#ADD1B2" rx="11" ry="11" style="stroke:#181818;stroke-width:1;"/><path d="M1157.2012,221.895 Q1156.6201,222.1938 1155.981,222.3433 Q1155.3418,222.4927 1154.6362,222.4927 Q1152.1294,222.4927 1150.8096,220.8408 Q1149.4898,219.189 1149.4898,216.0679 Q1149.4898,212.9385 1150.8096,211.2866 Q1152.1294,209.6348 1154.6362,209.6348 Q1155.3418,209.6348 1155.9893,209.7842 Q1156.6367,209.9336 1157.2012,210.2324 L1157.2012,212.9551 Q1156.5703,212.374 1155.9768,212.1042 Q1155.3833,211.8345 1154.7525,211.8345 Q1153.4077,211.8345 1152.7229,212.9011 Q1152.0381,213.9678 1152.0381,216.0679 Q1152.0381,218.1597 1152.7229,219.2263 Q1153.4077,220.293 1154.7525,220.293 Q1155.3833,220.293 1155.9768,220.0232 Q1156.5703,219.7534 1157.2012,219.1724 Z " fill="#000000"/><text fill="#000000" font-family="sans-serif" font-size="14" lengthAdjust="spacing" textLength="42.8408" x="1168.728" y="221.043">Moves</text><line style="stroke:#181818;stroke-width:0.5;" x1="1140.728" x2="1213.5689" y1="231.752" y2="231.752"/><line style="stroke:#181818;stroke-width:0.5;" x1="1140.728" x2="1213.5689" y1="239.752" y2="239.752"/></g><!--class ChessMove--><g id="elem_ChessMove"><rect codeLine="134" fill="#FDF5E6" height="64.4883" id="ChessMove" style="stroke:#181818;stroke-width:0.5;" width="241.9336" x="1056.1817" y="341.6836"/><ellipse cx="1134.8223" cy="357.6836" fill="#A9DCDF" rx="11" ry="11" style="stroke:#181818;stroke-width:1;"/><path d="M1134.6856,353.0317 L1133.5317,358.1035 L1135.8477,358.1035 Z M1133.1914,350.7905 L1136.188,350.7905 L1139.5332,363.1836 L1137.0845,363.1836 L1136.3208,360.1206 L1133.042,360.1206 L1132.2949,363.1836 L1129.8462,363.1836 Z " fill="#000000"/><text fill="#000000" font-family="sans-serif" font-size="14" font-style="italic" lengthAdjust="spacing" textLength="76.1523" x="1155.3223" y="362.9746">ChessMove</text><line style="stroke:#181818;stroke-width:0.5;" x1="1057.1817" x2="1297.1152" y1="373.6836" y2="373.6836"/><line style="stroke:#181818;stroke-width:0.5;" x1="1057.1817" x2="1297.1152" y1="381.6836" y2="381.6836"/><text fill="#000000" font-family="sans-serif" font-size="14" lengthAdjust="spacing" textLength="229.9336" x="1062.1817" y="399.2188">+void execute(ChessBoard board)</text></g><!--class StandardMove--><g id="elem_StandardMove"><rect codeLine="138" fill="#FDF5E6" height="48" id="StandardMove" style="stroke:#181818;stroke-width:0.5;" width="127.9834" x="205.1006" y="594.4248"/><ellipse cx="220.1006" cy="610.4248" fill="#ADD1B2" rx="11" ry="11" style="stroke:#181818;stroke-width:1;"/><path d="M222.5737,616.5679 Q221.9927,616.8667 221.3535,617.0161 Q220.7144,617.1655 220.0088,617.1655 Q217.502,617.1655 216.1821,615.5137 Q214.8623,613.8618 214.8623,610.7407 Q214.8623,607.6113 216.1821,605.9595 Q217.502,604.3076 220.0088,604.3076 Q220.7144,604.3076 221.3618,604.457 Q222.0093,604.6064 222.5737,604.9053 L222.5737,607.6279 Q221.9429,607.0469 221.3494,606.7771 Q220.7559,606.5073 220.125,606.5073 Q218.7803,606.5073 218.0955,607.574 Q217.4106,608.6406 217.4106,610.7407 Q217.4106,612.8325 218.0955,613.8992 Q218.7803,614.9658 220.125,614.9658 Q220.7559,614.9658 221.3494,614.696 Q221.9429,614.4263 222.5737,613.8452 Z " fill="#000000"/><text fill="#000000" font-family="sans-serif" font-size="14" lengthAdjust="spacing" textLength="95.9834" x="234.1006" y="615.7158">StandardMove</text><line style="stroke:#181818;stroke-width:0.5;" x1="206.1006" x2="332.084" y1="626.4248" y2="626.4248"/><line style="stroke:#181818;stroke-width:0.5;" x1="206.1006" x2="332.084" y1="634.4248" y2="634.4248"/></g><!--class Capture--><g id="elem_Capture"><rect codeLine="139" fill="#FDF5E6" height="48" id="Capture" style="stroke:#181818;stroke-width:0.5;" width="85.6826" x="62.1279" y="594.4248"/><ellipse cx="77.1279" cy="610.4248" fill="#ADD1B2" rx="11" ry="11" style="stroke:#181818;stroke-width:1;"/><path d="M79.6011,616.5679 Q79.02,616.8667 78.3809,617.0161 Q77.7417,617.1655 77.0361,617.1655 Q74.5293,617.1655 73.2095,615.5137 Q71.8896,613.8618 71.8896,610.7407 Q71.8896,607.6113 73.2095,605.9595 Q74.5293,604.3076 77.0361,604.3076 Q77.7417,604.3076 78.3892,604.457 Q79.0366,604.6064 79.6011,604.9053 L79.6011,607.6279 Q78.9702,607.0469 78.3767,606.7771 Q77.7832,606.5073 77.1523,606.5073 Q75.8076,606.5073 75.1228,607.574 Q74.438,608.6406 74.438,610.7407 Q74.438,612.8325 75.1228,613.8992 Q75.8076,614.9658 77.1523,614.9658 Q77.7832,614.9658 78.3767,614.696 Q78.9702,614.4263 79.6011,613.8452 Z " fill="#000000"/><text fill="#000000" font-family="sans-serif" font-size="14" lengthAdjust="spacing" textLength="53.6826" x="91.1279" y="615.7158">Capture</text><line style="stroke:#181818;stroke-width:0.5;" x1="63.1279" x2="146.8105" y1="626.4248" y2="626.4248"/><line style="stroke:#181818;stroke-width:0.5;" x1="63.1279" x2="146.8105" y1="634.4248" y2="634.4248"/></g><!--class Check--><g id="elem_Check"><rect codeLine="140" fill="#FDF5E6" height="48" id="Check" style="stroke:#181818;stroke-width:0.5;" width="73.5283" x="638.1016" y="570.1035"/><ellipse cx="653.1016" cy="586.1035" fill="#ADD1B2" rx="11" ry="11" style="stroke:#181818;stroke-width:1;"/><path d="M655.5747,592.2466 Q654.9937,592.5454 654.3545,592.6948 Q653.7153,592.8442 653.0098,592.8442 Q650.5029,592.8442 649.1831,591.1924 Q647.8633,589.5405 647.8633,586.4194 Q647.8633,583.29 649.1831,581.6382 Q650.5029,579.9863 653.0098,579.9863 Q653.7153,579.9863 654.3628,580.1357 Q655.0103,580.2852 655.5747,580.584 L655.5747,583.3066 Q654.9438,582.7256 654.3503,582.4558 Q653.7568,582.186 653.126,582.186 Q651.7812,582.186 651.0964,583.2527 Q650.4116,584.3193 650.4116,586.4194 Q650.4116,588.5112 651.0964,589.5779 Q651.7812,590.6445 653.126,590.6445 Q653.7568,590.6445 654.3503,590.3748 Q654.9438,590.105 655.5747,589.5239 Z " fill="#000000"/><text fill="#000000" font-family="sans-serif" font-size="14" lengthAdjust="spacing" textLength="41.5283" x="667.1016" y="591.3945">Check</text><line style="stroke:#181818;stroke-width:0.5;" x1="639.1016" x2="710.6299" y1="602.1035" y2="602.1035"/><line style="stroke:#181818;stroke-width:0.5;" x1="639.1016" x2="710.6299" y1="610.1035" y2="610.1035"/></g><!--class EnPassant--><g id="elem_EnPassant"><rect codeLine="141" fill="#FDF5E6" height="48" id="EnPassant" style="stroke:#181818;stroke-width:0.5;" width="99.6758" x="518.4258" y="570.1035"/><ellipse cx="533.4258" cy="586.1035" fill="#ADD1B2" rx="11" ry="11" style="stroke:#181818;stroke-width:1;"/><path d="M535.8989,592.2466 Q535.3179,592.5454 534.6787,592.6948 Q534.0396,592.8442 533.334,592.8442 Q530.8271,592.8442 529.5073,591.1924 Q528.1875,589.5405 528.1875,586.4194 Q528.1875,583.29 529.5073,581.6382 Q530.8271,579.9863 533.334,579.9863 Q534.0396,579.9863 534.687,580.1357 Q535.3345,580.2852 535.8989,580.584 L535.8989,583.3066 Q535.2681,582.7256 534.6746,582.4558 Q534.0811,582.186 533.4502,582.186 Q532.1055,582.186 531.4207,583.2527 Q530.7358,584.3193 530.7358,586.4194 Q530.7358,588.5112 531.4207,589.5779 Q532.1055,590.6445 533.4502,590.6445 Q534.0811,590.6445 534.6746,590.3748 Q535.2681,590.105 535.8989,589.5239 Z " fill="#000000"/><text fill="#000000" font-family="sans-serif" font-size="14" lengthAdjust="spacing" textLength="67.6758" x="547.4258" y="591.3945">EnPassant</text><line style="stroke:#181818;stroke-width:0.5;" x1="519.4258" x2="617.1016" y1="602.1035" y2="602.1035"/><line style="stroke:#181818;stroke-width:0.5;" x1="519.4258" x2="617.1016" y1="610.1035" y2="610.1035"/></g><!--class Castling--><g id="elem_Castling"><rect codeLine="142" fill="#FDF5E6" height="48" id="Castling" style="stroke:#181818;stroke-width:0.5;" width="87.3027" x="731.6299" y="570.1035"/><ellipse cx="746.6299" cy="586.1035" fill="#ADD1B2" rx="11" ry="11" style="stroke:#181818;stroke-width:1;"/><path d="M749.103,592.2466 Q748.522,592.5454 747.8828,592.6948 Q747.2437,592.8442 746.5381,592.8442 Q744.0312,592.8442 742.7114,591.1924 Q741.3916,589.5405 741.3916,586.4194 Q741.3916,583.29 742.7114,581.6382 Q744.0312,579.9863 746.5381,579.9863 Q747.2437,579.9863 747.8911,580.1357 Q748.5386,580.2852 749.103,580.584 L749.103,583.3066 Q748.4722,582.7256 747.8787,582.4558 Q747.2852,582.186 746.6543,582.186 Q745.3096,582.186 744.6248,583.2527 Q743.9399,584.3193 743.9399,586.4194 Q743.9399,588.5112 744.6248,589.5779 Q745.3096,590.6445 746.6543,590.6445 Q747.2852,590.6445 747.8787,590.3748 Q748.4722,590.105 749.103,589.5239 Z " fill="#000000"/><text fill="#000000" font-family="sans-serif" font-size="14" lengthAdjust="spacing" textLength="55.3027" x="760.6299" y="591.3945">Castling</text><line style="stroke:#181818;stroke-width:0.5;" x1="732.6299" x2="817.9326" y1="602.1035" y2="602.1035"/><line style="stroke:#181818;stroke-width:0.5;" x1="732.6299" x2="817.9326" y1="610.1035" y2="610.1035"/></g><!--class Promotion--><g id="elem_Promotion"><rect codeLine="143" fill="#FDF5E6" height="48" id="Promotion" style="stroke:#181818;stroke-width:0.5;" width="102.3076" x="217.9385" y="800.6777"/><ellipse cx="232.9385" cy="816.6777" fill="#ADD1B2" rx="11" ry="11" style="stroke:#181818;stroke-width:1;"/><path d="M235.4116,822.8208 Q234.8306,823.1196 234.1914,823.269 Q233.5522,823.4185 232.8467,823.4185 Q230.3398,823.4185 229.02,821.7666 Q227.7002,820.1147 227.7002,816.9937 Q227.7002,813.8643 229.02,812.2124 Q230.3398,810.5605 232.8467,810.5605 Q233.5522,810.5605 234.1997,810.71 Q234.8472,810.8594 235.4116,811.1582 L235.4116,813.8809 Q234.7808,813.2998 234.1873,813.03 Q233.5938,812.7603 232.9629,812.7603 Q231.6182,812.7603 230.9333,813.8269 Q230.2485,814.8936 230.2485,816.9937 Q230.2485,819.0854 230.9333,820.1521 Q231.6182,821.2188 232.9629,821.2188 Q233.5938,821.2188 234.1873,820.949 Q234.7808,820.6792 235.4116,820.0981 Z " fill="#000000"/><text fill="#000000" font-family="sans-serif" font-size="14" lengthAdjust="spacing" textLength="70.3076" x="246.9385" y="821.9688">Promotion</text><line style="stroke:#181818;stroke-width:0.5;" x1="218.9385" x2="319.2461" y1="832.6777" y2="832.6777"/><line style="stroke:#181818;stroke-width:0.5;" x1="218.9385" x2="319.2461" y1="840.6777" y2="840.6777"/></g><!--class PromotionWithCapture--><g id="elem_PromotionWithCapture"><rect codeLine="144" fill="#FDF5E6" height="48" id="PromotionWithCapture" style="stroke:#181818;stroke-width:0.5;" width="185.9385" x="12" y="800.6777"/><ellipse cx="27" cy="816.6777" fill="#ADD1B2" rx="11" ry="11" style="stroke:#181818;stroke-width:1;"/><path d="M29.4731,822.8208 Q28.8921,823.1196 28.2529,823.269 Q27.6138,823.4185 26.9082,823.4185 Q24.4014,823.4185 23.0815,821.7666 Q21.7617,820.1147 21.7617,816.9937 Q21.7617,813.8643 23.0815,812.2124 Q24.4014,810.5605 26.9082,810.5605 Q27.6138,810.5605 28.2612,810.71 Q28.9087,810.8594 29.4731,811.1582 L29.4731,813.8809 Q28.8423,813.2998 28.2488,813.03 Q27.6553,812.7603 27.0244,812.7603 Q25.6797,812.7603 24.9949,813.8269 Q24.3101,814.8936 24.3101,816.9937 Q24.3101,819.0854 24.9949,820.1521 Q25.6797,821.2188 27.0244,821.2188 Q27.6553,821.2188 28.2488,820.949 Q28.8423,820.6792 29.4731,820.0981 Z " fill="#000000"/><text fill="#000000" font-family="sans-serif" font-size="14" lengthAdjust="spacing" textLength="153.9385" x="41" y="821.9688">PromotionWithCapture</text><line style="stroke:#181818;stroke-width:0.5;" x1="13" x2="196.9385" y1="832.6777" y2="832.6777"/><line style="stroke:#181818;stroke-width:0.5;" x1="13" x2="196.9385" y1="840.6777" y2="840.6777"/></g><line style="stroke:#181818;stroke-width:1;stroke-dasharray:7.0,7.0;" x1="2057.2472" x2="2057.2472" y1="406.1719" y2="570.1035"/><line style="stroke:#181818;stroke-width:1;stroke-dasharray:7.0,7.0;" x1="2057.2472" x2="2057.2472" y1="684.0566" y2="773.3672"/><line style="stroke:#181818;stroke-width:1;stroke-dasharray:7.0,7.0;" x1="2057.2472" x2="2152.8338" y1="773.3672" y2="773.3672"/><line style="stroke:#181818;stroke-width:1;stroke-dasharray:7.0,7.0;" x1="2152.8338" x2="2152.8338" y1="773.3672" y2="829.8633"/><polygon fill="#FFFFFF" points="2057.2472,684.0566,2050.2472,703.0566,2064.2472,703.0566,2057.2472,684.0566" style="stroke:#181818;stroke-width:1;"/><line style="stroke:#181818;stroke-width:1;" x1="2259.8099" x2="2259.8099" y1="910.8398" y2="967.6074"/><line style="stroke:#181818;stroke-width:1;" x1="2259.8099" x2="1951.6627" y1="967.6074" y2="967.6074"/><line style="stroke:#181818;stroke-width:1;" x1="1951.6627" x2="1951.6627" y1="967.6074" y2="1026.918"/><polygon fill="#FFFFFF" points="2259.8099,910.8398,2252.8099,929.8398,2266.8099,929.8398,2259.8099,910.8398" style="stroke:#181818;stroke-width:1;"/><line style="stroke:#181818;stroke-width:1;" x1="2420.274" x2="2420.274" y1="910.8398" y2="1026.918"/><polygon fill="#FFFFFF" points="2420.274,910.8398,2413.274,929.8398,2427.274,929.8398,2420.274,910.8398" style="stroke:#181818;stroke-width:1;"/><line style="stroke:#181818;stroke-width:1;stroke-dasharray:7.0,7.0;" x1="2169.9232" x2="2169.9232" y1="109.4648" y2="136.7754"/><line style="stroke:#181818;stroke-width:1;stroke-dasharray:7.0,7.0;" x1="2169.9232" x2="1470.0728" y1="136.7754" y2="136.7754"/><line style="stroke:#181818;stroke-width:1;stroke-dasharray:7.0,7.0;" x1="1470.0728" x2="1470.0728" y1="136.7754" y2="166.7754"/><polygon fill="#FFFFFF" points="2169.9232,109.4648,2162.9232,128.4648,2176.9232,128.4648,2169.9232,109.4648" style="stroke:#181818;stroke-width:1;"/><line style="stroke:#181818;stroke-width:1;stroke-dasharray:7.0,7.0;" x1="1799.0157" x2="1799.0157" y1="247.752" y2="351.5766"/><polygon fill="#FFFFFF" points="1799.0157,247.752,1792.0157,266.752,1806.0157,266.752,1799.0157,247.752" style="stroke:#181818;stroke-width:1;"/><line style="stroke:#181818;stroke-width:1;" x1="1423.2612" x2="1423.2612" y1="664.5081" y2="694.0566"/><line style="stroke:#181818;stroke-width:1;" x1="1423.2612" x2="713.6709" y1="694.0566" y2="694.0566"/><line style="stroke:#181818;stroke-width:1;" x1="713.6709" x2="713.6709" y1="694.0566" y2="855.0905"/><polygon fill="#FFFFFF" points="1423.2612,664.5081,1416.2612,683.5081,1430.2612,683.5081,1423.2612,664.5081" style="stroke:#181818;stroke-width:1;"/><line style="stroke:#181818;stroke-width:1;stroke-dasharray:7.0,7.0;" x1="425.7549" x2="425.7549" y1="666.7461" y2="773.3672"/><line style="stroke:#181818;stroke-width:1;stroke-dasharray:7.0,7.0;" x1="425.7549" x2="652.2155" y1="773.3672" y2="773.3672"/><line style="stroke:#181818;stroke-width:1;stroke-dasharray:7.0,7.0;" x1="652.2155" x2="652.2155" y1="773.3672" y2="855.0905"/><polygon fill="#FFFFFF" points="425.7549,666.7461,418.7549,685.7461,432.7549,685.7461,425.7549,666.7461" style="stroke:#181818;stroke-width:1;"/><line style="stroke:#181818;stroke-width:1;" x1="1747.9948" x2="1747.9948" y1="664.5081" y2="800.6777"/><polygon fill="#FFFFFF" points="1747.9948,664.5081,1740.9948,683.5081,1754.9948,683.5081,1747.9948,664.5081" style="stroke:#181818;stroke-width:1;"/><line style="stroke:#181818;stroke-width:1;" x1="701.3798" x2="701.3798" y1="903.0905" y2="977.6074"/><line style="stroke:#181818;stroke-width:1;" x1="701.3798" x2="646.4679" y1="977.6074" y2="977.6074"/><line style="stroke:#181818;stroke-width:1;" x1="646.4679" x2="646.4679" y1="977.6074" y2="1044.2285"/><polygon fill="#FFFFFF" points="701.3798,903.0905,694.3798,922.0905,708.3798,922.0905,701.3798,903.0905" style="stroke:#181818;stroke-width:1;"/><line style="stroke:#181818;stroke-width:1;" x1="664.5066" x2="664.5066" y1="903.0905" y2="967.6074"/><line style="stroke:#181818;stroke-width:1;" x1="664.5066" x2="555.0861" y1="967.6074" y2="967.6074"/><line style="stroke:#181818;stroke-width:1;" x1="555.0861" x2="555.0861" y1="967.6074" y2="1044.2285"/><polygon fill="#FFFFFF" points="664.5066,903.0905,657.5066,922.0905,671.5066,922.0905,664.5066,903.0905" style="stroke:#181818;stroke-width:1;"/><line style="stroke:#181818;stroke-width:1;" x1="738.2531" x2="738.2531" y1="903.0905" y2="1044.2285"/><polygon fill="#FFFFFF" points="738.2531,903.0905,731.2531,922.0905,745.2531,922.0905,738.2531,903.0905" style="stroke:#181818;stroke-width:1;"/><line style="stroke:#181818;stroke-width:1;" x1="627.6333" x2="627.6333" y1="903.0905" y2="957.6074"/><line style="stroke:#181818;stroke-width:1;" x1="627.6333" x2="458.8951" y1="957.6074" y2="957.6074"/><line style="stroke:#181818;stroke-width:1;" x1="458.8951" x2="458.8951" y1="957.6074" y2="1044.2285"/><polygon fill="#FFFFFF" points="627.6333,903.0905,620.6333,922.0905,634.6333,922.0905,627.6333,903.0905" style="stroke:#181818;stroke-width:1;"/><line style="stroke:#181818;stroke-width:1;" x1="1618.1014" x2="1618.1014" y1="664.5081" y2="724.0566"/><line style="stroke:#181818;stroke-width:1;" x1="1618.1014" x2="1074.783" y1="724.0566" y2="724.0566"/><line style="stroke:#181818;stroke-width:1;" x1="1074.783" x2="1074.783" y1="724.0566" y2="800.6777"/><polygon fill="#FFFFFF" points="1618.1014,664.5081,1611.1014,683.5081,1625.1014,683.5081,1618.1014,664.5081" style="stroke:#181818;stroke-width:1;"/><line style="stroke:#181818;stroke-width:1;stroke-dasharray:7.0,7.0;" x1="1323.1942" x2="1323.1942" y1="914.0142" y2="957.6074"/><line style="stroke:#181818;stroke-width:1;stroke-dasharray:7.0,7.0;" x1="1323.1942" x2="1235.1558" y1="957.6074" y2="957.6074"/><line style="stroke:#181818;stroke-width:1;stroke-dasharray:7.0,7.0;" x1="1235.1558" x2="1235.1558" y1="957.6074" y2="1206.6699"/><line style="stroke:#181818;stroke-width:1;stroke-dasharray:7.0,7.0;" x1="1235.1558" x2="1216.3593" y1="1206.6699" y2="1206.6699"/><line style="stroke:#181818;stroke-width:1;stroke-dasharray:7.0,7.0;" x1="1216.3593" x2="1216.3593" y1="1206.6699" y2="1233.9805"/><polygon fill="#FFFFFF" points="1323.1942,914.0142,1316.1942,933.0142,1330.1942,933.0142,1323.1942,914.0142" style="stroke:#181818;stroke-width:1;"/><line style="stroke:#181818;stroke-width:1;" x1="1274.0299" x2="1274.0299" y1="1281.9805" y2="1375.9121"/><polygon fill="#FFFFFF" points="1274.0299,1281.9805,1267.0299,1300.9805,1281.0299,1300.9805,1274.0299,1281.9805" style="stroke:#181818;stroke-width:1;"/><line style="stroke:#181818;stroke-width:1;stroke-dasharray:7.0,7.0;" x1="1224.6397" x2="1224.6397" y1="914.0142" y2="957.6074"/><line style="stroke:#181818;stroke-width:1;stroke-dasharray:7.0,7.0;" x1="1224.6397" x2="1140.1764" y1="957.6074" y2="957.6074"/><line style="stroke:#181818;stroke-width:1;stroke-dasharray:7.0,7.0;" x1="1140.1764" x2="1140.1764" y1="957.6074" y2="1044.2285"/><polygon fill="#FFFFFF" points="1224.6397,914.0142,1217.6397,933.0142,1231.6397,933.0142,1224.6397,914.0142" style="stroke:#181818;stroke-width:1;"/><line style="stroke:#181818;stroke-width:1;stroke-dasharray:7.0,7.0;" x1="1421.7486" x2="1421.7486" y1="914.0142" y2="1076.1087"/><polygon fill="#FFFFFF" points="1421.7486,914.0142,1414.7486,933.0142,1428.7486,933.0142,1421.7486,914.0142" style="stroke:#181818;stroke-width:1;"/><line style="stroke:#181818;stroke-width:1;" x1="1448.0364" x2="1448.0364" y1="1124.1087" y2="1233.9805"/><polygon fill="#FFFFFF" points="1448.0364,1124.1087,1441.0364,1143.1087,1455.0364,1143.1087,1448.0364,1124.1087" style="stroke:#181818;stroke-width:1;"/><line style="stroke:#181818;stroke-width:1;" x1="1125.3055" x2="1125.3055" y1="406.1719" y2="443.4824"/><line style="stroke:#181818;stroke-width:1;" x1="1125.3055" x2="269.0923" y1="443.4824" y2="443.4824"/><line style="stroke:#181818;stroke-width:1;" x1="269.0923" x2="269.0923" y1="443.4824" y2="594.4248"/><polygon fill="#FFFFFF" points="1125.3055,406.1719,1118.3055,425.1719,1132.3055,425.1719,1125.3055,406.1719" style="stroke:#181818;stroke-width:1;"/><line style="stroke:#181818;stroke-width:1;" x1="1090.7436" x2="1090.7436" y1="406.1719" y2="433.4824"/><line style="stroke:#181818;stroke-width:1;" x1="1090.7436" x2="104.9692" y1="433.4824" y2="433.4824"/><line style="stroke:#181818;stroke-width:1;" x1="104.9692" x2="104.9692" y1="433.4824" y2="594.4248"/><polygon fill="#FFFFFF" points="1090.7436,406.1719,1083.7436,425.1719,1097.7436,425.1719,1090.7436,406.1719" style="stroke:#181818;stroke-width:1;"/><line style="stroke:#181818;stroke-width:1;" x1="1194.4294" x2="1194.4294" y1="406.1719" y2="463.4824"/><line style="stroke:#181818;stroke-width:1;" x1="1194.4294" x2="674.8657" y1="463.4824" y2="463.4824"/><line style="stroke:#181818;stroke-width:1;" x1="674.8657" x2="674.8657" y1="463.4824" y2="570.1035"/><polygon fill="#FFFFFF" points="1194.4294,406.1719,1187.4294,425.1719,1201.4294,425.1719,1194.4294,406.1719" style="stroke:#181818;stroke-width:1;"/><line style="stroke:#181818;stroke-width:1;" x1="1159.8675" x2="1159.8675" y1="406.1719" y2="453.4824"/><line style="stroke:#181818;stroke-width:1;" x1="1159.8675" x2="568.2637" y1="453.4824" y2="453.4824"/><line style="stroke:#181818;stroke-width:1;" x1="568.2637" x2="568.2637" y1="453.4824" y2="570.1035"/><polygon fill="#FFFFFF" points="1159.8675,406.1719,1152.8675,425.1719,1166.8675,425.1719,1159.8675,406.1719" style="stroke:#181818;stroke-width:1;"/><line style="stroke:#181818;stroke-width:1;" x1="1228.9914" x2="1228.9914" y1="406.1719" y2="473.4824"/><line style="stroke:#181818;stroke-width:1;" x1="1228.9914" x2="775.2812" y1="473.4824" y2="473.4824"/><line style="stroke:#181818;stroke-width:1;" x1="775.2812" x2="775.2812" y1="473.4824" y2="570.1035"/><polygon fill="#FFFFFF" points="1228.9914,406.1719,1221.9914,425.1719,1235.9914,425.1719,1228.9914,406.1719" style="stroke:#181818;stroke-width:1;"/><line style="stroke:#181818;stroke-width:1;" x1="269.0923" x2="269.0923" y1="642.4248" y2="800.6777"/><polygon fill="#FFFFFF" points="269.0923,642.4248,262.0923,661.4248,276.0923,661.4248,269.0923,642.4248" style="stroke:#181818;stroke-width:1;"/><line style="stroke:#181818;stroke-width:1;" x1="104.9692" x2="104.9692" y1="642.4248" y2="800.6777"/><polygon fill="#FFFFFF" points="104.9692,642.4248,97.9692,661.4248,111.9692,661.4248,104.9692,642.4248" style="stroke:#181818;stroke-width:1;"/><line style="stroke:#181818;stroke-width:1;" x1="2268.3546" x2="2268.3546" y1="109.4648" y2="542.793"/><line style="stroke:#181818;stroke-width:1;" x1="2268.3546" x2="2169.4" y1="542.793" y2="542.793"/><line style="stroke:#181818;stroke-width:1;" x1="2169.4" x2="2169.4" y1="542.793" y2="570.1035"/><polygon fill="#181818" points="2169.4,570.1035,2173.4,561.1035,2169.4,565.1035,2165.4,561.1035,2169.4,570.1035" style="stroke:#181818;stroke-width:1;"/><text fill="#000000" font-family="sans-serif" font-size="13" lengthAdjust="spacing" textLength="49.9116" x="2214.443" y="299.6309">manage</text><text fill="#000000" font-family="sans-serif" font-size="13" lengthAdjust="spacing" textLength="8.2202" x="2271.3546" y="124.0332">1</text><text fill="#000000" font-family="sans-serif" font-size="13" lengthAdjust="spacing" textLength="8.2202" x="2172.4" y="565.3613">1</text><line style="stroke:#181818;stroke-width:1;" x1="2366.786" x2="2366.786" y1="829.8633" y2="109.4648"/><polygon fill="#181818" points="2366.786,109.4648,2370.786,100.4648,2366.786,104.4648,2362.786,100.4648,2366.786,109.4648" style="stroke:#181818;stroke-width:1;"/><text fill="#000000" font-family="sans-serif" font-size="13" lengthAdjust="spacing" textLength="50.9717" x="2371.786" y="378.8408">callback</text><text fill="#000000" font-family="sans-serif" font-size="13" lengthAdjust="spacing" textLength="8.2202" x="2369.786" y="825.1211">1</text><text fill="#000000" font-family="sans-serif" font-size="13" lengthAdjust="spacing" textLength="8.2202" x="2369.786" y="124.0332">1</text><line style="stroke:#181818;stroke-width:1;" x1="2099.3458" x2="2099.3458" y1="910.8398" y2="957.6074"/><line style="stroke:#181818;stroke-width:1;" x1="2099.3458" x2="1613.9845" y1="957.6074" y2="957.6074"/><line style="stroke:#181818;stroke-width:1;" x1="1613.9845" x2="1613.9845" y1="957.6074" y2="1044.2285"/><polygon fill="#181818" points="1613.9845,1044.2285,1617.9845,1035.2285,1613.9845,1039.2285,1609.9845,1035.2285,1613.9845,1044.2285" style="stroke:#181818;stroke-width:1;"/><text fill="#000000" font-family="sans-serif" font-size="13" lengthAdjust="spacing" textLength="32.0366" x="1577.9478" y="1002.1758">store</text><text fill="#000000" font-family="sans-serif" font-size="13" lengthAdjust="spacing" textLength="22.7119" x="2102.3458" y="925.4082">0..*</text><text fill="#000000" font-family="sans-serif" font-size="13" lengthAdjust="spacing" textLength="22.7119" x="1616.9845" y="1039.4863">0..*</text><line style="stroke:#181818;stroke-width:1;" x1="1532.3145" x2="1532.3145" y1="247.752" y2="314.373"/><line style="stroke:#181818;stroke-width:1;" x1="1532.3145" x2="1761.8917" y1="314.373" y2="314.373"/><line style="stroke:#181818;stroke-width:1;" x1="1761.8917" x2="1761.8917" y1="314.373" y2="351.5766"/><polygon fill="#181818" points="1761.8917,351.5766,1765.8917,342.5766,1761.8917,346.5766,1757.8917,342.5766,1761.8917,351.5766" style="stroke:#181818;stroke-width:1;"/><text fill="#000000" font-family="sans-serif" font-size="13" lengthAdjust="spacing" textLength="21.874" x="1506.4405" y="299.6309">has</text><text fill="#000000" font-family="sans-serif" font-size="13" lengthAdjust="spacing" textLength="8.2202" x="1535.3145" y="262.3203">1</text><text fill="#000000" font-family="sans-serif" font-size="13" lengthAdjust="spacing" textLength="8.2202" x="1764.8917" y="346.8344">1</text><line style="stroke:#181818;stroke-width:1;" x1="1407.8311" x2="1407.8311" y1="247.752" y2="483.4824"/><line style="stroke:#181818;stroke-width:1;" x1="1407.8311" x2="828.9326" y1="483.4824" y2="483.4824"/><line style="stroke:#181818;stroke-width:1;" x1="828.9326" x2="828.9326" y1="483.4824" y2="773.3672"/><line style="stroke:#181818;stroke-width:1;" x1="828.9326" x2="831.4665" y1="773.3672" y2="773.3672"/><line style="stroke:#181818;stroke-width:1;" x1="831.4665" x2="831.4665" y1="773.3672" y2="800.6777"/><polygon fill="#181818" points="831.4665,800.6777,835.4665,791.6777,831.4665,795.6777,827.4665,791.6777,831.4665,800.6777" style="stroke:#181818;stroke-width:1;"/><text fill="#000000" font-family="sans-serif" font-size="13" lengthAdjust="spacing" textLength="21.874" x="803.0586" y="528.0508">has</text><text fill="#000000" font-family="sans-serif" font-size="13" lengthAdjust="spacing" textLength="8.2202" x="1410.8311" y="262.3203">1</text><text fill="#000000" font-family="sans-serif" font-size="13" lengthAdjust="spacing" textLength="8.2202" x="834.4665" y="795.9355">1</text><line style="stroke:#181818;stroke-width:1;" x1="1808.2967" x2="1808.2967" y1="399.5766" y2="542.793"/><line style="stroke:#181818;stroke-width:1;" x1="1808.2967" x2="1945.0943" y1="542.793" y2="542.793"/><line style="stroke:#181818;stroke-width:1;" x1="1945.0943" x2="1945.0943" y1="542.793" y2="570.1035"/><polygon fill="#181818" points="1945.0943,570.1035,1949.0943,561.1035,1945.0943,565.1035,1941.0943,561.1035,1945.0943,570.1035" style="stroke:#181818;stroke-width:1;"/><text fill="#000000" font-family="sans-serif" font-size="13" lengthAdjust="spacing" textLength="21.874" x="1782.4227" y="528.0508">has</text><text fill="#000000" font-family="sans-serif" font-size="13" lengthAdjust="spacing" textLength="8.2202" x="1811.2967" y="414.1449">1</text><text fill="#000000" font-family="sans-serif" font-size="13" lengthAdjust="spacing" textLength="8.2202" x="1948.0943" y="565.3613">1</text><line style="stroke:#181818;stroke-width:1;" x1="1780.4537" x2="1780.4537" y1="399.5766" y2="503.4824"/><line style="stroke:#181818;stroke-width:1;" x1="1780.4537" x2="1585.628" y1="503.4824" y2="503.4824"/><line style="stroke:#181818;stroke-width:1;" x1="1585.628" x2="1585.628" y1="503.4824" y2="583.5315"/><polygon fill="#181818" points="1585.628,583.5315,1589.628,574.5315,1585.628,578.5315,1581.628,574.5315,1585.628,583.5315" style="stroke:#181818;stroke-width:1;"/><text fill="#000000" font-family="sans-serif" font-size="13" lengthAdjust="spacing" textLength="21.874" x="1559.754" y="528.0508">has</text><text fill="#000000" font-family="sans-serif" font-size="13" lengthAdjust="spacing" textLength="8.2202" x="1783.4537" y="414.1449">1</text><text fill="#000000" font-family="sans-serif" font-size="13" lengthAdjust="spacing" textLength="32.8872" x="1588.628" y="578.7893">2..32</text><line style="stroke:#181818;stroke-width:1;" x1="1752.6107" x2="1752.6107" y1="399.5766" y2="493.4824"/><line style="stroke:#181818;stroke-width:1;" x1="1752.6107" x2="1302.4273" y1="493.4824" y2="493.4824"/><line style="stroke:#181818;stroke-width:1;" x1="1302.4273" x2="1302.4273" y1="493.4824" y2="570.1035"/><polygon fill="#181818" points="1302.4273,570.1035,1306.4273,561.1035,1302.4273,565.1035,1298.4273,561.1035,1302.4273,570.1035" style="stroke:#181818;stroke-width:1;"/><text fill="#000000" font-family="sans-serif" font-size="13" lengthAdjust="spacing" textLength="21.874" x="1276.5533" y="528.0508">has</text><text fill="#000000" font-family="sans-serif" font-size="13" lengthAdjust="spacing" textLength="8.2202" x="1755.6107" y="414.1449">1</text><text fill="#000000" font-family="sans-serif" font-size="13" lengthAdjust="spacing" textLength="32.8872" x="1305.4273" y="565.3613">2..32</text><line style="stroke:#181818;stroke-width:1;" x1="1683.0481" x2="1683.0481" y1="664.5081" y2="734.0566"/><line style="stroke:#181818;stroke-width:1;" x1="1683.0481" x2="1323.1942" y1="734.0566" y2="734.0566"/><line style="stroke:#181818;stroke-width:1;" x1="1323.1942" x2="1323.1942" y1="734.0566" y2="849.5259"/><polygon fill="#181818" points="1323.1942,849.5259,1327.1942,840.5259,1323.1942,844.5259,1319.1942,840.5259,1323.1942,849.5259" style="stroke:#181818;stroke-width:1;"/><text fill="#000000" font-family="sans-serif" font-size="13" lengthAdjust="spacing" textLength="21.874" x="1297.3201" y="758.625">has</text><text fill="#000000" font-family="sans-serif" font-size="13" lengthAdjust="spacing" textLength="8.2202" x="1686.0481" y="679.0765">1</text><text fill="#000000" font-family="sans-serif" font-size="13" lengthAdjust="spacing" textLength="22.7119" x="1326.1942" y="844.7837">1..*</text><line style="stroke:#181818;stroke-width:1;" x1="1553.1547" x2="1553.1547" y1="664.5081" y2="714.0566"/><line style="stroke:#181818;stroke-width:1;" x1="1553.1547" x2="973.8138" y1="714.0566" y2="714.0566"/><line style="stroke:#181818;stroke-width:1;" x1="973.8138" x2="973.8138" y1="714.0566" y2="800.6777"/><polygon fill="#181818" points="973.8138,800.6777,977.8138,791.6777,973.8138,795.6777,969.8138,791.6777,973.8138,800.6777" style="stroke:#181818;stroke-width:1;"/><text fill="#000000" font-family="sans-serif" font-size="13" lengthAdjust="spacing" textLength="21.874" x="947.9398" y="758.625">has</text><text fill="#000000" font-family="sans-serif" font-size="13" lengthAdjust="spacing" textLength="8.2202" x="1556.1547" y="679.0765">1</text><text fill="#000000" font-family="sans-serif" font-size="13" lengthAdjust="spacing" textLength="8.2202" x="976.8138" y="795.9355">1</text><line style="stroke:#181818;stroke-width:1;" x1="1488.2079" x2="1488.2079" y1="664.5081" y2="704.0566"/><line style="stroke:#181818;stroke-width:1;" x1="1488.2079" x2="867.8066" y1="704.0566" y2="704.0566"/><line style="stroke:#181818;stroke-width:1;" x1="867.8066" x2="867.8066" y1="704.0566" y2="800.6777"/><polygon fill="#181818" points="867.8066,800.6777,871.8066,791.6777,867.8066,795.6777,863.8066,791.6777,867.8066,800.6777" style="stroke:#181818;stroke-width:1;"/><text fill="#000000" font-family="sans-serif" font-size="13" lengthAdjust="spacing" textLength="21.874" x="841.9326" y="758.625">has</text><text fill="#000000" font-family="sans-serif" font-size="13" lengthAdjust="spacing" textLength="8.2202" x="1491.2079" y="679.0765">1</text><text fill="#000000" font-family="sans-serif" font-size="13" lengthAdjust="spacing" textLength="8.2202" x="870.8066" y="795.9355">1</text><line style="stroke:#181818;stroke-width:1;" x1="1216.3593" x2="1216.3593" y1="1281.9805" y2="1309.291"/><line style="stroke:#181818;stroke-width:1;" x1="1216.3593" x2="1066.7745" y1="1309.291" y2="1309.291"/><line style="stroke:#181818;stroke-width:1;" x1="1066.7745" x2="1066.7745" y1="1309.291" y2="1375.9121"/><polygon fill="#181818" points="1066.7745,1375.9121,1070.7745,1366.9121,1066.7745,1370.9121,1062.7745,1366.9121,1066.7745,1375.9121" style="stroke:#181818;stroke-width:1;"/><text fill="#000000" font-family="sans-serif" font-size="13" lengthAdjust="spacing" textLength="21.874" x="1040.9005" y="1333.8594">has</text><text fill="#000000" font-family="sans-serif" font-size="13" lengthAdjust="spacing" textLength="6.2651" x="1219.3593" y="1296.5488">*</text><text fill="#000000" font-family="sans-serif" font-size="13" lengthAdjust="spacing" textLength="22.7119" x="1069.7745" y="1371.1699">1..*</text><line style="stroke:#181818;stroke-width:1;" x1="1395.4609" x2="1395.4609" y1="1124.1087" y2="1167.3594"/><line style="stroke:#181818;stroke-width:1;" x1="1395.4609" x2="1274.0299" y1="1167.3594" y2="1167.3594"/><line style="stroke:#181818;stroke-width:1;" x1="1274.0299" x2="1274.0299" y1="1167.3594" y2="1233.9805"/><polygon fill="#181818" points="1274.0299,1233.9805,1278.0299,1224.9805,1274.0299,1228.9805,1270.0299,1224.9805,1274.0299,1233.9805" style="stroke:#181818;stroke-width:1;"/><text fill="#000000" font-family="sans-serif" font-size="13" lengthAdjust="spacing" textLength="21.874" x="1248.1558" y="1191.9277">has</text><text fill="#000000" font-family="sans-serif" font-size="13" lengthAdjust="spacing" textLength="8.2202" x="1398.4609" y="1138.6771">1</text><text fill="#000000" font-family="sans-serif" font-size="13" lengthAdjust="spacing" textLength="6.2651" x="1277.0299" y="1229.2383">*</text><line style="stroke:#181818;stroke-width:1;" x1="1263.5533" x2="1263.5533" y1="406.1719" y2="542.793"/><line style="stroke:#181818;stroke-width:1;" x1="1263.5533" x2="1273.7297" y1="542.793" y2="542.793"/><line style="stroke:#181818;stroke-width:1;" x1="1273.7297" x2="1273.7297" y1="542.793" y2="570.1035"/><polygon fill="#181818" points="1273.7297,570.1035,1277.7297,561.1035,1273.7297,565.1035,1269.7297,561.1035,1273.7297,570.1035" style="stroke:#181818;stroke-width:1;"/><text fill="#000000" font-family="sans-serif" font-size="13" lengthAdjust="spacing" textLength="21.874" x="1237.6793" y="528.0508">has</text><text fill="#000000" font-family="sans-serif" font-size="13" lengthAdjust="spacing" textLength="8.2202" x="1266.5533" y="420.7402">1</text><text fill="#000000" font-family="sans-serif" font-size="13" lengthAdjust="spacing" textLength="8.2202" x="1276.7297" y="565.3613">2</text><line style="stroke:#181818;stroke-width:1;" x1="1177.1484" x2="1177.1484" y1="247.752" y2="341.6836"/><polygon fill="#181818" points="1177.1484,341.6836,1181.1484,332.6836,1177.1484,336.6836,1173.1484,332.6836,1177.1484,341.6836" style="stroke:#181818;stroke-width:1;"/><text fill="#000000" font-family="sans-serif" font-size="13" lengthAdjust="spacing" textLength="21.874" x="1151.2744" y="299.6309">has</text><text fill="#000000" font-family="sans-serif" font-size="13" lengthAdjust="spacing" textLength="8.2202" x="1180.1484" y="262.3203">1</text><text fill="#000000" font-family="sans-serif" font-size="13" lengthAdjust="spacing" textLength="6.2651" x="1180.1484" y="336.9414">*</text><!--SRC=[xLVVSzeu47xtNw6ZBxINSBtU6yCmam0X76b2WJIzfnjXBxO6M-8aEIdjz7-_bOLjsHXAPkxnU01vzUskzjiVChzi9GqJIcAw4wac46yyjM5yIoLDICmuwDqMY90w4iw652aF1a9oaEIz8_TZgjILrfAjKWqJN_05-mOLoC10hgc_2VT6OY79cuSukAC-EBXxeU4Cs2AYWNXXF2Hh6YlmjDWIBSXAQ2qI4Z09lcQ2UrvFwLqCVO_W9plcaD7GMFYUYSodivNYcGKGE3BpgHzZ70cbdoAceGAxGxOiOCYIiOHTPVT6SDsy-yEptxtVzaVq8Zm4wVNou_JxH6cG84mkF8znV5WZ3MGGWL83D2n578EiQDWGVaLDAdNxcS5Br-8_u_9jbpmB5kmX75x6D85sLPg8PsYlfKY-T0cwl21c_TT-hSMNOcLbgBmI8WRAlH_k6HyLo44ac0-DnzFmLN-cSPfvNs3XyB2gtnfA-a9NCSn1YLIYcL6_rMWg19rZZB5HrKuH-t6Mp6wD10c6XXa3jFbr7_4kZzV1RLDjGIP5NPAjbxYy8Bx9EKgmmP08yt11JbaAcDeYzYEUbeRGJbIOyvBZC2oEpK5YM6iYrcLacOKbOSasXWIuLXdvnBBV9RqbGRA11nLv7uz0_gJFrCCTOWnx7bqfBQclRQEGrZLLa55NfzvnLPoYu5H2o4pT5aavYni9gaiQSkwoz8R4WWRvvesGvvaEODqbkTRRHY-6N1lq-75oK2qvVHL2_liQgeAmnNuUt6jhoEAesfXAw2txRSrq33dgWloJWZ9pivHiXL9inMAccSbGfzDPeh5bIHZE8ONz_pzfhoBDTCs8XtXr73HJETYhR1sPrPQ6OmExcSF32Najg0oSDiw4cMapNzipePW9qKJsDWFiXpxIopLbN4rXLqDLWyqS7CJgk4KuXgcPJ-fQ4uvMQVpDt7GMOYPuORxmQaJ0qyJDTSFKVxgTB4VPwlhkQZ3r2gsyPXfqPbTFzzbY_l0mpHRJ-yduTcdDJ1Qt3xDi-UbnDBB0wUH-R4pNPgh3gxLycJFP9H5L7p6XUNBDMXdsPrarnP09sZNULcPrKP9Wac-uh_cTeLXeC_MS4-GjweXgbuYzAmopUpFqXJUf5O2v49i2qEYqW4uv2oDz9lYQgGXVySu3Vqe1-BcdCE-GpH6vJMAu7mE-zr8johxCKvJ9uTpKMCV3_1sLngLXX_wQnrnjG9N6z_EmKJsFet6pHlnhd0xnGgVSXzVec58vr2jFMDyfkhSu_9xccuVvqzLykB2zXXrRFjsDRcmBpejcpD5_5tk5f0GLLafKAR8matuRY4tozoEzR7QBUZ335KC4FwrKWwq4Po8kCFO0HPbofVYikJBPMvtAqv08_Cqfm8ZFy8ToVTgHhQfJ6Dj79Yyvg1B68Uw9wUWWWlspeRD-sxL-Rv7BotxsMxvMTab2ETxCfEzLNoKEu8wfBl5f7A_m3zoXsljEvzrUqouR_sgW2OLbQTnwxcrzuDLcE9lUY3q6TQwaAjQg7mlzEF13f_F7XvOxiSv05wEeWhNgvH4oKgfTVHBVAg_Edm8RQF0QfrNhNUKuvL38rGudIE78nRis2uzbTPSCDR1ZEzyrMohcc7y1]--></g></svg>