<svg xmlns="http://www.w3.org/2000/svg" xmlns:xlink="http://www.w3.org/1999/xlink" contentStyleType="text/css" height="1518px" preserveAspectRatio="none" style="width:3003px;height:1518px;background:#FFFFFF;" version="1.1" viewBox="0 0 3003 1518" width="3003px" zoomAndPan="magnify"><defs/><g><!--class ChessController--><g id="elem_ChessController"><rect codeLine="22" fill="#F8F8FF" height="97.4648" id="ChessController" style="stroke:#696969;stroke-width:0.5;" width="393.7256" x="2411.7048" y="27.666"/><ellipse cx="2550.0129" cy="43.666" fill="#B4A7E5" rx="11" ry="11" style="stroke:#181818;stroke-width:1;"/><path d="M2546.4407,39.9312 L2546.4407,37.7729 L2553.8201,37.7729 L2553.8201,39.9312 L2551.3547,39.9312 L2551.3547,48.0078 L2553.8201,48.0078 L2553.8201,50.166 L2546.4407,50.166 L2546.4407,48.0078 L2548.906,48.0078 L2548.906,39.9312 Z " fill="#000000"/><text fill="#696969" font-family="sans-serif" font-size="14" font-style="italic" lengthAdjust="spacing" textLength="108.6094" x="2570.5129" y="48.957">ChessController</text><line style="stroke:#696969;stroke-width:0.5;" x1="2412.7048" x2="2804.4304" y1="59.666" y2="59.666"/><line style="stroke:#696969;stroke-width:0.5;" x1="2412.7048" x2="2804.4304" y1="67.666" y2="67.666"/><text fill="#696969" font-family="sans-serif" font-size="14" lengthAdjust="spacing" textLength="199.8418" x="2417.7048" y="85.2012">+start(view: ChessView): void</text><text fill="#696969" font-family="sans-serif" font-size="14" lengthAdjust="spacing" textLength="123.792" x="2417.7048" y="101.6895">+newGame(): void</text><text fill="#696969" font-family="sans-serif" font-size="14" lengthAdjust="spacing" textLength="381.7256" x="2417.7048" y="118.1777">+move(fromX: int, fromY: int, toX: int, toY: int): boolean</text></g><!--class UserChoice--><g id="elem_UserChoice"><rect codeLine="28" fill="#F8F8FF" height="64.4883" id="UserChoice" style="stroke:#696969;stroke-width:0.5;" width="145.3418" x="673.5908" y="587.9238"/><ellipse cx="705.2338" cy="603.9238" fill="#B4A7E5" rx="11" ry="11" style="stroke:#181818;stroke-width:1;"/><path d="M701.6615,600.189 L701.6615,598.0308 L709.0409,598.0308 L709.0409,600.189 L706.5756,600.189 L706.5756,608.2656 L709.0409,608.2656 L709.0409,610.4238 L701.6615,610.4238 L701.6615,608.2656 L704.1269,608.2656 L704.1269,600.189 Z " fill="#000000"/><text fill="#696969" font-family="sans-serif" font-size="14" font-style="italic" lengthAdjust="spacing" textLength="76.3574" x="722.9322" y="609.2148">UserChoice</text><line style="stroke:#696969;stroke-width:0.5;" x1="674.5908" x2="817.9326" y1="619.9238" y2="619.9238"/><line style="stroke:#696969;stroke-width:0.5;" x1="674.5908" x2="817.9326" y1="627.9238" y2="627.9238"/><text fill="#696969" font-family="sans-serif" font-size="14" lengthAdjust="spacing" textLength="133.3418" x="679.5908" y="645.459">+textValue(): String</text></g><!--class DrawableResource<E>--><g id="elem_DrawableResource&lt;E&gt;"><rect codeLine="32" fill="#F8F8FF" height="64.4883" id="DrawableResource&lt;E&gt;" style="stroke:#696969;stroke-width:0.5;" width="186.7451" x="2329.4363" y="999.8945"/><ellipse cx="2344.4363" cy="1015.8945" fill="#B4A7E5" rx="11" ry="11" style="stroke:#181818;stroke-width:1;"/><path d="M2340.864,1012.1597 L2340.864,1010.0015 L2348.2434,1010.0015 L2348.2434,1012.1597 L2345.7781,1012.1597 L2345.7781,1020.2363 L2348.2434,1020.2363 L2348.2434,1022.3945 L2340.864,1022.3945 L2340.864,1020.2363 L2343.3293,1020.2363 L2343.3293,1012.1597 Z " fill="#000000"/><text fill="#696969" font-family="sans-serif" font-size="14" font-style="italic" lengthAdjust="spacing" textLength="154.7451" x="2358.4363" y="1021.1855">DrawableResource&lt;E&gt;</text><line style="stroke:#696969;stroke-width:0.5;" x1="2330.4363" x2="2515.1814" y1="1031.8945" y2="1031.8945"/><line style="stroke:#696969;stroke-width:0.5;" x1="2330.4363" x2="2515.1814" y1="1039.8945" y2="1039.8945"/><text fill="#696969" font-family="sans-serif" font-size="14" lengthAdjust="spacing" textLength="120.2236" x="2335.4363" y="1057.4297">+getResource(): E</text></g><!--class ChessView--><g id="elem_ChessView"><rect codeLine="36" fill="#F8F8FF" height="113.9531" id="ChessView" style="stroke:#696969;stroke-width:0.5;" width="448.6113" x="2173.1545" y="555.7695"/><ellipse cx="2357.0925" cy="571.7695" fill="#B4A7E5" rx="11" ry="11" style="stroke:#181818;stroke-width:1;"/><path d="M2353.5203,568.0347 L2353.5203,565.8765 L2360.8997,565.8765 L2360.8997,568.0347 L2358.4343,568.0347 L2358.4343,576.1113 L2360.8997,576.1113 L2360.8997,578.2695 L2353.5203,578.2695 L2353.5203,576.1113 L2355.9856,576.1113 L2355.9856,568.0347 Z " fill="#000000"/><text fill="#696969" font-family="sans-serif" font-size="14" font-style="italic" lengthAdjust="spacing" textLength="72.2354" x="2377.5925" y="577.0605">ChessView</text><line style="stroke:#696969;stroke-width:0.5;" x1="2174.1545" x2="2620.7659" y1="587.7695" y2="587.7695"/><line style="stroke:#696969;stroke-width:0.5;" x1="2174.1545" x2="2620.7659" y1="595.7695" y2="595.7695"/><text fill="#696969" font-family="sans-serif" font-size="14" lengthAdjust="spacing" textLength="120.6543" x="2179.1545" y="613.3047">+startView(): void</text><text fill="#696969" font-family="sans-serif" font-size="14" lengthAdjust="spacing" textLength="221.0195" x="2179.1545" y="629.793">+removePiece(x: int, y: int): void</text><text fill="#696969" font-family="sans-serif" font-size="14" lengthAdjust="spacing" textLength="436.6113" x="2179.1545" y="646.2813">+putPiece(type: PieceType, color: PlayerColor, x: int, y: int): void</text><text fill="#696969" font-family="sans-serif" font-size="14" lengthAdjust="spacing" textLength="241.8555" x="2179.1545" y="662.7695">+displayMessage(msg: String): void</text></g><g id="elem_GMN6"><path d="M2196.3528,396.5273 L2196.3528,421.8379 L2598.5676,421.8379 L2598.5676,406.5273 L2588.5676,396.5273 L2196.3528,396.5273 " fill="#FDF5E6" style="stroke:#181818;stroke-width:0.5;"/><path d="M2588.5676,396.5273 L2588.5676,406.5273 L2598.5676,406.5273 L2588.5676,396.5273 " fill="#FDF5E6" style="stroke:#181818;stroke-width:1;"/><text fill="#000000" font-family="sans-serif" font-size="13" lengthAdjust="spacing" textLength="381.2148" x="2202.3528" y="414.0957">T implements User Choice: &lt;T extends User Choice&gt; in Java</text></g><!--class BaseView<E>--><g id="elem_BaseView&lt;E&gt;"><rect codeLine="47" fill="#F8F8FF" height="80.9766" id="BaseView&lt;E&gt;" style="stroke:#696969;stroke-width:0.5;" width="641.8564" x="2279.0947" y="785.5293"/><ellipse cx="2549.5962" cy="801.5293" fill="#A9DCDF" rx="11" ry="11" style="stroke:#181818;stroke-width:1;"/><path d="M2549.4595,796.8774 L2548.3057,801.9492 L2550.6216,801.9492 Z M2547.9653,794.6362 L2550.9619,794.6362 L2554.3071,807.0293 L2551.8584,807.0293 L2551.0947,803.9663 L2547.8159,803.9663 L2547.0688,807.0293 L2544.6201,807.0293 Z " fill="#000000"/><text fill="#696969" font-family="sans-serif" font-size="14" font-style="italic" lengthAdjust="spacing" textLength="92.3535" x="2570.0962" y="806.8203">BaseView&lt;E&gt;</text><line style="stroke:#696969;stroke-width:0.5;" x1="2280.0947" x2="2919.9512" y1="817.5293" y2="817.5293"/><line style="stroke:#696969;stroke-width:0.5;" x1="2280.0947" x2="2919.9512" y1="825.5293" y2="825.5293"/><text fill="#696969" font-family="sans-serif" font-size="14" lengthAdjust="spacing" textLength="599.1494" x="2285.0947" y="843.0645">+registerResource(type: PieceType, color: PlayerColor, res: DrawableResource&lt;E&gt;): void</text><text fill="#696969" font-family="sans-serif" font-size="14" lengthAdjust="spacing" textLength="629.8564" x="2285.0947" y="859.5527">#loadResourceFor(type: PieceType, color: PlayerColor, def: Resource): DrawableResource&lt;E&gt;</text></g><!--class GUIView--><g id="elem_GUIView"><rect codeLine="52" fill="#F8F8FF" height="130.4414" id="GUIView" style="stroke:#696969;stroke-width:0.5;" width="448.6113" x="2536.1814" y="982.584"/><ellipse cx="2728.4182" cy="998.584" fill="#ADD1B2" rx="11" ry="11" style="stroke:#181818;stroke-width:1;"/><path d="M2730.8914,1004.7271 Q2730.3103,1005.0259 2729.6711,1005.1753 Q2729.032,1005.3247 2728.3264,1005.3247 Q2725.8196,1005.3247 2724.4998,1003.6729 Q2723.1799,1002.021 2723.1799,998.8999 Q2723.1799,995.7705 2724.4998,994.1187 Q2725.8196,992.4668 2728.3264,992.4668 Q2729.032,992.4668 2729.6794,992.6162 Q2730.3269,992.7656 2730.8914,993.0645 L2730.8914,995.7871 Q2730.2605,995.2061 2729.667,994.9363 Q2729.0735,994.6665 2728.4426,994.6665 Q2727.0979,994.6665 2726.4131,995.7332 Q2725.7283,996.7998 2725.7283,998.8999 Q2725.7283,1000.9917 2726.4131,1002.0583 Q2727.0979,1003.125 2728.4426,1003.125 Q2729.0735,1003.125 2729.667,1002.8552 Q2730.2605,1002.5854 2730.8914,1002.0044 Z " fill="#000000"/><text fill="#696969" font-family="sans-serif" font-size="14" lengthAdjust="spacing" textLength="55.6377" x="2748.9182" y="1003.875">GUIView</text><line style="stroke:#696969;stroke-width:0.5;" x1="2537.1814" x2="2983.7927" y1="1014.584" y2="1014.584"/><line style="stroke:#696969;stroke-width:0.5;" x1="2537.1814" x2="2983.7927" y1="1022.584" y2="1022.584"/><text fill="#696969" font-family="sans-serif" font-size="14" lengthAdjust="spacing" textLength="120.6543" x="2542.1814" y="1040.1191">+startView(): void</text><text fill="#696969" font-family="sans-serif" font-size="14" lengthAdjust="spacing" textLength="221.0195" x="2542.1814" y="1056.6074">+removePiece(x: int, y: int): void</text><text fill="#696969" font-family="sans-serif" font-size="14" lengthAdjust="spacing" textLength="436.6113" x="2542.1814" y="1073.0957">+putPiece(x: int, y: int, type: PieceType, color: PlayerColor): void</text><text fill="#696969" font-family="sans-serif" font-size="14" lengthAdjust="spacing" textLength="241.8555" x="2542.1814" y="1089.584">+displayMessage(msg: String): void</text><text fill="#696969" font-family="sans-serif" font-size="14" lengthAdjust="spacing" textLength="435.1279" x="2542.1814" y="1106.0723">+askUser&lt;T&gt;(title: String, question: String, possibilities: ...T): T</text></g><!--class ConsoleView--><g id="elem_ConsoleView"><rect codeLine="60" fill="#F8F8FF" height="130.4414" id="ConsoleView" style="stroke:#696969;stroke-width:0.5;" width="448.6113" x="1860.825" y="982.584"/><ellipse cx="2037.7083" cy="998.584" fill="#ADD1B2" rx="11" ry="11" style="stroke:#181818;stroke-width:1;"/><path d="M2040.1814,1004.7271 Q2039.6003,1005.0259 2038.9612,1005.1753 Q2038.322,1005.3247 2037.6165,1005.3247 Q2035.1096,1005.3247 2033.7898,1003.6729 Q2032.47,1002.021 2032.47,998.8999 Q2032.47,995.7705 2033.7898,994.1187 Q2035.1096,992.4668 2037.6165,992.4668 Q2038.322,992.4668 2038.9695,992.6162 Q2039.6169,992.7656 2040.1814,993.0645 L2040.1814,995.7871 Q2039.5505,995.2061 2038.957,994.9363 Q2038.3635,994.6665 2037.7327,994.6665 Q2036.3879,994.6665 2035.7031,995.7332 Q2035.0183,996.7998 2035.0183,998.8999 Q2035.0183,1000.9917 2035.7031,1002.0583 Q2036.3879,1003.125 2037.7327,1003.125 Q2038.3635,1003.125 2038.957,1002.8552 Q2039.5505,1002.5854 2040.1814,1002.0044 Z " fill="#000000"/><text fill="#696969" font-family="sans-serif" font-size="14" lengthAdjust="spacing" textLength="86.3447" x="2058.2083" y="1003.875">ConsoleView</text><line style="stroke:#696969;stroke-width:0.5;" x1="1861.825" x2="2308.4363" y1="1014.584" y2="1014.584"/><line style="stroke:#696969;stroke-width:0.5;" x1="1861.825" x2="2308.4363" y1="1022.584" y2="1022.584"/><text fill="#696969" font-family="sans-serif" font-size="14" lengthAdjust="spacing" textLength="120.6543" x="1866.825" y="1040.1191">+startView(): void</text><text fill="#696969" font-family="sans-serif" font-size="14" lengthAdjust="spacing" textLength="221.0195" x="1866.825" y="1056.6074">+removePiece(x: int, y: int): void</text><text fill="#696969" font-family="sans-serif" font-size="14" lengthAdjust="spacing" textLength="436.6113" x="1866.825" y="1073.0957">+putPiece(x: int, y: int, type: PieceType, color: PlayerColor): void</text><text fill="#696969" font-family="sans-serif" font-size="14" lengthAdjust="spacing" textLength="241.8555" x="1866.825" y="1089.584">+displayMessage(msg: String): void</text><text fill="#696969" font-family="sans-serif" font-size="14" lengthAdjust="spacing" textLength="435.1279" x="1866.825" y="1106.0723">+askUser&lt;T&gt;(title: String, question: String, possibilities: ...T): T</text></g><!--class ChessEngine--><g id="elem_ChessEngine"><rect codeLine="68" fill="#FDF5E6" height="80.9766" id="ChessEngine" style="stroke:#181818;stroke-width:0.5;" width="373.4502" x="1936.386" y="182.4414"/><ellipse cx="2075.8665" cy="198.4414" fill="#ADD1B2" rx="11" ry="11" style="stroke:#181818;stroke-width:1;"/><path d="M2078.3396,204.5845 Q2077.7585,204.8833 2077.1194,205.0327 Q2076.4802,205.1821 2075.7747,205.1821 Q2073.2678,205.1821 2071.948,203.5303 Q2070.6282,201.8784 2070.6282,198.7573 Q2070.6282,195.6279 2071.948,193.9761 Q2073.2678,192.3242 2075.7747,192.3242 Q2076.4802,192.3242 2077.1277,192.4736 Q2077.7751,192.623 2078.3396,192.9219 L2078.3396,195.6445 Q2077.7087,195.0635 2077.1152,194.7937 Q2076.5217,194.5239 2075.8909,194.5239 Q2074.5461,194.5239 2073.8613,195.5906 Q2073.1765,196.6572 2073.1765,198.7573 Q2073.1765,200.8491 2073.8613,201.9158 Q2074.5461,202.9824 2075.8909,202.9824 Q2076.5217,202.9824 2077.1152,202.7126 Q2077.7087,202.4429 2078.3396,201.8618 Z " fill="#000000"/><text fill="#000000" font-family="sans-serif" font-size="14" lengthAdjust="spacing" textLength="85.9893" x="2096.3665" y="203.7324">ChessEngine</text><line style="stroke:#181818;stroke-width:0.5;" x1="1937.386" x2="2308.8362" y1="214.4414" y2="214.4414"/><line style="stroke:#181818;stroke-width:0.5;" x1="1937.386" x2="2308.8362" y1="222.4414" y2="222.4414"/><text fill="#000000" font-family="sans-serif" font-size="14" lengthAdjust="spacing" textLength="127.5859" x="1942.386" y="239.9766">+startGame(): void</text><text fill="#000000" font-family="sans-serif" font-size="14" lengthAdjust="spacing" textLength="361.4502" x="1942.386" y="256.4648">+movePiece(fromX: int, fromY: int, x: int, y: int): void</text></g><!--class GameState--><g id="elem_GameState"><rect codeLine="73" fill="#FDF5E6" height="130.4414" id="GameState" style="stroke:#181818;stroke-width:0.5;" width="104.2627" x="2287.4421" y="12"/><ellipse cx="2302.4421" cy="28" fill="#EB937F" rx="11" ry="11" style="stroke:#181818;stroke-width:1;"/><path d="M2306.0564,34.5 L2298.3367,34.5 L2298.3367,22.1069 L2306.0564,22.1069 L2306.0564,24.2651 L2300.7854,24.2651 L2300.7854,26.938 L2305.5583,26.938 L2305.5583,29.0962 L2300.7854,29.0962 L2300.7854,32.3418 L2306.0564,32.3418 Z " fill="#000000"/><text fill="#000000" font-family="sans-serif" font-size="14" lengthAdjust="spacing" textLength="72.2627" x="2316.4421" y="33.291">GameState</text><line style="stroke:#181818;stroke-width:0.5;" x1="2288.4421" x2="2390.7048" y1="44" y2="44"/><text fill="#000000" font-family="sans-serif" font-size="14" lengthAdjust="spacing" textLength="90.4805" x="2293.4421" y="61.5352">IN_PROGRESS</text><text fill="#000000" font-family="sans-serif" font-size="14" lengthAdjust="spacing" textLength="46.3887" x="2293.4421" y="78.0234">CHECK</text><text fill="#000000" font-family="sans-serif" font-size="14" lengthAdjust="spacing" textLength="84.5469" x="2293.4421" y="94.5117">CHECKMATE</text><text fill="#000000" font-family="sans-serif" font-size="14" lengthAdjust="spacing" textLength="79.2627" x="2293.4421" y="111">STALEMATE</text><text fill="#000000" font-family="sans-serif" font-size="14" lengthAdjust="spacing" textLength="40.9746" x="2293.4421" y="127.4883">DRAW</text><line style="stroke:#181818;stroke-width:0.5;" x1="2288.4421" x2="2390.7048" y1="134.4414" y2="134.4414"/></g><!--class ChessBoardView--><g id="elem_ChessBoardView"><rect codeLine="81" fill="#FDF5E6" height="80.9766" id="ChessBoardView" style="stroke:#181818;stroke-width:0.5;" width="244.4355" x="1671.9504" y="182.4414"/><ellipse cx="1734.3386" cy="198.4414" fill="#B4A7E5" rx="11" ry="11" style="stroke:#181818;stroke-width:1;"/><path d="M1730.7664,194.7065 L1730.7664,192.5483 L1738.1458,192.5483 L1738.1458,194.7065 L1735.6804,194.7065 L1735.6804,202.7832 L1738.1458,202.7832 L1738.1458,204.9414 L1730.7664,204.9414 L1730.7664,202.7832 L1733.2317,202.7832 L1733.2317,194.7065 Z " fill="#000000"/><text fill="#000000" font-family="sans-serif" font-size="14" font-style="italic" lengthAdjust="spacing" textLength="111.1592" x="1754.8386" y="203.7324">ChessBoardView</text><line style="stroke:#181818;stroke-width:0.5;" x1="1672.9504" x2="1915.386" y1="214.4414" y2="214.4414"/><line style="stroke:#181818;stroke-width:0.5;" x1="1672.9504" x2="1915.386" y1="222.4414" y2="222.4414"/><text fill="#000000" font-family="sans-serif" font-size="14" lengthAdjust="spacing" textLength="193.375" x="1677.9504" y="239.9766">ChessPiece get(Position pos)</text><text fill="#000000" font-family="sans-serif" font-size="14" lengthAdjust="spacing" textLength="232.4355" x="1677.9504" y="256.4648">boolean containsKey(Position pos)</text></g><!--class ChessBoard--><g id="elem_ChessBoard"><rect codeLine="86" fill="#FDF5E6" height="48" id="ChessBoard" style="stroke:#181818;stroke-width:0.5;" width="111.3721" x="1986.6213" y="367.2426"/><ellipse cx="2001.6213" cy="383.2426" fill="#ADD1B2" rx="11" ry="11" style="stroke:#181818;stroke-width:1;"/><path d="M2004.0945,389.3856 Q2003.5134,389.6845 2002.8743,389.8339 Q2002.2351,389.9833 2001.5295,389.9833 Q1999.0227,389.9833 1997.7029,388.3314 Q1996.3831,386.6796 1996.3831,383.5585 Q1996.3831,380.4291 1997.7029,378.7772 Q1999.0227,377.1254 2001.5295,377.1254 Q2002.2351,377.1254 2002.8826,377.2748 Q2003.53,377.4242 2004.0945,377.723 L2004.0945,380.4457 Q2003.4636,379.8646 2002.8701,379.5949 Q2002.2766,379.3251 2001.6458,379.3251 Q2000.301,379.3251 1999.6162,380.3917 Q1998.9314,381.4584 1998.9314,383.5585 Q1998.9314,385.6503 1999.6162,386.7169 Q2000.301,387.7836 2001.6458,387.7836 Q2002.2766,387.7836 2002.8701,387.5138 Q2003.4636,387.244 2004.0945,386.663 Z " fill="#000000"/><text fill="#000000" font-family="sans-serif" font-size="14" lengthAdjust="spacing" textLength="79.3721" x="2015.6213" y="388.5336">ChessBoard</text><line style="stroke:#181818;stroke-width:0.5;" x1="1987.6213" x2="2096.9934" y1="399.2426" y2="399.2426"/><line style="stroke:#181818;stroke-width:0.5;" x1="1987.6213" x2="2096.9934" y1="407.2426" y2="407.2426"/></g><!--class ChessBoardInitialzer--><g id="elem_ChessBoardInitialzer"><rect codeLine="88" fill="#FDF5E6" height="56.6211" id="ChessBoardInitialzer" style="stroke:#181818;stroke-width:0.5;" width="170.7559" x="2825.4304" y="48.9102"/><ellipse cx="2840.4304" cy="69.2207" fill="#ADD1B2" rx="11" ry="11" style="stroke:#181818;stroke-width:1;"/><path d="M2842.9036,75.3638 Q2842.3225,75.6626 2841.6833,75.812 Q2841.0442,75.9614 2840.3386,75.9614 Q2837.8318,75.9614 2836.512,74.3096 Q2835.1921,72.6577 2835.1921,69.5366 Q2835.1921,66.4072 2836.512,64.7554 Q2837.8318,63.1035 2840.3386,63.1035 Q2841.0442,63.1035 2841.6917,63.2529 Q2842.3391,63.4023 2842.9036,63.7012 L2842.9036,66.4238 Q2842.2727,65.8428 2841.6792,65.573 Q2841.0857,65.3032 2840.4548,65.3032 Q2839.1101,65.3032 2838.4253,66.3699 Q2837.7405,67.4365 2837.7405,69.5366 Q2837.7405,71.6284 2838.4253,72.6951 Q2839.1101,73.7617 2840.4548,73.7617 Q2841.0857,73.7617 2841.6792,73.4919 Q2842.2727,73.2222 2842.9036,72.6411 Z " fill="#000000"/><text fill="#000000" font-family="sans-serif" font-size="12" font-style="italic" lengthAdjust="spacing" textLength="43.9102" x="2901.8533" y="65.5117">&#171;static&#187;</text><text fill="#000000" font-family="sans-serif" font-size="14" lengthAdjust="spacing" textLength="138.7559" x="2854.4304" y="81.5781">ChessBoardInitialzer</text><line style="stroke:#181818;stroke-width:0.5;" x1="2826.4304" x2="2995.1863" y1="89.5313" y2="89.5313"/><line style="stroke:#181818;stroke-width:0.5;" x1="2826.4304" x2="2995.1863" y1="97.5313" y2="97.5313"/></g><!--class Position--><g id="elem_Position"><rect codeLine="90" fill="#FDF5E6" height="48" id="Position" style="stroke:#181818;stroke-width:0.5;" width="86.0928" x="838.9326" y="555.7695"/><ellipse cx="853.9326" cy="571.7695" fill="#ADD1B2" rx="11" ry="11" style="stroke:#181818;stroke-width:1;"/><path d="M856.4058,577.9126 Q855.8247,578.2114 855.1855,578.3608 Q854.5464,578.5103 853.8408,578.5103 Q851.334,578.5103 850.0142,576.8584 Q848.6943,575.2065 848.6943,572.0854 Q848.6943,568.9561 850.0142,567.3042 Q851.334,565.6523 853.8408,565.6523 Q854.5464,565.6523 855.1938,565.8018 Q855.8413,565.9512 856.4058,566.25 L856.4058,568.9727 Q855.7749,568.3916 855.1814,568.1218 Q854.5879,567.8521 853.957,567.8521 Q852.6123,567.8521 851.9275,568.9187 Q851.2427,569.9854 851.2427,572.0854 Q851.2427,574.1772 851.9275,575.2439 Q852.6123,576.3105 853.957,576.3105 Q854.5879,576.3105 855.1814,576.0408 Q855.7749,575.771 856.4058,575.1899 Z " fill="#000000"/><text fill="#000000" font-family="sans-serif" font-size="14" lengthAdjust="spacing" textLength="54.0928" x="867.9326" y="577.0605">Position</text><line style="stroke:#181818;stroke-width:0.5;" x1="839.9326" x2="924.0254" y1="587.7695" y2="587.7695"/><line style="stroke:#181818;stroke-width:0.5;" x1="839.9326" x2="924.0254" y1="595.7695" y2="595.7695"/></g><!--class PlayerColor--><g id="elem_PlayerColor"><rect codeLine="92" fill="#F8F8FF" height="80.9766" id="PlayerColor" style="stroke:#696969;stroke-width:0.5;" width="109.0205" x="1344.1616" y="756.3438"/><ellipse cx="1359.1616" cy="772.3438" fill="#EB937F" rx="11" ry="11" style="stroke:#181818;stroke-width:1;"/><path d="M1362.7759,778.8438 L1355.0562,778.8438 L1355.0562,766.4507 L1362.7759,766.4507 L1362.7759,768.6089 L1357.5049,768.6089 L1357.5049,771.2817 L1362.2778,771.2817 L1362.2778,773.4399 L1357.5049,773.4399 L1357.5049,776.6855 L1362.7759,776.6855 Z " fill="#000000"/><text fill="#696969" font-family="sans-serif" font-size="14" lengthAdjust="spacing" textLength="77.0205" x="1373.1616" y="777.6348">PlayerColor</text><line style="stroke:#696969;stroke-width:0.5;" x1="1345.1616" x2="1452.1821" y1="788.3438" y2="788.3438"/><text fill="#696969" font-family="sans-serif" font-size="14" lengthAdjust="spacing" textLength="42.7383" x="1350.1616" y="805.8789">WHITE</text><text fill="#696969" font-family="sans-serif" font-size="14" lengthAdjust="spacing" textLength="44.0029" x="1350.1616" y="822.3672">BLACK</text><line style="stroke:#696969;stroke-width:0.5;" x1="1345.1616" x2="1452.1821" y1="829.3203" y2="829.3203"/></g><!--class PieceType--><g id="elem_PieceType"><rect codeLine="97" fill="#F8F8FF" height="146.9297" id="PieceType" style="stroke:#696969;stroke-width:0.5;" width="99.334" x="1162.3348" y="756.3438"/><ellipse cx="1177.3348" cy="772.3438" fill="#EB937F" rx="11" ry="11" style="stroke:#181818;stroke-width:1;"/><path d="M1180.9491,778.8438 L1173.2294,778.8438 L1173.2294,766.4507 L1180.9491,766.4507 L1180.9491,768.6089 L1175.6781,768.6089 L1175.6781,771.2817 L1180.4511,771.2817 L1180.4511,773.4399 L1175.6781,773.4399 L1175.6781,776.6855 L1180.9491,776.6855 Z " fill="#000000"/><text fill="#696969" font-family="sans-serif" font-size="14" lengthAdjust="spacing" textLength="67.334" x="1191.3348" y="777.6348">PieceType</text><line style="stroke:#696969;stroke-width:0.5;" x1="1163.3348" x2="1260.6688" y1="788.3438" y2="788.3438"/><text fill="#696969" font-family="sans-serif" font-size="14" lengthAdjust="spacing" textLength="39.7168" x="1168.3348" y="805.8789">PAWN</text><text fill="#696969" font-family="sans-serif" font-size="14" lengthAdjust="spacing" textLength="39.7441" x="1168.3348" y="822.3672">ROOK</text><text fill="#696969" font-family="sans-serif" font-size="14" lengthAdjust="spacing" textLength="52.7734" x="1168.3348" y="838.8555">KNIGHT</text><text fill="#696969" font-family="sans-serif" font-size="14" lengthAdjust="spacing" textLength="48.5283" x="1168.3348" y="855.3438">BISHOP</text><text fill="#696969" font-family="sans-serif" font-size="14" lengthAdjust="spacing" textLength="46.0947" x="1168.3348" y="871.832">QUEEN</text><text fill="#696969" font-family="sans-serif" font-size="14" lengthAdjust="spacing" textLength="33.6328" x="1168.3348" y="888.3203">KING</text><line style="stroke:#696969;stroke-width:0.5;" x1="1163.3348" x2="1260.6688" y1="895.2734" y2="895.2734"/></g><!--class ChessPiece--><g id="elem_ChessPiece"><rect codeLine="106" fill="#FDF5E6" height="80.9766" id="ChessPiece" style="stroke:#181818;stroke-width:0.5;" width="454.627" x="952.215" y="569.1975"/><ellipse cx="1137.7765" cy="585.1975" fill="#A9DCDF" rx="11" ry="11" style="stroke:#181818;stroke-width:1;"/><path d="M1137.6398,580.5457 L1136.486,585.6175 L1138.8019,585.6175 Z M1136.1457,578.3045 L1139.1423,578.3045 L1142.4875,590.6975 L1140.0387,590.6975 L1139.2751,587.6346 L1135.9963,587.6346 L1135.2492,590.6975 L1132.8005,590.6975 Z " fill="#000000"/><text fill="#000000" font-family="sans-serif" font-size="14" font-style="italic" lengthAdjust="spacing" textLength="75.0039" x="1158.2765" y="590.4886">ChessPiece</text><line style="stroke:#181818;stroke-width:0.5;" x1="953.215" x2="1405.842" y1="601.1975" y2="601.1975"/><text fill="#000000" font-family="sans-serif" font-size="14" lengthAdjust="spacing" textLength="139.3096" x="958.215" y="618.7327">-boolean: hasMoved</text><line style="stroke:#181818;stroke-width:0.5;" x1="953.215" x2="1405.842" y1="625.6858" y2="625.6858"/><text fill="#000000" font-family="sans-serif" font-size="14" lengthAdjust="spacing" textLength="442.627" x="958.215" y="643.221">+Moves getPossibleMoves(ChessBoardView board, Position from)</text></g><!--class PromotableChessPiece--><g id="elem_PromotableChessPiece"><rect codeLine="110" fill="#FDF5E6" height="48" id="PromotableChessPiece" style="stroke:#181818;stroke-width:0.5;" width="184.3662" x="871.0233" y="810.7565"/><ellipse cx="886.0233" cy="826.7565" fill="#A9DCDF" rx="11" ry="11" style="stroke:#181818;stroke-width:1;"/><path d="M885.8866,822.1047 L884.7328,827.1764 L887.0487,827.1764 Z M884.3925,819.8634 L887.389,819.8634 L890.7343,832.2565 L888.2855,832.2565 L887.5219,829.1935 L884.243,829.1935 L883.496,832.2565 L881.0472,832.2565 Z " fill="#000000"/><text fill="#000000" font-family="sans-serif" font-size="14" font-style="italic" lengthAdjust="spacing" textLength="152.3662" x="900.0233" y="832.0475">PromotableChessPiece</text><line style="stroke:#181818;stroke-width:0.5;" x1="872.0233" x2="1054.3895" y1="842.7565" y2="842.7565"/><line style="stroke:#181818;stroke-width:0.5;" x1="872.0233" x2="1054.3895" y1="850.7565" y2="850.7565"/></g><!--class Pawn--><g id="elem_Pawn"><rect codeLine="111" fill="#FDF5E6" height="48" id="Pawn" style="stroke:#181818;stroke-width:0.5;" width="66.9453" x="1075.3895" y="756.3438"/><ellipse cx="1090.3895" cy="772.3438" fill="#ADD1B2" rx="11" ry="11" style="stroke:#181818;stroke-width:1;"/><path d="M1092.8627,778.4868 Q1092.2816,778.7856 1091.6425,778.9351 Q1091.0033,779.0845 1090.2977,779.0845 Q1087.7909,779.0845 1086.4711,777.4326 Q1085.1513,775.7808 1085.1513,772.6597 Q1085.1513,769.5303 1086.4711,767.8784 Q1087.7909,766.2266 1090.2977,766.2266 Q1091.0033,766.2266 1091.6508,766.376 Q1092.2982,766.5254 1092.8627,766.8242 L1092.8627,769.5469 Q1092.2318,768.9658 1091.6383,768.696 Q1091.0448,768.4263 1090.4139,768.4263 Q1089.0692,768.4263 1088.3844,769.4929 Q1087.6996,770.5596 1087.6996,772.6597 Q1087.6996,774.7515 1088.3844,775.8181 Q1089.0692,776.8848 1090.4139,776.8848 Q1091.0448,776.8848 1091.6383,776.615 Q1092.2318,776.3452 1092.8627,775.7642 Z " fill="#000000"/><text fill="#000000" font-family="sans-serif" font-size="14" lengthAdjust="spacing" textLength="34.9453" x="1104.3895" y="777.6348">Pawn</text><line style="stroke:#181818;stroke-width:0.5;" x1="1076.3895" x2="1141.3348" y1="788.3438" y2="788.3438"/><line style="stroke:#181818;stroke-width:0.5;" x1="1076.3895" x2="1141.3348" y1="796.3438" y2="796.3438"/></g><!--class Rook--><g id="elem_Rook"><rect codeLine="112" fill="#FDF5E6" height="48" id="Rook" style="stroke:#181818;stroke-width:0.5;" width="66.2344" x="797.0197" y="999.8945"/><ellipse cx="812.0197" cy="1015.8945" fill="#ADD1B2" rx="11" ry="11" style="stroke:#181818;stroke-width:1;"/><path d="M814.4929,1022.0376 Q813.9118,1022.3364 813.2726,1022.4858 Q812.6335,1022.6353 811.9279,1022.6353 Q809.4211,1022.6353 808.1013,1020.9834 Q806.7814,1019.3315 806.7814,1016.2104 Q806.7814,1013.0811 808.1013,1011.4292 Q809.4211,1009.7773 811.9279,1009.7773 Q812.6335,1009.7773 813.2809,1009.9268 Q813.9284,1010.0762 814.4929,1010.375 L814.4929,1013.0977 Q813.862,1012.5166 813.2685,1012.2468 Q812.675,1011.9771 812.0441,1011.9771 Q810.6994,1011.9771 810.0146,1013.0437 Q809.3298,1014.1104 809.3298,1016.2104 Q809.3298,1018.3022 810.0146,1019.3689 Q810.6994,1020.4355 812.0441,1020.4355 Q812.675,1020.4355 813.2685,1020.1658 Q813.862,1019.896 814.4929,1019.3149 Z " fill="#000000"/><text fill="#000000" font-family="sans-serif" font-size="14" lengthAdjust="spacing" textLength="34.2344" x="826.0197" y="1021.1855">Rook</text><line style="stroke:#181818;stroke-width:0.5;" x1="798.0197" x2="862.2541" y1="1031.8945" y2="1031.8945"/><line style="stroke:#181818;stroke-width:0.5;" x1="798.0197" x2="862.2541" y1="1039.8945" y2="1039.8945"/></g><!--class Knight--><g id="elem_Knight"><rect codeLine="113" fill="#FDF5E6" height="48" id="Knight" style="stroke:#181818;stroke-width:0.5;" width="76.5293" x="700.4904" y="999.8945"/><ellipse cx="715.4904" cy="1015.8945" fill="#ADD1B2" rx="11" ry="11" style="stroke:#181818;stroke-width:1;"/><path d="M717.9636,1022.0376 Q717.3825,1022.3364 716.7433,1022.4858 Q716.1042,1022.6353 715.3986,1022.6353 Q712.8918,1022.6353 711.572,1020.9834 Q710.2521,1019.3315 710.2521,1016.2104 Q710.2521,1013.0811 711.572,1011.4292 Q712.8918,1009.7773 715.3986,1009.7773 Q716.1042,1009.7773 716.7516,1009.9268 Q717.3991,1010.0762 717.9636,1010.375 L717.9636,1013.0977 Q717.3327,1012.5166 716.7392,1012.2468 Q716.1457,1011.9771 715.5148,1011.9771 Q714.1701,1011.9771 713.4853,1013.0437 Q712.8005,1014.1104 712.8005,1016.2104 Q712.8005,1018.3022 713.4853,1019.3689 Q714.1701,1020.4355 715.5148,1020.4355 Q716.1457,1020.4355 716.7392,1020.1658 Q717.3327,1019.896 717.9636,1019.3149 Z " fill="#000000"/><text fill="#000000" font-family="sans-serif" font-size="14" lengthAdjust="spacing" textLength="44.5293" x="729.4904" y="1021.1855">Knight</text><line style="stroke:#181818;stroke-width:0.5;" x1="701.4904" x2="776.0197" y1="1031.8945" y2="1031.8945"/><line style="stroke:#181818;stroke-width:0.5;" x1="701.4904" x2="776.0197" y1="1039.8945" y2="1039.8945"/></g><!--class Bishop--><g id="elem_Bishop"><rect codeLine="114" fill="#FDF5E6" height="48" id="Bishop" style="stroke:#181818;stroke-width:0.5;" width="77.3359" x="883.2541" y="999.8945"/><ellipse cx="898.2541" cy="1015.8945" fill="#ADD1B2" rx="11" ry="11" style="stroke:#181818;stroke-width:1;"/><path d="M900.7272,1022.0376 Q900.1462,1022.3364 899.507,1022.4858 Q898.8679,1022.6353 898.1623,1022.6353 Q895.6555,1022.6353 894.3356,1020.9834 Q893.0158,1019.3315 893.0158,1016.2104 Q893.0158,1013.0811 894.3356,1011.4292 Q895.6555,1009.7773 898.1623,1009.7773 Q898.8679,1009.7773 899.5153,1009.9268 Q900.1628,1010.0762 900.7272,1010.375 L900.7272,1013.0977 Q900.0964,1012.5166 899.5029,1012.2468 Q898.9094,1011.9771 898.2785,1011.9771 Q896.9338,1011.9771 896.249,1013.0437 Q895.5641,1014.1104 895.5641,1016.2104 Q895.5641,1018.3022 896.249,1019.3689 Q896.9338,1020.4355 898.2785,1020.4355 Q898.9094,1020.4355 899.5029,1020.1658 Q900.0964,1019.896 900.7272,1019.3149 Z " fill="#000000"/><text fill="#000000" font-family="sans-serif" font-size="14" lengthAdjust="spacing" textLength="45.3359" x="912.2541" y="1021.1855">Bishop</text><line style="stroke:#181818;stroke-width:0.5;" x1="884.2541" x2="959.59" y1="1031.8945" y2="1031.8945"/><line style="stroke:#181818;stroke-width:0.5;" x1="884.2541" x2="959.59" y1="1039.8945" y2="1039.8945"/></g><!--class Queen--><g id="elem_Queen"><rect codeLine="115" fill="#FDF5E6" height="48" id="Queen" style="stroke:#181818;stroke-width:0.5;" width="75.8525" x="980.59" y="999.8945"/><ellipse cx="995.59" cy="1015.8945" fill="#ADD1B2" rx="11" ry="11" style="stroke:#181818;stroke-width:1;"/><path d="M998.0632,1022.0376 Q997.4821,1022.3364 996.843,1022.4858 Q996.2038,1022.6353 995.4982,1022.6353 Q992.9914,1022.6353 991.6716,1020.9834 Q990.3517,1019.3315 990.3517,1016.2104 Q990.3517,1013.0811 991.6716,1011.4292 Q992.9914,1009.7773 995.4982,1009.7773 Q996.2038,1009.7773 996.8513,1009.9268 Q997.4987,1010.0762 998.0632,1010.375 L998.0632,1013.0977 Q997.4323,1012.5166 996.8388,1012.2468 Q996.2453,1011.9771 995.6144,1011.9771 Q994.2697,1011.9771 993.5849,1013.0437 Q992.9001,1014.1104 992.9001,1016.2104 Q992.9001,1018.3022 993.5849,1019.3689 Q994.2697,1020.4355 995.6144,1020.4355 Q996.2453,1020.4355 996.8388,1020.1658 Q997.4323,1019.896 998.0632,1019.3149 Z " fill="#000000"/><text fill="#000000" font-family="sans-serif" font-size="14" lengthAdjust="spacing" textLength="43.8525" x="1009.59" y="1021.1855">Queen</text><line style="stroke:#181818;stroke-width:0.5;" x1="981.59" x2="1055.4426" y1="1031.8945" y2="1031.8945"/><line style="stroke:#181818;stroke-width:0.5;" x1="981.59" x2="1055.4426" y1="1039.8945" y2="1039.8945"/></g><!--class King--><g id="elem_King"><rect codeLine="116" fill="#FDF5E6" height="48" id="King" style="stroke:#181818;stroke-width:0.5;" width="62.6045" x="700.9595" y="756.3438"/><ellipse cx="715.9595" cy="772.3438" fill="#ADD1B2" rx="11" ry="11" style="stroke:#181818;stroke-width:1;"/><path d="M718.4326,778.4868 Q717.8516,778.7856 717.2124,778.9351 Q716.5732,779.0845 715.8677,779.0845 Q713.3608,779.0845 712.041,777.4326 Q710.7212,775.7808 710.7212,772.6597 Q710.7212,769.5303 712.041,767.8784 Q713.3608,766.2266 715.8677,766.2266 Q716.5732,766.2266 717.2207,766.376 Q717.8682,766.5254 718.4326,766.8242 L718.4326,769.5469 Q717.8018,768.9658 717.2083,768.696 Q716.6147,768.4263 715.9839,768.4263 Q714.6392,768.4263 713.9543,769.4929 Q713.2695,770.5596 713.2695,772.6597 Q713.2695,774.7515 713.9543,775.8181 Q714.6392,776.8848 715.9839,776.8848 Q716.6147,776.8848 717.2083,776.615 Q717.8018,776.3452 718.4326,775.7642 Z " fill="#000000"/><text fill="#000000" font-family="sans-serif" font-size="14" lengthAdjust="spacing" textLength="30.6045" x="729.9595" y="777.6348">King</text><line style="stroke:#181818;stroke-width:0.5;" x1="701.9595" x2="762.564" y1="788.3438" y2="788.3438"/><line style="stroke:#181818;stroke-width:0.5;" x1="701.9595" x2="762.564" y1="796.3438" y2="796.3438"/></g><!--class MoveGenerator--><g id="elem_MoveGenerator"><rect codeLine="119" fill="#FDF5E6" height="64.4883" id="MoveGenerator" style="stroke:#181818;stroke-width:0.5;" width="394.2178" x="1473.1821" y="805.1919"/><ellipse cx="1614.4741" cy="821.1919" fill="#B4A7E5" rx="11" ry="11" style="stroke:#181818;stroke-width:1;"/><path d="M1610.9019,817.457 L1610.9019,815.2988 L1618.2813,815.2988 L1618.2813,817.457 L1615.8159,817.457 L1615.8159,825.5337 L1618.2813,825.5337 L1618.2813,827.6919 L1610.9019,827.6919 L1610.9019,825.5337 L1613.3672,825.5337 L1613.3672,817.457 Z " fill="#000000"/><text fill="#000000" font-family="sans-serif" font-size="14" font-style="italic" lengthAdjust="spacing" textLength="103.1338" x="1634.9741" y="826.4829">MoveGenerator</text><line style="stroke:#181818;stroke-width:0.5;" x1="1474.1821" x2="1866.3999" y1="837.1919" y2="837.1919"/><line style="stroke:#181818;stroke-width:0.5;" x1="1474.1821" x2="1866.3999" y1="845.1919" y2="845.1919"/><text fill="#000000" font-family="sans-serif" font-size="14" lengthAdjust="spacing" textLength="382.2178" x="1479.1821" y="862.7271">+Moves generate(ChessBoardView board, Position from)</text></g><!--class DirectionalGenerator--><g id="elem_DirectionalGenerator"><rect codeLine="122" fill="#FDF5E6" height="48" id="DirectionalGenerator" style="stroke:#181818;stroke-width:0.5;" width="173.0117" x="1334.9428" y="1189.6465"/><ellipse cx="1349.9428" cy="1205.6465" fill="#ADD1B2" rx="11" ry="11" style="stroke:#181818;stroke-width:1;"/><path d="M1352.4159,1211.7896 Q1351.8349,1212.0884 1351.1957,1212.2378 Q1350.5566,1212.3872 1349.851,1212.3872 Q1347.3442,1212.3872 1346.0243,1210.7354 Q1344.7045,1209.0835 1344.7045,1205.9624 Q1344.7045,1202.833 1346.0243,1201.1812 Q1347.3442,1199.5293 1349.851,1199.5293 Q1350.5566,1199.5293 1351.204,1199.6787 Q1351.8515,1199.8281 1352.4159,1200.127 L1352.4159,1202.8496 Q1351.7851,1202.2686 1351.1916,1201.9988 Q1350.5981,1201.729 1349.9672,1201.729 Q1348.6225,1201.729 1347.9377,1202.7957 Q1347.2528,1203.8623 1347.2528,1205.9624 Q1347.2528,1208.0542 1347.9377,1209.1208 Q1348.6225,1210.1875 1349.9672,1210.1875 Q1350.5981,1210.1875 1351.1916,1209.9177 Q1351.7851,1209.6479 1352.4159,1209.0669 Z " fill="#000000"/><text fill="#000000" font-family="sans-serif" font-size="14" lengthAdjust="spacing" textLength="141.0117" x="1363.9428" y="1210.9375">DirectionalGenerator</text><line style="stroke:#181818;stroke-width:0.5;" x1="1335.9428" x2="1506.9545" y1="1221.6465" y2="1221.6465"/><line style="stroke:#181818;stroke-width:0.5;" x1="1335.9428" x2="1506.9545" y1="1229.6465" y2="1229.6465"/></g><!--class CastlingDirectionalGenerator--><g id="elem_CastlingDirectionalGenerator"><rect codeLine="123" fill="#FDF5E6" height="48" id="CastlingDirectionalGenerator" style="stroke:#181818;stroke-width:0.5;" width="228.3145" x="1336.1267" y="1331.5781"/><ellipse cx="1351.1267" cy="1347.5781" fill="#ADD1B2" rx="11" ry="11" style="stroke:#181818;stroke-width:1;"/><path d="M1353.5999,1353.7212 Q1353.0188,1354.02 1352.3796,1354.1694 Q1351.7405,1354.3188 1351.0349,1354.3188 Q1348.5281,1354.3188 1347.2083,1352.667 Q1345.8884,1351.0151 1345.8884,1347.894 Q1345.8884,1344.7646 1347.2083,1343.1128 Q1348.5281,1341.4609 1351.0349,1341.4609 Q1351.7405,1341.4609 1352.3879,1341.6104 Q1353.0354,1341.7598 1353.5999,1342.0586 L1353.5999,1344.7813 Q1352.969,1344.2002 1352.3755,1343.9304 Q1351.782,1343.6606 1351.1511,1343.6606 Q1349.8064,1343.6606 1349.1216,1344.7273 Q1348.4368,1345.7939 1348.4368,1347.894 Q1348.4368,1349.9858 1349.1216,1351.0525 Q1349.8064,1352.1191 1351.1511,1352.1191 Q1351.782,1352.1191 1352.3755,1351.8494 Q1352.969,1351.5796 1353.5999,1350.9985 Z " fill="#000000"/><text fill="#000000" font-family="sans-serif" font-size="14" lengthAdjust="spacing" textLength="196.3145" x="1365.1267" y="1352.8691">CastlingDirectionalGenerator</text><line style="stroke:#181818;stroke-width:0.5;" x1="1337.1267" x2="1563.4412" y1="1363.5781" y2="1363.5781"/><line style="stroke:#181818;stroke-width:0.5;" x1="1337.1267" x2="1563.4412" y1="1371.5781" y2="1371.5781"/></g><!--class KnightGenerator--><g id="elem_KnightGenerator"><rect codeLine="124" fill="#FDF5E6" height="48" id="KnightGenerator" style="stroke:#181818;stroke-width:0.5;" width="143.959" x="1696.866" y="999.8945"/><ellipse cx="1711.866" cy="1015.8945" fill="#ADD1B2" rx="11" ry="11" style="stroke:#181818;stroke-width:1;"/><path d="M1714.3391,1022.0376 Q1713.7581,1022.3364 1713.1189,1022.4858 Q1712.4797,1022.6353 1711.7742,1022.6353 Q1709.2673,1022.6353 1707.9475,1020.9834 Q1706.6277,1019.3315 1706.6277,1016.2104 Q1706.6277,1013.0811 1707.9475,1011.4292 Q1709.2673,1009.7773 1711.7742,1009.7773 Q1712.4797,1009.7773 1713.1272,1009.9268 Q1713.7747,1010.0762 1714.3391,1010.375 L1714.3391,1013.0977 Q1713.7083,1012.5166 1713.1147,1012.2468 Q1712.5212,1011.9771 1711.8904,1011.9771 Q1710.5457,1011.9771 1709.8608,1013.0437 Q1709.176,1014.1104 1709.176,1016.2104 Q1709.176,1018.3022 1709.8608,1019.3689 Q1710.5457,1020.4355 1711.8904,1020.4355 Q1712.5212,1020.4355 1713.1147,1020.1658 Q1713.7083,1019.896 1714.3391,1019.3149 Z " fill="#000000"/><text fill="#000000" font-family="sans-serif" font-size="14" lengthAdjust="spacing" textLength="111.959" x="1725.866" y="1021.1855">KnightGenerator</text><line style="stroke:#181818;stroke-width:0.5;" x1="1697.866" x2="1839.825" y1="1031.8945" y2="1031.8945"/><line style="stroke:#181818;stroke-width:0.5;" x1="1697.866" x2="1839.825" y1="1039.8945" y2="1039.8945"/></g><!--class DistanceGenerator--><g id="elem_DistanceGenerator"><rect codeLine="125" fill="#FDF5E6" height="48" id="DistanceGenerator" style="stroke:#181818;stroke-width:0.5;" width="157.7266" x="1519.1394" y="1031.7747"/><ellipse cx="1534.1394" cy="1047.7747" fill="#ADD1B2" rx="11" ry="11" style="stroke:#181818;stroke-width:1;"/><path d="M1536.6125,1053.9178 Q1536.0315,1054.2166 1535.3923,1054.366 Q1534.7532,1054.5155 1534.0476,1054.5155 Q1531.5408,1054.5155 1530.2209,1052.8636 Q1528.9011,1051.2118 1528.9011,1048.0907 Q1528.9011,1044.9613 1530.2209,1043.3094 Q1531.5408,1041.6576 1534.0476,1041.6576 Q1534.7532,1041.6576 1535.4006,1041.807 Q1536.0481,1041.9564 1536.6125,1042.2552 L1536.6125,1044.9779 Q1535.9817,1044.3968 1535.3882,1044.127 Q1534.7947,1043.8573 1534.1638,1043.8573 Q1532.8191,1043.8573 1532.1343,1044.9239 Q1531.4495,1045.9906 1531.4495,1048.0907 Q1531.4495,1050.1825 1532.1343,1051.2491 Q1532.8191,1052.3158 1534.1638,1052.3158 Q1534.7947,1052.3158 1535.3882,1052.046 Q1535.9817,1051.7762 1536.6125,1051.1951 Z " fill="#000000"/><text fill="#000000" font-family="sans-serif" font-size="14" lengthAdjust="spacing" textLength="125.7266" x="1548.1394" y="1053.0658">DistanceGenerator</text><line style="stroke:#181818;stroke-width:0.5;" x1="1520.1394" x2="1675.866" y1="1063.7747" y2="1063.7747"/><line style="stroke:#181818;stroke-width:0.5;" x1="1520.1394" x2="1675.866" y1="1071.7747" y2="1071.7747"/></g><!--class PawnDistanceGenerator--><g id="elem_PawnDistanceGenerator"><rect codeLine="126" fill="#FDF5E6" height="48" id="PawnDistanceGenerator" style="stroke:#181818;stroke-width:0.5;" width="192.6719" x="1527.9545" y="1189.6465"/><ellipse cx="1542.9545" cy="1205.6465" fill="#ADD1B2" rx="11" ry="11" style="stroke:#181818;stroke-width:1;"/><path d="M1545.4277,1211.7896 Q1544.8466,1212.0884 1544.2074,1212.2378 Q1543.5683,1212.3872 1542.8627,1212.3872 Q1540.3559,1212.3872 1539.0361,1210.7354 Q1537.7162,1209.0835 1537.7162,1205.9624 Q1537.7162,1202.833 1539.0361,1201.1812 Q1540.3559,1199.5293 1542.8627,1199.5293 Q1543.5683,1199.5293 1544.2157,1199.6787 Q1544.8632,1199.8281 1545.4277,1200.127 L1545.4277,1202.8496 Q1544.7968,1202.2686 1544.2033,1201.9988 Q1543.6098,1201.729 1542.9789,1201.729 Q1541.6342,1201.729 1540.9494,1202.7957 Q1540.2646,1203.8623 1540.2646,1205.9624 Q1540.2646,1208.0542 1540.9494,1209.1208 Q1541.6342,1210.1875 1542.9789,1210.1875 Q1543.6098,1210.1875 1544.2033,1209.9177 Q1544.7968,1209.6479 1545.4277,1209.0669 Z " fill="#000000"/><text fill="#000000" font-family="sans-serif" font-size="14" lengthAdjust="spacing" textLength="160.6719" x="1556.9545" y="1210.9375">PawnDistanceGenerator</text><line style="stroke:#181818;stroke-width:0.5;" x1="1528.9545" x2="1719.6264" y1="1221.6465" y2="1221.6465"/><line style="stroke:#181818;stroke-width:0.5;" x1="1528.9545" x2="1719.6264" y1="1229.6465" y2="1229.6465"/></g><!--class Direction--><g id="elem_Direction"><rect codeLine="128" fill="#FDF5E6" height="179.9063" id="Direction" style="stroke:#181818;stroke-width:0.5;" width="146.1963" x="1169.9304" y="1331.5781"/><ellipse cx="1208.5071" cy="1347.5781" fill="#EB937F" rx="11" ry="11" style="stroke:#181818;stroke-width:1;"/><path d="M1212.1213,1354.0781 L1204.4016,1354.0781 L1204.4016,1341.6851 L1212.1213,1341.6851 L1212.1213,1343.8433 L1206.8503,1343.8433 L1206.8503,1346.5161 L1211.6233,1346.5161 L1211.6233,1348.6743 L1206.8503,1348.6743 L1206.8503,1351.9199 L1212.1213,1351.9199 Z " fill="#000000"/><text fill="#000000" font-family="sans-serif" font-size="14" lengthAdjust="spacing" textLength="61.8037" x="1227.7463" y="1352.8691">Direction</text><line style="stroke:#181818;stroke-width:0.5;" x1="1170.9304" x2="1315.1267" y1="1363.5781" y2="1363.5781"/><text fill="#000000" font-family="sans-serif" font-size="14" lengthAdjust="spacing" textLength="75.749" x="1175.9304" y="1381.1133">FORWARDS</text><text fill="#000000" font-family="sans-serif" font-size="14" lengthAdjust="spacing" textLength="85.0527" x="1175.9304" y="1397.6016">BACKWARDS</text><text fill="#000000" font-family="sans-serif" font-size="14" lengthAdjust="spacing" textLength="31.4111" x="1175.9304" y="1414.0898">LEFT</text><text fill="#000000" font-family="sans-serif" font-size="14" lengthAdjust="spacing" textLength="42.1436" x="1175.9304" y="1430.5781">RIGHT</text><text fill="#000000" font-family="sans-serif" font-size="14" lengthAdjust="spacing" textLength="114.1602" x="1175.9304" y="1447.0664">FORWARDS_LEFT</text><text fill="#000000" font-family="sans-serif" font-size="14" lengthAdjust="spacing" textLength="124.8926" x="1175.9304" y="1463.5547">FORWARDS_RIGHT</text><text fill="#000000" font-family="sans-serif" font-size="14" lengthAdjust="spacing" textLength="123.4639" x="1175.9304" y="1480.043">BACKWARDS_LEFT</text><text fill="#000000" font-family="sans-serif" font-size="14" lengthAdjust="spacing" textLength="134.1963" x="1175.9304" y="1496.5313">BACKWARDS_RIGHT</text><line style="stroke:#181818;stroke-width:0.5;" x1="1170.9304" x2="1315.1267" y1="1503.4844" y2="1503.4844"/></g><!--class Moves--><g id="elem_Moves"><rect codeLine="140" fill="#FDF5E6" height="48" id="Moves" style="stroke:#181818;stroke-width:0.5;" width="74.8408" x="733.6285" y="215.418"/><ellipse cx="748.6285" cy="231.418" fill="#ADD1B2" rx="11" ry="11" style="stroke:#181818;stroke-width:1;"/><path d="M751.1017,237.561 Q750.5206,237.8599 749.8814,238.0093 Q749.2423,238.1587 748.5367,238.1587 Q746.0299,238.1587 744.7101,236.5068 Q743.3902,234.855 743.3902,231.7339 Q743.3902,228.6045 744.7101,226.9526 Q746.0299,225.3008 748.5367,225.3008 Q749.2423,225.3008 749.8897,225.4502 Q750.5372,225.5996 751.1017,225.8984 L751.1017,228.6211 Q750.4708,228.04 749.8773,227.7703 Q749.2838,227.5005 748.6529,227.5005 Q747.3082,227.5005 746.6234,228.5671 Q745.9386,229.6338 745.9386,231.7339 Q745.9386,233.8257 746.6234,234.8923 Q747.3082,235.959 748.6529,235.959 Q749.2838,235.959 749.8773,235.6892 Q750.4708,235.4194 751.1017,234.8384 Z " fill="#000000"/><text fill="#000000" font-family="sans-serif" font-size="14" lengthAdjust="spacing" textLength="42.8408" x="762.6285" y="236.709">Moves</text><line style="stroke:#181818;stroke-width:0.5;" x1="734.6285" x2="807.4693" y1="247.418" y2="247.418"/><line style="stroke:#181818;stroke-width:0.5;" x1="734.6285" x2="807.4693" y1="255.418" y2="255.418"/></g><!--class ChessMove--><g id="elem_ChessMove"><rect codeLine="142" fill="#FDF5E6" height="64.4883" id="ChessMove" style="stroke:#181818;stroke-width:0.5;" width="241.9336" x="650.0821" y="357.3496"/><ellipse cx="728.7227" cy="373.3496" fill="#A9DCDF" rx="11" ry="11" style="stroke:#181818;stroke-width:1;"/><path d="M728.586,368.6978 L727.4322,373.7695 L729.7481,373.7695 Z M727.0919,366.4565 L730.0885,366.4565 L733.4337,378.8496 L730.985,378.8496 L730.2213,375.7866 L726.9425,375.7866 L726.1954,378.8496 L723.7467,378.8496 Z " fill="#000000"/><text fill="#000000" font-family="sans-serif" font-size="14" font-style="italic" lengthAdjust="spacing" textLength="76.1523" x="749.2227" y="378.6406">ChessMove</text><line style="stroke:#181818;stroke-width:0.5;" x1="651.0821" x2="891.0157" y1="389.3496" y2="389.3496"/><line style="stroke:#181818;stroke-width:0.5;" x1="651.0821" x2="891.0157" y1="397.3496" y2="397.3496"/><text fill="#000000" font-family="sans-serif" font-size="14" lengthAdjust="spacing" textLength="229.9336" x="656.0821" y="414.8848">+void execute(ChessBoard board)</text></g><!--class StandardMove--><g id="elem_StandardMove"><rect codeLine="146" fill="#FDF5E6" height="48" id="StandardMove" style="stroke:#181818;stroke-width:0.5;" width="127.9834" x="205.1006" y="580.0908"/><ellipse cx="220.1006" cy="596.0908" fill="#ADD1B2" rx="11" ry="11" style="stroke:#181818;stroke-width:1;"/><path d="M222.5737,602.2339 Q221.9927,602.5327 221.3535,602.6821 Q220.7144,602.8315 220.0088,602.8315 Q217.502,602.8315 216.1821,601.1797 Q214.8623,599.5278 214.8623,596.4067 Q214.8623,593.2773 216.1821,591.6255 Q217.502,589.9736 220.0088,589.9736 Q220.7144,589.9736 221.3618,590.123 Q222.0093,590.2725 222.5737,590.5713 L222.5737,593.2939 Q221.9429,592.7129 221.3494,592.4431 Q220.7559,592.1733 220.125,592.1733 Q218.7803,592.1733 218.0955,593.24 Q217.4106,594.3066 217.4106,596.4067 Q217.4106,598.4985 218.0955,599.5652 Q218.7803,600.6318 220.125,600.6318 Q220.7559,600.6318 221.3494,600.3621 Q221.9429,600.0923 222.5737,599.5112 Z " fill="#000000"/><text fill="#000000" font-family="sans-serif" font-size="14" lengthAdjust="spacing" textLength="95.9834" x="234.1006" y="601.3818">StandardMove</text><line style="stroke:#181818;stroke-width:0.5;" x1="206.1006" x2="332.084" y1="612.0908" y2="612.0908"/><line style="stroke:#181818;stroke-width:0.5;" x1="206.1006" x2="332.084" y1="620.0908" y2="620.0908"/></g><!--class Capture--><g id="elem_Capture"><rect codeLine="147" fill="#FDF5E6" height="48" id="Capture" style="stroke:#181818;stroke-width:0.5;" width="85.6826" x="62.1279" y="580.0908"/><ellipse cx="77.1279" cy="596.0908" fill="#ADD1B2" rx="11" ry="11" style="stroke:#181818;stroke-width:1;"/><path d="M79.6011,602.2339 Q79.02,602.5327 78.3809,602.6821 Q77.7417,602.8315 77.0361,602.8315 Q74.5293,602.8315 73.2095,601.1797 Q71.8896,599.5278 71.8896,596.4067 Q71.8896,593.2773 73.2095,591.6255 Q74.5293,589.9736 77.0361,589.9736 Q77.7417,589.9736 78.3892,590.123 Q79.0366,590.2725 79.6011,590.5713 L79.6011,593.2939 Q78.9702,592.7129 78.3767,592.4431 Q77.7832,592.1733 77.1523,592.1733 Q75.8076,592.1733 75.1228,593.24 Q74.438,594.3066 74.438,596.4067 Q74.438,598.4985 75.1228,599.5652 Q75.8076,600.6318 77.1523,600.6318 Q77.7832,600.6318 78.3767,600.3621 Q78.9702,600.0923 79.6011,599.5112 Z " fill="#000000"/><text fill="#000000" font-family="sans-serif" font-size="14" lengthAdjust="spacing" textLength="53.6826" x="91.1279" y="601.3818">Capture</text><line style="stroke:#181818;stroke-width:0.5;" x1="63.1279" x2="146.8105" y1="612.0908" y2="612.0908"/><line style="stroke:#181818;stroke-width:0.5;" x1="63.1279" x2="146.8105" y1="620.0908" y2="620.0908"/></g><!--class Check--><g id="elem_Check"><rect codeLine="148" fill="#FDF5E6" height="48" id="Check" style="stroke:#181818;stroke-width:0.5;" width="73.5283" x="460.3867" y="555.7695"/><ellipse cx="475.3867" cy="571.7695" fill="#ADD1B2" rx="11" ry="11" style="stroke:#181818;stroke-width:1;"/><path d="M477.8599,577.9126 Q477.2788,578.2114 476.6396,578.3608 Q476.0005,578.5103 475.2949,578.5103 Q472.7881,578.5103 471.4683,576.8584 Q470.1484,575.2065 470.1484,572.0854 Q470.1484,568.9561 471.4683,567.3042 Q472.7881,565.6523 475.2949,565.6523 Q476.0005,565.6523 476.6479,565.8018 Q477.2954,565.9512 477.8599,566.25 L477.8599,568.9727 Q477.229,568.3916 476.6355,568.1218 Q476.042,567.8521 475.4111,567.8521 Q474.0664,567.8521 473.3816,568.9187 Q472.6968,569.9854 472.6968,572.0854 Q472.6968,574.1772 473.3816,575.2439 Q474.0664,576.3105 475.4111,576.3105 Q476.042,576.3105 476.6355,576.0408 Q477.229,575.771 477.8599,575.1899 Z " fill="#000000"/><text fill="#000000" font-family="sans-serif" font-size="14" lengthAdjust="spacing" textLength="41.5283" x="489.3867" y="577.0605">Check</text><line style="stroke:#181818;stroke-width:0.5;" x1="461.3867" x2="532.915" y1="587.7695" y2="587.7695"/><line style="stroke:#181818;stroke-width:0.5;" x1="461.3867" x2="532.915" y1="595.7695" y2="595.7695"/></g><!--class EnPassant--><g id="elem_EnPassant"><rect codeLine="149" fill="#FDF5E6" height="48" id="EnPassant" style="stroke:#181818;stroke-width:0.5;" width="99.6758" x="553.915" y="555.7695"/><ellipse cx="568.915" cy="571.7695" fill="#ADD1B2" rx="11" ry="11" style="stroke:#181818;stroke-width:1;"/><path d="M571.3882,577.9126 Q570.8071,578.2114 570.168,578.3608 Q569.5288,578.5103 568.8232,578.5103 Q566.3164,578.5103 564.9966,576.8584 Q563.6768,575.2065 563.6768,572.0854 Q563.6768,568.9561 564.9966,567.3042 Q566.3164,565.6523 568.8232,565.6523 Q569.5288,565.6523 570.1763,565.8018 Q570.8237,565.9512 571.3882,566.25 L571.3882,568.9727 Q570.7573,568.3916 570.1638,568.1218 Q569.5703,567.8521 568.9395,567.8521 Q567.5947,567.8521 566.9099,568.9187 Q566.2251,569.9854 566.2251,572.0854 Q566.2251,574.1772 566.9099,575.2439 Q567.5947,576.3105 568.9395,576.3105 Q569.5703,576.3105 570.1638,576.0408 Q570.7573,575.771 571.3882,575.1899 Z " fill="#000000"/><text fill="#000000" font-family="sans-serif" font-size="14" lengthAdjust="spacing" textLength="67.6758" x="582.915" y="577.0605">EnPassant</text><line style="stroke:#181818;stroke-width:0.5;" x1="554.915" x2="652.5908" y1="587.7695" y2="587.7695"/><line style="stroke:#181818;stroke-width:0.5;" x1="554.915" x2="652.5908" y1="595.7695" y2="595.7695"/></g><!--class Castling--><g id="elem_Castling"><rect codeLine="150" fill="#FDF5E6" height="48" id="Castling" style="stroke:#181818;stroke-width:0.5;" width="87.3027" x="353.084" y="555.7695"/><ellipse cx="368.084" cy="571.7695" fill="#ADD1B2" rx="11" ry="11" style="stroke:#181818;stroke-width:1;"/><path d="M370.5571,577.9126 Q369.9761,578.2114 369.3369,578.3608 Q368.6978,578.5103 367.9922,578.5103 Q365.4854,578.5103 364.1655,576.8584 Q362.8457,575.2065 362.8457,572.0854 Q362.8457,568.9561 364.1655,567.3042 Q365.4854,565.6523 367.9922,565.6523 Q368.6978,565.6523 369.3452,565.8018 Q369.9927,565.9512 370.5571,566.25 L370.5571,568.9727 Q369.9263,568.3916 369.3328,568.1218 Q368.7393,567.8521 368.1084,567.8521 Q366.7637,567.8521 366.0789,568.9187 Q365.394,569.9854 365.394,572.0854 Q365.394,574.1772 366.0789,575.2439 Q366.7637,576.3105 368.1084,576.3105 Q368.7393,576.3105 369.3328,576.0408 Q369.9263,575.771 370.5571,575.1899 Z " fill="#000000"/><text fill="#000000" font-family="sans-serif" font-size="14" lengthAdjust="spacing" textLength="55.3027" x="382.084" y="577.0605">Castling</text><line style="stroke:#181818;stroke-width:0.5;" x1="354.084" x2="439.3867" y1="587.7695" y2="587.7695"/><line style="stroke:#181818;stroke-width:0.5;" x1="354.084" x2="439.3867" y1="595.7695" y2="595.7695"/></g><!--class Promotion--><g id="elem_Promotion"><rect codeLine="151" fill="#FDF5E6" height="48" id="Promotion" style="stroke:#181818;stroke-width:0.5;" width="102.3076" x="217.9385" y="756.3438"/><ellipse cx="232.9385" cy="772.3438" fill="#ADD1B2" rx="11" ry="11" style="stroke:#181818;stroke-width:1;"/><path d="M235.4116,778.4868 Q234.8306,778.7856 234.1914,778.9351 Q233.5522,779.0845 232.8467,779.0845 Q230.3398,779.0845 229.02,777.4326 Q227.7002,775.7808 227.7002,772.6597 Q227.7002,769.5303 229.02,767.8784 Q230.3398,766.2266 232.8467,766.2266 Q233.5522,766.2266 234.1997,766.376 Q234.8472,766.5254 235.4116,766.8242 L235.4116,769.5469 Q234.7808,768.9658 234.1873,768.696 Q233.5938,768.4263 232.9629,768.4263 Q231.6182,768.4263 230.9333,769.4929 Q230.2485,770.5596 230.2485,772.6597 Q230.2485,774.7515 230.9333,775.8181 Q231.6182,776.8848 232.9629,776.8848 Q233.5938,776.8848 234.1873,776.615 Q234.7808,776.3452 235.4116,775.7642 Z " fill="#000000"/><text fill="#000000" font-family="sans-serif" font-size="14" lengthAdjust="spacing" textLength="70.3076" x="246.9385" y="777.6348">Promotion</text><line style="stroke:#181818;stroke-width:0.5;" x1="218.9385" x2="319.2461" y1="788.3438" y2="788.3438"/><line style="stroke:#181818;stroke-width:0.5;" x1="218.9385" x2="319.2461" y1="796.3438" y2="796.3438"/></g><!--class PromotionWithCapture--><g id="elem_PromotionWithCapture"><rect codeLine="152" fill="#FDF5E6" height="48" id="PromotionWithCapture" style="stroke:#181818;stroke-width:0.5;" width="185.9385" x="12" y="756.3438"/><ellipse cx="27" cy="772.3438" fill="#ADD1B2" rx="11" ry="11" style="stroke:#181818;stroke-width:1;"/><path d="M29.4731,778.4868 Q28.8921,778.7856 28.2529,778.9351 Q27.6138,779.0845 26.9082,779.0845 Q24.4014,779.0845 23.0815,777.4326 Q21.7617,775.7808 21.7617,772.6597 Q21.7617,769.5303 23.0815,767.8784 Q24.4014,766.2266 26.9082,766.2266 Q27.6138,766.2266 28.2612,766.376 Q28.9087,766.5254 29.4731,766.8242 L29.4731,769.5469 Q28.8423,768.9658 28.2488,768.696 Q27.6553,768.4263 27.0244,768.4263 Q25.6797,768.4263 24.9949,769.4929 Q24.3101,770.5596 24.3101,772.6597 Q24.3101,774.7515 24.9949,775.8181 Q25.6797,776.8848 27.0244,776.8848 Q27.6553,776.8848 28.2488,776.615 Q28.8423,776.3452 29.4731,775.7642 Z " fill="#000000"/><text fill="#000000" font-family="sans-serif" font-size="14" lengthAdjust="spacing" textLength="153.9385" x="41" y="777.6348">PromotionWithCapture</text><line style="stroke:#181818;stroke-width:0.5;" x1="13" x2="196.9385" y1="788.3438" y2="788.3438"/><line style="stroke:#181818;stroke-width:0.5;" x1="13" x2="196.9385" y1="796.3438" y2="796.3438"/></g><line style="stroke:#181818;stroke-width:1;stroke-dasharray:7.0,7.0;" x1="2397.4602" x2="2397.4602" y1="421.8379" y2="555.7695"/><line style="stroke:#181818;stroke-width:1;stroke-dasharray:7.0,7.0;" x1="2397.4602" x2="2397.4602" y1="669.7227" y2="729.0332"/><line style="stroke:#181818;stroke-width:1;stroke-dasharray:7.0,7.0;" x1="2397.4602" x2="2493.0469" y1="729.0332" y2="729.0332"/><line style="stroke:#181818;stroke-width:1;stroke-dasharray:7.0,7.0;" x1="2493.0469" x2="2493.0469" y1="729.0332" y2="785.5293"/><polygon fill="#FFFFFF" points="2397.4602,669.7227,2390.4602,688.7227,2404.4602,688.7227,2397.4602,669.7227" style="stroke:#181818;stroke-width:1;"/><line style="stroke:#181818;stroke-width:1;" x1="2760.4871" x2="2760.4871" y1="866.5059" y2="982.584"/><polygon fill="#FFFFFF" points="2760.4871,866.5059,2753.4871,885.5059,2767.4871,885.5059,2760.4871,866.5059" style="stroke:#181818;stroke-width:1;"/><line style="stroke:#181818;stroke-width:1;" x1="2439.5588" x2="2439.5588" y1="866.5059" y2="913.2734"/><line style="stroke:#181818;stroke-width:1;" x1="2439.5588" x2="2085.1306" y1="913.2734" y2="913.2734"/><line style="stroke:#181818;stroke-width:1;" x1="2085.1306" x2="2085.1306" y1="913.2734" y2="982.584"/><polygon fill="#FFFFFF" points="2439.5588,866.5059,2432.5588,885.5059,2446.5588,885.5059,2439.5588,866.5059" style="stroke:#181818;stroke-width:1;"/><line style="stroke:#181818;stroke-width:1;stroke-dasharray:7.0,7.0;" x1="2510.1362" x2="2510.1362" y1="125.1309" y2="152.4414"/><line style="stroke:#181818;stroke-width:1;stroke-dasharray:7.0,7.0;" x1="2510.1362" x2="2123.1111" y1="152.4414" y2="152.4414"/><line style="stroke:#181818;stroke-width:1;stroke-dasharray:7.0,7.0;" x1="2123.1111" x2="2123.1111" y1="152.4414" y2="182.4414"/><polygon fill="#FFFFFF" points="2510.1362,125.1309,2503.1362,144.1309,2517.1362,144.1309,2510.1362,125.1309" style="stroke:#181818;stroke-width:1;"/><line style="stroke:#181818;stroke-width:1;stroke-dasharray:7.0,7.0;" x1="1794.1682" x2="1794.1682" y1="263.418" y2="330.0391"/><line style="stroke:#181818;stroke-width:1;stroke-dasharray:7.0,7.0;" x1="1794.1682" x2="2023.7454" y1="330.0391" y2="330.0391"/><line style="stroke:#181818;stroke-width:1;stroke-dasharray:7.0,7.0;" x1="2023.7454" x2="2023.7454" y1="330.0391" y2="367.2426"/><polygon fill="#FFFFFF" points="1794.1682,263.418,1787.1682,282.418,1801.1682,282.418,1794.1682,263.418" style="stroke:#181818;stroke-width:1;"/><line style="stroke:#181818;stroke-width:1;" x1="1082.1084" x2="1082.1084" y1="650.1741" y2="689.7227"/><line style="stroke:#181818;stroke-width:1;" x1="1082.1084" x2="993.9341" y1="689.7227" y2="689.7227"/><line style="stroke:#181818;stroke-width:1;" x1="993.9341" x2="993.9341" y1="689.7227" y2="810.7565"/><polygon fill="#FFFFFF" points="1082.1084,650.1741,1075.1084,669.1741,1089.1084,669.1741,1082.1084,650.1741" style="stroke:#181818;stroke-width:1;"/><line style="stroke:#181818;stroke-width:1;stroke-dasharray:7.0,7.0;" x1="746.2617" x2="746.2617" y1="652.4121" y2="729.0332"/><line style="stroke:#181818;stroke-width:1;stroke-dasharray:7.0,7.0;" x1="746.2617" x2="932.4787" y1="729.0332" y2="729.0332"/><line style="stroke:#181818;stroke-width:1;stroke-dasharray:7.0,7.0;" x1="932.4787" x2="932.4787" y1="729.0332" y2="810.7565"/><polygon fill="#FFFFFF" points="746.2617,652.4121,739.2617,671.4121,753.2617,671.4121,746.2617,652.4121" style="stroke:#181818;stroke-width:1;"/><line style="stroke:#181818;stroke-width:1;" x1="1147.0551" x2="1147.0551" y1="650.1741" y2="679.7227"/><line style="stroke:#181818;stroke-width:1;" x1="1147.0551" x2="1108.8622" y1="679.7227" y2="679.7227"/><line style="stroke:#181818;stroke-width:1;" x1="1108.8622" x2="1108.8622" y1="679.7227" y2="756.3438"/><polygon fill="#FFFFFF" points="1147.0551,650.1741,1140.0551,669.1741,1154.0551,669.1741,1147.0551,650.1741" style="stroke:#181818;stroke-width:1;"/><line style="stroke:#181818;stroke-width:1;" x1="944.7698" x2="944.7698" y1="858.7565" y2="923.2734"/><line style="stroke:#181818;stroke-width:1;" x1="944.7698" x2="830.1369" y1="923.2734" y2="923.2734"/><line style="stroke:#181818;stroke-width:1;" x1="830.1369" x2="830.1369" y1="923.2734" y2="999.8945"/><polygon fill="#FFFFFF" points="944.7698,858.7565,937.7698,877.7565,951.7698,877.7565,944.7698,858.7565" style="stroke:#181818;stroke-width:1;"/><line style="stroke:#181818;stroke-width:1;" x1="907.8966" x2="907.8966" y1="858.7565" y2="913.2734"/><line style="stroke:#181818;stroke-width:1;" x1="907.8966" x2="738.7551" y1="913.2734" y2="913.2734"/><line style="stroke:#181818;stroke-width:1;" x1="738.7551" x2="738.7551" y1="913.2734" y2="999.8945"/><polygon fill="#FFFFFF" points="907.8966,858.7565,900.8966,877.7565,914.8966,877.7565,907.8966,858.7565" style="stroke:#181818;stroke-width:1;"/><line style="stroke:#181818;stroke-width:1;" x1="981.643" x2="981.643" y1="858.7565" y2="933.2734"/><line style="stroke:#181818;stroke-width:1;" x1="981.643" x2="921.9221" y1="933.2734" y2="933.2734"/><line style="stroke:#181818;stroke-width:1;" x1="921.9221" x2="921.9221" y1="933.2734" y2="999.8945"/><polygon fill="#FFFFFF" points="981.643,858.7565,974.643,877.7565,988.643,877.7565,981.643,858.7565" style="stroke:#181818;stroke-width:1;"/><line style="stroke:#181818;stroke-width:1;" x1="1018.5163" x2="1018.5163" y1="858.7565" y2="999.8945"/><polygon fill="#FFFFFF" points="1018.5163,858.7565,1011.5163,877.7565,1025.5163,877.7565,1018.5163,858.7565" style="stroke:#181818;stroke-width:1;"/><line style="stroke:#181818;stroke-width:1;" x1="1017.1617" x2="1017.1617" y1="650.1741" y2="679.7227"/><line style="stroke:#181818;stroke-width:1;" x1="1017.1617" x2="732.2617" y1="679.7227" y2="679.7227"/><line style="stroke:#181818;stroke-width:1;" x1="732.2617" x2="732.2617" y1="679.7227" y2="756.3438"/><polygon fill="#FFFFFF" points="1017.1617,650.1741,1010.1617,669.1741,1024.1617,669.1741,1017.1617,650.1741" style="stroke:#181818;stroke-width:1;"/><line style="stroke:#181818;stroke-width:1;stroke-dasharray:7.0,7.0;" x1="1571.7366" x2="1571.7366" y1="869.6802" y2="913.2734"/><line style="stroke:#181818;stroke-width:1;stroke-dasharray:7.0,7.0;" x1="1571.7366" x2="1411.4099" y1="913.2734" y2="913.2734"/><line style="stroke:#181818;stroke-width:1;stroke-dasharray:7.0,7.0;" x1="1411.4099" x2="1411.4099" y1="913.2734" y2="1162.3359"/><line style="stroke:#181818;stroke-width:1;stroke-dasharray:7.0,7.0;" x1="1411.4099" x2="1392.6134" y1="1162.3359" y2="1162.3359"/><line style="stroke:#181818;stroke-width:1;stroke-dasharray:7.0,7.0;" x1="1392.6134" x2="1392.6134" y1="1162.3359" y2="1189.6465"/><polygon fill="#FFFFFF" points="1571.7366,869.6802,1564.7366,888.6802,1578.7366,888.6802,1571.7366,869.6802" style="stroke:#181818;stroke-width:1;"/><line style="stroke:#181818;stroke-width:1;" x1="1450.2839" x2="1450.2839" y1="1237.6465" y2="1331.5781"/><polygon fill="#FFFFFF" points="1450.2839,1237.6465,1443.2839,1256.6465,1457.2839,1256.6465,1450.2839,1237.6465" style="stroke:#181818;stroke-width:1;"/><line style="stroke:#181818;stroke-width:1;stroke-dasharray:7.0,7.0;" x1="1768.8455" x2="1768.8455" y1="869.6802" y2="999.8945"/><polygon fill="#FFFFFF" points="1768.8455,869.6802,1761.8455,888.6802,1775.8455,888.6802,1768.8455,869.6802" style="stroke:#181818;stroke-width:1;"/><line style="stroke:#181818;stroke-width:1;stroke-dasharray:7.0,7.0;" x1="1670.291" x2="1670.291" y1="869.6802" y2="913.2734"/><line style="stroke:#181818;stroke-width:1;stroke-dasharray:7.0,7.0;" x1="1670.291" x2="1598.0027" y1="913.2734" y2="913.2734"/><line style="stroke:#181818;stroke-width:1;stroke-dasharray:7.0,7.0;" x1="1598.0027" x2="1598.0027" y1="913.2734" y2="1031.7747"/><polygon fill="#FFFFFF" points="1670.291,869.6802,1663.291,888.6802,1677.291,888.6802,1670.291,869.6802" style="stroke:#181818;stroke-width:1;"/><line style="stroke:#181818;stroke-width:1;" x1="1624.2904" x2="1624.2904" y1="1079.7747" y2="1189.6465"/><polygon fill="#FFFFFF" points="1624.2904,1079.7747,1617.2904,1098.7747,1631.2904,1098.7747,1624.2904,1079.7747" style="stroke:#181818;stroke-width:1;"/><line style="stroke:#181818;stroke-width:1;" x1="719.206" x2="719.206" y1="421.8379" y2="459.1484"/><line style="stroke:#181818;stroke-width:1;" x1="719.206" x2="269.0923" y1="459.1484" y2="459.1484"/><line style="stroke:#181818;stroke-width:1;" x1="269.0923" x2="269.0923" y1="459.1484" y2="580.0908"/><polygon fill="#FFFFFF" points="719.206,421.8379,712.206,440.8379,726.206,440.8379,719.206,421.8379" style="stroke:#181818;stroke-width:1;"/><line style="stroke:#181818;stroke-width:1;" x1="684.6441" x2="684.6441" y1="421.8379" y2="449.1484"/><line style="stroke:#181818;stroke-width:1;" x1="684.6441" x2="104.9692" y1="449.1484" y2="449.1484"/><line style="stroke:#181818;stroke-width:1;" x1="104.9692" x2="104.9692" y1="449.1484" y2="580.0908"/><polygon fill="#FFFFFF" points="684.6441,421.8379,677.6441,440.8379,691.6441,440.8379,684.6441,421.8379" style="stroke:#181818;stroke-width:1;"/><line style="stroke:#181818;stroke-width:1;" x1="788.3299" x2="788.3299" y1="421.8379" y2="479.1484"/><line style="stroke:#181818;stroke-width:1;" x1="788.3299" x2="497.1509" y1="479.1484" y2="479.1484"/><line style="stroke:#181818;stroke-width:1;" x1="497.1509" x2="497.1509" y1="479.1484" y2="555.7695"/><polygon fill="#FFFFFF" points="788.3299,421.8379,781.3299,440.8379,795.3299,440.8379,788.3299,421.8379" style="stroke:#181818;stroke-width:1;"/><line style="stroke:#181818;stroke-width:1;" x1="822.8918" x2="822.8918" y1="421.8379" y2="489.1484"/><line style="stroke:#181818;stroke-width:1;" x1="822.8918" x2="603.7529" y1="489.1484" y2="489.1484"/><line style="stroke:#181818;stroke-width:1;" x1="603.7529" x2="603.7529" y1="489.1484" y2="555.7695"/><polygon fill="#FFFFFF" points="822.8918,421.8379,815.8918,440.8379,829.8918,440.8379,822.8918,421.8379" style="stroke:#181818;stroke-width:1;"/><line style="stroke:#181818;stroke-width:1;" x1="753.768" x2="753.768" y1="421.8379" y2="469.1484"/><line style="stroke:#181818;stroke-width:1;" x1="753.768" x2="396.7354" y1="469.1484" y2="469.1484"/><line style="stroke:#181818;stroke-width:1;" x1="396.7354" x2="396.7354" y1="469.1484" y2="555.7695"/><polygon fill="#FFFFFF" points="753.768,421.8379,746.768,440.8379,760.768,440.8379,753.768,421.8379" style="stroke:#181818;stroke-width:1;"/><line style="stroke:#181818;stroke-width:1;" x1="269.0923" x2="269.0923" y1="628.0908" y2="756.3438"/><polygon fill="#FFFFFF" points="269.0923,628.0908,262.0923,647.0908,276.0923,647.0908,269.0923,628.0908" style="stroke:#181818;stroke-width:1;"/><line style="stroke:#181818;stroke-width:1;" x1="104.9692" x2="104.9692" y1="628.0908" y2="756.3438"/><polygon fill="#FFFFFF" points="104.9692,628.0908,97.9692,647.0908,111.9692,647.0908,104.9692,628.0908" style="stroke:#181818;stroke-width:1;"/><line style="stroke:#181818;stroke-width:1;" x1="2608.5676" x2="2608.5676" y1="125.1309" y2="528.459"/><line style="stroke:#181818;stroke-width:1;" x1="2608.5676" x2="2509.613" y1="528.459" y2="528.459"/><line style="stroke:#181818;stroke-width:1;" x1="2509.613" x2="2509.613" y1="528.459" y2="555.7695"/><polygon fill="#181818" points="2509.613,555.7695,2513.613,546.7695,2509.613,550.7695,2505.613,546.7695,2509.613,555.7695" style="stroke:#181818;stroke-width:1;"/><text fill="#000000" font-family="sans-serif" font-size="13" lengthAdjust="spacing" textLength="49.9116" x="2554.656" y="315.2969">manage</text><text fill="#000000" font-family="sans-serif" font-size="13" lengthAdjust="spacing" textLength="8.2202" x="2611.5676" y="139.6992">1</text><text fill="#000000" font-family="sans-serif" font-size="13" lengthAdjust="spacing" textLength="8.2202" x="2512.613" y="551.0273">1</text><line style="stroke:#181818;stroke-width:1;" x1="2706.999" x2="2706.999" y1="785.5293" y2="125.1309"/><polygon fill="#181818" points="2706.999,125.1309,2710.999,116.1309,2706.999,120.1309,2702.999,116.1309,2706.999,125.1309" style="stroke:#181818;stroke-width:1;"/><text fill="#000000" font-family="sans-serif" font-size="13" lengthAdjust="spacing" textLength="50.9717" x="2711.999" y="394.5068">callback</text><text fill="#000000" font-family="sans-serif" font-size="13" lengthAdjust="spacing" textLength="8.2202" x="2709.999" y="780.7871">1</text><text fill="#000000" font-family="sans-serif" font-size="13" lengthAdjust="spacing" textLength="8.2202" x="2709.999" y="139.6992">1</text><line style="stroke:#181818;stroke-width:1;" x1="2600.0229" x2="2600.0229" y1="866.5059" y2="923.2734"/><line style="stroke:#181818;stroke-width:1;" x1="2600.0229" x2="2422.8088" y1="923.2734" y2="923.2734"/><line style="stroke:#181818;stroke-width:1;" x1="2422.8088" x2="2422.8088" y1="923.2734" y2="999.8945"/><polygon fill="#181818" points="2422.8088,999.8945,2426.8088,990.8945,2422.8088,994.8945,2418.8088,990.8945,2422.8088,999.8945" style="stroke:#181818;stroke-width:1;"/><text fill="#000000" font-family="sans-serif" font-size="13" lengthAdjust="spacing" textLength="32.0366" x="2386.7722" y="957.8418">store</text><text fill="#000000" font-family="sans-serif" font-size="13" lengthAdjust="spacing" textLength="22.7119" x="2603.0229" y="881.0742">0..*</text><text fill="#000000" font-family="sans-serif" font-size="13" lengthAdjust="spacing" textLength="22.7119" x="2425.8088" y="995.1523">0..*</text><line style="stroke:#181818;stroke-width:1;" x1="2060.8694" x2="2060.8694" y1="263.418" y2="367.2426"/><polygon fill="#181818" points="2060.8694,367.2426,2064.8694,358.2426,2060.8694,362.2426,2056.8694,358.2426,2060.8694,367.2426" style="stroke:#181818;stroke-width:1;"/><text fill="#000000" font-family="sans-serif" font-size="13" lengthAdjust="spacing" textLength="21.874" x="2034.9954" y="315.2969">has</text><text fill="#000000" font-family="sans-serif" font-size="13" lengthAdjust="spacing" textLength="8.2202" x="2063.8694" y="277.9863">1</text><text fill="#000000" font-family="sans-serif" font-size="13" lengthAdjust="spacing" textLength="8.2202" x="2063.8694" y="362.5004">1</text><line style="stroke:#181818;stroke-width:1;" x1="2185.3528" x2="2185.3528" y1="263.418" y2="469.1484"/><line style="stroke:#181818;stroke-width:1;" x1="2185.3528" x2="1416.842" y1="469.1484" y2="469.1484"/><line style="stroke:#181818;stroke-width:1;" x1="1416.842" x2="1416.842" y1="469.1484" y2="756.3438"/><polygon fill="#181818" points="1416.842,756.3438,1420.842,747.3438,1416.842,751.3438,1412.842,747.3438,1416.842,756.3438" style="stroke:#181818;stroke-width:1;"/><text fill="#000000" font-family="sans-serif" font-size="13" lengthAdjust="spacing" textLength="21.874" x="1390.9679" y="513.7168">has</text><text fill="#000000" font-family="sans-serif" font-size="13" lengthAdjust="spacing" textLength="8.2202" x="2188.3528" y="277.9863">1</text><text fill="#000000" font-family="sans-serif" font-size="13" lengthAdjust="spacing" textLength="8.2202" x="1419.842" y="751.6016">1</text><line style="stroke:#181818;stroke-width:1;" x1="2070.1504" x2="2070.1504" y1="415.2426" y2="528.459"/><line style="stroke:#181818;stroke-width:1;" x1="2070.1504" x2="2285.3074" y1="528.459" y2="528.459"/><line style="stroke:#181818;stroke-width:1;" x1="2285.3074" x2="2285.3074" y1="528.459" y2="555.7695"/><polygon fill="#181818" points="2285.3074,555.7695,2289.3074,546.7695,2285.3074,550.7695,2281.3074,546.7695,2285.3074,555.7695" style="stroke:#181818;stroke-width:1;"/><text fill="#000000" font-family="sans-serif" font-size="13" lengthAdjust="spacing" textLength="21.874" x="2044.2764" y="513.7168">has</text><text fill="#000000" font-family="sans-serif" font-size="13" lengthAdjust="spacing" textLength="8.2202" x="2073.1504" y="429.8109">1</text><text fill="#000000" font-family="sans-serif" font-size="13" lengthAdjust="spacing" textLength="8.2202" x="2288.3074" y="551.0273">1</text><line style="stroke:#181818;stroke-width:1;" x1="2042.3074" x2="2042.3074" y1="415.2426" y2="459.1484"/><line style="stroke:#181818;stroke-width:1;" x1="2042.3074" x2="1179.5285" y1="459.1484" y2="459.1484"/><line style="stroke:#181818;stroke-width:1;" x1="1179.5285" x2="1179.5285" y1="459.1484" y2="569.1975"/><polygon fill="#181818" points="1179.5285,569.1975,1183.5285,560.1975,1179.5285,564.1975,1175.5285,560.1975,1179.5285,569.1975" style="stroke:#181818;stroke-width:1;"/><text fill="#000000" font-family="sans-serif" font-size="13" lengthAdjust="spacing" textLength="21.874" x="1153.6545" y="513.7168">has</text><text fill="#000000" font-family="sans-serif" font-size="13" lengthAdjust="spacing" textLength="8.2202" x="2045.3074" y="429.8109">1</text><text fill="#000000" font-family="sans-serif" font-size="13" lengthAdjust="spacing" textLength="32.8872" x="1182.5285" y="564.4554">2..32</text><line style="stroke:#181818;stroke-width:1;" x1="2014.4644" x2="2014.4644" y1="415.2426" y2="449.1484"/><line style="stroke:#181818;stroke-width:1;" x1="2014.4644" x2="896.3278" y1="449.1484" y2="449.1484"/><line style="stroke:#181818;stroke-width:1;" x1="896.3278" x2="896.3278" y1="449.1484" y2="555.7695"/><polygon fill="#181818" points="896.3278,555.7695,900.3278,546.7695,896.3278,550.7695,892.3278,546.7695,896.3278,555.7695" style="stroke:#181818;stroke-width:1;"/><text fill="#000000" font-family="sans-serif" font-size="13" lengthAdjust="spacing" textLength="21.874" x="870.4538" y="513.7168">has</text><text fill="#000000" font-family="sans-serif" font-size="13" lengthAdjust="spacing" textLength="8.2202" x="2017.4644" y="429.8109">1</text><text fill="#000000" font-family="sans-serif" font-size="13" lengthAdjust="spacing" textLength="32.8872" x="899.3278" y="551.0273">2..32</text><line style="stroke:#181818;stroke-width:1;" x1="1341.8953" x2="1341.8953" y1="650.1741" y2="679.7227"/><line style="stroke:#181818;stroke-width:1;" x1="1341.8953" x2="1670.291" y1="679.7227" y2="679.7227"/><line style="stroke:#181818;stroke-width:1;" x1="1670.291" x2="1670.291" y1="679.7227" y2="805.1919"/><polygon fill="#181818" points="1670.291,805.1919,1674.291,796.1919,1670.291,800.1919,1666.291,796.1919,1670.291,805.1919" style="stroke:#181818;stroke-width:1;"/><text fill="#000000" font-family="sans-serif" font-size="13" lengthAdjust="spacing" textLength="21.874" x="1644.417" y="714.291">has</text><text fill="#000000" font-family="sans-serif" font-size="13" lengthAdjust="spacing" textLength="8.2202" x="1344.8953" y="664.7425">1</text><text fill="#000000" font-family="sans-serif" font-size="13" lengthAdjust="spacing" textLength="22.7119" x="1673.291" y="800.4497">1..*</text><line style="stroke:#181818;stroke-width:1;" x1="1212.0018" x2="1212.0018" y1="650.1741" y2="756.3438"/><polygon fill="#181818" points="1212.0018,756.3438,1216.0018,747.3438,1212.0018,751.3438,1208.0018,747.3438,1212.0018,756.3438" style="stroke:#181818;stroke-width:1;"/><text fill="#000000" font-family="sans-serif" font-size="13" lengthAdjust="spacing" textLength="21.874" x="1186.1278" y="714.291">has</text><text fill="#000000" font-family="sans-serif" font-size="13" lengthAdjust="spacing" textLength="8.2202" x="1215.0018" y="664.7425">1</text><text fill="#000000" font-family="sans-serif" font-size="13" lengthAdjust="spacing" textLength="8.2202" x="1215.0018" y="751.6016">1</text><line style="stroke:#181818;stroke-width:1;" x1="1276.9485" x2="1276.9485" y1="650.1741" y2="729.0332"/><line style="stroke:#181818;stroke-width:1;" x1="1276.9485" x2="1380.5018" y1="729.0332" y2="729.0332"/><line style="stroke:#181818;stroke-width:1;" x1="1380.5018" x2="1380.5018" y1="729.0332" y2="756.3438"/><polygon fill="#181818" points="1380.5018,756.3438,1384.5018,747.3438,1380.5018,751.3438,1376.5018,747.3438,1380.5018,756.3438" style="stroke:#181818;stroke-width:1;"/><text fill="#000000" font-family="sans-serif" font-size="13" lengthAdjust="spacing" textLength="21.874" x="1251.0745" y="714.291">has</text><text fill="#000000" font-family="sans-serif" font-size="13" lengthAdjust="spacing" textLength="8.2202" x="1279.9485" y="664.7425">1</text><text fill="#000000" font-family="sans-serif" font-size="13" lengthAdjust="spacing" textLength="8.2202" x="1383.5018" y="751.6016">1</text><line style="stroke:#181818;stroke-width:1;" x1="1392.6134" x2="1392.6134" y1="1237.6465" y2="1264.957"/><line style="stroke:#181818;stroke-width:1;" x1="1392.6134" x2="1243.0286" y1="1264.957" y2="1264.957"/><line style="stroke:#181818;stroke-width:1;" x1="1243.0286" x2="1243.0286" y1="1264.957" y2="1331.5781"/><polygon fill="#181818" points="1243.0286,1331.5781,1247.0286,1322.5781,1243.0286,1326.5781,1239.0286,1322.5781,1243.0286,1331.5781" style="stroke:#181818;stroke-width:1;"/><text fill="#000000" font-family="sans-serif" font-size="13" lengthAdjust="spacing" textLength="21.874" x="1217.1545" y="1289.5254">has</text><text fill="#000000" font-family="sans-serif" font-size="13" lengthAdjust="spacing" textLength="6.2651" x="1395.6134" y="1252.2148">*</text><text fill="#000000" font-family="sans-serif" font-size="13" lengthAdjust="spacing" textLength="22.7119" x="1246.0286" y="1326.8359">1..*</text><line style="stroke:#181818;stroke-width:1;" x1="1571.7149" x2="1571.7149" y1="1079.7747" y2="1123.0254"/><line style="stroke:#181818;stroke-width:1;" x1="1571.7149" x2="1450.2839" y1="1123.0254" y2="1123.0254"/><line style="stroke:#181818;stroke-width:1;" x1="1450.2839" x2="1450.2839" y1="1123.0254" y2="1189.6465"/><polygon fill="#181818" points="1450.2839,1189.6465,1454.2839,1180.6465,1450.2839,1184.6465,1446.2839,1180.6465,1450.2839,1189.6465" style="stroke:#181818;stroke-width:1;"/><text fill="#000000" font-family="sans-serif" font-size="13" lengthAdjust="spacing" textLength="21.874" x="1424.4099" y="1147.5938">has</text><text fill="#000000" font-family="sans-serif" font-size="13" lengthAdjust="spacing" textLength="8.2202" x="1574.7149" y="1094.3431">1</text><text fill="#000000" font-family="sans-serif" font-size="13" lengthAdjust="spacing" textLength="6.2651" x="1453.2839" y="1184.9043">*</text><line style="stroke:#181818;stroke-width:1;" x1="857.4538" x2="857.4538" y1="421.8379" y2="528.459"/><line style="stroke:#181818;stroke-width:1;" x1="857.4538" x2="867.6302" y1="528.459" y2="528.459"/><line style="stroke:#181818;stroke-width:1;" x1="867.6302" x2="867.6302" y1="528.459" y2="555.7695"/><polygon fill="#181818" points="867.6302,555.7695,871.6302,546.7695,867.6302,550.7695,863.6302,546.7695,867.6302,555.7695" style="stroke:#181818;stroke-width:1;"/><text fill="#000000" font-family="sans-serif" font-size="13" lengthAdjust="spacing" textLength="21.874" x="831.5798" y="513.7168">has</text><text fill="#000000" font-family="sans-serif" font-size="13" lengthAdjust="spacing" textLength="8.2202" x="860.4538" y="436.4063">1</text><text fill="#000000" font-family="sans-serif" font-size="13" lengthAdjust="spacing" textLength="8.2202" x="870.6302" y="551.0273">2</text><line style="stroke:#181818;stroke-width:1;" x1="771.0489" x2="771.0489" y1="263.418" y2="357.3496"/><polygon fill="#181818" points="771.0489,357.3496,775.0489,348.3496,771.0489,352.3496,767.0489,348.3496,771.0489,357.3496" style="stroke:#181818;stroke-width:1;"/><text fill="#000000" font-family="sans-serif" font-size="13" lengthAdjust="spacing" textLength="21.874" x="745.1749" y="315.2969">has</text><text fill="#000000" font-family="sans-serif" font-size="13" lengthAdjust="spacing" textLength="8.2202" x="774.0489" y="277.9863">1</text><text fill="#000000" font-family="sans-serif" font-size="13" lengthAdjust="spacing" textLength="6.2651" x="774.0489" y="352.6074">*</text><!--SRC=[xLTBazeu4BxxLsZ9XSdEiDdaHb5KyHg6dGS4c90zfOJTs2gCn4fY9cGg_trR5hPbOoPCrHwN0qYjhn_wrDqIlsqb3JUKn7GlTff0lFRKcl4jbNH3OiP1xxT0XDIHS1QasF6W9oG7IJuuSZ-cIdMqbcovqp3o1P-n7r20z0oaI_rrU30I2qdUZUFWZlhWu1w4XZDWiuW6ufdnaAnehC3JOakq84kXjTYGW4dmDHFSyrfAxsDeUmG_IPXzHaDZuIKHcKzZAyKJ2o1mPEPJ3cCO2QKN4TDGWDqXMnRGPvkXX7rXzLfmNRtwqxFVhJyE8NeH1a5QhJISTfie3HA4EGlFOnmdAwI1z29GgeU6fOXZa0KDkuNVKPDANNzYyDoq-2yul6YI9y620uJ3yv1ke5wKRiGJr5TIRBus2Rgy96Ryzs6inTTiP6Mel1GY1igzdswCZmfaBnBCXyhmD7pNNsYyIxpFC75uMDIlzILzfiiOfg34JgAPGRjMQIe4dMACiK7HJhRtqooPrH894WmD4mPey_jXn_jqlmvkkzCMP8weIPBn78UNn3TdZX8iC2J2J2x9QvO2fhQ8lSTeQGZrZGfJNb8SRejZSP0OLfg8LRwpnCASiCqsXWrmhHBoYMM_ILfpWcG33mhoDeP0_g9FrCCLOWnx7bqgBQclRQ6GMfSgIAWhK- -uogB8E9KGCfEtsQ6SnOq4rIGLP-woz8x4WWRfuhMGvvaEODKagTP5fHT3hjtqy75qb2qfVGL2_liSAeAmn7wzkRVcaCLHjJQPq9gtwvhf65BK9Vbd1yhqpLoo5Kgn9OkPPkQ46et678tDSyAm3oci__z9UnDffce6FCIhuwYOyiPUPEj4hxOqd6hOrHnY7C1t6s9CpZJ5fc8zZHw-JQRZuNGmcoNptisWTvkFxZlpGJARpJjtWspMdtOM5KstAwWCdCwG29DeJSkkJuHYXZL3raK2EDmZU69SKyRLBUnBg29_YOCZ-Xot24VcDFD9MMl4qIgDVvZBqqBCfP2Ppxo-f4mvwLDnaInkHWSkkdSTP2pJIjEmGcVIMJmaW-buR3c-VHWDR-RMp6XsCvuamy-FWu45teuUXiPqgKqxl5hBLocJJH9HTOyvakQB6Il3_YH9q1WIGRt4szACBdCIJ3uPxaj-9oWMsZHI9uAqwXrHwLworuzXzc26FlCgjGmm5MAT0IgTPj1Rpi98dmdkCXNXg_4yyEST03yt2lCihTwHMoI6-o7WKvfgaPTwUaI97Cuz6kkudpvxQPmRTkWlUKpLUbHfVFA7bUhfFYeNIyI_nMaVtmYK-_0M7PCgntfvXEMLh7gpu0yqNu-dYywqRvjS5oisdzqDhcq9JhDYJD7VihLCaeCoApag5rcOENwx4Nl8BoTgsQnc-M3wDMuH_5qX6smcE1qHspWFK9Ge5vBFciiFUwjtydL81FxwDS20J_27Slsw8vjLhs5i7PbpIK65RHpZ5an7Hpiup0sTvGkqzcUDN5sraz_yfTea6yhniYTjh_WwEO8xffh4ft6ynF-4nseV6ett1qqxhFptWYOKfgLnwxaFW2ElzeIJxetOKr3dIYfYhVgfhPy6VcmqFdsikHth37JMYWfOgvw7a91IhEfNyRNywlmbi886hx9RrTuNmicRGgfst44oHoxUjPbvpBCxPwY27LlvhjbSCSNy2m00]--></g></svg>