<svg xmlns="http://www.w3.org/2000/svg" xmlns:xlink="http://www.w3.org/1999/xlink" contentStyleType="text/css" height="1284px" preserveAspectRatio="none" style="width:1510px;height:1284px;background:#FFFFFF;" version="1.1" viewBox="0 0 1510 1284" width="1510px" zoomAndPan="magnify"><defs/><g><!--class ChessController--><g id="elem_ChessController"><rect codeLine="24" fill="#F8F8FF" height="32" id="ChessController" style="stroke:#696969;stroke-width:0.5;" width="140.6094" x="1133.9823" y="137.9316"/><ellipse cx="1148.9823" cy="153.9316" fill="#B4A7E5" rx="11" ry="11" style="stroke:#181818;stroke-width:1;"/><path d="M1145.4101,150.1968 L1145.4101,148.0386 L1152.7895,148.0386 L1152.7895,150.1968 L1150.3241,150.1968 L1150.3241,158.2734 L1152.7895,158.2734 L1152.7895,160.4316 L1145.4101,160.4316 L1145.4101,158.2734 L1147.8754,158.2734 L1147.8754,150.1968 Z " fill="#000000"/><text fill="#696969" font-family="sans-serif" font-size="14" font-style="italic" lengthAdjust="spacing" textLength="108.6094" x="1162.9823" y="159.2227">ChessController</text></g><!--class UserChoice--><g id="elem_UserChoice"><rect codeLine="26" fill="#F8F8FF" height="32" id="UserChoice" style="stroke:#696969;stroke-width:0.5;" width="108.3574" x="1272.1234" y="519.1055"/><ellipse cx="1287.1234" cy="535.1055" fill="#B4A7E5" rx="11" ry="11" style="stroke:#181818;stroke-width:1;"/><path d="M1283.5512,531.3706 L1283.5512,529.2124 L1290.9306,529.2124 L1290.9306,531.3706 L1288.4652,531.3706 L1288.4652,539.4473 L1290.9306,539.4473 L1290.9306,541.6055 L1283.5512,541.6055 L1283.5512,539.4473 L1286.0165,539.4473 L1286.0165,531.3706 Z " fill="#000000"/><text fill="#696969" font-family="sans-serif" font-size="14" font-style="italic" lengthAdjust="spacing" textLength="76.3574" x="1301.1234" y="540.3965">UserChoice</text></g><!--class ChessView--><g id="elem_ChessView"><rect codeLine="31" fill="#F8F8FF" height="32" id="ChessView" style="stroke:#696969;stroke-width:0.5;" width="104.2354" x="990.772" y="519.1055"/><ellipse cx="1005.772" cy="535.1055" fill="#B4A7E5" rx="11" ry="11" style="stroke:#181818;stroke-width:1;"/><path d="M1002.1998,531.3706 L1002.1998,529.2124 L1009.5792,529.2124 L1009.5792,531.3706 L1007.1138,531.3706 L1007.1138,539.4473 L1009.5792,539.4473 L1009.5792,541.6055 L1002.1998,541.6055 L1002.1998,539.4473 L1004.6651,539.4473 L1004.6651,531.3706 Z " fill="#000000"/><text fill="#696969" font-family="sans-serif" font-size="14" font-style="italic" lengthAdjust="spacing" textLength="72.2354" x="1019.772" y="540.3965">ChessView</text></g><!--class ChessEngine--><g id="elem_ChessEngine"><rect codeLine="42" fill="#FDF5E6" height="32" id="ChessEngine" style="stroke:#181818;stroke-width:0.5;" width="117.9893" x="1191.8521" y="237.2422"/><ellipse cx="1206.8521" cy="253.2422" fill="#ADD1B2" rx="11" ry="11" style="stroke:#181818;stroke-width:1;"/><path d="M1209.3253,259.3853 Q1208.7442,259.6841 1208.1051,259.8335 Q1207.4659,259.9829 1206.7603,259.9829 Q1204.2535,259.9829 1202.9337,258.3311 Q1201.6138,256.6792 1201.6138,253.5581 Q1201.6138,250.4287 1202.9337,248.7769 Q1204.2535,247.125 1206.7603,247.125 Q1207.4659,247.125 1208.1134,247.2744 Q1208.7608,247.4238 1209.3253,247.7227 L1209.3253,250.4453 Q1208.6944,249.8643 1208.1009,249.5945 Q1207.5074,249.3247 1206.8765,249.3247 Q1205.5318,249.3247 1204.847,250.3914 Q1204.1622,251.458 1204.1622,253.5581 Q1204.1622,255.6499 1204.847,256.7166 Q1205.5318,257.7832 1206.8765,257.7832 Q1207.5074,257.7832 1208.1009,257.5134 Q1208.6944,257.2437 1209.3253,256.6626 Z " fill="#000000"/><text fill="#000000" font-family="sans-serif" font-size="14" lengthAdjust="spacing" textLength="85.9893" x="1220.8521" y="258.5332">ChessEngine</text></g><!--class ChessBoardView--><g id="elem_ChessBoardView"><rect codeLine="44" fill="#FDF5E6" height="32" id="ChessBoardView" style="stroke:#181818;stroke-width:0.5;" width="143.1592" x="968.8223" y="237.2422"/><ellipse cx="983.8223" cy="253.2422" fill="#B4A7E5" rx="11" ry="11" style="stroke:#181818;stroke-width:1;"/><path d="M980.2501,249.5073 L980.2501,247.3491 L987.6295,247.3491 L987.6295,249.5073 L985.1641,249.5073 L985.1641,257.584 L987.6295,257.584 L987.6295,259.7422 L980.2501,259.7422 L980.2501,257.584 L982.7154,257.584 L982.7154,249.5073 Z " fill="#000000"/><text fill="#000000" font-family="sans-serif" font-size="14" font-style="italic" lengthAdjust="spacing" textLength="111.1592" x="997.8223" y="258.5332">ChessBoardView</text></g><!--class Cloneable--><g id="elem_Cloneable"><rect codeLine="46" fill="#F8F8FF" height="32" id="Cloneable" style="stroke:#696969;stroke-width:0.5;" width="99.2109" x="849.6114" y="237.2422"/><ellipse cx="864.6114" cy="253.2422" fill="#B4A7E5" rx="11" ry="11" style="stroke:#181818;stroke-width:1;"/><path d="M861.0391,249.5073 L861.0391,247.3491 L868.4185,247.3491 L868.4185,249.5073 L865.9532,249.5073 L865.9532,257.584 L868.4185,257.584 L868.4185,259.7422 L861.0391,259.7422 L861.0391,257.584 L863.5045,257.584 L863.5045,249.5073 Z " fill="#000000"/><text fill="#696969" font-family="sans-serif" font-size="14" font-style="italic" lengthAdjust="spacing" textLength="67.2109" x="878.6114" y="258.5332">Cloneable</text></g><!--class ChessBoard--><g id="elem_ChessBoard"><rect codeLine="48" fill="#FDF5E6" height="32" id="ChessBoard" style="stroke:#181818;stroke-width:0.5;" width="111.3721" x="920.2169" y="373.1738"/><ellipse cx="935.2169" cy="389.1738" fill="#ADD1B2" rx="11" ry="11" style="stroke:#181818;stroke-width:1;"/><path d="M937.69,395.3169 Q937.109,395.6157 936.4698,395.7651 Q935.8306,395.9146 935.1251,395.9146 Q932.6182,395.9146 931.2984,394.2627 Q929.9786,392.6108 929.9786,389.4897 Q929.9786,386.3604 931.2984,384.7085 Q932.6182,383.0566 935.1251,383.0566 Q935.8306,383.0566 936.4781,383.2061 Q937.1256,383.3555 937.69,383.6543 L937.69,386.377 Q937.0592,385.7959 936.4656,385.5261 Q935.8721,385.2563 935.2413,385.2563 Q933.8966,385.2563 933.2117,386.323 Q932.5269,387.3896 932.5269,389.4897 Q932.5269,391.5815 933.2117,392.6482 Q933.8966,393.7148 935.2413,393.7148 Q935.8721,393.7148 936.4656,393.4451 Q937.0592,393.1753 937.69,392.5942 Z " fill="#000000"/><text fill="#000000" font-family="sans-serif" font-size="14" lengthAdjust="spacing" textLength="79.3721" x="949.2169" y="394.4648">ChessBoard</text></g><!--class ChessBoardInitialzer--><g id="elem_ChessBoardInitialzer"><rect codeLine="50" fill="#FDF5E6" height="32" id="ChessBoardInitialzer" style="stroke:#181818;stroke-width:0.5;" width="170.7559" x="1266.8419" y="373.1738"/><ellipse cx="1281.8419" cy="389.1738" fill="#A9DCDF" rx="11" ry="11" style="stroke:#181818;stroke-width:1;"/><path d="M1281.7051,384.522 L1280.5513,389.5938 L1282.8673,389.5938 Z M1280.211,382.2808 L1283.2076,382.2808 L1286.5528,394.6738 L1284.1041,394.6738 L1283.3404,391.6108 L1280.0616,391.6108 L1279.3145,394.6738 L1276.8658,394.6738 Z " fill="#000000"/><text fill="#000000" font-family="sans-serif" font-size="14" font-style="italic" lengthAdjust="spacing" textLength="138.7559" x="1295.8419" y="394.4648">ChessBoardInitialzer</text></g><!--class Position--><g id="elem_Position"><rect codeLine="52" fill="#FDF5E6" height="32" id="Position" style="stroke:#181818;stroke-width:0.5;" width="86.0928" x="656.7463" y="519.1055"/><ellipse cx="671.7463" cy="535.1055" fill="#ADD1B2" rx="11" ry="11" style="stroke:#181818;stroke-width:1;"/><path d="M674.2194,541.2485 Q673.6384,541.5474 672.9992,541.6968 Q672.3601,541.8462 671.6545,541.8462 Q669.1477,541.8462 667.8278,540.1943 Q666.508,538.5425 666.508,535.4214 Q666.508,532.292 667.8278,530.6401 Q669.1477,528.9883 671.6545,528.9883 Q672.3601,528.9883 673.0075,529.1377 Q673.655,529.2871 674.2194,529.5859 L674.2194,532.3086 Q673.5886,531.7275 672.9951,531.4578 Q672.4016,531.188 671.7707,531.188 Q670.426,531.188 669.7412,532.2546 Q669.0563,533.3213 669.0563,535.4214 Q669.0563,537.5132 669.7412,538.5798 Q670.426,539.6465 671.7707,539.6465 Q672.4016,539.6465 672.9951,539.3767 Q673.5886,539.1069 674.2194,538.5259 Z " fill="#000000"/><text fill="#000000" font-family="sans-serif" font-size="14" lengthAdjust="spacing" textLength="54.0928" x="685.7463" y="540.3965">Position</text></g><!--class PlayerColor--><g id="elem_PlayerColor"><rect codeLine="54" fill="#F8F8FF" height="72.9766" id="PlayerColor" style="stroke:#696969;stroke-width:0.5;" width="109.0205" x="1023.2118" y="665.0371"/><ellipse cx="1038.2118" cy="681.0371" fill="#EB937F" rx="11" ry="11" style="stroke:#181818;stroke-width:1;"/><path d="M1041.826,687.5371 L1034.1063,687.5371 L1034.1063,675.144 L1041.826,675.144 L1041.826,677.3022 L1036.555,677.3022 L1036.555,679.9751 L1041.328,679.9751 L1041.328,682.1333 L1036.555,682.1333 L1036.555,685.3789 L1041.826,685.3789 Z " fill="#000000"/><text fill="#696969" font-family="sans-serif" font-size="14" lengthAdjust="spacing" textLength="77.0205" x="1052.2118" y="686.3281">PlayerColor</text><line style="stroke:#696969;stroke-width:0.5;" x1="1024.2118" x2="1131.2323" y1="697.0371" y2="697.0371"/><text fill="#696969" font-family="sans-serif" font-size="14" lengthAdjust="spacing" textLength="42.7383" x="1029.2118" y="714.5723">WHITE</text><text fill="#696969" font-family="sans-serif" font-size="14" lengthAdjust="spacing" textLength="44.0029" x="1029.2118" y="731.0605">BLACK</text></g><!--class PieceType--><g id="elem_PieceType"><rect codeLine="59" fill="#F8F8FF" height="138.9297" id="PieceType" style="stroke:#696969;stroke-width:0.5;" width="99.334" x="666.1395" y="665.0371"/><ellipse cx="681.1395" cy="681.0371" fill="#EB937F" rx="11" ry="11" style="stroke:#181818;stroke-width:1;"/><path d="M684.7537,687.5371 L677.034,687.5371 L677.034,675.144 L684.7537,675.144 L684.7537,677.3022 L679.4827,677.3022 L679.4827,679.9751 L684.2557,679.9751 L684.2557,682.1333 L679.4827,682.1333 L679.4827,685.3789 L684.7537,685.3789 Z " fill="#000000"/><text fill="#696969" font-family="sans-serif" font-size="14" lengthAdjust="spacing" textLength="67.334" x="695.1395" y="686.3281">PieceType</text><line style="stroke:#696969;stroke-width:0.5;" x1="667.1395" x2="764.4735" y1="697.0371" y2="697.0371"/><text fill="#696969" font-family="sans-serif" font-size="14" lengthAdjust="spacing" textLength="39.7168" x="672.1395" y="714.5723">PAWN</text><text fill="#696969" font-family="sans-serif" font-size="14" lengthAdjust="spacing" textLength="39.7441" x="672.1395" y="731.0605">ROOK</text><text fill="#696969" font-family="sans-serif" font-size="14" lengthAdjust="spacing" textLength="52.7734" x="672.1395" y="747.5488">KNIGHT</text><text fill="#696969" font-family="sans-serif" font-size="14" lengthAdjust="spacing" textLength="48.5283" x="672.1395" y="764.0371">BISHOP</text><text fill="#696969" font-family="sans-serif" font-size="14" lengthAdjust="spacing" textLength="46.0947" x="672.1395" y="780.5254">QUEEN</text><text fill="#696969" font-family="sans-serif" font-size="14" lengthAdjust="spacing" textLength="33.6328" x="672.1395" y="797.0137">KING</text></g><!--class ChessPiece--><g id="elem_ChessPiece"><rect codeLine="68" fill="#FDF5E6" height="32" id="ChessPiece" style="stroke:#181818;stroke-width:0.5;" width="107.0039" x="863.5489" y="519.1055"/><ellipse cx="878.5489" cy="535.1055" fill="#A9DCDF" rx="11" ry="11" style="stroke:#181818;stroke-width:1;"/><path d="M878.4122,530.4536 L877.2584,535.5254 L879.5743,535.5254 Z M876.918,528.2124 L879.9146,528.2124 L883.2598,540.6055 L880.8111,540.6055 L880.0474,537.5425 L876.7686,537.5425 L876.0216,540.6055 L873.5728,540.6055 Z " fill="#000000"/><text fill="#000000" font-family="sans-serif" font-size="14" font-style="italic" lengthAdjust="spacing" textLength="75.0039" x="892.5489" y="540.3965">ChessPiece</text></g><!--class PromotableChessPiece--><g id="elem_PromotableChessPiece"><rect codeLine="69" fill="#FDF5E6" height="32" id="PromotableChessPiece" style="stroke:#181818;stroke-width:0.5;" width="184.3662" x="1203.3913" y="730.5534"/><ellipse cx="1218.3913" cy="746.5534" fill="#A9DCDF" rx="11" ry="11" style="stroke:#181818;stroke-width:1;"/><path d="M1218.2546,741.9015 L1217.1008,746.9733 L1219.4167,746.9733 Z M1216.7605,739.6603 L1219.7571,739.6603 L1223.1023,752.0534 L1220.6536,752.0534 L1219.8899,748.9904 L1216.6111,748.9904 L1215.864,752.0534 L1213.4153,752.0534 Z " fill="#000000"/><text fill="#000000" font-family="sans-serif" font-size="14" font-style="italic" lengthAdjust="spacing" textLength="152.3662" x="1232.3913" y="751.8444">PromotableChessPiece</text></g><!--class Pawn--><g id="elem_Pawn"><rect codeLine="70" fill="#FDF5E6" height="32" id="Pawn" style="stroke:#181818;stroke-width:0.5;" width="66.9453" x="579.1942" y="665.0371"/><ellipse cx="594.1942" cy="681.0371" fill="#ADD1B2" rx="11" ry="11" style="stroke:#181818;stroke-width:1;"/><path d="M596.6673,687.1802 Q596.0863,687.479 595.4471,687.6284 Q594.8079,687.7778 594.1024,687.7778 Q591.5955,687.7778 590.2757,686.126 Q588.9559,684.4741 588.9559,681.353 Q588.9559,678.2236 590.2757,676.5718 Q591.5955,674.9199 594.1024,674.9199 Q594.8079,674.9199 595.4554,675.0693 Q596.1029,675.2188 596.6673,675.5176 L596.6673,678.2402 Q596.0365,677.6592 595.443,677.3894 Q594.8494,677.1196 594.2186,677.1196 Q592.8739,677.1196 592.189,678.1863 Q591.5042,679.2529 591.5042,681.353 Q591.5042,683.4448 592.189,684.5115 Q592.8739,685.5781 594.2186,685.5781 Q594.8494,685.5781 595.443,685.3083 Q596.0365,685.0386 596.6673,684.4575 Z " fill="#000000"/><text fill="#000000" font-family="sans-serif" font-size="14" lengthAdjust="spacing" textLength="34.9453" x="608.1942" y="686.3281">Pawn</text></g><!--class Rook--><g id="elem_Rook"><rect codeLine="71" fill="#FDF5E6" height="32" id="Rook" style="stroke:#181818;stroke-width:0.5;" width="66.2344" x="1244.0206" y="853.9668"/><ellipse cx="1259.0206" cy="869.9668" fill="#ADD1B2" rx="11" ry="11" style="stroke:#181818;stroke-width:1;"/><path d="M1261.4938,876.1099 Q1260.9127,876.4087 1260.2736,876.5581 Q1259.6344,876.7075 1258.9288,876.7075 Q1256.422,876.7075 1255.1022,875.0557 Q1253.7824,873.4038 1253.7824,870.2827 Q1253.7824,867.1533 1255.1022,865.5015 Q1256.422,863.8496 1258.9288,863.8496 Q1259.6344,863.8496 1260.2819,863.999 Q1260.9293,864.1484 1261.4938,864.4473 L1261.4938,867.1699 Q1260.8629,866.5889 1260.2694,866.3191 Q1259.6759,866.0493 1259.0451,866.0493 Q1257.7003,866.0493 1257.0155,867.116 Q1256.3307,868.1826 1256.3307,870.2827 Q1256.3307,872.3745 1257.0155,873.4412 Q1257.7003,874.5078 1259.0451,874.5078 Q1259.6759,874.5078 1260.2694,874.238 Q1260.8629,873.9683 1261.4938,873.3872 Z " fill="#000000"/><text fill="#000000" font-family="sans-serif" font-size="14" lengthAdjust="spacing" textLength="34.2344" x="1273.0206" y="875.2578">Rook</text></g><!--class Knight--><g id="elem_Knight"><rect codeLine="72" fill="#FDF5E6" height="32" id="Knight" style="stroke:#181818;stroke-width:0.5;" width="76.5293" x="1147.4913" y="853.9668"/><ellipse cx="1162.4913" cy="869.9668" fill="#ADD1B2" rx="11" ry="11" style="stroke:#181818;stroke-width:1;"/><path d="M1164.9645,876.1099 Q1164.3834,876.4087 1163.7443,876.5581 Q1163.1051,876.7075 1162.3995,876.7075 Q1159.8927,876.7075 1158.5729,875.0557 Q1157.2531,873.4038 1157.2531,870.2827 Q1157.2531,867.1533 1158.5729,865.5015 Q1159.8927,863.8496 1162.3995,863.8496 Q1163.1051,863.8496 1163.7526,863.999 Q1164.4,864.1484 1164.9645,864.4473 L1164.9645,867.1699 Q1164.3336,866.5889 1163.7401,866.3191 Q1163.1466,866.0493 1162.5158,866.0493 Q1161.171,866.0493 1160.4862,867.116 Q1159.8014,868.1826 1159.8014,870.2827 Q1159.8014,872.3745 1160.4862,873.4412 Q1161.171,874.5078 1162.5158,874.5078 Q1163.1466,874.5078 1163.7401,874.238 Q1164.3336,873.9683 1164.9645,873.3872 Z " fill="#000000"/><text fill="#000000" font-family="sans-serif" font-size="14" lengthAdjust="spacing" textLength="44.5293" x="1176.4913" y="875.2578">Knight</text></g><!--class Bishop--><g id="elem_Bishop"><rect codeLine="73" fill="#FDF5E6" height="32" id="Bishop" style="stroke:#181818;stroke-width:0.5;" width="77.3359" x="1330.255" y="853.9668"/><ellipse cx="1345.255" cy="869.9668" fill="#ADD1B2" rx="11" ry="11" style="stroke:#181818;stroke-width:1;"/><path d="M1347.7282,876.1099 Q1347.1471,876.4087 1346.5079,876.5581 Q1345.8688,876.7075 1345.1632,876.7075 Q1342.6564,876.7075 1341.3366,875.0557 Q1340.0167,873.4038 1340.0167,870.2827 Q1340.0167,867.1533 1341.3366,865.5015 Q1342.6564,863.8496 1345.1632,863.8496 Q1345.8688,863.8496 1346.5162,863.999 Q1347.1637,864.1484 1347.7282,864.4473 L1347.7282,867.1699 Q1347.0973,866.5889 1346.5038,866.3191 Q1345.9103,866.0493 1345.2794,866.0493 Q1343.9347,866.0493 1343.2499,867.116 Q1342.5651,868.1826 1342.5651,870.2827 Q1342.5651,872.3745 1343.2499,873.4412 Q1343.9347,874.5078 1345.2794,874.5078 Q1345.9103,874.5078 1346.5038,874.238 Q1347.0973,873.9683 1347.7282,873.3872 Z " fill="#000000"/><text fill="#000000" font-family="sans-serif" font-size="14" lengthAdjust="spacing" textLength="45.3359" x="1359.255" y="875.2578">Bishop</text></g><!--class Queen--><g id="elem_Queen"><rect codeLine="74" fill="#FDF5E6" height="32" id="Queen" style="stroke:#181818;stroke-width:0.5;" width="75.8525" x="1427.591" y="853.9668"/><ellipse cx="1442.591" cy="869.9668" fill="#ADD1B2" rx="11" ry="11" style="stroke:#181818;stroke-width:1;"/><path d="M1445.0641,876.1099 Q1444.483,876.4087 1443.8439,876.5581 Q1443.2047,876.7075 1442.4992,876.7075 Q1439.9923,876.7075 1438.6725,875.0557 Q1437.3527,873.4038 1437.3527,870.2827 Q1437.3527,867.1533 1438.6725,865.5015 Q1439.9923,863.8496 1442.4992,863.8496 Q1443.2047,863.8496 1443.8522,863.999 Q1444.4996,864.1484 1445.0641,864.4473 L1445.0641,867.1699 Q1444.4332,866.5889 1443.8397,866.3191 Q1443.2462,866.0493 1442.6154,866.0493 Q1441.2706,866.0493 1440.5858,867.116 Q1439.901,868.1826 1439.901,870.2827 Q1439.901,872.3745 1440.5858,873.4412 Q1441.2706,874.5078 1442.6154,874.5078 Q1443.2462,874.5078 1443.8397,874.238 Q1444.4332,873.9683 1445.0641,873.3872 Z " fill="#000000"/><text fill="#000000" font-family="sans-serif" font-size="14" lengthAdjust="spacing" textLength="43.8525" x="1456.591" y="875.2578">Queen</text></g><!--class King--><g id="elem_King"><rect codeLine="75" fill="#FDF5E6" height="32" id="King" style="stroke:#181818;stroke-width:0.5;" width="62.6045" x="940.6073" y="665.0371"/><ellipse cx="955.6073" cy="681.0371" fill="#ADD1B2" rx="11" ry="11" style="stroke:#181818;stroke-width:1;"/><path d="M958.0804,687.1802 Q957.4993,687.479 956.8602,687.6284 Q956.221,687.7778 955.5155,687.7778 Q953.0086,687.7778 951.6888,686.126 Q950.369,684.4741 950.369,681.353 Q950.369,678.2236 951.6888,676.5718 Q953.0086,674.9199 955.5155,674.9199 Q956.221,674.9199 956.8685,675.0693 Q957.516,675.2188 958.0804,675.5176 L958.0804,678.2402 Q957.4495,677.6592 956.856,677.3894 Q956.2625,677.1196 955.6317,677.1196 Q954.2869,677.1196 953.6021,678.1863 Q952.9173,679.2529 952.9173,681.353 Q952.9173,683.4448 953.6021,684.5115 Q954.2869,685.5781 955.6317,685.5781 Q956.2625,685.5781 956.856,685.3083 Q957.4495,685.0386 958.0804,684.4575 Z " fill="#000000"/><text fill="#000000" font-family="sans-serif" font-size="14" lengthAdjust="spacing" textLength="30.6045" x="969.6073" y="686.3281">King</text></g><!--class MoveGenerator--><g id="elem_MoveGenerator"><rect codeLine="78" fill="#FDF5E6" height="32" id="MoveGenerator" style="stroke:#181818;stroke-width:0.5;" width="135.1338" x="785.4735" y="722.2707"/><ellipse cx="800.4735" cy="738.2707" fill="#A9DCDF" rx="11" ry="11" style="stroke:#181818;stroke-width:1;"/><path d="M800.3368,733.6188 L799.1829,738.6906 L801.4989,738.6906 Z M798.8426,731.3776 L801.8392,731.3776 L805.1844,743.7707 L802.7357,743.7707 L801.972,740.7077 L798.6932,740.7077 L797.9461,743.7707 L795.4974,743.7707 Z " fill="#000000"/><text fill="#000000" font-family="sans-serif" font-size="14" font-style="italic" lengthAdjust="spacing" textLength="103.1338" x="814.4735" y="743.5617">MoveGenerator</text></g><!--class DirectionalGenerator--><g id="elem_DirectionalGenerator"><rect codeLine="79" fill="#FDF5E6" height="32" id="DirectionalGenerator" style="stroke:#181818;stroke-width:0.5;" width="173.0117" x="772.2458" y="979.8984"/><ellipse cx="787.2458" cy="995.8984" fill="#ADD1B2" rx="11" ry="11" style="stroke:#181818;stroke-width:1;"/><path d="M789.7189,1002.0415 Q789.1379,1002.3403 788.4987,1002.4897 Q787.8595,1002.6392 787.154,1002.6392 Q784.6471,1002.6392 783.3273,1000.9873 Q782.0075,999.3354 782.0075,996.2144 Q782.0075,993.085 783.3273,991.4331 Q784.6471,989.7813 787.154,989.7813 Q787.8595,989.7813 788.507,989.9307 Q789.1545,990.0801 789.7189,990.3789 L789.7189,993.1016 Q789.0881,992.5205 788.4945,992.2507 Q787.901,991.981 787.2702,991.981 Q785.9255,991.981 785.2406,993.0476 Q784.5558,994.1143 784.5558,996.2144 Q784.5558,998.3062 785.2406,999.3728 Q785.9255,1000.4395 787.2702,1000.4395 Q787.901,1000.4395 788.4945,1000.1697 Q789.0881,999.8999 789.7189,999.3188 Z " fill="#000000"/><text fill="#000000" font-family="sans-serif" font-size="14" lengthAdjust="spacing" textLength="141.0117" x="801.2458" y="1001.1895">DirectionalGenerator</text></g><!--class KnightGenerator--><g id="elem_KnightGenerator"><rect codeLine="80" fill="#FDF5E6" height="32" id="KnightGenerator" style="stroke:#181818;stroke-width:0.5;" width="143.959" x="781.0609" y="853.9668"/><ellipse cx="796.0609" cy="869.9668" fill="#ADD1B2" rx="11" ry="11" style="stroke:#181818;stroke-width:1;"/><path d="M798.534,876.1099 Q797.953,876.4087 797.3138,876.5581 Q796.6746,876.7075 795.9691,876.7075 Q793.4622,876.7075 792.1424,875.0557 Q790.8226,873.4038 790.8226,870.2827 Q790.8226,867.1533 792.1424,865.5015 Q793.4622,863.8496 795.9691,863.8496 Q796.6746,863.8496 797.3221,863.999 Q797.9696,864.1484 798.534,864.4473 L798.534,867.1699 Q797.9032,866.5889 797.3097,866.3191 Q796.7161,866.0493 796.0853,866.0493 Q794.7406,866.0493 794.0557,867.116 Q793.3709,868.1826 793.3709,870.2827 Q793.3709,872.3745 794.0557,873.4412 Q794.7406,874.5078 796.0853,874.5078 Q796.7161,874.5078 797.3097,874.238 Q797.9032,873.9683 798.534,873.3872 Z " fill="#000000"/><text fill="#000000" font-family="sans-serif" font-size="14" lengthAdjust="spacing" textLength="111.959" x="810.0609" y="875.2578">KnightGenerator</text></g><!--class DistanceGenerator--><g id="elem_DistanceGenerator"><rect codeLine="81" fill="#FDF5E6" height="32" id="DistanceGenerator" style="stroke:#181818;stroke-width:0.5;" width="157.7266" x="603.3343" y="853.9668"/><ellipse cx="618.3343" cy="869.9668" fill="#ADD1B2" rx="11" ry="11" style="stroke:#181818;stroke-width:1;"/><path d="M620.8075,876.1099 Q620.2264,876.4087 619.5872,876.5581 Q618.9481,876.7075 618.2425,876.7075 Q615.7357,876.7075 614.4159,875.0557 Q613.096,873.4038 613.096,870.2827 Q613.096,867.1533 614.4159,865.5015 Q615.7357,863.8496 618.2425,863.8496 Q618.9481,863.8496 619.5955,863.999 Q620.243,864.1484 620.8075,864.4473 L620.8075,867.1699 Q620.1766,866.5889 619.5831,866.3191 Q618.9896,866.0493 618.3587,866.0493 Q617.014,866.0493 616.3292,867.116 Q615.6444,868.1826 615.6444,870.2827 Q615.6444,872.3745 616.3292,873.4412 Q617.014,874.5078 618.3587,874.5078 Q618.9896,874.5078 619.5831,874.238 Q620.1766,873.9683 620.8075,873.3872 Z " fill="#000000"/><text fill="#000000" font-family="sans-serif" font-size="14" lengthAdjust="spacing" textLength="125.7266" x="632.3343" y="875.2578">DistanceGenerator</text></g><!--class PawnDistanceGenerator--><g id="elem_PawnDistanceGenerator"><rect codeLine="82" fill="#FDF5E6" height="32" id="PawnDistanceGenerator" style="stroke:#181818;stroke-width:0.5;" width="192.6719" x="559.5739" y="979.8984"/><ellipse cx="574.5739" cy="995.8984" fill="#ADD1B2" rx="11" ry="11" style="stroke:#181818;stroke-width:1;"/><path d="M577.047,1002.0415 Q576.466,1002.3403 575.8268,1002.4897 Q575.1877,1002.6392 574.4821,1002.6392 Q571.9753,1002.6392 570.6554,1000.9873 Q569.3356,999.3354 569.3356,996.2144 Q569.3356,993.085 570.6554,991.4331 Q571.9753,989.7813 574.4821,989.7813 Q575.1877,989.7813 575.8351,989.9307 Q576.4826,990.0801 577.047,990.3789 L577.047,993.1016 Q576.4162,992.5205 575.8227,992.2507 Q575.2292,991.981 574.5983,991.981 Q573.2536,991.981 572.5688,993.0476 Q571.884,994.1143 571.884,996.2144 Q571.884,998.3062 572.5688,999.3728 Q573.2536,1000.4395 574.5983,1000.4395 Q575.2292,1000.4395 575.8227,1000.1697 Q576.4162,999.8999 577.047,999.3188 Z " fill="#000000"/><text fill="#000000" font-family="sans-serif" font-size="14" lengthAdjust="spacing" textLength="160.6719" x="588.5739" y="1001.1895">PawnDistanceGenerator</text></g><!--class Direction--><g id="elem_Direction"><rect codeLine="84" fill="#FDF5E6" height="171.9063" id="Direction" style="stroke:#181818;stroke-width:0.5;" width="146.1963" x="785.6535" y="1105.8301"/><ellipse cx="824.2301" cy="1121.8301" fill="#EB937F" rx="11" ry="11" style="stroke:#181818;stroke-width:1;"/><path d="M827.8444,1128.3301 L820.1247,1128.3301 L820.1247,1115.937 L827.8444,1115.937 L827.8444,1118.0952 L822.5734,1118.0952 L822.5734,1120.7681 L827.3464,1120.7681 L827.3464,1122.9263 L822.5734,1122.9263 L822.5734,1126.1719 L827.8444,1126.1719 Z " fill="#000000"/><text fill="#000000" font-family="sans-serif" font-size="14" lengthAdjust="spacing" textLength="61.8037" x="843.4694" y="1127.1211">Direction</text><line style="stroke:#181818;stroke-width:0.5;" x1="786.6535" x2="930.8498" y1="1137.8301" y2="1137.8301"/><text fill="#000000" font-family="sans-serif" font-size="14" lengthAdjust="spacing" textLength="75.749" x="791.6535" y="1155.3652">FORWARDS</text><text fill="#000000" font-family="sans-serif" font-size="14" lengthAdjust="spacing" textLength="85.0527" x="791.6535" y="1171.8535">BACKWARDS</text><text fill="#000000" font-family="sans-serif" font-size="14" lengthAdjust="spacing" textLength="31.4111" x="791.6535" y="1188.3418">LEFT</text><text fill="#000000" font-family="sans-serif" font-size="14" lengthAdjust="spacing" textLength="42.1436" x="791.6535" y="1204.8301">RIGHT</text><text fill="#000000" font-family="sans-serif" font-size="14" lengthAdjust="spacing" textLength="114.1602" x="791.6535" y="1221.3184">FORWARDS_LEFT</text><text fill="#000000" font-family="sans-serif" font-size="14" lengthAdjust="spacing" textLength="124.8926" x="791.6535" y="1237.8066">FORWARDS_RIGHT</text><text fill="#000000" font-family="sans-serif" font-size="14" lengthAdjust="spacing" textLength="123.4639" x="791.6535" y="1254.2949">BACKWARDS_LEFT</text><text fill="#000000" font-family="sans-serif" font-size="14" lengthAdjust="spacing" textLength="134.1963" x="791.6535" y="1270.7832">BACKWARDS_RIGHT</text></g><!--class Moves--><g id="elem_Moves"><rect codeLine="96" fill="#FDF5E6" height="32" id="Moves" style="stroke:#181818;stroke-width:0.5;" width="74.8408" x="536.8833" y="12"/><ellipse cx="551.8833" cy="28" fill="#ADD1B2" rx="11" ry="11" style="stroke:#181818;stroke-width:1;"/><path d="M554.3564,34.1431 Q553.7754,34.4419 553.1362,34.5913 Q552.4971,34.7407 551.7915,34.7407 Q549.2847,34.7407 547.9648,33.0889 Q546.645,31.437 546.645,28.3159 Q546.645,25.1865 547.9648,23.5347 Q549.2847,21.8828 551.7915,21.8828 Q552.4971,21.8828 553.1445,22.0322 Q553.792,22.1816 554.3564,22.4805 L554.3564,25.2031 Q553.7256,24.6221 553.1321,24.3523 Q552.5386,24.0825 551.9077,24.0825 Q550.563,24.0825 549.8782,25.1492 Q549.1934,26.2158 549.1934,28.3159 Q549.1934,30.4077 549.8782,31.4744 Q550.563,32.541 551.9077,32.541 Q552.5386,32.541 553.1321,32.2712 Q553.7256,32.0015 554.3564,31.4204 Z " fill="#000000"/><text fill="#000000" font-family="sans-serif" font-size="14" lengthAdjust="spacing" textLength="42.8408" x="565.8833" y="33.291">Moves</text></g><!--class ChessMove--><g id="elem_ChessMove"><rect codeLine="98" fill="#FDF5E6" height="32" id="ChessMove" style="stroke:#181818;stroke-width:0.5;" width="108.1523" x="520.2275" y="137.9316"/><ellipse cx="535.2275" cy="153.9316" fill="#A9DCDF" rx="11" ry="11" style="stroke:#181818;stroke-width:1;"/><path d="M535.0908,149.2798 L533.937,154.3516 L536.2529,154.3516 Z M533.5967,147.0386 L536.5933,147.0386 L539.9385,159.4316 L537.4897,159.4316 L536.7261,156.3687 L533.4473,156.3687 L532.7002,159.4316 L530.2515,159.4316 Z " fill="#000000"/><text fill="#000000" font-family="sans-serif" font-size="14" font-style="italic" lengthAdjust="spacing" textLength="76.1523" x="549.2275" y="159.2227">ChessMove</text></g><!--class StandardMove--><g id="elem_StandardMove"><rect codeLine="100" fill="#FDF5E6" height="32" id="StandardMove" style="stroke:#181818;stroke-width:0.5;" width="127.9834" x="510.312" y="243.0124"/><ellipse cx="525.312" cy="259.0124" fill="#ADD1B2" rx="11" ry="11" style="stroke:#181818;stroke-width:1;"/><path d="M527.7852,265.1554 Q527.2041,265.4543 526.5649,265.6037 Q525.9258,265.7531 525.2202,265.7531 Q522.7134,265.7531 521.3936,264.1012 Q520.0737,262.4494 520.0737,259.3283 Q520.0737,256.1989 521.3936,254.547 Q522.7134,252.8952 525.2202,252.8952 Q525.9258,252.8952 526.5732,253.0446 Q527.2207,253.194 527.7852,253.4928 L527.7852,256.2155 Q527.1543,255.6344 526.5608,255.3647 Q525.9673,255.0949 525.3364,255.0949 Q523.9917,255.0949 523.3069,256.1615 Q522.6221,257.2282 522.6221,259.3283 Q522.6221,261.4201 523.3069,262.4867 Q523.9917,263.5534 525.3364,263.5534 Q525.9673,263.5534 526.5608,263.2836 Q527.1543,263.0138 527.7852,262.4328 Z " fill="#000000"/><text fill="#000000" font-family="sans-serif" font-size="14" lengthAdjust="spacing" textLength="95.9834" x="539.312" y="264.3034">StandardMove</text></g><!--class Capture--><g id="elem_Capture"><rect codeLine="101" fill="#FDF5E6" height="32" id="Capture" style="stroke:#181818;stroke-width:0.5;" width="85.6826" x="62.1279" y="245.8975"/><ellipse cx="77.1279" cy="261.8975" fill="#ADD1B2" rx="11" ry="11" style="stroke:#181818;stroke-width:1;"/><path d="M79.6011,268.0405 Q79.02,268.3394 78.3809,268.4888 Q77.7417,268.6382 77.0361,268.6382 Q74.5293,268.6382 73.2095,266.9863 Q71.8896,265.3345 71.8896,262.2134 Q71.8896,259.084 73.2095,257.4321 Q74.5293,255.7803 77.0361,255.7803 Q77.7417,255.7803 78.3892,255.9297 Q79.0366,256.0791 79.6011,256.3779 L79.6011,259.1006 Q78.9702,258.5195 78.3767,258.2498 Q77.7832,257.98 77.1523,257.98 Q75.8076,257.98 75.1228,259.0466 Q74.438,260.1133 74.438,262.2134 Q74.438,264.3052 75.1228,265.3718 Q75.8076,266.4385 77.1523,266.4385 Q77.7832,266.4385 78.3767,266.1687 Q78.9702,265.8989 79.6011,265.3179 Z " fill="#000000"/><text fill="#000000" font-family="sans-serif" font-size="14" lengthAdjust="spacing" textLength="53.6826" x="91.1279" y="267.1885">Capture</text></g><!--class EnPassant--><g id="elem_EnPassant"><rect codeLine="102" fill="#FDF5E6" height="32" id="EnPassant" style="stroke:#181818;stroke-width:0.5;" width="99.6758" x="624.127" y="373.1738"/><ellipse cx="639.127" cy="389.1738" fill="#ADD1B2" rx="11" ry="11" style="stroke:#181818;stroke-width:1;"/><path d="M641.6001,395.3169 Q641.019,395.6157 640.3799,395.7651 Q639.7407,395.9146 639.0352,395.9146 Q636.5283,395.9146 635.2085,394.2627 Q633.8887,392.6108 633.8887,389.4897 Q633.8887,386.3604 635.2085,384.7085 Q636.5283,383.0566 639.0352,383.0566 Q639.7407,383.0566 640.3882,383.2061 Q641.0356,383.3555 641.6001,383.6543 L641.6001,386.377 Q640.9692,385.7959 640.3757,385.5261 Q639.7822,385.2563 639.1514,385.2563 Q637.8066,385.2563 637.1218,386.323 Q636.437,387.3896 636.437,389.4897 Q636.437,391.5815 637.1218,392.6482 Q637.8066,393.7148 639.1514,393.7148 Q639.7822,393.7148 640.3757,393.4451 Q640.9692,393.1753 641.6001,392.5942 Z " fill="#000000"/><text fill="#000000" font-family="sans-serif" font-size="14" lengthAdjust="spacing" textLength="67.6758" x="653.127" y="394.4648">EnPassant</text></g><!--class Castling--><g id="elem_Castling"><rect codeLine="103" fill="#FDF5E6" height="32" id="Castling" style="stroke:#181818;stroke-width:0.5;" width="87.3027" x="249.2301" y="243.0124"/><ellipse cx="264.2301" cy="259.0124" fill="#A9DCDF" rx="11" ry="11" style="stroke:#181818;stroke-width:1;"/><path d="M264.0934,254.3605 L262.9396,259.4323 L265.2555,259.4323 Z M262.5993,252.1193 L265.5959,252.1193 L268.9411,264.5124 L266.4924,264.5124 L265.7287,261.4494 L262.4499,261.4494 L261.7028,264.5124 L259.2541,264.5124 Z " fill="#000000"/><text fill="#000000" font-family="sans-serif" font-size="14" font-style="italic" lengthAdjust="spacing" textLength="55.3027" x="278.2301" y="264.3034">Castling</text></g><!--class LongCastling--><g id="elem_LongCastling"><rect codeLine="104" fill="#FDF5E6" height="32" id="LongCastling" style="stroke:#181818;stroke-width:0.5;" width="120.7852" x="217.9385" y="373.1738"/><ellipse cx="232.9385" cy="389.1738" fill="#ADD1B2" rx="11" ry="11" style="stroke:#181818;stroke-width:1;"/><path d="M235.4116,395.3169 Q234.8306,395.6157 234.1914,395.7651 Q233.5522,395.9146 232.8467,395.9146 Q230.3398,395.9146 229.02,394.2627 Q227.7002,392.6108 227.7002,389.4897 Q227.7002,386.3604 229.02,384.7085 Q230.3398,383.0566 232.8467,383.0566 Q233.5522,383.0566 234.1997,383.2061 Q234.8472,383.3555 235.4116,383.6543 L235.4116,386.377 Q234.7808,385.7959 234.1873,385.5261 Q233.5938,385.2563 232.9629,385.2563 Q231.6182,385.2563 230.9333,386.323 Q230.2485,387.3896 230.2485,389.4897 Q230.2485,391.5815 230.9333,392.6482 Q231.6182,393.7148 232.9629,393.7148 Q233.5938,393.7148 234.1873,393.4451 Q234.7808,393.1753 235.4116,392.5942 Z " fill="#000000"/><text fill="#000000" font-family="sans-serif" font-size="14" lengthAdjust="spacing" textLength="88.7852" x="246.9385" y="394.4648">LongCastling</text></g><!--class ShortCastling--><g id="elem_ShortCastling"><rect codeLine="105" fill="#FDF5E6" height="32" id="ShortCastling" style="stroke:#181818;stroke-width:0.5;" width="123.0957" x="358.7236" y="373.1738"/><ellipse cx="373.7236" cy="389.1738" fill="#ADD1B2" rx="11" ry="11" style="stroke:#181818;stroke-width:1;"/><path d="M376.1968,395.3169 Q375.6157,395.6157 374.9766,395.7651 Q374.3374,395.9146 373.6318,395.9146 Q371.125,395.9146 369.8052,394.2627 Q368.4854,392.6108 368.4854,389.4897 Q368.4854,386.3604 369.8052,384.7085 Q371.125,383.0566 373.6318,383.0566 Q374.3374,383.0566 374.9849,383.2061 Q375.6323,383.3555 376.1968,383.6543 L376.1968,386.377 Q375.5659,385.7959 374.9724,385.5261 Q374.3789,385.2563 373.748,385.2563 Q372.4033,385.2563 371.7185,386.323 Q371.0337,387.3896 371.0337,389.4897 Q371.0337,391.5815 371.7185,392.6482 Q372.4033,393.7148 373.748,393.7148 Q374.3789,393.7148 374.9724,393.4451 Q375.5659,393.1753 376.1968,392.5942 Z " fill="#000000"/><text fill="#000000" font-family="sans-serif" font-size="14" lengthAdjust="spacing" textLength="91.0957" x="387.7236" y="394.4648">ShortCastling</text></g><!--class Promotion--><g id="elem_Promotion"><rect codeLine="106" fill="#FDF5E6" height="32" id="Promotion" style="stroke:#181818;stroke-width:0.5;" width="102.3076" x="501.8193" y="373.1738"/><ellipse cx="516.8193" cy="389.1738" fill="#ADD1B2" rx="11" ry="11" style="stroke:#181818;stroke-width:1;"/><path d="M519.2925,395.3169 Q518.7114,395.6157 518.0723,395.7651 Q517.4331,395.9146 516.7275,395.9146 Q514.2207,395.9146 512.9009,394.2627 Q511.5811,392.6108 511.5811,389.4897 Q511.5811,386.3604 512.9009,384.7085 Q514.2207,383.0566 516.7275,383.0566 Q517.4331,383.0566 518.0806,383.2061 Q518.728,383.3555 519.2925,383.6543 L519.2925,386.377 Q518.6616,385.7959 518.0681,385.5261 Q517.4746,385.2563 516.8438,385.2563 Q515.499,385.2563 514.8142,386.323 Q514.1294,387.3896 514.1294,389.4897 Q514.1294,391.5815 514.8142,392.6482 Q515.499,393.7148 516.8438,393.7148 Q517.4746,393.7148 518.0681,393.4451 Q518.6616,393.1753 519.2925,392.5942 Z " fill="#000000"/><text fill="#000000" font-family="sans-serif" font-size="14" lengthAdjust="spacing" textLength="70.3076" x="530.8193" y="394.4648">Promotion</text></g><!--class PromotionWithCapture--><g id="elem_PromotionWithCapture"><rect codeLine="107" fill="#FDF5E6" height="32" id="PromotionWithCapture" style="stroke:#181818;stroke-width:0.5;" width="185.9385" x="12" y="373.1738"/><ellipse cx="27" cy="389.1738" fill="#ADD1B2" rx="11" ry="11" style="stroke:#181818;stroke-width:1;"/><path d="M29.4731,395.3169 Q28.8921,395.6157 28.2529,395.7651 Q27.6138,395.9146 26.9082,395.9146 Q24.4014,395.9146 23.0815,394.2627 Q21.7617,392.6108 21.7617,389.4897 Q21.7617,386.3604 23.0815,384.7085 Q24.4014,383.0566 26.9082,383.0566 Q27.6138,383.0566 28.2612,383.2061 Q28.9087,383.3555 29.4731,383.6543 L29.4731,386.377 Q28.8423,385.7959 28.2488,385.5261 Q27.6553,385.2563 27.0244,385.2563 Q25.6797,385.2563 24.9949,386.323 Q24.3101,387.3896 24.3101,389.4897 Q24.3101,391.5815 24.9949,392.6482 Q25.6797,393.7148 27.0244,393.7148 Q27.6553,393.7148 28.2488,393.4451 Q28.8423,393.1753 29.4731,392.5942 Z " fill="#000000"/><text fill="#000000" font-family="sans-serif" font-size="14" lengthAdjust="spacing" textLength="153.9385" x="41" y="394.4648">PromotionWithCapture</text></g><line style="stroke:#181818;stroke-width:1;stroke-dasharray:7.0,7.0;" x1="1227.7219" x2="1227.7219" y1="169.9316" y2="197.2422"/><line style="stroke:#181818;stroke-width:1;stroke-dasharray:7.0,7.0;" x1="1227.7219" x2="1250.8467" y1="197.2422" y2="197.2422"/><line style="stroke:#181818;stroke-width:1;stroke-dasharray:7.0,7.0;" x1="1250.8467" x2="1250.8467" y1="197.2422" y2="237.2422"/><polygon fill="#FFFFFF" points="1227.7219,169.9316,1220.7219,188.9316,1234.7219,188.9316,1227.7219,169.9316" style="stroke:#181818;stroke-width:1;"/><line style="stroke:#181818;stroke-width:1;stroke-dasharray:7.0,7.0;" x1="1040.4019" x2="1040.4019" y1="269.2422" y2="335.8633"/><line style="stroke:#181818;stroke-width:1;stroke-dasharray:7.0,7.0;" x1="1040.4019" x2="975.9029" y1="335.8633" y2="335.8633"/><line style="stroke:#181818;stroke-width:1;stroke-dasharray:7.0,7.0;" x1="975.9029" x2="975.9029" y1="335.8633" y2="373.1738"/><polygon fill="#FFFFFF" points="1040.4019,269.2422,1033.4019,288.2422,1047.4019,288.2422,1040.4019,269.2422" style="stroke:#181818;stroke-width:1;"/><line style="stroke:#181818;stroke-width:1;stroke-dasharray:7.0,7.0;" x1="924.0196" x2="924.0196" y1="269.2422" y2="296.5527"/><line style="stroke:#181818;stroke-width:1;stroke-dasharray:7.0,7.0;" x1="924.0196" x2="948.0599" y1="296.5527" y2="296.5527"/><line style="stroke:#181818;stroke-width:1;stroke-dasharray:7.0,7.0;" x1="948.0599" x2="948.0599" y1="296.5527" y2="373.1738"/><polygon fill="#FFFFFF" points="924.0196,269.2422,917.0196,288.2422,931.0196,288.2422,924.0196,269.2422" style="stroke:#181818;stroke-width:1;"/><line style="stroke:#181818;stroke-width:1;stroke-dasharray:7.0,7.0;" x1="899.2169" x2="899.2169" y1="269.2422" y2="519.1055"/><polygon fill="#FFFFFF" points="899.2169,269.2422,892.2169,288.2422,906.2169,288.2422,899.2169,269.2422" style="stroke:#181818;stroke-width:1;"/><line style="stroke:#181818;stroke-width:1;" x1="955.2665" x2="955.2665" y1="551.1055" y2="578.416"/><line style="stroke:#181818;stroke-width:1;" x1="955.2665" x2="1264.8467" y1="578.416" y2="578.416"/><line style="stroke:#181818;stroke-width:1;" x1="1264.8467" x2="1264.8467" y1="578.416" y2="730.5534"/><polygon fill="#FFFFFF" points="955.2665,551.1055,948.2665,570.1055,962.2665,570.1055,955.2665,551.1055" style="stroke:#181818;stroke-width:1;"/><line style="stroke:#181818;stroke-width:1;stroke-dasharray:7.0,7.0;" x1="1326.3022" x2="1326.3022" y1="551.1055" y2="730.5534"/><polygon fill="#FFFFFF" points="1326.3022,551.1055,1319.3022,570.1055,1333.3022,570.1055,1326.3022,551.1055" style="stroke:#181818;stroke-width:1;"/><line style="stroke:#181818;stroke-width:1;" x1="878.8352" x2="878.8352" y1="551.1055" y2="578.416"/><line style="stroke:#181818;stroke-width:1;" x1="878.8352" x2="612.6668" y1="578.416" y2="578.416"/><line style="stroke:#181818;stroke-width:1;" x1="612.6668" x2="612.6668" y1="578.416" y2="665.0371"/><polygon fill="#FFFFFF" points="878.8352,551.1055,871.8352,570.1055,885.8352,570.1055,878.8352,551.1055" style="stroke:#181818;stroke-width:1;"/><line style="stroke:#181818;stroke-width:1;" x1="1277.1378" x2="1277.1378" y1="762.5534" y2="853.9668"/><polygon fill="#FFFFFF" points="1277.1378,762.5534,1270.1378,781.5534,1284.1378,781.5534,1277.1378,762.5534" style="stroke:#181818;stroke-width:1;"/><line style="stroke:#181818;stroke-width:1;" x1="1240.2646" x2="1240.2646" y1="762.5534" y2="813.9668"/><line style="stroke:#181818;stroke-width:1;" x1="1240.2646" x2="1185.756" y1="813.9668" y2="813.9668"/><line style="stroke:#181818;stroke-width:1;" x1="1185.756" x2="1185.756" y1="813.9668" y2="853.9668"/><polygon fill="#FFFFFF" points="1240.2646,762.5534,1233.2646,781.5534,1247.2646,781.5534,1240.2646,762.5534" style="stroke:#181818;stroke-width:1;"/><line style="stroke:#181818;stroke-width:1;" x1="1314.0111" x2="1314.0111" y1="762.5534" y2="823.9668"/><line style="stroke:#181818;stroke-width:1;" x1="1314.0111" x2="1368.923" y1="823.9668" y2="823.9668"/><line style="stroke:#181818;stroke-width:1;" x1="1368.923" x2="1368.923" y1="823.9668" y2="853.9668"/><polygon fill="#FFFFFF" points="1314.0111,762.5534,1307.0111,781.5534,1321.0111,781.5534,1314.0111,762.5534" style="stroke:#181818;stroke-width:1;"/><line style="stroke:#181818;stroke-width:1;" x1="1350.8843" x2="1350.8843" y1="762.5534" y2="813.9668"/><line style="stroke:#181818;stroke-width:1;" x1="1350.8843" x2="1465.5172" y1="813.9668" y2="813.9668"/><line style="stroke:#181818;stroke-width:1;" x1="1465.5172" x2="1465.5172" y1="813.9668" y2="853.9668"/><polygon fill="#FFFFFF" points="1350.8843,762.5534,1343.8843,781.5534,1357.8843,781.5534,1350.8843,762.5534" style="stroke:#181818;stroke-width:1;"/><line style="stroke:#181818;stroke-width:1;" x1="924.694" x2="924.694" y1="551.1055" y2="598.416"/><line style="stroke:#181818;stroke-width:1;" x1="924.694" x2="971.9095" y1="598.416" y2="598.416"/><line style="stroke:#181818;stroke-width:1;" x1="971.9095" x2="971.9095" y1="598.416" y2="665.0371"/><polygon fill="#FFFFFF" points="924.694,551.1055,917.694,570.1055,931.694,570.1055,924.694,551.1055" style="stroke:#181818;stroke-width:1;"/><line style="stroke:#181818;stroke-width:1;stroke-dasharray:7.0,7.0;" x1="874.4141" x2="874.4141" y1="269.2422" y2="296.5527"/><line style="stroke:#181818;stroke-width:1;stroke-dasharray:7.0,7.0;" x1="874.4141" x2="830.5181" y1="296.5527" y2="296.5527"/><line style="stroke:#181818;stroke-width:1;stroke-dasharray:7.0,7.0;" x1="830.5181" x2="830.5181" y1="296.5527" y2="722.2707"/><polygon fill="#FFFFFF" points="874.4141,269.2422,867.4141,288.2422,881.4141,288.2422,874.4141,269.2422" style="stroke:#181818;stroke-width:1;"/><line style="stroke:#181818;stroke-width:1;" x1="886.8238" x2="886.8238" y1="754.2707" y2="813.9668"/><line style="stroke:#181818;stroke-width:1;" x1="886.8238" x2="948.0199" y1="813.9668" y2="813.9668"/><line style="stroke:#181818;stroke-width:1;" x1="948.0199" x2="948.0199" y1="813.9668" y2="952.5879"/><line style="stroke:#181818;stroke-width:1;" x1="948.0199" x2="887.5869" y1="952.5879" y2="952.5879"/><line style="stroke:#181818;stroke-width:1;" x1="887.5869" x2="887.5869" y1="952.5879" y2="979.8984"/><polygon fill="#FFFFFF" points="886.8238,754.2707,879.8238,773.2707,893.8238,773.2707,886.8238,754.2707" style="stroke:#181818;stroke-width:1;"/><line style="stroke:#181818;stroke-width:1;" x1="853.0404" x2="853.0404" y1="754.2707" y2="853.9668"/><polygon fill="#FFFFFF" points="853.0404,754.2707,846.0404,773.2707,860.0404,773.2707,853.0404,754.2707" style="stroke:#181818;stroke-width:1;"/><line style="stroke:#181818;stroke-width:1;" x1="819.2569" x2="819.2569" y1="754.2707" y2="813.9668"/><line style="stroke:#181818;stroke-width:1;" x1="819.2569" x2="682.1976" y1="813.9668" y2="813.9668"/><line style="stroke:#181818;stroke-width:1;" x1="682.1976" x2="682.1976" y1="813.9668" y2="853.9668"/><polygon fill="#FFFFFF" points="819.2569,754.2707,812.2569,773.2707,826.2569,773.2707,819.2569,754.2707" style="stroke:#181818;stroke-width:1;"/><line style="stroke:#181818;stroke-width:1;" x1="655.9098" x2="655.9098" y1="885.9668" y2="979.8984"/><polygon fill="#FFFFFF" points="655.9098,885.9668,648.9098,904.9668,662.9098,904.9668,655.9098,885.9668" style="stroke:#181818;stroke-width:1;"/><line style="stroke:#181818;stroke-width:1;" x1="574.3037" x2="574.3037" y1="169.9316" y2="243.0124"/><polygon fill="#FFFFFF" points="574.3037,169.9316,567.3037,188.9316,581.3037,188.9316,574.3037,169.9316" style="stroke:#181818;stroke-width:1;"/><line style="stroke:#181818;stroke-width:1;" x1="538.2529" x2="538.2529" y1="169.9316" y2="197.2422"/><line style="stroke:#181818;stroke-width:1;" x1="538.2529" x2="104.9692" y1="197.2422" y2="197.2422"/><line style="stroke:#181818;stroke-width:1;" x1="104.9692" x2="104.9692" y1="197.2422" y2="245.8975"/><polygon fill="#FFFFFF" points="538.2529,169.9316,531.2529,188.9316,545.2529,188.9316,538.2529,169.9316" style="stroke:#181818;stroke-width:1;"/><line style="stroke:#181818;stroke-width:1;" x1="595.6343" x2="595.6343" y1="275.0124" y2="296.5527"/><line style="stroke:#181818;stroke-width:1;" x1="595.6343" x2="673.9648" y1="296.5527" y2="296.5527"/><line style="stroke:#181818;stroke-width:1;" x1="673.9648" x2="673.9648" y1="296.5527" y2="373.1738"/><polygon fill="#FFFFFF" points="595.6343,275.0124,588.6343,294.0124,602.6343,294.0124,595.6343,275.0124" style="stroke:#181818;stroke-width:1;"/><line style="stroke:#181818;stroke-width:1;" x1="556.2783" x2="556.2783" y1="169.9316" y2="207.2422"/><line style="stroke:#181818;stroke-width:1;" x1="556.2783" x2="292.8815" y1="207.2422" y2="207.2422"/><line style="stroke:#181818;stroke-width:1;" x1="292.8815" x2="292.8815" y1="207.2422" y2="243.0124"/><polygon fill="#FFFFFF" points="556.2783,169.9316,549.2783,188.9316,563.2783,188.9316,556.2783,169.9316" style="stroke:#181818;stroke-width:1;"/><line style="stroke:#181818;stroke-width:1;" x1="278.3311" x2="278.3311" y1="275.0124" y2="373.1738"/><polygon fill="#FFFFFF" points="278.3311,275.0124,271.3311,294.0124,285.3311,294.0124,278.3311,275.0124" style="stroke:#181818;stroke-width:1;"/><line style="stroke:#181818;stroke-width:1;" x1="307.432" x2="307.432" y1="275.0124" y2="296.5527"/><line style="stroke:#181818;stroke-width:1;" x1="307.432" x2="420.2715" y1="296.5527" y2="296.5527"/><line style="stroke:#181818;stroke-width:1;" x1="420.2715" x2="420.2715" y1="296.5527" y2="373.1738"/><polygon fill="#FFFFFF" points="307.432,275.0124,300.432,294.0124,314.432,294.0124,307.432,275.0124" style="stroke:#181818;stroke-width:1;"/><line style="stroke:#181818;stroke-width:1;" x1="552.9731" x2="552.9731" y1="275.0124" y2="373.1738"/><polygon fill="#FFFFFF" points="552.9731,275.0124,545.9731,294.0124,559.9731,294.0124,552.9731,275.0124" style="stroke:#181818;stroke-width:1;"/><line style="stroke:#181818;stroke-width:1;" x1="104.9692" x2="104.9692" y1="277.8975" y2="373.1738"/><polygon fill="#FFFFFF" points="104.9692,277.8975,97.9692,296.8975,111.9692,296.8975,104.9692,277.8975" style="stroke:#181818;stroke-width:1;"/><line style="stroke:#181818;stroke-width:1;" x1="1180.8521" x2="1180.8521" y1="169.9316" y2="471.7949"/><line style="stroke:#181818;stroke-width:1;" x1="1180.8521" x2="1060.2623" y1="471.7949" y2="471.7949"/><line style="stroke:#181818;stroke-width:1;" x1="1060.2623" x2="1060.2623" y1="471.7949" y2="519.1055"/><polygon fill="#181818" points="1060.2623,519.1055,1064.2623,510.1055,1060.2623,514.1055,1056.2623,510.1055,1060.2623,519.1055" style="stroke:#181818;stroke-width:1;"/><text fill="#000000" font-family="sans-serif" font-size="13" lengthAdjust="spacing" textLength="49.9116" x="1126.9405" y="321.1211">manage</text><text fill="#000000" font-family="sans-serif" font-size="13" lengthAdjust="spacing" textLength="8.2202" x="1183.8521" y="184.5">1</text><text fill="#000000" font-family="sans-serif" font-size="13" lengthAdjust="spacing" textLength="8.2202" x="1063.2623" y="514.3633">1</text><line style="stroke:#181818;stroke-width:1;" x1="1221.3494" x2="1221.3494" y1="269.2422" y2="296.5527"/><line style="stroke:#181818;stroke-width:1;" x1="1221.3494" x2="1113.9405" y1="296.5527" y2="296.5527"/><line style="stroke:#181818;stroke-width:1;" x1="1113.9405" x2="1113.9405" y1="296.5527" y2="345.8633"/><line style="stroke:#181818;stroke-width:1;" x1="1113.9405" x2="1003.7459" y1="345.8633" y2="345.8633"/><line style="stroke:#181818;stroke-width:1;" x1="1003.7459" x2="1003.7459" y1="345.8633" y2="373.1738"/><polygon fill="#181818" points="1003.7459,373.1738,1007.7459,364.1738,1003.7459,368.1738,999.7459,364.1738,1003.7459,373.1738" style="stroke:#181818;stroke-width:1;"/><text fill="#000000" font-family="sans-serif" font-size="13" lengthAdjust="spacing" textLength="56.5386" x="1053.4019" y="321.1211">manages</text><text fill="#000000" font-family="sans-serif" font-size="13" lengthAdjust="spacing" textLength="8.2202" x="1224.3494" y="283.8105">1</text><text fill="#000000" font-family="sans-serif" font-size="13" lengthAdjust="spacing" textLength="8.2202" x="1006.7459" y="368.4316">1</text><line style="stroke:#181818;stroke-width:1;" x1="1250.8467" x2="1250.8467" y1="269.2422" y2="637.7266"/><line style="stroke:#181818;stroke-width:1;" x1="1250.8467" x2="1095.8921" y1="637.7266" y2="637.7266"/><line style="stroke:#181818;stroke-width:1;" x1="1095.8921" x2="1095.8921" y1="637.7266" y2="665.0371"/><polygon fill="#181818" points="1095.8921,665.0371,1099.8921,656.0371,1095.8921,660.0371,1091.8921,656.0371,1095.8921,665.0371" style="stroke:#181818;stroke-width:1;"/><text fill="#000000" font-family="sans-serif" font-size="13" lengthAdjust="spacing" textLength="51.5493" x="1195.2974" y="457.0527">hasTurn</text><text fill="#000000" font-family="sans-serif" font-size="13" lengthAdjust="spacing" textLength="8.2202" x="1253.8467" y="283.8105">1</text><text fill="#000000" font-family="sans-serif" font-size="13" lengthAdjust="spacing" textLength="8.2202" x="1098.8921" y="660.2949">1</text><line style="stroke:#181818;stroke-width:1;" x1="1280.3441" x2="1280.3441" y1="269.2422" y2="296.5527"/><line style="stroke:#181818;stroke-width:1;" x1="1280.3441" x2="1352.2198" y1="296.5527" y2="296.5527"/><line style="stroke:#181818;stroke-width:1;" x1="1352.2198" x2="1352.2198" y1="296.5527" y2="373.1738"/><polygon fill="#181818" points="1352.2198,373.1738,1356.2198,364.1738,1352.2198,368.1738,1348.2198,364.1738,1352.2198,373.1738" style="stroke:#181818;stroke-width:1;"/><text fill="#000000" font-family="sans-serif" font-size="13" lengthAdjust="spacing" textLength="84.373" x="1263.8467" y="321.1211">usesStatically</text><line style="stroke:#181818;stroke-width:1;" x1="1003.7459" x2="1003.7459" y1="405.1738" y2="432.4844"/><line style="stroke:#181818;stroke-width:1;" x1="1003.7459" x2="1025.5172" y1="432.4844" y2="432.4844"/><line style="stroke:#181818;stroke-width:1;" x1="1025.5172" x2="1025.5172" y1="432.4844" y2="519.1055"/><polygon fill="#181818" points="1025.5172,519.1055,1029.5172,510.1055,1025.5172,514.1055,1021.5172,510.1055,1025.5172,519.1055" style="stroke:#181818;stroke-width:1;"/><text fill="#000000" font-family="sans-serif" font-size="13" lengthAdjust="spacing" textLength="21.874" x="999.6431" y="457.0527">has</text><text fill="#000000" font-family="sans-serif" font-size="13" lengthAdjust="spacing" textLength="8.2202" x="1006.7459" y="419.7422">1</text><text fill="#000000" font-family="sans-serif" font-size="13" lengthAdjust="spacing" textLength="8.2202" x="1028.5172" y="514.3633">1</text><line style="stroke:#181818;stroke-width:1;" x1="975.9029" x2="975.9029" y1="405.1738" y2="471.7949"/><line style="stroke:#181818;stroke-width:1;" x1="975.9029" x2="934.8848" y1="471.7949" y2="471.7949"/><line style="stroke:#181818;stroke-width:1;" x1="934.8848" x2="934.8848" y1="471.7949" y2="519.1055"/><polygon fill="#181818" points="934.8848,519.1055,938.8848,510.1055,934.8848,514.1055,930.8848,510.1055,934.8848,519.1055" style="stroke:#181818;stroke-width:1;"/><text fill="#000000" font-family="sans-serif" font-size="13" lengthAdjust="spacing" textLength="53.2061" x="918.6968" y="457.0527">contains</text><text fill="#000000" font-family="sans-serif" font-size="13" lengthAdjust="spacing" textLength="8.2202" x="978.9029" y="419.7422">1</text><text fill="#000000" font-family="sans-serif" font-size="13" lengthAdjust="spacing" textLength="32.8872" x="937.8848" y="514.3633">2..32</text><line style="stroke:#181818;stroke-width:1;" x1="948.0599" x2="948.0599" y1="405.1738" y2="432.4844"/><line style="stroke:#181818;stroke-width:1;" x1="948.0599" x2="806.5181" y1="432.4844" y2="432.4844"/><line style="stroke:#181818;stroke-width:1;" x1="806.5181" x2="806.5181" y1="432.4844" y2="491.7949"/><line style="stroke:#181818;stroke-width:1;" x1="806.5181" x2="725.6205" y1="491.7949" y2="491.7949"/><line style="stroke:#181818;stroke-width:1;" x1="725.6205" x2="725.6205" y1="491.7949" y2="519.1055"/><polygon fill="#181818" points="725.6205,519.1055,729.6205,510.1055,725.6205,514.1055,721.6205,510.1055,725.6205,519.1055" style="stroke:#181818;stroke-width:1;"/><text fill="#000000" font-family="sans-serif" font-size="13" lengthAdjust="spacing" textLength="38.2446" x="764.2734" y="457.0527">tracks</text><text fill="#000000" font-family="sans-serif" font-size="13" lengthAdjust="spacing" textLength="8.2202" x="951.0599" y="419.7422">1</text><text fill="#000000" font-family="sans-serif" font-size="13" lengthAdjust="spacing" textLength="8.2202" x="728.6205" y="514.3633">2</text><line style="stroke:#181818;stroke-width:1;" x1="894.1214" x2="894.1214" y1="551.1055" y2="588.416"/><line style="stroke:#181818;stroke-width:1;" x1="894.1214" x2="715.8065" y1="588.416" y2="588.416"/><line style="stroke:#181818;stroke-width:1;" x1="715.8065" x2="715.8065" y1="588.416" y2="665.0371"/><polygon fill="#181818" points="715.8065,665.0371,719.8065,656.0371,715.8065,660.0371,711.8065,656.0371,715.8065,665.0371" style="stroke:#181818;stroke-width:1;"/><text fill="#000000" font-family="sans-serif" font-size="13" lengthAdjust="spacing" textLength="66.7329" x="645.0736" y="622.9844">represents</text><text fill="#000000" font-family="sans-serif" font-size="13" lengthAdjust="spacing" textLength="8.2202" x="897.1214" y="565.6738">1</text><text fill="#000000" font-family="sans-serif" font-size="13" lengthAdjust="spacing" textLength="8.2202" x="718.8065" y="660.2949">1</text><line style="stroke:#181818;stroke-width:1;" x1="939.9803" x2="939.9803" y1="551.1055" y2="588.416"/><line style="stroke:#181818;stroke-width:1;" x1="939.9803" x2="1059.5519" y1="588.416" y2="588.416"/><line style="stroke:#181818;stroke-width:1;" x1="1059.5519" x2="1059.5519" y1="588.416" y2="665.0371"/><polygon fill="#181818" points="1059.5519,665.0371,1063.5519,656.0371,1059.5519,660.0371,1055.5519,656.0371,1059.5519,665.0371" style="stroke:#181818;stroke-width:1;"/><text fill="#000000" font-family="sans-serif" font-size="13" lengthAdjust="spacing" textLength="66.1743" x="989.3776" y="622.9844">belongsTo</text><text fill="#000000" font-family="sans-serif" font-size="13" lengthAdjust="spacing" textLength="8.2202" x="942.9803" y="565.6738">1</text><text fill="#000000" font-family="sans-serif" font-size="13" lengthAdjust="spacing" textLength="8.2202" x="1062.5519" y="660.2949">1</text><line style="stroke:#181818;stroke-width:1;" x1="909.4077" x2="909.4077" y1="551.1055" y2="637.7266"/><line style="stroke:#181818;stroke-width:1;" x1="909.4077" x2="875.5627" y1="637.7266" y2="637.7266"/><line style="stroke:#181818;stroke-width:1;" x1="875.5627" x2="875.5627" y1="637.7266" y2="722.2707"/><polygon fill="#181818" points="875.5627,722.2707,879.5627,713.2707,875.5627,717.2707,871.5627,713.2707,875.5627,722.2707" style="stroke:#181818;stroke-width:1;"/><text fill="#000000" font-family="sans-serif" font-size="13" lengthAdjust="spacing" textLength="61.8896" x="843.5181" y="622.9844">generates</text><text fill="#000000" font-family="sans-serif" font-size="13" lengthAdjust="spacing" textLength="8.2202" x="912.4077" y="565.6738">1</text><text fill="#000000" font-family="sans-serif" font-size="13" lengthAdjust="spacing" textLength="22.7119" x="878.5627" y="717.5285">1..*</text><line style="stroke:#181818;stroke-width:1;" x1="858.7516" x2="858.7516" y1="1011.8984" y2="1105.8301"/><polygon fill="#181818" points="858.7516,1105.8301,862.7516,1096.8301,858.7516,1100.8301,854.7516,1096.8301,858.7516,1105.8301" style="stroke:#181818;stroke-width:1;"/><text fill="#000000" font-family="sans-serif" font-size="13" lengthAdjust="spacing" textLength="45.8999" x="808.8517" y="1063.7773">defines</text><text fill="#000000" font-family="sans-serif" font-size="13" lengthAdjust="spacing" textLength="6.2651" x="861.7516" y="1026.4668">*</text><text fill="#000000" font-family="sans-serif" font-size="13" lengthAdjust="spacing" textLength="22.7119" x="861.7516" y="1101.0879">1..*</text><line style="stroke:#181818;stroke-width:1;" x1="708.4854" x2="708.4854" y1="885.9668" y2="913.2773"/><line style="stroke:#181818;stroke-width:1;" x1="708.4854" x2="829.9163" y1="913.2773" y2="913.2773"/><line style="stroke:#181818;stroke-width:1;" x1="829.9163" x2="829.9163" y1="913.2773" y2="979.8984"/><polygon fill="#181818" points="829.9163,979.8984,833.9163,970.8984,829.9163,974.8984,825.9163,970.8984,829.9163,979.8984" style="stroke:#181818;stroke-width:1;"/><text fill="#000000" font-family="sans-serif" font-size="13" lengthAdjust="spacing" textLength="28.5645" x="797.3519" y="937.8457">uses</text><text fill="#000000" font-family="sans-serif" font-size="13" lengthAdjust="spacing" textLength="8.2202" x="711.4854" y="900.5352">1</text><text fill="#000000" font-family="sans-serif" font-size="13" lengthAdjust="spacing" textLength="22.7119" x="832.9163" y="975.1563">1..*</text><line style="stroke:#181818;stroke-width:1;" x1="592.3291" x2="592.3291" y1="169.9316" y2="207.2422"/><line style="stroke:#181818;stroke-width:1;" x1="592.3291" x2="740.2734" y1="207.2422" y2="207.2422"/><line style="stroke:#181818;stroke-width:1;" x1="740.2734" x2="740.2734" y1="207.2422" y2="471.7949"/><line style="stroke:#181818;stroke-width:1;" x1="740.2734" x2="691.1834" y1="471.7949" y2="471.7949"/><line style="stroke:#181818;stroke-width:1;" x1="691.1834" x2="691.1834" y1="471.7949" y2="519.1055"/><polygon fill="#181818" points="691.1834,519.1055,695.1834,510.1055,691.1834,514.1055,687.1834,510.1055,691.1834,519.1055" style="stroke:#181818;stroke-width:1;"/><text fill="#000000" font-family="sans-serif" font-size="13" lengthAdjust="spacing" textLength="49.3086" x="686.9648" y="321.1211">startsAt</text><text fill="#000000" font-family="sans-serif" font-size="13" lengthAdjust="spacing" textLength="8.2202" x="595.3291" y="184.5">1</text><text fill="#000000" font-family="sans-serif" font-size="13" lengthAdjust="spacing" textLength="8.2202" x="694.1834" y="514.3633">1</text><line style="stroke:#181818;stroke-width:1;" x1="610.3545" x2="610.3545" y1="169.9316" y2="197.2422"/><line style="stroke:#181818;stroke-width:1;" x1="610.3545" x2="751.2734" y1="197.2422" y2="197.2422"/><line style="stroke:#181818;stroke-width:1;" x1="751.2734" x2="751.2734" y1="197.2422" y2="481.7949"/><line style="stroke:#181818;stroke-width:1;" x1="751.2734" x2="708.402" y1="481.7949" y2="481.7949"/><line style="stroke:#181818;stroke-width:1;" x1="708.402" x2="708.402" y1="481.7949" y2="519.1055"/><polygon fill="#181818" points="708.402,519.1055,712.402,510.1055,708.402,514.1055,704.402,510.1055,708.402,519.1055" style="stroke:#181818;stroke-width:1;"/><text fill="#000000" font-family="sans-serif" font-size="13" lengthAdjust="spacing" textLength="43.9512" x="756.2734" y="321.1211">endsAt</text><text fill="#000000" font-family="sans-serif" font-size="13" lengthAdjust="spacing" textLength="8.2202" x="613.3545" y="184.5">1</text><text fill="#000000" font-family="sans-serif" font-size="13" lengthAdjust="spacing" textLength="8.2202" x="711.402" y="514.3633">1</text><line style="stroke:#181818;stroke-width:1;" x1="574.3037" x2="574.3037" y1="44" y2="137.9316"/><polygon fill="#181818" points="574.3037,137.9316,578.3037,128.9316,574.3037,132.9316,570.3037,128.9316,574.3037,137.9316" style="stroke:#181818;stroke-width:1;"/><text fill="#000000" font-family="sans-serif" font-size="13" lengthAdjust="spacing" textLength="52.3618" x="517.9419" y="95.8789">includes</text><text fill="#000000" font-family="sans-serif" font-size="13" lengthAdjust="spacing" textLength="8.2202" x="577.3037" y="58.5684">1</text><text fill="#000000" font-family="sans-serif" font-size="13" lengthAdjust="spacing" textLength="6.2651" x="577.3037" y="133.1895">*</text><line style="stroke:#181818;stroke-width:1;" x1="673.9648" x2="673.9648" y1="405.1738" y2="519.1055"/><polygon fill="#181818" points="673.9648,519.1055,677.9648,510.1055,673.9648,514.1055,669.9648,510.1055,673.9648,519.1055" style="stroke:#181818;stroke-width:1;"/><text fill="#000000" font-family="sans-serif" font-size="13" lengthAdjust="spacing" textLength="54.1392" x="615.8257" y="457.0527">captures</text><text fill="#000000" font-family="sans-serif" font-size="13" lengthAdjust="spacing" textLength="8.2202" x="676.9648" y="419.7422">1</text><text fill="#000000" font-family="sans-serif" font-size="13" lengthAdjust="spacing" textLength="8.2202" x="676.9648" y="514.3633">1</text><!--SRC=[bPP9Rziu5CVl-XGSpQ50CFNCT6v6O21UuXZsnAxjZ8y5BRr8X2bI8Abct2BVlLoqBuMhWosHl_yZty8d_POA72KOKNpbcK90BrvCGa2GfEgA4b0n3sLz22ibo3bJ83rv8Ip50YU84WRgcWBYGWjg4u9dB9nnmK2WlshZ0SLIFXIcLW5d1_8D6iZC85CSNABS2EK2_RwbuGO7KEEUkO8Ri4ECG_v6M8HUCPNWAPuYnT6PAyKJ5181WIASUTwzL5SA4m_fosvpJd1aB7otG-OQfO9_rI49QsFcQczZ6NEfJZ5HqC0sEbeEc9DaAU3Qc7taJFNFldlkz_xFV8ikB_VtnNOc4oGL2E0c5vv7c7vurM50inYad6d3WbCAeg7u_budNoI8MSn901te0wemVoxm6pvJs8FacT3qOk8t5Pf_x-pXFm9lFORnMIg10-K2Zlmfbc3HjbMIf1GIO4fMzegbFkJgvSkgimpyhu25BSjjeGwGv1H-JPnBpMOMBDAPxUonYdihrdPsoh48dHlDISePc0XtmbLRqOex2vOc_wYiM6Khp1MyOaGHJB_bMtJJEow9EH9s25YMe9tk4heyJ76sScqAy_IqEYxitNJpC5jxfOf004TTaJsQtSFfsTxijzkrlLa_hvPFHsTcTNZQxkpjvvV5me7hrVFI6_35hjG8Hztzbc8dUCALcQnfYrJtcwiEXx6Ncy5lh4zM0dlEBoNGksY9hXc9OdKZF2KorZtiDlXp1i1ktOLfalqUTSB-B_yAIz3T7IlTi8OYxzXvqMCnhIJ5Ear3hOZSZC-9L9W5SBF0P6zOr9qfZqBfJ5x8ZzlzwM4_FxZ2rULVFMqMZwwUzsLb5_INSguSgQ3IIaLLGmup6QaI8GSFkPcjdUo3zYhKnzuEDp9TWBaMfoeJFqKMRAV_CAkgjc6yU-ncM2hQgR2cqGrdKPSh1ahi4ElFZHiuL-ucLqDxR74dekAEx_cpYMAxhVj_- -ZZnudzhrvBOvHWXYD0aroHlnywjElY1IurFuJN6h3cOooFcM0jth2zdNsCCWbIkwv8W2cz5Zgt_90FUf41yDDezCydlzuXnaX_o2bCsA34hzugOsJAubAYpaJ3s-B5eLa1gG1fMyimtuZE6NGBYkIH3mb6epk_rHV6A7BtDWjURyVoxne6gaOmHY6ywWmOQRTpjDRjDUqoLDQBhSw6WrNij7cXz1TquTpFM5E_bdHDegJk_DhX6-klku1ceLs_EjK39WDt6Wpx0m00]--></g></svg>