<svg xmlns="http://www.w3.org/2000/svg" xmlns:xlink="http://www.w3.org/1999/xlink" contentStyleType="text/css" height="1294px" preserveAspectRatio="none" style="width:1467px;height:1294px;background:#FFFFFF;" version="1.1" viewBox="0 0 1467 1294" width="1467px" zoomAndPan="magnify"><defs/><g><!--class ChessController--><g id="elem_ChessController"><rect codeLine="24" fill="#F8F8FF" height="32" id="ChessController" style="stroke:#696969;stroke-width:0.5;" width="140.6094" x="1200.6327" y="137.9316"/><ellipse cx="1215.6327" cy="153.9316" fill="#B4A7E5" rx="11" ry="11" style="stroke:#181818;stroke-width:1;"/><path d="M1212.0604,150.1968 L1212.0604,148.0386 L1219.4398,148.0386 L1219.4398,150.1968 L1216.9745,150.1968 L1216.9745,158.2734 L1219.4398,158.2734 L1219.4398,160.4316 L1212.0604,160.4316 L1212.0604,158.2734 L1214.5258,158.2734 L1214.5258,150.1968 Z " fill="#000000"/><text fill="#696969" font-family="sans-serif" font-size="14" font-style="italic" lengthAdjust="spacing" textLength="108.6094" x="1229.6327" y="159.2227">ChessController</text></g><!--class UserChoice--><g id="elem_UserChoice"><rect codeLine="26" fill="#F8F8FF" height="32" id="UserChoice" style="stroke:#696969;stroke-width:0.5;" width="108.3574" x="1343.83" y="509.1055"/><ellipse cx="1358.83" cy="525.1055" fill="#B4A7E5" rx="11" ry="11" style="stroke:#181818;stroke-width:1;"/><path d="M1355.2578,521.3706 L1355.2578,519.2124 L1362.6372,519.2124 L1362.6372,521.3706 L1360.1718,521.3706 L1360.1718,529.4473 L1362.6372,529.4473 L1362.6372,531.6055 L1355.2578,531.6055 L1355.2578,529.4473 L1357.7231,529.4473 L1357.7231,521.3706 Z " fill="#000000"/><text fill="#696969" font-family="sans-serif" font-size="14" font-style="italic" lengthAdjust="spacing" textLength="76.3574" x="1372.83" y="530.3965">UserChoice</text></g><!--class ChessView--><g id="elem_ChessView"><rect codeLine="31" fill="#F8F8FF" height="32" id="ChessView" style="stroke:#696969;stroke-width:0.5;" width="104.2354" x="1045.9204" y="509.1055"/><ellipse cx="1060.9204" cy="525.1055" fill="#B4A7E5" rx="11" ry="11" style="stroke:#181818;stroke-width:1;"/><path d="M1057.3481,521.3706 L1057.3481,519.2124 L1064.7275,519.2124 L1064.7275,521.3706 L1062.2622,521.3706 L1062.2622,529.4473 L1064.7275,529.4473 L1064.7275,531.6055 L1057.3481,531.6055 L1057.3481,529.4473 L1059.8134,529.4473 L1059.8134,521.3706 Z " fill="#000000"/><text fill="#696969" font-family="sans-serif" font-size="14" font-style="italic" lengthAdjust="spacing" textLength="72.2354" x="1074.9204" y="530.3965">ChessView</text></g><!--class ChessEngine--><g id="elem_ChessEngine"><rect codeLine="42" fill="#FDF5E6" height="32" id="ChessEngine" style="stroke:#181818;stroke-width:0.5;" width="117.9893" x="1235.3776" y="247.2422"/><ellipse cx="1250.3776" cy="263.2422" fill="#ADD1B2" rx="11" ry="11" style="stroke:#181818;stroke-width:1;"/><path d="M1252.8508,269.3853 Q1252.2697,269.6841 1251.6306,269.8335 Q1250.9914,269.9829 1250.2858,269.9829 Q1247.779,269.9829 1246.4592,268.3311 Q1245.1394,266.6792 1245.1394,263.5581 Q1245.1394,260.4287 1246.4592,258.7769 Q1247.779,257.125 1250.2858,257.125 Q1250.9914,257.125 1251.6389,257.2744 Q1252.2863,257.4238 1252.8508,257.7227 L1252.8508,260.4453 Q1252.2199,259.8643 1251.6264,259.5945 Q1251.0329,259.3247 1250.4021,259.3247 Q1249.0573,259.3247 1248.3725,260.3914 Q1247.6877,261.458 1247.6877,263.5581 Q1247.6877,265.6499 1248.3725,266.7166 Q1249.0573,267.7832 1250.4021,267.7832 Q1251.0329,267.7832 1251.6264,267.5134 Q1252.2199,267.2437 1252.8508,266.6626 Z " fill="#000000"/><text fill="#000000" font-family="sans-serif" font-size="14" lengthAdjust="spacing" textLength="85.9893" x="1264.3776" y="268.5332">ChessEngine</text></g><!--class ChessBoardView--><g id="elem_ChessBoardView"><rect codeLine="44" fill="#FDF5E6" height="32" id="ChessBoardView" style="stroke:#181818;stroke-width:0.5;" width="143.1592" x="938.0454" y="247.2422"/><ellipse cx="953.0454" cy="263.2422" fill="#B4A7E5" rx="11" ry="11" style="stroke:#181818;stroke-width:1;"/><path d="M949.4731,259.5073 L949.4731,257.3491 L956.8525,257.3491 L956.8525,259.5073 L954.3872,259.5073 L954.3872,267.584 L956.8525,267.584 L956.8525,269.7422 L949.4731,269.7422 L949.4731,267.584 L951.9384,267.584 L951.9384,259.5073 Z " fill="#000000"/><text fill="#000000" font-family="sans-serif" font-size="14" font-style="italic" lengthAdjust="spacing" textLength="111.1592" x="967.0454" y="268.5332">ChessBoardView</text></g><!--class Cloneable--><g id="elem_Cloneable"><rect codeLine="46" fill="#F8F8FF" height="32" id="Cloneable" style="stroke:#696969;stroke-width:0.5;" width="99.2109" x="818.8344" y="247.2422"/><ellipse cx="833.8344" cy="263.2422" fill="#B4A7E5" rx="11" ry="11" style="stroke:#181818;stroke-width:1;"/><path d="M830.2622,259.5073 L830.2622,257.3491 L837.6416,257.3491 L837.6416,259.5073 L835.1762,259.5073 L835.1762,267.584 L837.6416,267.584 L837.6416,269.7422 L830.2622,269.7422 L830.2622,267.584 L832.7275,267.584 L832.7275,259.5073 Z " fill="#000000"/><text fill="#696969" font-family="sans-serif" font-size="14" font-style="italic" lengthAdjust="spacing" textLength="67.2109" x="847.8344" y="268.5332">Cloneable</text></g><!--class ChessBoard--><g id="elem_ChessBoard"><rect codeLine="48" fill="#FDF5E6" height="32" id="ChessBoard" style="stroke:#181818;stroke-width:0.5;" width="111.3721" x="953.9389" y="383.1738"/><ellipse cx="968.9389" cy="399.1738" fill="#ADD1B2" rx="11" ry="11" style="stroke:#181818;stroke-width:1;"/><path d="M971.4121,405.3169 Q970.831,405.6157 970.1918,405.7651 Q969.5527,405.9146 968.8471,405.9146 Q966.3403,405.9146 965.0205,404.2627 Q963.7006,402.6108 963.7006,399.4897 Q963.7006,396.3604 965.0205,394.7085 Q966.3403,393.0566 968.8471,393.0566 Q969.5527,393.0566 970.2001,393.2061 Q970.8476,393.3555 971.4121,393.6543 L971.4121,396.377 Q970.7812,395.7959 970.1877,395.5261 Q969.5942,395.2563 968.9633,395.2563 Q967.6186,395.2563 966.9338,396.323 Q966.249,397.3896 966.249,399.4897 Q966.249,401.5815 966.9338,402.6482 Q967.6186,403.7148 968.9633,403.7148 Q969.5942,403.7148 970.1877,403.4451 Q970.7812,403.1753 971.4121,402.5942 Z " fill="#000000"/><text fill="#000000" font-family="sans-serif" font-size="14" lengthAdjust="spacing" textLength="79.3721" x="982.9389" y="404.4648">ChessBoard</text></g><!--class ChessBoardInitialzer--><g id="elem_ChessBoardInitialzer"><rect codeLine="50" fill="#FDF5E6" height="32" id="ChessBoardInitialzer" style="stroke:#181818;stroke-width:0.5;" width="170.7559" x="1238.4917" y="383.1738"/><ellipse cx="1253.4917" cy="399.1738" fill="#A9DCDF" rx="11" ry="11" style="stroke:#181818;stroke-width:1;"/><path d="M1253.3549,394.522 L1252.2011,399.5938 L1254.517,399.5938 Z M1251.8608,392.2808 L1254.8574,392.2808 L1258.2026,404.6738 L1255.7539,404.6738 L1254.9902,401.6108 L1251.7114,401.6108 L1250.9643,404.6738 L1248.5156,404.6738 Z " fill="#000000"/><text fill="#000000" font-family="sans-serif" font-size="14" font-style="italic" lengthAdjust="spacing" textLength="138.7559" x="1267.4917" y="404.4648">ChessBoardInitialzer</text></g><!--class Position--><g id="elem_Position"><rect codeLine="52" fill="#FDF5E6" height="32" id="Position" style="stroke:#181818;stroke-width:0.5;" width="86.0928" x="713.5431" y="509.1055"/><ellipse cx="728.5431" cy="525.1055" fill="#ADD1B2" rx="11" ry="11" style="stroke:#181818;stroke-width:1;"/><path d="M731.0162,531.2485 Q730.4352,531.5474 729.796,531.6968 Q729.1568,531.8462 728.4513,531.8462 Q725.9444,531.8462 724.6246,530.1943 Q723.3048,528.5425 723.3048,525.4214 Q723.3048,522.292 724.6246,520.6401 Q725.9444,518.9883 728.4513,518.9883 Q729.1568,518.9883 729.8043,519.1377 Q730.4518,519.2871 731.0162,519.5859 L731.0162,522.3086 Q730.3854,521.7275 729.7918,521.4578 Q729.1983,521.188 728.5675,521.188 Q727.2228,521.188 726.5379,522.2546 Q725.8531,523.3213 725.8531,525.4214 Q725.8531,527.5132 726.5379,528.5798 Q727.2228,529.6465 728.5675,529.6465 Q729.1983,529.6465 729.7918,529.3767 Q730.3854,529.1069 731.0162,528.5259 Z " fill="#000000"/><text fill="#000000" font-family="sans-serif" font-size="14" lengthAdjust="spacing" textLength="54.0928" x="742.5431" y="530.3965">Position</text></g><!--class PlayerColor--><g id="elem_PlayerColor"><rect codeLine="54" fill="#F8F8FF" height="72.9766" id="PlayerColor" style="stroke:#696969;stroke-width:0.5;" width="109.0205" x="1146.0774" y="665.0371"/><ellipse cx="1161.0774" cy="681.0371" fill="#EB937F" rx="11" ry="11" style="stroke:#181818;stroke-width:1;"/><path d="M1164.6917,687.5371 L1156.972,687.5371 L1156.972,675.144 L1164.6917,675.144 L1164.6917,677.3022 L1159.4207,677.3022 L1159.4207,679.9751 L1164.1936,679.9751 L1164.1936,682.1333 L1159.4207,682.1333 L1159.4207,685.3789 L1164.6917,685.3789 Z " fill="#000000"/><text fill="#696969" font-family="sans-serif" font-size="14" lengthAdjust="spacing" textLength="77.0205" x="1175.0774" y="686.3281">PlayerColor</text><line style="stroke:#696969;stroke-width:0.5;" x1="1147.0774" x2="1254.0979" y1="697.0371" y2="697.0371"/><text fill="#696969" font-family="sans-serif" font-size="14" lengthAdjust="spacing" textLength="42.7383" x="1152.0774" y="714.5723">WHITE</text><text fill="#696969" font-family="sans-serif" font-size="14" lengthAdjust="spacing" textLength="44.0029" x="1152.0774" y="731.0605">BLACK</text></g><!--class PieceType--><g id="elem_PieceType"><rect codeLine="59" fill="#F8F8FF" height="138.9297" id="PieceType" style="stroke:#696969;stroke-width:0.5;" width="99.334" x="650.4845" y="665.0371"/><ellipse cx="665.4845" cy="681.0371" fill="#EB937F" rx="11" ry="11" style="stroke:#181818;stroke-width:1;"/><path d="M669.0988,687.5371 L661.3791,687.5371 L661.3791,675.144 L669.0988,675.144 L669.0988,677.3022 L663.8278,677.3022 L663.8278,679.9751 L668.6007,679.9751 L668.6007,682.1333 L663.8278,682.1333 L663.8278,685.3789 L669.0988,685.3789 Z " fill="#000000"/><text fill="#696969" font-family="sans-serif" font-size="14" lengthAdjust="spacing" textLength="67.334" x="679.4845" y="686.3281">PieceType</text><line style="stroke:#696969;stroke-width:0.5;" x1="651.4845" x2="748.8185" y1="697.0371" y2="697.0371"/><text fill="#696969" font-family="sans-serif" font-size="14" lengthAdjust="spacing" textLength="39.7168" x="656.4845" y="714.5723">PAWN</text><text fill="#696969" font-family="sans-serif" font-size="14" lengthAdjust="spacing" textLength="39.7441" x="656.4845" y="731.0605">ROOK</text><text fill="#696969" font-family="sans-serif" font-size="14" lengthAdjust="spacing" textLength="52.7734" x="656.4845" y="747.5488">KNIGHT</text><text fill="#696969" font-family="sans-serif" font-size="14" lengthAdjust="spacing" textLength="48.5283" x="656.4845" y="764.0371">BISHOP</text><text fill="#696969" font-family="sans-serif" font-size="14" lengthAdjust="spacing" textLength="46.0947" x="656.4845" y="780.5254">QUEEN</text><text fill="#696969" font-family="sans-serif" font-size="14" lengthAdjust="spacing" textLength="33.6328" x="656.4845" y="797.0137">KING</text></g><!--class ChessPiece--><g id="elem_ChessPiece"><rect codeLine="68" fill="#FDF5E6" height="32" id="ChessPiece" style="stroke:#181818;stroke-width:0.5;" width="107.0039" x="918.6972" y="509.1055"/><ellipse cx="933.6972" cy="525.1055" fill="#A9DCDF" rx="11" ry="11" style="stroke:#181818;stroke-width:1;"/><path d="M933.5605,520.4536 L932.4067,525.5254 L934.7226,525.5254 Z M932.0664,518.2124 L935.0629,518.2124 L938.4082,530.6055 L935.9594,530.6055 L935.1958,527.5425 L931.9169,527.5425 L931.1699,530.6055 L928.7211,530.6055 Z " fill="#000000"/><text fill="#000000" font-family="sans-serif" font-size="14" font-style="italic" lengthAdjust="spacing" textLength="75.0039" x="947.6972" y="530.3965">ChessPiece</text></g><!--class PromotableChessPiece--><g id="elem_PromotableChessPiece"><rect codeLine="69" fill="#FDF5E6" height="32" id="PromotableChessPiece" style="stroke:#181818;stroke-width:0.5;" width="184.3662" x="1275.0979" y="730.5534"/><ellipse cx="1290.0979" cy="746.5534" fill="#A9DCDF" rx="11" ry="11" style="stroke:#181818;stroke-width:1;"/><path d="M1289.9612,741.9015 L1288.8074,746.9733 L1291.1233,746.9733 Z M1288.4671,739.6603 L1291.4637,739.6603 L1294.8089,752.0534 L1292.3601,752.0534 L1291.5965,748.9904 L1288.3177,748.9904 L1287.5706,752.0534 L1285.1219,752.0534 Z " fill="#000000"/><text fill="#000000" font-family="sans-serif" font-size="14" font-style="italic" lengthAdjust="spacing" textLength="152.3662" x="1304.0979" y="751.8444">PromotableChessPiece</text></g><!--class Pawn--><g id="elem_Pawn"><rect codeLine="70" fill="#FDF5E6" height="32" id="Pawn" style="stroke:#181818;stroke-width:0.5;" width="66.9453" x="563.5392" y="665.0371"/><ellipse cx="578.5392" cy="681.0371" fill="#ADD1B2" rx="11" ry="11" style="stroke:#181818;stroke-width:1;"/><path d="M581.0124,687.1802 Q580.4313,687.479 579.7922,687.6284 Q579.153,687.7778 578.4474,687.7778 Q575.9406,687.7778 574.6208,686.126 Q573.3009,684.4741 573.3009,681.353 Q573.3009,678.2236 574.6208,676.5718 Q575.9406,674.9199 578.4474,674.9199 Q579.153,674.9199 579.8005,675.0693 Q580.4479,675.2188 581.0124,675.5176 L581.0124,678.2402 Q580.3815,677.6592 579.788,677.3894 Q579.1945,677.1196 578.5636,677.1196 Q577.2189,677.1196 576.5341,678.1863 Q575.8493,679.2529 575.8493,681.353 Q575.8493,683.4448 576.5341,684.5115 Q577.2189,685.5781 578.5636,685.5781 Q579.1945,685.5781 579.788,685.3083 Q580.3815,685.0386 581.0124,684.4575 Z " fill="#000000"/><text fill="#000000" font-family="sans-serif" font-size="14" lengthAdjust="spacing" textLength="34.9453" x="592.5392" y="686.3281">Pawn</text></g><!--class Rook--><g id="elem_Rook"><rect codeLine="71" fill="#FDF5E6" height="32" id="Rook" style="stroke:#181818;stroke-width:0.5;" width="66.2344" x="1201.0943" y="863.9668"/><ellipse cx="1216.0943" cy="879.9668" fill="#ADD1B2" rx="11" ry="11" style="stroke:#181818;stroke-width:1;"/><path d="M1218.5675,886.1099 Q1217.9864,886.4087 1217.3473,886.5581 Q1216.7081,886.7075 1216.0025,886.7075 Q1213.4957,886.7075 1212.1759,885.0557 Q1210.856,883.4038 1210.856,880.2827 Q1210.856,877.1533 1212.1759,875.5015 Q1213.4957,873.8496 1216.0025,873.8496 Q1216.7081,873.8496 1217.3556,873.999 Q1218.003,874.1484 1218.5675,874.4473 L1218.5675,877.1699 Q1217.9366,876.5889 1217.3431,876.3191 Q1216.7496,876.0493 1216.1187,876.0493 Q1214.774,876.0493 1214.0892,877.116 Q1213.4044,878.1826 1213.4044,880.2827 Q1213.4044,882.3745 1214.0892,883.4412 Q1214.774,884.5078 1216.1187,884.5078 Q1216.7496,884.5078 1217.3431,884.238 Q1217.9366,883.9683 1218.5675,883.3872 Z " fill="#000000"/><text fill="#000000" font-family="sans-serif" font-size="14" lengthAdjust="spacing" textLength="34.2344" x="1230.0943" y="885.2578">Rook</text></g><!--class Knight--><g id="elem_Knight"><rect codeLine="72" fill="#FDF5E6" height="32" id="Knight" style="stroke:#181818;stroke-width:0.5;" width="76.5293" x="1104.565" y="863.9668"/><ellipse cx="1119.565" cy="879.9668" fill="#ADD1B2" rx="11" ry="11" style="stroke:#181818;stroke-width:1;"/><path d="M1122.0382,886.1099 Q1121.4571,886.4087 1120.818,886.5581 Q1120.1788,886.7075 1119.4732,886.7075 Q1116.9664,886.7075 1115.6466,885.0557 Q1114.3267,883.4038 1114.3267,880.2827 Q1114.3267,877.1533 1115.6466,875.5015 Q1116.9664,873.8496 1119.4732,873.8496 Q1120.1788,873.8496 1120.8263,873.999 Q1121.4737,874.1484 1122.0382,874.4473 L1122.0382,877.1699 Q1121.4073,876.5889 1120.8138,876.3191 Q1120.2203,876.0493 1119.5894,876.0493 Q1118.2447,876.0493 1117.5599,877.116 Q1116.8751,878.1826 1116.8751,880.2827 Q1116.8751,882.3745 1117.5599,883.4412 Q1118.2447,884.5078 1119.5894,884.5078 Q1120.2203,884.5078 1120.8138,884.238 Q1121.4073,883.9683 1122.0382,883.3872 Z " fill="#000000"/><text fill="#000000" font-family="sans-serif" font-size="14" lengthAdjust="spacing" textLength="44.5293" x="1133.565" y="885.2578">Knight</text></g><!--class Bishop--><g id="elem_Bishop"><rect codeLine="73" fill="#FDF5E6" height="32" id="Bishop" style="stroke:#181818;stroke-width:0.5;" width="77.3359" x="1287.3287" y="863.9668"/><ellipse cx="1302.3287" cy="879.9668" fill="#ADD1B2" rx="11" ry="11" style="stroke:#181818;stroke-width:1;"/><path d="M1304.8018,886.1099 Q1304.2208,886.4087 1303.5816,886.5581 Q1302.9425,886.7075 1302.2369,886.7075 Q1299.7301,886.7075 1298.4102,885.0557 Q1297.0904,883.4038 1297.0904,880.2827 Q1297.0904,877.1533 1298.4102,875.5015 Q1299.7301,873.8496 1302.2369,873.8496 Q1302.9425,873.8496 1303.5899,873.999 Q1304.2374,874.1484 1304.8018,874.4473 L1304.8018,877.1699 Q1304.171,876.5889 1303.5775,876.3191 Q1302.984,876.0493 1302.3531,876.0493 Q1301.0084,876.0493 1300.3236,877.116 Q1299.6388,878.1826 1299.6388,880.2827 Q1299.6388,882.3745 1300.3236,883.4412 Q1301.0084,884.5078 1302.3531,884.5078 Q1302.984,884.5078 1303.5775,884.238 Q1304.171,883.9683 1304.8018,883.3872 Z " fill="#000000"/><text fill="#000000" font-family="sans-serif" font-size="14" lengthAdjust="spacing" textLength="45.3359" x="1316.3287" y="885.2578">Bishop</text></g><!--class Queen--><g id="elem_Queen"><rect codeLine="74" fill="#FDF5E6" height="32" id="Queen" style="stroke:#181818;stroke-width:0.5;" width="75.8525" x="1384.6646" y="863.9668"/><ellipse cx="1399.6646" cy="879.9668" fill="#ADD1B2" rx="11" ry="11" style="stroke:#181818;stroke-width:1;"/><path d="M1402.1378,886.1099 Q1401.5567,886.4087 1400.9176,886.5581 Q1400.2784,886.7075 1399.5728,886.7075 Q1397.066,886.7075 1395.7462,885.0557 Q1394.4264,883.4038 1394.4264,880.2827 Q1394.4264,877.1533 1395.7462,875.5015 Q1397.066,873.8496 1399.5728,873.8496 Q1400.2784,873.8496 1400.9259,873.999 Q1401.5733,874.1484 1402.1378,874.4473 L1402.1378,877.1699 Q1401.5069,876.5889 1400.9134,876.3191 Q1400.3199,876.0493 1399.689,876.0493 Q1398.3443,876.0493 1397.6595,877.116 Q1396.9747,878.1826 1396.9747,880.2827 Q1396.9747,882.3745 1397.6595,883.4412 Q1398.3443,884.5078 1399.689,884.5078 Q1400.3199,884.5078 1400.9134,884.238 Q1401.5069,883.9683 1402.1378,883.3872 Z " fill="#000000"/><text fill="#000000" font-family="sans-serif" font-size="14" lengthAdjust="spacing" textLength="43.8525" x="1413.6646" y="885.2578">Queen</text></g><!--class King--><g id="elem_King"><rect codeLine="75" fill="#FDF5E6" height="32" id="King" style="stroke:#181818;stroke-width:0.5;" width="62.6045" x="924.9523" y="665.0371"/><ellipse cx="939.9523" cy="681.0371" fill="#ADD1B2" rx="11" ry="11" style="stroke:#181818;stroke-width:1;"/><path d="M942.4255,687.1802 Q941.8444,687.479 941.2052,687.6284 Q940.5661,687.7778 939.8605,687.7778 Q937.3537,687.7778 936.0339,686.126 Q934.714,684.4741 934.714,681.353 Q934.714,678.2236 936.0339,676.5718 Q937.3537,674.9199 939.8605,674.9199 Q940.5661,674.9199 941.2135,675.0693 Q941.861,675.2188 942.4255,675.5176 L942.4255,678.2402 Q941.7946,677.6592 941.2011,677.3894 Q940.6076,677.1196 939.9767,677.1196 Q938.632,677.1196 937.9472,678.1863 Q937.2624,679.2529 937.2624,681.353 Q937.2624,683.4448 937.9472,684.5115 Q938.632,685.5781 939.9767,685.5781 Q940.6076,685.5781 941.2011,685.3083 Q941.7946,685.0386 942.4255,684.4575 Z " fill="#000000"/><text fill="#000000" font-family="sans-serif" font-size="14" lengthAdjust="spacing" textLength="30.6045" x="953.9523" y="686.3281">King</text></g><!--class MoveGenerator--><g id="elem_MoveGenerator"><rect codeLine="78" fill="#FDF5E6" height="32" id="MoveGenerator" style="stroke:#181818;stroke-width:0.5;" width="135.1338" x="769.8185" y="722.2707"/><ellipse cx="784.8185" cy="738.2707" fill="#A9DCDF" rx="11" ry="11" style="stroke:#181818;stroke-width:1;"/><path d="M784.6818,733.6188 L783.528,738.6906 L785.8439,738.6906 Z M783.1877,731.3776 L786.1842,731.3776 L789.5295,743.7707 L787.0807,743.7707 L786.3171,740.7077 L783.0382,740.7077 L782.2912,743.7707 L779.8424,743.7707 Z " fill="#000000"/><text fill="#000000" font-family="sans-serif" font-size="14" font-style="italic" lengthAdjust="spacing" textLength="103.1338" x="798.8185" y="743.5617">MoveGenerator</text></g><!--class DirectionalGenerator--><g id="elem_DirectionalGenerator"><rect codeLine="79" fill="#FDF5E6" height="32" id="DirectionalGenerator" style="stroke:#181818;stroke-width:0.5;" width="173.0117" x="755.8277" y="989.8984"/><ellipse cx="770.8277" cy="1005.8984" fill="#ADD1B2" rx="11" ry="11" style="stroke:#181818;stroke-width:1;"/><path d="M773.3009,1012.0415 Q772.7198,1012.3403 772.0806,1012.4897 Q771.4415,1012.6392 770.7359,1012.6392 Q768.2291,1012.6392 766.9093,1010.9873 Q765.5894,1009.3354 765.5894,1006.2144 Q765.5894,1003.085 766.9093,1001.4331 Q768.2291,999.7813 770.7359,999.7813 Q771.4415,999.7813 772.0889,999.9307 Q772.7364,1000.0801 773.3009,1000.3789 L773.3009,1003.1016 Q772.67,1002.5205 772.0765,1002.2507 Q771.483,1001.981 770.8521,1001.981 Q769.5074,1001.981 768.8226,1003.0476 Q768.1378,1004.1143 768.1378,1006.2144 Q768.1378,1008.3062 768.8226,1009.3728 Q769.5074,1010.4395 770.8521,1010.4395 Q771.483,1010.4395 772.0765,1010.1697 Q772.67,1009.8999 773.3009,1009.3188 Z " fill="#000000"/><text fill="#000000" font-family="sans-serif" font-size="14" lengthAdjust="spacing" textLength="141.0117" x="784.8277" y="1011.1895">DirectionalGenerator</text></g><!--class KnightGenerator--><g id="elem_KnightGenerator"><rect codeLine="80" fill="#FDF5E6" height="32" id="KnightGenerator" style="stroke:#181818;stroke-width:0.5;" width="143.959" x="704.2099" y="863.9668"/><ellipse cx="719.2099" cy="879.9668" fill="#ADD1B2" rx="11" ry="11" style="stroke:#181818;stroke-width:1;"/><path d="M721.683,886.1099 Q721.102,886.4087 720.4628,886.5581 Q719.8236,886.7075 719.1181,886.7075 Q716.6112,886.7075 715.2914,885.0557 Q713.9716,883.4038 713.9716,880.2827 Q713.9716,877.1533 715.2914,875.5015 Q716.6112,873.8496 719.1181,873.8496 Q719.8236,873.8496 720.4711,873.999 Q721.1186,874.1484 721.683,874.4473 L721.683,877.1699 Q721.0522,876.5889 720.4587,876.3191 Q719.8652,876.0493 719.2343,876.0493 Q717.8896,876.0493 717.2048,877.116 Q716.5199,878.1826 716.5199,880.2827 Q716.5199,882.3745 717.2048,883.4412 Q717.8896,884.5078 719.2343,884.5078 Q719.8652,884.5078 720.4587,884.238 Q721.0522,883.9683 721.683,883.3872 Z " fill="#000000"/><text fill="#000000" font-family="sans-serif" font-size="14" lengthAdjust="spacing" textLength="111.959" x="733.2099" y="885.2578">KnightGenerator</text></g><!--class DistanceGenerator--><g id="elem_DistanceGenerator"><rect codeLine="81" fill="#FDF5E6" height="32" id="DistanceGenerator" style="stroke:#181818;stroke-width:0.5;" width="157.7266" x="526.4833" y="863.9668"/><ellipse cx="541.4833" cy="879.9668" fill="#ADD1B2" rx="11" ry="11" style="stroke:#181818;stroke-width:1;"/><path d="M543.9565,886.1099 Q543.3754,886.4087 542.7362,886.5581 Q542.0971,886.7075 541.3915,886.7075 Q538.8847,886.7075 537.5649,885.0557 Q536.245,883.4038 536.245,880.2827 Q536.245,877.1533 537.5649,875.5015 Q538.8847,873.8496 541.3915,873.8496 Q542.0971,873.8496 542.7445,873.999 Q543.392,874.1484 543.9565,874.4473 L543.9565,877.1699 Q543.3256,876.5889 542.7321,876.3191 Q542.1386,876.0493 541.5077,876.0493 Q540.163,876.0493 539.4782,877.116 Q538.7934,878.1826 538.7934,880.2827 Q538.7934,882.3745 539.4782,883.4412 Q540.163,884.5078 541.5077,884.5078 Q542.1386,884.5078 542.7321,884.238 Q543.3256,883.9683 543.9565,883.3872 Z " fill="#000000"/><text fill="#000000" font-family="sans-serif" font-size="14" lengthAdjust="spacing" textLength="125.7266" x="555.4833" y="885.2578">DistanceGenerator</text></g><!--class PawnDistanceGenerator--><g id="elem_PawnDistanceGenerator"><rect codeLine="82" fill="#FDF5E6" height="32" id="PawnDistanceGenerator" style="stroke:#181818;stroke-width:0.5;" width="192.6719" x="482.7229" y="989.8984"/><ellipse cx="497.7229" cy="1005.8984" fill="#ADD1B2" rx="11" ry="11" style="stroke:#181818;stroke-width:1;"/><path d="M500.196,1012.0415 Q499.615,1012.3403 498.9758,1012.4897 Q498.3367,1012.6392 497.6311,1012.6392 Q495.1243,1012.6392 493.8044,1010.9873 Q492.4846,1009.3354 492.4846,1006.2144 Q492.4846,1003.085 493.8044,1001.4331 Q495.1243,999.7813 497.6311,999.7813 Q498.3367,999.7813 498.9841,999.9307 Q499.6316,1000.0801 500.196,1000.3789 L500.196,1003.1016 Q499.5652,1002.5205 498.9717,1002.2507 Q498.3782,1001.981 497.7473,1001.981 Q496.4026,1001.981 495.7178,1003.0476 Q495.033,1004.1143 495.033,1006.2144 Q495.033,1008.3062 495.7178,1009.3728 Q496.4026,1010.4395 497.7473,1010.4395 Q498.3782,1010.4395 498.9717,1010.1697 Q499.5652,1009.8999 500.196,1009.3188 Z " fill="#000000"/><text fill="#000000" font-family="sans-serif" font-size="14" lengthAdjust="spacing" textLength="160.6719" x="511.7229" y="1011.1895">PawnDistanceGenerator</text></g><!--class Direction--><g id="elem_Direction"><rect codeLine="84" fill="#FDF5E6" height="171.9063" id="Direction" style="stroke:#181818;stroke-width:0.5;" width="146.1963" x="769.2354" y="1115.8301"/><ellipse cx="807.8121" cy="1131.8301" fill="#EB937F" rx="11" ry="11" style="stroke:#181818;stroke-width:1;"/><path d="M811.4264,1138.3301 L803.7066,1138.3301 L803.7066,1125.937 L811.4264,1125.937 L811.4264,1128.0952 L806.1554,1128.0952 L806.1554,1130.7681 L810.9283,1130.7681 L810.9283,1132.9263 L806.1554,1132.9263 L806.1554,1136.1719 L811.4264,1136.1719 Z " fill="#000000"/><text fill="#000000" font-family="sans-serif" font-size="14" lengthAdjust="spacing" textLength="61.8037" x="827.0514" y="1137.1211">Direction</text><line style="stroke:#181818;stroke-width:0.5;" x1="770.2354" x2="914.4317" y1="1147.8301" y2="1147.8301"/><text fill="#000000" font-family="sans-serif" font-size="14" lengthAdjust="spacing" textLength="75.749" x="775.2354" y="1165.3652">FORWARDS</text><text fill="#000000" font-family="sans-serif" font-size="14" lengthAdjust="spacing" textLength="85.0527" x="775.2354" y="1181.8535">BACKWARDS</text><text fill="#000000" font-family="sans-serif" font-size="14" lengthAdjust="spacing" textLength="31.4111" x="775.2354" y="1198.3418">LEFT</text><text fill="#000000" font-family="sans-serif" font-size="14" lengthAdjust="spacing" textLength="42.1436" x="775.2354" y="1214.8301">RIGHT</text><text fill="#000000" font-family="sans-serif" font-size="14" lengthAdjust="spacing" textLength="114.1602" x="775.2354" y="1231.3184">FORWARDS_LEFT</text><text fill="#000000" font-family="sans-serif" font-size="14" lengthAdjust="spacing" textLength="124.8926" x="775.2354" y="1247.8066">FORWARDS_RIGHT</text><text fill="#000000" font-family="sans-serif" font-size="14" lengthAdjust="spacing" textLength="123.4639" x="775.2354" y="1264.2949">BACKWARDS_LEFT</text><text fill="#000000" font-family="sans-serif" font-size="14" lengthAdjust="spacing" textLength="134.1963" x="775.2354" y="1280.7832">BACKWARDS_RIGHT</text></g><!--class Moves--><g id="elem_Moves"><rect codeLine="96" fill="#FDF5E6" height="32" id="Moves" style="stroke:#181818;stroke-width:0.5;" width="74.8408" x="691.7275" y="12"/><ellipse cx="706.7275" cy="28" fill="#ADD1B2" rx="11" ry="11" style="stroke:#181818;stroke-width:1;"/><path d="M709.2007,34.1431 Q708.6196,34.4419 707.9805,34.5913 Q707.3413,34.7407 706.6357,34.7407 Q704.1289,34.7407 702.8091,33.0889 Q701.4893,31.437 701.4893,28.3159 Q701.4893,25.1865 702.8091,23.5347 Q704.1289,21.8828 706.6357,21.8828 Q707.3413,21.8828 707.9888,22.0322 Q708.6362,22.1816 709.2007,22.4805 L709.2007,25.2031 Q708.5698,24.6221 707.9763,24.3523 Q707.3828,24.0825 706.752,24.0825 Q705.4072,24.0825 704.7224,25.1492 Q704.0376,26.2158 704.0376,28.3159 Q704.0376,30.4077 704.7224,31.4744 Q705.4072,32.541 706.752,32.541 Q707.3828,32.541 707.9763,32.2712 Q708.5698,32.0015 709.2007,31.4204 Z " fill="#000000"/><text fill="#000000" font-family="sans-serif" font-size="14" lengthAdjust="spacing" textLength="42.8408" x="720.7275" y="33.291">Moves</text></g><!--class ChessMove--><g id="elem_ChessMove"><rect codeLine="98" fill="#FDF5E6" height="32" id="ChessMove" style="stroke:#181818;stroke-width:0.5;" width="108.1523" x="675.0718" y="137.9316"/><ellipse cx="690.0718" cy="153.9316" fill="#A9DCDF" rx="11" ry="11" style="stroke:#181818;stroke-width:1;"/><path d="M689.9351,149.2798 L688.7812,154.3516 L691.0972,154.3516 Z M688.4409,147.0386 L691.4375,147.0386 L694.7827,159.4316 L692.334,159.4316 L691.5703,156.3687 L688.2915,156.3687 L687.5444,159.4316 L685.0957,159.4316 Z " fill="#000000"/><text fill="#000000" font-family="sans-serif" font-size="14" font-style="italic" lengthAdjust="spacing" textLength="76.1523" x="704.0718" y="159.2227">ChessMove</text></g><!--class StandardMove--><g id="elem_StandardMove"><rect codeLine="100" fill="#FDF5E6" height="32" id="StandardMove" style="stroke:#181818;stroke-width:0.5;" width="127.9834" x="588.6426" y="253.0124"/><ellipse cx="603.6426" cy="269.0124" fill="#ADD1B2" rx="11" ry="11" style="stroke:#181818;stroke-width:1;"/><path d="M606.1157,275.1554 Q605.5347,275.4543 604.8955,275.6037 Q604.2563,275.7531 603.5508,275.7531 Q601.0439,275.7531 599.7241,274.1012 Q598.4043,272.4494 598.4043,269.3283 Q598.4043,266.1989 599.7241,264.547 Q601.0439,262.8952 603.5508,262.8952 Q604.2563,262.8952 604.9038,263.0446 Q605.5513,263.194 606.1157,263.4928 L606.1157,266.2155 Q605.4849,265.6344 604.8914,265.3647 Q604.2979,265.0949 603.667,265.0949 Q602.3223,265.0949 601.6375,266.1615 Q600.9526,267.2282 600.9526,269.3283 Q600.9526,271.4201 601.6375,272.4867 Q602.3223,273.5534 603.667,273.5534 Q604.2979,273.5534 604.8914,273.2836 Q605.4849,273.0138 606.1157,272.4328 Z " fill="#000000"/><text fill="#000000" font-family="sans-serif" font-size="14" lengthAdjust="spacing" textLength="95.9834" x="617.6426" y="274.3034">StandardMove</text></g><!--class Capture--><g id="elem_Capture"><rect codeLine="101" fill="#FDF5E6" height="32" id="Capture" style="stroke:#181818;stroke-width:0.5;" width="85.6826" x="62.1279" y="255.8975"/><ellipse cx="77.1279" cy="271.8975" fill="#ADD1B2" rx="11" ry="11" style="stroke:#181818;stroke-width:1;"/><path d="M79.6011,278.0405 Q79.02,278.3394 78.3809,278.4888 Q77.7417,278.6382 77.0361,278.6382 Q74.5293,278.6382 73.2095,276.9863 Q71.8896,275.3345 71.8896,272.2134 Q71.8896,269.084 73.2095,267.4321 Q74.5293,265.7803 77.0361,265.7803 Q77.7417,265.7803 78.3892,265.9297 Q79.0366,266.0791 79.6011,266.3779 L79.6011,269.1006 Q78.9702,268.5195 78.3767,268.2498 Q77.7832,267.98 77.1523,267.98 Q75.8076,267.98 75.1228,269.0466 Q74.438,270.1133 74.438,272.2134 Q74.438,274.3052 75.1228,275.3718 Q75.8076,276.4385 77.1523,276.4385 Q77.7832,276.4385 78.3767,276.1687 Q78.9702,275.8989 79.6011,275.3179 Z " fill="#000000"/><text fill="#000000" font-family="sans-serif" font-size="14" lengthAdjust="spacing" textLength="53.6826" x="91.1279" y="277.1885">Capture</text></g><!--class EnPassant--><g id="elem_EnPassant"><rect codeLine="102" fill="#FDF5E6" height="32" id="EnPassant" style="stroke:#181818;stroke-width:0.5;" width="99.6758" x="624.127" y="383.1738"/><ellipse cx="639.127" cy="399.1738" fill="#ADD1B2" rx="11" ry="11" style="stroke:#181818;stroke-width:1;"/><path d="M641.6001,405.3169 Q641.019,405.6157 640.3799,405.7651 Q639.7407,405.9146 639.0352,405.9146 Q636.5283,405.9146 635.2085,404.2627 Q633.8887,402.6108 633.8887,399.4897 Q633.8887,396.3604 635.2085,394.7085 Q636.5283,393.0566 639.0352,393.0566 Q639.7407,393.0566 640.3882,393.2061 Q641.0356,393.3555 641.6001,393.6543 L641.6001,396.377 Q640.9692,395.7959 640.3757,395.5261 Q639.7822,395.2563 639.1514,395.2563 Q637.8066,395.2563 637.1218,396.323 Q636.437,397.3896 636.437,399.4897 Q636.437,401.5815 637.1218,402.6482 Q637.8066,403.7148 639.1514,403.7148 Q639.7822,403.7148 640.3757,403.4451 Q640.9692,403.1753 641.6001,402.5942 Z " fill="#000000"/><text fill="#000000" font-family="sans-serif" font-size="14" lengthAdjust="spacing" textLength="67.6758" x="653.127" y="404.4648">EnPassant</text></g><!--class Castling--><g id="elem_Castling"><rect codeLine="103" fill="#FDF5E6" height="32" id="Castling" style="stroke:#181818;stroke-width:0.5;" width="87.3027" x="362.0697" y="253.0124"/><ellipse cx="377.0697" cy="269.0124" fill="#A9DCDF" rx="11" ry="11" style="stroke:#181818;stroke-width:1;"/><path d="M376.9329,264.3605 L375.7791,269.4323 L378.0951,269.4323 Z M375.4388,262.1193 L378.4354,262.1193 L381.7806,274.5124 L379.3319,274.5124 L378.5682,271.4494 L375.2894,271.4494 L374.5423,274.5124 L372.0936,274.5124 Z " fill="#000000"/><text fill="#000000" font-family="sans-serif" font-size="14" font-style="italic" lengthAdjust="spacing" textLength="55.3027" x="391.0697" y="274.3034">Castling</text></g><!--class LongCastling--><g id="elem_LongCastling"><rect codeLine="104" fill="#FDF5E6" height="32" id="LongCastling" style="stroke:#181818;stroke-width:0.5;" width="120.7852" x="217.9385" y="383.1738"/><ellipse cx="232.9385" cy="399.1738" fill="#ADD1B2" rx="11" ry="11" style="stroke:#181818;stroke-width:1;"/><path d="M235.4116,405.3169 Q234.8306,405.6157 234.1914,405.7651 Q233.5522,405.9146 232.8467,405.9146 Q230.3398,405.9146 229.02,404.2627 Q227.7002,402.6108 227.7002,399.4897 Q227.7002,396.3604 229.02,394.7085 Q230.3398,393.0566 232.8467,393.0566 Q233.5522,393.0566 234.1997,393.2061 Q234.8472,393.3555 235.4116,393.6543 L235.4116,396.377 Q234.7808,395.7959 234.1873,395.5261 Q233.5937,395.2563 232.9629,395.2563 Q231.6182,395.2563 230.9333,396.323 Q230.2485,397.3896 230.2485,399.4897 Q230.2485,401.5815 230.9333,402.6482 Q231.6182,403.7148 232.9629,403.7148 Q233.5937,403.7148 234.1873,403.4451 Q234.7808,403.1753 235.4116,402.5942 Z " fill="#000000"/><text fill="#000000" font-family="sans-serif" font-size="14" lengthAdjust="spacing" textLength="88.7852" x="246.9385" y="404.4648">LongCastling</text></g><!--class ShortCastling--><g id="elem_ShortCastling"><rect codeLine="105" fill="#FDF5E6" height="32" id="ShortCastling" style="stroke:#181818;stroke-width:0.5;" width="123.0957" x="358.7236" y="383.1738"/><ellipse cx="373.7236" cy="399.1738" fill="#ADD1B2" rx="11" ry="11" style="stroke:#181818;stroke-width:1;"/><path d="M376.1968,405.3169 Q375.6157,405.6157 374.9766,405.7651 Q374.3374,405.9146 373.6318,405.9146 Q371.125,405.9146 369.8052,404.2627 Q368.4854,402.6108 368.4854,399.4897 Q368.4854,396.3604 369.8052,394.7085 Q371.125,393.0566 373.6318,393.0566 Q374.3374,393.0566 374.9849,393.2061 Q375.6323,393.3555 376.1968,393.6543 L376.1968,396.377 Q375.5659,395.7959 374.9724,395.5261 Q374.3789,395.2563 373.748,395.2563 Q372.4033,395.2563 371.7185,396.323 Q371.0337,397.3896 371.0337,399.4897 Q371.0337,401.5815 371.7185,402.6482 Q372.4033,403.7148 373.748,403.7148 Q374.3789,403.7148 374.9724,403.4451 Q375.5659,403.1753 376.1968,402.5942 Z " fill="#000000"/><text fill="#000000" font-family="sans-serif" font-size="14" lengthAdjust="spacing" textLength="91.0957" x="387.7236" y="404.4648">ShortCastling</text></g><!--class Promotion--><g id="elem_Promotion"><rect codeLine="106" fill="#FDF5E6" height="32" id="Promotion" style="stroke:#181818;stroke-width:0.5;" width="102.3076" x="501.8193" y="383.1738"/><ellipse cx="516.8193" cy="399.1738" fill="#ADD1B2" rx="11" ry="11" style="stroke:#181818;stroke-width:1;"/><path d="M519.2925,405.3169 Q518.7114,405.6157 518.0723,405.7651 Q517.4331,405.9146 516.7275,405.9146 Q514.2207,405.9146 512.9009,404.2627 Q511.5811,402.6108 511.5811,399.4897 Q511.5811,396.3604 512.9009,394.7085 Q514.2207,393.0566 516.7275,393.0566 Q517.4331,393.0566 518.0806,393.2061 Q518.728,393.3555 519.2925,393.6543 L519.2925,396.377 Q518.6616,395.7959 518.0681,395.5261 Q517.4746,395.2563 516.8437,395.2563 Q515.499,395.2563 514.8142,396.323 Q514.1294,397.3896 514.1294,399.4897 Q514.1294,401.5815 514.8142,402.6482 Q515.499,403.7148 516.8437,403.7148 Q517.4746,403.7148 518.0681,403.4451 Q518.6616,403.1753 519.2925,402.5942 Z " fill="#000000"/><text fill="#000000" font-family="sans-serif" font-size="14" lengthAdjust="spacing" textLength="70.3076" x="530.8193" y="404.4648">Promotion</text></g><!--class PromotionWithCapture--><g id="elem_PromotionWithCapture"><rect codeLine="107" fill="#FDF5E6" height="32" id="PromotionWithCapture" style="stroke:#181818;stroke-width:0.5;" width="185.9385" x="12" y="383.1738"/><ellipse cx="27" cy="399.1738" fill="#ADD1B2" rx="11" ry="11" style="stroke:#181818;stroke-width:1;"/><path d="M29.4731,405.3169 Q28.8921,405.6157 28.2529,405.7651 Q27.6138,405.9146 26.9082,405.9146 Q24.4014,405.9146 23.0815,404.2627 Q21.7617,402.6108 21.7617,399.4897 Q21.7617,396.3604 23.0815,394.7085 Q24.4014,393.0566 26.9082,393.0566 Q27.6138,393.0566 28.2612,393.2061 Q28.9087,393.3555 29.4731,393.6543 L29.4731,396.377 Q28.8423,395.7959 28.2488,395.5261 Q27.6553,395.2563 27.0244,395.2563 Q25.6797,395.2563 24.9949,396.323 Q24.3101,397.3896 24.3101,399.4897 Q24.3101,401.5815 24.9949,402.6482 Q25.6797,403.7148 27.0244,403.7148 Q27.6553,403.7148 28.2488,403.4451 Q28.8423,403.1753 29.4731,402.5942 Z " fill="#000000"/><text fill="#000000" font-family="sans-serif" font-size="14" lengthAdjust="spacing" textLength="153.9385" x="41" y="404.4648">PromotionWithCapture</text></g><line style="stroke:#181818;stroke-width:1;stroke-dasharray:7.0,7.0;" x1="1294.3723" x2="1294.3723" y1="169.9316" y2="247.2422"/><polygon fill="#FFFFFF" points="1294.3723,169.9316,1287.3723,188.9316,1301.3723,188.9316,1294.3723,169.9316" style="stroke:#181818;stroke-width:1;"/><line style="stroke:#181818;stroke-width:1;stroke-dasharray:7.0,7.0;" x1="1009.625" x2="1009.625" y1="279.2422" y2="383.1738"/><polygon fill="#FFFFFF" points="1009.625,279.2422,1002.625,298.2422,1016.625,298.2422,1009.625,279.2422" style="stroke:#181818;stroke-width:1;"/><line style="stroke:#181818;stroke-width:1;stroke-dasharray:7.0,7.0;" x1="893.2426" x2="893.2426" y1="279.2422" y2="355.8633"/><line style="stroke:#181818;stroke-width:1;stroke-dasharray:7.0,7.0;" x1="893.2426" x2="981.7819" y1="355.8633" y2="355.8633"/><line style="stroke:#181818;stroke-width:1;stroke-dasharray:7.0,7.0;" x1="981.7819" x2="981.7819" y1="355.8633" y2="383.1738"/><polygon fill="#FFFFFF" points="893.2426,279.2422,886.2426,298.2422,900.2426,298.2422,893.2426,279.2422" style="stroke:#181818;stroke-width:1;"/><line style="stroke:#181818;stroke-width:1;stroke-dasharray:7.0,7.0;" x1="868.4399" x2="868.4399" y1="279.2422" y2="481.7949"/><line style="stroke:#181818;stroke-width:1;stroke-dasharray:7.0,7.0;" x1="868.4399" x2="954.3652" y1="481.7949" y2="481.7949"/><line style="stroke:#181818;stroke-width:1;stroke-dasharray:7.0,7.0;" x1="954.3652" x2="954.3652" y1="481.7949" y2="509.1055"/><polygon fill="#FFFFFF" points="868.4399,279.2422,861.4399,298.2422,875.4399,298.2422,868.4399,279.2422" style="stroke:#181818;stroke-width:1;"/><line style="stroke:#181818;stroke-width:1;" x1="1010.4149" x2="1010.4149" y1="541.1055" y2="568.416"/><line style="stroke:#181818;stroke-width:1;" x1="1010.4149" x2="1336.5533" y1="568.416" y2="568.416"/><line style="stroke:#181818;stroke-width:1;" x1="1336.5533" x2="1336.5533" y1="568.416" y2="730.5534"/><polygon fill="#FFFFFF" points="1010.4149,541.1055,1003.4149,560.1055,1017.4149,560.1055,1010.4149,541.1055" style="stroke:#181818;stroke-width:1;"/><line style="stroke:#181818;stroke-width:1;stroke-dasharray:7.0,7.0;" x1="1398.0087" x2="1398.0087" y1="541.1055" y2="730.5534"/><polygon fill="#FFFFFF" points="1398.0087,541.1055,1391.0087,560.1055,1405.0087,560.1055,1398.0087,541.1055" style="stroke:#181818;stroke-width:1;"/><line style="stroke:#181818;stroke-width:1;" x1="933.9835" x2="933.9835" y1="541.1055" y2="568.416"/><line style="stroke:#181818;stroke-width:1;" x1="933.9835" x2="597.0119" y1="568.416" y2="568.416"/><line style="stroke:#181818;stroke-width:1;" x1="597.0119" x2="597.0119" y1="568.416" y2="665.0371"/><polygon fill="#FFFFFF" points="933.9835,541.1055,926.9835,560.1055,940.9835,560.1055,933.9835,541.1055" style="stroke:#181818;stroke-width:1;"/><line style="stroke:#181818;stroke-width:1;" x1="1348.8444" x2="1348.8444" y1="762.5534" y2="823.9668"/><line style="stroke:#181818;stroke-width:1;" x1="1348.8444" x2="1234.2115" y1="823.9668" y2="823.9668"/><line style="stroke:#181818;stroke-width:1;" x1="1234.2115" x2="1234.2115" y1="823.9668" y2="863.9668"/><polygon fill="#FFFFFF" points="1348.8444,762.5534,1341.8444,781.5534,1355.8444,781.5534,1348.8444,762.5534" style="stroke:#181818;stroke-width:1;"/><line style="stroke:#181818;stroke-width:1;" x1="1311.9712" x2="1311.9712" y1="762.5534" y2="813.9668"/><line style="stroke:#181818;stroke-width:1;" x1="1311.9712" x2="1142.8297" y1="813.9668" y2="813.9668"/><line style="stroke:#181818;stroke-width:1;" x1="1142.8297" x2="1142.8297" y1="813.9668" y2="863.9668"/><polygon fill="#FFFFFF" points="1311.9712,762.5534,1304.9712,781.5534,1318.9712,781.5534,1311.9712,762.5534" style="stroke:#181818;stroke-width:1;"/><line style="stroke:#181818;stroke-width:1;" x1="1385.7177" x2="1385.7177" y1="762.5534" y2="833.9668"/><line style="stroke:#181818;stroke-width:1;" x1="1385.7177" x2="1325.9967" y1="833.9668" y2="833.9668"/><line style="stroke:#181818;stroke-width:1;" x1="1325.9967" x2="1325.9967" y1="833.9668" y2="863.9668"/><polygon fill="#FFFFFF" points="1385.7177,762.5534,1378.7177,781.5534,1392.7177,781.5534,1385.7177,762.5534" style="stroke:#181818;stroke-width:1;"/><line style="stroke:#181818;stroke-width:1;" x1="1422.5909" x2="1422.5909" y1="762.5534" y2="863.9668"/><polygon fill="#FFFFFF" points="1422.5909,762.5534,1415.5909,781.5534,1429.5909,781.5534,1422.5909,762.5534" style="stroke:#181818;stroke-width:1;"/><line style="stroke:#181818;stroke-width:1;" x1="979.8423" x2="979.8423" y1="541.1055" y2="598.416"/><line style="stroke:#181818;stroke-width:1;" x1="979.8423" x2="956.2546" y1="598.416" y2="598.416"/><line style="stroke:#181818;stroke-width:1;" x1="956.2546" x2="956.2546" y1="598.416" y2="665.0371"/><polygon fill="#FFFFFF" points="979.8423,541.1055,972.8423,560.1055,986.8423,560.1055,979.8423,541.1055" style="stroke:#181818;stroke-width:1;"/><line style="stroke:#181818;stroke-width:1;stroke-dasharray:7.0,7.0;" x1="843.6372" x2="843.6372" y1="279.2422" y2="306.5527"/><line style="stroke:#181818;stroke-width:1;stroke-dasharray:7.0,7.0;" x1="843.6372" x2="821.0337" y1="306.5527" y2="306.5527"/><line style="stroke:#181818;stroke-width:1;stroke-dasharray:7.0,7.0;" x1="821.0337" x2="821.0337" y1="306.5527" y2="637.7266"/><line style="stroke:#181818;stroke-width:1;stroke-dasharray:7.0,7.0;" x1="821.0337" x2="814.8631" y1="637.7266" y2="637.7266"/><line style="stroke:#181818;stroke-width:1;stroke-dasharray:7.0,7.0;" x1="814.8631" x2="814.8631" y1="637.7266" y2="722.2707"/><polygon fill="#FFFFFF" points="843.6372,279.2422,836.6372,298.2422,850.6372,298.2422,843.6372,279.2422" style="stroke:#181818;stroke-width:1;"/><line style="stroke:#181818;stroke-width:1;" x1="871.1689" x2="871.1689" y1="754.2707" y2="989.8984"/><polygon fill="#FFFFFF" points="871.1689,754.2707,864.1689,773.2707,878.1689,773.2707,871.1689,754.2707" style="stroke:#181818;stroke-width:1;"/><line style="stroke:#181818;stroke-width:1;" x1="837.3854" x2="837.3854" y1="754.2707" y2="823.9668"/><line style="stroke:#181818;stroke-width:1;" x1="837.3854" x2="776.1894" y1="823.9668" y2="823.9668"/><line style="stroke:#181818;stroke-width:1;" x1="776.1894" x2="776.1894" y1="823.9668" y2="863.9668"/><polygon fill="#FFFFFF" points="837.3854,754.2707,830.3854,773.2707,844.3854,773.2707,837.3854,754.2707" style="stroke:#181818;stroke-width:1;"/><line style="stroke:#181818;stroke-width:1;" x1="803.602" x2="803.602" y1="754.2707" y2="813.9668"/><line style="stroke:#181818;stroke-width:1;" x1="803.602" x2="605.3466" y1="813.9668" y2="813.9668"/><line style="stroke:#181818;stroke-width:1;" x1="605.3466" x2="605.3466" y1="813.9668" y2="863.9668"/><polygon fill="#FFFFFF" points="803.602,754.2707,796.602,773.2707,810.602,773.2707,803.602,754.2707" style="stroke:#181818;stroke-width:1;"/><line style="stroke:#181818;stroke-width:1;" x1="579.0588" x2="579.0588" y1="895.9668" y2="989.8984"/><polygon fill="#FFFFFF" points="579.0588,895.9668,572.0588,914.9668,586.0588,914.9668,579.0588,895.9668" style="stroke:#181818;stroke-width:1;"/><line style="stroke:#181818;stroke-width:1;" x1="729.1479" x2="729.1479" y1="169.9316" y2="217.2422"/><line style="stroke:#181818;stroke-width:1;" x1="729.1479" x2="652.6343" y1="217.2422" y2="217.2422"/><line style="stroke:#181818;stroke-width:1;" x1="652.6343" x2="652.6343" y1="217.2422" y2="253.0124"/><polygon fill="#FFFFFF" points="729.1479,169.9316,722.1479,188.9316,736.1479,188.9316,729.1479,169.9316" style="stroke:#181818;stroke-width:1;"/><line style="stroke:#181818;stroke-width:1;" x1="693.0972" x2="693.0972" y1="169.9316" y2="197.2422"/><line style="stroke:#181818;stroke-width:1;" x1="693.0972" x2="104.9692" y1="197.2422" y2="197.2422"/><line style="stroke:#181818;stroke-width:1;" x1="104.9692" x2="104.9692" y1="197.2422" y2="255.8975"/><polygon fill="#FFFFFF" points="693.0972,169.9316,686.0972,188.9316,700.0972,188.9316,693.0972,169.9316" style="stroke:#181818;stroke-width:1;"/><line style="stroke:#181818;stroke-width:1;" x1="673.9648" x2="673.9648" y1="285.0124" y2="383.1738"/><polygon fill="#FFFFFF" points="673.9648,285.0124,666.9648,304.0124,680.9648,304.0124,673.9648,285.0124" style="stroke:#181818;stroke-width:1;"/><line style="stroke:#181818;stroke-width:1;" x1="711.1226" x2="711.1226" y1="169.9316" y2="207.2422"/><line style="stroke:#181818;stroke-width:1;" x1="711.1226" x2="405.721" y1="207.2422" y2="207.2422"/><line style="stroke:#181818;stroke-width:1;" x1="405.721" x2="405.721" y1="207.2422" y2="253.0124"/><polygon fill="#FFFFFF" points="711.1226,169.9316,704.1226,188.9316,718.1226,188.9316,711.1226,169.9316" style="stroke:#181818;stroke-width:1;"/><line style="stroke:#181818;stroke-width:1;" x1="391.1706" x2="391.1706" y1="285.0124" y2="306.5527"/><line style="stroke:#181818;stroke-width:1;" x1="391.1706" x2="278.3311" y1="306.5527" y2="306.5527"/><line style="stroke:#181818;stroke-width:1;" x1="278.3311" x2="278.3311" y1="306.5527" y2="383.1738"/><polygon fill="#FFFFFF" points="391.1706,285.0124,384.1706,304.0124,398.1706,304.0124,391.1706,285.0124" style="stroke:#181818;stroke-width:1;"/><line style="stroke:#181818;stroke-width:1;" x1="420.2715" x2="420.2715" y1="285.0124" y2="383.1738"/><polygon fill="#FFFFFF" points="420.2715,285.0124,413.2715,304.0124,427.2715,304.0124,420.2715,285.0124" style="stroke:#181818;stroke-width:1;"/><line style="stroke:#181818;stroke-width:1;" x1="631.3037" x2="631.3037" y1="285.0124" y2="306.5527"/><line style="stroke:#181818;stroke-width:1;" x1="631.3037" x2="552.9731" y1="306.5527" y2="306.5527"/><line style="stroke:#181818;stroke-width:1;" x1="552.9731" x2="552.9731" y1="306.5527" y2="383.1738"/><polygon fill="#FFFFFF" points="631.3037,285.0124,624.3037,304.0124,638.3037,304.0124,631.3037,285.0124" style="stroke:#181818;stroke-width:1;"/><line style="stroke:#181818;stroke-width:1;" x1="104.9692" x2="104.9692" y1="287.8975" y2="383.1738"/><polygon fill="#FFFFFF" points="104.9692,287.8975,97.9692,306.8975,111.9692,306.8975,104.9692,287.8975" style="stroke:#181818;stroke-width:1;"/><line style="stroke:#181818;stroke-width:1;" x1="1247.5025" x2="1247.5025" y1="169.9316" y2="197.2422"/><line style="stroke:#181818;stroke-width:1;" x1="1247.5025" x2="1115.4106" y1="197.2422" y2="197.2422"/><line style="stroke:#181818;stroke-width:1;" x1="1115.4106" x2="1115.4106" y1="197.2422" y2="509.1055"/><polygon fill="#181818" points="1115.4106,509.1055,1119.4106,500.1055,1115.4106,504.1055,1111.4106,500.1055,1115.4106,509.1055" style="stroke:#181818;stroke-width:1;"/><text fill="#000000" font-family="sans-serif" font-size="13" lengthAdjust="spacing" textLength="49.9116" x="1061.499" y="341.1211">manage</text><text fill="#000000" font-family="sans-serif" font-size="13" lengthAdjust="spacing" textLength="8.2202" x="1250.5025" y="184.5">1</text><text fill="#000000" font-family="sans-serif" font-size="13" lengthAdjust="spacing" textLength="8.2202" x="1118.4106" y="504.3633">1</text><line style="stroke:#181818;stroke-width:1;" x1="1264.875" x2="1264.875" y1="279.2422" y2="306.5527"/><line style="stroke:#181818;stroke-width:1;" x1="1264.875" x2="1048.499" y1="306.5527" y2="306.5527"/><line style="stroke:#181818;stroke-width:1;" x1="1048.499" x2="1048.499" y1="306.5527" y2="355.8633"/><line style="stroke:#181818;stroke-width:1;" x1="1048.499" x2="1037.468" y1="355.8633" y2="355.8633"/><line style="stroke:#181818;stroke-width:1;" x1="1037.468" x2="1037.468" y1="355.8633" y2="383.1738"/><polygon fill="#181818" points="1037.468,383.1738,1041.468,374.1738,1037.468,378.1738,1033.468,374.1738,1037.468,383.1738" style="stroke:#181818;stroke-width:1;"/><text fill="#000000" font-family="sans-serif" font-size="13" lengthAdjust="spacing" textLength="21.874" x="1022.625" y="341.1211">has</text><text fill="#000000" font-family="sans-serif" font-size="13" lengthAdjust="spacing" textLength="8.2202" x="1267.875" y="293.8105">1</text><text fill="#000000" font-family="sans-serif" font-size="13" lengthAdjust="spacing" textLength="8.2202" x="1040.468" y="378.4316">1</text><line style="stroke:#181818;stroke-width:1;" x1="1294.3723" x2="1294.3723" y1="279.2422" y2="316.5527"/><line style="stroke:#181818;stroke-width:1;" x1="1294.3723" x2="1218.7578" y1="316.5527" y2="316.5527"/><line style="stroke:#181818;stroke-width:1;" x1="1218.7578" x2="1218.7578" y1="316.5527" y2="665.0371"/><polygon fill="#181818" points="1218.7578,665.0371,1222.7578,656.0371,1218.7578,660.0371,1214.7578,656.0371,1218.7578,665.0371" style="stroke:#181818;stroke-width:1;"/><text fill="#000000" font-family="sans-serif" font-size="13" lengthAdjust="spacing" textLength="86.3472" x="1128.4106" y="467.0527">has turnColor</text><text fill="#000000" font-family="sans-serif" font-size="13" lengthAdjust="spacing" textLength="8.2202" x="1297.3723" y="293.8105">1</text><text fill="#000000" font-family="sans-serif" font-size="13" lengthAdjust="spacing" textLength="8.2202" x="1221.7578" y="660.2949">1</text><line style="stroke:#181818;stroke-width:1;" x1="1323.8696" x2="1323.8696" y1="279.2422" y2="383.1738"/><polygon fill="#181818" points="1323.8696,383.1738,1327.8696,374.1738,1323.8696,378.1738,1319.8696,374.1738,1323.8696,383.1738" style="stroke:#181818;stroke-width:1;"/><text fill="#000000" font-family="sans-serif" font-size="13" lengthAdjust="spacing" textLength="88.1118" x="1231.7578" y="341.1211">uses statically</text><line style="stroke:#181818;stroke-width:1;" x1="1037.468" x2="1037.468" y1="415.1738" y2="481.7949"/><line style="stroke:#181818;stroke-width:1;" x1="1037.468" x2="1080.6655" y1="481.7949" y2="481.7949"/><line style="stroke:#181818;stroke-width:1;" x1="1080.6655" x2="1080.6655" y1="481.7949" y2="509.1055"/><polygon fill="#181818" points="1080.6655,509.1055,1084.6655,500.1055,1080.6655,504.1055,1076.6655,500.1055,1080.6655,509.1055" style="stroke:#181818;stroke-width:1;"/><text fill="#000000" font-family="sans-serif" font-size="13" lengthAdjust="spacing" textLength="21.874" x="1011.5939" y="467.0527">has</text><text fill="#000000" font-family="sans-serif" font-size="13" lengthAdjust="spacing" textLength="8.2202" x="1040.468" y="429.7422">1</text><text fill="#000000" font-family="sans-serif" font-size="13" lengthAdjust="spacing" textLength="8.2202" x="1083.6655" y="504.3633">1</text><line style="stroke:#181818;stroke-width:1;" x1="1009.625" x2="1009.625" y1="415.1738" y2="442.4844"/><line style="stroke:#181818;stroke-width:1;" x1="1009.625" x2="990.0332" y1="442.4844" y2="442.4844"/><line style="stroke:#181818;stroke-width:1;" x1="990.0332" x2="990.0332" y1="442.4844" y2="509.1055"/><polygon fill="#181818" points="990.0332,509.1055,994.0332,500.1055,990.0332,504.1055,986.0332,500.1055,990.0332,509.1055" style="stroke:#181818;stroke-width:1;"/><text fill="#000000" font-family="sans-serif" font-size="13" lengthAdjust="spacing" textLength="21.874" x="964.1591" y="467.0527">has</text><text fill="#000000" font-family="sans-serif" font-size="13" lengthAdjust="spacing" textLength="8.2202" x="1012.625" y="429.7422">1</text><text fill="#000000" font-family="sans-serif" font-size="13" lengthAdjust="spacing" textLength="32.8872" x="993.0332" y="504.3633">2..32</text><line style="stroke:#181818;stroke-width:1;" x1="981.7819" x2="981.7819" y1="415.1738" y2="442.4844"/><line style="stroke:#181818;stroke-width:1;" x1="981.7819" x2="807.0337" y1="442.4844" y2="442.4844"/><line style="stroke:#181818;stroke-width:1;" x1="807.0337" x2="807.0337" y1="442.4844" y2="481.7949"/><line style="stroke:#181818;stroke-width:1;" x1="807.0337" x2="782.4173" y1="481.7949" y2="481.7949"/><line style="stroke:#181818;stroke-width:1;" x1="782.4173" x2="782.4173" y1="481.7949" y2="509.1055"/><polygon fill="#181818" points="782.4173,509.1055,786.4173,500.1055,782.4173,504.1055,778.4173,500.1055,782.4173,509.1055" style="stroke:#181818;stroke-width:1;"/><text fill="#000000" font-family="sans-serif" font-size="13" lengthAdjust="spacing" textLength="21.874" x="781.1597" y="467.0527">has</text><text fill="#000000" font-family="sans-serif" font-size="13" lengthAdjust="spacing" textLength="8.2202" x="984.7819" y="429.7422">1</text><text fill="#000000" font-family="sans-serif" font-size="13" lengthAdjust="spacing" textLength="8.2202" x="785.4173" y="504.3633">2</text><line style="stroke:#181818;stroke-width:1;" x1="949.2698" x2="949.2698" y1="541.1055" y2="578.416"/><line style="stroke:#181818;stroke-width:1;" x1="949.2698" x2="700.1515" y1="578.416" y2="578.416"/><line style="stroke:#181818;stroke-width:1;" x1="700.1515" x2="700.1515" y1="578.416" y2="665.0371"/><polygon fill="#181818" points="700.1515,665.0371,704.1515,656.0371,700.1515,660.0371,696.1515,656.0371,700.1515,665.0371" style="stroke:#181818;stroke-width:1;"/><text fill="#000000" font-family="sans-serif" font-size="13" lengthAdjust="spacing" textLength="21.874" x="674.2775" y="622.9844">has</text><text fill="#000000" font-family="sans-serif" font-size="13" lengthAdjust="spacing" textLength="8.2202" x="952.2698" y="555.6738">1</text><text fill="#000000" font-family="sans-serif" font-size="13" lengthAdjust="spacing" textLength="8.2202" x="703.1515" y="660.2949">1</text><line style="stroke:#181818;stroke-width:1;" x1="995.1286" x2="995.1286" y1="541.1055" y2="637.7266"/><line style="stroke:#181818;stroke-width:1;" x1="995.1286" x2="1182.4176" y1="637.7266" y2="637.7266"/><line style="stroke:#181818;stroke-width:1;" x1="1182.4176" x2="1182.4176" y1="637.7266" y2="665.0371"/><polygon fill="#181818" points="1182.4176,665.0371,1186.4176,656.0371,1182.4176,660.0371,1178.4176,656.0371,1182.4176,665.0371" style="stroke:#181818;stroke-width:1;"/><text fill="#000000" font-family="sans-serif" font-size="13" lengthAdjust="spacing" textLength="21.874" x="969.2546" y="622.9844">has</text><text fill="#000000" font-family="sans-serif" font-size="13" lengthAdjust="spacing" textLength="8.2202" x="998.1286" y="555.6738">1</text><text fill="#000000" font-family="sans-serif" font-size="13" lengthAdjust="spacing" textLength="8.2202" x="1185.4176" y="660.2949">1</text><line style="stroke:#181818;stroke-width:1;" x1="964.556" x2="964.556" y1="541.1055" y2="588.416"/><line style="stroke:#181818;stroke-width:1;" x1="964.556" x2="859.9077" y1="588.416" y2="588.416"/><line style="stroke:#181818;stroke-width:1;" x1="859.9077" x2="859.9077" y1="588.416" y2="722.2707"/><polygon fill="#181818" points="859.9077,722.2707,863.9077,713.2707,859.9077,717.2707,855.9077,713.2707,859.9077,722.2707" style="stroke:#181818;stroke-width:1;"/><text fill="#000000" font-family="sans-serif" font-size="13" lengthAdjust="spacing" textLength="21.874" x="834.0337" y="622.9844">has</text><text fill="#000000" font-family="sans-serif" font-size="13" lengthAdjust="spacing" textLength="8.2202" x="967.556" y="555.6738">1</text><text fill="#000000" font-family="sans-serif" font-size="13" lengthAdjust="spacing" textLength="22.7119" x="862.9077" y="717.5285">1..*</text><line style="stroke:#181818;stroke-width:1;" x1="842.3336" x2="842.3336" y1="1021.8984" y2="1115.8301"/><polygon fill="#181818" points="842.3336,1115.8301,846.3336,1106.8301,842.3336,1110.8301,838.3336,1106.8301,842.3336,1115.8301" style="stroke:#181818;stroke-width:1;"/><text fill="#000000" font-family="sans-serif" font-size="13" lengthAdjust="spacing" textLength="21.874" x="816.4596" y="1073.7773">has</text><text fill="#000000" font-family="sans-serif" font-size="13" lengthAdjust="spacing" textLength="6.2651" x="845.3336" y="1036.4668">*</text><text fill="#000000" font-family="sans-serif" font-size="13" lengthAdjust="spacing" textLength="22.7119" x="845.3336" y="1111.0879">1..*</text><line style="stroke:#181818;stroke-width:1;" x1="631.6344" x2="631.6344" y1="895.9668" y2="962.5879"/><line style="stroke:#181818;stroke-width:1;" x1="631.6344" x2="813.4983" y1="962.5879" y2="962.5879"/><line style="stroke:#181818;stroke-width:1;" x1="813.4983" x2="813.4983" y1="962.5879" y2="989.8984"/><polygon fill="#181818" points="813.4983,989.8984,817.4983,980.8984,813.4983,984.8984,809.4983,980.8984,813.4983,989.8984" style="stroke:#181818;stroke-width:1;"/><text fill="#000000" font-family="sans-serif" font-size="13" lengthAdjust="spacing" textLength="21.874" x="605.7603" y="947.8457">has</text><text fill="#000000" font-family="sans-serif" font-size="13" lengthAdjust="spacing" textLength="8.2202" x="634.6344" y="910.5352">1</text><text fill="#000000" font-family="sans-serif" font-size="13" lengthAdjust="spacing" textLength="22.7119" x="816.4983" y="985.1563">1..*</text><line style="stroke:#181818;stroke-width:1;" x1="747.1733" x2="747.1733" y1="169.9316" y2="481.7949"/><line style="stroke:#181818;stroke-width:1;" x1="747.1733" x2="747.9802" y1="481.7949" y2="481.7949"/><line style="stroke:#181818;stroke-width:1;" x1="747.9802" x2="747.9802" y1="481.7949" y2="509.1055"/><polygon fill="#181818" points="747.9802,509.1055,751.9802,500.1055,747.9802,504.1055,743.9802,500.1055,747.9802,509.1055" style="stroke:#181818;stroke-width:1;"/><text fill="#000000" font-family="sans-serif" font-size="13" lengthAdjust="spacing" textLength="56.2085" x="686.9648" y="341.1211">has from</text><text fill="#000000" font-family="sans-serif" font-size="13" lengthAdjust="spacing" textLength="8.2202" x="750.1733" y="184.5">1</text><text fill="#000000" font-family="sans-serif" font-size="13" lengthAdjust="spacing" textLength="8.2202" x="750.9802" y="504.3633">1</text><line style="stroke:#181818;stroke-width:1;" x1="765.1987" x2="765.1987" y1="169.9316" y2="509.1055"/><polygon fill="#181818" points="765.1987,509.1055,769.1987,500.1055,765.1987,504.1055,761.1987,500.1055,765.1987,509.1055" style="stroke:#181818;stroke-width:1;"/><text fill="#000000" font-family="sans-serif" font-size="13" lengthAdjust="spacing" textLength="38.835" x="770.1987" y="341.1211">has to</text><text fill="#000000" font-family="sans-serif" font-size="13" lengthAdjust="spacing" textLength="8.2202" x="768.1987" y="184.5">1</text><text fill="#000000" font-family="sans-serif" font-size="13" lengthAdjust="spacing" textLength="8.2202" x="768.1987" y="504.3633">1</text><line style="stroke:#181818;stroke-width:1;" x1="729.1479" x2="729.1479" y1="44" y2="137.9316"/><polygon fill="#181818" points="729.1479,137.9316,733.1479,128.9316,729.1479,132.9316,725.1479,128.9316,729.1479,137.9316" style="stroke:#181818;stroke-width:1;"/><text fill="#000000" font-family="sans-serif" font-size="13" lengthAdjust="spacing" textLength="21.874" x="703.2739" y="95.8789">has</text><text fill="#000000" font-family="sans-serif" font-size="13" lengthAdjust="spacing" textLength="8.2202" x="732.1479" y="58.5684">1</text><text fill="#000000" font-family="sans-serif" font-size="13" lengthAdjust="spacing" textLength="6.2651" x="732.1479" y="133.1895">*</text><line style="stroke:#181818;stroke-width:1;" x1="673.9648" x2="673.9648" y1="415.1738" y2="481.7949"/><line style="stroke:#181818;stroke-width:1;" x1="673.9648" x2="730.7616" y1="481.7949" y2="481.7949"/><line style="stroke:#181818;stroke-width:1;" x1="730.7616" x2="730.7616" y1="481.7949" y2="509.1055"/><polygon fill="#181818" points="730.7616,509.1055,734.7616,500.1055,730.7616,504.1055,726.7616,500.1055,730.7616,509.1055" style="stroke:#181818;stroke-width:1;"/><text fill="#000000" font-family="sans-serif" font-size="13" lengthAdjust="spacing" textLength="111.0586" x="558.9062" y="467.0527">has capture pawn</text><text fill="#000000" font-family="sans-serif" font-size="13" lengthAdjust="spacing" textLength="8.2202" x="676.9648" y="429.7422">1</text><text fill="#000000" font-family="sans-serif" font-size="13" lengthAdjust="spacing" textLength="8.2202" x="733.7616" y="504.3633">1</text><!--SRC=[bPPBSzem4CVl_XGgFMGcqzBNBPDX9Zn266YWa9HZHzWRh8aiUIJHb7JotIjPjcNvaL0EO4k__-vgjLhnBXLuds14yP4V50Bw6CGa0WH9geue0HNpI5Q7i5A2x0uAP20V2Kknm0cYX84wfe2uq8BAXE075esuO23GvyfuIB6KLuMfMSZPXZo3XumCCiJXuputGhb0xvSqMk0GAjmjLt02jebnn9y8swC7J2K4YgT8SRJZIl44HKH0g0XdGN0frP72843wauKv9dXlBFpDXioddmh-MwSageoPJpsCQSobsiP4WOSjTBOiC2R9LC3HcxtcJBNFlWJs-_9J7gBTbylB8fp104a50hZPYo0WJByyw3IWKGnIZhHXmIa5uId-lbJ9UmbY57CIGWCwGmxhZGL-mZiAQv3y83Gz6VHyXUPV6Z7y9F3KOXZlf18uL3RXg3V44ZAqRfKaAOK4c9BENk7gB5TFxsSDD_170Ojgbkj2dI39AVoVE9UQO2PihtUs4QFBUotNsUoGOn7PPVYJb3Cm6Mwag-8n4pSSbYO_E2kPifPc1yyOKGJJvpn4ExtYafWZaGq1EoHefRk4BWzJdBMzDeMvlPdTJRAduU9gD0zA5O4GxdH5jcXMLzlRx66zNCwpX_djR7fpPytCDZVBLVRuutuoiU1yTZiDEjQIUVBIKLr-JR4IFE7AJ5QqnLQtctE7mzZBpU0drYOhWJNdZoNGwhH4vupiOtKYF2GorZtiDFZ70O2T6eLfakqhQgJzE_yDKz3T7IlTiBeoRzbnqMCnTPB2Zs-ebf6JyJ6H2hCGJXQOtUiMDMVAer0k9Y_aw-LwUxKURspXwl9tRul9jQtdTLdP1Vshd2j775HQSPGRifZP4RSHilEGczdAoTxeLKNws6V3tauNOAx5gJg8Lv49M-aVp5pLUiQRnsw4fQAD2lEDBZZRDxbYeCGsiVwxSG9doztiLLUCDMvBLDnOU_vkibXlwxqlFVJnuo3xTTVI1Kemmtj00trJ-7T7Gr0nTe52JEbE_vLe4txkzyzphNrilOcr4QdBrRWEgbTJmw-zG2vGZALckz1AtyzPdGfcttsLKRHUAnVe87M1wlEaY5dViH3Q2BeoM8ch1dxjzxzzxLNxKq6VeLVuyb9xWsvRT4SWBKOhKNbvB6x2Dy4kttKqAm6_jnLyqDflU-UUrBMnGjRiUJLlhMPBf-uqU-ln4_IW3rgnehTO_H_TR9BjRoLttfBq9k8S58nhLw-u3FEZdfghVH3y0m00]--></g></svg>