<svg xmlns="http://www.w3.org/2000/svg" xmlns:xlink="http://www.w3.org/1999/xlink" contentStyleType="text/css" height="1651px" preserveAspectRatio="none" style="width:1944px;height:1651px;background:#FFFFFF;" version="1.1" viewBox="0 0 1944 1651" width="1944px" zoomAndPan="magnify"><defs/><g><!--class ChessController--><g id="elem_ChessController"><rect codeLine="24" fill="#F8F8FF" height="32" id="ChessController" style="stroke:#696969;stroke-width:0.5;" width="140.6094" x="1621.8336" y="12"/><ellipse cx="1636.8336" cy="28" fill="#B4A7E5" rx="11" ry="11" style="stroke:#181818;stroke-width:1;"/><path d="M1633.2613,24.2651 L1633.2613,22.1069 L1640.6407,22.1069 L1640.6407,24.2651 L1638.1754,24.2651 L1638.1754,32.3418 L1640.6407,32.3418 L1640.6407,34.5 L1633.2613,34.5 L1633.2613,32.3418 L1635.7267,32.3418 L1635.7267,24.2651 Z " fill="#000000"/><text fill="#696969" font-family="sans-serif" font-size="14" font-style="italic" lengthAdjust="spacing" textLength="108.6094" x="1650.8336" y="33.291">ChessController</text></g><!--class UserChoice--><g id="elem_UserChoice"><rect codeLine="26" fill="#F8F8FF" height="32" id="UserChoice" style="stroke:#696969;stroke-width:0.5;" width="108.3574" x="1308.9255" y="856.2109"/><ellipse cx="1323.9255" cy="872.2109" fill="#B4A7E5" rx="11" ry="11" style="stroke:#181818;stroke-width:1;"/><path d="M1320.3532,868.4761 L1320.3532,866.3179 L1327.7326,866.3179 L1327.7326,868.4761 L1325.2673,868.4761 L1325.2673,876.5527 L1327.7326,876.5527 L1327.7326,878.7109 L1320.3532,878.7109 L1320.3532,876.5527 L1322.8185,876.5527 L1322.8185,868.4761 Z " fill="#000000"/><text fill="#696969" font-family="sans-serif" font-size="14" font-style="italic" lengthAdjust="spacing" textLength="76.3574" x="1337.9255" y="877.502">UserChoice</text></g><!--class ChessView--><g id="elem_ChessView"><rect codeLine="32" fill="#F8F8FF" height="32" id="ChessView" style="stroke:#696969;stroke-width:0.5;" width="104.2354" x="1646.083" y="465.7266"/><ellipse cx="1661.083" cy="481.7266" fill="#B4A7E5" rx="11" ry="11" style="stroke:#181818;stroke-width:1;"/><path d="M1657.5107,477.9917 L1657.5107,475.8335 L1664.8901,475.8335 L1664.8901,477.9917 L1662.4248,477.9917 L1662.4248,486.0684 L1664.8901,486.0684 L1664.8901,488.2266 L1657.5107,488.2266 L1657.5107,486.0684 L1659.976,486.0684 L1659.976,477.9917 Z " fill="#000000"/><text fill="#696969" font-family="sans-serif" font-size="14" font-style="italic" lengthAdjust="spacing" textLength="72.2354" x="1675.083" y="487.0176">ChessView</text></g><!--class ChessEngine--><g id="elem_ChessEngine"><rect codeLine="59" fill="#FDF5E6" height="32" id="ChessEngine" style="stroke:#181818;stroke-width:0.5;" width="117.9893" x="1051.5232" y="137.9316"/><ellipse cx="1066.5232" cy="153.9316" fill="#ADD1B2" rx="11" ry="11" style="stroke:#181818;stroke-width:1;"/><path d="M1068.9964,160.0747 Q1068.4153,160.3735 1067.7762,160.5229 Q1067.137,160.6724 1066.4314,160.6724 Q1063.9246,160.6724 1062.6048,159.0205 Q1061.2849,157.3687 1061.2849,154.2476 Q1061.2849,151.1182 1062.6048,149.4663 Q1063.9246,147.8145 1066.4314,147.8145 Q1067.137,147.8145 1067.7845,147.9639 Q1068.4319,148.1133 1068.9964,148.4121 L1068.9964,151.1348 Q1068.3655,150.5537 1067.772,150.2839 Q1067.1785,150.0142 1066.5476,150.0142 Q1065.2029,150.0142 1064.5181,151.0808 Q1063.8333,152.1475 1063.8333,154.2476 Q1063.8333,156.3394 1064.5181,157.406 Q1065.2029,158.4727 1066.5476,158.4727 Q1067.1785,158.4727 1067.772,158.2029 Q1068.3655,157.9331 1068.9964,157.3521 Z " fill="#000000"/><text fill="#000000" font-family="sans-serif" font-size="14" lengthAdjust="spacing" textLength="85.9893" x="1080.5232" y="159.2227">ChessEngine</text></g><!--class ChessBoardWriter--><g id="elem_ChessBoardWriter"><rect codeLine="61" fill="#FDF5E6" height="32" id="ChessBoardWriter" style="stroke:#181818;stroke-width:0.5;" width="151.8887" x="385.0728" y="137.9316"/><ellipse cx="400.0728" cy="153.9316" fill="#B4A7E5" rx="11" ry="11" style="stroke:#181818;stroke-width:1;"/><path d="M396.5005,150.1968 L396.5005,148.0386 L403.8799,148.0386 L403.8799,150.1968 L401.4146,150.1968 L401.4146,158.2734 L403.8799,158.2734 L403.8799,160.4316 L396.5005,160.4316 L396.5005,158.2734 L398.9658,158.2734 L398.9658,150.1968 Z " fill="#000000"/><text fill="#000000" font-family="sans-serif" font-size="14" font-style="italic" lengthAdjust="spacing" textLength="119.8887" x="414.0728" y="159.2227">ChessBoardWriter</text></g><!--class ChessBoardReader--><g id="elem_ChessBoardReader"><rect codeLine="63" fill="#FDF5E6" height="32" id="ChessBoardReader" style="stroke:#181818;stroke-width:0.5;" width="158.0957" x="95.5234" y="309.7949"/><ellipse cx="110.5234" cy="325.7949" fill="#B4A7E5" rx="11" ry="11" style="stroke:#181818;stroke-width:1;"/><path d="M106.9512,322.0601 L106.9512,319.9019 L114.3306,319.9019 L114.3306,322.0601 L111.8652,322.0601 L111.8652,330.1367 L114.3306,330.1367 L114.3306,332.2949 L106.9512,332.2949 L106.9512,330.1367 L109.4165,330.1367 L109.4165,322.0601 Z " fill="#000000"/><text fill="#000000" font-family="sans-serif" font-size="14" font-style="italic" lengthAdjust="spacing" textLength="126.0957" x="124.5234" y="331.0859">ChessBoardReader</text></g><!--class ChessBoardController--><g id="elem_ChessBoardController"><rect codeLine="65" fill="#FDF5E6" height="32" id="ChessBoardController" style="stroke:#181818;stroke-width:0.5;" width="179.5332" x="451.1885" y="309.7949"/><ellipse cx="466.1885" cy="325.7949" fill="#ADD1B2" rx="11" ry="11" style="stroke:#181818;stroke-width:1;"/><path d="M468.6616,331.938 Q468.0806,332.2368 467.4414,332.3862 Q466.8022,332.5356 466.0967,332.5356 Q463.5898,332.5356 462.27,330.8838 Q460.9502,329.2319 460.9502,326.1108 Q460.9502,322.9814 462.27,321.3296 Q463.5898,319.6777 466.0967,319.6777 Q466.8022,319.6777 467.4497,319.8271 Q468.0972,319.9766 468.6616,320.2754 L468.6616,322.998 Q468.0308,322.417 467.4373,322.1472 Q466.8438,321.8774 466.2129,321.8774 Q464.8682,321.8774 464.1833,322.9441 Q463.4985,324.0107 463.4985,326.1108 Q463.4985,328.2026 464.1833,329.2693 Q464.8682,330.3359 466.2129,330.3359 Q466.8438,330.3359 467.4373,330.0662 Q468.0308,329.7964 468.6616,329.2153 Z " fill="#000000"/><text fill="#000000" font-family="sans-serif" font-size="14" lengthAdjust="spacing" textLength="147.5332" x="480.1885" y="331.0859">ChessBoardController</text></g><!--class Cloneable--><g id="elem_Cloneable"><rect codeLine="67" fill="#F8F8FF" height="32" id="Cloneable" style="stroke:#696969;stroke-width:0.5;" width="99.2109" x="1217.9192" y="309.7949"/><ellipse cx="1232.9192" cy="325.7949" fill="#B4A7E5" rx="11" ry="11" style="stroke:#181818;stroke-width:1;"/><path d="M1229.347,322.0601 L1229.347,319.9019 L1236.7263,319.9019 L1236.7263,322.0601 L1234.261,322.0601 L1234.261,330.1367 L1236.7263,330.1367 L1236.7263,332.2949 L1229.347,332.2949 L1229.347,330.1367 L1231.8123,330.1367 L1231.8123,322.0601 Z " fill="#000000"/><text fill="#696969" font-family="sans-serif" font-size="14" font-style="italic" lengthAdjust="spacing" textLength="67.2109" x="1246.9192" y="331.0859">Cloneable</text></g><!--class ChessBoard--><g id="elem_ChessBoard"><rect codeLine="69" fill="#FDF5E6" height="32" id="ChessBoard" style="stroke:#181818;stroke-width:0.5;" width="111.3721" x="436.7848" y="465.7266"/><ellipse cx="451.7848" cy="481.7266" fill="#ADD1B2" rx="11" ry="11" style="stroke:#181818;stroke-width:1;"/><path d="M454.258,487.8696 Q453.6769,488.1685 453.0378,488.3179 Q452.3986,488.4673 451.693,488.4673 Q449.1862,488.4673 447.8664,486.8154 Q446.5465,485.1636 446.5465,482.0425 Q446.5465,478.9131 447.8664,477.2612 Q449.1862,475.6094 451.693,475.6094 Q452.3986,475.6094 453.0461,475.7588 Q453.6935,475.9082 454.258,476.207 L454.258,478.9297 Q453.6271,478.3486 453.0336,478.0789 Q452.4401,477.8091 451.8092,477.8091 Q450.4645,477.8091 449.7797,478.8757 Q449.0949,479.9424 449.0949,482.0425 Q449.0949,484.1343 449.7797,485.2009 Q450.4645,486.2676 451.8092,486.2676 Q452.4401,486.2676 453.0336,485.9978 Q453.6271,485.728 454.258,485.147 Z " fill="#000000"/><text fill="#000000" font-family="sans-serif" font-size="14" lengthAdjust="spacing" textLength="79.3721" x="465.7848" y="487.0176">ChessBoard</text></g><!--class ChessBoardStateValidator--><g id="elem_ChessBoardStateValidator"><rect codeLine="71" fill="#FDF5E6" height="32" id="ChessBoardStateValidator" style="stroke:#181818;stroke-width:0.5;" width="206.002" x="157.3343" y="12"/><ellipse cx="172.3343" cy="28" fill="#ADD1B2" rx="11" ry="11" style="stroke:#181818;stroke-width:1;"/><path d="M174.8075,34.1431 Q174.2264,34.4419 173.5872,34.5913 Q172.9481,34.7407 172.2425,34.7407 Q169.7357,34.7407 168.4159,33.0889 Q167.096,31.437 167.096,28.3159 Q167.096,25.1865 168.4159,23.5347 Q169.7357,21.8828 172.2425,21.8828 Q172.9481,21.8828 173.5955,22.0322 Q174.243,22.1816 174.8075,22.4805 L174.8075,25.2031 Q174.1766,24.6221 173.5831,24.3523 Q172.9896,24.0825 172.3587,24.0825 Q171.014,24.0825 170.3292,25.1492 Q169.6444,26.2158 169.6444,28.3159 Q169.6444,30.4077 170.3292,31.4744 Q171.014,32.541 172.3587,32.541 Q172.9896,32.541 173.5831,32.2712 Q174.1766,32.0015 174.8075,31.4204 Z " fill="#000000"/><text fill="#000000" font-family="sans-serif" font-size="14" lengthAdjust="spacing" textLength="174.002" x="186.3343" y="33.291">ChessBoardStateValidator</text></g><!--class MaterialCounter--><g id="elem_MaterialCounter"><rect codeLine="73" fill="#FDF5E6" height="32" id="MaterialCounter" style="stroke:#181818;stroke-width:0.5;" width="140.8076" x="224.2651" y="137.9316"/><ellipse cx="239.2651" cy="153.9316" fill="#ADD1B2" rx="11" ry="11" style="stroke:#181818;stroke-width:1;"/><path d="M241.7383,160.0747 Q241.1572,160.3735 240.5181,160.5229 Q239.8789,160.6724 239.1733,160.6724 Q236.6665,160.6724 235.3467,159.0205 Q234.0269,157.3687 234.0269,154.2476 Q234.0269,151.1182 235.3467,149.4663 Q236.6665,147.8145 239.1733,147.8145 Q239.8789,147.8145 240.5264,147.9639 Q241.1738,148.1133 241.7383,148.4121 L241.7383,151.1348 Q241.1074,150.5537 240.5139,150.2839 Q239.9204,150.0142 239.2896,150.0142 Q237.9448,150.0142 237.26,151.0808 Q236.5752,152.1475 236.5752,154.2476 Q236.5752,156.3394 237.26,157.406 Q237.9448,158.4727 239.2896,158.4727 Q239.9204,158.4727 240.5139,158.2029 Q241.1074,157.9331 241.7383,157.3521 Z " fill="#000000"/><text fill="#000000" font-family="sans-serif" font-size="14" lengthAdjust="spacing" textLength="108.8076" x="253.2651" y="159.2227">MaterialCounter</text></g><!--class PieceCount--><g id="elem_PieceCount"><rect codeLine="74" fill="#FDF5E6" height="40.6211" id="PieceCount" style="stroke:#181818;stroke-width:0.5;" width="107.4551" x="273.6191" y="309.7949"/><ellipse cx="288.6191" cy="330.1055" fill="#ADD1B2" rx="11" ry="11" style="stroke:#181818;stroke-width:1;"/><path d="M291.0923,336.2485 Q290.5112,336.5474 289.8721,336.6968 Q289.2329,336.8462 288.5273,336.8462 Q286.0205,336.8462 284.7007,335.1943 Q283.3809,333.5425 283.3809,330.4214 Q283.3809,327.292 284.7007,325.6401 Q286.0205,323.9883 288.5273,323.9883 Q289.2329,323.9883 289.8804,324.1377 Q290.5278,324.2871 291.0923,324.5859 L291.0923,327.3086 Q290.4614,326.7275 289.8679,326.4578 Q289.2744,326.188 288.6436,326.188 Q287.2988,326.188 286.614,327.2546 Q285.9292,328.3213 285.9292,330.4214 Q285.9292,332.5132 286.614,333.5798 Q287.2988,334.6465 288.6436,334.6465 Q289.2744,334.6465 289.8679,334.3767 Q290.4614,334.1069 291.0923,333.5259 Z " fill="#000000"/><text fill="#000000" font-family="sans-serif" font-size="12" font-style="italic" lengthAdjust="spacing" textLength="43.9102" x="318.3916" y="326.3965">&#171;static&#187;</text><text fill="#000000" font-family="sans-serif" font-size="14" lengthAdjust="spacing" textLength="75.4551" x="302.6191" y="342.4629">PieceCount</text></g><!--class ChessBoardInitializer--><g id="elem_ChessBoardInitializer"><rect codeLine="76" fill="#FDF5E6" height="32" id="ChessBoardInitializer" style="stroke:#181818;stroke-width:0.5;" width="174.8027" x="1023.1165" y="309.7949"/><ellipse cx="1038.1165" cy="325.7949" fill="#A9DCDF" rx="11" ry="11" style="stroke:#181818;stroke-width:1;"/><path d="M1037.9798,321.1431 L1036.826,326.2148 L1039.1419,326.2148 Z M1036.4856,318.9019 L1039.4822,318.9019 L1042.8274,331.2949 L1040.3787,331.2949 L1039.615,328.2319 L1036.3362,328.2319 L1035.5891,331.2949 L1033.1404,331.2949 Z " fill="#000000"/><text fill="#000000" font-family="sans-serif" font-size="14" font-style="italic" lengthAdjust="spacing" textLength="142.8027" x="1052.1165" y="331.0859">ChessBoardInitializer</text></g><!--class Position--><g id="elem_Position"><rect codeLine="78" fill="#FDF5E6" height="32" id="Position" style="stroke:#181818;stroke-width:0.5;" width="86.0928" x="779.9375" y="1032.1426"/><ellipse cx="794.9375" cy="1048.1426" fill="#ADD1B2" rx="11" ry="11" style="stroke:#181818;stroke-width:1;"/><path d="M797.4107,1054.2856 Q796.8296,1054.5845 796.1905,1054.7339 Q795.5513,1054.8833 794.8457,1054.8833 Q792.3389,1054.8833 791.0191,1053.2314 Q789.6992,1051.5796 789.6992,1048.4585 Q789.6992,1045.3291 791.0191,1043.6772 Q792.3389,1042.0254 794.8457,1042.0254 Q795.5513,1042.0254 796.1988,1042.1748 Q796.8462,1042.3242 797.4107,1042.623 L797.4107,1045.3457 Q796.7798,1044.7646 796.1863,1044.4949 Q795.5928,1044.2251 794.9619,1044.2251 Q793.6172,1044.2251 792.9324,1045.2917 Q792.2476,1046.3584 792.2476,1048.4585 Q792.2476,1050.5503 792.9324,1051.6169 Q793.6172,1052.6836 794.9619,1052.6836 Q795.5928,1052.6836 796.1863,1052.4138 Q796.7798,1052.144 797.4107,1051.563 Z " fill="#000000"/><text fill="#000000" font-family="sans-serif" font-size="14" lengthAdjust="spacing" textLength="54.0928" x="808.9375" y="1053.4336">Position</text></g><!--class PlayerColor--><g id="elem_PlayerColor"><rect codeLine="80" fill="#F8F8FF" height="72.9766" id="PlayerColor" style="stroke:#696969;stroke-width:0.5;" width="109.0205" x="1828.1593" y="1032.1426"/><ellipse cx="1843.1593" cy="1048.1426" fill="#EB937F" rx="11" ry="11" style="stroke:#181818;stroke-width:1;"/><path d="M1846.7735,1054.6426 L1839.0538,1054.6426 L1839.0538,1042.2495 L1846.7735,1042.2495 L1846.7735,1044.4077 L1841.5026,1044.4077 L1841.5026,1047.0806 L1846.2755,1047.0806 L1846.2755,1049.2388 L1841.5026,1049.2388 L1841.5026,1052.4844 L1846.7735,1052.4844 Z " fill="#000000"/><text fill="#696969" font-family="sans-serif" font-size="14" lengthAdjust="spacing" textLength="77.0205" x="1857.1593" y="1053.4336">PlayerColor</text><line style="stroke:#696969;stroke-width:0.5;" x1="1829.1593" x2="1936.1798" y1="1064.1426" y2="1064.1426"/><text fill="#696969" font-family="sans-serif" font-size="14" lengthAdjust="spacing" textLength="42.7383" x="1834.1593" y="1081.6777">WHITE</text><text fill="#696969" font-family="sans-serif" font-size="14" lengthAdjust="spacing" textLength="44.0029" x="1834.1593" y="1098.166">BLACK</text></g><!--class PieceType--><g id="elem_PieceType"><rect codeLine="85" fill="#F8F8FF" height="138.9297" id="PieceType" style="stroke:#696969;stroke-width:0.5;" width="99.334" x="1033.9141" y="1032.1426"/><ellipse cx="1048.9141" cy="1048.1426" fill="#EB937F" rx="11" ry="11" style="stroke:#181818;stroke-width:1;"/><path d="M1052.5283,1054.6426 L1044.8086,1054.6426 L1044.8086,1042.2495 L1052.5283,1042.2495 L1052.5283,1044.4077 L1047.2573,1044.4077 L1047.2573,1047.0806 L1052.0303,1047.0806 L1052.0303,1049.2388 L1047.2573,1049.2388 L1047.2573,1052.4844 L1052.5283,1052.4844 Z " fill="#000000"/><text fill="#696969" font-family="sans-serif" font-size="14" lengthAdjust="spacing" textLength="67.334" x="1062.9141" y="1053.4336">PieceType</text><line style="stroke:#696969;stroke-width:0.5;" x1="1034.9141" x2="1132.2481" y1="1064.1426" y2="1064.1426"/><text fill="#696969" font-family="sans-serif" font-size="14" lengthAdjust="spacing" textLength="39.7168" x="1039.9141" y="1081.6777">PAWN</text><text fill="#696969" font-family="sans-serif" font-size="14" lengthAdjust="spacing" textLength="39.7441" x="1039.9141" y="1098.166">ROOK</text><text fill="#696969" font-family="sans-serif" font-size="14" lengthAdjust="spacing" textLength="52.7734" x="1039.9141" y="1114.6543">KNIGHT</text><text fill="#696969" font-family="sans-serif" font-size="14" lengthAdjust="spacing" textLength="48.5283" x="1039.9141" y="1131.1426">BISHOP</text><text fill="#696969" font-family="sans-serif" font-size="14" lengthAdjust="spacing" textLength="46.0947" x="1039.9141" y="1147.6309">QUEEN</text><text fill="#696969" font-family="sans-serif" font-size="14" lengthAdjust="spacing" textLength="33.6328" x="1039.9141" y="1164.1191">KING</text></g><!--class ChessPiece--><g id="elem_ChessPiece"><rect codeLine="94" fill="#FDF5E6" height="32" id="ChessPiece" style="stroke:#181818;stroke-width:0.5;" width="107.0039" x="1181.9216" y="856.2109"/><ellipse cx="1196.9216" cy="872.2109" fill="#A9DCDF" rx="11" ry="11" style="stroke:#181818;stroke-width:1;"/><path d="M1196.7848,867.5591 L1195.631,872.6309 L1197.947,872.6309 Z M1195.2907,865.3179 L1198.2873,865.3179 L1201.6325,877.7109 L1199.1838,877.7109 L1198.4201,874.6479 L1195.1413,874.6479 L1194.3942,877.7109 L1191.9455,877.7109 Z " fill="#000000"/><text fill="#000000" font-family="sans-serif" font-size="14" font-style="italic" lengthAdjust="spacing" textLength="75.0039" x="1210.9216" y="877.502">ChessPiece</text></g><!--class PromotableChessPiece--><g id="elem_PromotableChessPiece"><rect codeLine="95" fill="#FDF5E6" height="32" id="PromotableChessPiece" style="stroke:#181818;stroke-width:0.5;" width="184.3662" x="1240.1934" y="1097.6589"/><ellipse cx="1255.1934" cy="1113.6589" fill="#A9DCDF" rx="11" ry="11" style="stroke:#181818;stroke-width:1;"/><path d="M1255.0567,1109.007 L1253.9028,1114.0788 L1256.2188,1114.0788 Z M1253.5625,1106.7658 L1256.5591,1106.7658 L1259.9043,1119.1589 L1257.4556,1119.1589 L1256.6919,1116.0959 L1253.4131,1116.0959 L1252.666,1119.1589 L1250.2173,1119.1589 Z " fill="#000000"/><text fill="#000000" font-family="sans-serif" font-size="14" font-style="italic" lengthAdjust="spacing" textLength="152.3662" x="1269.1934" y="1118.9499">PromotableChessPiece</text></g><!--class Pawn--><g id="elem_Pawn"><rect codeLine="96" fill="#FDF5E6" height="32" id="Pawn" style="stroke:#181818;stroke-width:0.5;" width="66.9453" x="1153.2481" y="1032.1426"/><ellipse cx="1168.2481" cy="1048.1426" fill="#ADD1B2" rx="11" ry="11" style="stroke:#181818;stroke-width:1;"/><path d="M1170.7212,1054.2856 Q1170.1402,1054.5845 1169.501,1054.7339 Q1168.8618,1054.8833 1168.1563,1054.8833 Q1165.6494,1054.8833 1164.3296,1053.2314 Q1163.0098,1051.5796 1163.0098,1048.4585 Q1163.0098,1045.3291 1164.3296,1043.6772 Q1165.6494,1042.0254 1168.1563,1042.0254 Q1168.8618,1042.0254 1169.5093,1042.1748 Q1170.1568,1042.3242 1170.7212,1042.623 L1170.7212,1045.3457 Q1170.0903,1044.7646 1169.4968,1044.4949 Q1168.9033,1044.2251 1168.2725,1044.2251 Q1166.9277,1044.2251 1166.2429,1045.2917 Q1165.5581,1046.3584 1165.5581,1048.4585 Q1165.5581,1050.5503 1166.2429,1051.6169 Q1166.9277,1052.6836 1168.2725,1052.6836 Q1168.9033,1052.6836 1169.4968,1052.4138 Q1170.0903,1052.144 1170.7212,1051.563 Z " fill="#000000"/><text fill="#000000" font-family="sans-serif" font-size="14" lengthAdjust="spacing" textLength="34.9453" x="1182.2481" y="1053.4336">Pawn</text></g><!--class Rook--><g id="elem_Rook"><rect codeLine="97" fill="#FDF5E6" height="32" id="Rook" style="stroke:#181818;stroke-width:0.5;" width="66.2344" x="1408.7394" y="1221.0723"/><ellipse cx="1423.7394" cy="1237.0723" fill="#ADD1B2" rx="11" ry="11" style="stroke:#181818;stroke-width:1;"/><path d="M1426.2125,1243.2153 Q1425.6315,1243.5142 1424.9923,1243.6636 Q1424.3531,1243.813 1423.6476,1243.813 Q1421.1407,1243.813 1419.8209,1242.1611 Q1418.5011,1240.5093 1418.5011,1237.3882 Q1418.5011,1234.2588 1419.8209,1232.6069 Q1421.1407,1230.9551 1423.6476,1230.9551 Q1424.3531,1230.9551 1425.0006,1231.1045 Q1425.6481,1231.2539 1426.2125,1231.5527 L1426.2125,1234.2754 Q1425.5817,1233.6943 1424.9881,1233.4246 Q1424.3946,1233.1548 1423.7638,1233.1548 Q1422.4191,1233.1548 1421.7342,1234.2214 Q1421.0494,1235.2881 1421.0494,1237.3882 Q1421.0494,1239.48 1421.7342,1240.5466 Q1422.4191,1241.6133 1423.7638,1241.6133 Q1424.3946,1241.6133 1424.9881,1241.3435 Q1425.5817,1241.0737 1426.2125,1240.4927 Z " fill="#000000"/><text fill="#000000" font-family="sans-serif" font-size="14" lengthAdjust="spacing" textLength="34.2344" x="1437.7394" y="1242.3633">Rook</text></g><!--class Knight--><g id="elem_Knight"><rect codeLine="98" fill="#FDF5E6" height="32" id="Knight" style="stroke:#181818;stroke-width:0.5;" width="76.5293" x="1216.3575" y="1221.0723"/><ellipse cx="1231.3575" cy="1237.0723" fill="#ADD1B2" rx="11" ry="11" style="stroke:#181818;stroke-width:1;"/><path d="M1233.8307,1243.2153 Q1233.2496,1243.5142 1232.6105,1243.6636 Q1231.9713,1243.813 1231.2657,1243.813 Q1228.7589,1243.813 1227.4391,1242.1611 Q1226.1193,1240.5093 1226.1193,1237.3882 Q1226.1193,1234.2588 1227.4391,1232.6069 Q1228.7589,1230.9551 1231.2657,1230.9551 Q1231.9713,1230.9551 1232.6188,1231.1045 Q1233.2662,1231.2539 1233.8307,1231.5527 L1233.8307,1234.2754 Q1233.1998,1233.6943 1232.6063,1233.4246 Q1232.0128,1233.1548 1231.3819,1233.1548 Q1230.0372,1233.1548 1229.3524,1234.2214 Q1228.6676,1235.2881 1228.6676,1237.3882 Q1228.6676,1239.48 1229.3524,1240.5466 Q1230.0372,1241.6133 1231.3819,1241.6133 Q1232.0128,1241.6133 1232.6063,1241.3435 Q1233.1998,1241.0737 1233.8307,1240.4927 Z " fill="#000000"/><text fill="#000000" font-family="sans-serif" font-size="14" lengthAdjust="spacing" textLength="44.5293" x="1245.3575" y="1242.3633">Knight</text></g><!--class Bishop--><g id="elem_Bishop"><rect codeLine="99" fill="#FDF5E6" height="32" id="Bishop" style="stroke:#181818;stroke-width:0.5;" width="77.3359" x="1119.0216" y="1221.0723"/><ellipse cx="1134.0216" cy="1237.0723" fill="#ADD1B2" rx="11" ry="11" style="stroke:#181818;stroke-width:1;"/><path d="M1136.4947,1243.2153 Q1135.9137,1243.5142 1135.2745,1243.6636 Q1134.6354,1243.813 1133.9298,1243.813 Q1131.423,1243.813 1130.1031,1242.1611 Q1128.7833,1240.5093 1128.7833,1237.3882 Q1128.7833,1234.2588 1130.1031,1232.6069 Q1131.423,1230.9551 1133.9298,1230.9551 Q1134.6354,1230.9551 1135.2828,1231.1045 Q1135.9303,1231.2539 1136.4947,1231.5527 L1136.4947,1234.2754 Q1135.8639,1233.6943 1135.2704,1233.4246 Q1134.6769,1233.1548 1134.046,1233.1548 Q1132.7013,1233.1548 1132.0165,1234.2214 Q1131.3317,1235.2881 1131.3317,1237.3882 Q1131.3317,1239.48 1132.0165,1240.5466 Q1132.7013,1241.6133 1134.046,1241.6133 Q1134.6769,1241.6133 1135.2704,1241.3435 Q1135.8639,1241.0737 1136.4947,1240.4927 Z " fill="#000000"/><text fill="#000000" font-family="sans-serif" font-size="14" lengthAdjust="spacing" textLength="45.3359" x="1148.0216" y="1242.3633">Bishop</text></g><!--class Queen--><g id="elem_Queen"><rect codeLine="100" fill="#FDF5E6" height="32" id="Queen" style="stroke:#181818;stroke-width:0.5;" width="75.8525" x="1312.8868" y="1221.0723"/><ellipse cx="1327.8868" cy="1237.0723" fill="#ADD1B2" rx="11" ry="11" style="stroke:#181818;stroke-width:1;"/><path d="M1330.36,1243.2153 Q1329.7789,1243.5142 1329.1398,1243.6636 Q1328.5006,1243.813 1327.795,1243.813 Q1325.2882,1243.813 1323.9684,1242.1611 Q1322.6485,1240.5093 1322.6485,1237.3882 Q1322.6485,1234.2588 1323.9684,1232.6069 Q1325.2882,1230.9551 1327.795,1230.9551 Q1328.5006,1230.9551 1329.1481,1231.1045 Q1329.7955,1231.2539 1330.36,1231.5527 L1330.36,1234.2754 Q1329.7291,1233.6943 1329.1356,1233.4246 Q1328.5421,1233.1548 1327.9112,1233.1548 Q1326.5665,1233.1548 1325.8817,1234.2214 Q1325.1969,1235.2881 1325.1969,1237.3882 Q1325.1969,1239.48 1325.8817,1240.5466 Q1326.5665,1241.6133 1327.9112,1241.6133 Q1328.5421,1241.6133 1329.1356,1241.3435 Q1329.7291,1241.0737 1330.36,1240.4927 Z " fill="#000000"/><text fill="#000000" font-family="sans-serif" font-size="14" lengthAdjust="spacing" textLength="43.8525" x="1341.8868" y="1242.3633">Queen</text></g><!--class King--><g id="elem_King"><rect codeLine="101" fill="#FDF5E6" height="32" id="King" style="stroke:#181818;stroke-width:0.5;" width="62.6045" x="951.3096" y="1032.1426"/><ellipse cx="966.3096" cy="1048.1426" fill="#ADD1B2" rx="11" ry="11" style="stroke:#181818;stroke-width:1;"/><path d="M968.7827,1054.2856 Q968.2017,1054.5845 967.5625,1054.7339 Q966.9234,1054.8833 966.2178,1054.8833 Q963.711,1054.8833 962.3911,1053.2314 Q961.0713,1051.5796 961.0713,1048.4585 Q961.0713,1045.3291 962.3911,1043.6772 Q963.711,1042.0254 966.2178,1042.0254 Q966.9234,1042.0254 967.5708,1042.1748 Q968.2183,1042.3242 968.7827,1042.623 L968.7827,1045.3457 Q968.1519,1044.7646 967.5584,1044.4949 Q966.9649,1044.2251 966.334,1044.2251 Q964.9893,1044.2251 964.3045,1045.2917 Q963.6196,1046.3584 963.6196,1048.4585 Q963.6196,1050.5503 964.3045,1051.6169 Q964.9893,1052.6836 966.334,1052.6836 Q966.9649,1052.6836 967.5584,1052.4138 Q968.1519,1052.144 968.7827,1051.563 Z " fill="#000000"/><text fill="#000000" font-family="sans-serif" font-size="14" lengthAdjust="spacing" textLength="30.6045" x="980.3096" y="1053.4336">King</text></g><!--class MoveGenerator--><g id="elem_MoveGenerator"><rect codeLine="104" fill="#FDF5E6" height="32" id="MoveGenerator" style="stroke:#181818;stroke-width:0.5;" width="135.1338" x="1670.2291" y="1089.3762"/><ellipse cx="1685.2291" cy="1105.3762" fill="#A9DCDF" rx="11" ry="11" style="stroke:#181818;stroke-width:1;"/><path d="M1685.0924,1100.7243 L1683.9386,1105.7961 L1686.2545,1105.7961 Z M1683.5983,1098.4831 L1686.5948,1098.4831 L1689.9401,1110.8762 L1687.4913,1110.8762 L1686.7277,1107.8132 L1683.4488,1107.8132 L1682.7018,1110.8762 L1680.253,1110.8762 Z " fill="#000000"/><text fill="#000000" font-family="sans-serif" font-size="14" font-style="italic" lengthAdjust="spacing" textLength="103.1338" x="1699.2291" y="1110.6672">MoveGenerator</text></g><!--class DirectionalGenerator--><g id="elem_DirectionalGenerator"><rect codeLine="105" fill="#FDF5E6" height="32" id="DirectionalGenerator" style="stroke:#181818;stroke-width:0.5;" width="173.0117" x="1721.3181" y="1347.0039"/><ellipse cx="1736.3181" cy="1363.0039" fill="#ADD1B2" rx="11" ry="11" style="stroke:#181818;stroke-width:1;"/><path d="M1738.7913,1369.147 Q1738.2102,1369.4458 1737.5711,1369.5952 Q1736.9319,1369.7446 1736.2263,1369.7446 Q1733.7195,1369.7446 1732.3997,1368.0928 Q1731.0799,1366.4409 1731.0799,1363.3198 Q1731.0799,1360.1904 1732.3997,1358.5386 Q1733.7195,1356.8867 1736.2263,1356.8867 Q1736.9319,1356.8867 1737.5794,1357.0361 Q1738.2268,1357.1855 1738.7913,1357.4844 L1738.7913,1360.207 Q1738.1604,1359.626 1737.5669,1359.3562 Q1736.9734,1359.0864 1736.3426,1359.0864 Q1734.9978,1359.0864 1734.313,1360.1531 Q1733.6282,1361.2197 1733.6282,1363.3198 Q1733.6282,1365.4116 1734.313,1366.4783 Q1734.9978,1367.5449 1736.3426,1367.5449 Q1736.9734,1367.5449 1737.5669,1367.2751 Q1738.1604,1367.0054 1738.7913,1366.4243 Z " fill="#000000"/><text fill="#000000" font-family="sans-serif" font-size="14" lengthAdjust="spacing" textLength="141.0117" x="1750.3181" y="1368.2949">DirectionalGenerator</text></g><!--class KnightGenerator--><g id="elem_KnightGenerator"><rect codeLine="106" fill="#FDF5E6" height="32" id="KnightGenerator" style="stroke:#181818;stroke-width:0.5;" width="143.959" x="1494.9737" y="1221.0723"/><ellipse cx="1509.9737" cy="1237.0723" fill="#ADD1B2" rx="11" ry="11" style="stroke:#181818;stroke-width:1;"/><path d="M1512.4469,1243.2153 Q1511.8658,1243.5142 1511.2267,1243.6636 Q1510.5875,1243.813 1509.8819,1243.813 Q1507.3751,1243.813 1506.0553,1242.1611 Q1504.7355,1240.5093 1504.7355,1237.3882 Q1504.7355,1234.2588 1506.0553,1232.6069 Q1507.3751,1230.9551 1509.8819,1230.9551 Q1510.5875,1230.9551 1511.235,1231.1045 Q1511.8824,1231.2539 1512.4469,1231.5527 L1512.4469,1234.2754 Q1511.816,1233.6943 1511.2225,1233.4246 Q1510.629,1233.1548 1509.9982,1233.1548 Q1508.6534,1233.1548 1507.9686,1234.2214 Q1507.2838,1235.2881 1507.2838,1237.3882 Q1507.2838,1239.48 1507.9686,1240.5466 Q1508.6534,1241.6133 1509.9982,1241.6133 Q1510.629,1241.6133 1511.2225,1241.3435 Q1511.816,1241.0737 1512.4469,1240.4927 Z " fill="#000000"/><text fill="#000000" font-family="sans-serif" font-size="14" lengthAdjust="spacing" textLength="111.959" x="1523.9737" y="1242.3633">KnightGenerator</text></g><!--class DistanceGenerator--><g id="elem_DistanceGenerator"><rect codeLine="107" fill="#FDF5E6" height="32" id="DistanceGenerator" style="stroke:#181818;stroke-width:0.5;" width="157.7266" x="1658.9327" y="1221.0723"/><ellipse cx="1673.9327" cy="1237.0723" fill="#ADD1B2" rx="11" ry="11" style="stroke:#181818;stroke-width:1;"/><path d="M1676.4059,1243.2153 Q1675.8248,1243.5142 1675.1857,1243.6636 Q1674.5465,1243.813 1673.8409,1243.813 Q1671.3341,1243.813 1670.0143,1242.1611 Q1668.6944,1240.5093 1668.6944,1237.3882 Q1668.6944,1234.2588 1670.0143,1232.6069 Q1671.3341,1230.9551 1673.8409,1230.9551 Q1674.5465,1230.9551 1675.194,1231.1045 Q1675.8414,1231.2539 1676.4059,1231.5527 L1676.4059,1234.2754 Q1675.775,1233.6943 1675.1815,1233.4246 Q1674.588,1233.1548 1673.9571,1233.1548 Q1672.6124,1233.1548 1671.9276,1234.2214 Q1671.2428,1235.2881 1671.2428,1237.3882 Q1671.2428,1239.48 1671.9276,1240.5466 Q1672.6124,1241.6133 1673.9571,1241.6133 Q1674.588,1241.6133 1675.1815,1241.3435 Q1675.775,1241.0737 1676.4059,1240.4927 Z " fill="#000000"/><text fill="#000000" font-family="sans-serif" font-size="14" lengthAdjust="spacing" textLength="125.7266" x="1687.9327" y="1242.3633">DistanceGenerator</text></g><!--class PawnDistanceGenerator--><g id="elem_PawnDistanceGenerator"><rect codeLine="108" fill="#FDF5E6" height="32" id="PawnDistanceGenerator" style="stroke:#181818;stroke-width:0.5;" width="192.6719" x="1508.6463" y="1347.0039"/><ellipse cx="1523.6463" cy="1363.0039" fill="#ADD1B2" rx="11" ry="11" style="stroke:#181818;stroke-width:1;"/><path d="M1526.1194,1369.147 Q1525.5384,1369.4458 1524.8992,1369.5952 Q1524.26,1369.7446 1523.5545,1369.7446 Q1521.0476,1369.7446 1519.7278,1368.0928 Q1518.408,1366.4409 1518.408,1363.3198 Q1518.408,1360.1904 1519.7278,1358.5386 Q1521.0476,1356.8867 1523.5545,1356.8867 Q1524.26,1356.8867 1524.9075,1357.0361 Q1525.555,1357.1855 1526.1194,1357.4844 L1526.1194,1360.207 Q1525.4886,1359.626 1524.895,1359.3562 Q1524.3015,1359.0864 1523.6707,1359.0864 Q1522.326,1359.0864 1521.6411,1360.1531 Q1520.9563,1361.2197 1520.9563,1363.3198 Q1520.9563,1365.4116 1521.6411,1366.4783 Q1522.326,1367.5449 1523.6707,1367.5449 Q1524.3015,1367.5449 1524.895,1367.2751 Q1525.4886,1367.0054 1526.1194,1366.4243 Z " fill="#000000"/><text fill="#000000" font-family="sans-serif" font-size="14" lengthAdjust="spacing" textLength="160.6719" x="1537.6463" y="1368.2949">PawnDistanceGenerator</text></g><!--class Direction--><g id="elem_Direction"><rect codeLine="110" fill="#FDF5E6" height="171.9063" id="Direction" style="stroke:#181818;stroke-width:0.5;" width="146.1963" x="1734.7259" y="1472.9355"/><ellipse cx="1773.3025" cy="1488.9355" fill="#EB937F" rx="11" ry="11" style="stroke:#181818;stroke-width:1;"/><path d="M1776.9168,1495.4355 L1769.1971,1495.4355 L1769.1971,1483.0425 L1776.9168,1483.0425 L1776.9168,1485.2007 L1771.6458,1485.2007 L1771.6458,1487.8735 L1776.4187,1487.8735 L1776.4187,1490.0317 L1771.6458,1490.0317 L1771.6458,1493.2773 L1776.9168,1493.2773 Z " fill="#000000"/><text fill="#000000" font-family="sans-serif" font-size="14" lengthAdjust="spacing" textLength="61.8037" x="1792.5418" y="1494.2266">Direction</text><line style="stroke:#181818;stroke-width:0.5;" x1="1735.7259" x2="1879.9221" y1="1504.9355" y2="1504.9355"/><text fill="#000000" font-family="sans-serif" font-size="14" lengthAdjust="spacing" textLength="75.749" x="1740.7259" y="1522.4707">FORWARDS</text><text fill="#000000" font-family="sans-serif" font-size="14" lengthAdjust="spacing" textLength="85.0527" x="1740.7259" y="1538.959">BACKWARDS</text><text fill="#000000" font-family="sans-serif" font-size="14" lengthAdjust="spacing" textLength="31.4111" x="1740.7259" y="1555.4473">LEFT</text><text fill="#000000" font-family="sans-serif" font-size="14" lengthAdjust="spacing" textLength="42.1436" x="1740.7259" y="1571.9355">RIGHT</text><text fill="#000000" font-family="sans-serif" font-size="14" lengthAdjust="spacing" textLength="114.1602" x="1740.7259" y="1588.4238">FORWARDS_LEFT</text><text fill="#000000" font-family="sans-serif" font-size="14" lengthAdjust="spacing" textLength="124.8926" x="1740.7259" y="1604.9121">FORWARDS_RIGHT</text><text fill="#000000" font-family="sans-serif" font-size="14" lengthAdjust="spacing" textLength="123.4639" x="1740.7259" y="1621.4004">BACKWARDS_LEFT</text><text fill="#000000" font-family="sans-serif" font-size="14" lengthAdjust="spacing" textLength="134.1963" x="1740.7259" y="1637.8887">BACKWARDS_RIGHT</text></g><!--class Moves--><g id="elem_Moves"><rect codeLine="121" fill="#FDF5E6" height="32" id="Moves" style="stroke:#181818;stroke-width:0.5;" width="74.8408" x="568.1569" y="465.7266"/><ellipse cx="583.1569" cy="481.7266" fill="#ADD1B2" rx="11" ry="11" style="stroke:#181818;stroke-width:1;"/><path d="M585.63,487.8696 Q585.049,488.1685 584.4098,488.3179 Q583.7707,488.4673 583.0651,488.4673 Q580.5583,488.4673 579.2384,486.8154 Q577.9186,485.1636 577.9186,482.0425 Q577.9186,478.9131 579.2384,477.2612 Q580.5583,475.6094 583.0651,475.6094 Q583.7707,475.6094 584.4181,475.7588 Q585.0656,475.9082 585.63,476.207 L585.63,478.9297 Q584.9992,478.3486 584.4057,478.0789 Q583.8122,477.8091 583.1813,477.8091 Q581.8366,477.8091 581.1518,478.8757 Q580.467,479.9424 580.467,482.0425 Q580.467,484.1343 581.1518,485.2009 Q581.8366,486.2676 583.1813,486.2676 Q583.8122,486.2676 584.4057,485.9978 Q584.9992,485.728 585.63,485.147 Z " fill="#000000"/><text fill="#000000" font-family="sans-serif" font-size="14" lengthAdjust="spacing" textLength="42.8408" x="597.1569" y="487.0176">Moves</text></g><!--class ChessMove--><g id="elem_ChessMove"><rect codeLine="123" fill="#FDF5E6" height="32" id="ChessMove" style="stroke:#181818;stroke-width:0.5;" width="108.1523" x="533.4757" y="591.6582"/><ellipse cx="548.4757" cy="607.6582" fill="#A9DCDF" rx="11" ry="11" style="stroke:#181818;stroke-width:1;"/><path d="M548.339,603.0063 L547.1852,608.0781 L549.5011,608.0781 Z M546.8449,600.7651 L549.8415,600.7651 L553.1867,613.1582 L550.738,613.1582 L549.9743,610.0952 L546.6955,610.0952 L545.9484,613.1582 L543.4997,613.1582 Z " fill="#000000"/><text fill="#000000" font-family="sans-serif" font-size="14" font-style="italic" lengthAdjust="spacing" textLength="76.1523" x="562.4757" y="612.9492">ChessMove</text></g><!--class StandardMove--><g id="elem_StandardMove"><rect codeLine="125" fill="#FDF5E6" height="32" id="StandardMove" style="stroke:#181818;stroke-width:0.5;" width="127.9834" x="233.1785" y="716.0495"/><ellipse cx="248.1785" cy="732.0495" fill="#ADD1B2" rx="11" ry="11" style="stroke:#181818;stroke-width:1;"/><path d="M250.6516,738.1925 Q250.0705,738.4914 249.4314,738.6408 Q248.7922,738.7902 248.0867,738.7902 Q245.5798,738.7902 244.26,737.1383 Q242.9402,735.4865 242.9402,732.3654 Q242.9402,729.236 244.26,727.5841 Q245.5798,725.9323 248.0867,725.9323 Q248.7922,725.9323 249.4397,726.0817 Q250.0871,726.2311 250.6516,726.5299 L250.6516,729.2526 Q250.0207,728.6715 249.4272,728.4018 Q248.8337,728.132 248.2029,728.132 Q246.8581,728.132 246.1733,729.1986 Q245.4885,730.2653 245.4885,732.3654 Q245.4885,734.4572 246.1733,735.5238 Q246.8581,736.5905 248.2029,736.5905 Q248.8337,736.5905 249.4272,736.3207 Q250.0207,736.0509 250.6516,735.4699 Z " fill="#000000"/><text fill="#000000" font-family="sans-serif" font-size="14" lengthAdjust="spacing" textLength="95.9834" x="262.1785" y="737.3405">StandardMove</text></g><!--class Capture--><g id="elem_Capture"><rect codeLine="126" fill="#FDF5E6" height="32" id="Capture" style="stroke:#181818;stroke-width:0.5;" width="85.6826" x="438.4665" y="718.9346"/><ellipse cx="453.4665" cy="734.9346" fill="#ADD1B2" rx="11" ry="11" style="stroke:#181818;stroke-width:1;"/><path d="M455.9397,741.0776 Q455.3586,741.3765 454.7195,741.5259 Q454.0803,741.6753 453.3747,741.6753 Q450.8679,741.6753 449.5481,740.0234 Q448.2283,738.3716 448.2283,735.2505 Q448.2283,732.1211 449.5481,730.4692 Q450.8679,728.8174 453.3747,728.8174 Q454.0803,728.8174 454.7278,728.9668 Q455.3752,729.1162 455.9397,729.415 L455.9397,732.1377 Q455.3088,731.5566 454.7153,731.2869 Q454.1218,731.0171 453.491,731.0171 Q452.1462,731.0171 451.4614,732.0837 Q450.7766,733.1504 450.7766,735.2505 Q450.7766,737.3423 451.4614,738.4089 Q452.1462,739.4756 453.491,739.4756 Q454.1218,739.4756 454.7153,739.2058 Q455.3088,738.936 455.9397,738.355 Z " fill="#000000"/><text fill="#000000" font-family="sans-serif" font-size="14" lengthAdjust="spacing" textLength="53.6826" x="467.4665" y="740.2256">Capture</text></g><!--class EnPassant--><g id="elem_EnPassant"><rect codeLine="127" fill="#FDF5E6" height="32" id="EnPassant" style="stroke:#181818;stroke-width:0.5;" width="99.6758" x="268.6628" y="856.2109"/><ellipse cx="283.6628" cy="872.2109" fill="#ADD1B2" rx="11" ry="11" style="stroke:#181818;stroke-width:1;"/><path d="M286.136,878.354 Q285.5549,878.6528 284.9158,878.8022 Q284.2766,878.9517 283.571,878.9517 Q281.0642,878.9517 279.7444,877.2998 Q278.4245,875.6479 278.4245,872.5269 Q278.4245,869.3975 279.7444,867.7456 Q281.0642,866.0938 283.571,866.0938 Q284.2766,866.0938 284.9241,866.2432 Q285.5715,866.3926 286.136,866.6914 L286.136,869.4141 Q285.5051,868.833 284.9116,868.5632 Q284.3181,868.2935 283.6872,868.2935 Q282.3425,868.2935 281.6577,869.3601 Q280.9729,870.4268 280.9729,872.5269 Q280.9729,874.6187 281.6577,875.6853 Q282.3425,876.752 283.6872,876.752 Q284.3181,876.752 284.9116,876.4822 Q285.5051,876.2124 286.136,875.6313 Z " fill="#000000"/><text fill="#000000" font-family="sans-serif" font-size="14" lengthAdjust="spacing" textLength="67.6758" x="297.6628" y="877.502">EnPassant</text></g><!--class Castling--><g id="elem_Castling"><rect codeLine="128" fill="#FDF5E6" height="32" id="Castling" style="stroke:#181818;stroke-width:0.5;" width="87.3027" x="810.08" y="710.2793"/><ellipse cx="825.08" cy="726.2793" fill="#A9DCDF" rx="11" ry="11" style="stroke:#181818;stroke-width:1;"/><path d="M824.9432,721.6274 L823.7894,726.6992 L826.1054,726.6992 Z M823.4491,719.3862 L826.4457,719.3862 L829.7909,731.7793 L827.3422,731.7793 L826.5785,728.7163 L823.2997,728.7163 L822.5526,731.7793 L820.1039,731.7793 Z " fill="#000000"/><text fill="#000000" font-family="sans-serif" font-size="14" font-style="italic" lengthAdjust="spacing" textLength="55.3027" x="839.08" y="731.5703">Castling</text></g><!--class LongCastling--><g id="elem_LongCastling"><rect codeLine="129" fill="#FDF5E6" height="32" id="LongCastling" style="stroke:#181818;stroke-width:0.5;" width="120.7852" x="970.3095" y="856.2109"/><ellipse cx="985.3095" cy="872.2109" fill="#ADD1B2" rx="11" ry="11" style="stroke:#181818;stroke-width:1;"/><path d="M987.7826,878.354 Q987.2015,878.6528 986.5624,878.8022 Q985.9232,878.9517 985.2177,878.9517 Q982.7108,878.9517 981.391,877.2998 Q980.0712,875.6479 980.0712,872.5269 Q980.0712,869.3975 981.391,867.7456 Q982.7108,866.0938 985.2177,866.0938 Q985.9232,866.0938 986.5707,866.2432 Q987.2181,866.3926 987.7826,866.6914 L987.7826,869.4141 Q987.1517,868.833 986.5582,868.5632 Q985.9647,868.2935 985.3339,868.2935 Q983.9891,868.2935 983.3043,869.3601 Q982.6195,870.4268 982.6195,872.5269 Q982.6195,874.6187 983.3043,875.6853 Q983.9891,876.752 985.3339,876.752 Q985.9647,876.752 986.5582,876.4822 Q987.1517,876.2124 987.7826,875.6313 Z " fill="#000000"/><text fill="#000000" font-family="sans-serif" font-size="14" lengthAdjust="spacing" textLength="88.7852" x="999.3095" y="877.502">LongCastling</text></g><!--class ShortCastling--><g id="elem_ShortCastling"><rect codeLine="130" fill="#FDF5E6" height="32" id="ShortCastling" style="stroke:#181818;stroke-width:0.5;" width="123.0957" x="608.6872" y="856.2109"/><ellipse cx="623.6872" cy="872.2109" fill="#ADD1B2" rx="11" ry="11" style="stroke:#181818;stroke-width:1;"/><path d="M626.1604,878.354 Q625.5793,878.6528 624.9402,878.8022 Q624.301,878.9517 623.5954,878.9517 Q621.0886,878.9517 619.7688,877.2998 Q618.449,875.6479 618.449,872.5269 Q618.449,869.3975 619.7688,867.7456 Q621.0886,866.0938 623.5954,866.0938 Q624.301,866.0938 624.9485,866.2432 Q625.5959,866.3926 626.1604,866.6914 L626.1604,869.4141 Q625.5295,868.833 624.936,868.5632 Q624.3425,868.2935 623.7117,868.2935 Q622.3669,868.2935 621.6821,869.3601 Q620.9973,870.4268 620.9973,872.5269 Q620.9973,874.6187 621.6821,875.6853 Q622.3669,876.752 623.7117,876.752 Q624.3425,876.752 624.936,876.4822 Q625.5295,876.2124 626.1604,875.6313 Z " fill="#000000"/><text fill="#000000" font-family="sans-serif" font-size="14" lengthAdjust="spacing" textLength="91.0957" x="637.6872" y="877.502">ShortCastling</text></g><!--class Promotion--><g id="elem_Promotion"><rect codeLine="131" fill="#FDF5E6" height="32" id="Promotion" style="stroke:#181818;stroke-width:0.5;" width="102.3076" x="146.3552" y="856.2109"/><ellipse cx="161.3552" cy="872.2109" fill="#ADD1B2" rx="11" ry="11" style="stroke:#181818;stroke-width:1;"/><path d="M163.8284,878.354 Q163.2473,878.6528 162.6081,878.8022 Q161.969,878.9517 161.2634,878.9517 Q158.7566,878.9517 157.4368,877.2998 Q156.1169,875.6479 156.1169,872.5269 Q156.1169,869.3975 157.4368,867.7456 Q158.7566,866.0938 161.2634,866.0938 Q161.969,866.0938 162.6164,866.2432 Q163.2639,866.3926 163.8284,866.6914 L163.8284,869.4141 Q163.1975,868.833 162.604,868.5632 Q162.0105,868.2935 161.3796,868.2935 Q160.0349,868.2935 159.3501,869.3601 Q158.6653,870.4268 158.6653,872.5269 Q158.6653,874.6187 159.3501,875.6853 Q160.0349,876.752 161.3796,876.752 Q162.0105,876.752 162.604,876.4822 Q163.1975,876.2124 163.8284,875.6313 Z " fill="#000000"/><text fill="#000000" font-family="sans-serif" font-size="14" lengthAdjust="spacing" textLength="70.3076" x="175.3552" y="877.502">Promotion</text></g><!--class PromotionWithCapture--><g id="elem_PromotionWithCapture"><rect codeLine="132" fill="#FDF5E6" height="32" id="PromotionWithCapture" style="stroke:#181818;stroke-width:0.5;" width="185.9385" x="388.3386" y="856.2109"/><ellipse cx="403.3386" cy="872.2109" fill="#ADD1B2" rx="11" ry="11" style="stroke:#181818;stroke-width:1;"/><path d="M405.8118,878.354 Q405.2307,878.6528 404.5915,878.8022 Q403.9524,878.9517 403.2468,878.9517 Q400.74,878.9517 399.4202,877.2998 Q398.1003,875.6479 398.1003,872.5269 Q398.1003,869.3975 399.4202,867.7456 Q400.74,866.0938 403.2468,866.0938 Q403.9524,866.0938 404.5998,866.2432 Q405.2473,866.3926 405.8118,866.6914 L405.8118,869.4141 Q405.1809,868.833 404.5874,868.5632 Q403.9939,868.2935 403.363,868.2935 Q402.0183,868.2935 401.3335,869.3601 Q400.6487,870.4268 400.6487,872.5269 Q400.6487,874.6187 401.3335,875.6853 Q402.0183,876.752 403.363,876.752 Q403.9939,876.752 404.5874,876.4822 Q405.1809,876.2124 405.8118,875.6313 Z " fill="#000000"/><text fill="#000000" font-family="sans-serif" font-size="14" lengthAdjust="spacing" textLength="153.9385" x="417.3386" y="877.502">PromotionWithCapture</text></g><line style="stroke:#181818;stroke-width:1;stroke-dasharray:7.0,7.0;" x1="1668.7034" x2="1668.7034" y1="44" y2="71.3105"/><line style="stroke:#181818;stroke-width:1;stroke-dasharray:7.0,7.0;" x1="1668.7034" x2="1110.5179" y1="71.3105" y2="71.3105"/><line style="stroke:#181818;stroke-width:1;stroke-dasharray:7.0,7.0;" x1="1110.5179" x2="1110.5179" y1="71.3105" y2="137.9316"/><polygon fill="#FFFFFF" points="1668.7034,44,1661.7034,63,1675.7034,63,1668.7034,44" style="stroke:#181818;stroke-width:1;"/><line style="stroke:#181818;stroke-width:1;stroke-dasharray:7.0,7.0;" x1="486.3319" x2="486.3319" y1="169.9316" y2="282.4844"/><line style="stroke:#181818;stroke-width:1;stroke-dasharray:7.0,7.0;" x1="486.3319" x2="511.0329" y1="282.4844" y2="282.4844"/><line style="stroke:#181818;stroke-width:1;stroke-dasharray:7.0,7.0;" x1="511.0329" x2="511.0329" y1="282.4844" y2="309.7949"/><polygon fill="#FFFFFF" points="486.3319,169.9316,479.3319,188.9316,493.3319,188.9316,486.3319,169.9316" style="stroke:#181818;stroke-width:1;"/><line style="stroke:#181818;stroke-width:1;stroke-dasharray:7.0,7.0;" x1="174.5713" x2="174.5713" y1="341.7949" y2="428.416"/><line style="stroke:#181818;stroke-width:1;stroke-dasharray:7.0,7.0;" x1="174.5713" x2="473.9089" y1="428.416" y2="428.416"/><line style="stroke:#181818;stroke-width:1;stroke-dasharray:7.0,7.0;" x1="473.9089" x2="473.9089" y1="428.416" y2="465.7266"/><polygon fill="#FFFFFF" points="174.5713,341.7949,167.5713,360.7949,181.5713,360.7949,174.5713,341.7949" style="stroke:#181818;stroke-width:1;"/><line style="stroke:#181818;stroke-width:1;stroke-dasharray:7.0,7.0;" x1="435.7023" x2="435.7023" y1="169.9316" y2="197.2422"/><line style="stroke:#181818;stroke-width:1;stroke-dasharray:7.0,7.0;" x1="435.7023" x2="430.1885" y1="197.2422" y2="197.2422"/><line style="stroke:#181818;stroke-width:1;stroke-dasharray:7.0,7.0;" x1="430.1885" x2="430.1885" y1="197.2422" y2="418.416"/><line style="stroke:#181818;stroke-width:1;stroke-dasharray:7.0,7.0;" x1="430.1885" x2="492.4709" y1="418.416" y2="418.416"/><line style="stroke:#181818;stroke-width:1;stroke-dasharray:7.0,7.0;" x1="492.4709" x2="492.4709" y1="418.416" y2="465.7266"/><polygon fill="#FFFFFF" points="435.7023,169.9316,428.7023,188.9316,442.7023,188.9316,435.7023,169.9316" style="stroke:#181818;stroke-width:1;"/><line style="stroke:#181818;stroke-width:1;stroke-dasharray:7.0,7.0;" x1="1242.722" x2="1242.722" y1="341.7949" y2="369.1055"/><line style="stroke:#181818;stroke-width:1;stroke-dasharray:7.0,7.0;" x1="1242.722" x2="529.5949" y1="369.1055" y2="369.1055"/><line style="stroke:#181818;stroke-width:1;stroke-dasharray:7.0,7.0;" x1="529.5949" x2="529.5949" y1="369.1055" y2="465.7266"/><polygon fill="#FFFFFF" points="1242.722,341.7949,1235.722,360.7949,1249.722,360.7949,1242.722,341.7949" style="stroke:#181818;stroke-width:1;"/><line style="stroke:#181818;stroke-width:1;stroke-dasharray:7.0,7.0;" x1="1267.5247" x2="1267.5247" y1="341.7949" y2="856.2109"/><polygon fill="#FFFFFF" points="1267.5247,341.7949,1260.5247,360.7949,1274.5247,360.7949,1267.5247,341.7949" style="stroke:#181818;stroke-width:1;"/><line style="stroke:#181818;stroke-width:1;" x1="1243.0667" x2="1243.0667" y1="888.2109" y2="974.832"/><line style="stroke:#181818;stroke-width:1;" x1="1243.0667" x2="1301.6488" y1="974.832" y2="974.832"/><line style="stroke:#181818;stroke-width:1;" x1="1301.6488" x2="1301.6488" y1="974.832" y2="1097.6589"/><polygon fill="#FFFFFF" points="1243.0667,888.2109,1236.0667,907.2109,1250.0667,907.2109,1243.0667,888.2109" style="stroke:#181818;stroke-width:1;"/><line style="stroke:#181818;stroke-width:1;stroke-dasharray:7.0,7.0;" x1="1363.1042" x2="1363.1042" y1="888.2109" y2="1097.6589"/><polygon fill="#FFFFFF" points="1363.1042,888.2109,1356.1042,907.2109,1370.1042,907.2109,1363.1042,888.2109" style="stroke:#181818;stroke-width:1;"/><line style="stroke:#181818;stroke-width:1;" x1="1227.7804" x2="1227.7804" y1="888.2109" y2="935.5215"/><line style="stroke:#181818;stroke-width:1;" x1="1227.7804" x2="1186.7207" y1="935.5215" y2="935.5215"/><line style="stroke:#181818;stroke-width:1;" x1="1186.7207" x2="1186.7207" y1="935.5215" y2="1032.1426"/><polygon fill="#FFFFFF" points="1227.7804,888.2109,1220.7804,907.2109,1234.7804,907.2109,1227.7804,888.2109" style="stroke:#181818;stroke-width:1;"/><line style="stroke:#181818;stroke-width:1;" x1="1387.6863" x2="1387.6863" y1="1129.6589" y2="1181.0723"/><line style="stroke:#181818;stroke-width:1;" x1="1387.6863" x2="1441.8566" y1="1181.0723" y2="1181.0723"/><line style="stroke:#181818;stroke-width:1;" x1="1441.8566" x2="1441.8566" y1="1181.0723" y2="1221.0723"/><polygon fill="#FFFFFF" points="1387.6863,1129.6589,1380.6863,1148.6589,1394.6863,1148.6589,1387.6863,1129.6589" style="stroke:#181818;stroke-width:1;"/><line style="stroke:#181818;stroke-width:1;" x1="1313.9399" x2="1313.9399" y1="1129.6589" y2="1191.0723"/><line style="stroke:#181818;stroke-width:1;" x1="1313.9399" x2="1254.6222" y1="1191.0723" y2="1191.0723"/><line style="stroke:#181818;stroke-width:1;" x1="1254.6222" x2="1254.6222" y1="1191.0723" y2="1221.0723"/><polygon fill="#FFFFFF" points="1313.9399,1129.6589,1306.9399,1148.6589,1320.9399,1148.6589,1313.9399,1129.6589" style="stroke:#181818;stroke-width:1;"/><line style="stroke:#181818;stroke-width:1;" x1="1277.0666" x2="1277.0666" y1="1129.6589" y2="1181.0723"/><line style="stroke:#181818;stroke-width:1;" x1="1277.0666" x2="1157.6896" y1="1181.0723" y2="1181.0723"/><line style="stroke:#181818;stroke-width:1;" x1="1157.6896" x2="1157.6896" y1="1181.0723" y2="1221.0723"/><polygon fill="#FFFFFF" points="1277.0666,1129.6589,1270.0666,1148.6589,1284.0666,1148.6589,1277.0666,1129.6589" style="stroke:#181818;stroke-width:1;"/><line style="stroke:#181818;stroke-width:1;" x1="1350.8131" x2="1350.8131" y1="1129.6589" y2="1221.0723"/><polygon fill="#FFFFFF" points="1350.8131,1129.6589,1343.8131,1148.6589,1357.8131,1148.6589,1350.8131,1129.6589" style="stroke:#181818;stroke-width:1;"/><line style="stroke:#181818;stroke-width:1;" x1="1197.2078" x2="1197.2078" y1="888.2109" y2="915.5215"/><line style="stroke:#181818;stroke-width:1;" x1="1197.2078" x2="982.6118" y1="915.5215" y2="915.5215"/><line style="stroke:#181818;stroke-width:1;" x1="982.6118" x2="982.6118" y1="915.5215" y2="1032.1426"/><polygon fill="#FFFFFF" points="1197.2078,888.2109,1190.2078,907.2109,1204.2078,907.2109,1197.2078,888.2109" style="stroke:#181818;stroke-width:1;"/><line style="stroke:#181818;stroke-width:1;stroke-dasharray:7.0,7.0;" x1="1292.3274" x2="1292.3274" y1="341.7949" y2="369.1055"/><line style="stroke:#181818;stroke-width:1;stroke-dasharray:7.0,7.0;" x1="1292.3274" x2="1760.3183" y1="369.1055" y2="369.1055"/><line style="stroke:#181818;stroke-width:1;stroke-dasharray:7.0,7.0;" x1="1760.3183" x2="1760.3183" y1="369.1055" y2="1089.3762"/><polygon fill="#FFFFFF" points="1292.3274,341.7949,1285.3274,360.7949,1299.3274,360.7949,1292.3274,341.7949" style="stroke:#181818;stroke-width:1;"/><line style="stroke:#181818;stroke-width:1;" x1="1771.5795" x2="1771.5795" y1="1121.3762" y2="1181.0723"/><line style="stroke:#181818;stroke-width:1;" x1="1771.5795" x2="1836.6593" y1="1181.0723" y2="1181.0723"/><line style="stroke:#181818;stroke-width:1;" x1="1836.6593" x2="1836.6593" y1="1181.0723" y2="1347.0039"/><polygon fill="#FFFFFF" points="1771.5795,1121.3762,1764.5795,1140.3762,1778.5795,1140.3762,1771.5795,1121.3762" style="stroke:#181818;stroke-width:1;"/><line style="stroke:#181818;stroke-width:1;" x1="1704.0126" x2="1704.0126" y1="1121.3762" y2="1181.0723"/><line style="stroke:#181818;stroke-width:1;" x1="1704.0126" x2="1566.9532" y1="1181.0723" y2="1181.0723"/><line style="stroke:#181818;stroke-width:1;" x1="1566.9532" x2="1566.9532" y1="1181.0723" y2="1221.0723"/><polygon fill="#FFFFFF" points="1704.0126,1121.3762,1697.0126,1140.3762,1711.0126,1140.3762,1704.0126,1121.3762" style="stroke:#181818;stroke-width:1;"/><line style="stroke:#181818;stroke-width:1;" x1="1737.796" x2="1737.796" y1="1121.3762" y2="1221.0723"/><polygon fill="#FFFFFF" points="1737.796,1121.3762,1730.796,1140.3762,1744.796,1140.3762,1737.796,1121.3762" style="stroke:#181818;stroke-width:1;"/><line style="stroke:#181818;stroke-width:1;" x1="1711.5082" x2="1711.5082" y1="1253.0723" y2="1280.3828"/><line style="stroke:#181818;stroke-width:1;" x1="1711.5082" x2="1604.9822" y1="1280.3828" y2="1280.3828"/><line style="stroke:#181818;stroke-width:1;" x1="1604.9822" x2="1604.9822" y1="1280.3828" y2="1347.0039"/><polygon fill="#FFFFFF" points="1711.5082,1253.0723,1704.5082,1272.0723,1718.5082,1272.0723,1711.5082,1253.0723" style="stroke:#181818;stroke-width:1;"/><line style="stroke:#181818;stroke-width:1;" x1="548.9261" x2="548.9261" y1="623.6582" y2="650.9688"/><line style="stroke:#181818;stroke-width:1;" x1="548.9261" x2="297.1702" y1="650.9688" y2="650.9688"/><line style="stroke:#181818;stroke-width:1;" x1="297.1702" x2="297.1702" y1="650.9688" y2="716.0495"/><polygon fill="#FFFFFF" points="548.9261,623.6582,541.9261,642.6582,555.9261,642.6582,548.9261,623.6582" style="stroke:#181818;stroke-width:1;"/><line style="stroke:#181818;stroke-width:1;" x1="564.3764" x2="564.3764" y1="623.6582" y2="660.9688"/><line style="stroke:#181818;stroke-width:1;" x1="564.3764" x2="481.3078" y1="660.9688" y2="660.9688"/><line style="stroke:#181818;stroke-width:1;" x1="481.3078" x2="481.3078" y1="660.9688" y2="718.9346"/><polygon fill="#FFFFFF" points="564.3764,623.6582,557.3764,642.6582,571.3764,642.6582,564.3764,623.6582" style="stroke:#181818;stroke-width:1;"/><line style="stroke:#181818;stroke-width:1;" x1="318.5007" x2="318.5007" y1="748.0495" y2="856.2109"/><polygon fill="#FFFFFF" points="318.5007,748.0495,311.5007,767.0495,325.5007,767.0495,318.5007,748.0495" style="stroke:#181818;stroke-width:1;"/><line style="stroke:#181818;stroke-width:1;" x1="610.7274" x2="610.7274" y1="623.6582" y2="660.9688"/><line style="stroke:#181818;stroke-width:1;" x1="610.7274" x2="853.7313" y1="660.9688" y2="660.9688"/><line style="stroke:#181818;stroke-width:1;" x1="853.7313" x2="853.7313" y1="660.9688" y2="710.2793"/><polygon fill="#FFFFFF" points="610.7274,623.6582,603.7274,642.6582,617.7274,642.6582,610.7274,623.6582" style="stroke:#181818;stroke-width:1;"/><line style="stroke:#181818;stroke-width:1;" x1="868.2818" x2="868.2818" y1="742.2793" y2="779.5898"/><line style="stroke:#181818;stroke-width:1;" x1="868.2818" x2="1030.702" y1="779.5898" y2="779.5898"/><line style="stroke:#181818;stroke-width:1;" x1="1030.702" x2="1030.702" y1="779.5898" y2="856.2109"/><polygon fill="#FFFFFF" points="868.2818,742.2793,861.2818,761.2793,875.2818,761.2793,868.2818,742.2793" style="stroke:#181818;stroke-width:1;"/><line style="stroke:#181818;stroke-width:1;" x1="824.6304" x2="824.6304" y1="742.2793" y2="769.5898"/><line style="stroke:#181818;stroke-width:1;" x1="824.6304" x2="670.2351" y1="769.5898" y2="769.5898"/><line style="stroke:#181818;stroke-width:1;" x1="670.2351" x2="670.2351" y1="769.5898" y2="856.2109"/><polygon fill="#FFFFFF" points="824.6304,742.2793,817.6304,761.2793,831.6304,761.2793,824.6304,742.2793" style="stroke:#181818;stroke-width:1;"/><line style="stroke:#181818;stroke-width:1;" x1="275.8396" x2="275.8396" y1="748.0495" y2="769.5898"/><line style="stroke:#181818;stroke-width:1;" x1="275.8396" x2="197.509" y1="769.5898" y2="769.5898"/><line style="stroke:#181818;stroke-width:1;" x1="197.509" x2="197.509" y1="769.5898" y2="856.2109"/><polygon fill="#FFFFFF" points="275.8396,748.0495,268.8396,767.0495,282.8396,767.0495,275.8396,748.0495" style="stroke:#181818;stroke-width:1;"/><line style="stroke:#181818;stroke-width:1;" x1="481.3078" x2="481.3078" y1="750.9346" y2="856.2109"/><polygon fill="#FFFFFF" points="481.3078,750.9346,474.3078,769.9346,488.3078,769.9346,481.3078,750.9346" style="stroke:#181818;stroke-width:1;"/><line style="stroke:#181818;stroke-width:1;" x1="1715.5732" x2="1715.5732" y1="44" y2="465.7266"/><polygon fill="#181818" points="1715.5732,465.7266,1719.5732,456.7266,1715.5732,460.7266,1711.5732,456.7266,1715.5732,465.7266" style="stroke:#181818;stroke-width:1;"/><text fill="#000000" font-family="sans-serif" font-size="13" lengthAdjust="spacing" textLength="60.9185" x="1650.6547" y="244.7764">manage &#9656;</text><text fill="#000000" font-family="sans-serif" font-size="13" lengthAdjust="spacing" textLength="8.2202" x="1718.5732" y="58.5684">1</text><text fill="#000000" font-family="sans-serif" font-size="13" lengthAdjust="spacing" textLength="8.2202" x="1718.5732" y="460.9844">1</text><line style="stroke:#181818;stroke-width:1;" x1="1081.0205" x2="1081.0205" y1="169.9316" y2="197.2422"/><line style="stroke:#181818;stroke-width:1;" x1="1081.0205" x2="570.8773" y1="197.2422" y2="197.2422"/><line style="stroke:#181818;stroke-width:1;" x1="570.8773" x2="570.8773" y1="197.2422" y2="309.7949"/><polygon fill="#181818" points="1081.0205,169.9316,1077.0205,175.9316,1081.0205,181.9316,1085.0205,175.9316,1081.0205,169.9316" style="stroke:#181818;stroke-width:1;"/><text fill="#000000" font-family="sans-serif" font-size="13" lengthAdjust="spacing" textLength="67.5454" x="499.3319" y="244.7764">manages &#9656;</text><text fill="#000000" font-family="sans-serif" font-size="13" lengthAdjust="spacing" textLength="8.2202" x="1084.0205" y="184.5">1</text><text fill="#000000" font-family="sans-serif" font-size="13" lengthAdjust="spacing" textLength="8.2202" x="573.8773" y="305.0527">1</text><line style="stroke:#181818;stroke-width:1;" x1="1140.0152" x2="1140.0152" y1="169.9316" y2="197.2422"/><line style="stroke:#181818;stroke-width:1;" x1="1140.0152" x2="1900.8396" y1="197.2422" y2="197.2422"/><line style="stroke:#181818;stroke-width:1;" x1="1900.8396" x2="1900.8396" y1="197.2422" y2="1032.1426"/><polygon fill="#181818" points="1900.8396,1032.1426,1904.8396,1023.1426,1900.8396,1027.1426,1896.8396,1023.1426,1900.8396,1032.1426" style="stroke:#181818;stroke-width:1;"/><text fill="#000000" font-family="sans-serif" font-size="13" lengthAdjust="spacing" textLength="62.5562" x="1834.2835" y="612.5713">hasTurn &#9656;</text><text fill="#000000" font-family="sans-serif" font-size="13" lengthAdjust="spacing" textLength="8.2202" x="1143.0152" y="184.5">1</text><text fill="#000000" font-family="sans-serif" font-size="13" lengthAdjust="spacing" textLength="8.2202" x="1903.8396" y="1027.4004">1</text><line style="stroke:#8E8E8E;stroke-width:1;" x1="1110.5179" x2="1110.5179" y1="169.9316" y2="309.7949"/><polygon fill="#8E8E8E" points="1110.5179,309.7949,1114.5179,300.7949,1110.5179,304.7949,1106.5179,300.7949,1110.5179,309.7949" style="stroke:#8E8E8E;stroke-width:1;"/><text fill="#000000" font-family="sans-serif" font-size="13" lengthAdjust="spacing" textLength="95.3799" x="914.7329" y="221.8105">usesStatically &#9656;</text><text fill="#8E8E8E" font-family="sans-serif" font-size="13" font-weight="bold" lengthAdjust="spacing" textLength="34.3916" x="851.1612" y="237.1211">Note:</text><text fill="#8E8E8E" font-family="sans-serif" font-size="13" lengthAdjust="spacing" textLength="184.0186" x="889.666" y="237.1211">This is not a real association.</text><text fill="#8E8E8E" font-family="sans-serif" font-size="13" lengthAdjust="spacing" textLength="240.2334" x="842.3062" y="252.4316">We only indicate that the ChessEngine</text><text fill="#8E8E8E" font-family="sans-serif" font-size="13" lengthAdjust="spacing" textLength="288.1899" x="818.3279" y="267.7422">class uses the ChessBoardInitializer statically.</text><line style="stroke:#181818;stroke-width:1;" x1="511.0329" x2="511.0329" y1="341.7949" y2="465.7266"/><polygon fill="#181818" points="511.0329,341.7949,507.0329,347.7949,511.0329,353.7949,515.0329,347.7949,511.0329,341.7949" style="stroke:#181818;stroke-width:1;"/><text fill="#000000" font-family="sans-serif" font-size="13" lengthAdjust="spacing" textLength="62.2705" x="444.7624" y="403.6738">controls &#9656;</text><text fill="#000000" font-family="sans-serif" font-size="13" lengthAdjust="spacing" textLength="8.2202" x="514.0329" y="356.3633">1</text><text fill="#000000" font-family="sans-serif" font-size="13" lengthAdjust="spacing" textLength="8.2202" x="514.0329" y="460.9844">1</text><line style="stroke:#181818;stroke-width:1;" x1="570.8773" x2="570.8773" y1="341.7949" y2="379.1055"/><line style="stroke:#181818;stroke-width:1;" x1="570.8773" x2="1680.8281" y1="379.1055" y2="379.1055"/><line style="stroke:#181818;stroke-width:1;" x1="1680.8281" x2="1680.8281" y1="379.1055" y2="465.7266"/><polygon fill="#181818" points="1680.8281,465.7266,1684.8281,456.7266,1680.8281,460.7266,1676.8281,456.7266,1680.8281,465.7266" style="stroke:#181818;stroke-width:1;"/><text fill="#000000" font-family="sans-serif" font-size="13" lengthAdjust="spacing" textLength="62.2705" x="1614.5576" y="403.6738">controls &#9656;</text><text fill="#000000" font-family="sans-serif" font-size="13" lengthAdjust="spacing" textLength="8.2202" x="573.8773" y="356.3633">1</text><text fill="#000000" font-family="sans-serif" font-size="13" lengthAdjust="spacing" textLength="8.2202" x="1683.8281" y="460.9844">1</text><line style="stroke:#181818;stroke-width:1;" x1="520.3139" x2="520.3139" y1="497.7266" y2="525.0371"/><line style="stroke:#181818;stroke-width:1;" x1="520.3139" x2="1246.1239" y1="525.0371" y2="525.0371"/><line style="stroke:#181818;stroke-width:1;" x1="1246.1239" x2="1246.1239" y1="525.0371" y2="856.2109"/><polygon fill="#181818" points="520.3139,497.7266,516.3139,503.7266,520.3139,509.7266,524.3139,503.7266,520.3139,497.7266" style="stroke:#181818;stroke-width:1;"/><text fill="#000000" font-family="sans-serif" font-size="13" lengthAdjust="spacing" textLength="90.8857" x="1151.2382" y="685.5371">composedOf &#9656;</text><text fill="#000000" font-family="sans-serif" font-size="13" lengthAdjust="spacing" textLength="8.2202" x="523.3139" y="512.2949">1</text><text fill="#000000" font-family="sans-serif" font-size="13" lengthAdjust="spacing" textLength="32.8872" x="1249.1239" y="851.4688">2..32</text><line style="stroke:#181818;stroke-width:1;" x1="464.6278" x2="464.6278" y1="497.7266" y2="525.0371"/><line style="stroke:#181818;stroke-width:1;" x1="464.6278" x2="135.3552" y1="525.0371" y2="525.0371"/><line style="stroke:#181818;stroke-width:1;" x1="135.3552" x2="135.3552" y1="525.0371" y2="1004.832"/><line style="stroke:#181818;stroke-width:1;" x1="135.3552" x2="792.2365" y1="1004.832" y2="1004.832"/><line style="stroke:#181818;stroke-width:1;" x1="792.2365" x2="792.2365" y1="1004.832" y2="1032.1426"/><polygon fill="#181818" points="464.6278,497.7266,460.6278,503.7266,464.6278,509.7266,468.6278,503.7266,464.6278,497.7266" style="stroke:#181818;stroke-width:1;"/><text fill="#000000" font-family="sans-serif" font-size="13" lengthAdjust="spacing" textLength="49.2515" x="82.1037" y="739.8477">tracks &#9656;</text><text fill="#000000" font-family="sans-serif" font-size="13" lengthAdjust="spacing" textLength="8.2202" x="467.6278" y="512.2949">1</text><text fill="#000000" font-family="sans-serif" font-size="13" lengthAdjust="spacing" textLength="8.2202" x="795.2365" y="1027.4004">2</text><line style="stroke:#181818;stroke-width:1;" x1="492.4709" x2="492.4709" y1="497.7266" y2="564.3477"/><line style="stroke:#181818;stroke-width:1;" x1="492.4709" x2="569.5265" y1="564.3477" y2="564.3477"/><line style="stroke:#181818;stroke-width:1;" x1="569.5265" x2="569.5265" y1="564.3477" y2="591.6582"/><polygon fill="#181818" points="492.4709,497.7266,488.4709,503.7266,492.4709,509.7266,496.4709,503.7266,492.4709,497.7266" style="stroke:#181818;stroke-width:1;"/><text fill="#000000" font-family="sans-serif" font-size="13" lengthAdjust="spacing" textLength="49.2515" x="439.2194" y="549.6055">tracks &#9656;</text><text fill="#000000" font-family="sans-serif" font-size="13" lengthAdjust="spacing" textLength="8.2202" x="495.4709" y="512.2949">1</text><text fill="#000000" font-family="sans-serif" font-size="13" lengthAdjust="spacing" textLength="8.2202" x="572.5265" y="586.916">1</text><line style="stroke:#181818;stroke-width:1;" x1="226.0016" x2="226.0016" y1="44" y2="71.3105"/><line style="stroke:#181818;stroke-width:1;" x1="226.0016" x2="84.5234" y1="71.3105" y2="71.3105"/><line style="stroke:#181818;stroke-width:1;" x1="84.5234" x2="84.5234" y1="71.3105" y2="438.416"/><line style="stroke:#181818;stroke-width:1;" x1="84.5234" x2="455.3468" y1="438.416" y2="438.416"/><line style="stroke:#181818;stroke-width:1;" x1="455.3468" x2="455.3468" y1="438.416" y2="465.7266"/><polygon fill="#181818" points="226.0016,44,222.0016,50,226.0016,56,230.0016,50,226.0016,44" style="stroke:#181818;stroke-width:1;"/><text fill="#000000" font-family="sans-serif" font-size="13" lengthAdjust="spacing" textLength="66.5234" x="14" y="244.7764">validates &#9656;</text><text fill="#000000" font-family="sans-serif" font-size="13" lengthAdjust="spacing" textLength="8.2202" x="229.0016" y="58.5684">1</text><text fill="#000000" font-family="sans-serif" font-size="13" lengthAdjust="spacing" textLength="8.2202" x="458.3468" y="460.9844">1</text><line style="stroke:#181818;stroke-width:1;" x1="294.6689" x2="294.6689" y1="44" y2="137.9316"/><polygon fill="#181818" points="294.6689,44,290.6689,50,294.6689,56,298.6689,50,294.6689,44" style="stroke:#181818;stroke-width:1;"/><text fill="#000000" font-family="sans-serif" font-size="13" lengthAdjust="spacing" textLength="53.2759" x="237.3931" y="95.8789">counts &#9656;</text><text fill="#000000" font-family="sans-serif" font-size="13" lengthAdjust="spacing" textLength="8.2202" x="297.6689" y="58.5684">1</text><text fill="#000000" font-family="sans-serif" font-size="13" lengthAdjust="spacing" textLength="8.2202" x="297.6689" y="133.1895">1</text><line style="stroke:#181818;stroke-width:1;" x1="259.467" x2="259.467" y1="169.9316" y2="197.2422"/><line style="stroke:#181818;stroke-width:1;" x1="259.467" x2="174.5713" y1="197.2422" y2="197.2422"/><line style="stroke:#181818;stroke-width:1;" x1="174.5713" x2="174.5713" y1="197.2422" y2="309.7949"/><polygon fill="#181818" points="259.467,169.9316,255.467,175.9316,259.467,181.9316,263.467,175.9316,259.467,169.9316" style="stroke:#181818;stroke-width:1;"/><text fill="#000000" font-family="sans-serif" font-size="13" lengthAdjust="spacing" textLength="45.5571" x="125.0142" y="244.7764">reads &#9656;</text><text fill="#000000" font-family="sans-serif" font-size="13" lengthAdjust="spacing" textLength="8.2202" x="262.467" y="184.5">1</text><text fill="#000000" font-family="sans-serif" font-size="13" lengthAdjust="spacing" textLength="8.2202" x="177.5713" y="305.0527">1</text><line style="stroke:#181818;stroke-width:1;" x1="329.8708" x2="329.8708" y1="169.9316" y2="197.2422"/><line style="stroke:#181818;stroke-width:1;" x1="329.8708" x2="345.2559" y1="197.2422" y2="197.2422"/><line style="stroke:#181818;stroke-width:1;" x1="345.2559" x2="345.2559" y1="197.2422" y2="309.7949"/><polygon fill="#181818" points="345.2559,309.7949,349.2559,300.7949,345.2559,304.7949,341.2559,300.7949,345.2559,309.7949" style="stroke:#181818;stroke-width:1;"/><text fill="#000000" font-family="sans-serif" font-size="13" lengthAdjust="spacing" textLength="67.9326" x="350.2559" y="244.7764">hasWhite &#9656;</text><text fill="#000000" font-family="sans-serif" font-size="13" lengthAdjust="spacing" textLength="8.2202" x="332.8708" y="184.5">1</text><text fill="#000000" font-family="sans-serif" font-size="13" lengthAdjust="spacing" textLength="8.2202" x="348.2559" y="305.0527">1</text><line style="stroke:#181818;stroke-width:1;" x1="294.6689" x2="294.6689" y1="169.9316" y2="282.4844"/><line style="stroke:#181818;stroke-width:1;" x1="294.6689" x2="309.4375" y1="282.4844" y2="282.4844"/><line style="stroke:#181818;stroke-width:1;" x1="309.4375" x2="309.4375" y1="282.4844" y2="309.7949"/><polygon fill="#181818" points="309.4375,309.7949,313.4375,300.7949,309.4375,304.7949,305.4375,300.7949,309.4375,309.7949" style="stroke:#181818;stroke-width:1;"/><text fill="#000000" font-family="sans-serif" font-size="13" lengthAdjust="spacing" textLength="65.5522" x="225.1167" y="244.7764">hasBlack &#9656;</text><text fill="#000000" font-family="sans-serif" font-size="13" lengthAdjust="spacing" textLength="8.2202" x="297.6689" y="184.5">1</text><text fill="#000000" font-family="sans-serif" font-size="13" lengthAdjust="spacing" textLength="8.2202" x="312.4375" y="305.0527">1</text><line style="stroke:#181818;stroke-width:1;" x1="1212.4941" x2="1212.4941" y1="888.2109" y2="925.5215"/><line style="stroke:#181818;stroke-width:1;" x1="1212.4941" x2="1083.5811" y1="925.5215" y2="925.5215"/><line style="stroke:#181818;stroke-width:1;" x1="1083.5811" x2="1083.5811" y1="925.5215" y2="1032.1426"/><polygon fill="#181818" points="1083.5811,1032.1426,1087.5811,1023.1426,1083.5811,1027.1426,1079.5811,1023.1426,1083.5811,1032.1426" style="stroke:#181818;stroke-width:1;"/><text fill="#000000" font-family="sans-serif" font-size="13" lengthAdjust="spacing" textLength="77.7397" x="1001.8413" y="960.0898">represents &#9656;</text><text fill="#000000" font-family="sans-serif" font-size="13" lengthAdjust="spacing" textLength="8.2202" x="1215.4941" y="902.7793">1</text><text fill="#000000" font-family="sans-serif" font-size="13" lengthAdjust="spacing" textLength="8.2202" x="1086.5811" y="1027.4004">1</text><line style="stroke:#181818;stroke-width:1;" x1="1273.6392" x2="1273.6392" y1="888.2109" y2="915.5215"/><line style="stroke:#181818;stroke-width:1;" x1="1273.6392" x2="1864.4995" y1="915.5215" y2="915.5215"/><line style="stroke:#181818;stroke-width:1;" x1="1864.4995" x2="1864.4995" y1="915.5215" y2="1032.1426"/><polygon fill="#181818" points="1864.4995,1032.1426,1868.4995,1023.1426,1864.4995,1027.1426,1860.4995,1023.1426,1864.4995,1032.1426" style="stroke:#181818;stroke-width:1;"/><text fill="#000000" font-family="sans-serif" font-size="13" lengthAdjust="spacing" textLength="77.1812" x="1783.3183" y="960.0898">belongsTo &#9656;</text><text fill="#000000" font-family="sans-serif" font-size="13" lengthAdjust="spacing" textLength="8.2202" x="1276.6392" y="902.7793">1</text><text fill="#000000" font-family="sans-serif" font-size="13" lengthAdjust="spacing" textLength="8.2202" x="1867.4995" y="1027.4004">1</text><line style="stroke:#181818;stroke-width:1;" x1="1258.3529" x2="1258.3529" y1="888.2109" y2="925.5215"/><line style="stroke:#181818;stroke-width:1;" x1="1258.3529" x2="1715.2737" y1="925.5215" y2="925.5215"/><line style="stroke:#181818;stroke-width:1;" x1="1715.2737" x2="1715.2737" y1="925.5215" y2="1089.3762"/><polygon fill="#181818" points="1258.3529,888.2109,1254.3529,894.2109,1258.3529,900.2109,1262.3529,894.2109,1258.3529,888.2109" style="stroke:#181818;stroke-width:1;"/><text fill="#000000" font-family="sans-serif" font-size="13" lengthAdjust="spacing" textLength="90.8857" x="1620.388" y="960.0898">composedOf &#9656;</text><text fill="#000000" font-family="sans-serif" font-size="13" lengthAdjust="spacing" textLength="8.2202" x="1261.3529" y="902.7793">1</text><text fill="#000000" font-family="sans-serif" font-size="13" lengthAdjust="spacing" textLength="22.7119" x="1718.2737" y="1084.634">1..*</text><line style="stroke:#181818;stroke-width:1;" x1="1807.824" x2="1807.824" y1="1379.0039" y2="1472.9355"/><polygon fill="none" points="1807.824,1379.0039,1803.824,1385.0039,1807.824,1391.0039,1811.824,1385.0039,1807.824,1379.0039" style="stroke:#181818;stroke-width:1;"/><text fill="#000000" font-family="sans-serif" font-size="13" lengthAdjust="spacing" textLength="56.9067" x="1746.9173" y="1430.8828">defines &#9656;</text><text fill="#000000" font-family="sans-serif" font-size="13" lengthAdjust="spacing" textLength="8.2202" x="1810.824" y="1393.5723">1</text><text fill="#000000" font-family="sans-serif" font-size="13" lengthAdjust="spacing" textLength="22.7119" x="1810.824" y="1468.1934">1..*</text><line style="stroke:#181818;stroke-width:1;" x1="1764.0838" x2="1764.0838" y1="1253.0723" y2="1319.6934"/><line style="stroke:#181818;stroke-width:1;" x1="1764.0838" x2="1778.9887" y1="1319.6934" y2="1319.6934"/><line style="stroke:#181818;stroke-width:1;" x1="1778.9887" x2="1778.9887" y1="1319.6934" y2="1347.0039"/><polygon fill="#181818" points="1764.0838,1253.0723,1760.0838,1259.0723,1764.0838,1265.0723,1768.0838,1259.0723,1764.0838,1253.0723" style="stroke:#181818;stroke-width:1;"/><text fill="#000000" font-family="sans-serif" font-size="13" lengthAdjust="spacing" textLength="39.5713" x="1720.5125" y="1304.9512">uses &#9656;</text><text fill="#000000" font-family="sans-serif" font-size="13" lengthAdjust="spacing" textLength="8.2202" x="1767.0838" y="1267.6406">1</text><text fill="#000000" font-family="sans-serif" font-size="13" lengthAdjust="spacing" textLength="22.7119" x="1781.9887" y="1342.2617">1..*</text><line style="stroke:#181818;stroke-width:1;" x1="579.8268" x2="579.8268" y1="623.6582" y2="650.9688"/><line style="stroke:#181818;stroke-width:1;" x1="579.8268" x2="584.2771" y1="650.9688" y2="650.9688"/><line style="stroke:#181818;stroke-width:1;" x1="584.2771" x2="584.2771" y1="650.9688" y2="984.832"/><line style="stroke:#181818;stroke-width:1;" x1="584.2771" x2="816.8344" y1="984.832" y2="984.832"/><line style="stroke:#181818;stroke-width:1;" x1="816.8344" x2="816.8344" y1="984.832" y2="1032.1426"/><polygon fill="#181818" points="579.8268,623.6582,575.8268,629.6582,579.8268,635.6582,583.8268,629.6582,579.8268,623.6582" style="stroke:#181818;stroke-width:1;"/><text fill="#000000" font-family="sans-serif" font-size="13" lengthAdjust="spacing" textLength="60.3154" x="519.9617" y="804.1582">startsAt &#9656;</text><text fill="#000000" font-family="sans-serif" font-size="13" lengthAdjust="spacing" textLength="8.2202" x="582.8268" y="638.2266">1</text><text fill="#000000" font-family="sans-serif" font-size="13" lengthAdjust="spacing" textLength="8.2202" x="819.8344" y="1027.4004">1</text><line style="stroke:#181818;stroke-width:1;" x1="595.2771" x2="595.2771" y1="623.6582" y2="974.832"/><line style="stroke:#181818;stroke-width:1;" x1="595.2771" x2="829.1334" y1="974.832" y2="974.832"/><line style="stroke:#181818;stroke-width:1;" x1="829.1334" x2="829.1334" y1="974.832" y2="1032.1426"/><polygon fill="#181818" points="595.2771,623.6582,591.2771,629.6582,595.2771,635.6582,599.2771,629.6582,595.2771,623.6582" style="stroke:#181818;stroke-width:1;"/><text fill="#000000" font-family="sans-serif" font-size="13" lengthAdjust="spacing" textLength="54.958" x="600.2771" y="804.1582">endsAt &#9656;</text><text fill="#000000" font-family="sans-serif" font-size="13" lengthAdjust="spacing" textLength="8.2202" x="598.2771" y="638.2266">1</text><text fill="#000000" font-family="sans-serif" font-size="13" lengthAdjust="spacing" textLength="8.2202" x="832.1334" y="1027.4004">1</text><line style="stroke:#181818;stroke-width:1;" x1="626.1778" x2="626.1778" y1="623.6582" y2="650.9688"/><line style="stroke:#181818;stroke-width:1;" x1="626.1778" x2="1138.2382" y1="650.9688" y2="650.9688"/><line style="stroke:#181818;stroke-width:1;" x1="1138.2382" x2="1138.2382" y1="650.9688" y2="818.9004"/><line style="stroke:#181818;stroke-width:1;" x1="1138.2382" x2="1224.7231" y1="818.9004" y2="818.9004"/><line style="stroke:#181818;stroke-width:1;" x1="1224.7231" x2="1224.7231" y1="818.9004" y2="856.2109"/><polygon fill="#181818" points="626.1778,623.6582,622.1778,629.6582,626.1778,635.6582,630.1778,629.6582,626.1778,623.6582" style="stroke:#181818;stroke-width:1;"/><text fill="#000000" font-family="sans-serif" font-size="13" lengthAdjust="spacing" textLength="51.7271" x="1082.5111" y="739.8477">moves &#9656;</text><text fill="#000000" font-family="sans-serif" font-size="13" lengthAdjust="spacing" textLength="8.2202" x="629.1778" y="638.2266">1</text><text fill="#000000" font-family="sans-serif" font-size="13" lengthAdjust="spacing" textLength="8.2202" x="1227.7231" y="851.4688">1</text><line style="stroke:#181818;stroke-width:1;" x1="605.5773" x2="605.5773" y1="497.7266" y2="591.6582"/><polygon fill="#181818" points="605.5773,497.7266,601.5773,503.7266,605.5773,509.7266,609.5773,503.7266,605.5773,497.7266" style="stroke:#181818;stroke-width:1;"/><text fill="#000000" font-family="sans-serif" font-size="13" lengthAdjust="spacing" textLength="63.3687" x="538.2087" y="549.6055">includes &#9656;</text><text fill="#000000" font-family="sans-serif" font-size="13" lengthAdjust="spacing" textLength="8.2202" x="608.5773" y="512.2949">1</text><text fill="#000000" font-family="sans-serif" font-size="13" lengthAdjust="spacing" textLength="6.2651" x="608.5773" y="586.916">*</text><line style="stroke:#181818;stroke-width:1;" x1="318.5007" x2="318.5007" y1="888.2109" y2="994.832"/><line style="stroke:#181818;stroke-width:1;" x1="318.5007" x2="804.5355" y1="994.832" y2="994.832"/><line style="stroke:#181818;stroke-width:1;" x1="804.5355" x2="804.5355" y1="994.832" y2="1032.1426"/><polygon fill="#181818" points="318.5007,888.2109,314.5007,894.2109,318.5007,900.2109,322.5007,894.2109,318.5007,888.2109" style="stroke:#181818;stroke-width:1;"/><text fill="#000000" font-family="sans-serif" font-size="13" lengthAdjust="spacing" textLength="65.146" x="249.3547" y="960.0898">captures &#9656;</text><text fill="#000000" font-family="sans-serif" font-size="13" lengthAdjust="spacing" textLength="8.2202" x="321.5007" y="902.7793">1</text><text fill="#000000" font-family="sans-serif" font-size="13" lengthAdjust="spacing" textLength="8.2202" x="807.5355" y="1027.4004">1</text><line style="stroke:#181818;stroke-width:1;" x1="853.7313" x2="853.7313" y1="742.2793" y2="1032.1426"/><polygon fill="#181818" points="853.7313,742.2793,849.7313,748.2793,853.7313,754.2793,857.7313,748.2793,853.7313,742.2793" style="stroke:#181818;stroke-width:1;"/><text fill="#000000" font-family="sans-serif" font-size="13" lengthAdjust="spacing" textLength="89.5781" x="858.7313" y="877.124">rookStartsAt &#9656;</text><text fill="#000000" font-family="sans-serif" font-size="13" lengthAdjust="spacing" textLength="8.2202" x="856.7313" y="756.8477">1</text><text fill="#000000" font-family="sans-serif" font-size="13" lengthAdjust="spacing" textLength="8.2202" x="856.7313" y="1027.4004">1</text><line style="stroke:#181818;stroke-width:1;" x1="839.1809" x2="839.1809" y1="742.2793" y2="769.5898"/><line style="stroke:#181818;stroke-width:1;" x1="839.1809" x2="841.4324" y1="769.5898" y2="769.5898"/><line style="stroke:#181818;stroke-width:1;" x1="841.4324" x2="841.4324" y1="769.5898" y2="1032.1426"/><polygon fill="#181818" points="839.1809,742.2793,835.1809,748.2793,839.1809,754.2793,843.1809,748.2793,839.1809,742.2793" style="stroke:#181818;stroke-width:1;"/><text fill="#000000" font-family="sans-serif" font-size="13" lengthAdjust="spacing" textLength="83.6494" x="753.7829" y="877.124">rookEndsAt &#9656;</text><text fill="#000000" font-family="sans-serif" font-size="13" lengthAdjust="spacing" textLength="8.2202" x="842.1809" y="756.8477">1</text><text fill="#000000" font-family="sans-serif" font-size="13" lengthAdjust="spacing" textLength="8.2202" x="844.4324" y="1027.4004">1</text><line style="stroke:#181818;stroke-width:1;" x1="882.8322" x2="882.8322" y1="742.2793" y2="769.5898"/><line style="stroke:#181818;stroke-width:1;" x1="882.8322" x2="1127.2382" y1="769.5898" y2="769.5898"/><line style="stroke:#181818;stroke-width:1;" x1="1127.2382" x2="1127.2382" y1="769.5898" y2="828.9004"/><line style="stroke:#181818;stroke-width:1;" x1="1127.2382" x2="1203.3223" y1="828.9004" y2="828.9004"/><line style="stroke:#181818;stroke-width:1;" x1="1203.3223" x2="1203.3223" y1="828.9004" y2="856.2109"/><polygon fill="#181818" points="882.8322,742.2793,878.8322,748.2793,882.8322,754.2793,886.8322,748.2793,882.8322,742.2793" style="stroke:#181818;stroke-width:1;"/><text fill="#000000" font-family="sans-serif" font-size="13" lengthAdjust="spacing" textLength="79.5361" x="1043.702" y="804.1582">movesWith &#9656;</text><text fill="#000000" font-family="sans-serif" font-size="13" lengthAdjust="spacing" textLength="8.2202" x="885.8322" y="756.8477">1</text><text fill="#000000" font-family="sans-serif" font-size="13" lengthAdjust="spacing" textLength="8.2202" x="1206.3223" y="851.4688">1</text><!--SRC=[rLVBRXit5DthArXb4KUHrJRT50D1W2tBZch7TYGbMhH5GSzSQmXpI9Max2X1VgFVqk_fb_IIdFV3K5P5bS0QaUVSD-_bVBTLT9DGmkbUxWm1_j2BMGG4agtPamHCB2DTNgB6A7QtCw1x-e69BLKq8Pm9CFij4AcGKDfGSYUYgLG25FcXj1voglL99ceUIh5adw42cLh8AGqVDgaGBXLvSSEZAnf22NSj3Hm0MyOqaazCRCWzvHfwHcw9aUHE6YCJ4Z45eM5Iz7fZRVOS9Zs27sVc6QCRA-6BMxAVqLR9Hmn9L5gpdxeP5x7KPXqp0nNO5KRB0yvOSg5WNzazbyAqxtxj-R_ZxrCJVLx6uyoSoOHe0mgapKMlnmJ-kCSma6aCMazHi9ASWwemldmj8pzeKDDOiX0Qe9UaWFNF57sYTnmMeELE8NeswLSPYBUVrsG39aCTlGh833U-DepxoE2fHQF0v18EzuR8-mAOYbuHbcmv922CTeOJRtb0nYi2dmo8gB8-GGV8B_IH8X_td72hXDvfesXeVBf9_vHgSFRKVIgfosqfEQfWmspySszj6W9ooo245JuEIMZpYYjusZ3CziSGMJeWBU74K3rA5gNINn0kQPHjdqjrcF08xWEIiLwrwl7fU9awV_5XtaX55ifAO4f-QqELiUj7LPjjH1Bv2Cx6eq-1hPyXsRllEdAxCssm8Jd0pKBMQpp8Ueixxp0xT0D7YTu4P8bjHcpg6gb-iBKnNasE33CSCjoG_Ba3RNj1iRALMhCxnfbXDbkZqMY5ubRLqE7vqfB3_pXyNjP_4C8qWFPCpSG6ssFZg1NDgzQmtEwff2fQAsoqtTiBe56wNLBdjah2wtgVaSob07kM6cshBhvTgBTds50pB2ItIbiQQk0ZvIoYHfRzUOVhYb4-nG6KckitNFRTwXY76pKiJ0sjDRv2nrnWcb35vqh0RgLcDgbk2SGkALTHhVdR0bc_dQzcxkdqwcHwsSjPMJMsS6vFrjVkON5pS-aUBg_d5szNNiny-VRcrZs-_p2RUU3b_FgYr-6CqrG9VpcqDSQjaeaqThF4pGvlkxXYMfQYJPz46oq7BAHyo06jIdFefM2Rs1m8FcKwnalDOU3tEm1ng1NsrjJkKIFixx1XNG1UzrnnTaNUOy-oInVb1INJKnLKYyZ1y3CSo5I4S331Pg-RrDp9ZqBkJ5h8vpUBzSdYREaB5yk_-7KrE_VrlCWhEqF_aU_bAmKebrAWYYKFAve1kgSx3xdTBHriR2aYmcFlbYk9pe0fbsxDJZqBcObR_AAYADgAyEQfcr9jUAF0gaAlfDWqSTb23bl6-Ffn0CvNkqrLbuqrt9gPkE5x-jj6iJwX-Z_soV7nn7qN5yM095JWH2N__FLtoac7dSKDZeyBV7qgPLJjk7LgfghKZP4HKxtQAT5W7F_wucUm_tv7MdlB3yXEWrwwKK4vtriPlubnwD-jF7io6DWths0m8AkOQOB_yJvDA5vQACURWPOXepPuemPpZU-90gKo4Q5ylE2Rc1hy0-KRG8FbSs8DAw0DotLkyoWDSJsKxR56bqEFAOMuZTgMrWvceUhDQFJJctwvTLfIWbSYY6xkksdzOkG6n1wQXsuTcKskX3lGjQj3PoWUFGI-WL-_V5W7TxRlMmdrpNR5wGKji1KKTHFpQizlDRxOtNlsDxDEESQfT29zUXeCUrjnbctnTGqolxeObNDu1pZvDdebsoW-2gFHe5yRI8q2wRLEIoj35ZAA8HJOLpyyHjxGvjogAMyLxjj0AJYkjih9AvMdUulH9wRmyZcqRQ7FOYjd9N73pANMFUN0GRNecGZvBagXnIJgi27q7JnDPJObEi0ABstBYei746ObBzlWJIVjf77uVm40]--></g></svg>