<svg xmlns="http://www.w3.org/2000/svg" xmlns:xlink="http://www.w3.org/1999/xlink" contentStyleType="text/css" height="1324px" preserveAspectRatio="none" style="width:1602px;height:1324px;background:#FFFFFF;" version="1.1" viewBox="0 0 1602 1324" width="1602px" zoomAndPan="magnify"><defs/><g><!--class ChessController--><g id="elem_ChessController"><rect codeLine="24" fill="#F8F8FF" height="32" id="ChessController" style="stroke:#696969;stroke-width:0.5;" width="140.6094" x="1379.4064" y="137.9316"/><ellipse cx="1394.4064" cy="153.9316" fill="#B4A7E5" rx="11" ry="11" style="stroke:#181818;stroke-width:1;"/><path d="M1390.8341,150.1968 L1390.8341,148.0386 L1398.2135,148.0386 L1398.2135,150.1968 L1395.7482,150.1968 L1395.7482,158.2734 L1398.2135,158.2734 L1398.2135,160.4316 L1390.8341,160.4316 L1390.8341,158.2734 L1393.2995,158.2734 L1393.2995,150.1968 Z " fill="#000000"/><text fill="#696969" font-family="sans-serif" font-size="14" font-style="italic" lengthAdjust="spacing" textLength="108.6094" x="1408.4064" y="159.2227">ChessController</text></g><!--class UserChoice--><g id="elem_UserChoice"><rect codeLine="26" fill="#F8F8FF" height="32" id="UserChoice" style="stroke:#696969;stroke-width:0.5;" width="108.3574" x="700.0468" y="539.1055"/><ellipse cx="715.0468" cy="555.1055" fill="#B4A7E5" rx="11" ry="11" style="stroke:#181818;stroke-width:1;"/><path d="M711.4745,551.3706 L711.4745,549.2124 L718.8539,549.2124 L718.8539,551.3706 L716.3886,551.3706 L716.3886,559.4473 L718.8539,559.4473 L718.8539,561.6055 L711.4745,561.6055 L711.4745,559.4473 L713.9398,559.4473 L713.9398,551.3706 Z " fill="#000000"/><text fill="#696969" font-family="sans-serif" font-size="14" font-style="italic" lengthAdjust="spacing" textLength="76.3574" x="729.0468" y="560.3965">UserChoice</text></g><!--class ChessView--><g id="elem_ChessView"><rect codeLine="31" fill="#F8F8FF" height="32" id="ChessView" style="stroke:#696969;stroke-width:0.5;" width="104.2354" x="1249.6699" y="554.416"/><ellipse cx="1264.6699" cy="570.416" fill="#B4A7E5" rx="11" ry="11" style="stroke:#181818;stroke-width:1;"/><path d="M1261.0977,566.6812 L1261.0977,564.5229 L1268.4771,564.5229 L1268.4771,566.6812 L1266.0117,566.6812 L1266.0117,574.7578 L1268.4771,574.7578 L1268.4771,576.916 L1261.0977,576.916 L1261.0977,574.7578 L1263.563,574.7578 L1263.563,566.6812 Z " fill="#000000"/><text fill="#696969" font-family="sans-serif" font-size="14" font-style="italic" lengthAdjust="spacing" textLength="72.2354" x="1278.6699" y="575.707">ChessView</text></g><!--class ChessEngine--><g id="elem_ChessEngine"><rect codeLine="42" fill="#FDF5E6" height="32" id="ChessEngine" style="stroke:#181818;stroke-width:0.5;" width="117.9893" x="1414.1514" y="237.2422"/><ellipse cx="1429.1514" cy="253.2422" fill="#ADD1B2" rx="11" ry="11" style="stroke:#181818;stroke-width:1;"/><path d="M1431.6245,259.3853 Q1431.0435,259.6841 1430.4043,259.8335 Q1429.7651,259.9829 1429.0596,259.9829 Q1426.5527,259.9829 1425.2329,258.3311 Q1423.9131,256.6792 1423.9131,253.5581 Q1423.9131,250.4287 1425.2329,248.7769 Q1426.5527,247.125 1429.0596,247.125 Q1429.7651,247.125 1430.4126,247.2744 Q1431.0601,247.4238 1431.6245,247.7227 L1431.6245,250.4453 Q1430.9937,249.8643 1430.4001,249.5945 Q1429.8066,249.3247 1429.1758,249.3247 Q1427.8311,249.3247 1427.1462,250.3914 Q1426.4614,251.458 1426.4614,253.5581 Q1426.4614,255.6499 1427.1462,256.7166 Q1427.8311,257.7832 1429.1758,257.7832 Q1429.8066,257.7832 1430.4001,257.5134 Q1430.9937,257.2437 1431.6245,256.6626 Z " fill="#000000"/><text fill="#000000" font-family="sans-serif" font-size="14" lengthAdjust="spacing" textLength="85.9893" x="1443.1514" y="258.5332">ChessEngine</text></g><!--class ChessBoardView--><g id="elem_ChessBoardView"><rect codeLine="44" fill="#FDF5E6" height="32" id="ChessBoardView" style="stroke:#181818;stroke-width:0.5;" width="143.1592" x="896.2319" y="237.2422"/><ellipse cx="911.2319" cy="253.2422" fill="#B4A7E5" rx="11" ry="11" style="stroke:#181818;stroke-width:1;"/><path d="M907.6597,249.5073 L907.6597,247.3491 L915.0391,247.3491 L915.0391,249.5073 L912.5737,249.5073 L912.5737,257.584 L915.0391,257.584 L915.0391,259.7422 L907.6597,259.7422 L907.6597,257.584 L910.125,257.584 L910.125,249.5073 Z " fill="#000000"/><text fill="#000000" font-family="sans-serif" font-size="14" font-style="italic" lengthAdjust="spacing" textLength="111.1592" x="925.2319" y="258.5332">ChessBoardView</text></g><!--class Cloneable--><g id="elem_Cloneable"><rect codeLine="46" fill="#F8F8FF" height="32" id="Cloneable" style="stroke:#696969;stroke-width:0.5;" width="99.2109" x="1095.3032" y="237.2422"/><ellipse cx="1110.3032" cy="253.2422" fill="#B4A7E5" rx="11" ry="11" style="stroke:#181818;stroke-width:1;"/><path d="M1106.731,249.5073 L1106.731,247.3491 L1114.1104,247.3491 L1114.1104,249.5073 L1111.645,249.5073 L1111.645,257.584 L1114.1104,257.584 L1114.1104,259.7422 L1106.731,259.7422 L1106.731,257.584 L1109.1963,257.584 L1109.1963,249.5073 Z " fill="#000000"/><text fill="#696969" font-family="sans-serif" font-size="14" font-style="italic" lengthAdjust="spacing" textLength="67.2109" x="1124.3032" y="258.5332">Cloneable</text></g><!--class ChessBoard--><g id="elem_ChessBoard"><rect codeLine="48" fill="#FDF5E6" height="32" id="ChessBoard" style="stroke:#181818;stroke-width:0.5;" width="111.3721" x="1089.2227" y="363.1738"/><ellipse cx="1104.2227" cy="379.1738" fill="#ADD1B2" rx="11" ry="11" style="stroke:#181818;stroke-width:1;"/><path d="M1106.6958,385.3169 Q1106.1147,385.6157 1105.4756,385.7651 Q1104.8364,385.9146 1104.1309,385.9146 Q1101.624,385.9146 1100.3042,384.2627 Q1098.9844,382.6108 1098.9844,379.4897 Q1098.9844,376.3604 1100.3042,374.7085 Q1101.624,373.0566 1104.1309,373.0566 Q1104.8364,373.0566 1105.4839,373.2061 Q1106.1313,373.3555 1106.6958,373.6543 L1106.6958,376.377 Q1106.0649,375.7959 1105.4714,375.5261 Q1104.8779,375.2563 1104.2471,375.2563 Q1102.9023,375.2563 1102.2175,376.323 Q1101.5327,377.3896 1101.5327,379.4897 Q1101.5327,381.5815 1102.2175,382.6482 Q1102.9023,383.7148 1104.2471,383.7148 Q1104.8779,383.7148 1105.4714,383.4451 Q1106.0649,383.1753 1106.6958,382.5942 Z " fill="#000000"/><text fill="#000000" font-family="sans-serif" font-size="14" lengthAdjust="spacing" textLength="79.3721" x="1118.2227" y="384.4648">ChessBoard</text></g><!--class ChessBoardInitialzer--><g id="elem_ChessBoardInitialzer"><rect codeLine="50" fill="#FDF5E6" height="32" id="ChessBoardInitialzer" style="stroke:#181818;stroke-width:0.5;" width="170.7559" x="1387.7681" y="363.1738"/><ellipse cx="1402.7681" cy="379.1738" fill="#A9DCDF" rx="11" ry="11" style="stroke:#181818;stroke-width:1;"/><path d="M1402.6313,374.522 L1401.4775,379.5938 L1403.7935,379.5938 Z M1401.1372,372.2808 L1404.1338,372.2808 L1407.479,384.6738 L1405.0303,384.6738 L1404.2666,381.6108 L1400.9878,381.6108 L1400.2407,384.6738 L1397.792,384.6738 Z " fill="#000000"/><text fill="#000000" font-family="sans-serif" font-size="14" font-style="italic" lengthAdjust="spacing" textLength="138.7559" x="1416.7681" y="384.4648">ChessBoardInitialzer</text></g><!--class Position--><g id="elem_Position"><rect codeLine="52" fill="#FDF5E6" height="32" id="Position" style="stroke:#181818;stroke-width:0.5;" width="86.0928" x="956.1907" y="554.416"/><ellipse cx="971.1907" cy="570.416" fill="#ADD1B2" rx="11" ry="11" style="stroke:#181818;stroke-width:1;"/><path d="M973.6639,576.5591 Q973.0828,576.8579 972.4436,577.0073 Q971.8045,577.1567 971.0989,577.1567 Q968.5921,577.1567 967.2723,575.5049 Q965.9524,573.853 965.9524,570.7319 Q965.9524,567.6025 967.2723,565.9507 Q968.5921,564.2988 971.0989,564.2988 Q971.8045,564.2988 972.4519,564.4482 Q973.0994,564.5977 973.6639,564.8965 L973.6639,567.6191 Q973.033,567.0381 972.4395,566.7683 Q971.846,566.4985 971.2151,566.4985 Q969.8704,566.4985 969.1856,567.5652 Q968.5008,568.6318 968.5008,570.7319 Q968.5008,572.8237 969.1856,573.8904 Q969.8704,574.957 971.2151,574.957 Q971.846,574.957 972.4395,574.6873 Q973.033,574.4175 973.6639,573.8364 Z " fill="#000000"/><text fill="#000000" font-family="sans-serif" font-size="14" lengthAdjust="spacing" textLength="54.0928" x="985.1907" y="575.707">Position</text></g><!--class PlayerColor--><g id="elem_PlayerColor"><rect codeLine="54" fill="#F8F8FF" height="72.9766" id="PlayerColor" style="stroke:#696969;stroke-width:0.5;" width="109.0205" x="1486.7585" y="705.0371"/><ellipse cx="1501.7585" cy="721.0371" fill="#EB937F" rx="11" ry="11" style="stroke:#181818;stroke-width:1;"/><path d="M1505.3728,727.5371 L1497.6531,727.5371 L1497.6531,715.144 L1505.3728,715.144 L1505.3728,717.3022 L1500.1018,717.3022 L1500.1018,719.9751 L1504.8748,719.9751 L1504.8748,722.1333 L1500.1018,722.1333 L1500.1018,725.3789 L1505.3728,725.3789 Z " fill="#000000"/><text fill="#696969" font-family="sans-serif" font-size="14" lengthAdjust="spacing" textLength="77.0205" x="1515.7585" y="726.3281">PlayerColor</text><line style="stroke:#696969;stroke-width:0.5;" x1="1487.7585" x2="1594.7791" y1="737.0371" y2="737.0371"/><text fill="#696969" font-family="sans-serif" font-size="14" lengthAdjust="spacing" textLength="42.7383" x="1492.7585" y="754.5723">WHITE</text><text fill="#696969" font-family="sans-serif" font-size="14" lengthAdjust="spacing" textLength="44.0029" x="1492.7585" y="771.0605">BLACK</text></g><!--class PieceType--><g id="elem_PieceType"><rect codeLine="59" fill="#F8F8FF" height="138.9297" id="PieceType" style="stroke:#696969;stroke-width:0.5;" width="99.334" x="897.1363" y="705.0371"/><ellipse cx="912.1363" cy="721.0371" fill="#EB937F" rx="11" ry="11" style="stroke:#181818;stroke-width:1;"/><path d="M915.7506,727.5371 L908.0308,727.5371 L908.0308,715.144 L915.7506,715.144 L915.7506,717.3022 L910.4796,717.3022 L910.4796,719.9751 L915.2525,719.9751 L915.2525,722.1333 L910.4796,722.1333 L910.4796,725.3789 L915.7506,725.3789 Z " fill="#000000"/><text fill="#696969" font-family="sans-serif" font-size="14" lengthAdjust="spacing" textLength="67.334" x="926.1363" y="726.3281">PieceType</text><line style="stroke:#696969;stroke-width:0.5;" x1="898.1363" x2="995.4703" y1="737.0371" y2="737.0371"/><text fill="#696969" font-family="sans-serif" font-size="14" lengthAdjust="spacing" textLength="39.7168" x="903.1363" y="754.5723">PAWN</text><text fill="#696969" font-family="sans-serif" font-size="14" lengthAdjust="spacing" textLength="39.7441" x="903.1363" y="771.0605">ROOK</text><text fill="#696969" font-family="sans-serif" font-size="14" lengthAdjust="spacing" textLength="52.7734" x="903.1363" y="787.5488">KNIGHT</text><text fill="#696969" font-family="sans-serif" font-size="14" lengthAdjust="spacing" textLength="48.5283" x="903.1363" y="804.0371">BISHOP</text><text fill="#696969" font-family="sans-serif" font-size="14" lengthAdjust="spacing" textLength="46.0947" x="903.1363" y="820.5254">QUEEN</text><text fill="#696969" font-family="sans-serif" font-size="14" lengthAdjust="spacing" textLength="33.6328" x="903.1363" y="837.0137">KING</text></g><!--class ChessPiece--><g id="elem_ChessPiece"><rect codeLine="68" fill="#FDF5E6" height="32" id="ChessPiece" style="stroke:#181818;stroke-width:0.5;" width="107.0039" x="1073.5728" y="539.1055"/><ellipse cx="1088.5728" cy="555.1055" fill="#A9DCDF" rx="11" ry="11" style="stroke:#181818;stroke-width:1;"/><path d="M1088.436,550.4536 L1087.2822,555.5254 L1089.5981,555.5254 Z M1086.9419,548.2124 L1089.9385,548.2124 L1093.2837,560.6055 L1090.835,560.6055 L1090.0713,557.5425 L1086.7925,557.5425 L1086.0454,560.6055 L1083.5967,560.6055 Z " fill="#000000"/><text fill="#000000" font-family="sans-serif" font-size="14" font-style="italic" lengthAdjust="spacing" textLength="75.0039" x="1102.5728" y="560.3965">ChessPiece</text></g><!--class PromotableChessPiece--><g id="elem_PromotableChessPiece"><rect codeLine="69" fill="#FDF5E6" height="32" id="PromotableChessPiece" style="stroke:#181818;stroke-width:0.5;" width="184.3662" x="692.7701" y="770.5534"/><ellipse cx="707.7701" cy="786.5534" fill="#A9DCDF" rx="11" ry="11" style="stroke:#181818;stroke-width:1;"/><path d="M707.6334,781.9015 L706.4796,786.9733 L708.7955,786.9733 Z M706.1392,779.6603 L709.1358,779.6603 L712.481,792.0534 L710.0323,792.0534 L709.2686,788.9904 L705.9898,788.9904 L705.2427,792.0534 L702.794,792.0534 Z " fill="#000000"/><text fill="#000000" font-family="sans-serif" font-size="14" font-style="italic" lengthAdjust="spacing" textLength="152.3662" x="721.7701" y="791.8444">PromotableChessPiece</text></g><!--class Pawn--><g id="elem_Pawn"><rect codeLine="70" fill="#FDF5E6" height="32" id="Pawn" style="stroke:#181818;stroke-width:0.5;" width="66.9453" x="1016.4703" y="705.0371"/><ellipse cx="1031.4703" cy="721.0371" fill="#ADD1B2" rx="11" ry="11" style="stroke:#181818;stroke-width:1;"/><path d="M1033.9434,727.1802 Q1033.3624,727.479 1032.7232,727.6284 Q1032.0841,727.7778 1031.3785,727.7778 Q1028.8717,727.7778 1027.5518,726.126 Q1026.232,724.4741 1026.232,721.353 Q1026.232,718.2236 1027.5518,716.5718 Q1028.8717,714.9199 1031.3785,714.9199 Q1032.0841,714.9199 1032.7315,715.0693 Q1033.379,715.2188 1033.9434,715.5176 L1033.9434,718.2402 Q1033.3126,717.6592 1032.7191,717.3894 Q1032.1256,717.1196 1031.4947,717.1196 Q1030.15,717.1196 1029.4652,718.1863 Q1028.7803,719.2529 1028.7803,721.353 Q1028.7803,723.4448 1029.4652,724.5115 Q1030.15,725.5781 1031.4947,725.5781 Q1032.1256,725.5781 1032.7191,725.3083 Q1033.3126,725.0386 1033.9434,724.4575 Z " fill="#000000"/><text fill="#000000" font-family="sans-serif" font-size="14" lengthAdjust="spacing" textLength="34.9453" x="1045.4703" y="726.3281">Pawn</text></g><!--class Rook--><g id="elem_Rook"><rect codeLine="71" fill="#FDF5E6" height="32" id="Rook" style="stroke:#181818;stroke-width:0.5;" width="66.2344" x="678.8908" y="893.9668"/><ellipse cx="693.8908" cy="909.9668" fill="#ADD1B2" rx="11" ry="11" style="stroke:#181818;stroke-width:1;"/><path d="M696.3639,916.1099 Q695.7829,916.4087 695.1437,916.5581 Q694.5046,916.7075 693.799,916.7075 Q691.2922,916.7075 689.9723,915.0557 Q688.6525,913.4038 688.6525,910.2827 Q688.6525,907.1533 689.9723,905.5015 Q691.2922,903.8496 693.799,903.8496 Q694.5046,903.8496 695.152,903.999 Q695.7995,904.1484 696.3639,904.4473 L696.3639,907.1699 Q695.7331,906.5889 695.1396,906.3191 Q694.5461,906.0493 693.9152,906.0493 Q692.5705,906.0493 691.8857,907.116 Q691.2009,908.1826 691.2009,910.2827 Q691.2009,912.3745 691.8857,913.4412 Q692.5705,914.5078 693.9152,914.5078 Q694.5461,914.5078 695.1396,914.238 Q695.7331,913.9683 696.3639,913.3872 Z " fill="#000000"/><text fill="#000000" font-family="sans-serif" font-size="14" lengthAdjust="spacing" textLength="34.2344" x="707.8908" y="915.2578">Rook</text></g><!--class Knight--><g id="elem_Knight"><rect codeLine="72" fill="#FDF5E6" height="32" id="Knight" style="stroke:#181818;stroke-width:0.5;" width="76.5293" x="765.1252" y="893.9668"/><ellipse cx="780.1252" cy="909.9668" fill="#ADD1B2" rx="11" ry="11" style="stroke:#181818;stroke-width:1;"/><path d="M782.5983,916.1099 Q782.0173,916.4087 781.3781,916.5581 Q780.7389,916.7075 780.0334,916.7075 Q777.5265,916.7075 776.2067,915.0557 Q774.8869,913.4038 774.8869,910.2827 Q774.8869,907.1533 776.2067,905.5015 Q777.5265,903.8496 780.0334,903.8496 Q780.7389,903.8496 781.3864,903.999 Q782.0339,904.1484 782.5983,904.4473 L782.5983,907.1699 Q781.9675,906.5889 781.3739,906.3191 Q780.7804,906.0493 780.1496,906.0493 Q778.8049,906.0493 778.12,907.116 Q777.4352,908.1826 777.4352,910.2827 Q777.4352,912.3745 778.12,913.4412 Q778.8049,914.5078 780.1496,914.5078 Q780.7804,914.5078 781.3739,914.238 Q781.9675,913.9683 782.5983,913.3872 Z " fill="#000000"/><text fill="#000000" font-family="sans-serif" font-size="14" lengthAdjust="spacing" textLength="44.5293" x="794.1252" y="915.2578">Knight</text></g><!--class Bishop--><g id="elem_Bishop"><rect codeLine="73" fill="#FDF5E6" height="32" id="Bishop" style="stroke:#181818;stroke-width:0.5;" width="77.3359" x="861.6545" y="893.9668"/><ellipse cx="876.6545" cy="909.9668" fill="#ADD1B2" rx="11" ry="11" style="stroke:#181818;stroke-width:1;"/><path d="M879.1276,916.1099 Q878.5466,916.4087 877.9074,916.5581 Q877.2682,916.7075 876.5627,916.7075 Q874.0558,916.7075 872.736,915.0557 Q871.4162,913.4038 871.4162,910.2827 Q871.4162,907.1533 872.736,905.5015 Q874.0558,903.8496 876.5627,903.8496 Q877.2682,903.8496 877.9157,903.999 Q878.5632,904.1484 879.1276,904.4473 L879.1276,907.1699 Q878.4967,906.5889 877.9032,906.3191 Q877.3097,906.0493 876.6789,906.0493 Q875.3342,906.0493 874.6493,907.116 Q873.9645,908.1826 873.9645,910.2827 Q873.9645,912.3745 874.6493,913.4412 Q875.3342,914.5078 876.6789,914.5078 Q877.3097,914.5078 877.9032,914.238 Q878.4967,913.9683 879.1276,913.3872 Z " fill="#000000"/><text fill="#000000" font-family="sans-serif" font-size="14" lengthAdjust="spacing" textLength="45.3359" x="890.6545" y="915.2578">Bishop</text></g><!--class Queen--><g id="elem_Queen"><rect codeLine="74" fill="#FDF5E6" height="32" id="Queen" style="stroke:#181818;stroke-width:0.5;" width="75.8525" x="583.0383" y="893.9668"/><ellipse cx="598.0383" cy="909.9668" fill="#ADD1B2" rx="11" ry="11" style="stroke:#181818;stroke-width:1;"/><path d="M600.5114,916.1099 Q599.9303,916.4087 599.2912,916.5581 Q598.652,916.7075 597.9465,916.7075 Q595.4396,916.7075 594.1198,915.0557 Q592.8,913.4038 592.8,910.2827 Q592.8,907.1533 594.1198,905.5015 Q595.4396,903.8496 597.9465,903.8496 Q598.652,903.8496 599.2995,903.999 Q599.9469,904.1484 600.5114,904.4473 L600.5114,907.1699 Q599.8805,906.5889 599.287,906.3191 Q598.6935,906.0493 598.0627,906.0493 Q596.7179,906.0493 596.0331,907.116 Q595.3483,908.1826 595.3483,910.2827 Q595.3483,912.3745 596.0331,913.4412 Q596.7179,914.5078 598.0627,914.5078 Q598.6935,914.5078 599.287,914.238 Q599.8805,913.9683 600.5114,913.3872 Z " fill="#000000"/><text fill="#000000" font-family="sans-serif" font-size="14" lengthAdjust="spacing" textLength="43.8525" x="612.0383" y="915.2578">Queen</text></g><!--class King--><g id="elem_King"><rect codeLine="75" fill="#FDF5E6" height="32" id="King" style="stroke:#181818;stroke-width:0.5;" width="62.6045" x="1103.4156" y="705.0371"/><ellipse cx="1118.4156" cy="721.0371" fill="#ADD1B2" rx="11" ry="11" style="stroke:#181818;stroke-width:1;"/><path d="M1120.8887,727.1802 Q1120.3077,727.479 1119.6685,727.6284 Q1119.0294,727.7778 1118.3238,727.7778 Q1115.817,727.7778 1114.4971,726.126 Q1113.1773,724.4741 1113.1773,721.353 Q1113.1773,718.2236 1114.4971,716.5718 Q1115.817,714.9199 1118.3238,714.9199 Q1119.0294,714.9199 1119.6768,715.0693 Q1120.3243,715.2188 1120.8887,715.5176 L1120.8887,718.2402 Q1120.2579,717.6592 1119.6644,717.3894 Q1119.0709,717.1196 1118.44,717.1196 Q1117.0953,717.1196 1116.4105,718.1863 Q1115.7257,719.2529 1115.7257,721.353 Q1115.7257,723.4448 1116.4105,724.5115 Q1117.0953,725.5781 1118.44,725.5781 Q1119.0709,725.5781 1119.6644,725.3083 Q1120.2579,725.0386 1120.8887,724.4575 Z " fill="#000000"/><text fill="#000000" font-family="sans-serif" font-size="14" lengthAdjust="spacing" textLength="30.6045" x="1132.4156" y="726.3281">King</text></g><!--class MoveGenerator--><g id="elem_MoveGenerator"><rect codeLine="78" fill="#FDF5E6" height="32" id="MoveGenerator" style="stroke:#181818;stroke-width:0.5;" width="135.1338" x="1273.8161" y="762.2707"/><ellipse cx="1288.8161" cy="778.2707" fill="#A9DCDF" rx="11" ry="11" style="stroke:#181818;stroke-width:1;"/><path d="M1288.6794,773.6188 L1287.5256,778.6906 L1289.8415,778.6906 Z M1287.1852,771.3776 L1290.1818,771.3776 L1293.527,783.7707 L1291.0783,783.7707 L1290.3146,780.7077 L1287.0358,780.7077 L1286.2887,783.7707 L1283.84,783.7707 Z " fill="#000000"/><text fill="#000000" font-family="sans-serif" font-size="14" font-style="italic" lengthAdjust="spacing" textLength="103.1338" x="1302.8161" y="783.5617">MoveGenerator</text></g><!--class DirectionalGenerator--><g id="elem_DirectionalGenerator"><rect codeLine="79" fill="#FDF5E6" height="32" id="DirectionalGenerator" style="stroke:#181818;stroke-width:0.5;" width="173.0117" x="1318.0213" y="1019.8984"/><ellipse cx="1333.0213" cy="1035.8984" fill="#ADD1B2" rx="11" ry="11" style="stroke:#181818;stroke-width:1;"/><path d="M1335.4945,1042.0415 Q1334.9134,1042.3403 1334.2743,1042.4897 Q1333.6351,1042.6392 1332.9295,1042.6392 Q1330.4227,1042.6392 1329.1029,1040.9873 Q1327.783,1039.3354 1327.783,1036.2144 Q1327.783,1033.085 1329.1029,1031.4331 Q1330.4227,1029.7813 1332.9295,1029.7813 Q1333.6351,1029.7813 1334.2826,1029.9307 Q1334.93,1030.0801 1335.4945,1030.3789 L1335.4945,1033.1016 Q1334.8636,1032.5205 1334.2701,1032.2507 Q1333.6766,1031.981 1333.0457,1031.981 Q1331.701,1031.981 1331.0162,1033.0476 Q1330.3314,1034.1143 1330.3314,1036.2144 Q1330.3314,1038.3062 1331.0162,1039.3728 Q1331.701,1040.4395 1333.0457,1040.4395 Q1333.6766,1040.4395 1334.2701,1040.1697 Q1334.8636,1039.8999 1335.4945,1039.3188 Z " fill="#000000"/><text fill="#000000" font-family="sans-serif" font-size="14" lengthAdjust="spacing" textLength="141.0117" x="1347.0213" y="1041.1895">DirectionalGenerator</text></g><!--class KnightGenerator--><g id="elem_KnightGenerator"><rect codeLine="80" fill="#FDF5E6" height="32" id="KnightGenerator" style="stroke:#181818;stroke-width:0.5;" width="143.959" x="1269.4035" y="893.9668"/><ellipse cx="1284.4035" cy="909.9668" fill="#ADD1B2" rx="11" ry="11" style="stroke:#181818;stroke-width:1;"/><path d="M1286.8766,916.1099 Q1286.2956,916.4087 1285.6564,916.5581 Q1285.0173,916.7075 1284.3117,916.7075 Q1281.8049,916.7075 1280.485,915.0557 Q1279.1652,913.4038 1279.1652,910.2827 Q1279.1652,907.1533 1280.485,905.5015 Q1281.8049,903.8496 1284.3117,903.8496 Q1285.0173,903.8496 1285.6647,903.999 Q1286.3122,904.1484 1286.8766,904.4473 L1286.8766,907.1699 Q1286.2458,906.5889 1285.6523,906.3191 Q1285.0588,906.0493 1284.4279,906.0493 Q1283.0832,906.0493 1282.3984,907.116 Q1281.7135,908.1826 1281.7135,910.2827 Q1281.7135,912.3745 1282.3984,913.4412 Q1283.0832,914.5078 1284.4279,914.5078 Q1285.0588,914.5078 1285.6523,914.238 Q1286.2458,913.9683 1286.8766,913.3872 Z " fill="#000000"/><text fill="#000000" font-family="sans-serif" font-size="14" lengthAdjust="spacing" textLength="111.959" x="1298.4035" y="915.2578">KnightGenerator</text></g><!--class DistanceGenerator--><g id="elem_DistanceGenerator"><rect codeLine="81" fill="#FDF5E6" height="32" id="DistanceGenerator" style="stroke:#181818;stroke-width:0.5;" width="157.7266" x="1091.6769" y="893.9668"/><ellipse cx="1106.6769" cy="909.9668" fill="#ADD1B2" rx="11" ry="11" style="stroke:#181818;stroke-width:1;"/><path d="M1109.1501,916.1099 Q1108.569,916.4087 1107.9299,916.5581 Q1107.2907,916.7075 1106.5851,916.7075 Q1104.0783,916.7075 1102.7585,915.0557 Q1101.4386,913.4038 1101.4386,910.2827 Q1101.4386,907.1533 1102.7585,905.5015 Q1104.0783,903.8496 1106.5851,903.8496 Q1107.2907,903.8496 1107.9382,903.999 Q1108.5856,904.1484 1109.1501,904.4473 L1109.1501,907.1699 Q1108.5192,906.5889 1107.9257,906.3191 Q1107.3322,906.0493 1106.7013,906.0493 Q1105.3566,906.0493 1104.6718,907.116 Q1103.987,908.1826 1103.987,910.2827 Q1103.987,912.3745 1104.6718,913.4412 Q1105.3566,914.5078 1106.7013,914.5078 Q1107.3322,914.5078 1107.9257,914.238 Q1108.5192,913.9683 1109.1501,913.3872 Z " fill="#000000"/><text fill="#000000" font-family="sans-serif" font-size="14" lengthAdjust="spacing" textLength="125.7266" x="1120.6769" y="915.2578">DistanceGenerator</text></g><!--class PawnDistanceGenerator--><g id="elem_PawnDistanceGenerator"><rect codeLine="82" fill="#FDF5E6" height="32" id="PawnDistanceGenerator" style="stroke:#181818;stroke-width:0.5;" width="192.6719" x="1047.9165" y="1019.8984"/><ellipse cx="1062.9165" cy="1035.8984" fill="#ADD1B2" rx="11" ry="11" style="stroke:#181818;stroke-width:1;"/><path d="M1065.3896,1042.0415 Q1064.8086,1042.3403 1064.1694,1042.4897 Q1063.5303,1042.6392 1062.8247,1042.6392 Q1060.3179,1042.6392 1058.998,1040.9873 Q1057.6782,1039.3354 1057.6782,1036.2144 Q1057.6782,1033.085 1058.998,1031.4331 Q1060.3179,1029.7813 1062.8247,1029.7813 Q1063.5303,1029.7813 1064.1777,1029.9307 Q1064.8252,1030.0801 1065.3896,1030.3789 L1065.3896,1033.1016 Q1064.7588,1032.5205 1064.1653,1032.2507 Q1063.5718,1031.981 1062.9409,1031.981 Q1061.5962,1031.981 1060.9114,1033.0476 Q1060.2266,1034.1143 1060.2266,1036.2144 Q1060.2266,1038.3062 1060.9114,1039.3728 Q1061.5962,1040.4395 1062.9409,1040.4395 Q1063.5718,1040.4395 1064.1653,1040.1697 Q1064.7588,1039.8999 1065.3896,1039.3188 Z " fill="#000000"/><text fill="#000000" font-family="sans-serif" font-size="14" lengthAdjust="spacing" textLength="160.6719" x="1076.9165" y="1041.1895">PawnDistanceGenerator</text></g><!--class Direction--><g id="elem_Direction"><rect codeLine="84" fill="#FDF5E6" height="171.9063" id="Direction" style="stroke:#181818;stroke-width:0.5;" width="146.1963" x="1331.429" y="1145.8301"/><ellipse cx="1370.0057" cy="1161.8301" fill="#EB937F" rx="11" ry="11" style="stroke:#181818;stroke-width:1;"/><path d="M1373.62,1168.3301 L1365.9002,1168.3301 L1365.9002,1155.937 L1373.62,1155.937 L1373.62,1158.0952 L1368.349,1158.0952 L1368.349,1160.7681 L1373.1219,1160.7681 L1373.1219,1162.9263 L1368.349,1162.9263 L1368.349,1166.1719 L1373.62,1166.1719 Z " fill="#000000"/><text fill="#000000" font-family="sans-serif" font-size="14" lengthAdjust="spacing" textLength="61.8037" x="1389.245" y="1167.1211">Direction</text><line style="stroke:#181818;stroke-width:0.5;" x1="1332.429" x2="1476.6253" y1="1177.8301" y2="1177.8301"/><text fill="#000000" font-family="sans-serif" font-size="14" lengthAdjust="spacing" textLength="75.749" x="1337.429" y="1195.3652">FORWARDS</text><text fill="#000000" font-family="sans-serif" font-size="14" lengthAdjust="spacing" textLength="85.0527" x="1337.429" y="1211.8535">BACKWARDS</text><text fill="#000000" font-family="sans-serif" font-size="14" lengthAdjust="spacing" textLength="31.4111" x="1337.429" y="1228.3418">LEFT</text><text fill="#000000" font-family="sans-serif" font-size="14" lengthAdjust="spacing" textLength="42.1436" x="1337.429" y="1244.8301">RIGHT</text><text fill="#000000" font-family="sans-serif" font-size="14" lengthAdjust="spacing" textLength="114.1602" x="1337.429" y="1261.3184">FORWARDS_LEFT</text><text fill="#000000" font-family="sans-serif" font-size="14" lengthAdjust="spacing" textLength="124.8926" x="1337.429" y="1277.8066">FORWARDS_RIGHT</text><text fill="#000000" font-family="sans-serif" font-size="14" lengthAdjust="spacing" textLength="123.4639" x="1337.429" y="1294.2949">BACKWARDS_LEFT</text><text fill="#000000" font-family="sans-serif" font-size="14" lengthAdjust="spacing" textLength="134.1963" x="1337.429" y="1310.7832">BACKWARDS_RIGHT</text></g><!--class Moves--><g id="elem_Moves"><rect codeLine="96" fill="#FDF5E6" height="32" id="Moves" style="stroke:#181818;stroke-width:0.5;" width="74.8408" x="825.3381" y="12"/><ellipse cx="840.3381" cy="28" fill="#ADD1B2" rx="11" ry="11" style="stroke:#181818;stroke-width:1;"/><path d="M842.8112,34.1431 Q842.2301,34.4419 841.591,34.5913 Q840.9518,34.7407 840.2463,34.7407 Q837.7394,34.7407 836.4196,33.0889 Q835.0998,31.437 835.0998,28.3159 Q835.0998,25.1865 836.4196,23.5347 Q837.7394,21.8828 840.2463,21.8828 Q840.9518,21.8828 841.5993,22.0322 Q842.2467,22.1816 842.8112,22.4805 L842.8112,25.2031 Q842.1803,24.6221 841.5868,24.3523 Q840.9933,24.0825 840.3625,24.0825 Q839.0177,24.0825 838.3329,25.1492 Q837.6481,26.2158 837.6481,28.3159 Q837.6481,30.4077 838.3329,31.4744 Q839.0177,32.541 840.3625,32.541 Q840.9933,32.541 841.5868,32.2712 Q842.1803,32.0015 842.8112,31.4204 Z " fill="#000000"/><text fill="#000000" font-family="sans-serif" font-size="14" lengthAdjust="spacing" textLength="42.8408" x="854.3381" y="33.291">Moves</text></g><!--class ChessMove--><g id="elem_ChessMove"><rect codeLine="98" fill="#FDF5E6" height="32" id="ChessMove" style="stroke:#181818;stroke-width:0.5;" width="108.1523" x="305.0132" y="137.9316"/><ellipse cx="320.0132" cy="153.9316" fill="#A9DCDF" rx="11" ry="11" style="stroke:#181818;stroke-width:1;"/><path d="M319.8765,149.2798 L318.7227,154.3516 L321.0386,154.3516 Z M318.3823,147.0386 L321.3789,147.0386 L324.7241,159.4316 L322.2754,159.4316 L321.5117,156.3687 L318.2329,156.3687 L317.4858,159.4316 L315.0371,159.4316 Z " fill="#000000"/><text fill="#000000" font-family="sans-serif" font-size="14" font-style="italic" lengthAdjust="spacing" textLength="76.1523" x="334.0132" y="159.2227">ChessMove</text></g><!--class StandardMove--><g id="elem_StandardMove"><rect codeLine="100" fill="#FDF5E6" height="32" id="StandardMove" style="stroke:#181818;stroke-width:0.5;" width="127.9834" x="522.8174" y="243.0124"/><ellipse cx="537.8174" cy="259.0124" fill="#ADD1B2" rx="11" ry="11" style="stroke:#181818;stroke-width:1;"/><path d="M540.2905,265.1554 Q539.7095,265.4543 539.0703,265.6037 Q538.4312,265.7531 537.7256,265.7531 Q535.2188,265.7531 533.8989,264.1012 Q532.5791,262.4494 532.5791,259.3283 Q532.5791,256.1989 533.8989,254.547 Q535.2188,252.8952 537.7256,252.8952 Q538.4312,252.8952 539.0786,253.0446 Q539.7261,253.194 540.2905,253.4928 L540.2905,256.2155 Q539.6597,255.6344 539.0662,255.3647 Q538.4727,255.0949 537.8418,255.0949 Q536.4971,255.0949 535.8123,256.1615 Q535.1274,257.2282 535.1274,259.3283 Q535.1274,261.4201 535.8123,262.4867 Q536.4971,263.5534 537.8418,263.5534 Q538.4727,263.5534 539.0662,263.2836 Q539.6597,263.0138 540.2905,262.4328 Z " fill="#000000"/><text fill="#000000" font-family="sans-serif" font-size="14" lengthAdjust="spacing" textLength="95.9834" x="551.8174" y="264.3034">StandardMove</text></g><!--class Capture--><g id="elem_Capture"><rect codeLine="101" fill="#FDF5E6" height="32" id="Capture" style="stroke:#181818;stroke-width:0.5;" width="85.6826" x="729.4214" y="245.8975"/><ellipse cx="744.4214" cy="261.8975" fill="#ADD1B2" rx="11" ry="11" style="stroke:#181818;stroke-width:1;"/><path d="M746.8945,268.0405 Q746.3135,268.3394 745.6743,268.4888 Q745.0352,268.6382 744.3296,268.6382 Q741.8228,268.6382 740.5029,266.9863 Q739.1831,265.3345 739.1831,262.2134 Q739.1831,259.084 740.5029,257.4321 Q741.8228,255.7803 744.3296,255.7803 Q745.0352,255.7803 745.6826,255.9297 Q746.3301,256.0791 746.8945,256.3779 L746.8945,259.1006 Q746.2637,258.5195 745.6702,258.2498 Q745.0767,257.98 744.4458,257.98 Q743.1011,257.98 742.4163,259.0466 Q741.7314,260.1133 741.7314,262.2134 Q741.7314,264.3052 742.4163,265.3718 Q743.1011,266.4385 744.4458,266.4385 Q745.0767,266.4385 745.6702,266.1687 Q746.2637,265.8989 746.8945,265.3179 Z " fill="#000000"/><text fill="#000000" font-family="sans-serif" font-size="14" lengthAdjust="spacing" textLength="53.6826" x="758.4214" y="267.1885">Capture</text></g><!--class EnPassant--><g id="elem_EnPassant"><rect codeLine="102" fill="#FDF5E6" height="32" id="EnPassant" style="stroke:#181818;stroke-width:0.5;" width="99.6758" x="437.3101" y="363.1738"/><ellipse cx="452.3101" cy="379.1738" fill="#ADD1B2" rx="11" ry="11" style="stroke:#181818;stroke-width:1;"/><path d="M454.7832,385.3169 Q454.2021,385.6157 453.563,385.7651 Q452.9238,385.9146 452.2183,385.9146 Q449.7114,385.9146 448.3916,384.2627 Q447.0718,382.6108 447.0718,379.4897 Q447.0718,376.3604 448.3916,374.7085 Q449.7114,373.0566 452.2183,373.0566 Q452.9238,373.0566 453.5713,373.2061 Q454.2188,373.3555 454.7832,373.6543 L454.7832,376.377 Q454.1523,375.7959 453.5588,375.5261 Q452.9653,375.2563 452.3345,375.2563 Q450.9897,375.2563 450.3049,376.323 Q449.6201,377.3896 449.6201,379.4897 Q449.6201,381.5815 450.3049,382.6482 Q450.9897,383.7148 452.3345,383.7148 Q452.9653,383.7148 453.5588,383.4451 Q454.1523,383.1753 454.7832,382.5942 Z " fill="#000000"/><text fill="#000000" font-family="sans-serif" font-size="14" lengthAdjust="spacing" textLength="67.6758" x="466.3101" y="384.4648">EnPassant</text></g><!--class Castling--><g id="elem_Castling"><rect codeLine="103" fill="#FDF5E6" height="32" id="Castling" style="stroke:#181818;stroke-width:0.5;" width="87.3027" x="229.3397" y="243.0124"/><ellipse cx="244.3397" cy="259.0124" fill="#A9DCDF" rx="11" ry="11" style="stroke:#181818;stroke-width:1;"/><path d="M244.203,254.3605 L243.0492,259.4323 L245.3651,259.4323 Z M242.7088,252.1193 L245.7054,252.1193 L249.0506,264.5124 L246.6019,264.5124 L245.8382,261.4494 L242.5594,261.4494 L241.8123,264.5124 L239.3636,264.5124 Z " fill="#000000"/><text fill="#000000" font-family="sans-serif" font-size="14" font-style="italic" lengthAdjust="spacing" textLength="55.3027" x="258.3397" y="264.3034">Castling</text></g><!--class LongCastling--><g id="elem_LongCastling"><rect codeLine="104" fill="#FDF5E6" height="32" id="LongCastling" style="stroke:#181818;stroke-width:0.5;" width="120.7852" x="85.2085" y="363.1738"/><ellipse cx="100.2085" cy="379.1738" fill="#ADD1B2" rx="11" ry="11" style="stroke:#181818;stroke-width:1;"/><path d="M102.6816,385.3169 Q102.1006,385.6157 101.4614,385.7651 Q100.8223,385.9146 100.1167,385.9146 Q97.6099,385.9146 96.29,384.2627 Q94.9702,382.6108 94.9702,379.4897 Q94.9702,376.3604 96.29,374.7085 Q97.6099,373.0566 100.1167,373.0566 Q100.8223,373.0566 101.4697,373.2061 Q102.1172,373.3555 102.6816,373.6543 L102.6816,376.377 Q102.0508,375.7959 101.4573,375.5261 Q100.8638,375.2563 100.2329,375.2563 Q98.8882,375.2563 98.2034,376.323 Q97.5186,377.3896 97.5186,379.4897 Q97.5186,381.5815 98.2034,382.6482 Q98.8882,383.7148 100.2329,383.7148 Q100.8638,383.7148 101.4573,383.4451 Q102.0508,383.1753 102.6816,382.5942 Z " fill="#000000"/><text fill="#000000" font-family="sans-serif" font-size="14" lengthAdjust="spacing" textLength="88.7852" x="114.2085" y="384.4648">LongCastling</text></g><!--class ShortCastling--><g id="elem_ShortCastling"><rect codeLine="105" fill="#FDF5E6" height="32" id="ShortCastling" style="stroke:#181818;stroke-width:0.5;" width="123.0957" x="225.9937" y="363.1738"/><ellipse cx="240.9937" cy="379.1738" fill="#ADD1B2" rx="11" ry="11" style="stroke:#181818;stroke-width:1;"/><path d="M243.4668,385.3169 Q242.8857,385.6157 242.2466,385.7651 Q241.6074,385.9146 240.9019,385.9146 Q238.395,385.9146 237.0752,384.2627 Q235.7554,382.6108 235.7554,379.4897 Q235.7554,376.3604 237.0752,374.7085 Q238.395,373.0566 240.9019,373.0566 Q241.6074,373.0566 242.2549,373.2061 Q242.9023,373.3555 243.4668,373.6543 L243.4668,376.377 Q242.8359,375.7959 242.2424,375.5261 Q241.6489,375.2563 241.0181,375.2563 Q239.6733,375.2563 238.9885,376.323 Q238.3037,377.3896 238.3037,379.4897 Q238.3037,381.5815 238.9885,382.6482 Q239.6733,383.7148 241.0181,383.7148 Q241.6489,383.7148 242.2424,383.4451 Q242.8359,383.1753 243.4668,382.5942 Z " fill="#000000"/><text fill="#000000" font-family="sans-serif" font-size="14" lengthAdjust="spacing" textLength="91.0957" x="254.9937" y="384.4648">ShortCastling</text></g><!--class Promotion--><g id="elem_Promotion"><rect codeLine="106" fill="#FDF5E6" height="32" id="Promotion" style="stroke:#181818;stroke-width:0.5;" width="102.3076" x="556.9858" y="363.1738"/><ellipse cx="571.9858" cy="379.1738" fill="#ADD1B2" rx="11" ry="11" style="stroke:#181818;stroke-width:1;"/><path d="M574.459,385.3169 Q573.8779,385.6157 573.2388,385.7651 Q572.5996,385.9146 571.894,385.9146 Q569.3872,385.9146 568.0674,384.2627 Q566.7476,382.6108 566.7476,379.4897 Q566.7476,376.3604 568.0674,374.7085 Q569.3872,373.0566 571.894,373.0566 Q572.5996,373.0566 573.2471,373.2061 Q573.8945,373.3555 574.459,373.6543 L574.459,376.377 Q573.8281,375.7959 573.2346,375.5261 Q572.6411,375.2563 572.0103,375.2563 Q570.6655,375.2563 569.9807,376.323 Q569.2959,377.3896 569.2959,379.4897 Q569.2959,381.5815 569.9807,382.6482 Q570.6655,383.7148 572.0103,383.7148 Q572.6411,383.7148 573.2346,383.4451 Q573.8281,383.1753 574.459,382.5942 Z " fill="#000000"/><text fill="#000000" font-family="sans-serif" font-size="14" lengthAdjust="spacing" textLength="70.3076" x="585.9858" y="384.4648">Promotion</text></g><!--class PromotionWithCapture--><g id="elem_PromotionWithCapture"><rect codeLine="107" fill="#FDF5E6" height="32" id="PromotionWithCapture" style="stroke:#181818;stroke-width:0.5;" width="185.9385" x="679.2935" y="363.1738"/><ellipse cx="694.2935" cy="379.1738" fill="#ADD1B2" rx="11" ry="11" style="stroke:#181818;stroke-width:1;"/><path d="M696.7666,385.3169 Q696.1855,385.6157 695.5464,385.7651 Q694.9072,385.9146 694.2017,385.9146 Q691.6948,385.9146 690.375,384.2627 Q689.0552,382.6108 689.0552,379.4897 Q689.0552,376.3604 690.375,374.7085 Q691.6948,373.0566 694.2017,373.0566 Q694.9072,373.0566 695.5547,373.2061 Q696.2021,373.3555 696.7666,373.6543 L696.7666,376.377 Q696.1357,375.7959 695.5422,375.5261 Q694.9487,375.2563 694.3179,375.2563 Q692.9731,375.2563 692.2883,376.323 Q691.6035,377.3896 691.6035,379.4897 Q691.6035,381.5815 692.2883,382.6482 Q692.9731,383.7148 694.3179,383.7148 Q694.9487,383.7148 695.5422,383.4451 Q696.1357,383.1753 696.7666,382.5942 Z " fill="#000000"/><text fill="#000000" font-family="sans-serif" font-size="14" lengthAdjust="spacing" textLength="153.9385" x="708.2935" y="384.4648">PromotionWithCapture</text></g><line style="stroke:#181818;stroke-width:1;stroke-dasharray:7.0,7.0;" x1="1473.146" x2="1473.146" y1="169.9316" y2="237.2422"/><polygon fill="#FFFFFF" points="1473.146,169.9316,1466.146,188.9316,1480.146,188.9316,1473.146,169.9316" style="stroke:#181818;stroke-width:1;"/><line style="stroke:#181818;stroke-width:1;stroke-dasharray:7.0,7.0;" x1="967.8115" x2="967.8115" y1="269.2422" y2="335.8633"/><line style="stroke:#181818;stroke-width:1;stroke-dasharray:7.0,7.0;" x1="967.8115" x2="1117.0657" y1="335.8633" y2="335.8633"/><line style="stroke:#181818;stroke-width:1;stroke-dasharray:7.0,7.0;" x1="1117.0657" x2="1117.0657" y1="335.8633" y2="363.1738"/><polygon fill="#FFFFFF" points="967.8115,269.2422,960.8115,288.2422,974.8115,288.2422,967.8115,269.2422" style="stroke:#181818;stroke-width:1;"/><line style="stroke:#181818;stroke-width:1;stroke-dasharray:7.0,7.0;" x1="1144.9087" x2="1144.9087" y1="269.2422" y2="363.1738"/><polygon fill="#FFFFFF" points="1144.9087,269.2422,1137.9087,288.2422,1151.9087,288.2422,1144.9087,269.2422" style="stroke:#181818;stroke-width:1;"/><line style="stroke:#181818;stroke-width:1;stroke-dasharray:7.0,7.0;" x1="1120.106" x2="1120.106" y1="269.2422" y2="296.5527"/><line style="stroke:#181818;stroke-width:1;stroke-dasharray:7.0,7.0;" x1="1120.106" x2="978.8115" y1="296.5527" y2="296.5527"/><line style="stroke:#181818;stroke-width:1;stroke-dasharray:7.0,7.0;" x1="978.8115" x2="978.8115" y1="296.5527" y2="471.7949"/><line style="stroke:#181818;stroke-width:1;stroke-dasharray:7.0,7.0;" x1="978.8115" x2="1109.2407" y1="471.7949" y2="471.7949"/><line style="stroke:#181818;stroke-width:1;stroke-dasharray:7.0,7.0;" x1="1109.2407" x2="1109.2407" y1="471.7949" y2="539.1055"/><polygon fill="#FFFFFF" points="1120.106,269.2422,1113.106,288.2422,1127.106,288.2422,1120.106,269.2422" style="stroke:#181818;stroke-width:1;"/><line style="stroke:#181818;stroke-width:1;" x1="1088.859" x2="1088.859" y1="571.1055" y2="598.416"/><line style="stroke:#181818;stroke-width:1;" x1="1088.859" x2="815.6809" y1="598.416" y2="598.416"/><line style="stroke:#181818;stroke-width:1;" x1="815.6809" x2="815.6809" y1="598.416" y2="770.5534"/><polygon fill="#FFFFFF" points="1088.859,571.1055,1081.859,590.1055,1095.859,590.1055,1088.859,571.1055" style="stroke:#181818;stroke-width:1;"/><line style="stroke:#181818;stroke-width:1;stroke-dasharray:7.0,7.0;" x1="754.2255" x2="754.2255" y1="571.1055" y2="770.5534"/><polygon fill="#FFFFFF" points="754.2255,571.1055,747.2255,590.1055,761.2255,590.1055,754.2255,571.1055" style="stroke:#181818;stroke-width:1;"/><line style="stroke:#181818;stroke-width:1;" x1="1119.4316" x2="1119.4316" y1="571.1055" y2="618.416"/><line style="stroke:#181818;stroke-width:1;" x1="1119.4316" x2="1049.9429" y1="618.416" y2="618.416"/><line style="stroke:#181818;stroke-width:1;" x1="1049.9429" x2="1049.9429" y1="618.416" y2="705.0371"/><polygon fill="#FFFFFF" points="1119.4316,571.1055,1112.4316,590.1055,1126.4316,590.1055,1119.4316,571.1055" style="stroke:#181818;stroke-width:1;"/><line style="stroke:#181818;stroke-width:1;" x1="766.5166" x2="766.5166" y1="802.5534" y2="863.9668"/><line style="stroke:#181818;stroke-width:1;" x1="766.5166" x2="712.008" y1="863.9668" y2="863.9668"/><line style="stroke:#181818;stroke-width:1;" x1="712.008" x2="712.008" y1="863.9668" y2="893.9668"/><polygon fill="#FFFFFF" points="766.5166,802.5534,759.5166,821.5534,773.5166,821.5534,766.5166,802.5534" style="stroke:#181818;stroke-width:1;"/><line style="stroke:#181818;stroke-width:1;" x1="803.3898" x2="803.3898" y1="802.5534" y2="893.9668"/><polygon fill="#FFFFFF" points="803.3898,802.5534,796.3898,821.5534,810.3898,821.5534,803.3898,802.5534" style="stroke:#181818;stroke-width:1;"/><line style="stroke:#181818;stroke-width:1;" x1="840.2631" x2="840.2631" y1="802.5534" y2="853.9668"/><line style="stroke:#181818;stroke-width:1;" x1="840.2631" x2="900.3224" y1="853.9668" y2="853.9668"/><line style="stroke:#181818;stroke-width:1;" x1="900.3224" x2="900.3224" y1="853.9668" y2="893.9668"/><polygon fill="#FFFFFF" points="840.2631,802.5534,833.2631,821.5534,847.2631,821.5534,840.2631,802.5534" style="stroke:#181818;stroke-width:1;"/><line style="stroke:#181818;stroke-width:1;" x1="729.6433" x2="729.6433" y1="802.5534" y2="853.9668"/><line style="stroke:#181818;stroke-width:1;" x1="729.6433" x2="620.9645" y1="853.9668" y2="853.9668"/><line style="stroke:#181818;stroke-width:1;" x1="620.9645" x2="620.9645" y1="853.9668" y2="893.9668"/><polygon fill="#FFFFFF" points="729.6433,802.5534,722.6433,821.5534,736.6433,821.5534,729.6433,802.5534" style="stroke:#181818;stroke-width:1;"/><line style="stroke:#181818;stroke-width:1;" x1="1134.7178" x2="1134.7178" y1="571.1055" y2="705.0371"/><polygon fill="#FFFFFF" points="1134.7178,571.1055,1127.7178,590.1055,1141.7178,590.1055,1134.7178,571.1055" style="stroke:#181818;stroke-width:1;"/><line style="stroke:#181818;stroke-width:1;stroke-dasharray:7.0,7.0;" x1="1169.7114" x2="1169.7114" y1="269.2422" y2="296.5527"/><line style="stroke:#181818;stroke-width:1;stroke-dasharray:7.0,7.0;" x1="1169.7114" x2="1252.2485" y1="296.5527" y2="296.5527"/><line style="stroke:#181818;stroke-width:1;stroke-dasharray:7.0,7.0;" x1="1252.2485" x2="1252.2485" y1="296.5527" y2="471.7949"/><line style="stroke:#181818;stroke-width:1;stroke-dasharray:7.0,7.0;" x1="1252.2485" x2="1363.9053" y1="471.7949" y2="471.7949"/><line style="stroke:#181818;stroke-width:1;stroke-dasharray:7.0,7.0;" x1="1363.9053" x2="1363.9053" y1="471.7949" y2="762.2707"/><polygon fill="#FFFFFF" points="1169.7114,269.2422,1162.7114,288.2422,1176.7114,288.2422,1169.7114,269.2422" style="stroke:#181818;stroke-width:1;"/><line style="stroke:#181818;stroke-width:1;" x1="1375.1664" x2="1375.1664" y1="794.2707" y2="853.9668"/><line style="stroke:#181818;stroke-width:1;" x1="1375.1664" x2="1433.3625" y1="853.9668" y2="853.9668"/><line style="stroke:#181818;stroke-width:1;" x1="1433.3625" x2="1433.3625" y1="853.9668" y2="1019.8984"/><polygon fill="#FFFFFF" points="1375.1664,794.2707,1368.1664,813.2707,1382.1664,813.2707,1375.1664,794.2707" style="stroke:#181818;stroke-width:1;"/><line style="stroke:#181818;stroke-width:1;" x1="1341.383" x2="1341.383" y1="794.2707" y2="893.9668"/><polygon fill="#FFFFFF" points="1341.383,794.2707,1334.383,813.2707,1348.383,813.2707,1341.383,794.2707" style="stroke:#181818;stroke-width:1;"/><line style="stroke:#181818;stroke-width:1;" x1="1307.5995" x2="1307.5995" y1="794.2707" y2="853.9668"/><line style="stroke:#181818;stroke-width:1;" x1="1307.5995" x2="1170.5402" y1="853.9668" y2="853.9668"/><line style="stroke:#181818;stroke-width:1;" x1="1170.5402" x2="1170.5402" y1="853.9668" y2="893.9668"/><polygon fill="#FFFFFF" points="1307.5995,794.2707,1300.5995,813.2707,1314.5995,813.2707,1307.5995,794.2707" style="stroke:#181818;stroke-width:1;"/><line style="stroke:#181818;stroke-width:1;" x1="1144.2524" x2="1144.2524" y1="925.9668" y2="1019.8984"/><polygon fill="#FFFFFF" points="1144.2524,925.9668,1137.2524,944.9668,1151.2524,944.9668,1144.2524,925.9668" style="stroke:#181818;stroke-width:1;"/><line style="stroke:#181818;stroke-width:1;" x1="377.1147" x2="377.1147" y1="169.9316" y2="207.2422"/><line style="stroke:#181818;stroke-width:1;" x1="377.1147" x2="586.8091" y1="207.2422" y2="207.2422"/><line style="stroke:#181818;stroke-width:1;" x1="586.8091" x2="586.8091" y1="207.2422" y2="243.0124"/><polygon fill="#FFFFFF" points="377.1147,169.9316,370.1147,188.9316,384.1147,188.9316,377.1147,169.9316" style="stroke:#181818;stroke-width:1;"/><line style="stroke:#181818;stroke-width:1;" x1="395.1401" x2="395.1401" y1="169.9316" y2="197.2422"/><line style="stroke:#181818;stroke-width:1;" x1="395.1401" x2="772.2627" y1="197.2422" y2="197.2422"/><line style="stroke:#181818;stroke-width:1;" x1="772.2627" x2="772.2627" y1="197.2422" y2="245.8975"/><polygon fill="#FFFFFF" points="395.1401,169.9316,388.1401,188.9316,402.1401,188.9316,395.1401,169.9316" style="stroke:#181818;stroke-width:1;"/><line style="stroke:#181818;stroke-width:1;" x1="565.4785" x2="565.4785" y1="275.0124" y2="296.5527"/><line style="stroke:#181818;stroke-width:1;" x1="565.4785" x2="487.1479" y1="296.5527" y2="296.5527"/><line style="stroke:#181818;stroke-width:1;" x1="487.1479" x2="487.1479" y1="296.5527" y2="363.1738"/><polygon fill="#FFFFFF" points="565.4785,275.0124,558.4785,294.0124,572.4785,294.0124,565.4785,275.0124" style="stroke:#181818;stroke-width:1;"/><line style="stroke:#181818;stroke-width:1;" x1="341.064" x2="341.064" y1="169.9316" y2="207.2422"/><line style="stroke:#181818;stroke-width:1;" x1="341.064" x2="272.991" y1="207.2422" y2="207.2422"/><line style="stroke:#181818;stroke-width:1;" x1="272.991" x2="272.991" y1="207.2422" y2="243.0124"/><polygon fill="#FFFFFF" points="341.064,169.9316,334.064,188.9316,348.064,188.9316,341.064,169.9316" style="stroke:#181818;stroke-width:1;"/><line style="stroke:#181818;stroke-width:1;" x1="258.4406" x2="258.4406" y1="275.0124" y2="296.5527"/><line style="stroke:#181818;stroke-width:1;" x1="258.4406" x2="145.6011" y1="296.5527" y2="296.5527"/><line style="stroke:#181818;stroke-width:1;" x1="145.6011" x2="145.6011" y1="296.5527" y2="363.1738"/><polygon fill="#FFFFFF" points="258.4406,275.0124,251.4406,294.0124,265.4406,294.0124,258.4406,275.0124" style="stroke:#181818;stroke-width:1;"/><line style="stroke:#181818;stroke-width:1;" x1="287.5415" x2="287.5415" y1="275.0124" y2="363.1738"/><polygon fill="#FFFFFF" points="287.5415,275.0124,280.5415,294.0124,294.5415,294.0124,287.5415,275.0124" style="stroke:#181818;stroke-width:1;"/><line style="stroke:#181818;stroke-width:1;" x1="608.1396" x2="608.1396" y1="275.0124" y2="363.1738"/><polygon fill="#FFFFFF" points="608.1396,275.0124,601.1396,294.0124,615.1396,294.0124,608.1396,275.0124" style="stroke:#181818;stroke-width:1;"/><line style="stroke:#181818;stroke-width:1;" x1="772.2627" x2="772.2627" y1="277.8975" y2="363.1738"/><polygon fill="#FFFFFF" points="772.2627,277.8975,765.2627,296.8975,779.2627,296.8975,772.2627,277.8975" style="stroke:#181818;stroke-width:1;"/><line style="stroke:#181818;stroke-width:1;" x1="1426.2762" x2="1426.2762" y1="169.9316" y2="197.2422"/><line style="stroke:#181818;stroke-width:1;" x1="1426.2762" x2="1319.1602" y1="197.2422" y2="197.2422"/><line style="stroke:#181818;stroke-width:1;" x1="1319.1602" x2="1319.1602" y1="197.2422" y2="554.416"/><polygon fill="#181818" points="1319.1602,554.416,1323.1602,545.416,1319.1602,549.416,1315.1602,545.416,1319.1602,554.416" style="stroke:#181818;stroke-width:1;"/><text fill="#000000" font-family="sans-serif" font-size="13" lengthAdjust="spacing" textLength="49.9116" x="1265.2485" y="321.1211">manage</text><text fill="#000000" font-family="sans-serif" font-size="13" lengthAdjust="spacing" textLength="8.2202" x="1429.2762" y="184.5">1</text><text fill="#000000" font-family="sans-serif" font-size="13" lengthAdjust="spacing" textLength="8.2202" x="1322.1602" y="549.6738">1</text><line style="stroke:#181818;stroke-width:1;" x1="1443.6487" x2="1443.6487" y1="269.2422" y2="296.5527"/><line style="stroke:#181818;stroke-width:1;" x1="1443.6487" x2="1368.0342" y1="296.5527" y2="296.5527"/><line style="stroke:#181818;stroke-width:1;" x1="1368.0342" x2="1368.0342" y1="296.5527" y2="335.8633"/><line style="stroke:#181818;stroke-width:1;" x1="1368.0342" x2="1172.7517" y1="335.8633" y2="335.8633"/><line style="stroke:#181818;stroke-width:1;" x1="1172.7517" x2="1172.7517" y1="335.8633" y2="363.1738"/><polygon fill="#181818" points="1172.7517,363.1738,1176.7517,354.1738,1172.7517,358.1738,1168.7517,354.1738,1172.7517,363.1738" style="stroke:#181818;stroke-width:1;"/><text fill="#000000" font-family="sans-serif" font-size="13" lengthAdjust="spacing" textLength="21.874" x="1342.1602" y="321.1211">has</text><text fill="#000000" font-family="sans-serif" font-size="13" lengthAdjust="spacing" textLength="8.2202" x="1446.6487" y="283.8105">1</text><text fill="#000000" font-family="sans-serif" font-size="13" lengthAdjust="spacing" textLength="8.2202" x="1175.7517" y="358.4316">1</text><line style="stroke:#181818;stroke-width:1;" x1="1502.6433" x2="1502.6433" y1="269.2422" y2="296.5527"/><line style="stroke:#181818;stroke-width:1;" x1="1502.6433" x2="1568.5239" y1="296.5527" y2="296.5527"/><line style="stroke:#181818;stroke-width:1;" x1="1568.5239" x2="1568.5239" y1="296.5527" y2="705.0371"/><polygon fill="#181818" points="1568.5239,705.0371,1572.5239,696.0371,1568.5239,700.0371,1564.5239,696.0371,1568.5239,705.0371" style="stroke:#181818;stroke-width:1;"/><text fill="#000000" font-family="sans-serif" font-size="13" lengthAdjust="spacing" textLength="21.874" x="1542.6499" y="457.0527">has</text><text fill="#000000" font-family="sans-serif" font-size="13" lengthAdjust="spacing" textLength="8.2202" x="1505.6433" y="283.8105">1</text><text fill="#000000" font-family="sans-serif" font-size="13" lengthAdjust="spacing" textLength="8.2202" x="1571.5239" y="700.2949">1</text><line style="stroke:#181818;stroke-width:1;" x1="1473.146" x2="1473.146" y1="269.2422" y2="363.1738"/><polygon fill="#181818" points="1473.146,363.1738,1477.146,354.1738,1473.146,358.1738,1469.146,354.1738,1473.146,363.1738" style="stroke:#181818;stroke-width:1;"/><text fill="#000000" font-family="sans-serif" font-size="13" lengthAdjust="spacing" textLength="88.1118" x="1381.0342" y="321.1211">uses statically</text><line style="stroke:#181818;stroke-width:1;" x1="1163.4707" x2="1163.4707" y1="395.1738" y2="432.4844"/><line style="stroke:#181818;stroke-width:1;" x1="1163.4707" x2="1217.6699" y1="432.4844" y2="432.4844"/><line style="stroke:#181818;stroke-width:1;" x1="1217.6699" x2="1217.6699" y1="432.4844" y2="481.7949"/><line style="stroke:#181818;stroke-width:1;" x1="1217.6699" x2="1284.415" y1="481.7949" y2="481.7949"/><line style="stroke:#181818;stroke-width:1;" x1="1284.415" x2="1284.415" y1="481.7949" y2="554.416"/><polygon fill="#181818" points="1284.415,554.416,1288.415,545.416,1284.415,549.416,1280.415,545.416,1284.415,554.416" style="stroke:#181818;stroke-width:1;"/><text fill="#000000" font-family="sans-serif" font-size="13" lengthAdjust="spacing" textLength="21.874" x="1191.7959" y="457.0527">has</text><text fill="#000000" font-family="sans-serif" font-size="13" lengthAdjust="spacing" textLength="8.2202" x="1166.4707" y="409.7422">1</text><text fill="#000000" font-family="sans-serif" font-size="13" lengthAdjust="spacing" textLength="8.2202" x="1287.415" y="549.6738">1</text><line style="stroke:#181818;stroke-width:1;" x1="1144.9087" x2="1144.9087" y1="395.1738" y2="539.1055"/><polygon fill="#181818" points="1144.9087,539.1055,1148.9087,530.1055,1144.9087,534.1055,1140.9087,530.1055,1144.9087,539.1055" style="stroke:#181818;stroke-width:1;"/><text fill="#000000" font-family="sans-serif" font-size="13" lengthAdjust="spacing" textLength="21.874" x="1119.0347" y="457.0527">has</text><text fill="#000000" font-family="sans-serif" font-size="13" lengthAdjust="spacing" textLength="8.2202" x="1147.9087" y="409.7422">1</text><text fill="#000000" font-family="sans-serif" font-size="13" lengthAdjust="spacing" textLength="32.8872" x="1147.9087" y="534.3633">2..32</text><line style="stroke:#181818;stroke-width:1;" x1="1107.7847" x2="1107.7847" y1="395.1738" y2="422.4844"/><line style="stroke:#181818;stroke-width:1;" x1="1107.7847" x2="1017.6855" y1="422.4844" y2="422.4844"/><line style="stroke:#181818;stroke-width:1;" x1="1017.6855" x2="1017.6855" y1="422.4844" y2="554.416"/><polygon fill="#181818" points="1017.6855,554.416,1021.6855,545.416,1017.6855,549.416,1013.6855,545.416,1017.6855,554.416" style="stroke:#181818;stroke-width:1;"/><text fill="#000000" font-family="sans-serif" font-size="13" lengthAdjust="spacing" textLength="21.874" x="991.8115" y="457.0527">has</text><text fill="#000000" font-family="sans-serif" font-size="13" lengthAdjust="spacing" textLength="8.2202" x="1110.7847" y="409.7422">1</text><text fill="#000000" font-family="sans-serif" font-size="13" lengthAdjust="spacing" textLength="32.8872" x="1020.6855" y="549.6738">2..32</text><line style="stroke:#181818;stroke-width:1;" x1="1182.0327" x2="1182.0327" y1="395.1738" y2="422.4844"/><line style="stroke:#181818;stroke-width:1;" x1="1182.0327" x2="1228.6699" y1="422.4844" y2="422.4844"/><line style="stroke:#181818;stroke-width:1;" x1="1228.6699" x2="1228.6699" y1="422.4844" y2="657.7266"/><line style="stroke:#181818;stroke-width:1;" x1="1228.6699" x2="1541.2688" y1="657.7266" y2="657.7266"/><line style="stroke:#181818;stroke-width:1;" x1="1541.2688" x2="1541.2688" y1="657.7266" y2="705.0371"/><polygon fill="#181818" points="1541.2688,705.0371,1545.2688,696.0371,1541.2688,700.0371,1537.2688,696.0371,1541.2688,705.0371" style="stroke:#181818;stroke-width:1;"/><text fill="#000000" font-family="sans-serif" font-size="13" lengthAdjust="spacing" textLength="21.874" x="1202.7959" y="560.0186">has</text><text fill="#000000" font-family="sans-serif" font-size="13" lengthAdjust="spacing" textLength="8.2202" x="1185.0327" y="409.7422">1</text><text fill="#000000" font-family="sans-serif" font-size="13" lengthAdjust="spacing" textLength="8.2202" x="1544.2688" y="700.2949">2</text><line style="stroke:#181818;stroke-width:1;" x1="1126.3467" x2="1126.3467" y1="395.1738" y2="432.4844"/><line style="stroke:#181818;stroke-width:1;" x1="1126.3467" x2="1029.9845" y1="432.4844" y2="432.4844"/><line style="stroke:#181818;stroke-width:1;" x1="1029.9845" x2="1029.9845" y1="432.4844" y2="554.416"/><polygon fill="#181818" points="1029.9845,554.416,1033.9845,545.416,1029.9845,549.416,1025.9845,545.416,1029.9845,554.416" style="stroke:#181818;stroke-width:1;"/><text fill="#000000" font-family="sans-serif" font-size="13" lengthAdjust="spacing" textLength="21.874" x="1034.9845" y="457.0527">has</text><text fill="#000000" font-family="sans-serif" font-size="13" lengthAdjust="spacing" textLength="8.2202" x="1129.3467" y="409.7422">1</text><text fill="#000000" font-family="sans-serif" font-size="13" lengthAdjust="spacing" textLength="8.2202" x="1032.9845" y="534.3633">2</text><line style="stroke:#181818;stroke-width:1;" x1="1104.1453" x2="1104.1453" y1="571.1055" y2="608.416"/><line style="stroke:#181818;stroke-width:1;" x1="1104.1453" x2="946.8033" y1="608.416" y2="608.416"/><line style="stroke:#181818;stroke-width:1;" x1="946.8033" x2="946.8033" y1="608.416" y2="705.0371"/><polygon fill="#181818" points="946.8033,705.0371,950.8033,696.0371,946.8033,700.0371,942.8033,696.0371,946.8033,705.0371" style="stroke:#181818;stroke-width:1;"/><text fill="#000000" font-family="sans-serif" font-size="13" lengthAdjust="spacing" textLength="21.874" x="920.9293" y="642.9844">has</text><text fill="#000000" font-family="sans-serif" font-size="13" lengthAdjust="spacing" textLength="8.2202" x="1107.1453" y="585.6738">1</text><text fill="#000000" font-family="sans-serif" font-size="13" lengthAdjust="spacing" textLength="8.2202" x="949.8033" y="700.2949">1</text><line style="stroke:#181818;stroke-width:1;" x1="1165.2904" x2="1165.2904" y1="571.1055" y2="598.416"/><line style="stroke:#181818;stroke-width:1;" x1="1165.2904" x2="1217.6699" y1="598.416" y2="598.416"/><line style="stroke:#181818;stroke-width:1;" x1="1217.6699" x2="1217.6699" y1="598.416" y2="667.7266"/><line style="stroke:#181818;stroke-width:1;" x1="1217.6699" x2="1514.0137" y1="667.7266" y2="667.7266"/><line style="stroke:#181818;stroke-width:1;" x1="1514.0137" x2="1514.0137" y1="667.7266" y2="705.0371"/><polygon fill="#181818" points="1514.0137,705.0371,1518.0137,696.0371,1514.0137,700.0371,1510.0137,696.0371,1514.0137,705.0371" style="stroke:#181818;stroke-width:1;"/><text fill="#000000" font-family="sans-serif" font-size="13" lengthAdjust="spacing" textLength="21.874" x="1191.7959" y="642.9844">has</text><text fill="#000000" font-family="sans-serif" font-size="13" lengthAdjust="spacing" textLength="8.2202" x="1168.2904" y="585.6738">1</text><text fill="#000000" font-family="sans-serif" font-size="13" lengthAdjust="spacing" textLength="8.2202" x="1517.0137" y="700.2949">1</text><line style="stroke:#181818;stroke-width:1;" x1="1150.0041" x2="1150.0041" y1="571.1055" y2="608.416"/><line style="stroke:#181818;stroke-width:1;" x1="1150.0041" x2="1178.7959" y1="608.416" y2="608.416"/><line style="stroke:#181818;stroke-width:1;" x1="1178.7959" x2="1178.7959" y1="608.416" y2="677.7266"/><line style="stroke:#181818;stroke-width:1;" x1="1178.7959" x2="1318.8607" y1="677.7266" y2="677.7266"/><line style="stroke:#181818;stroke-width:1;" x1="1318.8607" x2="1318.8607" y1="677.7266" y2="762.2707"/><polygon fill="#181818" points="1318.8607,762.2707,1322.8607,753.2707,1318.8607,757.2707,1314.8607,753.2707,1318.8607,762.2707" style="stroke:#181818;stroke-width:1;"/><text fill="#000000" font-family="sans-serif" font-size="13" lengthAdjust="spacing" textLength="21.874" x="1152.9219" y="642.9844">has</text><text fill="#000000" font-family="sans-serif" font-size="13" lengthAdjust="spacing" textLength="8.2202" x="1153.0041" y="585.6738">1</text><text fill="#000000" font-family="sans-serif" font-size="13" lengthAdjust="spacing" textLength="22.7119" x="1321.8607" y="757.5285">1..*</text><line style="stroke:#181818;stroke-width:1;" x1="1404.5272" x2="1404.5272" y1="1051.8984" y2="1145.8301"/><polygon fill="#181818" points="1404.5272,1145.8301,1408.5272,1136.8301,1404.5272,1140.8301,1400.5272,1136.8301,1404.5272,1145.8301" style="stroke:#181818;stroke-width:1;"/><text fill="#000000" font-family="sans-serif" font-size="13" lengthAdjust="spacing" textLength="21.874" x="1378.6532" y="1103.7773">has</text><text fill="#000000" font-family="sans-serif" font-size="13" lengthAdjust="spacing" textLength="6.2651" x="1407.5272" y="1066.4668">*</text><text fill="#000000" font-family="sans-serif" font-size="13" lengthAdjust="spacing" textLength="22.7119" x="1407.5272" y="1141.0879">1..*</text><line style="stroke:#181818;stroke-width:1;" x1="1196.828" x2="1196.828" y1="925.9668" y2="992.5879"/><line style="stroke:#181818;stroke-width:1;" x1="1196.828" x2="1375.6919" y1="992.5879" y2="992.5879"/><line style="stroke:#181818;stroke-width:1;" x1="1375.6919" x2="1375.6919" y1="992.5879" y2="1019.8984"/><polygon fill="#181818" points="1375.6919,1019.8984,1379.6919,1010.8984,1375.6919,1014.8984,1371.6919,1010.8984,1375.6919,1019.8984" style="stroke:#181818;stroke-width:1;"/><text fill="#000000" font-family="sans-serif" font-size="13" lengthAdjust="spacing" textLength="21.874" x="1170.9539" y="977.8457">has</text><text fill="#000000" font-family="sans-serif" font-size="13" lengthAdjust="spacing" textLength="8.2202" x="1199.828" y="940.5352">1</text><text fill="#000000" font-family="sans-serif" font-size="13" lengthAdjust="spacing" textLength="22.7119" x="1378.6919" y="1015.1563">1..*</text><line style="stroke:#181818;stroke-width:1;" x1="323.0386" x2="323.0386" y1="169.9316" y2="197.2422"/><line style="stroke:#181818;stroke-width:1;" x1="323.0386" x2="74.2085" y1="197.2422" y2="197.2422"/><line style="stroke:#181818;stroke-width:1;" x1="74.2085" x2="74.2085" y1="197.2422" y2="511.7949"/><line style="stroke:#181818;stroke-width:1;" x1="74.2085" x2="968.4897" y1="511.7949" y2="511.7949"/><line style="stroke:#181818;stroke-width:1;" x1="968.4897" x2="968.4897" y1="511.7949" y2="554.416"/><polygon fill="#181818" points="968.4897,554.416,972.4897,545.416,968.4897,549.416,964.4897,545.416,968.4897,554.416" style="stroke:#181818;stroke-width:1;"/><text fill="#000000" font-family="sans-serif" font-size="13" lengthAdjust="spacing" textLength="56.2085" x="14" y="321.1211">has from</text><text fill="#000000" font-family="sans-serif" font-size="13" lengthAdjust="spacing" textLength="8.2202" x="326.0386" y="184.5">1</text><text fill="#000000" font-family="sans-serif" font-size="13" lengthAdjust="spacing" textLength="8.2202" x="971.4897" y="549.6738">1</text><line style="stroke:#181818;stroke-width:1;" x1="359.0894" x2="359.0894" y1="169.9316" y2="501.7949"/><line style="stroke:#181818;stroke-width:1;" x1="359.0894" x2="980.7886" y1="501.7949" y2="501.7949"/><line style="stroke:#181818;stroke-width:1;" x1="980.7886" x2="980.7886" y1="501.7949" y2="554.416"/><polygon fill="#181818" points="980.7886,554.416,984.7886,545.416,980.7886,549.416,976.7886,545.416,980.7886,554.416" style="stroke:#181818;stroke-width:1;"/><text fill="#000000" font-family="sans-serif" font-size="13" lengthAdjust="spacing" textLength="38.835" x="316.2544" y="321.1211">has to</text><text fill="#000000" font-family="sans-serif" font-size="13" lengthAdjust="spacing" textLength="8.2202" x="362.0894" y="184.5">1</text><text fill="#000000" font-family="sans-serif" font-size="13" lengthAdjust="spacing" textLength="8.2202" x="983.7886" y="549.6738">1</text><line style="stroke:#181818;stroke-width:1;" x1="875.2319" x2="875.2319" y1="44" y2="481.7949"/><line style="stroke:#181818;stroke-width:1;" x1="875.2319" x2="1005.3866" y1="481.7949" y2="481.7949"/><line style="stroke:#181818;stroke-width:1;" x1="1005.3866" x2="1005.3866" y1="481.7949" y2="554.416"/><polygon fill="#181818" points="1005.3866,554.416,1009.3866,545.416,1005.3866,549.416,1001.3866,545.416,1005.3866,554.416" style="stroke:#181818;stroke-width:1;"/><text fill="#000000" font-family="sans-serif" font-size="13" lengthAdjust="spacing" textLength="21.874" x="849.3579" y="266.8105">has</text><text fill="#000000" font-family="sans-serif" font-size="13" lengthAdjust="spacing" textLength="8.2202" x="878.2319" y="58.5684">1</text><text fill="#000000" font-family="sans-serif" font-size="13" lengthAdjust="spacing" textLength="6.2651" x="1008.3866" y="549.6738">*</text><line style="stroke:#181818;stroke-width:1;" x1="850.285" x2="850.285" y1="44" y2="71.3105"/><line style="stroke:#181818;stroke-width:1;" x1="850.285" x2="359.0894" y1="71.3105" y2="71.3105"/><line style="stroke:#181818;stroke-width:1;" x1="359.0894" x2="359.0894" y1="71.3105" y2="137.9316"/><polygon fill="#181818" points="359.0894,137.9316,363.0894,128.9316,359.0894,132.9316,355.0894,128.9316,359.0894,137.9316" style="stroke:#181818;stroke-width:1;"/><text fill="#000000" font-family="sans-serif" font-size="13" lengthAdjust="spacing" textLength="21.874" x="333.2153" y="95.8789">has</text><text fill="#000000" font-family="sans-serif" font-size="13" lengthAdjust="spacing" textLength="8.2202" x="853.285" y="58.5684">1</text><text fill="#000000" font-family="sans-serif" font-size="13" lengthAdjust="spacing" textLength="6.2651" x="362.0894" y="133.1895">*</text><line style="stroke:#181818;stroke-width:1;" x1="487.1479" x2="487.1479" y1="395.1738" y2="491.7949"/><line style="stroke:#181818;stroke-width:1;" x1="487.1479" x2="993.0876" y1="491.7949" y2="491.7949"/><line style="stroke:#181818;stroke-width:1;" x1="993.0876" x2="993.0876" y1="491.7949" y2="554.416"/><polygon fill="#181818" points="993.0876,554.416,997.0876,545.416,993.0876,549.416,989.0876,545.416,993.0876,554.416" style="stroke:#181818;stroke-width:1;"/><text fill="#000000" font-family="sans-serif" font-size="13" lengthAdjust="spacing" textLength="111.0586" x="372.0894" y="457.0527">has capture pawn</text><text fill="#000000" font-family="sans-serif" font-size="13" lengthAdjust="spacing" textLength="8.2202" x="490.1479" y="409.7422">1</text><text fill="#000000" font-family="sans-serif" font-size="13" lengthAdjust="spacing" textLength="8.2202" x="996.0876" y="549.6738">1</text><!--SRC=[bPRVRziW4CVV_LUmxA5IjMRTzbPLaPeVJQDaJPgqo-D4x6kCYi42iYwj-hyFZ6sCxRIP7n8Cd-yT7CVXJwd0smGZYlTyfn3Gfo0c4I18KhL72QYOHxBQXPKIPBDJ80FvH5YA1KuG9GpKFWN4XHPK1WJViMZ01GE1pYlz8SLINXMc9Y5dA_827Z8mI1-7JzlS2EK2VPxJQ8P3g72tNC4Hs2h64NycR8iUCPKGA9uYnT66AyKJ5141eIAS1S6bL7iAlG3f9vlcaE2jiV2QTPcdcmh-HuSaglIPfpwDSSobMiT4WOVDTBGiC2J9MC3U6xtcJBMFlWNsz_9hFaMxBvUNnNHwFIGL2E1cBuA0CFtogCE01Z58ET261QSKXATuVQkI3nB48EOaX0PqWXpM6GhyZ3SKbY3vJcXwrElu2is_DURmYy1pYs6yaKhWKDc0equVIyZGkbMIf1GIO4ewUuMharmzVfWqtC1V1IogMQuBTO0af_1_ubng9ZDYMxspZJcwkDTYdOtsEHQHNOO_I3a34-56k2eUCt73OMdoYxEIAMjXTl244KKmVScdQ8SNN19p9B8kOBi4BNILqEbXahEsroOnrpUJ-r7Mwi-k1jEWL148uLvdP8jcSRM-pHhB-NoQDQQta_7DlJKpMTtC5rdpxc4qik1qSZiE3gmby-I5exhycc8XUCAL6QneYwrkD-SEXx6Ncy7Fh4rM0alEdqgWrMc9JXdPnkf8k4zah6lOSV3T3e0TEmjJ9DjNr0ZxJ_u7ng2hErQwO1sAl6M7HOt5r4aAFxwXMaIEneT4Ain2E5fWTk-mg3bI7eLoCNaYNy-NwwlbS6KJLwU_UvkDhcq-BylCBkZVvLZPuw3IYgDSbyNCZhYDa0SFkHcjdEoLNbMaZttMxUrq0UPQdAgTU1SPiON-mynbhMUyUUm6M2hQo33Vw8opRPChEafi5UlFZICuc-vchmxDiSQjYOeRQy_VJHJhPRtphOFEpdhPlxkMBb226Tu2wkcRmhyx6eAAiGiKOaet-bEYJNZUxPxcMjjilOcr4QdJrRWEgbTJmw-zG2vGZALc3w6Lkj_A6gxrChb0EwdJKfyYHSogzeNG-ZqKjug76lYzs_tnlLEjIaVGvKNsBllECblGLfDsHbxaYhllG_2GxpgQRRfVpGe-QAsmdLDFwWfN8MjMkPgtLhEbKtT-lVNu0NhKHwjOqKUi_Yhl1RQUbTHfIyYRY3DVCAuylUCmp8zsQgxoNl0F]--></g></svg>