<svg xmlns="http://www.w3.org/2000/svg" xmlns:xlink="http://www.w3.org/1999/xlink" contentStyleType="text/css" height="1330px" preserveAspectRatio="none" style="width:1674px;height:1330px;background:#FFFFFF;" version="1.1" viewBox="0 0 1674 1330" width="1674px" zoomAndPan="magnify"><defs/><g><!--class ChessController--><g id="elem_ChessController"><rect codeLine="24" fill="#F8F8FF" height="32" id="ChessController" style="stroke:#696969;stroke-width:0.5;" width="140.6094" x="1181.3677" y="137.9316"/><ellipse cx="1196.3677" cy="153.9316" fill="#B4A7E5" rx="11" ry="11" style="stroke:#181818;stroke-width:1;"/><path d="M1192.7955,150.1968 L1192.7955,148.0386 L1200.1749,148.0386 L1200.1749,150.1968 L1197.7095,150.1968 L1197.7095,158.2734 L1200.1749,158.2734 L1200.1749,160.4316 L1192.7955,160.4316 L1192.7955,158.2734 L1195.2608,158.2734 L1195.2608,150.1968 Z " fill="#000000"/><text fill="#696969" font-family="sans-serif" font-size="14" font-style="italic" lengthAdjust="spacing" textLength="108.6094" x="1210.3677" y="159.2227">ChessController</text></g><!--class UserChoice--><g id="elem_UserChoice"><rect codeLine="26" fill="#F8F8FF" height="32" id="UserChoice" style="stroke:#696969;stroke-width:0.5;" width="108.3574" x="1400.1796" y="565.0371"/><ellipse cx="1415.1796" cy="581.0371" fill="#B4A7E5" rx="11" ry="11" style="stroke:#181818;stroke-width:1;"/><path d="M1411.6073,577.3022 L1411.6073,575.144 L1418.9867,575.144 L1418.9867,577.3022 L1416.5214,577.3022 L1416.5214,585.3789 L1418.9867,585.3789 L1418.9867,587.5371 L1411.6073,587.5371 L1411.6073,585.3789 L1414.0727,585.3789 L1414.0727,577.3022 Z " fill="#000000"/><text fill="#696969" font-family="sans-serif" font-size="14" font-style="italic" lengthAdjust="spacing" textLength="76.3574" x="1429.1796" y="586.3281">UserChoice</text></g><!--class ChessView--><g id="elem_ChessView"><rect codeLine="31" fill="#F8F8FF" height="32" id="ChessView" style="stroke:#696969;stroke-width:0.5;" width="104.2354" x="1126.0609" y="565.0371"/><ellipse cx="1141.0609" cy="581.0371" fill="#B4A7E5" rx="11" ry="11" style="stroke:#181818;stroke-width:1;"/><path d="M1137.4887,577.3022 L1137.4887,575.144 L1144.8681,575.144 L1144.8681,577.3022 L1142.4027,577.3022 L1142.4027,585.3789 L1144.8681,585.3789 L1144.8681,587.5371 L1137.4887,587.5371 L1137.4887,585.3789 L1139.954,585.3789 L1139.954,577.3022 Z " fill="#000000"/><text fill="#696969" font-family="sans-serif" font-size="14" font-style="italic" lengthAdjust="spacing" textLength="72.2354" x="1155.0609" y="586.3281">ChessView</text></g><!--class ChessEngine--><g id="elem_ChessEngine"><rect codeLine="42" fill="#FDF5E6" height="32" id="ChessEngine" style="stroke:#181818;stroke-width:0.5;" width="117.9893" x="1216.1127" y="237.2422"/><ellipse cx="1231.1127" cy="253.2422" fill="#ADD1B2" rx="11" ry="11" style="stroke:#181818;stroke-width:1;"/><path d="M1233.5858,259.3853 Q1233.0048,259.6841 1232.3656,259.8335 Q1231.7265,259.9829 1231.0209,259.9829 Q1228.5141,259.9829 1227.1942,258.3311 Q1225.8744,256.6792 1225.8744,253.5581 Q1225.8744,250.4287 1227.1942,248.7769 Q1228.5141,247.125 1231.0209,247.125 Q1231.7265,247.125 1232.3739,247.2744 Q1233.0214,247.4238 1233.5858,247.7227 L1233.5858,250.4453 Q1232.955,249.8643 1232.3615,249.5945 Q1231.768,249.3247 1231.1371,249.3247 Q1229.7924,249.3247 1229.1076,250.3914 Q1228.4227,251.458 1228.4227,253.5581 Q1228.4227,255.6499 1229.1076,256.7166 Q1229.7924,257.7832 1231.1371,257.7832 Q1231.768,257.7832 1232.3615,257.5134 Q1232.955,257.2437 1233.5858,256.6626 Z " fill="#000000"/><text fill="#000000" font-family="sans-serif" font-size="14" lengthAdjust="spacing" textLength="85.9893" x="1245.1127" y="258.5332">ChessEngine</text></g><!--class ChessBoardView--><g id="elem_ChessBoardView"><rect codeLine="44" fill="#FDF5E6" height="32" id="ChessBoardView" style="stroke:#181818;stroke-width:0.5;" width="143.1592" x="941.8917" y="237.2422"/><ellipse cx="956.8917" cy="253.2422" fill="#B4A7E5" rx="11" ry="11" style="stroke:#181818;stroke-width:1;"/><path d="M953.3195,249.5073 L953.3195,247.3491 L960.6989,247.3491 L960.6989,249.5073 L958.2335,249.5073 L958.2335,257.584 L960.6989,257.584 L960.6989,259.7422 L953.3195,259.7422 L953.3195,257.584 L955.7848,257.584 L955.7848,249.5073 Z " fill="#000000"/><text fill="#000000" font-family="sans-serif" font-size="14" font-style="italic" lengthAdjust="spacing" textLength="111.1592" x="970.8917" y="258.5332">ChessBoardView</text></g><!--class Cloneable--><g id="elem_Cloneable"><rect codeLine="46" fill="#F8F8FF" height="32" id="Cloneable" style="stroke:#696969;stroke-width:0.5;" width="99.2109" x="822.6808" y="237.2422"/><ellipse cx="837.6808" cy="253.2422" fill="#B4A7E5" rx="11" ry="11" style="stroke:#181818;stroke-width:1;"/><path d="M834.1085,249.5073 L834.1085,247.3491 L841.4879,247.3491 L841.4879,249.5073 L839.0226,249.5073 L839.0226,257.584 L841.4879,257.584 L841.4879,259.7422 L834.1085,259.7422 L834.1085,257.584 L836.5739,257.584 L836.5739,249.5073 Z " fill="#000000"/><text fill="#696969" font-family="sans-serif" font-size="14" font-style="italic" lengthAdjust="spacing" textLength="67.2109" x="851.6808" y="258.5332">Cloneable</text></g><!--class ChessBoard--><g id="elem_ChessBoard"><rect codeLine="48" fill="#FDF5E6" height="32" id="ChessBoard" style="stroke:#181818;stroke-width:0.5;" width="111.3721" x="1014.4877" y="419.1055"/><ellipse cx="1029.4877" cy="435.1055" fill="#ADD1B2" rx="11" ry="11" style="stroke:#181818;stroke-width:1;"/><path d="M1031.9608,441.2485 Q1031.3798,441.5474 1030.7406,441.6968 Q1030.1015,441.8462 1029.3959,441.8462 Q1026.8891,441.8462 1025.5692,440.1943 Q1024.2494,438.5425 1024.2494,435.4214 Q1024.2494,432.292 1025.5692,430.6401 Q1026.8891,428.9883 1029.3959,428.9883 Q1030.1015,428.9883 1030.7489,429.1377 Q1031.3964,429.2871 1031.9608,429.5859 L1031.9608,432.3086 Q1031.33,431.7275 1030.7365,431.4578 Q1030.143,431.188 1029.5121,431.188 Q1028.1674,431.188 1027.4826,432.2546 Q1026.7977,433.3213 1026.7977,435.4214 Q1026.7977,437.5132 1027.4826,438.5798 Q1028.1674,439.6465 1029.5121,439.6465 Q1030.143,439.6465 1030.7365,439.3767 Q1031.33,439.1069 1031.9608,438.5259 Z " fill="#000000"/><text fill="#000000" font-family="sans-serif" font-size="14" lengthAdjust="spacing" textLength="79.3721" x="1043.4877" y="440.3965">ChessBoard</text></g><!--class ChessBoardInitializer--><g id="elem_ChessBoardInitializer"><rect codeLine="50" fill="#FDF5E6" height="32" id="ChessBoardInitializer" style="stroke:#181818;stroke-width:0.5;" width="174.8027" x="1492.8959" y="419.1055"/><ellipse cx="1507.8959" cy="435.1055" fill="#A9DCDF" rx="11" ry="11" style="stroke:#181818;stroke-width:1;"/><path d="M1507.7592,430.4536 L1506.6054,435.5254 L1508.9213,435.5254 Z M1506.265,428.2124 L1509.2616,428.2124 L1512.6068,440.6055 L1510.1581,440.6055 L1509.3944,437.5425 L1506.1156,437.5425 L1505.3686,440.6055 L1502.9198,440.6055 Z " fill="#000000"/><text fill="#000000" font-family="sans-serif" font-size="14" font-style="italic" lengthAdjust="spacing" textLength="142.8027" x="1521.8959" y="440.3965">ChessBoardInitializer</text></g><!--class Position--><g id="elem_Position"><rect codeLine="52" fill="#FDF5E6" height="32" id="Position" style="stroke:#181818;stroke-width:0.5;" width="86.0928" x="759.6575" y="565.0371"/><ellipse cx="774.6575" cy="581.0371" fill="#ADD1B2" rx="11" ry="11" style="stroke:#181818;stroke-width:1;"/><path d="M777.1307,587.1802 Q776.5496,587.479 775.9104,587.6284 Q775.2713,587.7778 774.5657,587.7778 Q772.0589,587.7778 770.7391,586.126 Q769.4192,584.4741 769.4192,581.353 Q769.4192,578.2236 770.7391,576.5718 Q772.0589,574.9199 774.5657,574.9199 Q775.2713,574.9199 775.9187,575.0693 Q776.5662,575.2188 777.1307,575.5176 L777.1307,578.2402 Q776.4998,577.6592 775.9063,577.3894 Q775.3128,577.1196 774.6819,577.1196 Q773.3372,577.1196 772.6524,578.1863 Q771.9676,579.2529 771.9676,581.353 Q771.9676,583.4448 772.6524,584.5115 Q773.3372,585.5781 774.6819,585.5781 Q775.3128,585.5781 775.9063,585.3083 Q776.4998,585.0386 777.1307,584.4575 Z " fill="#000000"/><text fill="#000000" font-family="sans-serif" font-size="14" lengthAdjust="spacing" textLength="54.0928" x="788.6575" y="586.3281">Position</text></g><!--class PlayerColor--><g id="elem_PlayerColor"><rect codeLine="54" fill="#F8F8FF" height="72.9766" id="PlayerColor" style="stroke:#696969;stroke-width:0.5;" width="109.0205" x="1202.427" y="710.9688"/><ellipse cx="1217.427" cy="726.9688" fill="#EB937F" rx="11" ry="11" style="stroke:#181818;stroke-width:1;"/><path d="M1221.0412,733.4688 L1213.3215,733.4688 L1213.3215,721.0757 L1221.0412,721.0757 L1221.0412,723.2339 L1215.7702,723.2339 L1215.7702,725.9067 L1220.5432,725.9067 L1220.5432,728.0649 L1215.7702,728.0649 L1215.7702,731.3105 L1221.0412,731.3105 Z " fill="#000000"/><text fill="#696969" font-family="sans-serif" font-size="14" lengthAdjust="spacing" textLength="77.0205" x="1231.427" y="732.2598">PlayerColor</text><line style="stroke:#696969;stroke-width:0.5;" x1="1203.427" x2="1310.4475" y1="742.9688" y2="742.9688"/><text fill="#696969" font-family="sans-serif" font-size="14" lengthAdjust="spacing" textLength="42.7383" x="1208.427" y="760.5039">WHITE</text><text fill="#696969" font-family="sans-serif" font-size="14" lengthAdjust="spacing" textLength="44.0029" x="1208.427" y="776.9922">BLACK</text></g><!--class PieceType--><g id="elem_PieceType"><rect codeLine="59" fill="#F8F8FF" height="138.9297" id="PieceType" style="stroke:#696969;stroke-width:0.5;" width="99.334" x="754.2129" y="710.9688"/><ellipse cx="769.2129" cy="726.9688" fill="#EB937F" rx="11" ry="11" style="stroke:#181818;stroke-width:1;"/><path d="M772.8271,733.4688 L765.1074,733.4688 L765.1074,721.0757 L772.8271,721.0757 L772.8271,723.2339 L767.5561,723.2339 L767.5561,725.9067 L772.3291,725.9067 L772.3291,728.0649 L767.5561,728.0649 L767.5561,731.3105 L772.8271,731.3105 Z " fill="#000000"/><text fill="#696969" font-family="sans-serif" font-size="14" lengthAdjust="spacing" textLength="67.334" x="783.2129" y="732.2598">PieceType</text><line style="stroke:#696969;stroke-width:0.5;" x1="755.2129" x2="852.5468" y1="742.9688" y2="742.9688"/><text fill="#696969" font-family="sans-serif" font-size="14" lengthAdjust="spacing" textLength="39.7168" x="760.2129" y="760.5039">PAWN</text><text fill="#696969" font-family="sans-serif" font-size="14" lengthAdjust="spacing" textLength="39.7441" x="760.2129" y="776.9922">ROOK</text><text fill="#696969" font-family="sans-serif" font-size="14" lengthAdjust="spacing" textLength="52.7734" x="760.2129" y="793.4805">KNIGHT</text><text fill="#696969" font-family="sans-serif" font-size="14" lengthAdjust="spacing" textLength="48.5283" x="760.2129" y="809.9688">BISHOP</text><text fill="#696969" font-family="sans-serif" font-size="14" lengthAdjust="spacing" textLength="46.0947" x="760.2129" y="826.457">QUEEN</text><text fill="#696969" font-family="sans-serif" font-size="14" lengthAdjust="spacing" textLength="33.6328" x="760.2129" y="842.9453">KING</text></g><!--class ChessPiece--><g id="elem_ChessPiece"><rect codeLine="68" fill="#FDF5E6" height="32" id="ChessPiece" style="stroke:#181818;stroke-width:0.5;" width="107.0039" x="998.8378" y="565.0371"/><ellipse cx="1013.8378" cy="581.0371" fill="#A9DCDF" rx="11" ry="11" style="stroke:#181818;stroke-width:1;"/><path d="M1013.7011,576.3853 L1012.5473,581.457 L1014.8632,581.457 Z M1012.2069,574.144 L1015.2035,574.144 L1018.5487,586.5371 L1016.1,586.5371 L1015.3363,583.4741 L1012.0575,583.4741 L1011.3104,586.5371 L1008.8617,586.5371 Z " fill="#000000"/><text fill="#000000" font-family="sans-serif" font-size="14" font-style="italic" lengthAdjust="spacing" textLength="75.0039" x="1027.8378" y="586.3281">ChessPiece</text></g><!--class PromotableChessPiece--><g id="elem_PromotableChessPiece"><rect codeLine="69" fill="#FDF5E6" height="32" id="PromotableChessPiece" style="stroke:#181818;stroke-width:0.5;" width="184.3662" x="1331.4475" y="776.485"/><ellipse cx="1346.4475" cy="792.485" fill="#A9DCDF" rx="11" ry="11" style="stroke:#181818;stroke-width:1;"/><path d="M1346.3108,787.8332 L1345.157,792.9049 L1347.4729,792.9049 Z M1344.8166,785.592 L1347.8132,785.592 L1351.1584,797.985 L1348.7097,797.985 L1347.946,794.922 L1344.6672,794.922 L1343.9201,797.985 L1341.4714,797.985 Z " fill="#000000"/><text fill="#000000" font-family="sans-serif" font-size="14" font-style="italic" lengthAdjust="spacing" textLength="152.3662" x="1360.4475" y="797.776">PromotableChessPiece</text></g><!--class Pawn--><g id="elem_Pawn"><rect codeLine="70" fill="#FDF5E6" height="32" id="Pawn" style="stroke:#181818;stroke-width:0.5;" width="66.9453" x="667.2675" y="710.9688"/><ellipse cx="682.2675" cy="726.9688" fill="#ADD1B2" rx="11" ry="11" style="stroke:#181818;stroke-width:1;"/><path d="M684.7407,733.1118 Q684.1596,733.4106 683.5205,733.5601 Q682.8813,733.7095 682.1757,733.7095 Q679.6689,733.7095 678.3491,732.0576 Q677.0293,730.4058 677.0293,727.2847 Q677.0293,724.1553 678.3491,722.5034 Q679.6689,720.8516 682.1757,720.8516 Q682.8813,720.8516 683.5288,721.001 Q684.1762,721.1504 684.7407,721.4492 L684.7407,724.1719 Q684.1098,723.5908 683.5163,723.321 Q682.9228,723.0513 682.292,723.0513 Q680.9472,723.0513 680.2624,724.1179 Q679.5776,725.1846 679.5776,727.2847 Q679.5776,729.3765 680.2624,730.4431 Q680.9472,731.5098 682.292,731.5098 Q682.9228,731.5098 683.5163,731.24 Q684.1098,730.9702 684.7407,730.3892 Z " fill="#000000"/><text fill="#000000" font-family="sans-serif" font-size="14" lengthAdjust="spacing" textLength="34.9453" x="696.2675" y="732.2598">Pawn</text></g><!--class Rook--><g id="elem_Rook"><rect codeLine="71" fill="#FDF5E6" height="32" id="Rook" style="stroke:#181818;stroke-width:0.5;" width="66.2344" x="1317.1649" y="899.8984"/><ellipse cx="1332.1649" cy="915.8984" fill="#ADD1B2" rx="11" ry="11" style="stroke:#181818;stroke-width:1;"/><path d="M1334.638,922.0415 Q1334.057,922.3403 1333.4178,922.4897 Q1332.7786,922.6392 1332.0731,922.6392 Q1329.5662,922.6392 1328.2464,920.9873 Q1326.9266,919.3354 1326.9266,916.2144 Q1326.9266,913.085 1328.2464,911.4331 Q1329.5662,909.7813 1332.0731,909.7813 Q1332.7786,909.7813 1333.4261,909.9307 Q1334.0736,910.0801 1334.638,910.3789 L1334.638,913.1016 Q1334.0072,912.5205 1333.4137,912.2507 Q1332.8201,911.981 1332.1893,911.981 Q1330.8446,911.981 1330.1597,913.0476 Q1329.4749,914.1143 1329.4749,916.2144 Q1329.4749,918.3062 1330.1597,919.3728 Q1330.8446,920.4395 1332.1893,920.4395 Q1332.8201,920.4395 1333.4137,920.1697 Q1334.0072,919.8999 1334.638,919.3188 Z " fill="#000000"/><text fill="#000000" font-family="sans-serif" font-size="14" lengthAdjust="spacing" textLength="34.2344" x="1346.1649" y="921.1895">Rook</text></g><!--class Knight--><g id="elem_Knight"><rect codeLine="72" fill="#FDF5E6" height="32" id="Knight" style="stroke:#181818;stroke-width:0.5;" width="76.5293" x="1220.6356" y="899.8984"/><ellipse cx="1235.6356" cy="915.8984" fill="#ADD1B2" rx="11" ry="11" style="stroke:#181818;stroke-width:1;"/><path d="M1238.1087,922.0415 Q1237.5277,922.3403 1236.8885,922.4897 Q1236.2493,922.6392 1235.5438,922.6392 Q1233.0369,922.6392 1231.7171,920.9873 Q1230.3973,919.3354 1230.3973,916.2144 Q1230.3973,913.085 1231.7171,911.4331 Q1233.0369,909.7813 1235.5438,909.7813 Q1236.2493,909.7813 1236.8968,909.9307 Q1237.5443,910.0801 1238.1087,910.3789 L1238.1087,913.1016 Q1237.4779,912.5205 1236.8844,912.2507 Q1236.2908,911.981 1235.66,911.981 Q1234.3153,911.981 1233.6304,913.0476 Q1232.9456,914.1143 1232.9456,916.2144 Q1232.9456,918.3062 1233.6304,919.3728 Q1234.3153,920.4395 1235.66,920.4395 Q1236.2908,920.4395 1236.8844,920.1697 Q1237.4779,919.8999 1238.1087,919.3188 Z " fill="#000000"/><text fill="#000000" font-family="sans-serif" font-size="14" lengthAdjust="spacing" textLength="44.5293" x="1249.6356" y="921.1895">Knight</text></g><!--class Bishop--><g id="elem_Bishop"><rect codeLine="73" fill="#FDF5E6" height="32" id="Bishop" style="stroke:#181818;stroke-width:0.5;" width="77.3359" x="1403.3992" y="899.8984"/><ellipse cx="1418.3992" cy="915.8984" fill="#ADD1B2" rx="11" ry="11" style="stroke:#181818;stroke-width:1;"/><path d="M1420.8724,922.0415 Q1420.2913,922.3403 1419.6522,922.4897 Q1419.013,922.6392 1418.3074,922.6392 Q1415.8006,922.6392 1414.4808,920.9873 Q1413.161,919.3354 1413.161,916.2144 Q1413.161,913.085 1414.4808,911.4331 Q1415.8006,909.7813 1418.3074,909.7813 Q1419.013,909.7813 1419.6605,909.9307 Q1420.3079,910.0801 1420.8724,910.3789 L1420.8724,913.1016 Q1420.2415,912.5205 1419.648,912.2507 Q1419.0545,911.981 1418.4237,911.981 Q1417.0789,911.981 1416.3941,913.0476 Q1415.7093,914.1143 1415.7093,916.2144 Q1415.7093,918.3062 1416.3941,919.3728 Q1417.0789,920.4395 1418.4237,920.4395 Q1419.0545,920.4395 1419.648,920.1697 Q1420.2415,919.8999 1420.8724,919.3188 Z " fill="#000000"/><text fill="#000000" font-family="sans-serif" font-size="14" lengthAdjust="spacing" textLength="45.3359" x="1432.3992" y="921.1895">Bishop</text></g><!--class Queen--><g id="elem_Queen"><rect codeLine="74" fill="#FDF5E6" height="32" id="Queen" style="stroke:#181818;stroke-width:0.5;" width="75.8525" x="1500.7352" y="899.8984"/><ellipse cx="1515.7352" cy="915.8984" fill="#ADD1B2" rx="11" ry="11" style="stroke:#181818;stroke-width:1;"/><path d="M1518.2083,922.0415 Q1517.6273,922.3403 1516.9881,922.4897 Q1516.349,922.6392 1515.6434,922.6392 Q1513.1366,922.6392 1511.8167,920.9873 Q1510.4969,919.3354 1510.4969,916.2144 Q1510.4969,913.085 1511.8167,911.4331 Q1513.1366,909.7813 1515.6434,909.7813 Q1516.349,909.7813 1516.9964,909.9307 Q1517.6439,910.0801 1518.2083,910.3789 L1518.2083,913.1016 Q1517.5775,912.5205 1516.984,912.2507 Q1516.3905,911.981 1515.7596,911.981 Q1514.4149,911.981 1513.7301,913.0476 Q1513.0452,914.1143 1513.0452,916.2144 Q1513.0452,918.3062 1513.7301,919.3728 Q1514.4149,920.4395 1515.7596,920.4395 Q1516.3905,920.4395 1516.984,920.1697 Q1517.5775,919.8999 1518.2083,919.3188 Z " fill="#000000"/><text fill="#000000" font-family="sans-serif" font-size="14" lengthAdjust="spacing" textLength="43.8525" x="1529.7352" y="921.1895">Queen</text></g><!--class King--><g id="elem_King"><rect codeLine="75" fill="#FDF5E6" height="32" id="King" style="stroke:#181818;stroke-width:0.5;" width="62.6045" x="1028.6806" y="710.9688"/><ellipse cx="1043.6806" cy="726.9688" fill="#ADD1B2" rx="11" ry="11" style="stroke:#181818;stroke-width:1;"/><path d="M1046.1538,733.1118 Q1045.5727,733.4106 1044.9336,733.5601 Q1044.2944,733.7095 1043.5888,733.7095 Q1041.082,733.7095 1039.7622,732.0576 Q1038.4424,730.4058 1038.4424,727.2847 Q1038.4424,724.1553 1039.7622,722.5034 Q1041.082,720.8516 1043.5888,720.8516 Q1044.2944,720.8516 1044.9419,721.001 Q1045.5893,721.1504 1046.1538,721.4492 L1046.1538,724.1719 Q1045.5229,723.5908 1044.9294,723.321 Q1044.3359,723.0513 1043.705,723.0513 Q1042.3603,723.0513 1041.6755,724.1179 Q1040.9907,725.1846 1040.9907,727.2847 Q1040.9907,729.3765 1041.6755,730.4431 Q1042.3603,731.5098 1043.705,731.5098 Q1044.3359,731.5098 1044.9294,731.24 Q1045.5229,730.9702 1046.1538,730.3892 Z " fill="#000000"/><text fill="#000000" font-family="sans-serif" font-size="14" lengthAdjust="spacing" textLength="30.6045" x="1057.6806" y="732.2598">King</text></g><!--class MoveGenerator--><g id="elem_MoveGenerator"><rect codeLine="78" fill="#FDF5E6" height="32" id="MoveGenerator" style="stroke:#181818;stroke-width:0.5;" width="135.1338" x="873.5468" y="768.2023"/><ellipse cx="888.5468" cy="784.2023" fill="#A9DCDF" rx="11" ry="11" style="stroke:#181818;stroke-width:1;"/><path d="M888.4101,779.5505 L887.2563,784.6223 L889.5722,784.6223 Z M886.916,777.3093 L889.9126,777.3093 L893.2578,789.7023 L890.809,789.7023 L890.0454,786.6394 L886.7666,786.6394 L886.0195,789.7023 L883.5708,789.7023 Z " fill="#000000"/><text fill="#000000" font-family="sans-serif" font-size="14" font-style="italic" lengthAdjust="spacing" textLength="103.1338" x="902.5468" y="789.4934">MoveGenerator</text></g><!--class DirectionalGenerator--><g id="elem_DirectionalGenerator"><rect codeLine="79" fill="#FDF5E6" height="32" id="DirectionalGenerator" style="stroke:#181818;stroke-width:0.5;" width="173.0117" x="1084.2944" y="1025.8301"/><ellipse cx="1099.2944" cy="1041.8301" fill="#ADD1B2" rx="11" ry="11" style="stroke:#181818;stroke-width:1;"/><path d="M1101.7676,1047.9731 Q1101.1865,1048.272 1100.5474,1048.4214 Q1099.9082,1048.5708 1099.2026,1048.5708 Q1096.6958,1048.5708 1095.376,1046.9189 Q1094.0561,1045.2671 1094.0561,1042.146 Q1094.0561,1039.0166 1095.376,1037.3647 Q1096.6958,1035.7129 1099.2026,1035.7129 Q1099.9082,1035.7129 1100.5557,1035.8623 Q1101.2031,1036.0117 1101.7676,1036.3105 L1101.7676,1039.0332 Q1101.1367,1038.4521 1100.5432,1038.1824 Q1099.9497,1037.9126 1099.3188,1037.9126 Q1097.9741,1037.9126 1097.2893,1038.9792 Q1096.6045,1040.0459 1096.6045,1042.146 Q1096.6045,1044.2378 1097.2893,1045.3044 Q1097.9741,1046.3711 1099.3188,1046.3711 Q1099.9497,1046.3711 1100.5432,1046.1013 Q1101.1367,1045.8315 1101.7676,1045.2505 Z " fill="#000000"/><text fill="#000000" font-family="sans-serif" font-size="14" lengthAdjust="spacing" textLength="141.0117" x="1113.2944" y="1047.1211">DirectionalGenerator</text></g><!--class KnightGenerator--><g id="elem_KnightGenerator"><rect codeLine="80" fill="#FDF5E6" height="32" id="KnightGenerator" style="stroke:#181818;stroke-width:0.5;" width="143.959" x="869.1342" y="899.8984"/><ellipse cx="884.1342" cy="915.8984" fill="#ADD1B2" rx="11" ry="11" style="stroke:#181818;stroke-width:1;"/><path d="M886.6074,922.0415 Q886.0263,922.3403 885.3872,922.4897 Q884.748,922.6392 884.0424,922.6392 Q881.5356,922.6392 880.2158,920.9873 Q878.896,919.3354 878.896,916.2144 Q878.896,913.085 880.2158,911.4331 Q881.5356,909.7813 884.0424,909.7813 Q884.748,909.7813 885.3955,909.9307 Q886.0429,910.0801 886.6074,910.3789 L886.6074,913.1016 Q885.9765,912.5205 885.383,912.2507 Q884.7895,911.981 884.1587,911.981 Q882.8139,911.981 882.1291,913.0476 Q881.4443,914.1143 881.4443,916.2144 Q881.4443,918.3062 882.1291,919.3728 Q882.8139,920.4395 884.1587,920.4395 Q884.7895,920.4395 885.383,920.1697 Q885.9765,919.8999 886.6074,919.3188 Z " fill="#000000"/><text fill="#000000" font-family="sans-serif" font-size="14" lengthAdjust="spacing" textLength="111.959" x="898.1342" y="921.1895">KnightGenerator</text></g><!--class DistanceGenerator--><g id="elem_DistanceGenerator"><rect codeLine="81" fill="#FDF5E6" height="32" id="DistanceGenerator" style="stroke:#181818;stroke-width:0.5;" width="157.7266" x="691.4077" y="899.8984"/><ellipse cx="706.4077" cy="915.8984" fill="#ADD1B2" rx="11" ry="11" style="stroke:#181818;stroke-width:1;"/><path d="M708.8808,922.0415 Q708.2998,922.3403 707.6606,922.4897 Q707.0215,922.6392 706.3159,922.6392 Q703.809,922.6392 702.4892,920.9873 Q701.1694,919.3354 701.1694,916.2144 Q701.1694,913.085 702.4892,911.4331 Q703.809,909.7813 706.3159,909.7813 Q707.0215,909.7813 707.6689,909.9307 Q708.3164,910.0801 708.8808,910.3789 L708.8808,913.1016 Q708.25,912.5205 707.6565,912.2507 Q707.063,911.981 706.4321,911.981 Q705.0874,911.981 704.4026,913.0476 Q703.7177,914.1143 703.7177,916.2144 Q703.7177,918.3062 704.4026,919.3728 Q705.0874,920.4395 706.4321,920.4395 Q707.063,920.4395 707.6565,920.1697 Q708.25,919.8999 708.8808,919.3188 Z " fill="#000000"/><text fill="#000000" font-family="sans-serif" font-size="14" lengthAdjust="spacing" textLength="125.7266" x="720.4077" y="921.1895">DistanceGenerator</text></g><!--class PawnDistanceGenerator--><g id="elem_PawnDistanceGenerator"><rect codeLine="82" fill="#FDF5E6" height="32" id="PawnDistanceGenerator" style="stroke:#181818;stroke-width:0.5;" width="192.6719" x="643.6515" y="1025.8301"/><ellipse cx="658.6515" cy="1041.8301" fill="#ADD1B2" rx="11" ry="11" style="stroke:#181818;stroke-width:1;"/><path d="M661.1246,1047.9731 Q660.5436,1048.272 659.9044,1048.4214 Q659.2653,1048.5708 658.5597,1048.5708 Q656.0529,1048.5708 654.733,1046.9189 Q653.4132,1045.2671 653.4132,1042.146 Q653.4132,1039.0166 654.733,1037.3647 Q656.0529,1035.7129 658.5597,1035.7129 Q659.2653,1035.7129 659.9127,1035.8623 Q660.5602,1036.0117 661.1246,1036.3105 L661.1246,1039.0332 Q660.4938,1038.4521 659.9003,1038.1824 Q659.3068,1037.9126 658.6759,1037.9126 Q657.3312,1037.9126 656.6464,1038.9792 Q655.9616,1040.0459 655.9616,1042.146 Q655.9616,1044.2378 656.6464,1045.3044 Q657.3312,1046.3711 658.6759,1046.3711 Q659.3068,1046.3711 659.9003,1046.1013 Q660.4938,1045.8315 661.1246,1045.2505 Z " fill="#000000"/><text fill="#000000" font-family="sans-serif" font-size="14" lengthAdjust="spacing" textLength="160.6719" x="672.6515" y="1047.1211">PawnDistanceGenerator</text></g><!--class Direction--><g id="elem_Direction"><rect codeLine="84" fill="#FDF5E6" height="171.9063" id="Direction" style="stroke:#181818;stroke-width:0.5;" width="146.1963" x="1097.7021" y="1151.7617"/><ellipse cx="1136.2788" cy="1167.7617" fill="#EB937F" rx="11" ry="11" style="stroke:#181818;stroke-width:1;"/><path d="M1139.8931,1174.2617 L1132.1733,1174.2617 L1132.1733,1161.8687 L1139.8931,1161.8687 L1139.8931,1164.0269 L1134.6221,1164.0269 L1134.6221,1166.6997 L1139.395,1166.6997 L1139.395,1168.8579 L1134.6221,1168.8579 L1134.6221,1172.1035 L1139.8931,1172.1035 Z " fill="#000000"/><text fill="#000000" font-family="sans-serif" font-size="14" lengthAdjust="spacing" textLength="61.8037" x="1155.5181" y="1173.0527">Direction</text><line style="stroke:#181818;stroke-width:0.5;" x1="1098.7021" x2="1242.8984" y1="1183.7617" y2="1183.7617"/><text fill="#000000" font-family="sans-serif" font-size="14" lengthAdjust="spacing" textLength="75.749" x="1103.7021" y="1201.2969">FORWARDS</text><text fill="#000000" font-family="sans-serif" font-size="14" lengthAdjust="spacing" textLength="85.0527" x="1103.7021" y="1217.7852">BACKWARDS</text><text fill="#000000" font-family="sans-serif" font-size="14" lengthAdjust="spacing" textLength="31.4111" x="1103.7021" y="1234.2734">LEFT</text><text fill="#000000" font-family="sans-serif" font-size="14" lengthAdjust="spacing" textLength="42.1436" x="1103.7021" y="1250.7617">RIGHT</text><text fill="#000000" font-family="sans-serif" font-size="14" lengthAdjust="spacing" textLength="114.1602" x="1103.7021" y="1267.25">FORWARDS_LEFT</text><text fill="#000000" font-family="sans-serif" font-size="14" lengthAdjust="spacing" textLength="124.8926" x="1103.7021" y="1283.7383">FORWARDS_RIGHT</text><text fill="#000000" font-family="sans-serif" font-size="14" lengthAdjust="spacing" textLength="123.4639" x="1103.7021" y="1300.2266">BACKWARDS_LEFT</text><text fill="#000000" font-family="sans-serif" font-size="14" lengthAdjust="spacing" textLength="134.1963" x="1103.7021" y="1316.7148">BACKWARDS_RIGHT</text></g><!--class Moves--><g id="elem_Moves"><rect codeLine="96" fill="#FDF5E6" height="32" id="Moves" style="stroke:#181818;stroke-width:0.5;" width="74.8408" x="615.2139" y="12"/><ellipse cx="630.2139" cy="28" fill="#ADD1B2" rx="11" ry="11" style="stroke:#181818;stroke-width:1;"/><path d="M632.687,34.1431 Q632.106,34.4419 631.4668,34.5913 Q630.8276,34.7407 630.1221,34.7407 Q627.6152,34.7407 626.2954,33.0889 Q624.9756,31.437 624.9756,28.3159 Q624.9756,25.1865 626.2954,23.5347 Q627.6152,21.8828 630.1221,21.8828 Q630.8276,21.8828 631.4751,22.0322 Q632.1226,22.1816 632.687,22.4805 L632.687,25.2031 Q632.0562,24.6221 631.4626,24.3523 Q630.8691,24.0825 630.2383,24.0825 Q628.8936,24.0825 628.2087,25.1492 Q627.5239,26.2158 627.5239,28.3159 Q627.5239,30.4077 628.2087,31.4744 Q628.8936,32.541 630.2383,32.541 Q630.8691,32.541 631.4626,32.2712 Q632.0562,32.0015 632.687,31.4204 Z " fill="#000000"/><text fill="#000000" font-family="sans-serif" font-size="14" lengthAdjust="spacing" textLength="42.8408" x="644.2139" y="33.291">Moves</text></g><!--class ChessMove--><g id="elem_ChessMove"><rect codeLine="98" fill="#FDF5E6" height="32" id="ChessMove" style="stroke:#181818;stroke-width:0.5;" width="108.1523" x="598.5581" y="137.9316"/><ellipse cx="613.5581" cy="153.9316" fill="#A9DCDF" rx="11" ry="11" style="stroke:#181818;stroke-width:1;"/><path d="M613.4214,149.2798 L612.2676,154.3516 L614.5835,154.3516 Z M611.9272,147.0386 L614.9238,147.0386 L618.269,159.4316 L615.8203,159.4316 L615.0566,156.3687 L611.7778,156.3687 L611.0308,159.4316 L608.582,159.4316 Z " fill="#000000"/><text fill="#000000" font-family="sans-serif" font-size="14" font-style="italic" lengthAdjust="spacing" textLength="76.1523" x="627.5581" y="159.2227">ChessMove</text></g><!--class StandardMove--><g id="elem_StandardMove"><rect codeLine="100" fill="#FDF5E6" height="32" id="StandardMove" style="stroke:#181818;stroke-width:0.5;" width="127.9834" x="588.6426" y="243.0124"/><ellipse cx="603.6426" cy="259.0124" fill="#ADD1B2" rx="11" ry="11" style="stroke:#181818;stroke-width:1;"/><path d="M606.1157,265.1554 Q605.5347,265.4543 604.8955,265.6037 Q604.2563,265.7531 603.5508,265.7531 Q601.0439,265.7531 599.7241,264.1012 Q598.4043,262.4494 598.4043,259.3283 Q598.4043,256.1989 599.7241,254.547 Q601.0439,252.8952 603.5508,252.8952 Q604.2563,252.8952 604.9038,253.0446 Q605.5513,253.194 606.1157,253.4928 L606.1157,256.2155 Q605.4849,255.6344 604.8914,255.3647 Q604.2979,255.0949 603.667,255.0949 Q602.3223,255.0949 601.6375,256.1615 Q600.9526,257.2282 600.9526,259.3283 Q600.9526,261.4201 601.6375,262.4867 Q602.3223,263.5534 603.667,263.5534 Q604.2979,263.5534 604.8914,263.2836 Q605.4849,263.0138 606.1157,262.4328 Z " fill="#000000"/><text fill="#000000" font-family="sans-serif" font-size="14" lengthAdjust="spacing" textLength="95.9834" x="617.6426" y="264.3034">StandardMove</text></g><!--class Capture--><g id="elem_Capture"><rect codeLine="101" fill="#FDF5E6" height="32" id="Capture" style="stroke:#181818;stroke-width:0.5;" width="85.6826" x="62.1279" y="245.8975"/><ellipse cx="77.1279" cy="261.8975" fill="#ADD1B2" rx="11" ry="11" style="stroke:#181818;stroke-width:1;"/><path d="M79.6011,268.0405 Q79.02,268.3394 78.3809,268.4888 Q77.7417,268.6382 77.0361,268.6382 Q74.5293,268.6382 73.2095,266.9863 Q71.8896,265.3345 71.8896,262.2134 Q71.8896,259.084 73.2095,257.4321 Q74.5293,255.7803 77.0361,255.7803 Q77.7417,255.7803 78.3892,255.9297 Q79.0366,256.0791 79.6011,256.3779 L79.6011,259.1006 Q78.9702,258.5195 78.3767,258.2498 Q77.7832,257.98 77.1523,257.98 Q75.8076,257.98 75.1228,259.0466 Q74.438,260.1133 74.438,262.2134 Q74.438,264.3052 75.1228,265.3718 Q75.8076,266.4385 77.1523,266.4385 Q77.7832,266.4385 78.3767,266.1687 Q78.9702,265.8989 79.6011,265.3179 Z " fill="#000000"/><text fill="#000000" font-family="sans-serif" font-size="14" lengthAdjust="spacing" textLength="53.6826" x="91.1279" y="267.1885">Capture</text></g><!--class EnPassant--><g id="elem_EnPassant"><rect codeLine="102" fill="#FDF5E6" height="32" id="EnPassant" style="stroke:#181818;stroke-width:0.5;" width="99.6758" x="624.127" y="419.1055"/><ellipse cx="639.127" cy="435.1055" fill="#ADD1B2" rx="11" ry="11" style="stroke:#181818;stroke-width:1;"/><path d="M641.6001,441.2485 Q641.019,441.5474 640.3799,441.6968 Q639.7407,441.8462 639.0352,441.8462 Q636.5283,441.8462 635.2085,440.1943 Q633.8887,438.5425 633.8887,435.4214 Q633.8887,432.292 635.2085,430.6401 Q636.5283,428.9883 639.0352,428.9883 Q639.7407,428.9883 640.3882,429.1377 Q641.0356,429.2871 641.6001,429.5859 L641.6001,432.3086 Q640.9692,431.7275 640.3757,431.4578 Q639.7822,431.188 639.1514,431.188 Q637.8066,431.188 637.1218,432.2546 Q636.437,433.3213 636.437,435.4214 Q636.437,437.5132 637.1218,438.5798 Q637.8066,439.6465 639.1514,439.6465 Q639.7822,439.6465 640.3757,439.3767 Q640.9692,439.1069 641.6001,438.5259 Z " fill="#000000"/><text fill="#000000" font-family="sans-serif" font-size="14" lengthAdjust="spacing" textLength="67.6758" x="653.127" y="440.3965">EnPassant</text></g><!--class Castling--><g id="elem_Castling"><rect codeLine="103" fill="#FDF5E6" height="32" id="Castling" style="stroke:#181818;stroke-width:0.5;" width="87.3027" x="362.0697" y="243.0124"/><ellipse cx="377.0697" cy="259.0124" fill="#A9DCDF" rx="11" ry="11" style="stroke:#181818;stroke-width:1;"/><path d="M376.9329,254.3605 L375.7791,259.4323 L378.0951,259.4323 Z M375.4388,252.1193 L378.4354,252.1193 L381.7806,264.5124 L379.3319,264.5124 L378.5682,261.4494 L375.2894,261.4494 L374.5423,264.5124 L372.0936,264.5124 Z " fill="#000000"/><text fill="#000000" font-family="sans-serif" font-size="14" font-style="italic" lengthAdjust="spacing" textLength="55.3027" x="391.0697" y="264.3034">Castling</text></g><!--class LongCastling--><g id="elem_LongCastling"><rect codeLine="104" fill="#FDF5E6" height="32" id="LongCastling" style="stroke:#181818;stroke-width:0.5;" width="120.7852" x="217.9385" y="419.1055"/><ellipse cx="232.9385" cy="435.1055" fill="#ADD1B2" rx="11" ry="11" style="stroke:#181818;stroke-width:1;"/><path d="M235.4116,441.2485 Q234.8306,441.5474 234.1914,441.6968 Q233.5522,441.8462 232.8467,441.8462 Q230.3398,441.8462 229.02,440.1943 Q227.7002,438.5425 227.7002,435.4214 Q227.7002,432.292 229.02,430.6401 Q230.3398,428.9883 232.8467,428.9883 Q233.5522,428.9883 234.1997,429.1377 Q234.8472,429.2871 235.4116,429.5859 L235.4116,432.3086 Q234.7808,431.7275 234.1873,431.4578 Q233.5938,431.188 232.9629,431.188 Q231.6182,431.188 230.9333,432.2546 Q230.2485,433.3213 230.2485,435.4214 Q230.2485,437.5132 230.9333,438.5798 Q231.6182,439.6465 232.9629,439.6465 Q233.5938,439.6465 234.1873,439.3767 Q234.7808,439.1069 235.4116,438.5259 Z " fill="#000000"/><text fill="#000000" font-family="sans-serif" font-size="14" lengthAdjust="spacing" textLength="88.7852" x="246.9385" y="440.3965">LongCastling</text></g><!--class ShortCastling--><g id="elem_ShortCastling"><rect codeLine="105" fill="#FDF5E6" height="32" id="ShortCastling" style="stroke:#181818;stroke-width:0.5;" width="123.0957" x="358.7236" y="419.1055"/><ellipse cx="373.7236" cy="435.1055" fill="#ADD1B2" rx="11" ry="11" style="stroke:#181818;stroke-width:1;"/><path d="M376.1968,441.2485 Q375.6157,441.5474 374.9766,441.6968 Q374.3374,441.8462 373.6318,441.8462 Q371.125,441.8462 369.8052,440.1943 Q368.4854,438.5425 368.4854,435.4214 Q368.4854,432.292 369.8052,430.6401 Q371.125,428.9883 373.6318,428.9883 Q374.3374,428.9883 374.9849,429.1377 Q375.6323,429.2871 376.1968,429.5859 L376.1968,432.3086 Q375.5659,431.7275 374.9724,431.4578 Q374.3789,431.188 373.748,431.188 Q372.4033,431.188 371.7185,432.2546 Q371.0337,433.3213 371.0337,435.4214 Q371.0337,437.5132 371.7185,438.5798 Q372.4033,439.6465 373.748,439.6465 Q374.3789,439.6465 374.9724,439.3767 Q375.5659,439.1069 376.1968,438.5259 Z " fill="#000000"/><text fill="#000000" font-family="sans-serif" font-size="14" lengthAdjust="spacing" textLength="91.0957" x="387.7236" y="440.3965">ShortCastling</text></g><!--class Promotion--><g id="elem_Promotion"><rect codeLine="106" fill="#FDF5E6" height="32" id="Promotion" style="stroke:#181818;stroke-width:0.5;" width="102.3076" x="501.8193" y="419.1055"/><ellipse cx="516.8193" cy="435.1055" fill="#ADD1B2" rx="11" ry="11" style="stroke:#181818;stroke-width:1;"/><path d="M519.2925,441.2485 Q518.7114,441.5474 518.0723,441.6968 Q517.4331,441.8462 516.7275,441.8462 Q514.2207,441.8462 512.9009,440.1943 Q511.5811,438.5425 511.5811,435.4214 Q511.5811,432.292 512.9009,430.6401 Q514.2207,428.9883 516.7275,428.9883 Q517.4331,428.9883 518.0806,429.1377 Q518.728,429.2871 519.2925,429.5859 L519.2925,432.3086 Q518.6616,431.7275 518.0681,431.4578 Q517.4746,431.188 516.8437,431.188 Q515.499,431.188 514.8142,432.2546 Q514.1294,433.3213 514.1294,435.4214 Q514.1294,437.5132 514.8142,438.5798 Q515.499,439.6465 516.8437,439.6465 Q517.4746,439.6465 518.0681,439.3767 Q518.6616,439.1069 519.2925,438.5259 Z " fill="#000000"/><text fill="#000000" font-family="sans-serif" font-size="14" lengthAdjust="spacing" textLength="70.3076" x="530.8193" y="440.3965">Promotion</text></g><!--class PromotionWithCapture--><g id="elem_PromotionWithCapture"><rect codeLine="107" fill="#FDF5E6" height="32" id="PromotionWithCapture" style="stroke:#181818;stroke-width:0.5;" width="185.9385" x="12" y="419.1055"/><ellipse cx="27" cy="435.1055" fill="#ADD1B2" rx="11" ry="11" style="stroke:#181818;stroke-width:1;"/><path d="M29.4731,441.2485 Q28.8921,441.5474 28.2529,441.6968 Q27.6138,441.8462 26.9082,441.8462 Q24.4014,441.8462 23.0815,440.1943 Q21.7617,438.5425 21.7617,435.4214 Q21.7617,432.292 23.0815,430.6401 Q24.4014,428.9883 26.9082,428.9883 Q27.6138,428.9883 28.2612,429.1377 Q28.9087,429.2871 29.4731,429.5859 L29.4731,432.3086 Q28.8423,431.7275 28.2488,431.4578 Q27.6553,431.188 27.0244,431.188 Q25.6797,431.188 24.9949,432.2546 Q24.3101,433.3213 24.3101,435.4214 Q24.3101,437.5132 24.9949,438.5798 Q25.6797,439.6465 27.0244,439.6465 Q27.6553,439.6465 28.2488,439.3767 Q28.8423,439.1069 29.4731,438.5259 Z " fill="#000000"/><text fill="#000000" font-family="sans-serif" font-size="14" lengthAdjust="spacing" textLength="153.9385" x="41" y="440.3965">PromotionWithCapture</text></g><line style="stroke:#181818;stroke-width:1;stroke-dasharray:7.0,7.0;" x1="1275.1073" x2="1275.1073" y1="169.9316" y2="237.2422"/><polygon fill="#FFFFFF" points="1275.1073,169.9316,1268.1073,188.9316,1282.1073,188.9316,1275.1073,169.9316" style="stroke:#181818;stroke-width:1;"/><line style="stroke:#181818;stroke-width:1;stroke-dasharray:7.0,7.0;" x1="1013.4713" x2="1013.4713" y1="269.2422" y2="381.7949"/><line style="stroke:#181818;stroke-width:1;stroke-dasharray:7.0,7.0;" x1="1013.4713" x2="1070.1737" y1="381.7949" y2="381.7949"/><line style="stroke:#181818;stroke-width:1;stroke-dasharray:7.0,7.0;" x1="1070.1737" x2="1070.1737" y1="381.7949" y2="419.1055"/><polygon fill="#FFFFFF" points="1013.4713,269.2422,1006.4713,288.2422,1020.4713,288.2422,1013.4713,269.2422" style="stroke:#181818;stroke-width:1;"/><line style="stroke:#181818;stroke-width:1;stroke-dasharray:7.0,7.0;" x1="897.089" x2="897.089" y1="269.2422" y2="296.5527"/><line style="stroke:#181818;stroke-width:1;stroke-dasharray:7.0,7.0;" x1="897.089" x2="999.4713" y1="296.5527" y2="296.5527"/><line style="stroke:#181818;stroke-width:1;stroke-dasharray:7.0,7.0;" x1="999.4713" x2="999.4713" y1="296.5527" y2="391.7949"/><line style="stroke:#181818;stroke-width:1;stroke-dasharray:7.0,7.0;" x1="999.4713" x2="1042.3307" y1="391.7949" y2="391.7949"/><line style="stroke:#181818;stroke-width:1;stroke-dasharray:7.0,7.0;" x1="1042.3307" x2="1042.3307" y1="391.7949" y2="419.1055"/><polygon fill="#FFFFFF" points="897.089,269.2422,890.089,288.2422,904.089,288.2422,897.089,269.2422" style="stroke:#181818;stroke-width:1;"/><line style="stroke:#181818;stroke-width:1;stroke-dasharray:7.0,7.0;" x1="872.2863" x2="872.2863" y1="269.2422" y2="517.7266"/><line style="stroke:#181818;stroke-width:1;stroke-dasharray:7.0,7.0;" x1="872.2863" x2="1034.5058" y1="517.7266" y2="517.7266"/><line style="stroke:#181818;stroke-width:1;stroke-dasharray:7.0,7.0;" x1="1034.5058" x2="1034.5058" y1="517.7266" y2="565.0371"/><polygon fill="#FFFFFF" points="872.2863,269.2422,865.2863,288.2422,879.2863,288.2422,872.2863,269.2422" style="stroke:#181818;stroke-width:1;"/><line style="stroke:#181818;stroke-width:1;" x1="1090.5554" x2="1090.5554" y1="597.0371" y2="624.3477"/><line style="stroke:#181818;stroke-width:1;" x1="1090.5554" x2="1392.9029" y1="624.3477" y2="624.3477"/><line style="stroke:#181818;stroke-width:1;" x1="1392.9029" x2="1392.9029" y1="624.3477" y2="776.485"/><polygon fill="#FFFFFF" points="1090.5554,597.0371,1083.5554,616.0371,1097.5554,616.0371,1090.5554,597.0371" style="stroke:#181818;stroke-width:1;"/><line style="stroke:#181818;stroke-width:1;stroke-dasharray:7.0,7.0;" x1="1454.3583" x2="1454.3583" y1="597.0371" y2="776.485"/><polygon fill="#FFFFFF" points="1454.3583,597.0371,1447.3583,616.0371,1461.3583,616.0371,1454.3583,597.0371" style="stroke:#181818;stroke-width:1;"/><line style="stroke:#181818;stroke-width:1;" x1="1014.1241" x2="1014.1241" y1="597.0371" y2="624.3477"/><line style="stroke:#181818;stroke-width:1;" x1="1014.1241" x2="700.7402" y1="624.3477" y2="624.3477"/><line style="stroke:#181818;stroke-width:1;" x1="700.7402" x2="700.7402" y1="624.3477" y2="710.9688"/><polygon fill="#FFFFFF" points="1014.1241,597.0371,1007.1241,616.0371,1021.1241,616.0371,1014.1241,597.0371" style="stroke:#181818;stroke-width:1;"/><line style="stroke:#181818;stroke-width:1;" x1="1405.194" x2="1405.194" y1="808.485" y2="869.8984"/><line style="stroke:#181818;stroke-width:1;" x1="1405.194" x2="1350.2821" y1="869.8984" y2="869.8984"/><line style="stroke:#181818;stroke-width:1;" x1="1350.2821" x2="1350.2821" y1="869.8984" y2="899.8984"/><polygon fill="#FFFFFF" points="1405.194,808.485,1398.194,827.485,1412.194,827.485,1405.194,808.485" style="stroke:#181818;stroke-width:1;"/><line style="stroke:#181818;stroke-width:1;" x1="1368.3207" x2="1368.3207" y1="808.485" y2="859.8984"/><line style="stroke:#181818;stroke-width:1;" x1="1368.3207" x2="1258.9002" y1="859.8984" y2="859.8984"/><line style="stroke:#181818;stroke-width:1;" x1="1258.9002" x2="1258.9002" y1="859.8984" y2="899.8984"/><polygon fill="#FFFFFF" points="1368.3207,808.485,1361.3207,827.485,1375.3207,827.485,1368.3207,808.485" style="stroke:#181818;stroke-width:1;"/><line style="stroke:#181818;stroke-width:1;" x1="1442.0672" x2="1442.0672" y1="808.485" y2="899.8984"/><polygon fill="#FFFFFF" points="1442.0672,808.485,1435.0672,827.485,1449.0672,827.485,1442.0672,808.485" style="stroke:#181818;stroke-width:1;"/><line style="stroke:#181818;stroke-width:1;" x1="1478.9405" x2="1478.9405" y1="808.485" y2="859.8984"/><line style="stroke:#181818;stroke-width:1;" x1="1478.9405" x2="1538.6615" y1="859.8984" y2="859.8984"/><line style="stroke:#181818;stroke-width:1;" x1="1538.6615" x2="1538.6615" y1="859.8984" y2="899.8984"/><polygon fill="#FFFFFF" points="1478.9405,808.485,1471.9405,827.485,1485.9405,827.485,1478.9405,808.485" style="stroke:#181818;stroke-width:1;"/><line style="stroke:#181818;stroke-width:1;" x1="1059.9829" x2="1059.9829" y1="597.0371" y2="710.9688"/><polygon fill="#FFFFFF" points="1059.9829,597.0371,1052.9829,616.0371,1066.9829,616.0371,1059.9829,597.0371" style="stroke:#181818;stroke-width:1;"/><line style="stroke:#181818;stroke-width:1;stroke-dasharray:7.0,7.0;" x1="847.4835" x2="847.4835" y1="269.2422" y2="296.5527"/><line style="stroke:#181818;stroke-width:1;stroke-dasharray:7.0,7.0;" x1="847.4835" x2="855.7503" y1="296.5527" y2="296.5527"/><line style="stroke:#181818;stroke-width:1;stroke-dasharray:7.0,7.0;" x1="855.7503" x2="855.7503" y1="296.5527" y2="683.6582"/><line style="stroke:#181818;stroke-width:1;stroke-dasharray:7.0,7.0;" x1="855.7503" x2="918.5914" y1="683.6582" y2="683.6582"/><line style="stroke:#181818;stroke-width:1;stroke-dasharray:7.0,7.0;" x1="918.5914" x2="918.5914" y1="683.6582" y2="768.2023"/><polygon fill="#FFFFFF" points="847.4835,269.2422,840.4835,288.2422,854.4835,288.2422,847.4835,269.2422" style="stroke:#181818;stroke-width:1;"/><line style="stroke:#181818;stroke-width:1;" x1="974.8972" x2="974.8972" y1="800.2023" y2="859.8984"/><line style="stroke:#181818;stroke-width:1;" x1="974.8972" x2="1199.6356" y1="859.8984" y2="859.8984"/><line style="stroke:#181818;stroke-width:1;" x1="1199.6356" x2="1199.6356" y1="859.8984" y2="1025.8301"/><polygon fill="#FFFFFF" points="974.8972,800.2023,967.8972,819.2023,981.8972,819.2023,974.8972,800.2023" style="stroke:#181818;stroke-width:1;"/><line style="stroke:#181818;stroke-width:1;" x1="941.1137" x2="941.1137" y1="800.2023" y2="899.8984"/><polygon fill="#FFFFFF" points="941.1137,800.2023,934.1137,819.2023,948.1137,819.2023,941.1137,800.2023" style="stroke:#181818;stroke-width:1;"/><line style="stroke:#181818;stroke-width:1;" x1="907.3303" x2="907.3303" y1="800.2023" y2="859.8984"/><line style="stroke:#181818;stroke-width:1;" x1="907.3303" x2="770.271" y1="859.8984" y2="859.8984"/><line style="stroke:#181818;stroke-width:1;" x1="770.271" x2="770.271" y1="859.8984" y2="899.8984"/><polygon fill="#FFFFFF" points="907.3303,800.2023,900.3303,819.2023,914.3303,819.2023,907.3303,800.2023" style="stroke:#181818;stroke-width:1;"/><line style="stroke:#181818;stroke-width:1;" x1="743.9832" x2="743.9832" y1="931.8984" y2="959.209"/><line style="stroke:#181818;stroke-width:1;" x1="743.9832" x2="739.9874" y1="959.209" y2="959.209"/><line style="stroke:#181818;stroke-width:1;" x1="739.9874" x2="739.9874" y1="959.209" y2="1025.8301"/><polygon fill="#FFFFFF" points="743.9832,931.8984,736.9832,950.8984,750.9832,950.8984,743.9832,931.8984" style="stroke:#181818;stroke-width:1;"/><line style="stroke:#181818;stroke-width:1;" x1="652.6343" x2="652.6343" y1="169.9316" y2="243.0124"/><polygon fill="#FFFFFF" points="652.6343,169.9316,645.6343,188.9316,659.6343,188.9316,652.6343,169.9316" style="stroke:#181818;stroke-width:1;"/><line style="stroke:#181818;stroke-width:1;" x1="616.5835" x2="616.5835" y1="169.9316" y2="197.2422"/><line style="stroke:#181818;stroke-width:1;" x1="616.5835" x2="104.9692" y1="197.2422" y2="197.2422"/><line style="stroke:#181818;stroke-width:1;" x1="104.9692" x2="104.9692" y1="197.2422" y2="245.8975"/><polygon fill="#FFFFFF" points="616.5835,169.9316,609.5835,188.9316,623.5835,188.9316,616.5835,169.9316" style="stroke:#181818;stroke-width:1;"/><line style="stroke:#181818;stroke-width:1;" x1="673.9648" x2="673.9648" y1="275.0124" y2="419.1055"/><polygon fill="#FFFFFF" points="673.9648,275.0124,666.9648,294.0124,680.9648,294.0124,673.9648,275.0124" style="stroke:#181818;stroke-width:1;"/><line style="stroke:#181818;stroke-width:1;" x1="634.6089" x2="634.6089" y1="169.9316" y2="207.2422"/><line style="stroke:#181818;stroke-width:1;" x1="634.6089" x2="405.721" y1="207.2422" y2="207.2422"/><line style="stroke:#181818;stroke-width:1;" x1="405.721" x2="405.721" y1="207.2422" y2="243.0124"/><polygon fill="#FFFFFF" points="634.6089,169.9316,627.6089,188.9316,641.6089,188.9316,634.6089,169.9316" style="stroke:#181818;stroke-width:1;"/><line style="stroke:#181818;stroke-width:1;" x1="391.1706" x2="391.1706" y1="275.0124" y2="296.5527"/><line style="stroke:#181818;stroke-width:1;" x1="391.1706" x2="278.3311" y1="296.5527" y2="296.5527"/><line style="stroke:#181818;stroke-width:1;" x1="278.3311" x2="278.3311" y1="296.5527" y2="419.1055"/><polygon fill="#FFFFFF" points="391.1706,275.0124,384.1706,294.0124,398.1706,294.0124,391.1706,275.0124" style="stroke:#181818;stroke-width:1;"/><line style="stroke:#181818;stroke-width:1;" x1="420.2715" x2="420.2715" y1="275.0124" y2="419.1055"/><polygon fill="#FFFFFF" points="420.2715,275.0124,413.2715,294.0124,427.2715,294.0124,420.2715,275.0124" style="stroke:#181818;stroke-width:1;"/><line style="stroke:#181818;stroke-width:1;" x1="631.3037" x2="631.3037" y1="275.0124" y2="296.5527"/><line style="stroke:#181818;stroke-width:1;" x1="631.3037" x2="552.9731" y1="296.5527" y2="296.5527"/><line style="stroke:#181818;stroke-width:1;" x1="552.9731" x2="552.9731" y1="296.5527" y2="419.1055"/><polygon fill="#FFFFFF" points="631.3037,275.0124,624.3037,294.0124,638.3037,294.0124,631.3037,275.0124" style="stroke:#181818;stroke-width:1;"/><line style="stroke:#181818;stroke-width:1;" x1="104.9692" x2="104.9692" y1="277.8975" y2="419.1055"/><polygon fill="#FFFFFF" points="104.9692,277.8975,97.9692,296.8975,111.9692,296.8975,104.9692,277.8975" style="stroke:#181818;stroke-width:1;"/><line style="stroke:#181818;stroke-width:1;" x1="1228.2375" x2="1228.2375" y1="169.9316" y2="197.2422"/><line style="stroke:#181818;stroke-width:1;" x1="1228.2375" x2="1195.5512" y1="197.2422" y2="197.2422"/><line style="stroke:#181818;stroke-width:1;" x1="1195.5512" x2="1195.5512" y1="197.2422" y2="565.0371"/><polygon fill="#181818" points="1195.5512,565.0371,1199.5512,556.0371,1195.5512,560.0371,1191.5512,556.0371,1195.5512,565.0371" style="stroke:#181818;stroke-width:1;"/><text fill="#000000" font-family="sans-serif" font-size="13" lengthAdjust="spacing" textLength="60.9185" x="1130.6327" y="344.0869">manage &#9656;</text><text fill="#000000" font-family="sans-serif" font-size="13" lengthAdjust="spacing" textLength="8.2202" x="1231.2375" y="184.5">1</text><text fill="#000000" font-family="sans-serif" font-size="13" lengthAdjust="spacing" textLength="8.2202" x="1198.5512" y="560.2949">1</text><line style="stroke:#181818;stroke-width:1;" x1="1245.61" x2="1245.61" y1="269.2422" y2="296.5527"/><line style="stroke:#181818;stroke-width:1;" x1="1245.61" x2="1098.0167" y1="296.5527" y2="296.5527"/><line style="stroke:#181818;stroke-width:1;" x1="1098.0167" x2="1098.0167" y1="296.5527" y2="419.1055"/><polygon fill="#181818" points="1245.61,269.2422,1241.61,275.2422,1245.61,281.2422,1249.61,275.2422,1245.61,269.2422" style="stroke:#181818;stroke-width:1;"/><text fill="#000000" font-family="sans-serif" font-size="13" lengthAdjust="spacing" textLength="67.5454" x="1026.4713" y="344.0869">manages &#9656;</text><text fill="#000000" font-family="sans-serif" font-size="13" lengthAdjust="spacing" textLength="8.2202" x="1248.61" y="283.8105">1</text><text fill="#000000" font-family="sans-serif" font-size="13" lengthAdjust="spacing" textLength="8.2202" x="1101.0167" y="414.3633">1</text><line style="stroke:#181818;stroke-width:1;" x1="1275.1073" x2="1275.1073" y1="269.2422" y2="710.9688"/><polygon fill="#181818" points="1275.1073,710.9688,1279.1073,701.9688,1275.1073,705.9688,1271.1073,701.9688,1275.1073,710.9688" style="stroke:#181818;stroke-width:1;"/><text fill="#000000" font-family="sans-serif" font-size="13" lengthAdjust="spacing" textLength="62.5562" x="1208.5512" y="502.9844">hasTurn &#9656;</text><text fill="#000000" font-family="sans-serif" font-size="13" lengthAdjust="spacing" textLength="8.2202" x="1278.1073" y="283.8105">1</text><text fill="#000000" font-family="sans-serif" font-size="13" lengthAdjust="spacing" textLength="8.2202" x="1278.1073" y="706.2266">1</text><line style="stroke:#8E8E8E;stroke-width:1;" x1="1304.6046" x2="1304.6046" y1="269.2422" y2="296.5527"/><line style="stroke:#8E8E8E;stroke-width:1;" x1="1304.6046" x2="1580.2973" y1="296.5527" y2="296.5527"/><line style="stroke:#8E8E8E;stroke-width:1;" x1="1580.2973" x2="1580.2973" y1="296.5527" y2="419.1055"/><polygon fill="#8E8E8E" points="1580.2973,419.1055,1584.2973,410.1055,1580.2973,414.1055,1576.2973,410.1055,1580.2973,419.1055" style="stroke:#8E8E8E;stroke-width:1;"/><text fill="#000000" font-family="sans-serif" font-size="13" lengthAdjust="spacing" textLength="95.3799" x="1384.5123" y="321.1211">usesStatically &#9656;</text><text fill="#8E8E8E" font-family="sans-serif" font-size="13" font-weight="bold" lengthAdjust="spacing" textLength="34.3916" x="1320.9406" y="336.4316">Note:</text><text fill="#8E8E8E" font-family="sans-serif" font-size="13" lengthAdjust="spacing" textLength="184.0186" x="1359.4455" y="336.4316">This is not a real association.</text><text fill="#8E8E8E" font-family="sans-serif" font-size="13" lengthAdjust="spacing" textLength="240.2334" x="1312.0856" y="351.7422">We only indicate that the ChessEngine</text><text fill="#8E8E8E" font-family="sans-serif" font-size="13" lengthAdjust="spacing" textLength="288.1899" x="1288.1073" y="367.0527">class uses the ChessBoardInitializer statically.</text><line style="stroke:#181818;stroke-width:1;" x1="1098.0167" x2="1098.0167" y1="451.1055" y2="478.416"/><line style="stroke:#181818;stroke-width:1;" x1="1098.0167" x2="1160.8061" y1="478.416" y2="478.416"/><line style="stroke:#181818;stroke-width:1;" x1="1160.8061" x2="1160.8061" y1="478.416" y2="565.0371"/><polygon fill="#181818" points="1098.0167,451.1055,1094.0167,457.1055,1098.0167,463.1055,1102.0167,457.1055,1098.0167,451.1055" style="stroke:#181818;stroke-width:1;"/><text fill="#000000" font-family="sans-serif" font-size="13" lengthAdjust="spacing" textLength="32.8809" x="1123.9252" y="502.9844">has &#9656;</text><text fill="#000000" font-family="sans-serif" font-size="13" lengthAdjust="spacing" textLength="8.2202" x="1101.0167" y="465.6738">1</text><text fill="#000000" font-family="sans-serif" font-size="13" lengthAdjust="spacing" textLength="8.2202" x="1163.8061" y="560.2949">1</text><line style="stroke:#181818;stroke-width:1;" x1="1070.1737" x2="1070.1737" y1="451.1055" y2="565.0371"/><polygon fill="#181818" points="1070.1737,451.1055,1066.1737,457.1055,1070.1737,463.1055,1074.1737,457.1055,1070.1737,451.1055" style="stroke:#181818;stroke-width:1;"/><text fill="#000000" font-family="sans-serif" font-size="13" lengthAdjust="spacing" textLength="90.8857" x="975.288" y="502.9844">composedOf &#9656;</text><text fill="#000000" font-family="sans-serif" font-size="13" lengthAdjust="spacing" textLength="8.2202" x="1073.1737" y="465.6738">1</text><text fill="#000000" font-family="sans-serif" font-size="13" lengthAdjust="spacing" textLength="32.8872" x="1073.1737" y="560.2949">2..32</text><line style="stroke:#181818;stroke-width:1;" x1="1042.3307" x2="1042.3307" y1="451.1055" y2="478.416"/><line style="stroke:#181818;stroke-width:1;" x1="1042.3307" x2="828.5317" y1="478.416" y2="478.416"/><line style="stroke:#181818;stroke-width:1;" x1="828.5317" x2="828.5317" y1="478.416" y2="565.0371"/><polygon fill="#181818" points="1042.3307,451.1055,1038.3307,457.1055,1042.3307,463.1055,1046.3307,457.1055,1042.3307,451.1055" style="stroke:#181818;stroke-width:1;"/><text fill="#000000" font-family="sans-serif" font-size="13" lengthAdjust="spacing" textLength="49.2515" x="775.2803" y="502.9844">tracks &#9656;</text><text fill="#000000" font-family="sans-serif" font-size="13" lengthAdjust="spacing" textLength="8.2202" x="1045.3307" y="465.6738">1</text><text fill="#000000" font-family="sans-serif" font-size="13" lengthAdjust="spacing" textLength="8.2202" x="831.5317" y="560.2949">2</text><line style="stroke:#181818;stroke-width:1;" x1="1029.4103" x2="1029.4103" y1="597.0371" y2="634.3477"/><line style="stroke:#181818;stroke-width:1;" x1="1029.4103" x2="803.8799" y1="634.3477" y2="634.3477"/><line style="stroke:#181818;stroke-width:1;" x1="803.8799" x2="803.8799" y1="634.3477" y2="710.9688"/><polygon fill="#181818" points="803.8799,710.9688,807.8799,701.9688,803.8799,705.9688,799.8799,701.9688,803.8799,710.9688" style="stroke:#181818;stroke-width:1;"/><text fill="#000000" font-family="sans-serif" font-size="13" lengthAdjust="spacing" textLength="77.7397" x="722.1401" y="668.916">represents &#9656;</text><text fill="#000000" font-family="sans-serif" font-size="13" lengthAdjust="spacing" textLength="8.2202" x="1032.4103" y="611.6055">1</text><text fill="#000000" font-family="sans-serif" font-size="13" lengthAdjust="spacing" textLength="8.2202" x="806.8799" y="706.2266">1</text><line style="stroke:#181818;stroke-width:1;" x1="1075.2691" x2="1075.2691" y1="597.0371" y2="634.3477"/><line style="stroke:#181818;stroke-width:1;" x1="1075.2691" x2="1238.7672" y1="634.3477" y2="634.3477"/><line style="stroke:#181818;stroke-width:1;" x1="1238.7672" x2="1238.7672" y1="634.3477" y2="710.9688"/><polygon fill="#181818" points="1238.7672,710.9688,1242.7672,701.9688,1238.7672,705.9688,1234.7672,701.9688,1238.7672,710.9688" style="stroke:#181818;stroke-width:1;"/><text fill="#000000" font-family="sans-serif" font-size="13" lengthAdjust="spacing" textLength="77.1812" x="1157.586" y="668.916">belongsTo &#9656;</text><text fill="#000000" font-family="sans-serif" font-size="13" lengthAdjust="spacing" textLength="8.2202" x="1078.2691" y="611.6055">1</text><text fill="#000000" font-family="sans-serif" font-size="13" lengthAdjust="spacing" textLength="8.2202" x="1241.7672" y="706.2266">1</text><line style="stroke:#181818;stroke-width:1;" x1="1044.6966" x2="1044.6966" y1="597.0371" y2="644.3477"/><line style="stroke:#181818;stroke-width:1;" x1="1044.6966" x2="963.636" y1="644.3477" y2="644.3477"/><line style="stroke:#181818;stroke-width:1;" x1="963.636" x2="963.636" y1="644.3477" y2="768.2023"/><polygon fill="#181818" points="1044.6966,597.0371,1040.6966,603.0371,1044.6966,609.0371,1048.6966,603.0371,1044.6966,597.0371" style="stroke:#181818;stroke-width:1;"/><text fill="#000000" font-family="sans-serif" font-size="13" lengthAdjust="spacing" textLength="90.8857" x="868.7503" y="668.916">composedOf &#9656;</text><text fill="#000000" font-family="sans-serif" font-size="13" lengthAdjust="spacing" textLength="8.2202" x="1047.6966" y="611.6055">1</text><text fill="#000000" font-family="sans-serif" font-size="13" lengthAdjust="spacing" textLength="22.7119" x="966.636" y="763.4602">1..*</text><line style="stroke:#181818;stroke-width:1;" x1="1170.8003" x2="1170.8003" y1="1057.8301" y2="1151.7617"/><polygon fill="none" points="1170.8003,1057.8301,1166.8003,1063.8301,1170.8003,1069.8301,1174.8003,1063.8301,1170.8003,1057.8301" style="stroke:#181818;stroke-width:1;"/><text fill="#000000" font-family="sans-serif" font-size="13" lengthAdjust="spacing" textLength="56.9067" x="1109.8936" y="1109.709">defines &#9656;</text><text fill="#000000" font-family="sans-serif" font-size="13" lengthAdjust="spacing" textLength="8.2202" x="1173.8003" y="1072.3984">1</text><text fill="#000000" font-family="sans-serif" font-size="13" lengthAdjust="spacing" textLength="22.7119" x="1173.8003" y="1147.0195">1..*</text><line style="stroke:#181818;stroke-width:1;" x1="796.5587" x2="796.5587" y1="931.8984" y2="998.5195"/><line style="stroke:#181818;stroke-width:1;" x1="796.5587" x2="1141.965" y1="998.5195" y2="998.5195"/><line style="stroke:#181818;stroke-width:1;" x1="1141.965" x2="1141.965" y1="998.5195" y2="1025.8301"/><polygon fill="#181818" points="796.5587,931.8984,792.5587,937.8984,796.5587,943.8984,800.5587,937.8984,796.5587,931.8984" style="stroke:#181818;stroke-width:1;"/><text fill="#000000" font-family="sans-serif" font-size="13" lengthAdjust="spacing" textLength="39.5713" x="752.9874" y="983.7773">uses &#9656;</text><text fill="#000000" font-family="sans-serif" font-size="13" lengthAdjust="spacing" textLength="8.2202" x="799.5587" y="946.4668">1</text><text fill="#000000" font-family="sans-serif" font-size="13" lengthAdjust="spacing" textLength="22.7119" x="1144.965" y="1021.0879">1..*</text><line style="stroke:#181818;stroke-width:1;" x1="670.6597" x2="670.6597" y1="169.9316" y2="207.2422"/><line style="stroke:#181818;stroke-width:1;" x1="670.6597" x2="751.2803" y1="207.2422" y2="207.2422"/><line style="stroke:#181818;stroke-width:1;" x1="751.2803" x2="751.2803" y1="207.2422" y2="527.7266"/><line style="stroke:#181818;stroke-width:1;" x1="751.2803" x2="794.0946" y1="527.7266" y2="527.7266"/><line style="stroke:#181818;stroke-width:1;" x1="794.0946" x2="794.0946" y1="527.7266" y2="565.0371"/><polygon fill="#181818" points="670.6597,169.9316,666.6597,175.9316,670.6597,181.9316,674.6597,175.9316,670.6597,169.9316" style="stroke:#181818;stroke-width:1;"/><text fill="#000000" font-family="sans-serif" font-size="13" lengthAdjust="spacing" textLength="60.3154" x="686.9648" y="344.0869">startsAt &#9656;</text><text fill="#000000" font-family="sans-serif" font-size="13" lengthAdjust="spacing" textLength="8.2202" x="673.6597" y="184.5">1</text><text fill="#000000" font-family="sans-serif" font-size="13" lengthAdjust="spacing" textLength="8.2202" x="797.0946" y="560.2949">1</text><line style="stroke:#181818;stroke-width:1;" x1="688.6851" x2="688.6851" y1="169.9316" y2="197.2422"/><line style="stroke:#181818;stroke-width:1;" x1="688.6851" x2="762.2803" y1="197.2422" y2="197.2422"/><line style="stroke:#181818;stroke-width:1;" x1="762.2803" x2="762.2803" y1="197.2422" y2="517.7266"/><line style="stroke:#181818;stroke-width:1;" x1="762.2803" x2="811.3132" y1="517.7266" y2="517.7266"/><line style="stroke:#181818;stroke-width:1;" x1="811.3132" x2="811.3132" y1="517.7266" y2="565.0371"/><polygon fill="#181818" points="688.6851,169.9316,684.6851,175.9316,688.6851,181.9316,692.6851,175.9316,688.6851,169.9316" style="stroke:#181818;stroke-width:1;"/><text fill="#000000" font-family="sans-serif" font-size="13" lengthAdjust="spacing" textLength="54.958" x="767.2803" y="344.0869">endsAt &#9656;</text><text fill="#000000" font-family="sans-serif" font-size="13" lengthAdjust="spacing" textLength="8.2202" x="691.6851" y="184.5">1</text><text fill="#000000" font-family="sans-serif" font-size="13" lengthAdjust="spacing" textLength="8.2202" x="814.3132" y="560.2949">1</text><line style="stroke:#181818;stroke-width:1;" x1="652.6343" x2="652.6343" y1="44" y2="137.9316"/><polygon fill="#181818" points="652.6343,44,648.6343,50,652.6343,56,656.6343,50,652.6343,44" style="stroke:#181818;stroke-width:1;"/><text fill="#000000" font-family="sans-serif" font-size="13" lengthAdjust="spacing" textLength="63.3687" x="585.2656" y="95.8789">includes &#9656;</text><text fill="#000000" font-family="sans-serif" font-size="13" lengthAdjust="spacing" textLength="8.2202" x="655.6343" y="58.5684">1</text><text fill="#000000" font-family="sans-serif" font-size="13" lengthAdjust="spacing" textLength="6.2651" x="655.6343" y="133.1895">*</text><line style="stroke:#181818;stroke-width:1;" x1="673.9648" x2="673.9648" y1="451.1055" y2="537.7266"/><line style="stroke:#181818;stroke-width:1;" x1="673.9648" x2="776.8761" y1="537.7266" y2="537.7266"/><line style="stroke:#181818;stroke-width:1;" x1="776.8761" x2="776.8761" y1="537.7266" y2="565.0371"/><polygon fill="#181818" points="673.9648,451.1055,669.9648,457.1055,673.9648,463.1055,677.9648,457.1055,673.9648,451.1055" style="stroke:#181818;stroke-width:1;"/><text fill="#000000" font-family="sans-serif" font-size="13" lengthAdjust="spacing" textLength="65.146" x="604.8188" y="502.9844">captures &#9656;</text><text fill="#000000" font-family="sans-serif" font-size="13" lengthAdjust="spacing" textLength="8.2202" x="676.9648" y="465.6738">1</text><text fill="#000000" font-family="sans-serif" font-size="13" lengthAdjust="spacing" textLength="8.2202" x="779.8761" y="560.2949">1</text><!--SRC=[bLVRZkes57tFLxYSXoEXGjlJbmeXfE4o368wS80f3srLcMGFiN1iP3jdIe_cD_ej_Pv-IUquYPqB8ygC8DXhhRszRmdVd0K-9XXHVE6fGa1FGKmYG92SrGKbe68UINy9AoN88LKW0taYx8m5JX0b3DJb38WBJV0s14zPDE62WK3VU-iXnLBU5LABaBCj-Giga8c1Z75uEkOYb0lqOKMZHno2XtlY2cw0RMCSyLV2ZkW5Kmc1ucUaE3fmfNY28Y8WL8Ip81XATQ4m2f1-PMvE2JuQXQ_Paddrpu9_qI69l3NpghinZxbK-vWegC0UTRGiO4gIkO1BPVUUCzM- -nROz-5tkOisByDXuSveXAG20Tpa8WW8qrzUT1ZG90Of9rfOS4f1L1XVttpaimGnYJa9eG7wY1oiCnNu5HyeR43oL6ZqRDIfCZJ-hU73BmHUMuJnGIg1GsK3ZZfZB263rbL9SgQG05FIwHMcFkRi-VEYOGR-LC2YcdATg0CaEON_HywfnfaPE-hCDdnqSQ_5EjiTSomYUupg9kKCJ8GRuV8iPkI6mLBoMwUICMjXTk058ufWgbjGU2RMN1BJ4zaIi3H1QpqcT7sOwgmbsrJc_c6ncsLNuyUxoJ8eMGH2sEcIRE6ix_PFsSLcjLfc5ykdnVnXPsKMsuVLEhly_3oRMU1oyJGFhXmcirI9Xt_-6cCjUCALsVIuHQxRvLnt6BrS1h-oDbe9s71-AW6jHaleaf5Zh6u4ZucCzH2x3Vmv1M2tUc6cPFk96c7_cN-1EUZnZfMUMDSYRx7JOiXYwYY5dQfGBI8tmwT4Ain2k9bWidUTrDmfMw4yJ5x8zwlD_cuptTh2rUNllZtExcqzRyhABj1_b7lbYWELAWxbbYpCPCGbGbxjShFhTVPMdohIVPyjLp9T07CkFgjKl0kPiRN-mCnLRKMysNOJB1LjL5XLz96pOnDNB9ImRQoVDsx0sN8tkRhcOmst9ofkd3t_Rg9Od-kT7pgernjbd-w-D409PlW8wD-__yav-It2uBgzdiFRGLuGPCQe4me3tX3MZ1ZBNIfOWz7xzSDFOFv-rxJsIJz0gGIfGw58Y2cz68tVs32qZr2MFUfspGFMeDj5kvX8fFyPLmWZ0PWY7JGU4cn2rcymz_fna6bLmYAjhm2f62lz1lxTii6ocJ2EEMZ3Srdwt0-y-3N2cgT1nyZ5fmRzrE__-AdZZxa12dbovXAYrSjrMiVT7WV8rFV9is65Aaahxe4QBU0iG6PJyZr69Sq7qFFqA7UyZMBFtEztExKnrpXAq3g3ZGPt6cwq3L04BpfBrj7cDAmPRnMtLURrGDPpVggyG6e3GkaV1kwKxw5DN-POE_vANBVZZPM1Bi6Gfb7kXPjOLsH3s-aM_Hy0]--></g></svg>