<svg xmlns="http://www.w3.org/2000/svg" xmlns:xlink="http://www.w3.org/1999/xlink" contentStyleType="text/css" height="1477px" preserveAspectRatio="none" style="width:1581px;height:1477px;background:#FFFFFF;" version="1.1" viewBox="0 0 1581 1477" width="1581px" zoomAndPan="magnify"><defs/><g><!--class ChessController--><g id="elem_ChessController"><rect codeLine="24" fill="#F8F8FF" height="32" id="ChessController" style="stroke:#696969;stroke-width:0.5;" width="140.6094" x="894.5994" y="12"/><ellipse cx="909.5994" cy="28" fill="#B4A7E5" rx="11" ry="11" style="stroke:#181818;stroke-width:1;"/><path d="M906.0271,24.2651 L906.0271,22.1069 L913.4065,22.1069 L913.4065,24.2651 L910.9412,24.2651 L910.9412,32.3418 L913.4065,32.3418 L913.4065,34.5 L906.0271,34.5 L906.0271,32.3418 L908.4925,32.3418 L908.4925,24.2651 Z " fill="#000000"/><text fill="#696969" font-family="sans-serif" font-size="14" font-style="italic" lengthAdjust="spacing" textLength="108.6094" x="923.5994" y="33.291">ChessController</text></g><!--class UserChoice--><g id="elem_UserChoice"><rect codeLine="26" fill="#F8F8FF" height="32" id="UserChoice" style="stroke:#696969;stroke-width:0.5;" width="108.3574" x="107.2066" y="681.6582"/><ellipse cx="122.2066" cy="697.6582" fill="#B4A7E5" rx="11" ry="11" style="stroke:#181818;stroke-width:1;"/><path d="M118.6343,693.9233 L118.6343,691.7651 L126.0137,691.7651 L126.0137,693.9233 L123.5484,693.9233 L123.5484,702 L126.0137,702 L126.0137,704.1582 L118.6343,704.1582 L118.6343,702 L121.0997,702 L121.0997,693.9233 Z " fill="#000000"/><text fill="#696969" font-family="sans-serif" font-size="14" font-style="italic" lengthAdjust="spacing" textLength="76.3574" x="136.2066" y="702.9492">UserChoice</text></g><!--class ChessView--><g id="elem_ChessView"><rect codeLine="32" fill="#F8F8FF" height="32" id="ChessView" style="stroke:#696969;stroke-width:0.5;" width="104.2354" x="1096.7234" y="495.7266"/><ellipse cx="1111.7234" cy="511.7266" fill="#B4A7E5" rx="11" ry="11" style="stroke:#181818;stroke-width:1;"/><path d="M1108.1512,507.9917 L1108.1512,505.8335 L1115.5306,505.8335 L1115.5306,507.9917 L1113.0652,507.9917 L1113.0652,516.0684 L1115.5306,516.0684 L1115.5306,518.2266 L1108.1512,518.2266 L1108.1512,516.0684 L1110.6165,516.0684 L1110.6165,507.9917 Z " fill="#000000"/><text fill="#696969" font-family="sans-serif" font-size="14" font-style="italic" lengthAdjust="spacing" textLength="72.2354" x="1125.7234" y="517.0176">ChessView</text></g><!--class ChessEngine--><g id="elem_ChessEngine"><rect codeLine="59" fill="#FDF5E6" height="32" id="ChessEngine" style="stroke:#181818;stroke-width:0.5;" width="117.9893" x="1141.9913" y="137.9316"/><ellipse cx="1156.9913" cy="153.9316" fill="#ADD1B2" rx="11" ry="11" style="stroke:#181818;stroke-width:1;"/><path d="M1159.4644,160.0747 Q1158.8833,160.3735 1158.2442,160.5229 Q1157.605,160.6724 1156.8995,160.6724 Q1154.3926,160.6724 1153.0728,159.0205 Q1151.753,157.3687 1151.753,154.2476 Q1151.753,151.1182 1153.0728,149.4663 Q1154.3926,147.8145 1156.8995,147.8145 Q1157.605,147.8145 1158.2525,147.9639 Q1158.9,148.1133 1159.4644,148.4121 L1159.4644,151.1348 Q1158.8335,150.5537 1158.24,150.2839 Q1157.6465,150.0142 1157.0157,150.0142 Q1155.6709,150.0142 1154.9861,151.0808 Q1154.3013,152.1475 1154.3013,154.2476 Q1154.3013,156.3394 1154.9861,157.406 Q1155.6709,158.4727 1157.0157,158.4727 Q1157.6465,158.4727 1158.24,158.2029 Q1158.8335,157.9331 1159.4644,157.3521 Z " fill="#000000"/><text fill="#000000" font-family="sans-serif" font-size="14" lengthAdjust="spacing" textLength="85.9893" x="1170.9913" y="159.2227">ChessEngine</text></g><!--class ChessBoardWriter--><g id="elem_ChessBoardWriter"><rect codeLine="61" fill="#FDF5E6" height="32" id="ChessBoardWriter" style="stroke:#181818;stroke-width:0.5;" width="151.8887" x="952.4692" y="137.9316"/><ellipse cx="967.4692" cy="153.9316" fill="#B4A7E5" rx="11" ry="11" style="stroke:#181818;stroke-width:1;"/><path d="M963.8969,150.1968 L963.8969,148.0386 L971.2763,148.0386 L971.2763,150.1968 L968.811,150.1968 L968.811,158.2734 L971.2763,158.2734 L971.2763,160.4316 L963.8969,160.4316 L963.8969,158.2734 L966.3623,158.2734 L966.3623,150.1968 Z " fill="#000000"/><text fill="#000000" font-family="sans-serif" font-size="14" font-style="italic" lengthAdjust="spacing" textLength="119.8887" x="981.4692" y="159.2227">ChessBoardWriter</text></g><!--class ChessBoardReader--><g id="elem_ChessBoardReader"><rect codeLine="63" fill="#FDF5E6" height="32" id="ChessBoardReader" style="stroke:#181818;stroke-width:0.5;" width="158.0957" x="773.3735" y="349.7949"/><ellipse cx="788.3735" cy="365.7949" fill="#B4A7E5" rx="11" ry="11" style="stroke:#181818;stroke-width:1;"/><path d="M784.8012,362.0601 L784.8012,359.9019 L792.1806,359.9019 L792.1806,362.0601 L789.7153,362.0601 L789.7153,370.1367 L792.1806,370.1367 L792.1806,372.2949 L784.8012,372.2949 L784.8012,370.1367 L787.2666,370.1367 L787.2666,362.0601 Z " fill="#000000"/><text fill="#000000" font-family="sans-serif" font-size="14" font-style="italic" lengthAdjust="spacing" textLength="126.0957" x="802.3735" y="371.0859">ChessBoardReader</text></g><!--class ChessBoardController--><g id="elem_ChessBoardController"><rect codeLine="65" fill="#FDF5E6" height="32" id="ChessBoardController" style="stroke:#181818;stroke-width:0.5;" width="179.5332" x="1027.0988" y="349.7949"/><ellipse cx="1042.0988" cy="365.7949" fill="#ADD1B2" rx="11" ry="11" style="stroke:#181818;stroke-width:1;"/><path d="M1044.5719,371.938 Q1043.9909,372.2368 1043.3517,372.3862 Q1042.7125,372.5356 1042.007,372.5356 Q1039.5001,372.5356 1038.1803,370.8838 Q1036.8605,369.2319 1036.8605,366.1108 Q1036.8605,362.9814 1038.1803,361.3296 Q1039.5001,359.6777 1042.007,359.6777 Q1042.7125,359.6777 1043.36,359.8271 Q1044.0075,359.9766 1044.5719,360.2754 L1044.5719,362.998 Q1043.941,362.417 1043.3475,362.1472 Q1042.754,361.8774 1042.1232,361.8774 Q1040.7785,361.8774 1040.0936,362.9441 Q1039.4088,364.0107 1039.4088,366.1108 Q1039.4088,368.2026 1040.0936,369.2693 Q1040.7785,370.3359 1042.1232,370.3359 Q1042.754,370.3359 1043.3475,370.0662 Q1043.941,369.7964 1044.5719,369.2153 Z " fill="#000000"/><text fill="#000000" font-family="sans-serif" font-size="14" lengthAdjust="spacing" textLength="147.5332" x="1056.0988" y="371.0859">ChessBoardController</text></g><!--class Cloneable--><g id="elem_Cloneable"><rect codeLine="67" fill="#F8F8FF" height="32" id="Cloneable" style="stroke:#696969;stroke-width:0.5;" width="99.2109" x="1226.632" y="349.7949"/><ellipse cx="1241.632" cy="365.7949" fill="#B4A7E5" rx="11" ry="11" style="stroke:#181818;stroke-width:1;"/><path d="M1238.0597,362.0601 L1238.0597,359.9019 L1245.4391,359.9019 L1245.4391,362.0601 L1242.9738,362.0601 L1242.9738,370.1367 L1245.4391,370.1367 L1245.4391,372.2949 L1238.0597,372.2949 L1238.0597,370.1367 L1240.525,370.1367 L1240.525,362.0601 Z " fill="#000000"/><text fill="#696969" font-family="sans-serif" font-size="14" font-style="italic" lengthAdjust="spacing" textLength="67.2109" x="1255.632" y="371.0859">Cloneable</text></g><!--class ChessBoard--><g id="elem_ChessBoard"><rect codeLine="69" fill="#FDF5E6" height="32" id="ChessBoard" style="stroke:#181818;stroke-width:0.5;" width="111.3721" x="958.5499" y="495.7266"/><ellipse cx="973.5499" cy="511.7266" fill="#ADD1B2" rx="11" ry="11" style="stroke:#181818;stroke-width:1;"/><path d="M976.0231,517.8696 Q975.442,518.1685 974.8029,518.3179 Q974.1637,518.4673 973.4581,518.4673 Q970.9513,518.4673 969.6315,516.8154 Q968.3117,515.1636 968.3117,512.0425 Q968.3117,508.9131 969.6315,507.2612 Q970.9513,505.6094 973.4581,505.6094 Q974.1637,505.6094 974.8112,505.7588 Q975.4586,505.9082 976.0231,506.207 L976.0231,508.9297 Q975.3922,508.3486 974.7987,508.0789 Q974.2052,507.8091 973.5743,507.8091 Q972.2296,507.8091 971.5448,508.8757 Q970.86,509.9424 970.86,512.0425 Q970.86,514.1343 971.5448,515.2009 Q972.2296,516.2676 973.5743,516.2676 Q974.2052,516.2676 974.7987,515.9978 Q975.3922,515.728 976.0231,515.147 Z " fill="#000000"/><text fill="#000000" font-family="sans-serif" font-size="14" lengthAdjust="spacing" textLength="79.3721" x="987.5499" y="517.0176">ChessBoard</text></g><!--class ChessBoardInitializer--><g id="elem_ChessBoardInitializer"><rect codeLine="71" fill="#FDF5E6" height="32" id="ChessBoardInitializer" style="stroke:#181818;stroke-width:0.5;" width="174.8027" x="1389.2771" y="349.7949"/><ellipse cx="1404.2771" cy="365.7949" fill="#A9DCDF" rx="11" ry="11" style="stroke:#181818;stroke-width:1;"/><path d="M1404.1404,361.1431 L1402.9866,366.2148 L1405.3025,366.2148 Z M1402.6463,358.9019 L1405.6429,358.9019 L1408.9881,371.2949 L1406.5394,371.2949 L1405.7757,368.2319 L1402.4969,368.2319 L1401.7498,371.2949 L1399.3011,371.2949 Z " fill="#000000"/><text fill="#000000" font-family="sans-serif" font-size="14" font-style="italic" lengthAdjust="spacing" textLength="142.8027" x="1418.2771" y="371.0859">ChessBoardInitializer</text></g><!--class Position--><g id="elem_Position"><rect codeLine="73" fill="#FDF5E6" height="32" id="Position" style="stroke:#181818;stroke-width:0.5;" width="86.0928" x="235.564" y="681.6582"/><ellipse cx="250.564" cy="697.6582" fill="#ADD1B2" rx="11" ry="11" style="stroke:#181818;stroke-width:1;"/><path d="M253.0372,703.8013 Q252.4561,704.1001 251.817,704.2495 Q251.1778,704.3989 250.4722,704.3989 Q247.9654,704.3989 246.6456,702.7471 Q245.3258,701.0952 245.3258,697.9741 Q245.3258,694.8447 246.6456,693.1929 Q247.9654,691.541 250.4722,691.541 Q251.1778,691.541 251.8253,691.6904 Q252.4727,691.8398 253.0372,692.1387 L253.0372,694.8613 Q252.4063,694.2803 251.8128,694.0105 Q251.2193,693.7407 250.5884,693.7407 Q249.2437,693.7407 248.5589,694.8074 Q247.8741,695.874 247.8741,697.9741 Q247.8741,700.0659 248.5589,701.1326 Q249.2437,702.1992 250.5884,702.1992 Q251.2193,702.1992 251.8128,701.9294 Q252.4063,701.6597 253.0372,701.0786 Z " fill="#000000"/><text fill="#000000" font-family="sans-serif" font-size="14" lengthAdjust="spacing" textLength="54.0928" x="264.564" y="702.9492">Position</text></g><!--class PlayerColor--><g id="elem_PlayerColor"><rect codeLine="75" fill="#F8F8FF" height="72.9766" id="PlayerColor" style="stroke:#696969;stroke-width:0.5;" width="109.0205" x="1147.5735" y="847.5898"/><ellipse cx="1162.5735" cy="863.5898" fill="#EB937F" rx="11" ry="11" style="stroke:#181818;stroke-width:1;"/><path d="M1166.1878,870.0898 L1158.4681,870.0898 L1158.4681,857.6968 L1166.1878,857.6968 L1166.1878,859.855 L1160.9168,859.855 L1160.9168,862.5278 L1165.6898,862.5278 L1165.6898,864.686 L1160.9168,864.686 L1160.9168,867.9316 L1166.1878,867.9316 Z " fill="#000000"/><text fill="#696969" font-family="sans-serif" font-size="14" lengthAdjust="spacing" textLength="77.0205" x="1176.5735" y="868.8809">PlayerColor</text><line style="stroke:#696969;stroke-width:0.5;" x1="1148.5735" x2="1255.5941" y1="879.5898" y2="879.5898"/><text fill="#696969" font-family="sans-serif" font-size="14" lengthAdjust="spacing" textLength="42.7383" x="1153.5735" y="897.125">WHITE</text><text fill="#696969" font-family="sans-serif" font-size="14" lengthAdjust="spacing" textLength="44.0029" x="1153.5735" y="913.6133">BLACK</text></g><!--class PieceType--><g id="elem_PieceType"><rect codeLine="80" fill="#F8F8FF" height="138.9297" id="PieceType" style="stroke:#696969;stroke-width:0.5;" width="99.334" x="873.1058" y="847.5898"/><ellipse cx="888.1058" cy="863.5898" fill="#EB937F" rx="11" ry="11" style="stroke:#181818;stroke-width:1;"/><path d="M891.72,870.0898 L884.0003,870.0898 L884.0003,857.6968 L891.72,857.6968 L891.72,859.855 L886.449,859.855 L886.449,862.5278 L891.222,862.5278 L891.222,864.686 L886.449,864.686 L886.449,867.9316 L891.72,867.9316 Z " fill="#000000"/><text fill="#696969" font-family="sans-serif" font-size="14" lengthAdjust="spacing" textLength="67.334" x="902.1058" y="868.8809">PieceType</text><line style="stroke:#696969;stroke-width:0.5;" x1="874.1058" x2="971.4398" y1="879.5898" y2="879.5898"/><text fill="#696969" font-family="sans-serif" font-size="14" lengthAdjust="spacing" textLength="39.7168" x="879.1058" y="897.125">PAWN</text><text fill="#696969" font-family="sans-serif" font-size="14" lengthAdjust="spacing" textLength="39.7441" x="879.1058" y="913.6133">ROOK</text><text fill="#696969" font-family="sans-serif" font-size="14" lengthAdjust="spacing" textLength="52.7734" x="879.1058" y="930.1016">KNIGHT</text><text fill="#696969" font-family="sans-serif" font-size="14" lengthAdjust="spacing" textLength="48.5283" x="879.1058" y="946.5898">BISHOP</text><text fill="#696969" font-family="sans-serif" font-size="14" lengthAdjust="spacing" textLength="46.0947" x="879.1058" y="963.0781">QUEEN</text><text fill="#696969" font-family="sans-serif" font-size="14" lengthAdjust="spacing" textLength="33.6328" x="879.1058" y="979.5664">KING</text></g><!--class ChessPiece--><g id="elem_ChessPiece"><rect codeLine="89" fill="#FDF5E6" height="32" id="ChessPiece" style="stroke:#181818;stroke-width:0.5;" width="107.0039" x="719.5719" y="681.6582"/><ellipse cx="734.5719" cy="697.6582" fill="#A9DCDF" rx="11" ry="11" style="stroke:#181818;stroke-width:1;"/><path d="M734.4352,693.0063 L733.2814,698.0781 L735.5973,698.0781 Z M732.9411,690.7651 L735.9377,690.7651 L739.2829,703.1582 L736.8341,703.1582 L736.0705,700.0952 L732.7917,700.0952 L732.0446,703.1582 L729.5959,703.1582 Z " fill="#000000"/><text fill="#000000" font-family="sans-serif" font-size="14" font-style="italic" lengthAdjust="spacing" textLength="75.0039" x="748.5719" y="702.9492">ChessPiece</text></g><!--class PromotableChessPiece--><g id="elem_PromotableChessPiece"><rect codeLine="90" fill="#FDF5E6" height="32" id="PromotableChessPiece" style="stroke:#181818;stroke-width:0.5;" width="184.3662" x="99.9299" y="913.1061"/><ellipse cx="114.9299" cy="929.1061" fill="#A9DCDF" rx="11" ry="11" style="stroke:#181818;stroke-width:1;"/><path d="M114.7932,924.4543 L113.6394,929.526 L115.9553,929.526 Z M113.2991,922.2131 L116.2956,922.2131 L119.6409,934.6061 L117.1921,934.6061 L116.4285,931.5431 L113.1496,931.5431 L112.4026,934.6061 L109.9538,934.6061 Z " fill="#000000"/><text fill="#000000" font-family="sans-serif" font-size="14" font-style="italic" lengthAdjust="spacing" textLength="152.3662" x="128.9299" y="934.3971">PromotableChessPiece</text></g><!--class Pawn--><g id="elem_Pawn"><rect codeLine="91" fill="#FDF5E6" height="32" id="Pawn" style="stroke:#181818;stroke-width:0.5;" width="66.9453" x="786.1605" y="847.5898"/><ellipse cx="801.1605" cy="863.5898" fill="#ADD1B2" rx="11" ry="11" style="stroke:#181818;stroke-width:1;"/><path d="M803.6336,869.7329 Q803.0525,870.0317 802.4134,870.1812 Q801.7742,870.3306 801.0687,870.3306 Q798.5618,870.3306 797.242,868.6787 Q795.9222,867.0269 795.9222,863.9058 Q795.9222,860.7764 797.242,859.1245 Q798.5618,857.4727 801.0687,857.4727 Q801.7742,857.4727 802.4217,857.6221 Q803.0691,857.7715 803.6336,858.0703 L803.6336,860.793 Q803.0027,860.2119 802.4092,859.9421 Q801.8157,859.6724 801.1849,859.6724 Q799.8401,859.6724 799.1553,860.739 Q798.4705,861.8057 798.4705,863.9058 Q798.4705,865.9976 799.1553,867.0642 Q799.8401,868.1309 801.1849,868.1309 Q801.8157,868.1309 802.4092,867.8611 Q803.0027,867.5913 803.6336,867.0103 Z " fill="#000000"/><text fill="#000000" font-family="sans-serif" font-size="14" lengthAdjust="spacing" textLength="34.9453" x="815.1605" y="868.8809">Pawn</text></g><!--class Rook--><g id="elem_Rook"><rect codeLine="92" fill="#FDF5E6" height="32" id="Rook" style="stroke:#181818;stroke-width:0.5;" width="66.2344" x="195.4711" y="1046.5195"/><ellipse cx="210.4711" cy="1062.5195" fill="#ADD1B2" rx="11" ry="11" style="stroke:#181818;stroke-width:1;"/><path d="M212.9443,1068.6626 Q212.3632,1068.9614 211.7241,1069.1108 Q211.0849,1069.2603 210.3793,1069.2603 Q207.8725,1069.2603 206.5527,1067.6084 Q205.2328,1065.9565 205.2328,1062.8354 Q205.2328,1059.7061 206.5527,1058.0542 Q207.8725,1056.4023 210.3793,1056.4023 Q211.0849,1056.4023 211.7324,1056.5518 Q212.3798,1056.7012 212.9443,1057 L212.9443,1059.7227 Q212.3134,1059.1416 211.7199,1058.8718 Q211.1264,1058.6021 210.4955,1058.6021 Q209.1508,1058.6021 208.466,1059.6687 Q207.7812,1060.7354 207.7812,1062.8354 Q207.7812,1064.9272 208.466,1065.9939 Q209.1508,1067.0605 210.4955,1067.0605 Q211.1264,1067.0605 211.7199,1066.7908 Q212.3134,1066.521 212.9443,1065.9399 Z " fill="#000000"/><text fill="#000000" font-family="sans-serif" font-size="14" lengthAdjust="spacing" textLength="34.2344" x="224.4711" y="1067.8105">Rook</text></g><!--class Knight--><g id="elem_Knight"><rect codeLine="93" fill="#FDF5E6" height="32" id="Knight" style="stroke:#181818;stroke-width:0.5;" width="76.5293" x="281.7055" y="1046.5195"/><ellipse cx="296.7055" cy="1062.5195" fill="#ADD1B2" rx="11" ry="11" style="stroke:#181818;stroke-width:1;"/><path d="M299.1787,1068.6626 Q298.5976,1068.9614 297.9584,1069.1108 Q297.3193,1069.2603 296.6137,1069.2603 Q294.1069,1069.2603 292.787,1067.6084 Q291.4672,1065.9565 291.4672,1062.8354 Q291.4672,1059.7061 292.787,1058.0542 Q294.1069,1056.4023 296.6137,1056.4023 Q297.3193,1056.4023 297.9667,1056.5518 Q298.6142,1056.7012 299.1787,1057 L299.1787,1059.7227 Q298.5478,1059.1416 297.9543,1058.8718 Q297.3608,1058.6021 296.7299,1058.6021 Q295.3852,1058.6021 294.7004,1059.6687 Q294.0156,1060.7354 294.0156,1062.8354 Q294.0156,1064.9272 294.7004,1065.9939 Q295.3852,1067.0605 296.7299,1067.0605 Q297.3608,1067.0605 297.9543,1066.7908 Q298.5478,1066.521 299.1787,1065.9399 Z " fill="#000000"/><text fill="#000000" font-family="sans-serif" font-size="14" lengthAdjust="spacing" textLength="44.5293" x="310.7055" y="1067.8105">Knight</text></g><!--class Bishop--><g id="elem_Bishop"><rect codeLine="94" fill="#FDF5E6" height="32" id="Bishop" style="stroke:#181818;stroke-width:0.5;" width="77.3359" x="98.1352" y="1046.5195"/><ellipse cx="113.1352" cy="1062.5195" fill="#ADD1B2" rx="11" ry="11" style="stroke:#181818;stroke-width:1;"/><path d="M115.6083,1068.6626 Q115.0273,1068.9614 114.3881,1069.1108 Q113.749,1069.2603 113.0434,1069.2603 Q110.5366,1069.2603 109.2167,1067.6084 Q107.8969,1065.9565 107.8969,1062.8354 Q107.8969,1059.7061 109.2167,1058.0542 Q110.5366,1056.4023 113.0434,1056.4023 Q113.749,1056.4023 114.3964,1056.5518 Q115.0439,1056.7012 115.6083,1057 L115.6083,1059.7227 Q114.9775,1059.1416 114.384,1058.8718 Q113.7905,1058.6021 113.1596,1058.6021 Q111.8149,1058.6021 111.1301,1059.6687 Q110.4453,1060.7354 110.4453,1062.8354 Q110.4453,1064.9272 111.1301,1065.9939 Q111.8149,1067.0605 113.1596,1067.0605 Q113.7905,1067.0605 114.384,1066.7908 Q114.9775,1066.521 115.6083,1065.9399 Z " fill="#000000"/><text fill="#000000" font-family="sans-serif" font-size="14" lengthAdjust="spacing" textLength="45.3359" x="127.1352" y="1067.8105">Bishop</text></g><!--class Queen--><g id="elem_Queen"><rect codeLine="95" fill="#FDF5E6" height="32" id="Queen" style="stroke:#181818;stroke-width:0.5;" width="75.8525" x="378.2348" y="1046.5195"/><ellipse cx="393.2348" cy="1062.5195" fill="#ADD1B2" rx="11" ry="11" style="stroke:#181818;stroke-width:1;"/><path d="M395.7079,1068.6626 Q395.1269,1068.9614 394.4877,1069.1108 Q393.8486,1069.2603 393.143,1069.2603 Q390.6362,1069.2603 389.3163,1067.6084 Q387.9965,1065.9565 387.9965,1062.8354 Q387.9965,1059.7061 389.3163,1058.0542 Q390.6362,1056.4023 393.143,1056.4023 Q393.8486,1056.4023 394.496,1056.5518 Q395.1435,1056.7012 395.7079,1057 L395.7079,1059.7227 Q395.0771,1059.1416 394.4836,1058.8718 Q393.8901,1058.6021 393.2592,1058.6021 Q391.9145,1058.6021 391.2297,1059.6687 Q390.5449,1060.7354 390.5449,1062.8354 Q390.5449,1064.9272 391.2297,1065.9939 Q391.9145,1067.0605 393.2592,1067.0605 Q393.8901,1067.0605 394.4836,1066.7908 Q395.0771,1066.521 395.7079,1065.9399 Z " fill="#000000"/><text fill="#000000" font-family="sans-serif" font-size="14" lengthAdjust="spacing" textLength="43.8525" x="407.2348" y="1067.8105">Queen</text></g><!--class King--><g id="elem_King"><rect codeLine="96" fill="#FDF5E6" height="32" id="King" style="stroke:#181818;stroke-width:0.5;" width="62.6045" x="703.556" y="847.5898"/><ellipse cx="718.556" cy="863.5898" fill="#ADD1B2" rx="11" ry="11" style="stroke:#181818;stroke-width:1;"/><path d="M721.0291,869.7329 Q720.4481,870.0317 719.8089,870.1812 Q719.1697,870.3306 718.4642,870.3306 Q715.9573,870.3306 714.6375,868.6787 Q713.3177,867.0269 713.3177,863.9058 Q713.3177,860.7764 714.6375,859.1245 Q715.9573,857.4727 718.4642,857.4727 Q719.1697,857.4727 719.8172,857.6221 Q720.4647,857.7715 721.0291,858.0703 L721.0291,860.793 Q720.3983,860.2119 719.8047,859.9421 Q719.2112,859.6724 718.5804,859.6724 Q717.2357,859.6724 716.5508,860.739 Q715.866,861.8057 715.866,863.9058 Q715.866,865.9976 716.5508,867.0642 Q717.2357,868.1309 718.5804,868.1309 Q719.2112,868.1309 719.8047,867.8611 Q720.3983,867.5913 721.0291,867.0103 Z " fill="#000000"/><text fill="#000000" font-family="sans-serif" font-size="14" lengthAdjust="spacing" textLength="30.6045" x="732.556" y="868.8809">King</text></g><!--class MoveGenerator--><g id="elem_MoveGenerator"><rect codeLine="99" fill="#FDF5E6" height="32" id="MoveGenerator" style="stroke:#181818;stroke-width:0.5;" width="135.1338" x="992.4398" y="904.8234"/><ellipse cx="1007.4398" cy="920.8234" fill="#A9DCDF" rx="11" ry="11" style="stroke:#181818;stroke-width:1;"/><path d="M1007.303,916.1716 L1006.1492,921.2434 L1008.4651,921.2434 Z M1005.8089,913.9304 L1008.8055,913.9304 L1012.1507,926.3234 L1009.702,926.3234 L1008.9383,923.2604 L1005.6595,923.2604 L1004.9124,926.3234 L1002.4637,926.3234 Z " fill="#000000"/><text fill="#000000" font-family="sans-serif" font-size="14" font-style="italic" lengthAdjust="spacing" textLength="103.1338" x="1021.4398" y="926.1145">MoveGenerator</text></g><!--class DirectionalGenerator--><g id="elem_DirectionalGenerator"><rect codeLine="100" fill="#FDF5E6" height="32" id="DirectionalGenerator" style="stroke:#181818;stroke-width:0.5;" width="173.0117" x="1116.2714" y="1172.4512"/><ellipse cx="1131.2714" cy="1188.4512" fill="#ADD1B2" rx="11" ry="11" style="stroke:#181818;stroke-width:1;"/><path d="M1133.7445,1194.5942 Q1133.1635,1194.8931 1132.5243,1195.0425 Q1131.8851,1195.1919 1131.1796,1195.1919 Q1128.6727,1195.1919 1127.3529,1193.54 Q1126.0331,1191.8882 1126.0331,1188.7671 Q1126.0331,1185.6377 1127.3529,1183.9858 Q1128.6727,1182.334 1131.1796,1182.334 Q1131.8851,1182.334 1132.5326,1182.4834 Q1133.1801,1182.6328 1133.7445,1182.9316 L1133.7445,1185.6543 Q1133.1137,1185.0732 1132.5202,1184.8035 Q1131.9267,1184.5337 1131.2958,1184.5337 Q1129.9511,1184.5337 1129.2663,1185.6003 Q1128.5814,1186.667 1128.5814,1188.7671 Q1128.5814,1190.8589 1129.2663,1191.9255 Q1129.9511,1192.9922 1131.2958,1192.9922 Q1131.9267,1192.9922 1132.5202,1192.7224 Q1133.1137,1192.4526 1133.7445,1191.8716 Z " fill="#000000"/><text fill="#000000" font-family="sans-serif" font-size="14" lengthAdjust="spacing" textLength="141.0117" x="1145.2714" y="1193.7422">DirectionalGenerator</text></g><!--class KnightGenerator--><g id="elem_KnightGenerator"><rect codeLine="101" fill="#FDF5E6" height="32" id="KnightGenerator" style="stroke:#181818;stroke-width:0.5;" width="143.959" x="1205.942" y="1046.5195"/><ellipse cx="1220.942" cy="1062.5195" fill="#ADD1B2" rx="11" ry="11" style="stroke:#181818;stroke-width:1;"/><path d="M1223.4151,1068.6626 Q1222.834,1068.9614 1222.1949,1069.1108 Q1221.5557,1069.2603 1220.8502,1069.2603 Q1218.3433,1069.2603 1217.0235,1067.6084 Q1215.7037,1065.9565 1215.7037,1062.8354 Q1215.7037,1059.7061 1217.0235,1058.0542 Q1218.3433,1056.4023 1220.8502,1056.4023 Q1221.5557,1056.4023 1222.2032,1056.5518 Q1222.8506,1056.7012 1223.4151,1057 L1223.4151,1059.7227 Q1222.7842,1059.1416 1222.1907,1058.8718 Q1221.5972,1058.6021 1220.9664,1058.6021 Q1219.6216,1058.6021 1218.9368,1059.6687 Q1218.252,1060.7354 1218.252,1062.8354 Q1218.252,1064.9272 1218.9368,1065.9939 Q1219.6216,1067.0605 1220.9664,1067.0605 Q1221.5972,1067.0605 1222.1907,1066.7908 Q1222.7842,1066.521 1223.4151,1065.9399 Z " fill="#000000"/><text fill="#000000" font-family="sans-serif" font-size="14" lengthAdjust="spacing" textLength="111.959" x="1234.942" y="1067.8105">KnightGenerator</text></g><!--class DistanceGenerator--><g id="elem_DistanceGenerator"><rect codeLine="102" fill="#FDF5E6" height="32" id="DistanceGenerator" style="stroke:#181818;stroke-width:0.5;" width="157.7266" x="947.3599" y="1046.5195"/><ellipse cx="962.3599" cy="1062.5195" fill="#ADD1B2" rx="11" ry="11" style="stroke:#181818;stroke-width:1;"/><path d="M964.8331,1068.6626 Q964.252,1068.9614 963.6129,1069.1108 Q962.9737,1069.2603 962.2681,1069.2603 Q959.7613,1069.2603 958.4415,1067.6084 Q957.1216,1065.9565 957.1216,1062.8354 Q957.1216,1059.7061 958.4415,1058.0542 Q959.7613,1056.4023 962.2681,1056.4023 Q962.9737,1056.4023 963.6212,1056.5518 Q964.2686,1056.7012 964.8331,1057 L964.8331,1059.7227 Q964.2022,1059.1416 963.6087,1058.8718 Q963.0152,1058.6021 962.3843,1058.6021 Q961.0396,1058.6021 960.3548,1059.6687 Q959.67,1060.7354 959.67,1062.8354 Q959.67,1064.9272 960.3548,1065.9939 Q961.0396,1067.0605 962.3843,1067.0605 Q963.0152,1067.0605 963.6087,1066.7908 Q964.2022,1066.521 964.8331,1065.9399 Z " fill="#000000"/><text fill="#000000" font-family="sans-serif" font-size="14" lengthAdjust="spacing" textLength="125.7266" x="976.3599" y="1067.8105">DistanceGenerator</text></g><!--class PawnDistanceGenerator--><g id="elem_PawnDistanceGenerator"><rect codeLine="103" fill="#FDF5E6" height="32" id="PawnDistanceGenerator" style="stroke:#181818;stroke-width:0.5;" width="192.6719" x="903.5995" y="1172.4512"/><ellipse cx="918.5995" cy="1188.4512" fill="#ADD1B2" rx="11" ry="11" style="stroke:#181818;stroke-width:1;"/><path d="M921.0726,1194.5942 Q920.4916,1194.8931 919.8524,1195.0425 Q919.2133,1195.1919 918.5077,1195.1919 Q916.0009,1195.1919 914.681,1193.54 Q913.3612,1191.8882 913.3612,1188.7671 Q913.3612,1185.6377 914.681,1183.9858 Q916.0009,1182.334 918.5077,1182.334 Q919.2133,1182.334 919.8607,1182.4834 Q920.5082,1182.6328 921.0726,1182.9316 L921.0726,1185.6543 Q920.4418,1185.0732 919.8483,1184.8035 Q919.2548,1184.5337 918.6239,1184.5337 Q917.2792,1184.5337 916.5944,1185.6003 Q915.9096,1186.667 915.9096,1188.7671 Q915.9096,1190.8589 916.5944,1191.9255 Q917.2792,1192.9922 918.6239,1192.9922 Q919.2548,1192.9922 919.8483,1192.7224 Q920.4418,1192.4526 921.0726,1191.8716 Z " fill="#000000"/><text fill="#000000" font-family="sans-serif" font-size="14" lengthAdjust="spacing" textLength="160.6719" x="932.5995" y="1193.7422">PawnDistanceGenerator</text></g><!--class Direction--><g id="elem_Direction"><rect codeLine="105" fill="#FDF5E6" height="171.9063" id="Direction" style="stroke:#181818;stroke-width:0.5;" width="146.1963" x="1129.6791" y="1298.3828"/><ellipse cx="1168.2558" cy="1314.3828" fill="#EB937F" rx="11" ry="11" style="stroke:#181818;stroke-width:1;"/><path d="M1171.87,1320.8828 L1164.1503,1320.8828 L1164.1503,1308.4897 L1171.87,1308.4897 L1171.87,1310.6479 L1166.599,1310.6479 L1166.599,1313.3208 L1171.372,1313.3208 L1171.372,1315.479 L1166.599,1315.479 L1166.599,1318.7246 L1171.87,1318.7246 Z " fill="#000000"/><text fill="#000000" font-family="sans-serif" font-size="14" lengthAdjust="spacing" textLength="61.8037" x="1187.495" y="1319.6738">Direction</text><line style="stroke:#181818;stroke-width:0.5;" x1="1130.6791" x2="1274.8754" y1="1330.3828" y2="1330.3828"/><text fill="#000000" font-family="sans-serif" font-size="14" lengthAdjust="spacing" textLength="75.749" x="1135.6791" y="1347.918">FORWARDS</text><text fill="#000000" font-family="sans-serif" font-size="14" lengthAdjust="spacing" textLength="85.0527" x="1135.6791" y="1364.4063">BACKWARDS</text><text fill="#000000" font-family="sans-serif" font-size="14" lengthAdjust="spacing" textLength="31.4111" x="1135.6791" y="1380.8945">LEFT</text><text fill="#000000" font-family="sans-serif" font-size="14" lengthAdjust="spacing" textLength="42.1436" x="1135.6791" y="1397.3828">RIGHT</text><text fill="#000000" font-family="sans-serif" font-size="14" lengthAdjust="spacing" textLength="114.1602" x="1135.6791" y="1413.8711">FORWARDS_LEFT</text><text fill="#000000" font-family="sans-serif" font-size="14" lengthAdjust="spacing" textLength="124.8926" x="1135.6791" y="1430.3594">FORWARDS_RIGHT</text><text fill="#000000" font-family="sans-serif" font-size="14" lengthAdjust="spacing" textLength="123.4639" x="1135.6791" y="1446.8477">BACKWARDS_LEFT</text><text fill="#000000" font-family="sans-serif" font-size="14" lengthAdjust="spacing" textLength="134.1963" x="1135.6791" y="1463.3359">BACKWARDS_RIGHT</text></g><!--class Moves--><g id="elem_Moves"><rect codeLine="116" fill="#FDF5E6" height="32" id="Moves" style="stroke:#181818;stroke-width:0.5;" width="74.8408" x="85.6898" y="12"/><ellipse cx="100.6898" cy="28" fill="#ADD1B2" rx="11" ry="11" style="stroke:#181818;stroke-width:1;"/><path d="M103.1629,34.1431 Q102.5819,34.4419 101.9427,34.5913 Q101.3036,34.7407 100.598,34.7407 Q98.0912,34.7407 96.7713,33.0889 Q95.4515,31.437 95.4515,28.3159 Q95.4515,25.1865 96.7713,23.5347 Q98.0912,21.8828 100.598,21.8828 Q101.3036,21.8828 101.951,22.0322 Q102.5985,22.1816 103.1629,22.4805 L103.1629,25.2031 Q102.5321,24.6221 101.9386,24.3523 Q101.3451,24.0825 100.7142,24.0825 Q99.3695,24.0825 98.6847,25.1492 Q97.9999,26.2158 97.9999,28.3159 Q97.9999,30.4077 98.6847,31.4744 Q99.3695,32.541 100.7142,32.541 Q101.3451,32.541 101.9386,32.2712 Q102.5321,32.0015 103.1629,31.4204 Z " fill="#000000"/><text fill="#000000" font-family="sans-serif" font-size="14" lengthAdjust="spacing" textLength="42.8408" x="114.6898" y="33.291">Moves</text></g><!--class ChessMove--><g id="elem_ChessMove"><rect codeLine="118" fill="#FDF5E6" height="32" id="ChessMove" style="stroke:#181818;stroke-width:0.5;" width="108.1523" x="69.034" y="137.9316"/><ellipse cx="84.034" cy="153.9316" fill="#A9DCDF" rx="11" ry="11" style="stroke:#181818;stroke-width:1;"/><path d="M83.8973,149.2798 L82.7435,154.3516 L85.0594,154.3516 Z M82.4032,147.0386 L85.3998,147.0386 L88.745,159.4316 L86.2962,159.4316 L85.5326,156.3687 L82.2538,156.3687 L81.5067,159.4316 L79.058,159.4316 Z " fill="#000000"/><text fill="#000000" font-family="sans-serif" font-size="14" font-style="italic" lengthAdjust="spacing" textLength="76.1523" x="98.034" y="159.2227">ChessMove</text></g><!--class StandardMove--><g id="elem_StandardMove"><rect codeLine="120" fill="#FDF5E6" height="32" id="StandardMove" style="stroke:#181818;stroke-width:0.5;" width="127.9834" x="20.4927" y="349.7949"/><ellipse cx="35.4927" cy="365.7949" fill="#ADD1B2" rx="11" ry="11" style="stroke:#181818;stroke-width:1;"/><path d="M37.9658,371.938 Q37.3848,372.2368 36.7456,372.3862 Q36.1064,372.5356 35.4009,372.5356 Q32.894,372.5356 31.5742,370.8838 Q30.2544,369.2319 30.2544,366.1108 Q30.2544,362.9814 31.5742,361.3296 Q32.894,359.6777 35.4009,359.6777 Q36.1064,359.6777 36.7539,359.8271 Q37.4014,359.9766 37.9658,360.2754 L37.9658,362.998 Q37.335,362.417 36.7415,362.1472 Q36.1479,361.8774 35.5171,361.8774 Q34.1724,361.8774 33.4875,362.9441 Q32.8027,364.0107 32.8027,366.1108 Q32.8027,368.2026 33.4875,369.2693 Q34.1724,370.3359 35.5171,370.3359 Q36.1479,370.3359 36.7415,370.0662 Q37.335,369.7964 37.9658,369.2153 Z " fill="#000000"/><text fill="#000000" font-family="sans-serif" font-size="14" lengthAdjust="spacing" textLength="95.9834" x="49.4927" y="371.0859">StandardMove</text></g><!--class Capture--><g id="elem_Capture"><rect codeLine="121" fill="#FDF5E6" height="32" id="Capture" style="stroke:#181818;stroke-width:0.5;" width="85.6826" x="515.9906" y="349.7949"/><ellipse cx="530.9906" cy="365.7949" fill="#ADD1B2" rx="11" ry="11" style="stroke:#181818;stroke-width:1;"/><path d="M533.4637,371.938 Q532.8826,372.2368 532.2435,372.3862 Q531.6043,372.5356 530.8988,372.5356 Q528.3919,372.5356 527.0721,370.8838 Q525.7523,369.2319 525.7523,366.1108 Q525.7523,362.9814 527.0721,361.3296 Q528.3919,359.6777 530.8988,359.6777 Q531.6043,359.6777 532.2518,359.8271 Q532.8993,359.9766 533.4637,360.2754 L533.4637,362.998 Q532.8328,362.417 532.2393,362.1472 Q531.6458,361.8774 531.015,361.8774 Q529.6702,361.8774 528.9854,362.9441 Q528.3006,364.0107 528.3006,366.1108 Q528.3006,368.2026 528.9854,369.2693 Q529.6702,370.3359 531.015,370.3359 Q531.6458,370.3359 532.2393,370.0662 Q532.8328,369.7964 533.4637,369.2153 Z " fill="#000000"/><text fill="#000000" font-family="sans-serif" font-size="14" lengthAdjust="spacing" textLength="53.6826" x="544.9906" y="371.0859">Capture</text></g><!--class EnPassant--><g id="elem_EnPassant"><rect codeLine="122" fill="#FDF5E6" height="32" id="EnPassant" style="stroke:#181818;stroke-width:0.5;" width="99.6758" x="134.3076" y="495.7266"/><ellipse cx="149.3076" cy="511.7266" fill="#ADD1B2" rx="11" ry="11" style="stroke:#181818;stroke-width:1;"/><path d="M151.7808,517.8696 Q151.1997,518.1685 150.5605,518.3179 Q149.9214,518.4673 149.2158,518.4673 Q146.709,518.4673 145.3892,516.8154 Q144.0693,515.1636 144.0693,512.0425 Q144.0693,508.9131 145.3892,507.2612 Q146.709,505.6094 149.2158,505.6094 Q149.9214,505.6094 150.5688,505.7588 Q151.2163,505.9082 151.7808,506.207 L151.7808,508.9297 Q151.1499,508.3486 150.5564,508.0789 Q149.9629,507.8091 149.332,507.8091 Q147.9873,507.8091 147.3025,508.8757 Q146.6177,509.9424 146.6177,512.0425 Q146.6177,514.1343 147.3025,515.2009 Q147.9873,516.2676 149.332,516.2676 Q149.9629,516.2676 150.5564,515.9978 Q151.1499,515.728 151.7808,515.147 Z " fill="#000000"/><text fill="#000000" font-family="sans-serif" font-size="14" lengthAdjust="spacing" textLength="67.6758" x="163.3076" y="517.0176">EnPassant</text></g><!--class Castling--><g id="elem_Castling"><rect codeLine="123" fill="#FDF5E6" height="32" id="Castling" style="stroke:#181818;stroke-width:0.5;" width="87.3027" x="358.5599" y="495.7266"/><ellipse cx="373.5599" cy="511.7266" fill="#A9DCDF" rx="11" ry="11" style="stroke:#181818;stroke-width:1;"/><path d="M373.4232,507.0747 L372.2694,512.1465 L374.5853,512.1465 Z M371.929,504.8335 L374.9256,504.8335 L378.2708,517.2266 L375.8221,517.2266 L375.0584,514.1636 L371.7796,514.1636 L371.0326,517.2266 L368.5838,517.2266 Z " fill="#000000"/><text fill="#000000" font-family="sans-serif" font-size="14" font-style="italic" lengthAdjust="spacing" textLength="55.3027" x="387.5599" y="517.0176">Castling</text></g><!--class LongCastling--><g id="elem_LongCastling"><rect codeLine="124" fill="#FDF5E6" height="32" id="LongCastling" style="stroke:#181818;stroke-width:0.5;" width="120.7852" x="578.7868" y="681.6582"/><ellipse cx="593.7868" cy="697.6582" fill="#ADD1B2" rx="11" ry="11" style="stroke:#181818;stroke-width:1;"/><path d="M596.2599,703.8013 Q595.6789,704.1001 595.0397,704.2495 Q594.4006,704.3989 593.695,704.3989 Q591.1882,704.3989 589.8683,702.7471 Q588.5485,701.0952 588.5485,697.9741 Q588.5485,694.8447 589.8683,693.1929 Q591.1882,691.541 593.695,691.541 Q594.4006,691.541 595.048,691.6904 Q595.6955,691.8398 596.2599,692.1387 L596.2599,694.8613 Q595.6291,694.2803 595.0356,694.0105 Q594.4421,693.7407 593.8112,693.7407 Q592.4665,693.7407 591.7817,694.8074 Q591.0968,695.874 591.0968,697.9741 Q591.0968,700.0659 591.7817,701.1326 Q592.4665,702.1992 593.8112,702.1992 Q594.4421,702.1992 595.0356,701.9294 Q595.6291,701.6597 596.2599,701.0786 Z " fill="#000000"/><text fill="#000000" font-family="sans-serif" font-size="14" lengthAdjust="spacing" textLength="88.7852" x="607.7868" y="702.9492">LongCastling</text></g><!--class ShortCastling--><g id="elem_ShortCastling"><rect codeLine="125" fill="#FDF5E6" height="32" id="ShortCastling" style="stroke:#181818;stroke-width:0.5;" width="123.0957" x="435.6911" y="681.6582"/><ellipse cx="450.6911" cy="697.6582" fill="#ADD1B2" rx="11" ry="11" style="stroke:#181818;stroke-width:1;"/><path d="M453.1642,703.8013 Q452.5832,704.1001 451.944,704.2495 Q451.3049,704.3989 450.5993,704.3989 Q448.0924,704.3989 446.7726,702.7471 Q445.4528,701.0952 445.4528,697.9741 Q445.4528,694.8447 446.7726,693.1929 Q448.0924,691.541 450.5993,691.541 Q451.3049,691.541 451.9523,691.6904 Q452.5998,691.8398 453.1642,692.1387 L453.1642,694.8613 Q452.5334,694.2803 451.9399,694.0105 Q451.3464,693.7407 450.7155,693.7407 Q449.3708,693.7407 448.686,694.8074 Q448.0011,695.874 448.0011,697.9741 Q448.0011,700.0659 448.686,701.1326 Q449.3708,702.1992 450.7155,702.1992 Q451.3464,702.1992 451.9399,701.9294 Q452.5334,701.6597 453.1642,701.0786 Z " fill="#000000"/><text fill="#000000" font-family="sans-serif" font-size="14" lengthAdjust="spacing" textLength="91.0957" x="464.6911" y="702.9492">ShortCastling</text></g><!--class Promotion--><g id="elem_Promotion"><rect codeLine="126" fill="#FDF5E6" height="32" id="Promotion" style="stroke:#181818;stroke-width:0.5;" width="102.3076" x="12" y="495.7266"/><ellipse cx="27" cy="511.7266" fill="#ADD1B2" rx="11" ry="11" style="stroke:#181818;stroke-width:1;"/><path d="M29.4731,517.8696 Q28.8921,518.1685 28.2529,518.3179 Q27.6138,518.4673 26.9082,518.4673 Q24.4014,518.4673 23.0815,516.8154 Q21.7617,515.1636 21.7617,512.0425 Q21.7617,508.9131 23.0815,507.2612 Q24.4014,505.6094 26.9082,505.6094 Q27.6138,505.6094 28.2612,505.7588 Q28.9087,505.9082 29.4731,506.207 L29.4731,508.9297 Q28.8423,508.3486 28.2488,508.0789 Q27.6553,507.8091 27.0244,507.8091 Q25.6797,507.8091 24.9949,508.8757 Q24.3101,509.9424 24.3101,512.0425 Q24.3101,514.1343 24.9949,515.2009 Q25.6797,516.2676 27.0244,516.2676 Q27.6553,516.2676 28.2488,515.9978 Q28.8423,515.728 29.4731,515.147 Z " fill="#000000"/><text fill="#000000" font-family="sans-serif" font-size="14" lengthAdjust="spacing" textLength="70.3076" x="41" y="517.0176">Promotion</text></g><!--class PromotionWithCapture--><g id="elem_PromotionWithCapture"><rect codeLine="127" fill="#FDF5E6" height="32" id="PromotionWithCapture" style="stroke:#181818;stroke-width:0.5;" width="185.9385" x="465.8626" y="495.7266"/><ellipse cx="480.8626" cy="511.7266" fill="#ADD1B2" rx="11" ry="11" style="stroke:#181818;stroke-width:1;"/><path d="M483.3358,517.8696 Q482.7547,518.1685 482.1156,518.3179 Q481.4764,518.4673 480.7708,518.4673 Q478.264,518.4673 476.9442,516.8154 Q475.6243,515.1636 475.6243,512.0425 Q475.6243,508.9131 476.9442,507.2612 Q478.264,505.6094 480.7708,505.6094 Q481.4764,505.6094 482.1239,505.7588 Q482.7713,505.9082 483.3358,506.207 L483.3358,508.9297 Q482.7049,508.3486 482.1114,508.0789 Q481.5179,507.8091 480.887,507.8091 Q479.5423,507.8091 478.8575,508.8757 Q478.1727,509.9424 478.1727,512.0425 Q478.1727,514.1343 478.8575,515.2009 Q479.5423,516.2676 480.887,516.2676 Q481.5179,516.2676 482.1114,515.9978 Q482.7049,515.728 483.3358,515.147 Z " fill="#000000"/><text fill="#000000" font-family="sans-serif" font-size="14" lengthAdjust="spacing" textLength="153.9385" x="494.8626" y="517.0176">PromotionWithCapture</text></g><line style="stroke:#181818;stroke-width:1;stroke-dasharray:7.0,7.0;" x1="988.339" x2="988.339" y1="44" y2="71.3105"/><line style="stroke:#181818;stroke-width:1;stroke-dasharray:7.0,7.0;" x1="988.339" x2="1200.9859" y1="71.3105" y2="71.3105"/><line style="stroke:#181818;stroke-width:1;stroke-dasharray:7.0,7.0;" x1="1200.9859" x2="1200.9859" y1="71.3105" y2="137.9316"/><polygon fill="#FFFFFF" points="988.339,44,981.339,63,995.339,63,988.339,44" style="stroke:#181818;stroke-width:1;"/><line style="stroke:#181818;stroke-width:1;stroke-dasharray:7.0,7.0;" x1="1053.7283" x2="1053.7283" y1="169.9316" y2="197.2422"/><line style="stroke:#181818;stroke-width:1;stroke-dasharray:7.0,7.0;" x1="1053.7283" x2="1086.9432" y1="197.2422" y2="197.2422"/><line style="stroke:#181818;stroke-width:1;stroke-dasharray:7.0,7.0;" x1="1086.9432" x2="1086.9432" y1="197.2422" y2="349.7949"/><polygon fill="#FFFFFF" points="1053.7283,169.9316,1046.7283,188.9316,1060.7283,188.9316,1053.7283,169.9316" style="stroke:#181818;stroke-width:1;"/><line style="stroke:#181818;stroke-width:1;stroke-dasharray:7.0,7.0;" x1="852.4214" x2="852.4214" y1="381.7949" y2="458.416"/><line style="stroke:#181818;stroke-width:1;stroke-dasharray:7.0,7.0;" x1="852.4214" x2="980.8243" y1="458.416" y2="458.416"/><line style="stroke:#181818;stroke-width:1;stroke-dasharray:7.0,7.0;" x1="980.8243" x2="980.8243" y1="458.416" y2="495.7266"/><polygon fill="#FFFFFF" points="852.4214,381.7949,845.4214,400.7949,859.4214,400.7949,852.4214,381.7949" style="stroke:#181818;stroke-width:1;"/><line style="stroke:#181818;stroke-width:1;stroke-dasharray:7.0,7.0;" x1="1003.0988" x2="1003.0988" y1="169.9316" y2="495.7266"/><polygon fill="#FFFFFF" points="1003.0988,169.9316,996.0988,188.9316,1010.0988,188.9316,1003.0988,169.9316" style="stroke:#181818;stroke-width:1;"/><line style="stroke:#181818;stroke-width:1;stroke-dasharray:7.0,7.0;" x1="1251.4347" x2="1251.4347" y1="381.7949" y2="468.416"/><line style="stroke:#181818;stroke-width:1;stroke-dasharray:7.0,7.0;" x1="1251.4347" x2="1047.6476" y1="468.416" y2="468.416"/><line style="stroke:#181818;stroke-width:1;stroke-dasharray:7.0,7.0;" x1="1047.6476" x2="1047.6476" y1="468.416" y2="495.7266"/><polygon fill="#FFFFFF" points="1251.4347,381.7949,1244.4347,400.7949,1258.4347,400.7949,1251.4347,381.7949" style="stroke:#181818;stroke-width:1;"/><line style="stroke:#181818;stroke-width:1;stroke-dasharray:7.0,7.0;" x1="1276.2374" x2="1276.2374" y1="381.7949" y2="654.3477"/><line style="stroke:#181818;stroke-width:1;stroke-dasharray:7.0,7.0;" x1="1276.2374" x2="805.1751" y1="654.3477" y2="654.3477"/><line style="stroke:#181818;stroke-width:1;stroke-dasharray:7.0,7.0;" x1="805.1751" x2="805.1751" y1="654.3477" y2="681.6582"/><polygon fill="#FFFFFF" points="1276.2374,381.7949,1269.2374,400.7949,1283.2374,400.7949,1276.2374,381.7949" style="stroke:#181818;stroke-width:1;"/><line style="stroke:#181818;stroke-width:1;" x1="750.1445" x2="750.1445" y1="713.6582" y2="810.2793"/><line style="stroke:#181818;stroke-width:1;" x1="750.1445" x2="222.8407" y1="810.2793" y2="810.2793"/><line style="stroke:#181818;stroke-width:1;" x1="222.8407" x2="222.8407" y1="810.2793" y2="913.1061"/><polygon fill="#FFFFFF" points="750.1445,713.6582,743.1445,732.6582,757.1445,732.6582,750.1445,713.6582" style="stroke:#181818;stroke-width:1;"/><line style="stroke:#181818;stroke-width:1;stroke-dasharray:7.0,7.0;" x1="161.3853" x2="161.3853" y1="713.6582" y2="913.1061"/><polygon fill="#FFFFFF" points="161.3853,713.6582,154.3853,732.6582,168.3853,732.6582,161.3853,713.6582" style="stroke:#181818;stroke-width:1;"/><line style="stroke:#181818;stroke-width:1;" x1="765.4308" x2="765.4308" y1="713.6582" y2="770.9688"/><line style="stroke:#181818;stroke-width:1;" x1="765.4308" x2="819.6331" y1="770.9688" y2="770.9688"/><line style="stroke:#181818;stroke-width:1;" x1="819.6331" x2="819.6331" y1="770.9688" y2="847.5898"/><polygon fill="#FFFFFF" points="765.4308,713.6582,758.4308,732.6582,772.4308,732.6582,765.4308,713.6582" style="stroke:#181818;stroke-width:1;"/><line style="stroke:#181818;stroke-width:1;" x1="173.6764" x2="173.6764" y1="945.1061" y2="1016.5195"/><line style="stroke:#181818;stroke-width:1;" x1="173.6764" x2="228.5883" y1="1016.5195" y2="1016.5195"/><line style="stroke:#181818;stroke-width:1;" x1="228.5883" x2="228.5883" y1="1016.5195" y2="1046.5195"/><polygon fill="#FFFFFF" points="173.6764,945.1061,166.6764,964.1061,180.6764,964.1061,173.6764,945.1061" style="stroke:#181818;stroke-width:1;"/><line style="stroke:#181818;stroke-width:1;" x1="210.5496" x2="210.5496" y1="945.1061" y2="1006.5195"/><line style="stroke:#181818;stroke-width:1;" x1="210.5496" x2="319.9702" y1="1006.5195" y2="1006.5195"/><line style="stroke:#181818;stroke-width:1;" x1="319.9702" x2="319.9702" y1="1006.5195" y2="1046.5195"/><polygon fill="#FFFFFF" points="210.5496,945.1061,203.5496,964.1061,217.5496,964.1061,210.5496,945.1061" style="stroke:#181818;stroke-width:1;"/><line style="stroke:#181818;stroke-width:1;" x1="136.8032" x2="136.8032" y1="945.1061" y2="1046.5195"/><polygon fill="#FFFFFF" points="136.8032,945.1061,129.8032,964.1061,143.8032,964.1061,136.8032,945.1061" style="stroke:#181818;stroke-width:1;"/><line style="stroke:#181818;stroke-width:1;" x1="247.4229" x2="247.4229" y1="945.1061" y2="996.5195"/><line style="stroke:#181818;stroke-width:1;" x1="247.4229" x2="416.1611" y1="996.5195" y2="996.5195"/><line style="stroke:#181818;stroke-width:1;" x1="416.1611" x2="416.1611" y1="996.5195" y2="1046.5195"/><polygon fill="#FFFFFF" points="247.4229,945.1061,240.4229,964.1061,254.4229,964.1061,247.4229,945.1061" style="stroke:#181818;stroke-width:1;"/><line style="stroke:#181818;stroke-width:1;" x1="734.8582" x2="734.8582" y1="713.6582" y2="847.5898"/><polygon fill="#FFFFFF" points="734.8582,713.6582,727.8582,732.6582,741.8582,732.6582,734.8582,713.6582" style="stroke:#181818;stroke-width:1;"/><line style="stroke:#181818;stroke-width:1;stroke-dasharray:7.0,7.0;" x1="1301.0402" x2="1301.0402" y1="381.7949" y2="810.2793"/><line style="stroke:#181818;stroke-width:1;stroke-dasharray:7.0,7.0;" x1="1301.0402" x2="1082.5289" y1="810.2793" y2="810.2793"/><line style="stroke:#181818;stroke-width:1;stroke-dasharray:7.0,7.0;" x1="1082.5289" x2="1082.5289" y1="810.2793" y2="904.8234"/><polygon fill="#FFFFFF" points="1301.0402,381.7949,1294.0402,400.7949,1308.0402,400.7949,1301.0402,381.7949" style="stroke:#181818;stroke-width:1;"/><line style="stroke:#181818;stroke-width:1;" x1="1060.0066" x2="1060.0066" y1="936.8234" y2="1006.5195"/><line style="stroke:#181818;stroke-width:1;" x1="1060.0066" x2="1184.942" y1="1006.5195" y2="1006.5195"/><line style="stroke:#181818;stroke-width:1;" x1="1184.942" x2="1184.942" y1="1006.5195" y2="1145.1406"/><line style="stroke:#181818;stroke-width:1;" x1="1184.942" x2="1231.6125" y1="1145.1406" y2="1145.1406"/><line style="stroke:#181818;stroke-width:1;" x1="1231.6125" x2="1231.6125" y1="1145.1406" y2="1172.4512"/><polygon fill="#FFFFFF" points="1060.0066,936.8234,1053.0066,955.8234,1067.0066,955.8234,1060.0066,936.8234" style="stroke:#181818;stroke-width:1;"/><line style="stroke:#181818;stroke-width:1;" x1="1093.7901" x2="1093.7901" y1="936.8234" y2="996.5195"/><line style="stroke:#181818;stroke-width:1;" x1="1093.7901" x2="1277.9214" y1="996.5195" y2="996.5195"/><line style="stroke:#181818;stroke-width:1;" x1="1277.9214" x2="1277.9214" y1="996.5195" y2="1046.5195"/><polygon fill="#FFFFFF" points="1093.7901,936.8234,1086.7901,955.8234,1100.7901,955.8234,1093.7901,936.8234" style="stroke:#181818;stroke-width:1;"/><line style="stroke:#181818;stroke-width:1;" x1="1026.2232" x2="1026.2232" y1="936.8234" y2="1046.5195"/><polygon fill="#FFFFFF" points="1026.2232,936.8234,1019.2232,955.8234,1033.2232,955.8234,1026.2232,936.8234" style="stroke:#181818;stroke-width:1;"/><line style="stroke:#181818;stroke-width:1;" x1="999.9354" x2="999.9354" y1="1078.5195" y2="1172.4512"/><polygon fill="#FFFFFF" points="999.9354,1078.5195,992.9354,1097.5195,1006.9354,1097.5195,999.9354,1078.5195" style="stroke:#181818;stroke-width:1;"/><line style="stroke:#181818;stroke-width:1;" x1="84.4844" x2="84.4844" y1="169.9316" y2="349.7949"/><polygon fill="#FFFFFF" points="84.4844,169.9316,77.4844,188.9316,91.4844,188.9316,84.4844,169.9316" style="stroke:#181818;stroke-width:1;"/><line style="stroke:#181818;stroke-width:1;" x1="146.2857" x2="146.2857" y1="169.9316" y2="207.2422"/><line style="stroke:#181818;stroke-width:1;" x1="146.2857" x2="558.8319" y1="207.2422" y2="207.2422"/><line style="stroke:#181818;stroke-width:1;" x1="558.8319" x2="558.8319" y1="207.2422" y2="349.7949"/><polygon fill="#FFFFFF" points="146.2857,169.9316,139.2857,188.9316,153.2857,188.9316,146.2857,169.9316" style="stroke:#181818;stroke-width:1;"/><line style="stroke:#181818;stroke-width:1;" x1="105.8149" x2="105.8149" y1="381.7949" y2="409.1055"/><line style="stroke:#181818;stroke-width:1;" x1="105.8149" x2="184.1455" y1="409.1055" y2="409.1055"/><line style="stroke:#181818;stroke-width:1;" x1="184.1455" x2="184.1455" y1="409.1055" y2="495.7266"/><polygon fill="#FFFFFF" points="105.8149,381.7949,98.8149,400.7949,112.8149,400.7949,105.8149,381.7949" style="stroke:#181818;stroke-width:1;"/><line style="stroke:#181818;stroke-width:1;" x1="130.8354" x2="130.8354" y1="169.9316" y2="217.2422"/><line style="stroke:#181818;stroke-width:1;" x1="130.8354" x2="402.2113" y1="217.2422" y2="217.2422"/><line style="stroke:#181818;stroke-width:1;" x1="402.2113" x2="402.2113" y1="217.2422" y2="495.7266"/><polygon fill="#FFFFFF" points="130.8354,169.9316,123.8354,188.9316,137.8354,188.9316,130.8354,169.9316" style="stroke:#181818;stroke-width:1;"/><line style="stroke:#181818;stroke-width:1;" x1="431.3122" x2="431.3122" y1="527.7266" y2="555.0371"/><line style="stroke:#181818;stroke-width:1;" x1="431.3122" x2="639.1794" y1="555.0371" y2="555.0371"/><line style="stroke:#181818;stroke-width:1;" x1="639.1794" x2="639.1794" y1="555.0371" y2="681.6582"/><polygon fill="#FFFFFF" points="431.3122,527.7266,424.3122,546.7266,438.3122,546.7266,431.3122,527.7266" style="stroke:#181818;stroke-width:1;"/><line style="stroke:#181818;stroke-width:1;" x1="402.2113" x2="402.2113" y1="527.7266" y2="575.0371"/><line style="stroke:#181818;stroke-width:1;" x1="402.2113" x2="497.2389" y1="575.0371" y2="575.0371"/><line style="stroke:#181818;stroke-width:1;" x1="497.2389" x2="497.2389" y1="575.0371" y2="681.6582"/><polygon fill="#FFFFFF" points="402.2113,527.7266,395.2113,546.7266,409.2113,546.7266,402.2113,527.7266" style="stroke:#181818;stroke-width:1;"/><line style="stroke:#181818;stroke-width:1;" x1="63.1538" x2="63.1538" y1="381.7949" y2="495.7266"/><polygon fill="#FFFFFF" points="63.1538,381.7949,56.1538,400.7949,70.1538,400.7949,63.1538,381.7949" style="stroke:#181818;stroke-width:1;"/><line style="stroke:#181818;stroke-width:1;" x1="558.8319" x2="558.8319" y1="381.7949" y2="495.7266"/><polygon fill="#FFFFFF" points="558.8319,381.7949,551.8319,400.7949,565.8319,400.7949,558.8319,381.7949" style="stroke:#181818;stroke-width:1;"/><line style="stroke:#181818;stroke-width:1;" x1="941.4692" x2="941.4692" y1="44" y2="448.416"/><line style="stroke:#181818;stroke-width:1;" x1="941.4692" x2="1131.4686" y1="448.416" y2="448.416"/><line style="stroke:#181818;stroke-width:1;" x1="1131.4686" x2="1131.4686" y1="448.416" y2="495.7266"/><polygon fill="#181818" points="1131.4686,495.7266,1135.4686,486.7266,1131.4686,490.7266,1127.4686,486.7266,1131.4686,495.7266" style="stroke:#181818;stroke-width:1;"/><text fill="#000000" font-family="sans-serif" font-size="13" lengthAdjust="spacing" textLength="60.9185" x="876.5507" y="284.7764">manage &#9656;</text><text fill="#000000" font-family="sans-serif" font-size="13" lengthAdjust="spacing" textLength="8.2202" x="944.4692" y="58.5684">1</text><text fill="#000000" font-family="sans-serif" font-size="13" lengthAdjust="spacing" textLength="8.2202" x="1134.4686" y="490.9844">1</text><line style="stroke:#181818;stroke-width:1;" x1="1171.4886" x2="1171.4886" y1="169.9316" y2="322.4844"/><line style="stroke:#181818;stroke-width:1;" x1="1171.4886" x2="1146.7876" y1="322.4844" y2="322.4844"/><line style="stroke:#181818;stroke-width:1;" x1="1146.7876" x2="1146.7876" y1="322.4844" y2="349.7949"/><polygon fill="#181818" points="1171.4886,169.9316,1167.4886,175.9316,1171.4886,181.9316,1175.4886,175.9316,1171.4886,169.9316" style="stroke:#181818;stroke-width:1;"/><text fill="#000000" font-family="sans-serif" font-size="13" lengthAdjust="spacing" textLength="67.5454" x="1099.9432" y="284.7764">manages &#9656;</text><text fill="#000000" font-family="sans-serif" font-size="13" lengthAdjust="spacing" textLength="8.2202" x="1174.4886" y="184.5">1</text><text fill="#000000" font-family="sans-serif" font-size="13" lengthAdjust="spacing" textLength="8.2202" x="1149.7876" y="345.0527">1</text><line style="stroke:#181818;stroke-width:1;" x1="1230.4832" x2="1230.4832" y1="169.9316" y2="197.2422"/><line style="stroke:#181818;stroke-width:1;" x1="1230.4832" x2="1574.0799" y1="197.2422" y2="197.2422"/><line style="stroke:#181818;stroke-width:1;" x1="1574.0799" x2="1574.0799" y1="197.2422" y2="820.2793"/><line style="stroke:#181818;stroke-width:1;" x1="1574.0799" x2="1220.2539" y1="820.2793" y2="820.2793"/><line style="stroke:#181818;stroke-width:1;" x1="1220.2539" x2="1220.2539" y1="820.2793" y2="847.5898"/><polygon fill="#181818" points="1220.2539,847.5898,1224.2539,838.5898,1220.2539,842.5898,1216.2539,838.5898,1220.2539,847.5898" style="stroke:#181818;stroke-width:1;"/><text fill="#000000" font-family="sans-serif" font-size="13" lengthAdjust="spacing" textLength="62.5562" x="1507.5237" y="516.6396">hasTurn &#9656;</text><text fill="#000000" font-family="sans-serif" font-size="13" lengthAdjust="spacing" textLength="8.2202" x="1233.4832" y="184.5">1</text><text fill="#000000" font-family="sans-serif" font-size="13" lengthAdjust="spacing" textLength="8.2202" x="1223.2539" y="842.8477">1</text><line style="stroke:#8E8E8E;stroke-width:1;" x1="1200.9859" x2="1200.9859" y1="169.9316" y2="207.2422"/><line style="stroke:#8E8E8E;stroke-width:1;" x1="1200.9859" x2="1476.6785" y1="207.2422" y2="207.2422"/><line style="stroke:#8E8E8E;stroke-width:1;" x1="1476.6785" x2="1476.6785" y1="207.2422" y2="349.7949"/><polygon fill="#8E8E8E" points="1476.6785,349.7949,1480.6785,340.7949,1476.6785,344.7949,1472.6785,340.7949,1476.6785,349.7949" style="stroke:#8E8E8E;stroke-width:1;"/><text fill="#000000" font-family="sans-serif" font-size="13" lengthAdjust="spacing" textLength="95.3799" x="1280.8936" y="261.8105">usesStatically &#9656;</text><text fill="#8E8E8E" font-family="sans-serif" font-size="13" font-weight="bold" lengthAdjust="spacing" textLength="34.3916" x="1217.3218" y="277.1211">Note:</text><text fill="#8E8E8E" font-family="sans-serif" font-size="13" lengthAdjust="spacing" textLength="184.0186" x="1255.8267" y="277.1211">This is not a real association.</text><text fill="#8E8E8E" font-family="sans-serif" font-size="13" lengthAdjust="spacing" textLength="240.2334" x="1208.4668" y="292.4316">We only indicate that the ChessEngine</text><text fill="#8E8E8E" font-family="sans-serif" font-size="13" lengthAdjust="spacing" textLength="288.1899" x="1184.4886" y="307.7422">class uses the ChessBoardInitializer statically.</text><line style="stroke:#181818;stroke-width:1;" x1="1086.9432" x2="1086.9432" y1="381.7949" y2="458.416"/><line style="stroke:#181818;stroke-width:1;" x1="1086.9432" x2="1025.3732" y1="458.416" y2="458.416"/><line style="stroke:#181818;stroke-width:1;" x1="1025.3732" x2="1025.3732" y1="458.416" y2="495.7266"/><polygon fill="#181818" points="1086.9432,381.7949,1082.9432,387.7949,1086.9432,393.7949,1090.9432,387.7949,1086.9432,381.7949" style="stroke:#181818;stroke-width:1;"/><text fill="#000000" font-family="sans-serif" font-size="13" lengthAdjust="spacing" textLength="62.2705" x="1020.6727" y="433.6738">controls &#9656;</text><text fill="#000000" font-family="sans-serif" font-size="13" lengthAdjust="spacing" textLength="8.2202" x="1089.9432" y="396.3633">1</text><text fill="#000000" font-family="sans-serif" font-size="13" lengthAdjust="spacing" textLength="8.2202" x="1028.3732" y="490.9844">1</text><line style="stroke:#181818;stroke-width:1;" x1="1146.7876" x2="1146.7876" y1="381.7949" y2="409.1055"/><line style="stroke:#181818;stroke-width:1;" x1="1146.7876" x2="1166.2137" y1="409.1055" y2="409.1055"/><line style="stroke:#181818;stroke-width:1;" x1="1166.2137" x2="1166.2137" y1="409.1055" y2="495.7266"/><polygon fill="#181818" points="1166.2137,495.7266,1170.2137,486.7266,1166.2137,490.7266,1162.2137,486.7266,1166.2137,495.7266" style="stroke:#181818;stroke-width:1;"/><text fill="#000000" font-family="sans-serif" font-size="13" lengthAdjust="spacing" textLength="62.2705" x="1099.9432" y="433.6738">controls &#9656;</text><text fill="#000000" font-family="sans-serif" font-size="13" lengthAdjust="spacing" textLength="8.2202" x="1149.7876" y="396.3633">1</text><text fill="#000000" font-family="sans-serif" font-size="13" lengthAdjust="spacing" textLength="8.2202" x="1169.2137" y="490.9844">1</text><line style="stroke:#181818;stroke-width:1;" x1="1032.798" x2="1032.798" y1="527.7266" y2="555.0371"/><line style="stroke:#181818;stroke-width:1;" x1="1032.798" x2="1103.5597" y1="555.0371" y2="555.0371"/><line style="stroke:#181818;stroke-width:1;" x1="1103.5597" x2="1103.5597" y1="555.0371" y2="644.3477"/><line style="stroke:#181818;stroke-width:1;" x1="1103.5597" x2="783.7743" y1="644.3477" y2="644.3477"/><line style="stroke:#181818;stroke-width:1;" x1="783.7743" x2="783.7743" y1="644.3477" y2="681.6582"/><polygon fill="#181818" points="1032.798,527.7266,1028.798,533.7266,1032.798,539.7266,1036.798,533.7266,1032.798,527.7266" style="stroke:#181818;stroke-width:1;"/><text fill="#000000" font-family="sans-serif" font-size="13" lengthAdjust="spacing" textLength="90.8857" x="1008.674" y="599.6055">composedOf &#9656;</text><text fill="#000000" font-family="sans-serif" font-size="13" lengthAdjust="spacing" textLength="8.2202" x="1035.798" y="542.2949">1</text><text fill="#000000" font-family="sans-serif" font-size="13" lengthAdjust="spacing" textLength="32.8872" x="786.7743" y="676.916">2..32</text><line style="stroke:#181818;stroke-width:1;" x1="995.674" x2="995.674" y1="527.7266" y2="634.3477"/><line style="stroke:#181818;stroke-width:1;" x1="995.674" x2="309.3578" y1="634.3477" y2="634.3477"/><line style="stroke:#181818;stroke-width:1;" x1="309.3578" x2="309.3578" y1="634.3477" y2="681.6582"/><polygon fill="#181818" points="995.674,527.7266,991.674,533.7266,995.674,539.7266,999.674,533.7266,995.674,527.7266" style="stroke:#181818;stroke-width:1;"/><text fill="#000000" font-family="sans-serif" font-size="13" lengthAdjust="spacing" textLength="49.2515" x="942.4225" y="599.6055">tracks &#9656;</text><text fill="#000000" font-family="sans-serif" font-size="13" lengthAdjust="spacing" textLength="8.2202" x="998.674" y="542.2949">1</text><text fill="#000000" font-family="sans-serif" font-size="13" lengthAdjust="spacing" textLength="8.2202" x="312.3578" y="676.916">2</text><line style="stroke:#181818;stroke-width:1;" x1="780.717" x2="780.717" y1="713.6582" y2="760.9688"/><line style="stroke:#181818;stroke-width:1;" x1="780.717" x2="922.7728" y1="760.9688" y2="760.9688"/><line style="stroke:#181818;stroke-width:1;" x1="922.7728" x2="922.7728" y1="760.9688" y2="847.5898"/><polygon fill="#181818" points="922.7728,847.5898,926.7728,838.5898,922.7728,842.5898,918.7728,838.5898,922.7728,847.5898" style="stroke:#181818;stroke-width:1;"/><text fill="#000000" font-family="sans-serif" font-size="13" lengthAdjust="spacing" textLength="77.7397" x="841.033" y="795.5371">represents &#9656;</text><text fill="#000000" font-family="sans-serif" font-size="13" lengthAdjust="spacing" textLength="8.2202" x="783.717" y="728.2266">1</text><text fill="#000000" font-family="sans-serif" font-size="13" lengthAdjust="spacing" textLength="8.2202" x="925.7728" y="842.8477">1</text><line style="stroke:#181818;stroke-width:1;" x1="811.2896" x2="811.2896" y1="713.6582" y2="740.9688"/><line style="stroke:#181818;stroke-width:1;" x1="811.2896" x2="1183.9137" y1="740.9688" y2="740.9688"/><line style="stroke:#181818;stroke-width:1;" x1="1183.9137" x2="1183.9137" y1="740.9688" y2="847.5898"/><polygon fill="#181818" points="1183.9137,847.5898,1187.9137,838.5898,1183.9137,842.5898,1179.9137,838.5898,1183.9137,847.5898" style="stroke:#181818;stroke-width:1;"/><text fill="#000000" font-family="sans-serif" font-size="13" lengthAdjust="spacing" textLength="77.1812" x="1102.7326" y="795.5371">belongsTo &#9656;</text><text fill="#000000" font-family="sans-serif" font-size="13" lengthAdjust="spacing" textLength="8.2202" x="814.2896" y="728.2266">1</text><text fill="#000000" font-family="sans-serif" font-size="13" lengthAdjust="spacing" textLength="8.2202" x="1186.9137" y="842.8477">1</text><line style="stroke:#181818;stroke-width:1;" x1="796.0033" x2="796.0033" y1="713.6582" y2="750.9688"/><line style="stroke:#181818;stroke-width:1;" x1="796.0033" x2="1037.4844" y1="750.9688" y2="750.9688"/><line style="stroke:#181818;stroke-width:1;" x1="1037.4844" x2="1037.4844" y1="750.9688" y2="904.8234"/><polygon fill="#181818" points="796.0033,713.6582,792.0033,719.6582,796.0033,725.6582,800.0033,719.6582,796.0033,713.6582" style="stroke:#181818;stroke-width:1;"/><text fill="#000000" font-family="sans-serif" font-size="13" lengthAdjust="spacing" textLength="90.8857" x="942.5986" y="795.5371">composedOf &#9656;</text><text fill="#000000" font-family="sans-serif" font-size="13" lengthAdjust="spacing" textLength="8.2202" x="799.0033" y="728.2266">1</text><text fill="#000000" font-family="sans-serif" font-size="13" lengthAdjust="spacing" textLength="22.7119" x="1040.4844" y="900.0813">1..*</text><line style="stroke:#181818;stroke-width:1;" x1="1202.7772" x2="1202.7772" y1="1204.4512" y2="1298.3828"/><polygon fill="none" points="1202.7772,1204.4512,1198.7772,1210.4512,1202.7772,1216.4512,1206.7772,1210.4512,1202.7772,1204.4512" style="stroke:#181818;stroke-width:1;"/><text fill="#000000" font-family="sans-serif" font-size="13" lengthAdjust="spacing" textLength="56.9067" x="1141.8705" y="1256.3301">defines &#9656;</text><text fill="#000000" font-family="sans-serif" font-size="13" lengthAdjust="spacing" textLength="8.2202" x="1205.7772" y="1219.0195">1</text><text fill="#000000" font-family="sans-serif" font-size="13" lengthAdjust="spacing" textLength="22.7119" x="1205.7772" y="1293.6406">1..*</text><line style="stroke:#181818;stroke-width:1;" x1="1052.511" x2="1052.511" y1="1078.5195" y2="1105.8301"/><line style="stroke:#181818;stroke-width:1;" x1="1052.511" x2="1173.942" y1="1105.8301" y2="1105.8301"/><line style="stroke:#181818;stroke-width:1;" x1="1173.942" x2="1173.942" y1="1105.8301" y2="1172.4512"/><polygon fill="#181818" points="1052.511,1078.5195,1048.511,1084.5195,1052.511,1090.5195,1056.511,1084.5195,1052.511,1078.5195" style="stroke:#181818;stroke-width:1;"/><text fill="#000000" font-family="sans-serif" font-size="13" lengthAdjust="spacing" textLength="39.5713" x="1130.3707" y="1130.3984">uses &#9656;</text><text fill="#000000" font-family="sans-serif" font-size="13" lengthAdjust="spacing" textLength="8.2202" x="1055.511" y="1093.0879">1</text><text fill="#000000" font-family="sans-serif" font-size="13" lengthAdjust="spacing" textLength="22.7119" x="1176.942" y="1167.709">1..*</text><line style="stroke:#181818;stroke-width:1;" x1="99.9347" x2="99.9347" y1="169.9316" y2="237.2422"/><line style="stroke:#181818;stroke-width:1;" x1="99.9347" x2="261.4609" y1="237.2422" y2="237.2422"/><line style="stroke:#181818;stroke-width:1;" x1="261.4609" x2="261.4609" y1="237.2422" y2="614.3477"/><line style="stroke:#181818;stroke-width:1;" x1="261.4609" x2="260.162" y1="614.3477" y2="614.3477"/><line style="stroke:#181818;stroke-width:1;" x1="260.162" x2="260.162" y1="614.3477" y2="681.6582"/><polygon fill="#181818" points="99.9347,169.9316,95.9347,175.9316,99.9347,181.9316,103.9347,175.9316,99.9347,169.9316" style="stroke:#181818;stroke-width:1;"/><text fill="#000000" font-family="sans-serif" font-size="13" lengthAdjust="spacing" textLength="60.3154" x="197.1455" y="433.6738">startsAt &#9656;</text><text fill="#000000" font-family="sans-serif" font-size="13" lengthAdjust="spacing" textLength="8.2202" x="102.9347" y="184.5">1</text><text fill="#000000" font-family="sans-serif" font-size="13" lengthAdjust="spacing" textLength="8.2202" x="263.162" y="676.916">1</text><line style="stroke:#181818;stroke-width:1;" x1="115.385" x2="115.385" y1="169.9316" y2="227.2422"/><line style="stroke:#181818;stroke-width:1;" x1="115.385" x2="272.4609" y1="227.2422" y2="227.2422"/><line style="stroke:#181818;stroke-width:1;" x1="272.4609" x2="272.4609" y1="227.2422" y2="681.6582"/><polygon fill="#181818" points="115.385,169.9316,111.385,175.9316,115.385,181.9316,119.385,175.9316,115.385,169.9316" style="stroke:#181818;stroke-width:1;"/><text fill="#000000" font-family="sans-serif" font-size="13" lengthAdjust="spacing" textLength="54.958" x="277.4609" y="433.6738">endsAt &#9656;</text><text fill="#000000" font-family="sans-serif" font-size="13" lengthAdjust="spacing" textLength="8.2202" x="118.385" y="184.5">1</text><text fill="#000000" font-family="sans-serif" font-size="13" lengthAdjust="spacing" textLength="8.2202" x="275.4609" y="676.916">1</text><line style="stroke:#181818;stroke-width:1;" x1="161.736" x2="161.736" y1="169.9316" y2="197.2422"/><line style="stroke:#181818;stroke-width:1;" x1="161.736" x2="762.3735" y1="197.2422" y2="197.2422"/><line style="stroke:#181818;stroke-width:1;" x1="762.3735" x2="762.3735" y1="197.2422" y2="681.6582"/><polygon fill="#181818" points="161.736,169.9316,157.736,175.9316,161.736,181.9316,165.736,175.9316,161.736,169.9316" style="stroke:#181818;stroke-width:1;"/><text fill="#000000" font-family="sans-serif" font-size="13" lengthAdjust="spacing" textLength="51.7271" x="706.6465" y="433.6738">moves &#9656;</text><text fill="#000000" font-family="sans-serif" font-size="13" lengthAdjust="spacing" textLength="8.2202" x="164.736" y="184.5">1</text><text fill="#000000" font-family="sans-serif" font-size="13" lengthAdjust="spacing" textLength="8.2202" x="765.3735" y="676.916">1</text><line style="stroke:#181818;stroke-width:1;" x1="123.1102" x2="123.1102" y1="44" y2="137.9316"/><polygon fill="#181818" points="123.1102,44,119.1102,50,123.1102,56,127.1102,50,123.1102,44" style="stroke:#181818;stroke-width:1;"/><text fill="#000000" font-family="sans-serif" font-size="13" lengthAdjust="spacing" textLength="63.3687" x="55.7416" y="95.8789">includes &#9656;</text><text fill="#000000" font-family="sans-serif" font-size="13" lengthAdjust="spacing" textLength="8.2202" x="126.1102" y="58.5684">1</text><text fill="#000000" font-family="sans-serif" font-size="13" lengthAdjust="spacing" textLength="6.2651" x="126.1102" y="133.1895">*</text><line style="stroke:#181818;stroke-width:1;" x1="184.1455" x2="184.1455" y1="527.7266" y2="614.3477"/><line style="stroke:#181818;stroke-width:1;" x1="184.1455" x2="247.863" y1="614.3477" y2="614.3477"/><line style="stroke:#181818;stroke-width:1;" x1="247.863" x2="247.863" y1="614.3477" y2="681.6582"/><polygon fill="#181818" points="184.1455,527.7266,180.1455,533.7266,184.1455,539.7266,188.1455,533.7266,184.1455,527.7266" style="stroke:#181818;stroke-width:1;"/><text fill="#000000" font-family="sans-serif" font-size="13" lengthAdjust="spacing" textLength="65.146" x="114.9995" y="599.6055">captures &#9656;</text><text fill="#000000" font-family="sans-serif" font-size="13" lengthAdjust="spacing" textLength="8.2202" x="187.1455" y="542.2949">1</text><text fill="#000000" font-family="sans-serif" font-size="13" lengthAdjust="spacing" textLength="8.2202" x="250.863" y="676.916">1</text><line style="stroke:#181818;stroke-width:1;" x1="387.6608" x2="387.6608" y1="527.7266" y2="624.3477"/><line style="stroke:#181818;stroke-width:1;" x1="387.6608" x2="297.0589" y1="624.3477" y2="624.3477"/><line style="stroke:#181818;stroke-width:1;" x1="297.0589" x2="297.0589" y1="624.3477" y2="681.6582"/><polygon fill="#181818" points="387.6608,527.7266,383.6608,533.7266,387.6608,539.7266,391.6608,533.7266,387.6608,527.7266" style="stroke:#181818;stroke-width:1;"/><text fill="#000000" font-family="sans-serif" font-size="13" lengthAdjust="spacing" textLength="89.5781" x="392.6608" y="599.6055">rookStartsAt &#9656;</text><text fill="#000000" font-family="sans-serif" font-size="13" lengthAdjust="spacing" textLength="8.2202" x="390.6608" y="542.2949">1</text><text fill="#000000" font-family="sans-serif" font-size="13" lengthAdjust="spacing" textLength="8.2202" x="300.0589" y="676.916">1</text><line style="stroke:#181818;stroke-width:1;" x1="373.1104" x2="373.1104" y1="527.7266" y2="614.3477"/><line style="stroke:#181818;stroke-width:1;" x1="373.1104" x2="284.7599" y1="614.3477" y2="614.3477"/><line style="stroke:#181818;stroke-width:1;" x1="284.7599" x2="284.7599" y1="614.3477" y2="681.6582"/><polygon fill="#181818" points="373.1104,527.7266,369.1104,533.7266,373.1104,539.7266,377.1104,533.7266,373.1104,527.7266" style="stroke:#181818;stroke-width:1;"/><text fill="#000000" font-family="sans-serif" font-size="13" lengthAdjust="spacing" textLength="83.6494" x="285.4609" y="599.6055">rookEndsAt &#9656;</text><text fill="#000000" font-family="sans-serif" font-size="13" lengthAdjust="spacing" textLength="8.2202" x="376.1104" y="542.2949">1</text><text fill="#000000" font-family="sans-serif" font-size="13" lengthAdjust="spacing" textLength="8.2202" x="287.7599" y="676.916">1</text><line style="stroke:#181818;stroke-width:1;" x1="416.7617" x2="416.7617" y1="527.7266" y2="565.0371"/><line style="stroke:#181818;stroke-width:1;" x1="416.7617" x2="593.7751" y1="565.0371" y2="565.0371"/><line style="stroke:#181818;stroke-width:1;" x1="593.7751" x2="593.7751" y1="565.0371" y2="644.3477"/><line style="stroke:#181818;stroke-width:1;" x1="593.7751" x2="740.9727" y1="644.3477" y2="644.3477"/><line style="stroke:#181818;stroke-width:1;" x1="740.9727" x2="740.9727" y1="644.3477" y2="681.6582"/><polygon fill="#181818" points="416.7617,527.7266,412.7617,533.7266,416.7617,539.7266,420.7617,533.7266,416.7617,527.7266" style="stroke:#181818;stroke-width:1;"/><text fill="#000000" font-family="sans-serif" font-size="13" lengthAdjust="spacing" textLength="79.5361" x="510.2389" y="599.6055">movesWith &#9656;</text><text fill="#000000" font-family="sans-serif" font-size="13" lengthAdjust="spacing" textLength="8.2202" x="419.7617" y="542.2949">1</text><text fill="#000000" font-family="sans-serif" font-size="13" lengthAdjust="spacing" textLength="8.2202" x="743.9727" y="676.916">1</text><!--SRC=[rLVBRXit5DtFLx3o8euYgsswAGH1W2tBjch7TYIbMhH5GSzSpn3ca2f9sL63_4Q_fT_JB-dbS1wSXmpjYYg1DIBFERmFtalEDnj5uvGIJdToQmZmfo1X4H18DsP7KZ29ZBG_H8rHx65hG0VwYOaDLJGbd0amkmqGgP3WJIYv5T5KAW6AVEUDXvngVLf8pKCfbknFg46c5d96mwSu5-5IaQCx7jtG43pShJHm06oPq4Y-C16JHyer14PkY97aGHeZKn8n1Q5XKWJ1M9iTXqb0y9EPUSveR1M-P4FsCzme-OmXYRmn-scQSPb8RTO9Cr23tM2q7E2SfPSAThNP2obCz-pNmFqTVvkRwF8o7XVcJ2P46r0WRIw2W0dyyOXX8DC4j9wYi9ASWwenldpraPyqg6aYMGWjq1jImNhdYhxG1muBq7Ah43sRzEeCnDlFEnA3AL37RqTaXXDVMyRzpE2bOqM1oIKS7WsHZnKmbruHbcuuf22CpWmdpl8H6Qy8V3OWejhu11qWFz5dYdoSoyJj8lH16qL3uz9DUcTKGsPFqoTlkT8Mpr45CRFnBxsrQHYHUmOXhF1nG4ARLnp1QiCmsny3PEaHwGWdXkfPiYXNFo9SqgYOlf3gCF487aUaOBtjNCUbuqtk_EMdUIiLHIXhWV7yreOgOyUFwpRRYAJo6J8RZp-FxFuPa5tstKHkjgOBDY07k5bflSD2rXkS-O3PeJ4SfpeUaIMs6H4tLwJwoUwDyMfoR9ZXKE06v8yjQDiBgf6Dr9ezCCuCizaQ3eShb5lLGuVrfIM7_t7udDP_4C8yWBQcPYB6zjWgjQfvDHfMDdicgOhM2Xlj_ka5q2YVzfRBfZpnvhglA7CfmDPIgsqrvRj5dJs3rZA3IZbJQtId2ZuN64lAyTpqlRgNcjd8PqCWjgcVwaQ7jbbSNyrNi-pfxEPqUXsKh6BBT73kJzUtsSFYxkuwUxY-dLzUhPpCV7brTvyzVlmqcpdWzVpsCjZZJBPIBKQ-_mt6lPAfD7RIunOLrYrN7MbMBvUXBwABLW8MKZwLWCv5I-YrO75Y3WIVCPtWpUCmyCSjW3ZK2dkrwVQe5VOFs5Kk0Uzar4YrD_8EUrxSZ2YlACKwTQ56H0w6d-EfIKK81nDizlQJsZDbAPJEv1lvucwnFbsSBzt6nUrV_RgPNRZzl2XtTe7-lPmhHofGgLAXgY47AslLkgVt5hcTzGfxYKv5MFRPS2tH1J3dqetPgbSXCt6FNrHKcxOctgwwATM6jpPONVH6YhYDAmPAs3B1TuG3S6wtsrJjix61MpEJj7pFVzieDe-HtlSzSd8ooRwhszo8f5JWiKV- -Ulld9EVI1RNFpcfyCsZew3gZDka5ajvtHWP2TMhhH8jnialHp-2_VSRqhfR_eXiDMWCYc4XvNndDNuLuz2z03dsfD-thqUZVf-i4gO9_iTBBw5uiw0SZsyjGqPjy8OjvXfVvWIgCX6XFjx2JK8D_W7_c6wnN4wiOHMqPRakRHu6dP7i3ZLw73gC5-4kQbTMzp2hfTuFXp-yx_cTqv9IlBP0TFUudzQhJjmHiJNpvAtXX6hfBuvLH2lOuEK_QxolCMeRvW6mHSTw9RieBcR3OR_Nw9mjLuBEjcurPALHTSkHVP70V3j3smssiNYdkDklNbrbTUodsWjaTYVMfwRoyZMqhVLNiRMifbdNjM3NVqjWl-VrDNj_3lasog5LoznZG-XQJPxAeftj0IkyNInhBXv0c7bUTi7RJjgMcE7_1G00]--></g></svg>