<svg xmlns="http://www.w3.org/2000/svg" xmlns:xlink="http://www.w3.org/1999/xlink" contentStyleType="text/css" height="1284px" preserveAspectRatio="none" style="width:1528px;height:1284px;background:#FFFFFF;" version="1.1" viewBox="0 0 1528 1284" width="1528px" zoomAndPan="magnify"><defs/><g><!--class ChessController--><g id="elem_ChessController"><rect codeLine="24" fill="#F8F8FF" height="32" id="ChessController" style="stroke:#696969;stroke-width:0.5;" width="140.6094" x="1151.9716" y="137.9316"/><ellipse cx="1166.9716" cy="153.9316" fill="#B4A7E5" rx="11" ry="11" style="stroke:#181818;stroke-width:1;"/><path d="M1163.3993,150.1968 L1163.3993,148.0386 L1170.7787,148.0386 L1170.7787,150.1968 L1168.3134,150.1968 L1168.3134,158.2734 L1170.7787,158.2734 L1170.7787,160.4316 L1163.3993,160.4316 L1163.3993,158.2734 L1165.8647,158.2734 L1165.8647,150.1968 Z " fill="#000000"/><text fill="#696969" font-family="sans-serif" font-size="14" font-style="italic" lengthAdjust="spacing" textLength="108.6094" x="1180.9716" y="159.2227">ChessController</text></g><!--class UserChoice--><g id="elem_UserChoice"><rect codeLine="26" fill="#F8F8FF" height="32" id="UserChoice" style="stroke:#696969;stroke-width:0.5;" width="108.3574" x="1290.1127" y="519.1055"/><ellipse cx="1305.1127" cy="535.1055" fill="#B4A7E5" rx="11" ry="11" style="stroke:#181818;stroke-width:1;"/><path d="M1301.5404,531.3706 L1301.5404,529.2124 L1308.9198,529.2124 L1308.9198,531.3706 L1306.4545,531.3706 L1306.4545,539.4473 L1308.9198,539.4473 L1308.9198,541.6055 L1301.5404,541.6055 L1301.5404,539.4473 L1304.0058,539.4473 L1304.0058,531.3706 Z " fill="#000000"/><text fill="#696969" font-family="sans-serif" font-size="14" font-style="italic" lengthAdjust="spacing" textLength="76.3574" x="1319.1127" y="540.3965">UserChoice</text></g><!--class ChessView--><g id="elem_ChessView"><rect codeLine="31" fill="#F8F8FF" height="32" id="ChessView" style="stroke:#696969;stroke-width:0.5;" width="104.2354" x="1018.2139" y="519.1055"/><ellipse cx="1033.2139" cy="535.1055" fill="#B4A7E5" rx="11" ry="11" style="stroke:#181818;stroke-width:1;"/><path d="M1029.6417,531.3706 L1029.6417,529.2124 L1037.0211,529.2124 L1037.0211,531.3706 L1034.5557,531.3706 L1034.5557,539.4473 L1037.0211,539.4473 L1037.0211,541.6055 L1029.6417,541.6055 L1029.6417,539.4473 L1032.107,539.4473 L1032.107,531.3706 Z " fill="#000000"/><text fill="#696969" font-family="sans-serif" font-size="14" font-style="italic" lengthAdjust="spacing" textLength="72.2354" x="1047.2139" y="540.3965">ChessView</text></g><!--class ChessEngine--><g id="elem_ChessEngine"><rect codeLine="42" fill="#FDF5E6" height="32" id="ChessEngine" style="stroke:#181818;stroke-width:0.5;" width="117.9893" x="1209.8414" y="237.2422"/><ellipse cx="1224.8414" cy="253.2422" fill="#ADD1B2" rx="11" ry="11" style="stroke:#181818;stroke-width:1;"/><path d="M1227.3145,259.3853 Q1226.7335,259.6841 1226.0943,259.8335 Q1225.4551,259.9829 1224.7496,259.9829 Q1222.2427,259.9829 1220.9229,258.3311 Q1219.6031,256.6792 1219.6031,253.5581 Q1219.6031,250.4287 1220.9229,248.7769 Q1222.2427,247.125 1224.7496,247.125 Q1225.4551,247.125 1226.1026,247.2744 Q1226.7501,247.4238 1227.3145,247.7227 L1227.3145,250.4453 Q1226.6837,249.8643 1226.0902,249.5945 Q1225.4967,249.3247 1224.8658,249.3247 Q1223.5211,249.3247 1222.8363,250.3914 Q1222.1514,251.458 1222.1514,253.5581 Q1222.1514,255.6499 1222.8363,256.7166 Q1223.5211,257.7832 1224.8658,257.7832 Q1225.4967,257.7832 1226.0902,257.5134 Q1226.6837,257.2437 1227.3145,256.6626 Z " fill="#000000"/><text fill="#000000" font-family="sans-serif" font-size="14" lengthAdjust="spacing" textLength="85.9893" x="1238.8414" y="258.5332">ChessEngine</text></g><!--class ChessBoardView--><g id="elem_ChessBoardView"><rect codeLine="44" fill="#FDF5E6" height="32" id="ChessBoardView" style="stroke:#181818;stroke-width:0.5;" width="143.1592" x="986.8116" y="237.2422"/><ellipse cx="1001.8116" cy="253.2422" fill="#B4A7E5" rx="11" ry="11" style="stroke:#181818;stroke-width:1;"/><path d="M998.2393,249.5073 L998.2393,247.3491 L1005.6187,247.3491 L1005.6187,249.5073 L1003.1534,249.5073 L1003.1534,257.584 L1005.6187,257.584 L1005.6187,259.7422 L998.2393,259.7422 L998.2393,257.584 L1000.7047,257.584 L1000.7047,249.5073 Z " fill="#000000"/><text fill="#000000" font-family="sans-serif" font-size="14" font-style="italic" lengthAdjust="spacing" textLength="111.1592" x="1015.8116" y="258.5332">ChessBoardView</text></g><!--class Cloneable--><g id="elem_Cloneable"><rect codeLine="46" fill="#F8F8FF" height="32" id="Cloneable" style="stroke:#696969;stroke-width:0.5;" width="99.2109" x="867.6007" y="237.2422"/><ellipse cx="882.6007" cy="253.2422" fill="#B4A7E5" rx="11" ry="11" style="stroke:#181818;stroke-width:1;"/><path d="M879.0284,249.5073 L879.0284,247.3491 L886.4078,247.3491 L886.4078,249.5073 L883.9425,249.5073 L883.9425,257.584 L886.4078,257.584 L886.4078,259.7422 L879.0284,259.7422 L879.0284,257.584 L881.4937,257.584 L881.4937,249.5073 Z " fill="#000000"/><text fill="#696969" font-family="sans-serif" font-size="14" font-style="italic" lengthAdjust="spacing" textLength="67.2109" x="896.6007" y="258.5332">Cloneable</text></g><!--class ChessBoard--><g id="elem_ChessBoard"><rect codeLine="48" fill="#FDF5E6" height="32" id="ChessBoard" style="stroke:#181818;stroke-width:0.5;" width="111.3721" x="958.399" y="373.1738"/><ellipse cx="973.399" cy="389.1738" fill="#ADD1B2" rx="11" ry="11" style="stroke:#181818;stroke-width:1;"/><path d="M975.8721,395.3169 Q975.2911,395.6157 974.6519,395.7651 Q974.0128,395.9146 973.3072,395.9146 Q970.8004,395.9146 969.4805,394.2627 Q968.1607,392.6108 968.1607,389.4897 Q968.1607,386.3604 969.4805,384.7085 Q970.8004,383.0566 973.3072,383.0566 Q974.0128,383.0566 974.6602,383.2061 Q975.3077,383.3555 975.8721,383.6543 L975.8721,386.377 Q975.2413,385.7959 974.6478,385.5261 Q974.0543,385.2563 973.4234,385.2563 Q972.0787,385.2563 971.3939,386.323 Q970.7091,387.3896 970.7091,389.4897 Q970.7091,391.5815 971.3939,392.6482 Q972.0787,393.7148 973.4234,393.7148 Q974.0543,393.7148 974.6478,393.4451 Q975.2413,393.1753 975.8721,392.5942 Z " fill="#000000"/><text fill="#000000" font-family="sans-serif" font-size="14" lengthAdjust="spacing" textLength="79.3721" x="987.399" y="394.4648">ChessBoard</text></g><!--class ChessBoardInitialzer--><g id="elem_ChessBoardInitialzer"><rect codeLine="50" fill="#FDF5E6" height="32" id="ChessBoardInitialzer" style="stroke:#181818;stroke-width:0.5;" width="170.7559" x="1284.8311" y="373.1738"/><ellipse cx="1299.8311" cy="389.1738" fill="#A9DCDF" rx="11" ry="11" style="stroke:#181818;stroke-width:1;"/><path d="M1299.6944,384.522 L1298.5406,389.5938 L1300.8565,389.5938 Z M1298.2003,382.2808 L1301.1968,382.2808 L1304.5421,394.6738 L1302.0933,394.6738 L1301.3297,391.6108 L1298.0509,391.6108 L1297.3038,394.6738 L1294.8551,394.6738 Z " fill="#000000"/><text fill="#000000" font-family="sans-serif" font-size="14" font-style="italic" lengthAdjust="spacing" textLength="138.7559" x="1313.8311" y="394.4648">ChessBoardInitialzer</text></g><!--class Position--><g id="elem_Position"><rect codeLine="52" fill="#FDF5E6" height="32" id="Position" style="stroke:#181818;stroke-width:0.5;" width="86.0928" x="656.7463" y="519.1055"/><ellipse cx="671.7463" cy="535.1055" fill="#ADD1B2" rx="11" ry="11" style="stroke:#181818;stroke-width:1;"/><path d="M674.2194,541.2485 Q673.6384,541.5474 672.9992,541.6968 Q672.3601,541.8462 671.6545,541.8462 Q669.1477,541.8462 667.8278,540.1943 Q666.508,538.5425 666.508,535.4214 Q666.508,532.292 667.8278,530.6401 Q669.1477,528.9883 671.6545,528.9883 Q672.3601,528.9883 673.0075,529.1377 Q673.655,529.2871 674.2194,529.5859 L674.2194,532.3086 Q673.5886,531.7275 672.9951,531.4578 Q672.4016,531.188 671.7707,531.188 Q670.426,531.188 669.7412,532.2546 Q669.0563,533.3213 669.0563,535.4214 Q669.0563,537.5132 669.7412,538.5798 Q670.426,539.6465 671.7707,539.6465 Q672.4016,539.6465 672.9951,539.3767 Q673.5886,539.1069 674.2194,538.5259 Z " fill="#000000"/><text fill="#000000" font-family="sans-serif" font-size="14" lengthAdjust="spacing" textLength="54.0928" x="685.7463" y="540.3965">Position</text></g><!--class PlayerColor--><g id="elem_PlayerColor"><rect codeLine="54" fill="#F8F8FF" height="72.9766" id="PlayerColor" style="stroke:#696969;stroke-width:0.5;" width="109.0205" x="1023.2118" y="665.0371"/><ellipse cx="1038.2118" cy="681.0371" fill="#EB937F" rx="11" ry="11" style="stroke:#181818;stroke-width:1;"/><path d="M1041.826,687.5371 L1034.1063,687.5371 L1034.1063,675.144 L1041.826,675.144 L1041.826,677.3022 L1036.555,677.3022 L1036.555,679.9751 L1041.328,679.9751 L1041.328,682.1333 L1036.555,682.1333 L1036.555,685.3789 L1041.826,685.3789 Z " fill="#000000"/><text fill="#696969" font-family="sans-serif" font-size="14" lengthAdjust="spacing" textLength="77.0205" x="1052.2118" y="686.3281">PlayerColor</text><line style="stroke:#696969;stroke-width:0.5;" x1="1024.2118" x2="1131.2323" y1="697.0371" y2="697.0371"/><text fill="#696969" font-family="sans-serif" font-size="14" lengthAdjust="spacing" textLength="42.7383" x="1029.2118" y="714.5723">WHITE</text><text fill="#696969" font-family="sans-serif" font-size="14" lengthAdjust="spacing" textLength="44.0029" x="1029.2118" y="731.0605">BLACK</text></g><!--class PieceType--><g id="elem_PieceType"><rect codeLine="59" fill="#F8F8FF" height="138.9297" id="PieceType" style="stroke:#696969;stroke-width:0.5;" width="99.334" x="666.1395" y="665.0371"/><ellipse cx="681.1395" cy="681.0371" fill="#EB937F" rx="11" ry="11" style="stroke:#181818;stroke-width:1;"/><path d="M684.7537,687.5371 L677.034,687.5371 L677.034,675.144 L684.7537,675.144 L684.7537,677.3022 L679.4827,677.3022 L679.4827,679.9751 L684.2557,679.9751 L684.2557,682.1333 L679.4827,682.1333 L679.4827,685.3789 L684.7537,685.3789 Z " fill="#000000"/><text fill="#696969" font-family="sans-serif" font-size="14" lengthAdjust="spacing" textLength="67.334" x="695.1395" y="686.3281">PieceType</text><line style="stroke:#696969;stroke-width:0.5;" x1="667.1395" x2="764.4735" y1="697.0371" y2="697.0371"/><text fill="#696969" font-family="sans-serif" font-size="14" lengthAdjust="spacing" textLength="39.7168" x="672.1395" y="714.5723">PAWN</text><text fill="#696969" font-family="sans-serif" font-size="14" lengthAdjust="spacing" textLength="39.7441" x="672.1395" y="731.0605">ROOK</text><text fill="#696969" font-family="sans-serif" font-size="14" lengthAdjust="spacing" textLength="52.7734" x="672.1395" y="747.5488">KNIGHT</text><text fill="#696969" font-family="sans-serif" font-size="14" lengthAdjust="spacing" textLength="48.5283" x="672.1395" y="764.0371">BISHOP</text><text fill="#696969" font-family="sans-serif" font-size="14" lengthAdjust="spacing" textLength="46.0947" x="672.1395" y="780.5254">QUEEN</text><text fill="#696969" font-family="sans-serif" font-size="14" lengthAdjust="spacing" textLength="33.6328" x="672.1395" y="797.0137">KING</text></g><!--class ChessPiece--><g id="elem_ChessPiece"><rect codeLine="68" fill="#FDF5E6" height="32" id="ChessPiece" style="stroke:#181818;stroke-width:0.5;" width="107.0039" x="881.5382" y="519.1055"/><ellipse cx="896.5382" cy="535.1055" fill="#A9DCDF" rx="11" ry="11" style="stroke:#181818;stroke-width:1;"/><path d="M896.4014,530.4536 L895.2476,535.5254 L897.5635,535.5254 Z M894.9073,528.2124 L897.9039,528.2124 L901.2491,540.6055 L898.8004,540.6055 L898.0367,537.5425 L894.7579,537.5425 L894.0108,540.6055 L891.5621,540.6055 Z " fill="#000000"/><text fill="#000000" font-family="sans-serif" font-size="14" font-style="italic" lengthAdjust="spacing" textLength="75.0039" x="910.5382" y="540.3965">ChessPiece</text></g><!--class PromotableChessPiece--><g id="elem_PromotableChessPiece"><rect codeLine="69" fill="#FDF5E6" height="32" id="PromotableChessPiece" style="stroke:#181818;stroke-width:0.5;" width="184.3662" x="1221.3806" y="730.5534"/><ellipse cx="1236.3806" cy="746.5534" fill="#A9DCDF" rx="11" ry="11" style="stroke:#181818;stroke-width:1;"/><path d="M1236.2439,741.9015 L1235.0901,746.9733 L1237.406,746.9733 Z M1234.7497,739.6603 L1237.7463,739.6603 L1241.0915,752.0534 L1238.6428,752.0534 L1237.8791,748.9904 L1234.6003,748.9904 L1233.8533,752.0534 L1231.4045,752.0534 Z " fill="#000000"/><text fill="#000000" font-family="sans-serif" font-size="14" font-style="italic" lengthAdjust="spacing" textLength="152.3662" x="1250.3806" y="751.8444">PromotableChessPiece</text></g><!--class Pawn--><g id="elem_Pawn"><rect codeLine="70" fill="#FDF5E6" height="32" id="Pawn" style="stroke:#181818;stroke-width:0.5;" width="66.9453" x="579.1942" y="665.0371"/><ellipse cx="594.1942" cy="681.0371" fill="#ADD1B2" rx="11" ry="11" style="stroke:#181818;stroke-width:1;"/><path d="M596.6673,687.1802 Q596.0863,687.479 595.4471,687.6284 Q594.8079,687.7778 594.1024,687.7778 Q591.5955,687.7778 590.2757,686.126 Q588.9559,684.4741 588.9559,681.353 Q588.9559,678.2236 590.2757,676.5718 Q591.5955,674.9199 594.1024,674.9199 Q594.8079,674.9199 595.4554,675.0693 Q596.1029,675.2188 596.6673,675.5176 L596.6673,678.2402 Q596.0365,677.6592 595.443,677.3894 Q594.8494,677.1196 594.2186,677.1196 Q592.8739,677.1196 592.189,678.1863 Q591.5042,679.2529 591.5042,681.353 Q591.5042,683.4448 592.189,684.5115 Q592.8739,685.5781 594.2186,685.5781 Q594.8494,685.5781 595.443,685.3083 Q596.0365,685.0386 596.6673,684.4575 Z " fill="#000000"/><text fill="#000000" font-family="sans-serif" font-size="14" lengthAdjust="spacing" textLength="34.9453" x="608.1942" y="686.3281">Pawn</text></g><!--class Rook--><g id="elem_Rook"><rect codeLine="71" fill="#FDF5E6" height="32" id="Rook" style="stroke:#181818;stroke-width:0.5;" width="66.2344" x="1262.0099" y="853.9668"/><ellipse cx="1277.0099" cy="869.9668" fill="#ADD1B2" rx="11" ry="11" style="stroke:#181818;stroke-width:1;"/><path d="M1279.483,876.1099 Q1278.902,876.4087 1278.2628,876.5581 Q1277.6237,876.7075 1276.9181,876.7075 Q1274.4113,876.7075 1273.0914,875.0557 Q1271.7716,873.4038 1271.7716,870.2827 Q1271.7716,867.1533 1273.0914,865.5015 Q1274.4113,863.8496 1276.9181,863.8496 Q1277.6237,863.8496 1278.2711,863.999 Q1278.9186,864.1484 1279.483,864.4473 L1279.483,867.1699 Q1278.8522,866.5889 1278.2587,866.3191 Q1277.6652,866.0493 1277.0343,866.0493 Q1275.6896,866.0493 1275.0048,867.116 Q1274.32,868.1826 1274.32,870.2827 Q1274.32,872.3745 1275.0048,873.4412 Q1275.6896,874.5078 1277.0343,874.5078 Q1277.6652,874.5078 1278.2587,874.238 Q1278.8522,873.9683 1279.483,873.3872 Z " fill="#000000"/><text fill="#000000" font-family="sans-serif" font-size="14" lengthAdjust="spacing" textLength="34.2344" x="1291.0099" y="875.2578">Rook</text></g><!--class Knight--><g id="elem_Knight"><rect codeLine="72" fill="#FDF5E6" height="32" id="Knight" style="stroke:#181818;stroke-width:0.5;" width="76.5293" x="1165.4806" y="853.9668"/><ellipse cx="1180.4806" cy="869.9668" fill="#ADD1B2" rx="11" ry="11" style="stroke:#181818;stroke-width:1;"/><path d="M1182.9537,876.1099 Q1182.3727,876.4087 1181.7335,876.5581 Q1181.0944,876.7075 1180.3888,876.7075 Q1177.882,876.7075 1176.5621,875.0557 Q1175.2423,873.4038 1175.2423,870.2827 Q1175.2423,867.1533 1176.5621,865.5015 Q1177.882,863.8496 1180.3888,863.8496 Q1181.0944,863.8496 1181.7418,863.999 Q1182.3893,864.1484 1182.9537,864.4473 L1182.9537,867.1699 Q1182.3229,866.5889 1181.7294,866.3191 Q1181.1359,866.0493 1180.505,866.0493 Q1179.1603,866.0493 1178.4755,867.116 Q1177.7907,868.1826 1177.7907,870.2827 Q1177.7907,872.3745 1178.4755,873.4412 Q1179.1603,874.5078 1180.505,874.5078 Q1181.1359,874.5078 1181.7294,874.238 Q1182.3229,873.9683 1182.9537,873.3872 Z " fill="#000000"/><text fill="#000000" font-family="sans-serif" font-size="14" lengthAdjust="spacing" textLength="44.5293" x="1194.4806" y="875.2578">Knight</text></g><!--class Bishop--><g id="elem_Bishop"><rect codeLine="73" fill="#FDF5E6" height="32" id="Bishop" style="stroke:#181818;stroke-width:0.5;" width="77.3359" x="1348.2443" y="853.9668"/><ellipse cx="1363.2443" cy="869.9668" fill="#ADD1B2" rx="11" ry="11" style="stroke:#181818;stroke-width:1;"/><path d="M1365.7174,876.1099 Q1365.1364,876.4087 1364.4972,876.5581 Q1363.858,876.7075 1363.1525,876.7075 Q1360.6456,876.7075 1359.3258,875.0557 Q1358.006,873.4038 1358.006,870.2827 Q1358.006,867.1533 1359.3258,865.5015 Q1360.6456,863.8496 1363.1525,863.8496 Q1363.858,863.8496 1364.5055,863.999 Q1365.153,864.1484 1365.7174,864.4473 L1365.7174,867.1699 Q1365.0866,866.5889 1364.4931,866.3191 Q1363.8995,866.0493 1363.2687,866.0493 Q1361.924,866.0493 1361.2391,867.116 Q1360.5543,868.1826 1360.5543,870.2827 Q1360.5543,872.3745 1361.2391,873.4412 Q1361.924,874.5078 1363.2687,874.5078 Q1363.8995,874.5078 1364.4931,874.238 Q1365.0866,873.9683 1365.7174,873.3872 Z " fill="#000000"/><text fill="#000000" font-family="sans-serif" font-size="14" lengthAdjust="spacing" textLength="45.3359" x="1377.2443" y="875.2578">Bishop</text></g><!--class Queen--><g id="elem_Queen"><rect codeLine="74" fill="#FDF5E6" height="32" id="Queen" style="stroke:#181818;stroke-width:0.5;" width="75.8525" x="1445.5802" y="853.9668"/><ellipse cx="1460.5802" cy="869.9668" fill="#ADD1B2" rx="11" ry="11" style="stroke:#181818;stroke-width:1;"/><path d="M1463.0534,876.1099 Q1462.4723,876.4087 1461.8331,876.5581 Q1461.194,876.7075 1460.4884,876.7075 Q1457.9816,876.7075 1456.6618,875.0557 Q1455.3419,873.4038 1455.3419,870.2827 Q1455.3419,867.1533 1456.6618,865.5015 Q1457.9816,863.8496 1460.4884,863.8496 Q1461.194,863.8496 1461.8414,863.999 Q1462.4889,864.1484 1463.0534,864.4473 L1463.0534,867.1699 Q1462.4225,866.5889 1461.829,866.3191 Q1461.2355,866.0493 1460.6046,866.0493 Q1459.2599,866.0493 1458.5751,867.116 Q1457.8903,868.1826 1457.8903,870.2827 Q1457.8903,872.3745 1458.5751,873.4412 Q1459.2599,874.5078 1460.6046,874.5078 Q1461.2355,874.5078 1461.829,874.238 Q1462.4225,873.9683 1463.0534,873.3872 Z " fill="#000000"/><text fill="#000000" font-family="sans-serif" font-size="14" lengthAdjust="spacing" textLength="43.8525" x="1474.5802" y="875.2578">Queen</text></g><!--class King--><g id="elem_King"><rect codeLine="75" fill="#FDF5E6" height="32" id="King" style="stroke:#181818;stroke-width:0.5;" width="62.6045" x="940.6073" y="665.0371"/><ellipse cx="955.6073" cy="681.0371" fill="#ADD1B2" rx="11" ry="11" style="stroke:#181818;stroke-width:1;"/><path d="M958.0804,687.1802 Q957.4993,687.479 956.8602,687.6284 Q956.221,687.7778 955.5155,687.7778 Q953.0086,687.7778 951.6888,686.126 Q950.369,684.4741 950.369,681.353 Q950.369,678.2236 951.6888,676.5718 Q953.0086,674.9199 955.5155,674.9199 Q956.221,674.9199 956.8685,675.0693 Q957.516,675.2188 958.0804,675.5176 L958.0804,678.2402 Q957.4495,677.6592 956.856,677.3894 Q956.2625,677.1196 955.6317,677.1196 Q954.2869,677.1196 953.6021,678.1863 Q952.9173,679.2529 952.9173,681.353 Q952.9173,683.4448 953.6021,684.5115 Q954.2869,685.5781 955.6317,685.5781 Q956.2625,685.5781 956.856,685.3083 Q957.4495,685.0386 958.0804,684.4575 Z " fill="#000000"/><text fill="#000000" font-family="sans-serif" font-size="14" lengthAdjust="spacing" textLength="30.6045" x="969.6073" y="686.3281">King</text></g><!--class MoveGenerator--><g id="elem_MoveGenerator"><rect codeLine="78" fill="#FDF5E6" height="32" id="MoveGenerator" style="stroke:#181818;stroke-width:0.5;" width="135.1338" x="785.4735" y="722.2707"/><ellipse cx="800.4735" cy="738.2707" fill="#A9DCDF" rx="11" ry="11" style="stroke:#181818;stroke-width:1;"/><path d="M800.3368,733.6188 L799.1829,738.6906 L801.4989,738.6906 Z M798.8426,731.3776 L801.8392,731.3776 L805.1844,743.7707 L802.7357,743.7707 L801.972,740.7077 L798.6932,740.7077 L797.9461,743.7707 L795.4974,743.7707 Z " fill="#000000"/><text fill="#000000" font-family="sans-serif" font-size="14" font-style="italic" lengthAdjust="spacing" textLength="103.1338" x="814.4735" y="743.5617">MoveGenerator</text></g><!--class DirectionalGenerator--><g id="elem_DirectionalGenerator"><rect codeLine="79" fill="#FDF5E6" height="32" id="DirectionalGenerator" style="stroke:#181818;stroke-width:0.5;" width="173.0117" x="772.2458" y="979.8984"/><ellipse cx="787.2458" cy="995.8984" fill="#ADD1B2" rx="11" ry="11" style="stroke:#181818;stroke-width:1;"/><path d="M789.7189,1002.0415 Q789.1379,1002.3403 788.4987,1002.4897 Q787.8595,1002.6392 787.154,1002.6392 Q784.6471,1002.6392 783.3273,1000.9873 Q782.0075,999.3354 782.0075,996.2144 Q782.0075,993.085 783.3273,991.4331 Q784.6471,989.7813 787.154,989.7813 Q787.8595,989.7813 788.507,989.9307 Q789.1545,990.0801 789.7189,990.3789 L789.7189,993.1016 Q789.0881,992.5205 788.4945,992.2507 Q787.901,991.981 787.2702,991.981 Q785.9255,991.981 785.2406,993.0476 Q784.5558,994.1143 784.5558,996.2144 Q784.5558,998.3062 785.2406,999.3728 Q785.9255,1000.4395 787.2702,1000.4395 Q787.901,1000.4395 788.4945,1000.1697 Q789.0881,999.8999 789.7189,999.3188 Z " fill="#000000"/><text fill="#000000" font-family="sans-serif" font-size="14" lengthAdjust="spacing" textLength="141.0117" x="801.2458" y="1001.1895">DirectionalGenerator</text></g><!--class KnightGenerator--><g id="elem_KnightGenerator"><rect codeLine="80" fill="#FDF5E6" height="32" id="KnightGenerator" style="stroke:#181818;stroke-width:0.5;" width="143.959" x="781.0609" y="853.9668"/><ellipse cx="796.0609" cy="869.9668" fill="#ADD1B2" rx="11" ry="11" style="stroke:#181818;stroke-width:1;"/><path d="M798.534,876.1099 Q797.953,876.4087 797.3138,876.5581 Q796.6746,876.7075 795.9691,876.7075 Q793.4622,876.7075 792.1424,875.0557 Q790.8226,873.4038 790.8226,870.2827 Q790.8226,867.1533 792.1424,865.5015 Q793.4622,863.8496 795.9691,863.8496 Q796.6746,863.8496 797.3221,863.999 Q797.9696,864.1484 798.534,864.4473 L798.534,867.1699 Q797.9032,866.5889 797.3097,866.3191 Q796.7161,866.0493 796.0853,866.0493 Q794.7406,866.0493 794.0557,867.116 Q793.3709,868.1826 793.3709,870.2827 Q793.3709,872.3745 794.0557,873.4412 Q794.7406,874.5078 796.0853,874.5078 Q796.7161,874.5078 797.3097,874.238 Q797.9032,873.9683 798.534,873.3872 Z " fill="#000000"/><text fill="#000000" font-family="sans-serif" font-size="14" lengthAdjust="spacing" textLength="111.959" x="810.0609" y="875.2578">KnightGenerator</text></g><!--class DistanceGenerator--><g id="elem_DistanceGenerator"><rect codeLine="81" fill="#FDF5E6" height="32" id="DistanceGenerator" style="stroke:#181818;stroke-width:0.5;" width="157.7266" x="603.3343" y="853.9668"/><ellipse cx="618.3343" cy="869.9668" fill="#ADD1B2" rx="11" ry="11" style="stroke:#181818;stroke-width:1;"/><path d="M620.8075,876.1099 Q620.2264,876.4087 619.5872,876.5581 Q618.9481,876.7075 618.2425,876.7075 Q615.7357,876.7075 614.4159,875.0557 Q613.096,873.4038 613.096,870.2827 Q613.096,867.1533 614.4159,865.5015 Q615.7357,863.8496 618.2425,863.8496 Q618.9481,863.8496 619.5955,863.999 Q620.243,864.1484 620.8075,864.4473 L620.8075,867.1699 Q620.1766,866.5889 619.5831,866.3191 Q618.9896,866.0493 618.3587,866.0493 Q617.014,866.0493 616.3292,867.116 Q615.6444,868.1826 615.6444,870.2827 Q615.6444,872.3745 616.3292,873.4412 Q617.014,874.5078 618.3587,874.5078 Q618.9896,874.5078 619.5831,874.238 Q620.1766,873.9683 620.8075,873.3872 Z " fill="#000000"/><text fill="#000000" font-family="sans-serif" font-size="14" lengthAdjust="spacing" textLength="125.7266" x="632.3343" y="875.2578">DistanceGenerator</text></g><!--class PawnDistanceGenerator--><g id="elem_PawnDistanceGenerator"><rect codeLine="82" fill="#FDF5E6" height="32" id="PawnDistanceGenerator" style="stroke:#181818;stroke-width:0.5;" width="192.6719" x="559.5739" y="979.8984"/><ellipse cx="574.5739" cy="995.8984" fill="#ADD1B2" rx="11" ry="11" style="stroke:#181818;stroke-width:1;"/><path d="M577.047,1002.0415 Q576.466,1002.3403 575.8268,1002.4897 Q575.1877,1002.6392 574.4821,1002.6392 Q571.9753,1002.6392 570.6554,1000.9873 Q569.3356,999.3354 569.3356,996.2144 Q569.3356,993.085 570.6554,991.4331 Q571.9753,989.7813 574.4821,989.7813 Q575.1877,989.7813 575.8351,989.9307 Q576.4826,990.0801 577.047,990.3789 L577.047,993.1016 Q576.4162,992.5205 575.8227,992.2507 Q575.2292,991.981 574.5983,991.981 Q573.2536,991.981 572.5688,993.0476 Q571.884,994.1143 571.884,996.2144 Q571.884,998.3062 572.5688,999.3728 Q573.2536,1000.4395 574.5983,1000.4395 Q575.2292,1000.4395 575.8227,1000.1697 Q576.4162,999.8999 577.047,999.3188 Z " fill="#000000"/><text fill="#000000" font-family="sans-serif" font-size="14" lengthAdjust="spacing" textLength="160.6719" x="588.5739" y="1001.1895">PawnDistanceGenerator</text></g><!--class Direction--><g id="elem_Direction"><rect codeLine="84" fill="#FDF5E6" height="171.9063" id="Direction" style="stroke:#181818;stroke-width:0.5;" width="146.1963" x="785.6535" y="1105.8301"/><ellipse cx="824.2301" cy="1121.8301" fill="#EB937F" rx="11" ry="11" style="stroke:#181818;stroke-width:1;"/><path d="M827.8444,1128.3301 L820.1247,1128.3301 L820.1247,1115.937 L827.8444,1115.937 L827.8444,1118.0952 L822.5734,1118.0952 L822.5734,1120.7681 L827.3464,1120.7681 L827.3464,1122.9263 L822.5734,1122.9263 L822.5734,1126.1719 L827.8444,1126.1719 Z " fill="#000000"/><text fill="#000000" font-family="sans-serif" font-size="14" lengthAdjust="spacing" textLength="61.8037" x="843.4694" y="1127.1211">Direction</text><line style="stroke:#181818;stroke-width:0.5;" x1="786.6535" x2="930.8498" y1="1137.8301" y2="1137.8301"/><text fill="#000000" font-family="sans-serif" font-size="14" lengthAdjust="spacing" textLength="75.749" x="791.6535" y="1155.3652">FORWARDS</text><text fill="#000000" font-family="sans-serif" font-size="14" lengthAdjust="spacing" textLength="85.0527" x="791.6535" y="1171.8535">BACKWARDS</text><text fill="#000000" font-family="sans-serif" font-size="14" lengthAdjust="spacing" textLength="31.4111" x="791.6535" y="1188.3418">LEFT</text><text fill="#000000" font-family="sans-serif" font-size="14" lengthAdjust="spacing" textLength="42.1436" x="791.6535" y="1204.8301">RIGHT</text><text fill="#000000" font-family="sans-serif" font-size="14" lengthAdjust="spacing" textLength="114.1602" x="791.6535" y="1221.3184">FORWARDS_LEFT</text><text fill="#000000" font-family="sans-serif" font-size="14" lengthAdjust="spacing" textLength="124.8926" x="791.6535" y="1237.8066">FORWARDS_RIGHT</text><text fill="#000000" font-family="sans-serif" font-size="14" lengthAdjust="spacing" textLength="123.4639" x="791.6535" y="1254.2949">BACKWARDS_LEFT</text><text fill="#000000" font-family="sans-serif" font-size="14" lengthAdjust="spacing" textLength="134.1963" x="791.6535" y="1270.7832">BACKWARDS_RIGHT</text></g><!--class Moves--><g id="elem_Moves"><rect codeLine="96" fill="#FDF5E6" height="32" id="Moves" style="stroke:#181818;stroke-width:0.5;" width="74.8408" x="536.8833" y="12"/><ellipse cx="551.8833" cy="28" fill="#ADD1B2" rx="11" ry="11" style="stroke:#181818;stroke-width:1;"/><path d="M554.3564,34.1431 Q553.7754,34.4419 553.1362,34.5913 Q552.4971,34.7407 551.7915,34.7407 Q549.2847,34.7407 547.9648,33.0889 Q546.645,31.437 546.645,28.3159 Q546.645,25.1865 547.9648,23.5347 Q549.2847,21.8828 551.7915,21.8828 Q552.4971,21.8828 553.1445,22.0322 Q553.792,22.1816 554.3564,22.4805 L554.3564,25.2031 Q553.7256,24.6221 553.1321,24.3523 Q552.5386,24.0825 551.9077,24.0825 Q550.563,24.0825 549.8782,25.1492 Q549.1934,26.2158 549.1934,28.3159 Q549.1934,30.4077 549.8782,31.4744 Q550.563,32.541 551.9077,32.541 Q552.5386,32.541 553.1321,32.2712 Q553.7256,32.0015 554.3564,31.4204 Z " fill="#000000"/><text fill="#000000" font-family="sans-serif" font-size="14" lengthAdjust="spacing" textLength="42.8408" x="565.8833" y="33.291">Moves</text></g><!--class ChessMove--><g id="elem_ChessMove"><rect codeLine="98" fill="#FDF5E6" height="32" id="ChessMove" style="stroke:#181818;stroke-width:0.5;" width="108.1523" x="520.2275" y="137.9316"/><ellipse cx="535.2275" cy="153.9316" fill="#A9DCDF" rx="11" ry="11" style="stroke:#181818;stroke-width:1;"/><path d="M535.0908,149.2798 L533.937,154.3516 L536.2529,154.3516 Z M533.5967,147.0386 L536.5933,147.0386 L539.9385,159.4316 L537.4897,159.4316 L536.7261,156.3687 L533.4473,156.3687 L532.7002,159.4316 L530.2515,159.4316 Z " fill="#000000"/><text fill="#000000" font-family="sans-serif" font-size="14" font-style="italic" lengthAdjust="spacing" textLength="76.1523" x="549.2275" y="159.2227">ChessMove</text></g><!--class StandardMove--><g id="elem_StandardMove"><rect codeLine="100" fill="#FDF5E6" height="32" id="StandardMove" style="stroke:#181818;stroke-width:0.5;" width="127.9834" x="510.312" y="243.0124"/><ellipse cx="525.312" cy="259.0124" fill="#ADD1B2" rx="11" ry="11" style="stroke:#181818;stroke-width:1;"/><path d="M527.7852,265.1554 Q527.2041,265.4543 526.5649,265.6037 Q525.9258,265.7531 525.2202,265.7531 Q522.7134,265.7531 521.3936,264.1012 Q520.0737,262.4494 520.0737,259.3283 Q520.0737,256.1989 521.3936,254.547 Q522.7134,252.8952 525.2202,252.8952 Q525.9258,252.8952 526.5732,253.0446 Q527.2207,253.194 527.7852,253.4928 L527.7852,256.2155 Q527.1543,255.6344 526.5608,255.3647 Q525.9673,255.0949 525.3364,255.0949 Q523.9917,255.0949 523.3069,256.1615 Q522.6221,257.2282 522.6221,259.3283 Q522.6221,261.4201 523.3069,262.4867 Q523.9917,263.5534 525.3364,263.5534 Q525.9673,263.5534 526.5608,263.2836 Q527.1543,263.0138 527.7852,262.4328 Z " fill="#000000"/><text fill="#000000" font-family="sans-serif" font-size="14" lengthAdjust="spacing" textLength="95.9834" x="539.312" y="264.3034">StandardMove</text></g><!--class Capture--><g id="elem_Capture"><rect codeLine="101" fill="#FDF5E6" height="32" id="Capture" style="stroke:#181818;stroke-width:0.5;" width="85.6826" x="62.1279" y="245.8975"/><ellipse cx="77.1279" cy="261.8975" fill="#ADD1B2" rx="11" ry="11" style="stroke:#181818;stroke-width:1;"/><path d="M79.6011,268.0405 Q79.02,268.3394 78.3809,268.4888 Q77.7417,268.6382 77.0361,268.6382 Q74.5293,268.6382 73.2095,266.9863 Q71.8896,265.3345 71.8896,262.2134 Q71.8896,259.084 73.2095,257.4321 Q74.5293,255.7803 77.0361,255.7803 Q77.7417,255.7803 78.3892,255.9297 Q79.0366,256.0791 79.6011,256.3779 L79.6011,259.1006 Q78.9702,258.5195 78.3767,258.2498 Q77.7832,257.98 77.1523,257.98 Q75.8076,257.98 75.1228,259.0466 Q74.438,260.1133 74.438,262.2134 Q74.438,264.3052 75.1228,265.3718 Q75.8076,266.4385 77.1523,266.4385 Q77.7832,266.4385 78.3767,266.1687 Q78.9702,265.8989 79.6011,265.3179 Z " fill="#000000"/><text fill="#000000" font-family="sans-serif" font-size="14" lengthAdjust="spacing" textLength="53.6826" x="91.1279" y="267.1885">Capture</text></g><!--class EnPassant--><g id="elem_EnPassant"><rect codeLine="102" fill="#FDF5E6" height="32" id="EnPassant" style="stroke:#181818;stroke-width:0.5;" width="99.6758" x="624.127" y="373.1738"/><ellipse cx="639.127" cy="389.1738" fill="#ADD1B2" rx="11" ry="11" style="stroke:#181818;stroke-width:1;"/><path d="M641.6001,395.3169 Q641.019,395.6157 640.3799,395.7651 Q639.7407,395.9146 639.0352,395.9146 Q636.5283,395.9146 635.2085,394.2627 Q633.8887,392.6108 633.8887,389.4897 Q633.8887,386.3604 635.2085,384.7085 Q636.5283,383.0566 639.0352,383.0566 Q639.7407,383.0566 640.3882,383.2061 Q641.0356,383.3555 641.6001,383.6543 L641.6001,386.377 Q640.9692,385.7959 640.3757,385.5261 Q639.7822,385.2563 639.1514,385.2563 Q637.8066,385.2563 637.1218,386.323 Q636.437,387.3896 636.437,389.4897 Q636.437,391.5815 637.1218,392.6482 Q637.8066,393.7148 639.1514,393.7148 Q639.7822,393.7148 640.3757,393.4451 Q640.9692,393.1753 641.6001,392.5942 Z " fill="#000000"/><text fill="#000000" font-family="sans-serif" font-size="14" lengthAdjust="spacing" textLength="67.6758" x="653.127" y="394.4648">EnPassant</text></g><!--class Castling--><g id="elem_Castling"><rect codeLine="103" fill="#FDF5E6" height="32" id="Castling" style="stroke:#181818;stroke-width:0.5;" width="87.3027" x="249.2301" y="243.0124"/><ellipse cx="264.2301" cy="259.0124" fill="#A9DCDF" rx="11" ry="11" style="stroke:#181818;stroke-width:1;"/><path d="M264.0934,254.3605 L262.9396,259.4323 L265.2555,259.4323 Z M262.5993,252.1193 L265.5959,252.1193 L268.9411,264.5124 L266.4924,264.5124 L265.7287,261.4494 L262.4499,261.4494 L261.7028,264.5124 L259.2541,264.5124 Z " fill="#000000"/><text fill="#000000" font-family="sans-serif" font-size="14" font-style="italic" lengthAdjust="spacing" textLength="55.3027" x="278.2301" y="264.3034">Castling</text></g><!--class LongCastling--><g id="elem_LongCastling"><rect codeLine="104" fill="#FDF5E6" height="32" id="LongCastling" style="stroke:#181818;stroke-width:0.5;" width="120.7852" x="217.9385" y="373.1738"/><ellipse cx="232.9385" cy="389.1738" fill="#ADD1B2" rx="11" ry="11" style="stroke:#181818;stroke-width:1;"/><path d="M235.4116,395.3169 Q234.8306,395.6157 234.1914,395.7651 Q233.5522,395.9146 232.8467,395.9146 Q230.3398,395.9146 229.02,394.2627 Q227.7002,392.6108 227.7002,389.4897 Q227.7002,386.3604 229.02,384.7085 Q230.3398,383.0566 232.8467,383.0566 Q233.5522,383.0566 234.1997,383.2061 Q234.8472,383.3555 235.4116,383.6543 L235.4116,386.377 Q234.7808,385.7959 234.1873,385.5261 Q233.5938,385.2563 232.9629,385.2563 Q231.6182,385.2563 230.9333,386.323 Q230.2485,387.3896 230.2485,389.4897 Q230.2485,391.5815 230.9333,392.6482 Q231.6182,393.7148 232.9629,393.7148 Q233.5938,393.7148 234.1873,393.4451 Q234.7808,393.1753 235.4116,392.5942 Z " fill="#000000"/><text fill="#000000" font-family="sans-serif" font-size="14" lengthAdjust="spacing" textLength="88.7852" x="246.9385" y="394.4648">LongCastling</text></g><!--class ShortCastling--><g id="elem_ShortCastling"><rect codeLine="105" fill="#FDF5E6" height="32" id="ShortCastling" style="stroke:#181818;stroke-width:0.5;" width="123.0957" x="358.7236" y="373.1738"/><ellipse cx="373.7236" cy="389.1738" fill="#ADD1B2" rx="11" ry="11" style="stroke:#181818;stroke-width:1;"/><path d="M376.1968,395.3169 Q375.6157,395.6157 374.9766,395.7651 Q374.3374,395.9146 373.6318,395.9146 Q371.125,395.9146 369.8052,394.2627 Q368.4854,392.6108 368.4854,389.4897 Q368.4854,386.3604 369.8052,384.7085 Q371.125,383.0566 373.6318,383.0566 Q374.3374,383.0566 374.9849,383.2061 Q375.6323,383.3555 376.1968,383.6543 L376.1968,386.377 Q375.5659,385.7959 374.9724,385.5261 Q374.3789,385.2563 373.748,385.2563 Q372.4033,385.2563 371.7185,386.323 Q371.0337,387.3896 371.0337,389.4897 Q371.0337,391.5815 371.7185,392.6482 Q372.4033,393.7148 373.748,393.7148 Q374.3789,393.7148 374.9724,393.4451 Q375.5659,393.1753 376.1968,392.5942 Z " fill="#000000"/><text fill="#000000" font-family="sans-serif" font-size="14" lengthAdjust="spacing" textLength="91.0957" x="387.7236" y="394.4648">ShortCastling</text></g><!--class Promotion--><g id="elem_Promotion"><rect codeLine="106" fill="#FDF5E6" height="32" id="Promotion" style="stroke:#181818;stroke-width:0.5;" width="102.3076" x="501.8193" y="373.1738"/><ellipse cx="516.8193" cy="389.1738" fill="#ADD1B2" rx="11" ry="11" style="stroke:#181818;stroke-width:1;"/><path d="M519.2925,395.3169 Q518.7114,395.6157 518.0723,395.7651 Q517.4331,395.9146 516.7275,395.9146 Q514.2207,395.9146 512.9009,394.2627 Q511.5811,392.6108 511.5811,389.4897 Q511.5811,386.3604 512.9009,384.7085 Q514.2207,383.0566 516.7275,383.0566 Q517.4331,383.0566 518.0806,383.2061 Q518.728,383.3555 519.2925,383.6543 L519.2925,386.377 Q518.6616,385.7959 518.0681,385.5261 Q517.4746,385.2563 516.8438,385.2563 Q515.499,385.2563 514.8142,386.323 Q514.1294,387.3896 514.1294,389.4897 Q514.1294,391.5815 514.8142,392.6482 Q515.499,393.7148 516.8438,393.7148 Q517.4746,393.7148 518.0681,393.4451 Q518.6616,393.1753 519.2925,392.5942 Z " fill="#000000"/><text fill="#000000" font-family="sans-serif" font-size="14" lengthAdjust="spacing" textLength="70.3076" x="530.8193" y="394.4648">Promotion</text></g><!--class PromotionWithCapture--><g id="elem_PromotionWithCapture"><rect codeLine="107" fill="#FDF5E6" height="32" id="PromotionWithCapture" style="stroke:#181818;stroke-width:0.5;" width="185.9385" x="12" y="373.1738"/><ellipse cx="27" cy="389.1738" fill="#ADD1B2" rx="11" ry="11" style="stroke:#181818;stroke-width:1;"/><path d="M29.4731,395.3169 Q28.8921,395.6157 28.2529,395.7651 Q27.6138,395.9146 26.9082,395.9146 Q24.4014,395.9146 23.0815,394.2627 Q21.7617,392.6108 21.7617,389.4897 Q21.7617,386.3604 23.0815,384.7085 Q24.4014,383.0566 26.9082,383.0566 Q27.6138,383.0566 28.2612,383.2061 Q28.9087,383.3555 29.4731,383.6543 L29.4731,386.377 Q28.8423,385.7959 28.2488,385.5261 Q27.6553,385.2563 27.0244,385.2563 Q25.6797,385.2563 24.9949,386.323 Q24.3101,387.3896 24.3101,389.4897 Q24.3101,391.5815 24.9949,392.6482 Q25.6797,393.7148 27.0244,393.7148 Q27.6553,393.7148 28.2488,393.4451 Q28.8423,393.1753 29.4731,392.5942 Z " fill="#000000"/><text fill="#000000" font-family="sans-serif" font-size="14" lengthAdjust="spacing" textLength="153.9385" x="41" y="394.4648">PromotionWithCapture</text></g><line style="stroke:#181818;stroke-width:1;stroke-dasharray:7.0,7.0;" x1="1245.7112" x2="1245.7112" y1="169.9316" y2="197.2422"/><line style="stroke:#181818;stroke-width:1;stroke-dasharray:7.0,7.0;" x1="1245.7112" x2="1268.836" y1="197.2422" y2="197.2422"/><line style="stroke:#181818;stroke-width:1;stroke-dasharray:7.0,7.0;" x1="1268.836" x2="1268.836" y1="197.2422" y2="237.2422"/><polygon fill="#FFFFFF" points="1245.7112,169.9316,1238.7112,188.9316,1252.7112,188.9316,1245.7112,169.9316" style="stroke:#181818;stroke-width:1;"/><line style="stroke:#181818;stroke-width:1;stroke-dasharray:7.0,7.0;" x1="1058.3912" x2="1058.3912" y1="269.2422" y2="335.8633"/><line style="stroke:#181818;stroke-width:1;stroke-dasharray:7.0,7.0;" x1="1058.3912" x2="1014.085" y1="335.8633" y2="335.8633"/><line style="stroke:#181818;stroke-width:1;stroke-dasharray:7.0,7.0;" x1="1014.085" x2="1014.085" y1="335.8633" y2="373.1738"/><polygon fill="#FFFFFF" points="1058.3912,269.2422,1051.3912,288.2422,1065.3912,288.2422,1058.3912,269.2422" style="stroke:#181818;stroke-width:1;"/><line style="stroke:#181818;stroke-width:1;stroke-dasharray:7.0,7.0;" x1="942.0089" x2="942.0089" y1="269.2422" y2="296.5527"/><line style="stroke:#181818;stroke-width:1;stroke-dasharray:7.0,7.0;" x1="942.0089" x2="986.242" y1="296.5527" y2="296.5527"/><line style="stroke:#181818;stroke-width:1;stroke-dasharray:7.0,7.0;" x1="986.242" x2="986.242" y1="296.5527" y2="373.1738"/><polygon fill="#FFFFFF" points="942.0089,269.2422,935.0089,288.2422,949.0089,288.2422,942.0089,269.2422" style="stroke:#181818;stroke-width:1;"/><line style="stroke:#181818;stroke-width:1;stroke-dasharray:7.0,7.0;" x1="917.2061" x2="917.2061" y1="269.2422" y2="519.1055"/><polygon fill="#FFFFFF" points="917.2061,269.2422,910.2061,288.2422,924.2061,288.2422,917.2061,269.2422" style="stroke:#181818;stroke-width:1;"/><line style="stroke:#181818;stroke-width:1;" x1="973.2558" x2="973.2558" y1="551.1055" y2="578.416"/><line style="stroke:#181818;stroke-width:1;" x1="973.2558" x2="1282.836" y1="578.416" y2="578.416"/><line style="stroke:#181818;stroke-width:1;" x1="1282.836" x2="1282.836" y1="578.416" y2="730.5534"/><polygon fill="#FFFFFF" points="973.2558,551.1055,966.2558,570.1055,980.2558,570.1055,973.2558,551.1055" style="stroke:#181818;stroke-width:1;"/><line style="stroke:#181818;stroke-width:1;stroke-dasharray:7.0,7.0;" x1="1344.2914" x2="1344.2914" y1="551.1055" y2="730.5534"/><polygon fill="#FFFFFF" points="1344.2914,551.1055,1337.2914,570.1055,1351.2914,570.1055,1344.2914,551.1055" style="stroke:#181818;stroke-width:1;"/><line style="stroke:#181818;stroke-width:1;" x1="896.8244" x2="896.8244" y1="551.1055" y2="578.416"/><line style="stroke:#181818;stroke-width:1;" x1="896.8244" x2="612.6668" y1="578.416" y2="578.416"/><line style="stroke:#181818;stroke-width:1;" x1="612.6668" x2="612.6668" y1="578.416" y2="665.0371"/><polygon fill="#FFFFFF" points="896.8244,551.1055,889.8244,570.1055,903.8244,570.1055,896.8244,551.1055" style="stroke:#181818;stroke-width:1;"/><line style="stroke:#181818;stroke-width:1;" x1="1295.1271" x2="1295.1271" y1="762.5534" y2="853.9668"/><polygon fill="#FFFFFF" points="1295.1271,762.5534,1288.1271,781.5534,1302.1271,781.5534,1295.1271,762.5534" style="stroke:#181818;stroke-width:1;"/><line style="stroke:#181818;stroke-width:1;" x1="1258.2538" x2="1258.2538" y1="762.5534" y2="813.9668"/><line style="stroke:#181818;stroke-width:1;" x1="1258.2538" x2="1203.7453" y1="813.9668" y2="813.9668"/><line style="stroke:#181818;stroke-width:1;" x1="1203.7453" x2="1203.7453" y1="813.9668" y2="853.9668"/><polygon fill="#FFFFFF" points="1258.2538,762.5534,1251.2538,781.5534,1265.2538,781.5534,1258.2538,762.5534" style="stroke:#181818;stroke-width:1;"/><line style="stroke:#181818;stroke-width:1;" x1="1332.0003" x2="1332.0003" y1="762.5534" y2="823.9668"/><line style="stroke:#181818;stroke-width:1;" x1="1332.0003" x2="1386.9122" y1="823.9668" y2="823.9668"/><line style="stroke:#181818;stroke-width:1;" x1="1386.9122" x2="1386.9122" y1="823.9668" y2="853.9668"/><polygon fill="#FFFFFF" points="1332.0003,762.5534,1325.0003,781.5534,1339.0003,781.5534,1332.0003,762.5534" style="stroke:#181818;stroke-width:1;"/><line style="stroke:#181818;stroke-width:1;" x1="1368.8736" x2="1368.8736" y1="762.5534" y2="813.9668"/><line style="stroke:#181818;stroke-width:1;" x1="1368.8736" x2="1483.5065" y1="813.9668" y2="813.9668"/><line style="stroke:#181818;stroke-width:1;" x1="1483.5065" x2="1483.5065" y1="813.9668" y2="853.9668"/><polygon fill="#FFFFFF" points="1368.8736,762.5534,1361.8736,781.5534,1375.8736,781.5534,1368.8736,762.5534" style="stroke:#181818;stroke-width:1;"/><line style="stroke:#181818;stroke-width:1;" x1="942.6832" x2="942.6832" y1="551.1055" y2="598.416"/><line style="stroke:#181818;stroke-width:1;" x1="942.6832" x2="971.9095" y1="598.416" y2="598.416"/><line style="stroke:#181818;stroke-width:1;" x1="971.9095" x2="971.9095" y1="598.416" y2="665.0371"/><polygon fill="#FFFFFF" points="942.6832,551.1055,935.6832,570.1055,949.6832,570.1055,942.6832,551.1055" style="stroke:#181818;stroke-width:1;"/><line style="stroke:#181818;stroke-width:1;stroke-dasharray:7.0,7.0;" x1="892.4034" x2="892.4034" y1="269.2422" y2="296.5527"/><line style="stroke:#181818;stroke-width:1;stroke-dasharray:7.0,7.0;" x1="892.4034" x2="830.5181" y1="296.5527" y2="296.5527"/><line style="stroke:#181818;stroke-width:1;stroke-dasharray:7.0,7.0;" x1="830.5181" x2="830.5181" y1="296.5527" y2="722.2707"/><polygon fill="#FFFFFF" points="892.4034,269.2422,885.4034,288.2422,899.4034,288.2422,892.4034,269.2422" style="stroke:#181818;stroke-width:1;"/><line style="stroke:#181818;stroke-width:1;" x1="886.8238" x2="886.8238" y1="754.2707" y2="813.9668"/><line style="stroke:#181818;stroke-width:1;" x1="886.8238" x2="948.0199" y1="813.9668" y2="813.9668"/><line style="stroke:#181818;stroke-width:1;" x1="948.0199" x2="948.0199" y1="813.9668" y2="952.5879"/><line style="stroke:#181818;stroke-width:1;" x1="948.0199" x2="887.5869" y1="952.5879" y2="952.5879"/><line style="stroke:#181818;stroke-width:1;" x1="887.5869" x2="887.5869" y1="952.5879" y2="979.8984"/><polygon fill="#FFFFFF" points="886.8238,754.2707,879.8238,773.2707,893.8238,773.2707,886.8238,754.2707" style="stroke:#181818;stroke-width:1;"/><line style="stroke:#181818;stroke-width:1;" x1="853.0404" x2="853.0404" y1="754.2707" y2="853.9668"/><polygon fill="#FFFFFF" points="853.0404,754.2707,846.0404,773.2707,860.0404,773.2707,853.0404,754.2707" style="stroke:#181818;stroke-width:1;"/><line style="stroke:#181818;stroke-width:1;" x1="819.2569" x2="819.2569" y1="754.2707" y2="813.9668"/><line style="stroke:#181818;stroke-width:1;" x1="819.2569" x2="682.1976" y1="813.9668" y2="813.9668"/><line style="stroke:#181818;stroke-width:1;" x1="682.1976" x2="682.1976" y1="813.9668" y2="853.9668"/><polygon fill="#FFFFFF" points="819.2569,754.2707,812.2569,773.2707,826.2569,773.2707,819.2569,754.2707" style="stroke:#181818;stroke-width:1;"/><line style="stroke:#181818;stroke-width:1;" x1="655.9098" x2="655.9098" y1="885.9668" y2="979.8984"/><polygon fill="#FFFFFF" points="655.9098,885.9668,648.9098,904.9668,662.9098,904.9668,655.9098,885.9668" style="stroke:#181818;stroke-width:1;"/><line style="stroke:#181818;stroke-width:1;" x1="574.3037" x2="574.3037" y1="169.9316" y2="243.0124"/><polygon fill="#FFFFFF" points="574.3037,169.9316,567.3037,188.9316,581.3037,188.9316,574.3037,169.9316" style="stroke:#181818;stroke-width:1;"/><line style="stroke:#181818;stroke-width:1;" x1="538.2529" x2="538.2529" y1="169.9316" y2="197.2422"/><line style="stroke:#181818;stroke-width:1;" x1="538.2529" x2="104.9692" y1="197.2422" y2="197.2422"/><line style="stroke:#181818;stroke-width:1;" x1="104.9692" x2="104.9692" y1="197.2422" y2="245.8975"/><polygon fill="#FFFFFF" points="538.2529,169.9316,531.2529,188.9316,545.2529,188.9316,538.2529,169.9316" style="stroke:#181818;stroke-width:1;"/><line style="stroke:#181818;stroke-width:1;" x1="595.6343" x2="595.6343" y1="275.0124" y2="296.5527"/><line style="stroke:#181818;stroke-width:1;" x1="595.6343" x2="673.9648" y1="296.5527" y2="296.5527"/><line style="stroke:#181818;stroke-width:1;" x1="673.9648" x2="673.9648" y1="296.5527" y2="373.1738"/><polygon fill="#FFFFFF" points="595.6343,275.0124,588.6343,294.0124,602.6343,294.0124,595.6343,275.0124" style="stroke:#181818;stroke-width:1;"/><line style="stroke:#181818;stroke-width:1;" x1="556.2783" x2="556.2783" y1="169.9316" y2="207.2422"/><line style="stroke:#181818;stroke-width:1;" x1="556.2783" x2="292.8815" y1="207.2422" y2="207.2422"/><line style="stroke:#181818;stroke-width:1;" x1="292.8815" x2="292.8815" y1="207.2422" y2="243.0124"/><polygon fill="#FFFFFF" points="556.2783,169.9316,549.2783,188.9316,563.2783,188.9316,556.2783,169.9316" style="stroke:#181818;stroke-width:1;"/><line style="stroke:#181818;stroke-width:1;" x1="278.3311" x2="278.3311" y1="275.0124" y2="373.1738"/><polygon fill="#FFFFFF" points="278.3311,275.0124,271.3311,294.0124,285.3311,294.0124,278.3311,275.0124" style="stroke:#181818;stroke-width:1;"/><line style="stroke:#181818;stroke-width:1;" x1="307.432" x2="307.432" y1="275.0124" y2="296.5527"/><line style="stroke:#181818;stroke-width:1;" x1="307.432" x2="420.2715" y1="296.5527" y2="296.5527"/><line style="stroke:#181818;stroke-width:1;" x1="420.2715" x2="420.2715" y1="296.5527" y2="373.1738"/><polygon fill="#FFFFFF" points="307.432,275.0124,300.432,294.0124,314.432,294.0124,307.432,275.0124" style="stroke:#181818;stroke-width:1;"/><line style="stroke:#181818;stroke-width:1;" x1="552.9731" x2="552.9731" y1="275.0124" y2="373.1738"/><polygon fill="#FFFFFF" points="552.9731,275.0124,545.9731,294.0124,559.9731,294.0124,552.9731,275.0124" style="stroke:#181818;stroke-width:1;"/><line style="stroke:#181818;stroke-width:1;" x1="104.9692" x2="104.9692" y1="277.8975" y2="373.1738"/><polygon fill="#FFFFFF" points="104.9692,277.8975,97.9692,296.8975,111.9692,296.8975,104.9692,277.8975" style="stroke:#181818;stroke-width:1;"/><line style="stroke:#181818;stroke-width:1;" x1="1198.8414" x2="1198.8414" y1="169.9316" y2="471.7949"/><line style="stroke:#181818;stroke-width:1;" x1="1198.8414" x2="1087.7042" y1="471.7949" y2="471.7949"/><line style="stroke:#181818;stroke-width:1;" x1="1087.7042" x2="1087.7042" y1="471.7949" y2="519.1055"/><polygon fill="#181818" points="1087.7042,519.1055,1091.7042,510.1055,1087.7042,514.1055,1083.7042,510.1055,1087.7042,519.1055" style="stroke:#181818;stroke-width:1;"/><text fill="#000000" font-family="sans-serif" font-size="13" lengthAdjust="spacing" textLength="49.9116" x="1144.9298" y="321.1211">manage</text><text fill="#000000" font-family="sans-serif" font-size="13" lengthAdjust="spacing" textLength="8.2202" x="1201.8414" y="184.5">1</text><text fill="#000000" font-family="sans-serif" font-size="13" lengthAdjust="spacing" textLength="8.2202" x="1090.7042" y="514.3633">1</text><line style="stroke:#181818;stroke-width:1;" x1="1239.3387" x2="1239.3387" y1="269.2422" y2="296.5527"/><line style="stroke:#181818;stroke-width:1;" x1="1239.3387" x2="1131.9298" y1="296.5527" y2="296.5527"/><line style="stroke:#181818;stroke-width:1;" x1="1131.9298" x2="1131.9298" y1="296.5527" y2="345.8633"/><line style="stroke:#181818;stroke-width:1;" x1="1131.9298" x2="1041.928" y1="345.8633" y2="345.8633"/><line style="stroke:#181818;stroke-width:1;" x1="1041.928" x2="1041.928" y1="345.8633" y2="373.1738"/><polygon fill="#181818" points="1041.928,373.1738,1045.928,364.1738,1041.928,368.1738,1037.928,364.1738,1041.928,373.1738" style="stroke:#181818;stroke-width:1;"/><text fill="#000000" font-family="sans-serif" font-size="13" lengthAdjust="spacing" textLength="56.5386" x="1071.3912" y="321.1211">manages</text><text fill="#000000" font-family="sans-serif" font-size="13" lengthAdjust="spacing" textLength="8.2202" x="1242.3387" y="283.8105">1</text><text fill="#000000" font-family="sans-serif" font-size="13" lengthAdjust="spacing" textLength="8.2202" x="1044.928" y="368.4316">1</text><line style="stroke:#181818;stroke-width:1;" x1="1268.836" x2="1268.836" y1="269.2422" y2="637.7266"/><line style="stroke:#181818;stroke-width:1;" x1="1268.836" x2="1095.8921" y1="637.7266" y2="637.7266"/><line style="stroke:#181818;stroke-width:1;" x1="1095.8921" x2="1095.8921" y1="637.7266" y2="665.0371"/><polygon fill="#181818" points="1095.8921,665.0371,1099.8921,656.0371,1095.8921,660.0371,1091.8921,656.0371,1095.8921,665.0371" style="stroke:#181818;stroke-width:1;"/><text fill="#000000" font-family="sans-serif" font-size="13" lengthAdjust="spacing" textLength="51.5493" x="1213.2867" y="457.0527">hasTurn</text><text fill="#000000" font-family="sans-serif" font-size="13" lengthAdjust="spacing" textLength="8.2202" x="1271.836" y="283.8105">1</text><text fill="#000000" font-family="sans-serif" font-size="13" lengthAdjust="spacing" textLength="8.2202" x="1098.8921" y="660.2949">1</text><line style="stroke:#181818;stroke-width:1;" x1="1298.3333" x2="1298.3333" y1="269.2422" y2="296.5527"/><line style="stroke:#181818;stroke-width:1;" x1="1298.3333" x2="1370.2091" y1="296.5527" y2="296.5527"/><line style="stroke:#181818;stroke-width:1;" x1="1370.2091" x2="1370.2091" y1="296.5527" y2="373.1738"/><polygon fill="#181818" points="1370.2091,373.1738,1374.2091,364.1738,1370.2091,368.1738,1366.2091,364.1738,1370.2091,373.1738" style="stroke:#181818;stroke-width:1;"/><text fill="#000000" font-family="sans-serif" font-size="13" lengthAdjust="spacing" textLength="84.373" x="1281.836" y="321.1211">usesStatically</text><line style="stroke:#181818;stroke-width:1;" x1="1041.928" x2="1041.928" y1="405.1738" y2="432.4844"/><line style="stroke:#181818;stroke-width:1;" x1="1041.928" x2="1052.9591" y1="432.4844" y2="432.4844"/><line style="stroke:#181818;stroke-width:1;" x1="1052.9591" x2="1052.9591" y1="432.4844" y2="519.1055"/><polygon fill="#181818" points="1052.9591,519.1055,1056.9591,510.1055,1052.9591,514.1055,1048.9591,510.1055,1052.9591,519.1055" style="stroke:#181818;stroke-width:1;"/><text fill="#000000" font-family="sans-serif" font-size="13" lengthAdjust="spacing" textLength="21.874" x="1027.085" y="457.0527">has</text><text fill="#000000" font-family="sans-serif" font-size="13" lengthAdjust="spacing" textLength="8.2202" x="1044.928" y="419.7422">1</text><text fill="#000000" font-family="sans-serif" font-size="13" lengthAdjust="spacing" textLength="8.2202" x="1055.9591" y="514.3633">1</text><line style="stroke:#181818;stroke-width:1;" x1="1014.085" x2="1014.085" y1="405.1738" y2="471.7949"/><line style="stroke:#181818;stroke-width:1;" x1="1014.085" x2="952.8741" y1="471.7949" y2="471.7949"/><line style="stroke:#181818;stroke-width:1;" x1="952.8741" x2="952.8741" y1="471.7949" y2="519.1055"/><polygon fill="#181818" points="1014.085,405.1738,1010.085,411.1738,1014.085,417.1738,1018.085,411.1738,1014.085,405.1738" style="stroke:#181818;stroke-width:1;"/><text fill="#000000" font-family="sans-serif" font-size="13" lengthAdjust="spacing" textLength="79.8789" x="930.2061" y="457.0527">composedOf</text><text fill="#000000" font-family="sans-serif" font-size="13" lengthAdjust="spacing" textLength="8.2202" x="1017.085" y="419.7422">1</text><text fill="#000000" font-family="sans-serif" font-size="13" lengthAdjust="spacing" textLength="32.8872" x="955.8741" y="514.3633">2..32</text><line style="stroke:#181818;stroke-width:1;" x1="986.242" x2="986.242" y1="405.1738" y2="432.4844"/><line style="stroke:#181818;stroke-width:1;" x1="986.242" x2="806.5181" y1="432.4844" y2="432.4844"/><line style="stroke:#181818;stroke-width:1;" x1="806.5181" x2="806.5181" y1="432.4844" y2="491.7949"/><line style="stroke:#181818;stroke-width:1;" x1="806.5181" x2="725.6205" y1="491.7949" y2="491.7949"/><line style="stroke:#181818;stroke-width:1;" x1="725.6205" x2="725.6205" y1="491.7949" y2="519.1055"/><polygon fill="#181818" points="986.242,405.1738,982.242,411.1738,986.242,417.1738,990.242,411.1738,986.242,405.1738" style="stroke:#181818;stroke-width:1;"/><text fill="#000000" font-family="sans-serif" font-size="13" lengthAdjust="spacing" textLength="38.2446" x="764.2734" y="457.0527">tracks</text><text fill="#000000" font-family="sans-serif" font-size="13" lengthAdjust="spacing" textLength="8.2202" x="989.242" y="419.7422">1</text><text fill="#000000" font-family="sans-serif" font-size="13" lengthAdjust="spacing" textLength="8.2202" x="728.6205" y="514.3633">2</text><line style="stroke:#181818;stroke-width:1;" x1="912.1107" x2="912.1107" y1="551.1055" y2="588.416"/><line style="stroke:#181818;stroke-width:1;" x1="912.1107" x2="715.8065" y1="588.416" y2="588.416"/><line style="stroke:#181818;stroke-width:1;" x1="715.8065" x2="715.8065" y1="588.416" y2="665.0371"/><polygon fill="#181818" points="715.8065,665.0371,719.8065,656.0371,715.8065,660.0371,711.8065,656.0371,715.8065,665.0371" style="stroke:#181818;stroke-width:1;"/><text fill="#000000" font-family="sans-serif" font-size="13" lengthAdjust="spacing" textLength="66.7329" x="645.0736" y="622.9844">represents</text><text fill="#000000" font-family="sans-serif" font-size="13" lengthAdjust="spacing" textLength="8.2202" x="915.1107" y="565.6738">1</text><text fill="#000000" font-family="sans-serif" font-size="13" lengthAdjust="spacing" textLength="8.2202" x="718.8065" y="660.2949">1</text><line style="stroke:#181818;stroke-width:1;" x1="957.9695" x2="957.9695" y1="551.1055" y2="588.416"/><line style="stroke:#181818;stroke-width:1;" x1="957.9695" x2="1059.5519" y1="588.416" y2="588.416"/><line style="stroke:#181818;stroke-width:1;" x1="1059.5519" x2="1059.5519" y1="588.416" y2="665.0371"/><polygon fill="#181818" points="1059.5519,665.0371,1063.5519,656.0371,1059.5519,660.0371,1055.5519,656.0371,1059.5519,665.0371" style="stroke:#181818;stroke-width:1;"/><text fill="#000000" font-family="sans-serif" font-size="13" lengthAdjust="spacing" textLength="66.1743" x="989.3776" y="622.9844">belongsTo</text><text fill="#000000" font-family="sans-serif" font-size="13" lengthAdjust="spacing" textLength="8.2202" x="960.9695" y="565.6738">1</text><text fill="#000000" font-family="sans-serif" font-size="13" lengthAdjust="spacing" textLength="8.2202" x="1062.5519" y="660.2949">1</text><line style="stroke:#181818;stroke-width:1;" x1="927.397" x2="927.397" y1="551.1055" y2="637.7266"/><line style="stroke:#181818;stroke-width:1;" x1="927.397" x2="875.5627" y1="637.7266" y2="637.7266"/><line style="stroke:#181818;stroke-width:1;" x1="875.5627" x2="875.5627" y1="637.7266" y2="722.2707"/><polygon fill="#181818" points="927.397,551.1055,923.397,557.1055,927.397,563.1055,931.397,557.1055,927.397,551.1055" style="stroke:#181818;stroke-width:1;"/><text fill="#000000" font-family="sans-serif" font-size="13" lengthAdjust="spacing" textLength="79.8789" x="843.5181" y="622.9844">composedOf</text><text fill="#000000" font-family="sans-serif" font-size="13" lengthAdjust="spacing" textLength="8.2202" x="930.397" y="565.6738">1</text><text fill="#000000" font-family="sans-serif" font-size="13" lengthAdjust="spacing" textLength="22.7119" x="878.5627" y="717.5285">1..*</text><line style="stroke:#181818;stroke-width:1;" x1="858.7516" x2="858.7516" y1="1011.8984" y2="1105.8301"/><polygon fill="#181818" points="858.7516,1011.8984,854.7516,1017.8984,858.7516,1023.8984,862.7516,1017.8984,858.7516,1011.8984" style="stroke:#181818;stroke-width:1;"/><text fill="#000000" font-family="sans-serif" font-size="13" lengthAdjust="spacing" textLength="45.8999" x="808.8517" y="1063.7773">defines</text><text fill="#000000" font-family="sans-serif" font-size="13" lengthAdjust="spacing" textLength="8.2202" x="861.7516" y="1026.4668">1</text><text fill="#000000" font-family="sans-serif" font-size="13" lengthAdjust="spacing" textLength="22.7119" x="861.7516" y="1101.0879">1..*</text><line style="stroke:#181818;stroke-width:1;" x1="708.4854" x2="708.4854" y1="885.9668" y2="913.2773"/><line style="stroke:#181818;stroke-width:1;" x1="708.4854" x2="829.9163" y1="913.2773" y2="913.2773"/><line style="stroke:#181818;stroke-width:1;" x1="829.9163" x2="829.9163" y1="913.2773" y2="979.8984"/><polygon fill="#181818" points="708.4854,885.9668,704.4854,891.9668,708.4854,897.9668,712.4854,891.9668,708.4854,885.9668" style="stroke:#181818;stroke-width:1;"/><text fill="#000000" font-family="sans-serif" font-size="13" lengthAdjust="spacing" textLength="28.5645" x="797.3519" y="937.8457">uses</text><text fill="#000000" font-family="sans-serif" font-size="13" lengthAdjust="spacing" textLength="8.2202" x="711.4854" y="900.5352">1</text><text fill="#000000" font-family="sans-serif" font-size="13" lengthAdjust="spacing" textLength="22.7119" x="832.9163" y="975.1563">1..*</text><line style="stroke:#181818;stroke-width:1;" x1="592.3291" x2="592.3291" y1="169.9316" y2="207.2422"/><line style="stroke:#181818;stroke-width:1;" x1="592.3291" x2="740.2734" y1="207.2422" y2="207.2422"/><line style="stroke:#181818;stroke-width:1;" x1="740.2734" x2="740.2734" y1="207.2422" y2="471.7949"/><line style="stroke:#181818;stroke-width:1;" x1="740.2734" x2="691.1834" y1="471.7949" y2="471.7949"/><line style="stroke:#181818;stroke-width:1;" x1="691.1834" x2="691.1834" y1="471.7949" y2="519.1055"/><polygon fill="#181818" points="691.1834,519.1055,695.1834,510.1055,691.1834,514.1055,687.1834,510.1055,691.1834,519.1055" style="stroke:#181818;stroke-width:1;"/><text fill="#000000" font-family="sans-serif" font-size="13" lengthAdjust="spacing" textLength="49.3086" x="686.9648" y="321.1211">startsAt</text><text fill="#000000" font-family="sans-serif" font-size="13" lengthAdjust="spacing" textLength="8.2202" x="595.3291" y="184.5">1</text><text fill="#000000" font-family="sans-serif" font-size="13" lengthAdjust="spacing" textLength="8.2202" x="694.1834" y="514.3633">1</text><line style="stroke:#181818;stroke-width:1;" x1="610.3545" x2="610.3545" y1="169.9316" y2="197.2422"/><line style="stroke:#181818;stroke-width:1;" x1="610.3545" x2="751.2734" y1="197.2422" y2="197.2422"/><line style="stroke:#181818;stroke-width:1;" x1="751.2734" x2="751.2734" y1="197.2422" y2="481.7949"/><line style="stroke:#181818;stroke-width:1;" x1="751.2734" x2="708.402" y1="481.7949" y2="481.7949"/><line style="stroke:#181818;stroke-width:1;" x1="708.402" x2="708.402" y1="481.7949" y2="519.1055"/><polygon fill="#181818" points="708.402,519.1055,712.402,510.1055,708.402,514.1055,704.402,510.1055,708.402,519.1055" style="stroke:#181818;stroke-width:1;"/><text fill="#000000" font-family="sans-serif" font-size="13" lengthAdjust="spacing" textLength="43.9512" x="756.2734" y="321.1211">endsAt</text><text fill="#000000" font-family="sans-serif" font-size="13" lengthAdjust="spacing" textLength="8.2202" x="613.3545" y="184.5">1</text><text fill="#000000" font-family="sans-serif" font-size="13" lengthAdjust="spacing" textLength="8.2202" x="711.402" y="514.3633">1</text><line style="stroke:#181818;stroke-width:1;" x1="574.3037" x2="574.3037" y1="44" y2="137.9316"/><polygon fill="#181818" points="574.3037,44,570.3037,50,574.3037,56,578.3037,50,574.3037,44" style="stroke:#181818;stroke-width:1;"/><text fill="#000000" font-family="sans-serif" font-size="13" lengthAdjust="spacing" textLength="52.3618" x="517.9419" y="95.8789">includes</text><text fill="#000000" font-family="sans-serif" font-size="13" lengthAdjust="spacing" textLength="8.2202" x="577.3037" y="58.5684">1</text><text fill="#000000" font-family="sans-serif" font-size="13" lengthAdjust="spacing" textLength="6.2651" x="577.3037" y="133.1895">*</text><line style="stroke:#181818;stroke-width:1;" x1="673.9648" x2="673.9648" y1="405.1738" y2="519.1055"/><polygon fill="#181818" points="673.9648,519.1055,677.9648,510.1055,673.9648,514.1055,669.9648,510.1055,673.9648,519.1055" style="stroke:#181818;stroke-width:1;"/><text fill="#000000" font-family="sans-serif" font-size="13" lengthAdjust="spacing" textLength="54.1392" x="615.8257" y="457.0527">captures</text><text fill="#000000" font-family="sans-serif" font-size="13" lengthAdjust="spacing" textLength="8.2202" x="676.9648" y="419.7422">1</text><text fill="#000000" font-family="sans-serif" font-size="13" lengthAdjust="spacing" textLength="8.2202" x="676.9648" y="514.3633">1</text><!--SRC=[bLP9R-Cs6BthLx3gOO2WSJlJcn4OY9SuXjtOOplriQ2bBn9XYXH8QbBF8F-zNBGl0rS7MoBVU_nswPTKu2Z1YE8hpnG2Ul5Y4WA295LNb82AUIZhIrWfGSwP0kd92s4f5ZX1b31GrnGG5vfGsn0yO-6C2mO2_L5R3oYMyh6GMWMS7SXtQ41c1ZB5mINAHIWNwDSj3JSuW1hkXIku0NQ8SSZV2OlG6wOIFCLJf3WwSwLuWa8Y8524CyzxaEfAOU8XVLapvmH7Hk67NJBNA1Nycmv9M5ipLzkCPSobEiL4GGEsqT5oW3b9bWAkZTqdpbJ_xeVdVXz-pqrqUNbuACoPJ91K882RN7WUOVhXJOS1pMAGSgQ51QSKH8FnuwEEV9KWPZ4d0NH0dr05y-S2l-CpXJr8dWcDNapy9aFZFpes_4tWlKSOdwKIE50kuCYVOWaMsbObIKeX0QPafLSSzIbdBrzNdMFWNmKiR2ctYJf0abFuV-ISQenPi4XdjcDZ5VTMhEtkb6CHEZUQcvGpC17kXAjseYLt3YmbVwjKBBCLvWgyOaGHJB_d9hhj7PV4j8HT0fObQAUdX2uFKvojN9l2F3slZWjxDzqypjPUoI8Gm55NP0zdztXwiJVxxNPjRzOlg-NpqSci3i_RdRtz-hfOEE1wzRBq1don9pN2KNU_nTW9dd1bDclS8jNzSbLp6BrS1h-pFbe9s7D-AG6zXvRGDIDHh6u4JucCzGox3Vmr0s2tMc66PBz7dR3_nR_14lHqnqeFhA78E-oycB6OLfJYdAPGAo8tm-T4Aim2k9bWiZTCwkwKhL0wanVoqtP_UjpF3wvmTVbNJvl5awldVLdP1VgVSgzSgK2bIeMgbXpCPAHAX1niShDRw-o3zYhKRM-N6vakW3aNfoeJFuKis4x_OLPLRKEystOpB1NjL5XJTCDPrCKL2oNi4ElFZHjmhjnDhePiRE5EHCKTt_Dd4yNsMFS_- -Z-VcB_gzVI62MOuGZG96VaxuSEsatn0YurVWXU6y0Q7sDvp0HhuGssTxAFKIP1QjSL2J2bruBdZX_oGH_I1TxTtoF_osZqvnU_FY76AE19oYM4sxT-Yb-zLSR8bCMbL7SI3M-B5uV62aW5I3jQXl6Dw9n1Zw187dcNO6tvF1hT-QsvK7V0fArtPBKKgaamHY6ywHGO4xkZOuXMbtOfAWl6bcV3mofuMbue_GbTUFSph2bWYtHJehJapgzrtrX_tWKq2-tvLLiFI0Qk7GpsFm00]--></g></svg>